<?xml version="1.0" standalone="no"?><!DOCTYPE svg PUBLIC "-//W3C//DTD SVG 1.1//EN" "http://www.w3.org/Graphics/SVG/1.1/DTD/svg11.dtd"><svg t="1547622534681" class="icon" style="" viewBox="0 0 2899 1024" version="1.1" xmlns="http://www.w3.org/2000/svg" p-id="17089" xmlns:xlink="http://www.w3.org/1999/xlink" width="566.2109375" height="200"><defs><style type="text/css"></style></defs><path d="M231.51402978 563.88095901c-21.50608188 2.1400572-61.86955163 11.6190176-83.9360299 31.08756597-66.25218972 57.48591819-26.55263541 162.62344511 107.27758416 162.62344506 77.76868365 0 155.53935803-49.63837813 216.59369716-128.98771798-86.6374789-42.29947499-160.27933589-72.5728238-239.93525142-64.72329305z m499.43958405 72.67236136c123.89139571 41.38273417 151.97193242 43.57455093 151.97193243 43.57455093V235.26969985a137.60070172 137.60070172 0 0 0-137.60070172-137.60070171H160.16551776A137.60070172 137.60070172 0 0 0 22.56481609 235.26969985v583.07102906a137.60070172 137.60070172 0 0 0 137.60070167 137.60070173h585.00703433a137.60070172 137.60070172 0 0 0 137.60070175-137.60070173v-5.657714s-223.78030789-93.00788171-336.816139-147.1821858c-75.78191426 92.95811295-173.58053802 149.42476664-275.20140342 149.42476664-171.64453275 0-229.9456634-149.78111109-148.71108249-248.39494728 17.73559973-21.45531776 47.90542949-41.99389469 94.69006621-53.51138401 73.18298896-17.9386563 189.68471734 11.21190904 298.84853792 47.14098115a596.93262755 596.93262755 0 0 0 48.4658259-118.08138923H227.69178807v-34.04383101h173.27495775v-61.15586746H191.30384788V313.24343083H401.37484973v-86.99382326a14.42299023 14.42299023 0 0 1 14.88086295-14.62704223h84.80300189V313.24343083h207.72589732v33.99207151H501.05871457v61.15586743H670.66372307a690.95977372 690.95977372 0 0 1-71.80638473 180.86967237c51.47285513 18.54981683 97.64533592 36.13212872 132.09627549 47.64961803z" fill="#25ABEE" p-id="17090"></path><path d="M2490.91675588 204.13037441h278.97387638v55.24532801h99.63310074V193.93772983a1.42736837 1.42736837 0 0 1 0-0.40810395 26.55164004 26.55164004 0 0 0-25.78818708-26.85722028H2682.43694555v-51.47285508h-104.27055492v51.47285508h-186.88174007v92.70230145h99.63310068z m-674.95612726-84.19084605l-102.13049772 241.61743591h78.33107077v287.48334109h85.7197427v-381.35819482h-31.03580645l64.57000524-147.74258218h-95.45451454z m1033.68744746 410.20417528a16.25746716 16.25746716 0 0 0-15.28896688-11.67177251h-83.07005324l24.05424301 81.23557634h-97.59457175V442.38443664h191.52018965V404.97723198h-191.52018965v-74.04996096h191.52018965v-37.45796881h-478.03503046v37.45796881h191.52018969v74.04996099h-191.47042091v37.45796878h191.52018965v157.27230668h-191.52018965v37.45796881h489.70680294l-0.40810396-1.27408057h0.40810393z m-814.49482502-212.16029492a19.8756569 19.8756569 0 0 0-17.63307606-11.26366857h-74.20225343l57.79149846 181.99046515h87.75926697z" fill="#394144" p-id="17091"></path><path d="M2222.9527273 124.32316186h-89.08311633v93.10940997h-219.49919811v37.45796884h219.49919811v334.57355806a15.28896686 15.28896686 0 0 1-14.37222609 14.0148863h-45.25474466v38.78281355h115.43169975A35.16462378 35.16462378 0 0 0 2222.95173192 607.55604286V254.83977651h36.18388823v-37.40720468h-36.18388823zM1608.54031155 613.92644572a1055.34681717 1055.34681717 0 0 1-196.30993633-93.56827811c73.33528141-54.27583235 137.60070172-127.96845355 163.08231316-226.53152561h-170.93084857v-61.15586744h198.34846525v-38.27318127h-198.34846526v-77.6691461h-88.42119168a17.83712802 17.83712802 0 0 0-17.53154771 18.14370366v59.52544244h-196.97285638v38.1706576h196.97285638v61.15586743h-166.2416348v38.17264838h331.26094857s-18.34676024 71.65309689-109.16282522 148.65932295c-81.54115659-61.46244303-108.60342422-110.53942946-108.6034242-110.53942946h-88.98158805c35.92907214 62.2766602 86.99382328 112.1190903 141.98333982 151.76788045-50.50535017 32.8205146-116.04286031 64.46847692-200.7443339 89.7977959v45.8669006a896.23903818 896.23903818 0 0 0 257.007931-99.07270431 920.03946049 920.03946049 0 0 0 253.59279792 98.86865232z m-411.73207661 113.39317088l-81.54115656 221.74078361h41.4842625l15.28896683-44.64358416h81.54115658l14.77933464 44.64358416h41.48426248l-81.54115655-221.74078361z m-14.77933462 149.11819102l31.80125016-91.73380116 30.57793372 91.73380116z m349.81176082-149.11819102h-39.85284215v221.74078361h134.23633274v-30.16982981h-94.38349059V727.3196166z m291.66292257 0h39.90460167v221.74078361h-39.90460167z m338.70138006 0h-86.17960615v221.74078361h39.85383751V863.64623778h46.32477328c43.01415455 0 73.03069651-28.08053673 73.03069653-68.23995451s-30.01654197-68.08666668-73.03069653-68.08666667z m-2.24258088 106.0542677h-44.08318776V757.48944636h44.08318776c22.11724244 0 35.36867574 19.36602471 35.36867575 38.07012473s-12.38446131 37.81431319-35.31791157 37.81431321z m303.3844639-106.0542677l-81.5411566 221.74078361h41.48326711l15.28896685-44.64358416h81.54115659l14.77933463 44.64358416h41.48426248l-81.54115656-221.74078361z m-14.93262247 149.11819102l31.80125012-91.73380116 30.57793372 91.73380116z m350.47368547-149.11819102l-43.52179603 94.48601425-44.18471605-94.48601425h-43.06491869l67.11816633 130.6699025v91.07088111h39.5990214v-91.07088111l0.25481609-0.50963225 66.91510978-130.16027025h-43.11568283z" fill="#394144" p-id="17092"></path></svg>