<?xml version="1.0" standalone="no"?><!DOCTYPE svg PUBLIC "-//W3C//DTD SVG 1.1//EN" "http://www.w3.org/Graphics/SVG/1.1/DTD/svg11.dtd"><svg t="1547622473561" class="icon" style="" viewBox="0 0 3246 1024" version="1.1" xmlns="http://www.w3.org/2000/svg" p-id="15232" xmlns:xlink="http://www.w3.org/1999/xlink" width="633.984375" height="200"><defs><style type="text/css"></style></defs><path d="M1132.37149 666.816415h1521.62419v4.423326H1132.37149z" fill="" p-id="15233"></path><path d="M517.086825 55.955076c-252.571922 0-459.141253 206.56933-459.141253 459.141252 0 252.571922 206.56933 459.141253 459.141253 459.141253 252.571922 0 459.141253-206.56933 459.141253-459.141253 0-252.350756-206.56933-459.141253-459.141253-459.141252z m0 0" fill="#FFFFFF" p-id="15234"></path><path d="M517.086825 977.112743c-62.147732 0-122.304968-12.385313-179.365875-36.492441-54.849244-23.443629-104.390497-56.618575-146.854427-99.082505C148.402592 799.073866 115.006479 749.75378 91.784017 694.683369 67.67689 637.843629 55.291577 577.24406 55.291577 515.096328s12.385313-122.304968 36.49244-179.365874c23.443629-54.849244 56.618575-104.390497 99.082506-146.854428 42.463931-42.463931 91.784017-75.860043 146.854427-99.082505 56.839741-24.107127 117.218143-36.492441 179.365875-36.492441 62.147732 0 122.304968 12.385313 179.365875 36.492441 54.849244 23.443629 104.390497 56.618575 146.854427 99.082505 42.463931 42.463931 75.860043 91.784017 99.082506 146.854428 24.107127 56.839741 36.492441 117.218143 36.49244 179.365874 0 62.147732-12.385313 122.304968-36.49244 179.365875-23.443629 54.849244-56.618575 104.390497-99.082506 146.854428-42.463931 42.463931-91.784017 75.860043-146.854427 99.082505-57.060907 24.328294-117.439309 36.713607-179.365875 36.713607z m0-918.061339c-61.484233 0-120.756803 12.164147-177.154212 36.050108-54.406911 23.001296-103.284665 56.176242-144.86393 97.976674-42.021598 42.021598-74.975378 90.899352-97.976674 145.085097-23.885961 56.176242-36.050108 115.891145-36.050108 177.154212 0 61.484233 12.164147 120.756803 36.050108 177.154211 23.222462 54.406911 56.176242 103.284665 97.976674 145.085097 41.800432 41.800432 90.899352 74.975378 145.085097 97.976674 56.176242 23.885961 115.891145 36.050108 177.154211 36.050108 61.484233 0 120.756803-12.164147 177.154212-36.050108 54.406911-23.222462 103.284665-56.176242 145.085097-97.976674 42.021598-42.021598 74.975378-90.899352 97.976674-145.085097 23.885961-56.176242 36.050108-115.891145 36.050108-177.154211 0-61.484233-12.164147-120.756803-36.050108-177.154212-23.222462-54.406911-56.176242-103.284665-97.976674-145.085097-42.021598-42.021598-90.899352-74.975378-145.085097-97.976674-56.397408-23.885961-116.112311-36.050108-177.375378-36.050108z m0 0" fill="#1898FC" p-id="15235"></path><path d="M245.273434 236.205616s66.128726 27.203456 75.860043 31.184449c9.731317 4.20216 8.625486 15.039309 9.067819 16.808639 0.442333 2.211663 0 181.577538 0 181.577538l-85.149028 38.040605 42.463931 55.07041 243.72527-112.57365-40.473434-54.406912-16.366307 7.961988V267.611231h52.416415s110.80432-2.875162 109.477321 92.22635c-1.548164 94.880346-12.827646 102.842333-99.082505 143.315767 0 0 58.609071 43.12743 72.763715 57.724406 13.933477 14.596976 32.95378 42.021598 26.097624 114.34298-6.634989 72.100216-36.934773 92.22635-89.351188 92.668683-52.416415 0.442333-70.994384 0-70.994384 0v-163.884233l72.763715-34.059612-42.463931-51.752915L263.851404 628.112311l40.473434 55.07041 25.876458-13.491144-0.442333 86.697192s-2.211663 9.731317-21.231965 16.808639c-19.462635 6.856156-63.47473 25.876458-63.47473 25.876458s-16.808639 7.519654 24.107127 6.856156c41.136933-0.442333 315.60432 0 315.60432 0s188.433693-1.548164 204.8-133.142117c16.366307-131.372786-80.504536-149.72959-139.55594-164.1054 0 0 133.584449-21.674298 138.450108-121.420302 3.759827-100.188337-69.888553-157.249244-265.620734-158.355076-196.174514-1.105832-264.957235 0-264.957235 0s-20.789633-0.221166-12.60648 7.298489z m0 0" fill="#1898FC" p-id="15236"></path><path d="M1184.345572 191.751188h-17.472138c-6.634989 0-9.952484-3.317495-9.952484-9.952484s3.317495-9.952484 9.952484-9.952484h201.924838c14.818143 0 31.626782 2.432829 50.425918 7.298488 18.799136 4.865659 35.386609 16.366307 49.983585 34.501944 14.37581 18.135637 21.453132 39.588769 20.789633 64.359396-0.442333 14.818143-3.759827 28.088121-9.952484 39.588768-6.192657 11.721814-15.039309 22.337797-26.539956 31.847949-11.500648 9.510151-22.78013 16.587473-34.059612 21.010799l-20.126134 8.404319c13.269978 2.211663 25.876458 4.865659 37.819439 8.183154 12.164147 3.096328 24.54946 10.394816 37.377106 21.453131 12.827646 11.058315 21.895464 24.107127 27.424622 39.146437 5.529158 15.039309 7.961987 30.742117 7.740821 46.887257-0.884665 21.453132-5.750324 39.809935-14.596977 55.291576-8.846652 15.481641-20.568467 27.866955-34.72311 37.377106-14.37581 9.510151-28.972786 15.923974-43.790929 19.462635-15.039309 3.538661-31.405616 5.307991-49.09892 5.307992h-197.059179c-5.97149 0-9.510151-3.317495-10.394816-9.952484-0.884665-6.634989 2.875162-9.952484 11.279481-9.952484h15.481642c9.288985 0 16.366307-2.653996 21.010799-7.740821 4.644492-5.086825 7.077322-13.712311 7.077322-25.434125V221.387473c0-9.952484-2.653996-17.472138-7.740821-22.337797-5.307991-4.644492-12.827646-7.298488-22.78013-7.298488z m173.173218 0h-53.301079c-14.154644 0-24.107127 3.538661-29.415119 10.394816-5.529158 7.077322-8.183153 13.933477-8.183154 21.010799v147.739093h89.572355c12.385313 0 24.107127-2.653996 35.165442-8.183153 11.058315-5.307991 20.789633-15.039309 29.415119-28.75162 8.40432-13.712311 12.606479-32.511447 12.385313-55.733909-0.221166-19.241469-3.980994-35.386609-11.058315-48.435421-7.298488-13.048812-16.587473-22.78013-28.530454-28.75162-11.942981-6.192657-23.885961-9.288985-36.050108-9.288985z m-91.120518 199.049676v167.865227c0 9.067819 3.317495 16.808639 9.952484 23.664795 6.634989 6.856156 13.269978 10.17365 19.904968 10.17365h64.138228c15.923974 0 31.184449-3.759827 45.781426-11.058316s25.434125-19.020302 32.732613-34.72311c7.298488-15.702808 11.279482-34.059611 11.942981-54.849244s-2.653996-39.146436-10.394816-54.849244c-9.952484-19.683801-22.116631-32.290281-36.271275-37.819438-14.154644-5.529158-29.857451-8.183153-47.108423-8.183154h-90.678186zM2056.625486 269.380562c1.990497 7.077322 0.663499 11.500648-3.980994 13.712311s-8.625486 0.663499-11.500648-4.423327l-8.404319-14.154643c-5.97149-9.510151-12.827646-19.462635-20.126134-29.415119-7.519654-9.952484-19.241469-20.3473-35.165443-31.184449-15.923974-10.837149-36.934773-15.702808-62.590065-15.039309-21.895464 1.105832-42.242765 7.740821-60.820734 20.126134-18.57797 12.385313-32.290281 28.530454-41.136933 48.214255-8.846652 19.683801-15.481641 40.915767-19.683801 63.47473-4.20216 22.558963-6.413823 44.675594-6.192657 66.571058 0.221166 39.809935 7.077322 73.869546 20.568467 102.178834 13.491145 28.309287 30.742117 49.762419 51.310583 64.359395 20.568467 14.596976 44.233261 22.116631 70.773218 22.558963 23.222462 0.663499 42.685097-3.980994 58.166739-13.712311 15.702808-9.731317 28.972786-22.116631 40.252267-36.713607 11.058315-14.596976 19.020302-25.876458 24.107128-33.617278l8.404319-13.269979c3.317495-5.307991 6.856156-7.077322 10.173651-5.307991 3.317495 1.990497 3.759827 5.97149 1.105831 12.385313l-6.634989 15.923974c-3.538661 8.625486-10.837149 21.674298-21.453132 39.146436-10.615983 17.472138-26.539957 33.838445-47.550756 48.656588-21.010799 14.818143-46.002592 23.001296-74.975378 24.107127-31.847948 1.326998-60.378402-5.529158-85.149028-20.568466-24.770626-15.260475-44.454428-32.511447-58.830237-52.195249-14.37581-19.683801-25.212959-41.579266-32.290281-65.907559-7.298488-24.328294-10.615983-52.637581-10.394817-84.927862 0.221166-28.75162 3.317495-55.07041 9.510152-79.177537 6.192657-23.885961 15.481641-46.444924 28.309287-67.455724 12.827646-21.010799 30.078618-38.482937 52.195248-52.195248 21.895464-13.712311 48.435421-21.453132 79.177538-23.001296 17.472138-0.884665 34.501944 0.884665 50.647084 4.865658l29.415119 8.40432c6.192657 1.548164 11.279482 2.211663 15.039309 1.769331 5.086825-0.442333 11.058315-2.653996 17.472138-6.63499l11.942981-7.298488 28.309287 99.746005zM2293.052268 191.751188h-17.472138c-6.634989 0-9.952484-3.317495-9.952484-9.952484s3.317495-9.952484 9.952484-9.952484h201.924838c14.818143 0 31.626782 2.432829 50.425918 7.298488 18.799136 4.865659 35.386609 16.366307 49.983585 34.501944 14.37581 18.135637 21.453132 39.588769 20.789633 64.359396-0.442333 14.818143-3.759827 28.088121-9.952484 39.588768-6.192657 11.721814-15.039309 22.337797-26.539957 31.847949-11.500648 9.510151-22.78013 16.587473-34.059611 21.010799l-20.126134 8.404319c13.269978 2.211663 25.876458 4.865659 37.819438 8.183154 12.164147 3.096328 24.54946 10.394816 37.377106 21.453131 12.827646 11.058315 21.895464 24.107127 27.424622 39.146437 5.529158 15.039309 7.961987 30.742117 7.740821 46.887257-0.884665 21.453132-5.750324 39.809935-14.596976 55.291576-8.846652 15.481641-20.568467 27.866955-34.72311 37.377106-14.37581 9.510151-28.972786 15.923974-43.790929 19.462635-15.039309 3.538661-31.405616 5.307991-49.09892 5.307992h-197.05918c-5.97149 0-9.510151-3.317495-10.394816-9.952484-0.884665-6.634989 2.875162-9.952484 11.279482-9.952484h15.481641c9.288985 0 16.366307-2.653996 21.231966-7.740821 4.644492-5.086825 7.077322-13.712311 7.077321-25.434125V221.387473c0-9.952484-2.653996-17.472138-7.74082-22.337797-5.529158-4.644492-13.048812-7.298488-23.001296-7.298488z m173.173218 0H2412.924406c-14.154644 0-24.107127 3.538661-29.415119 10.394816-5.529158 7.077322-8.183153 13.933477-8.183153 21.010799v147.739093h89.572354c12.385313 0 24.107127-2.653996 35.165443-8.183153 11.058315-5.307991 20.789633-15.039309 29.415119-28.75162 8.40432-13.712311 12.606479-32.511447 12.385313-55.733909-0.221166-19.241469-3.980994-35.386609-11.058315-48.435421-7.298488-13.048812-16.587473-22.78013-28.530454-28.75162-11.942981-6.192657-23.885961-9.288985-36.050108-9.288985z m-91.120518 199.049676v167.865227c0 9.067819 3.317495 16.808639 9.952483 23.664795 6.634989 6.856156 13.269978 10.17365 19.904968 10.17365h64.138229c15.923974 0 31.184449-3.759827 45.781425-11.058316s25.434125-19.020302 32.732614-34.72311c7.298488-15.702808 11.279482-34.059611 11.94298-54.849244 0.884665-20.789633-2.653996-39.146436-10.394816-54.849244-9.952484-19.683801-22.116631-32.290281-36.271274-37.819438-14.154644-5.529158-29.857451-8.183153-47.108424-8.183154h-90.678185z" fill="" p-id="15237"></path><path d="M1281.658747 859.673434h-62.368898c-20.789633 0-36.713607-3.980994-47.550756-11.94298-16.587473-11.500648-24.770626-33.174946-24.770626-65.022895 0-31.626782 8.183153-53.743413 24.770626-65.907559 11.058315-7.298488 26.761123-11.058315 47.550756-11.058315H1280.552916v21.895464h-61.263067c-15.923974 0-27.203456 2.211663-33.838445 6.413823-11.058315 8.625486-16.587473 24.770626-16.587473 48.435421s5.529158 39.588769 16.587473 47.550756c6.634989 4.865659 17.914471 7.298488 33.838445 7.298488h40.252268v-23.001296c0-8.625486-1.548164-14.596976-4.644493-18.356803-3.096328-3.096328-8.625486-4.644492-16.587473-4.644493h-27.424622v-21.010799h27.424622c28.75162 0 43.12743 14.596976 43.12743 44.012095v45.339093zM1413.695032 859.673434h-59.493736c-20.789633 0-36.050108-5.086825-45.781426-15.481641-8.625486-9.067819-12.827646-23.222462-12.827645-42.021599v-96.207343h21.010799v93.332181c0 13.491145 2.653996 23.001296 8.183153 28.309288 5.529158 6.634989 15.260475 10.17365 29.193953 10.17365h59.493736v21.895464zM1574.704104 782.707559c0 22.558963-7.298488 41.800432-21.895465 57.724406-14.154644 15.923974-31.405616 23.885961-52.195248 23.885962-20.126134 0-37.598272-7.961987-52.195248-23.885962-14.154644-15.923974-21.010799-35.165443-21.0108-57.724406 0-22.558963 7.077322-41.800432 21.0108-57.724406 14.596976-15.923974 32.069114-23.885961 52.195248-23.885961 20.789633 0 38.040605 7.961987 52.195248 23.885961 14.596976 15.923974 21.895464 35.165443 21.895465 57.724406z m-21.895465 0c0-16.587473-4.865659-30.52095-14.596976-42.021598-10.394816-12.164147-22.558963-18.356803-36.713607-18.356803-14.596976 0-27.203456 6.192657-37.598272 18.356803-10.394816 11.500648-15.481641 25.655292-15.481641 42.021598s5.086825 30.52095 15.481641 42.021599c10.394816 11.500648 23.001296 17.472138 37.598272 17.472138 13.933477 0 26.31879-5.750324 36.713607-17.472138 9.731317-11.279482 14.596976-25.434125 14.596976-42.021599zM1726.866523 813.007343c0 16.587473-6.192657 28.972786-18.356804 37.598273-9.731317 6.192657-21.453132 9.067819-34.72311 9.067818h-85.149028v-153.931749h88.908855c12.164147 0 22.558963 3.096328 31.18445 9.067818 9.067819 7.298488 13.712311 17.693305 13.712311 31.184449 0 12.827646-4.20216 23.222462-12.827646 31.18445 11.500648 8.625486 17.250972 20.568467 17.250972 35.828941z m-26.539957-66.792224c0-12.164147-7.740821-18.356803-23.001296-18.356804h-66.792225v41.136933h58.609072c20.789633 0 31.184449-7.519654 31.184449-22.780129z m5.529158 66.792224c0-7.298488-2.653996-13.048812-8.183154-17.472138-4.20216-3.759827-9.510151-5.529158-15.481641-5.529157h-71.436717v47.550755h63.253563c21.010799 0.221166 31.847948-7.961987 31.847949-24.54946zM1908.222894 859.673434H1884.336933l-16.587473-36.713607h-88.02419l-14.596976 36.713607h-23.885961l64.138229-153.931749h16.587473c7.961987 0 13.933477 1.76933 18.356803 5.529157 3.759827 3.096328 7.298488 8.846652 11.058315 17.472139l56.839741 130.930453z m-49.541253-58.609071l-29.193952-67.67689c-1.76933-4.20216-4.20216-6.413823-7.298488-6.413823h-1.990497l-31.184449 74.090713h69.667386zM2040.038013 859.673434h-59.493737c-20.789633 0-36.050108-5.086825-45.781425-15.481641-8.625486-9.067819-12.827646-23.222462-12.827646-42.021599v-96.207343h21.010799v93.332181c0 13.491145 2.653996 23.001296 8.183154 28.309288 5.529158 6.634989 15.260475 10.17365 29.193952 10.17365h59.493737v21.895464zM2248.819006 859.673434h-57.724406c-48.214255 0-72.321382-25.655292-72.321382-76.965875s24.107127-76.965875 72.321382-76.965874h57.724406v21.895464h-57.724406c-15.260475 0-26.539957 2.653996-33.838444 8.183153-11.500648 8.625486-17.472138 24.107127-17.472139 46.666091 0 22.558963 5.750324 37.819438 17.472139 45.781426 7.298488 6.192657 18.57797 9.067819 33.838444 9.067818h57.724406v22.337797zM2410.049244 782.707559c0 22.558963-7.298488 41.800432-21.895464 57.724406-14.154644 15.923974-31.405616 23.885961-52.195249 23.885962-20.126134 0-37.598272-7.961987-52.195248-23.885962-14.154644-15.923974-21.010799-35.165443-21.010799-57.724406 0-22.558963 7.077322-41.800432 21.010799-57.724406 14.596976-15.923974 32.069114-23.885961 52.195248-23.885961 20.789633 0 38.040605 7.961987 52.195249 23.885961 14.596976 15.923974 21.895464 35.165443 21.895464 57.724406z m-22.116631 0c0-16.587473-4.865659-30.52095-14.596976-42.021598-10.394816-12.164147-22.558963-18.356803-36.713607-18.356803-14.596976 0-27.203456 6.192657-37.598272 18.356803-10.394816 11.500648-15.481641 25.655292-15.481641 42.021598s5.086825 30.52095 15.481641 42.021599c10.394816 11.500648 23.001296 17.472138 37.598272 17.472138 13.933477 0 26.31879-5.750324 36.713607-17.472138 9.731317-11.279482 14.596976-25.434125 14.596976-42.021599zM2460.253996 859.673434h-21.895465v-153.931749h21.895465v153.931749zM2615.955076 859.673434h-21.0108l-85.149028-123.631965v123.631965h-21.895464v-153.931749h24.770626l82.495033 117.218142v-117.218142h21.010799v153.931749z" fill="" p-id="15238"></path></svg>