<?xml version="1.0" standalone="no"?><!DOCTYPE svg PUBLIC "-//W3C//DTD SVG 1.1//EN" "http://www.w3.org/Graphics/SVG/1.1/DTD/svg11.dtd"><svg t="1547619964278" class="icon" style="" viewBox="0 0 1024 1024" version="1.1" xmlns="http://www.w3.org/2000/svg" p-id="2035" xmlns:xlink="http://www.w3.org/1999/xlink" width="200" height="200"><defs><style type="text/css"></style></defs><path d="M511.75342129 11.19862293c-274.6886923 0-499.44519413 224.75650182-499.44519413 499.44519412S237.06472898 1010.08901117 511.75342129 1010.08901117s499.44519413-224.75650182 499.44519411-499.44519412-224.75650182-499.44519413-499.44519411-499.44519412z" fill="#FFFFFF" p-id="2036"></path><path d="M511.75342129 1013.17124516c-67.56256884 0-133.15250794-13.31525079-195.16705563-39.69917367-59.79533921-25.39760799-113.54949982-61.76796897-159.78300952-108.00147866-46.2335097-46.2335097-82.60387066-99.98767032-108.00147865-159.78300952-26.26063351-61.89125832-39.69917367-127.60448678-39.69917366-195.16705561 0-67.56256884 13.31525079-133.15250794 39.69917366-195.16705562 25.39760799-59.79533921 61.76796897-113.54949982 108.00147865-159.78300952 46.2335097-46.2335097 99.98767032-82.60387066 159.78300952-108.00147867 61.89125832-26.26063351 127.60448678-39.69917367 195.16705563-39.69917366s133.15250794 13.31525079 195.16705561 39.69917366c59.79533921 25.39760799 113.54949982 61.76796897 159.78300953 108.00147867s82.60387066 99.98767032 108.00147865 159.78300952c26.26063351 61.89125832 39.69917367 127.60448678 39.69917367 195.16705562 0 67.56256884-13.31525079 133.15250794-39.69917367 195.16705561-25.39760799 59.79533921-61.76796897 113.54949982-108.00147865 159.78300952s-99.98767032 82.60387066-159.78300953 108.00147866c-62.01454768 26.38392287-127.60448678 39.69917367-195.16705561 39.69917367z m0-998.89038825c-66.69954333 0-131.54974627 13.19196143-192.70126843 39.20601623-59.05560305 25.02773992-112.19331688 61.02823281-157.81037979 106.6452957s-81.61755579 98.75477672-106.6452957 157.81037978c-26.01405479 61.15152216-39.20601622 126.0017251-39.20601623 192.70126843s13.19196143 131.54974627 39.20601623 192.70126843c25.02773992 59.05560305 61.02823281 112.19331688 106.6452957 157.81037977s98.75477672 81.61755579 157.81037979 106.64529572c61.15152216 26.01405479 126.0017251 39.20601622 192.70126843 39.20601622 66.69954333 0 131.54974627-13.19196143 192.70126842-39.20601622 59.05560305-25.02773992 112.19331688-61.02823281 157.81037978-106.64529572s81.61755579-98.75477672 106.64529572-157.81037977c26.01405479-61.15152216 39.20601622-126.0017251 39.20601622-192.70126843s-13.19196143-131.54974627-39.20601622-192.70126843c-25.02773992-59.05560305-61.02823281-112.19331688-106.64529572-157.81037978s-98.75477672-81.61755579-157.81037978-106.6452957c-61.15152216-26.01405479-126.0017251-39.20601622-192.70126842-39.20601623z" fill="#1898FC" p-id="2037"></path><path d="M215.98224855 207.22870405s72.12427513 29.46615685 82.48058132 34.02786314c10.6028849 4.56170629 9.36999129 16.39748478 9.98643809 18.24682517 0.6164468 2.34249783 0 197.50955344 0 197.50955344l-92.71359812 41.30193533 46.35679907 60.04191794 265.07212228-122.54962305-44.01430124-59.05560306-17.75366773 8.63025513V241.62643527h56.95968395s120.5769933-3.08223399 119.09752099 100.23424903c-1.72605103 103.31648302-14.05498695 111.94673815-107.8781893 155.71446067 0 0 63.86388807 46.72666714 79.27505796 62.63099448 15.16459119 15.78103797 35.75391416 45.74035225 28.60313134 124.27567407-7.15078283 78.41203246-40.31562046 100.23424903-97.27530441 100.72740646-56.95968395 0.6164468-77.30242822 0-77.30242822 0V606.93280658l79.27505798-36.98680776-46.35679907-56.34323715-263.09949254 119.59067842 44.01430124 59.91862857 28.10997389-14.67143374-0.61644679 94.19307043s-2.34249783 10.6028849-22.93182081 18.24682516c-20.95919106 7.52065092-69.04204114 28.10997389-69.04204115 28.1099739s-18.24682516 8.26038707 26.38392286 7.52065091c44.63074803-0.6164468 343.48415474 0 343.48415475 0s205.03020435-1.72605103 222.78387207-144.86499707c17.75366773-142.89236732-87.53544503-162.86524351-151.76920118-178.64628148 0 0 145.48144386-23.42497826 150.65959694-131.91961434 4.06854886-108.86450418-76.19282398-171.12563057-288.86696861-172.35852416-213.29059141-1.10960424-288.37381117 0-288.37381117 0s-23.42497826 0.24657871-14.54814439 8.50696578z" fill="#1898FC" p-id="2038"></path></svg>