<?xml version="1.0" standalone="no"?><!DOCTYPE svg PUBLIC "-//W3C//DTD SVG 1.1//EN" "http://www.w3.org/Graphics/SVG/1.1/DTD/svg11.dtd"><svg t="1547620186388" class="icon" style="" viewBox="0 0 1024 1024" version="1.1" xmlns="http://www.w3.org/2000/svg" p-id="1668" xmlns:xlink="http://www.w3.org/1999/xlink" width="200" height="200"><defs><style type="text/css"></style></defs><path d="M506.65750199 11.58606812c-277.80986975 0-498.63309875 224.38489527-498.63309872 498.63309875 0 277.80986975 224.38489527 498.63309875 498.63309872 498.63310013 131.78160443 0 220.823229-46.30164475 260.0015454-71.23330023 96.16495431-60.5483042 149.58993018-142.46660044 135.34326929-224.38489525-10.68499461-71.23330025-78.35662997-124.65827466-160.27492478-149.58992877-7.12332976 0-17.80832436-7.12332976-24.93165412-7.12332977 42.73997985-24.93165549 64.10997046-53.42497447 71.23329883-96.16495569 10.68499461-89.04162458-89.04162458-178.08324916-224.3848939-195.89157491-124.65827466-17.80832436-224.38489527-7.12332976-260.00154537-7.12332977v160.27492482c71.23330025-10.68499461 167.39825454-10.68499461 242.19321965 0 64.10997046 10.68499461 106.84995033 35.6166501 113.97328006 64.10997046 0 7.12332976 0 17.80832436-7.12332973 24.9316541-17.80832436 24.93165549-46.30164475 24.93165549-71.23330024 17.80832575-81.91829485-10.68499461-178.08324916-10.68499461-274.24820483 0v160.2749248c89.04162458-10.68499461 238.63155475-10.68499461 309.86485496 0 64.10997046 10.68499461 106.84995033 42.73997985 113.97328005 78.35662997 0 17.80832436-7.12332976 28.49332032-17.80832574 46.30164472-24.93165549 28.49332032-96.16495431 60.5483042-195.89157351 60.54830423-203.01490465 0-366.85149428-167.39825454-366.85149432-366.85149434 0-203.01490465 167.39825454-366.85149428 366.85149432-366.8514943s366.85149428 167.39825454 366.8514943 366.8514943v42.73997985c24.93165549 10.68499461 64.10997046 42.73997985 113.97328008 96.16495571 10.68499461-42.73997985 17.80832436-89.04162458 17.80832438-135.34327069-7.12332976-274.24820485-231.50822501-495.07143388-509.31809475-495.07143387z" fill="#E50012" p-id="1669"></path></svg>