<?xml version="1.0" standalone="no"?><!DOCTYPE svg PUBLIC "-//W3C//DTD SVG 1.1//EN" "http://www.w3.org/Graphics/SVG/1.1/DTD/svg11.dtd"><svg t="1547622526774" class="icon" style="" viewBox="0 0 1820 1024" version="1.1" xmlns="http://www.w3.org/2000/svg" p-id="16834" xmlns:xlink="http://www.w3.org/1999/xlink" width="355.46875" height="200"><defs><style type="text/css"></style></defs><path d="M181.3971359 382.57878948h4.69673785c53.64717957 0.10437214 106.25063876 27.13670568 137.66659371 76.40026274 17.32574247 27.13670568 26.61484604 58.65703278 26.71921821 90.90796381v1.14809142c0 18.2650907-3.02678679 36.3214371-8.97598714 53.64717957l-0.20874428-0.10437214C321.35991357 663.1305755 269.80017255 706.65367653 207.38575015 714.48157223c-5.32296965 0.52185964-10.75031034 0.83497608-16.07327999 0.83497497h-0.62623068c-24.21429104-0.10437214-48.11546673-5.42734069-70.03357492-15.4470471-42.68812493-22.43996782-73.06036059-65.75432454-75.77403204-117.00095021-0.10437214-2.92241465-0.2087443-5.74045713-0.2087432-8.66287068 0-1.77432322 0-3.54864643 0.10437104-5.32296964v-1.04371929c0.10437214-2.29618286 0.31311534-4.59236571 0.52186074-6.88854857 2.08743856-21.2918764 8.97598713-41.43566136 19.62192532-59.07452027l0.10437216-0.2087443c2.1918107-3.65301859 4.48799357-7.09729176 7.09729175-10.43719389l0.83497499-1.14809143c11.89840177-15.6557914 26.92796139-28.59791245 44.14933281-37.99138817 3.23552999-1.66995107 6.26231678-2.71367035 9.60221892-4.07050497 2.08743856-0.62623178 3.33990214-1.04371928 4.69673786-1.14809144 0.2087443 0 0.93934714 0 0.73060283 0.4174875-24.10991888 21.39624854-38.40887567 51.66411206-39.87008243 83.91504309-2.50492715 50.30727744 26.92796139 96.75279199 73.58222134 116.06160198 15.6557914 6.78417642 32.77279066 9.60221892 49.78541669 8.45412748 8.66287178-0.41748749 17.22137032-1.87869537 25.46675461-4.17487821l1.25246358-0.31311536c2.29618286-0.73060394 4.69673786-1.46120678 6.99292072-2.29618284 43.10561352-15.6557914 73.26910489-54.69089884 77.54835417-100.40581057h0.10437214v-1.04371929c1.87869537-20.03941282-1.46120678-40.28757103-9.49784677-58.76140493-21.50062069-59.17889241-76.92212347-101.55390201-142.46770483-102.80636447-11.37654213-0.10437214-22.64871212 0.2087443-34.02525314 1.04371928 15.13393176-3.86176177 31.62469925-4.38362141 40.39194208-4.38362142z m-21.50062068 102.80636448c4.69673786-23.06619961 24.94489497-39.66133924 48.42858207-39.76571028 3.44427429 0 6.88854857 0.31311534 10.33282284 1.14809142h0.10437215c53.75155173 11.68965748 87.88117702 65.33683705 76.40026273 119.8189916-10.64593819 50.2029053-56.46522206 83.60192774-105.83315126 79.32267738-0.10437214-0.31311534-0.2087443-0.62623178-0.10437215-0.93934713 22.96182746-0.93934714 42.27063744-17.32574247 46.9673753-39.87008243 5.74045713-27.24107783-11.37654213-54.06466706-38.30450351-59.90949635h-0.10437216v-0.10437215c-26.61484604-5.94920034-43.62747317-32.56404637-37.88701601-59.70075206z m-75.66965991-43.73184422c9.08035927-3.75738962 16.90825497-5.2185975 23.48368819-5.21859749 7.09729176-0.10437214 13.98584033 1.87869537 19.93504068 5.636085-26.92796139 8.34975534-50.62039278 23.37931605-68.36362274 44.67119244-7.30603605 8.55849964-14.92518857 13.77709713-23.06619961 15.76016353-8.14101214 1.98306641-16.28202319 0.83497608-23.27494391-1.25246356 15.44704821-4.80110891 25.25801031-16.69951068 34.86022924-28.49354031 9.81096322-11.89840177 19.83066962-24.21429104 36.42580815-31.10283961z m0 0" fill="#C9151E" p-id="16835"></path><path d="M434.60347305 481.00153255v-23.90117569H453.91228304v121.28019946c-0.62623178 9.81096322-6.88854857 15.02955961-18.78695036 15.65579141h-43.31435672v-16.59513853h36.9476678c3.96613392 0.62623178 5.94920034-0.93934714 5.94920144-4.90548106v-77.44398311h-40.70505852v-13.98584034h40.60068637z m34.02525314 97.37902377V457.10035686h19.30880998v25.2580114h42.89686923v13.56835285h-42.89686923V572.53572814c-0.62623178 3.96613392 0.83497608 5.53171284 4.27925039 4.90548106h39.13947848v16.59513853h-44.77556349c-11.89840177 0-17.95197426-5.2185975-17.95197536-15.65579141zM631.86644777 462.6320708v-6.88854857h21.81373602v6.88854857h61.37070313V475.46981969H571.53946392v-12.83774889h60.32698385zM577.07117676 578.38055632h5.53171286c7.93226786 0.10437214 10.43719389-1.98306641 12.2115182-5.84482818l5.42734071-20.77001785h22.33559566l-7.20166391 28.59791354c-3.96613392 8.45412749-10.01970641 13.04649321-20.8743889 13.6727239H577.07117676v-15.65579141z m21.81373604-89.86424342v39.34822279l90.17735987 1.04371928V504.69396395h-90.17735987l13.88146928-16.2820232h84.75001807c5.53171284 0 10.01970641 4.48799357 10.01970752 10.01970641v44.46244815l-53.64717957 0.20874429v36.32143601c0.52185964 9.81096322-5.11422535 14.71644427-17.11699928 14.71644427h-11.16779784l-6.99292071-14.29895568h8.55849963c3.44427429 0.62623178 5.11422535-0.93934714 5.11422537-4.90548216v-31.83344244h-51.87285637v-54.5865267h18.4738339z m104.78943199 105.52003483c-13.15086535 0-23.27494391-4.27924927-25.04926602-12.73337676l-6.26231678-29.64163173H691.88031517l4.59236571 20.77001676c0.52185964 4.59236571 3.96613392 6.88854857 10.22845071 6.88854857h10.2284507v14.71644316h-13.2552375zM791.76426611 465.34574115h25.15363816l3.96613392-8.6628718h20.97876106l-2.6092982 8.6628718h55.52587383v27.55419317h-18.99569352v-13.15086535h-43.83621637l-32.87716283 46.23677136c-5.00985321 6.99292072-7.09729176 9.81096322-11.16779783 9.81096322v39.03510745c0.41748749 3.54864643 1.77432322 3.75738962 4.80110891 3.96613282h21.18750534v13.88146929H782.68390683c-10.85468248 0.62623178-14.29895677-2.8180425-13.15086425-13.2552375v-45.29742313H759.72207938V519.30603605h14.8208164c5.32296965 0 7.09729176-2.71367035 9.60221891-5.74045713l25.46675354-33.7121378h-29.43288745l11.58528533-14.50769997z m-12.73337677 0.2087432v27.34544997h-17.53448675v-27.55419317l17.53448675 0.2087432z m80.36639667 128.48186338c-10.54156604 0-12.4202614-1.25246358-14.50769998-9.81096211L819.73594677 501.56280611h19.83066961l9.39347573 30.78972315h14.29895567c4.07050607-0.2087443 4.69673786 0.41748749 6.57543323-2.92241465l7.72352356-20.03941281h16.69951068l-9.70659107 30.78972316c-3.23552999 7.61915141-5.63608499 7.41040821-16.2820232 6.99292072h-15.55141925l5.4273407 25.25801032c1.14809143 3.96613392 2.71367035 5.94920034 5.42734179 6.26231677h32.5640464v15.23830391h-36.73892461zM945.29539662 494.77862968h13.56835284V568.36084992c0 9.81096322 0.62623178 17.43011461-11.89840177 17.43011462h-6.88854857v-13.88146819h2.6092982c1.66995107 0 2.6092982-0.93934714 2.6092993-2.92241464v-74.20845203z m-4.27925037-24.94489498h26.3017307v-13.67272498h19.83066851v13.67272498h24.63177963v16.2820232h-24.63177963v104.58068769h-19.83066851V486.1157579h-26.3017307v-16.2820232z m53.54280742 24.94489498h14.71644427v35.79957636c-0.41748749 6.57543213-0.31311534 9.49784678 2.60929929 9.49784678h1.66995108v12.52463355h-4.07050608c-12.00277392 0.62623178-14.71644427-2.8180425-14.92518856-11.79402962v-46.02802707z m36.3214371-24.94489498h25.46675462V456.68286935h19.30880888v13.15086535h6.88854856v14.82081643h-6.88854856v92.68228592c0.83497608 14.29895677-3.96613392 13.46398069-20.56127246 14.29895678h-23.27494391V577.75432454h21.08313321c2.8180425-0.10437214 3.86176177-0.73060394 3.44427428-9.49784677v-83.60192664h-37.99138818l12.52463356-14.82081643z m-6.67980428 77.23523883h2.60929821c2.29618286 0 3.44427429-1.66995107 3.44427428-4.90548216v-45.40179528h14.29895677v47.69797813c0 13.98584033 0.10437214 20.03941282-15.34267604 19.41318214h-4.90548106v-16.80388283zM1122.41458527 476.82665432v-13.46398069h59.49200886v-7.30603606h21.81373604v7.30603606h60.0138685v13.46398069h-18.16071857l-10.437195 15.8645357h12.31589037c7.09729176 0 12.83774891 5.74045713 12.83774892 12.8377489v72.32975777c0.10437214 13.67272499-2.1918107 14.71644427-17.11699929 14.71644427h-8.97598712v-11.48091429l2.60929819-1.35683462c4.07050607 0.10437214 3.65301859-1.66995107 3.44427428-7.09729286v-65.96306884h-20.77001673v5.84482929c0.41748749 5.74045713 0.41748749 5.74045713 7.61915249 5.74045714h5.21859642v13.88146818H1211.652598c-13.67272499 0.2087443-11.68965748-2.8180425-12.00277391-11.79402962v-13.67272499h-15.96890674v10.75031034c0 14.50769997-0.73060394 15.76016355-11.48091428 15.65579251h-18.36946176v-13.88146929h8.03663891c2.29618286 0 3.44427429-0.93934714 3.44427428-2.92241464v-9.60221892H1145.89827347v86.94182988h-20.87438891v-100.82329806l21.0831321-0.10437215-0.20874319 12.94212105 11.68965747-12.8377489-8.24538318-15.8645357h-26.92796249z m50.72476492 78.0702149l1.77432322-0.31311644 8.66287179-12.31588926h44.77556348v34.23399854c0.52185964 9.49784678-0.83497608 10.33282286-13.15086425 9.91533426h-58.23954526v-44.25370495h16.17765102v12.73337785z m40.91380282-62.10130705l10.85468251-15.8645357h-55.8389903l6.88854747 15.8645357h38.09576032z m-5.11422535 83.70629989c2.29618286 0 3.44427429-1.25246358 3.44427429-3.96613392v-17.74323106h-39.24385176v21.60499284h35.79957747zM1349.11044853 456.68286935h19.83066961v121.07145519h15.13393176V456.68286935h19.83066962v121.07145519h42.89686924v14.82081642H1305.58734751V577.75432454h43.62747318V456.68286935z m-14.61207212 99.36209131c-10.95905464 0-9.28910357-2.8180425-12.83774892-16.59513964l-12.10714607-74.41719632h18.05634642l11.27216999 68.98985563c1.66995107 3.75738962-0.41748749 6.88854857 3.44427429 7.30603606h2.40055499v14.82081642h-10.2284507z m84.75001917-19.72629748l9.28910247-72.74724525h16.69951178l-10.12407856 69.82483061c-1.66995107 11.06342569-1.56557892 23.27494391-10.75031034 22.64871212h-16.28202319V541.22414423h5.94920034c2.400555 0 4.07050607-1.66995107 5.2185975-4.90548105zM1487.82076262 491.96058718v-15.65579249h3.44427429c2.8180425 0.62623178 4.59236571-0.62623178 5.11422535-3.96613393l5.11422535-14.71644427h18.36946175l-2.6092982 7.8278968h26.30172959V481.73213648h-31.3115828c-2.8180425 6.57543213-4.38362141 10.85468248-10.01970641 10.2284507h-14.40332892z m14.92518856 56.25647777h-14.92518856v-13.88146928h14.92518856v-19.83066852h-13.98584144v-15.23830391h55.00401531v15.23830391h-22.85745643v19.83066852h23.48368821v13.88146928h-23.48368821v26.19735745s-0.93934714 6.67980427 6.2623168 6.99292072h12.31588925v12.73337676l-27.65856421 0.10437214c-4.69673786 0-8.55849964-3.75738962-8.66287178-8.55849962l-0.4174875-37.46952745z m50.62039279 36.00832067V459.605284h18.68257819l0.31311534 12.83774891 9.39347461-12.83774891h31.41595606c6.99292072 0 12.73337676 5.74045713 12.73337675 12.73337676v58.23954528l-53.54280742-0.41748748V578.79804382c-0.62623178 2.6092982 0.52185964 3.96613392 3.44427429 3.96613393h7.20166392v9.91533536l-20.97876106 0.10437215c-4.90548105 0-8.66287178-3.86176177-8.66287068-8.55849964z m53.43843527-95.81344487v-15.86453569h-34.54711389v15.86453569h34.54711389z m-34.54711389 27.86730852h31.10283962c2.29618286 0 3.44427429-0.93934714 3.44427427-2.92241354v-12.94212105h-34.54711389v15.86453459z m23.6924314 67.94613635l-9.39347461-46.02802707h16.38639532l2.6092982 9.81096211h7.93226785c2.29618286 0 3.44427429-1.25246358 3.44427429-3.96613392v-5.84482819h11.58528532v9.81096211c-0.62623178 8.45412749-3.23552999 9.91533426-10.64593819 9.91533537h-11.16779783l4.27925036 19.41318102c0 2.6092982 2.29618286 3.96613392 6.88854747 3.96613392h8.87161608v12.73337676h-17.01262713c-7.51478035 0.62623178-12.10714607-2.6092982-13.77709713-9.81096211zM1669.5323181 473.79986863h12.83774889c3.96613392 0.62623178 6.88854857-2.71367035 8.55849964-7.30603606l5.11422535-9.81096322h23.0661996l-13.67272499 24.5274075c-3.44427429 5.84482929-10.54156604 8.76724283-21.39624853 8.76724282h-14.50769996v-16.17765104z m45.29742311 19.93504067l-10.95905354 22.64871211v76.19151955h-22.33559677V526.61207213h-11.16779783v-18.57820605h7.72352466c1.66995107 0 3.13115784-0.62623178 4.27924926-1.98306642 0-0.62623178 0.31311534-0.93934714 0.83497498-0.93934823l6.36668893-11.37654213h25.25801031z m70.24231921 100.30143843h-39.66133923V577.75432454h29.11977208c3.44427429 0 5.11422535-1.98306641 5.11422536-5.84482819v-62.31005135h-56.46522097l13.88146818-16.28202319h73.47784919v16.28202319h-8.55849964v67.52864776c0.10437214 9.28910357-7.51478035 16.90825497-16.90825497 16.90825497z m24.1099189-117.73155304h-72.22538563v-16.59513854h72.22538563v16.59513854z" fill="" p-id="16836"></path><path d="M412.68536486 652.27589301h-20.97876105v-36.84329674h20.97876105c12.73337676 0 19.41318212 3.23552999 19.83066963 9.60221892-0.2087443 3.75738962-3.54864643 6.47106108-9.70659107 7.93226784v0.31311645c7.72352356 1.35683573 11.89840177 4.38362141 12.42026141 9.28910246-1.04371928 6.26231678-8.55849964 9.49784678-22.54433997 9.70659107z m-9.08035927-21.91810818h8.97598714c5.00985321 0 7.61915141-1.46120678 7.82789568-4.27924927-0.2087443-2.92241465-2.92241465-4.27924927-7.82789568-4.27925036h-8.97598714v8.55849963z m0 15.96890784h8.97598714c6.78417642 0.2087443 10.01970641-1.46120678 9.70659104-5.0098532 0.2087443-3.33990214-3.02678679-5.00985321-9.70659104-5.0098543h-8.97598714v10.0197075zM443.78820448 652.27589301v-36.84329674h37.15641208v6.26231678h-25.15363927v8.66287178h23.27494391v5.94920034h-23.27494391v10.0197075h25.88424211v5.94920034h-37.88701492zM506.62011436 615.43259627v36.84329674H494.61734045v-36.84329674h12.00277391zM534.38305184 615.43259627h11.58528532V640.37749124c-0.52185964 7.93226786-6.78417642 12.10714607-18.78694925 12.31588926-11.79402962 0.2087443-17.84760211-3.75738962-18.36946283-12.00277281h12.00277393c0 4.38362141 2.08743856 6.67980427 6.3666889 6.67980427 3.96613392 0 6.26231678-2.1918107 6.78417643-6.67980427 0-0.2087443 0.10437214-0.41748749 0.4174875-0.62623179v-24.63177963zM568.61704927 615.43259627v36.84329674h-12.00277391v-36.84329674h12.00277391zM630.50961204 652.27589301H613.60135707l-21.70936389-30.58097996h-0.41748859v30.58097996h-10.8546814v-36.84329674h17.63885782l20.97876105 29.22414534 0.41748748-0.31311645v-28.91102889h10.8546825v36.84329674zM678.20759128 638.70754018h-10.85468248v-5.94920035H689.7928766v18.57820605c-3.96613392 0.62623178-8.14101214 1.04371928-12.42026141 1.04371928-3.23552999 0.2087443-7.41040821 0.31311534-12.4202614 0.31311534-17.01262713-0.41748749-25.77986995-6.67980427-26.19735745-18.57820604 0.52185964-12.00277392 9.28910357-18.36946175 26.19735745-19.30880888 17.01262713 0 25.46675461 3.96613392 25.46675461 12.00277282h-12.42026142c0-4.17487821-3.75738962-6.26231678-11.27216999-6.26231678-10.2284507 0.2087443-15.34267605 4.80110891-15.34267604 13.67272499s5.11422535 13.2552364 15.34267604 13.25523749c3.02678679 0 6.47106108-0.2087443 10.54156605-0.62623178h0.73060394v-8.14101214zM739.47392226 637.66382089v14.61207212h-12.00277392v-36.84329674h23.58805926c12.73337676 0.2087443 19.10006568 3.44427429 19.10006566 9.60221892 0 4.90548105-3.75738962 7.8278957-11.27216996 8.97598822v0.31311534c5.53171284 0.2087443 8.76724283 2.92241465 9.70659104 7.93226786 0 0.41748749 0.10437214 0.93934714 0.41748751 1.35683462 0.52185964 4.38362141 1.46120678 7.30603605 3.02678678 8.66287178h-12.73337676c-1.25246358-3.13115784-1.98306641-6.47106108-2.29618285-10.0197064-0.52185964-3.13115784-2.08743856-4.69673786-4.90548214-4.69673787h-12.62900462z m0-15.96890784v9.60221892h9.70659106c5.53171284 0 8.34975534-1.66995107 8.66287069-5.00985321-0.2087443-3.13115784-3.13115784-4.69673786-8.66287069-4.69673675h-9.70659106zM817.8572525 615.43259627h12.00277392v23.27494391c-0.52185964 9.08035927-8.45412749 13.77709713-24.00554785 13.98584032-15.76016355-0.2087443-23.90117569-4.90548105-24.42303532-13.98584032v-23.27494391h12.00277393v20.24815821c-0.73060394 8.24538319 3.33990214 12.10714607 12.42026139 11.58528533 8.45412749 0.41748749 12.52463356-3.44427429 12.00277393-11.58528533v-20.24815821zM851.7781346 637.66382089v14.61207212h-12.00277392v-36.84329674h23.58805924c12.73337676 0.2087443 19.10006568 3.44427429 19.10006571 9.60221892 0 4.90548105-3.75738962 7.8278957-11.27217 8.97598822v0.31311534c5.53171284 0.2087443 8.76724283 2.92241465 9.70659108 7.93226786 0 0.41748749 0.10437214 0.93934714 0.41748747 1.35683462 0.52185964 4.38362141 1.46120678 7.30603605 3.02678681 8.66287178h-12.73337787c-1.25246358-3.13115784-1.98306641-6.47106108-2.29618175-10.0197064-0.52185964-3.13115784-2.08743856-4.69673786-4.90548216-4.69673787h-12.62900461z m0-15.96890784v9.60221892h9.70658996c5.53171284 0 8.34975534-1.66995107 8.66287179-5.00985321-0.2087443-3.13115784-3.13115784-4.69673786-8.66287179-4.69673675h-9.70658996zM901.7722956 652.27589301h-11.27216999l19.83066962-36.84329674H924.6297509l19.51755428 36.84329674h-12.00277392l-4.17487821-7.6191514H905.84280166l-4.07050606 7.6191514zM908.9739595 638.29005268h16.07328001l-7.51478037-15.65579141h-0.41748749l-8.14101215 15.65579141zM988.71412548 652.27589301h-35.59083317v-36.84329674h11.58528533v30.8940964h24.00554784v5.94920034zM1064.27941323 627.33099803h-12.42026141c-0.52185964-4.38362141-4.17487821-6.78417642-10.85468249-6.9929196-6.78417642 0.2087443-10.2284507 4.80110891-10.54156605 13.67272498 0.2087443 8.87161497 3.75738962 13.2552364 10.54156605 13.2552364s10.33282286-2.29618286 10.85468249-6.99292071h12.42026141c-0.73060394 8.24538319-8.45412749 12.31588926-23.2749439 12.31589035-15.02955961-0.2087443-22.75308426-6.47106108-23.27494391-18.57820604 0.52185964-12.4202614 8.24538319-18.78695034 23.27494391-19.30880997 14.82081642 0.31311534 22.54433996 4.48799357 23.2749439 12.62900459zM1098.61778283 652.58900945c-17.53448677-0.2087443-26.40610175-6.47106108-26.61484605-18.57820604 0.2087443-12.4202614 9.08035927-18.78695034 26.61484605-19.30880997 17.01262713 0.41748749 25.77986995 6.88854857 26.19735745 19.30880997-0.41748749 12.21151711-9.18473142 18.36946175-26.19735745 18.57820604z m0-32.14655888c-9.49784678 0-14.29895677 4.59236571-14.29895679 13.67272389s4.69673786 13.46398069 14.29895679 13.2552375c9.28910357 0 13.88146818-4.38362141 13.88146818-13.2552375 0-9.18473142-4.59236571-13.67272499-13.88146818-13.67272389zM1169.69507701 652.27589301h-9.70659106l-14.61207213-31.52032709h-0.41748858v31.52032709h-11.27216999v-36.84329674h19.51755428l11.58528533 26.92796248h0.4174886l12.73337674-26.92796248h18.36946175v36.84329674h-10.85468139v-31.52032709l-15.76016355 31.52032709zM1241.50297405 652.27589301h-9.70659108l-14.61207212-31.52032709h-0.4174875v31.52032709h-11.27216997v-36.84329674h19.51755316l11.58528644 26.92796248h0.41748749l12.73337787-26.92796248h18.36946174v36.84329674h-10.8546825v-31.52032709l-15.76016353 31.52032709zM1281.47742863 652.27589301v-36.84329674h37.15641209v6.26231678h-25.15363817v8.66287178h23.27494389v5.94920034h-23.27494389v10.0197075h25.88424209v5.94920034h-37.88701601zM1345.35305889 637.66382089v14.61207212h-12.00277392v-36.84329674h23.58805926c12.73337676 0.2087443 19.10006568 3.44427429 19.10006568 9.60221892 0 4.90548105-3.75738962 7.8278957-11.27216998 8.97598822v0.31311534c5.53171284 0.2087443 8.76724283 2.92241465 9.70659107 7.93226786 0 0.41748749 0.10437214 0.93934714 0.41748748 1.35683462 0.52185964 4.38362141 1.46120678 7.30603605 3.02678681 8.66287178h-12.73337678c-1.25246358-3.13115784-1.98306641-6.47106108-2.29618283-10.0197064-0.52185964-3.13115784-2.08743856-4.69673786-4.90548218-4.69673787h-12.62900461z m0-15.96890784v9.60221892h9.70659107c5.53171284 0 8.34975534-1.66995107 8.66287069-5.00985321-0.2087443-3.13115784-3.13115784-4.69673786-8.66287069-4.69673675h-9.70659107zM1435.73916308 627.33099803h-12.42026144c-0.52185964-4.38362141-4.17487821-6.78417642-10.85468248-6.9929196-6.78417642 0.2087443-10.2284507 4.80110891-10.54156604 13.67272498 0.2087443 8.87161497 3.75738962 13.2552364 10.54156604 13.2552364s10.33282286-2.29618286 10.85468248-6.99292071h12.42026144c-0.73060394 8.24538319-8.45412749 12.31588926-23.27494392 12.31589035-15.02955961-0.2087443-22.75308426-6.47106108-23.27494391-18.57820604 0.52185964-12.4202614 8.24538319-18.78695034 23.27494391-19.30880997 14.71644427 0.31311534 22.43996782 4.48799357 23.27494392 12.62900459zM1457.34415481 615.43259627v36.84329674h-12.00277393v-36.84329674h12.00277393zM1475.29612906 652.27589301h-11.27216998l19.83066962-36.84329674h14.29895677l19.51755318 36.84329674h-12.00277393l-4.17487711-7.6191514h-22.12685248l-4.07050607 7.6191514z m7.20166501-13.98584033h16.07327889l-7.51478035-15.65579141h-0.41748749l-8.14101105 15.65579141zM1560.88112323 652.27589301h-35.59083207v-36.84329674h11.58528532v30.8940964h24.00554675v5.94920034zM1616.72011351 652.27589301H1595.74135356v-36.84329674h20.97875995c12.73337676 0 19.41318212 3.23552999 19.83066961 9.60221892-0.2087443 3.75738962-3.54864643 6.47106108-9.70659106 7.93226784v0.31311645c7.72352356 1.35683573 11.89840177 4.38362141 12.4202614 9.28910246-1.04371928 6.26231678-8.55849964 9.49784678-22.54433995 9.70659107z m-8.97598714-21.91810818h8.97598714c5.00985321 0 7.61915141-1.46120678 7.8278968-4.27924927-0.2087443-2.92241465-2.92241465-4.27924927-7.8278968-4.27925036h-8.97598714v8.55849963z m0 15.96890784h8.97598714c6.78417642 0.2087443 10.01970641-1.46120678 9.70659106-5.0098532 0.2087443-3.33990214-3.02678679-5.00985321-9.70659106-5.0098543h-8.97598714v10.0197075zM1654.60712952 652.27589301h-11.27216998l19.83066961-36.84329674h14.29895678l19.51755318 36.84329674h-12.00277392l-4.17487712-7.6191514h-22.12685248l-4.07050607 7.6191514z m7.09729287-13.98584033h16.0732789l-7.51478035-15.65579141h-0.41748752l-8.14101103 15.65579141zM1753.96922082 652.27589301h-16.90825498l-21.70936499-30.58097996h-0.41748748v30.58097996h-10.85468249v-36.84329674h17.6388589l20.97876105 29.22414534 0.41748751-0.31311645v-28.91102889h10.85468248v36.84329674zM1778.28788399 615.43259627v15.96890784l18.36946175-15.96890784h13.88146929l-20.24815821 16.59513963 22.12685249 20.24815711h-14.61207214l-19.51755318-18.57820604v18.57820604h-12.00277391v-36.84329674h12.00277391z" fill="" p-id="16837"></path></svg>