<?xml version="1.0" standalone="no"?><!DOCTYPE svg PUBLIC "-//W3C//DTD SVG 1.1//EN" "http://www.w3.org/Graphics/SVG/1.1/DTD/svg11.dtd"><svg t="1547622641481" class="icon" style="" viewBox="0 0 2560 1024" version="1.1" xmlns="http://www.w3.org/2000/svg" p-id="20397" xmlns:xlink="http://www.w3.org/1999/xlink" width="500" height="200"><defs><style type="text/css"></style></defs><path d="M885.84827286 706.86425694c-6.95943774-3.47971887-13.9188755-6.95943774-24.35803212-10.43915661 10.43915661-3.47971887 27.837751-6.95943774 27.83775098-27.83775099 0-20.87831324-17.39859437-31.31746987-52.19578309-31.31746988h-59.15522087v3.47971888c10.43915661 0 17.39859437 0 17.39859437 13.91887549v90.47269073c0 10.43915661-6.95943774 10.43915661-17.39859437 13.9188755v3.47971887h62.63493973c41.75662648 0 55.67550199-17.39859437 55.675502-34.79718874 3.47971887-6.95943774 0-17.39859437-10.43915663-20.87831325z m-55.67550198-52.19578311c0-3.47971887 0-6.95943774 10.43915661-6.95943774 13.9188755 0 20.87831324 6.95943774 20.87831325 24.35803212 0 17.39859437-3.47971887 24.35803212-27.83775098 24.35803212-3.47971887-6.95943774-3.47971887-41.75662648-3.47971888-41.7566265z m0 45.23634537h6.95943775c13.9188755 0 27.837751 3.47971887 27.83775097 27.83775099 0 17.39859437-6.95943774 27.837751-24.35803211 27.837751-6.95943774 0-10.43915661-3.47971887-10.43915661-10.43915663v-45.23634536zM1035.47618445 759.06004006c-10.43915661 0-10.43915661-6.95943774-20.87831326-24.35803212l-45.23634537-97.43212848h-6.95943773l-41.75662649 100.91184735c-6.95943774 13.9188755-6.95943774 20.87831324-17.39859437 20.87831325v3.47971887H941.52377485v-3.47971887c-6.95943774 0-13.9188755 0-13.9188755-6.95943774 0-3.47971887 3.47971887-10.43915661 6.95943775-24.35803213H976.32096359c3.47971887 3.47971887 10.43915661 17.39859437 10.43915662 24.35803213 0 6.95943774-3.47971887 6.95943774-13.91887552 6.95943774v3.47971887h62.63493976v-3.47971887z m-80.0335341-83.51325299l17.39859434 41.75662649h-34.79718872l17.39859438-41.75662649zM1181.62437717 637.26987946h-41.75662651v3.47971888c13.9188755 0 17.39859437 6.95943774 17.39859437 17.39859438v55.67550198l-66.11465861-76.55381524h-41.75662648v3.47971888c3.47971887 0 3.47971887 0 17.39859435 13.91887549v86.99297186c0 10.43915661-3.47971887 13.9188755-17.39859435 13.9188755v3.47971887h45.23634536V755.58032119c-13.9188755 0-17.39859437-3.47971887-17.39859437-17.39859438v-73.07409636l86.99297186 97.43212848h6.95943774v-107.8712851c0-6.95943774 0-13.9188755 13.9188755-13.91887549l-3.47971886-3.47971888zM1338.21172648 759.06004006c-3.47971887 0-6.95943774 0-10.43915662-3.47971887 0 0-55.67550199-62.63493973-59.15522085-69.5943775 31.31746987-31.31746987 41.75662648-41.75662648 62.63493973-41.75662648v-3.47971887h-55.67550198v3.47971887c13.9188755 0 17.39859437 3.47971887 17.39859436 6.95943776s0 3.47971887-6.95943774 10.43915661c0 0-34.79718874 31.31746987-41.75662649 38.27690762v-38.27690762c0-13.9188755 6.95943774-13.9188755 17.39859439-17.39859437v-3.47971887h-66.11465864v3.47971887c10.43915661 0 17.39859437 0 17.39859439 13.91887551v90.4726907c0 10.43915661-6.95943774 10.43915661-17.39859439 13.91887551v3.47971887h66.11465864v-3.47971887c-10.43915661 0-17.39859437-3.47971887-17.39859439-13.91887551v-34.79718872l3.47971887-3.47971888 34.79718875 41.7566265c3.47971887 3.47971887 3.47971887 6.95943774 3.47971887 6.95943774 0 3.47971887-3.47971887 3.47971887-13.91887549 3.47971887v3.47971887h66.11465859v-6.95943774zM1470.4410437 633.7901606c-41.75662648 0-69.59437747 27.837751-69.59437749 66.1146586 0 17.39859437 6.95943774 34.79718874 20.87831324 48.71606422 13.9188755 10.43915661 31.31746987 17.39859437 48.71606425 17.39859438 20.87831324 0 38.27690762-6.95943774 48.71606423-17.39859438 13.9188755-10.43915661 20.87831324-27.837751 20.87831326-48.71606422 0-38.27690762-27.837751-66.1146586-69.59437749-66.1146586z m0 10.43915661c31.31746987 0 34.79718874 41.75662648 34.79718874 59.15522086 0 38.27690762-10.43915661 59.15522086-34.79718874 59.15522086-20.87831324 0-34.79718874-20.87831324-34.79718875-59.15522086 3.47971887-20.87831324 6.95943774-59.15522086 34.79718875-59.15522086zM1661.82558176 637.26987946h-111.35100394v3.47971888c10.43915661 0 17.39859437 0 17.39859434 13.91887549v90.47269073c0 10.43915661-6.95943774 10.43915661-17.39859434 13.9188755v3.47971887h69.59437747v-3.47971887c-13.9188755 0-20.87831324 0-20.87831324-13.9188755v-41.75662649c24.35803212 0 27.837751 13.9188755 27.83775097 27.83775101h3.47971888v-62.63493974h-3.47971888c-3.47971887 13.9188755-3.47971887 27.837751-27.83775097 27.83775099v-41.7566265c0-6.95943774 3.47971887-6.95943774 13.91887549-6.95943774 34.79718874 0 38.27690762 10.43915661 41.7566265 31.31746987h3.47971887l3.47971885-41.7566265zM1832.33180661 706.86425694c-6.95943774-3.47971887-13.9188755-6.95943774-24.35803212-10.43915661 10.43915661-3.47971887 27.837751-6.95943774 27.837751-27.83775099 0-20.87831324-17.39859437-31.31746987-52.19578312-31.31746988h-59.15522087v3.47971888c10.43915661 0 17.39859437 0 17.39859439 13.91887549v90.47269073c0 10.43915661-6.95943774 10.43915661-17.39859439 13.9188755v3.47971887h62.63493975c41.75662648 0 55.67550199-17.39859437 55.67550198-34.79718874 3.47971887-6.95943774 0-17.39859437-10.43915662-20.87831325z m-55.67550197-13.91887548V651.18875497c0-3.47971887 0-6.95943774 10.43915661-6.95943776 13.9188755 0 20.87831324 6.95943774 20.87831324 24.35803213-3.47971887 17.39859437-6.95943774 24.35803212-31.31746985 24.35803212z m0 6.95943774h3.47971886c13.9188755 0 27.837751 3.47971887 27.83775099 27.83775099 0 17.39859437-6.95943774 27.837751-24.35803212 27.837751-3.47971887 0-6.95943774 0-6.95943773-10.43915663v-45.23634536zM1971.52056156 724.26285132c-13.9188755 27.837751-34.79718874 31.31746987-52.19578309 31.31746987-13.9188755 0-17.39859437-3.47971887-17.39859438-10.43915663v-45.23634536c17.39859437 0 27.837751 3.47971887 31.31746987 27.83775099h3.47971886v-62.63493974h-3.47971886c-3.47971887 20.87831324-13.9188755 27.837751-31.31746987 27.83775101V651.18875497c0-6.95943774 3.47971887-6.95943774 13.9188755-6.95943776 27.837751 0 38.27690762 3.47971887 45.23634535 31.31746986h3.47971889v-38.27690761h-111.351004v3.47971888c10.43915661 0 17.39859437 0 17.3985944 13.91887549v90.47269073c0 10.43915661-6.95943774 10.43915661-17.3985944 13.9188755v3.47971887h114.83072288l6.95943773-38.27690761h-3.47971888zM1988.91915595 637.26987946v6.95943775c10.43915661 0 17.39859437 0 17.39859435 13.91887551v90.4726907c0 10.43915661-6.95943774 10.43915661-17.39859435 13.91887551v3.47971887h69.59437748v-3.47971887c-10.43915661 0-17.39859437 0-17.39859439-13.91887551v-90.4726907c0-10.43915661 6.95943774-10.43915661 17.39859439-13.91887551v-3.47971887h-69.59437748zM2089.83100329 637.26987946v6.95943775c10.43915661 0 17.39859437 0 17.39859439 13.91887551v100.91184734c0 6.95943774 0 13.9188755-10.43915665 13.9188755-3.47971887 0-6.95943774-3.47971887-6.95943774-3.47971889 0-3.47971887 0-3.47971887 3.47971887-3.47971887 0 0 3.47971887-3.47971887 3.47971887-6.95943774 0-10.43915661-10.43915661-13.9188755-13.91887549-13.9188755-6.95943774 0-13.9188755 3.47971887-13.91887549 13.9188755 0 0 0 24.35803212 34.79718872 24.35803212 13.9188755 0 20.87831324-3.47971887 27.83775101-6.95943774 10.43915661-6.95943774 13.9188755-17.39859437 13.91887549-34.79718875v-80.03353411c0-13.9188755 6.95943774-13.9188755 17.39859436-17.39859437v-3.47971887H2089.83100329zM2169.86453741 637.26987946v6.95943775c10.43915661 0 17.39859437 0 17.39859433 13.91887551v90.4726907c0 10.43915661-6.95943774 10.43915661-17.39859433 13.91887551v3.47971887h69.59437747v-3.47971887c-10.43915661 0-17.39859437 0-17.39859439-13.91887551v-90.4726907c0-10.43915661 6.95943774-10.43915661 17.39859439-13.91887551v-3.47971887h-69.59437747zM2340.37076222 637.26987946v6.95943775c13.9188755 0 17.39859437 6.95943774 17.39859438 17.39859437v55.67550198l-66.11465862-76.55381522h-41.75662648v3.47971887c3.47971887 0 3.47971887 0 17.39859435 13.91887551v86.99297184c0 10.43915661-3.47971887 13.9188755-17.39859435 13.9188755v3.47971887h45.23634537v-3.47971887c-13.9188755 0-17.39859437-3.47971887-17.39859438-17.39859437v-73.07409635l86.99297184 97.43212846h3.47971888v-107.87128508c0-6.95943774 0-13.9188755 13.9188755-13.91887551v-3.47971887h-41.75662649zM2535.23501917 710.34397582h-66.11465861v3.47971888c13.9188755 0 17.39859437 0 17.39859437 13.91887549v20.87831323c0 6.95943774-3.47971887 13.9188755-20.87831324 13.91887551-31.31746987 0-38.27690762-34.79718874-38.27690762-59.15522086 0-38.27690762 10.43915661-59.15522086 34.79718875-59.15522086s38.27690762 24.35803212 45.23634535 38.27690763h3.47971888v-41.7566265h-6.95943774c-3.47971887 3.47971887-3.47971887 6.95943774-6.95943777 6.95943775 0 0-3.47971887 0-6.95943772-3.47971888-6.95943774-3.47971887-17.39859437-6.95943774-27.837751-6.95943775-41.75662648 0-69.59437747 27.837751-69.59437749 66.11465861 0 31.31746987 20.87831324 66.1146586 73.07409636 66.1146586 17.39859437 0 41.75662648-3.47971887 52.19578309-10.43915661v-24.35803212c0-13.9188755 3.47971887-13.9188755 17.39859439-17.39859438v-6.95943774zM1087.67196756 557.23634537c13.9188755 0 27.837751 0 48.71606423-3.47971888 20.87831324-3.47971887 31.31746987-20.87831324 34.79718875-31.31746988v-6.95943774l3.47971886-27.83775099v-3.47971888c0-10.43915661 0-20.87831324-3.47971886-27.83775099-3.47971887-3.47971887-3.47971887-17.39859437-6.95943775-24.35803211-3.47971887-3.47971887-6.95943774 6.95943774-6.95943776 6.95943774v3.47971889c0 3.47971887-3.47971887 6.95943774-3.47971887 6.95943774-3.47971887 6.95943774-3.47971887 6.95943774-10.43915661 10.43915661-6.95943774 3.47971887-10.43915661 6.95943774-20.87831324 13.9188755-6.95943774 6.95943774-13.9188755 6.95943774-24.35803213 6.95943775-6.95943774 0-10.43915661 3.47971887-17.39859436 3.47971887h-13.91887553-3.47971885l-13.9188755-3.47971887c-17.39859437-3.47971887-20.87831324-20.87831324-24.35803211-27.83775099-3.47971887-6.95943774 0-17.39859437 0-24.35803212v-13.9188755-6.95943773c0-3.47971887 0-10.43915661 3.47971886-17.39859439 3.47971887-3.47971887 3.47971887-6.95943774 3.47971887-10.43915661 3.47971887-3.47971887 3.47971887-6.95943774 10.43915663-6.95943776 3.47971887 0 10.43915661 3.47971887 20.87831325 3.47971888 6.95943774 0 10.43915661-3.47971887 13.91887549-3.47971888h45.23634538c10.43915661-3.47971887 17.39859437-17.39859437 20.87831324-27.83775099v-3.47971888c0-10.43915661-3.47971887-20.87831324-10.43915663-24.3580321-3.47971887-3.47971887-13.9188755-3.47971887-20.87831325-3.47971888-6.95943774 0-13.9188755-3.47971887-24.35803211-3.47971888h-27.837751c-20.87831324 3.47971887-27.837751-6.95943774-34.79718873-13.91887549l-6.95943776-6.95943775c-6.95943774-13.9188755-6.95943774-20.87831324-6.95943774-27.83775099 0-6.95943774-3.47971887-13.9188755-6.95943775-13.91887551s-3.47971887 0-6.95943775 3.47971888-6.95943774 6.95943774-6.95943774 13.9188755v17.39859437c0 41.75662648 3.47971887 111.35100396 3.47971887 118.31044173v6.95943775c0 10.43915661-3.47971887 41.75662648-6.95943775 48.71606422-3.47971887 6.95943774-10.43915661 6.95943774-13.91887552 6.95943776h-10.4391566c-3.47971887 0-3.47971887 3.47971887-13.91887551 3.47971886-6.95943774 0-6.95943774-3.47971887-10.43915661-3.47971886-3.47971887-3.47971887-3.47971887-6.95943774-3.47971887-13.9188755v-10.43915663V428.48674702v-17.39859437V365.85180728c0-10.43915661-3.47971887-52.19578312-6.95943775-62.63493972 0-10.43915661-3.47971887-17.39859437-13.9188755-24.35803212-10.43915661-6.95943774-10.43915661-6.95943774-17.39859436 0-3.47971887 3.47971887-6.95943774 10.43915661-6.95943777 17.39859437v6.95943775c0 10.43915661-6.95943774 10.43915661-13.91887549 13.9188755H871.92939737c-6.95943774 3.47971887-17.39859437 3.47971887-24.35803213 0h-17.39859436c-6.95943774 0-20.87831324 0-31.31746986 3.47971887-6.95943774 3.47971887-6.95943774 6.95943774-6.95943775 13.91887548v17.39859438c0 6.95943774 0 10.43915661-3.47971887 20.87831324v3.47971888c0 6.95943774 3.47971887 6.95943774 6.95943773 13.91887549s6.95943774 10.43915661 13.91887551 13.9188755c3.47971887 3.47971887 24.35803212 13.9188755 31.31746985 17.39859438h10.43915663c3.47971887 0 10.43915661-3.47971887 17.39859436 0 10.43915661 6.95943774 13.9188755 20.87831324 10.43915662 31.31746986-3.47971887 10.43915661-10.43915661 17.39859437-27.83775098 20.87831324h-31.31746987c-10.43915661 0-10.43915661 3.47971887-13.91887551 6.95943775-3.47971887 3.47971887-10.43915661 3.47971887-13.91887547 3.47971887h-6.95943777c-6.95943774 3.47971887-13.9188755 6.95943774-17.39859436 27.837751v3.47971887c0 17.39859437 3.47971887 24.35803212 17.39859436 34.79718875 6.95943774 6.95943774 20.87831324 10.43915661 59.15522087 6.95943775 24.35803212-3.47971887 38.27690762-6.95943774 45.23634535-13.9188755 6.95943774-6.95943774 17.39859437-10.43915661 24.35803213-13.9188755 6.95943774-3.47971887 6.95943774-3.47971887 10.43915661-3.47971887 17.39859437-10.43915661 27.837751-13.9188755 38.27690763-13.9188755 10.43915661 0 10.43915661 13.9188755 10.4391566 17.39859437v6.95943775c0 6.95943774 10.43915661 13.9188755 13.91887552 17.39859436 3.47971887 3.47971887 6.95943774 3.47971887 10.43915662 6.95943775 3.47971887 3.47971887 6.95943774 3.47971887 6.95943775 3.47971889 3.47971887 0 6.95943774 3.47971887 10.43915661 3.47971887h6.95943777s13.9188755-3.47971887 24.3580321-3.47971887c20.87831324-6.95943774 41.75662648-6.95943774 41.7566265-6.95943775zM1609.62979866 327.57489967c3.47971887 0 3.47971887-3.47971887 3.47971888-6.95943774l3.47971888-10.43915663c0-3.47971887 3.47971887-3.47971887 3.47971887-6.95943774 0-6.95943774-3.47971887-10.43915661-6.95943775-10.43915664l-13.91887549-6.95943773-3.47971887-3.47971888c-3.47971887-3.47971887-6.95943774-3.47971887-13.91887551-3.47971887-3.47971887 0-6.95943774 0-10.43915663 3.47971887-3.47971887 0-6.95943774 3.47971887-10.43915661 3.47971888l-17.39859437-3.47971888H1533.07598343c-13.9188755 0-31.31746987 3.47971887-31.31746986 3.47971888-3.47971887 0-20.87831324 3.47971887-27.83775099-3.47971888-3.47971887-3.47971887-3.47971887-6.95943774-13.91887551-10.43915663-6.95943774-3.47971887-10.43915661-13.9188755-13.91887549-17.39859435-6.95943774-6.95943774-17.39859437-6.95943774-27.83775098-6.95943777-6.95943774 0-10.43915661 0-13.9188755 3.47971888-6.95943774 3.47971887-10.43915661 6.95943774-10.43915662 10.43915663 0 3.47971887-3.47971887 3.47971887-6.95943775 6.95943774s-6.95943774 6.95943774-6.95943776 10.43915663c-3.47971887 3.47971887-3.47971887 10.43915661-10.43915661 10.43915662h-6.95943775-41.7566265-52.1957831c-10.43915661 0-17.39859437 0-27.837751 10.43915662-10.43915661 10.43915661-6.95943774 20.87831324-3.47971887 31.31746986 0 0 0 6.95943774 3.47971887 10.43915662 3.47971887 3.47971887 3.47971887 6.95943774 20.87831327 6.95943777 24.35803212 0 31.31746987 6.95943774 34.79718871 13.91887549l3.47971888 3.47971886c6.95943774 6.95943774 6.95943774 20.87831324 6.95943776 31.31746988v24.35803212c0 10.43915661-3.47971887 17.39859437-6.95943776 20.87831325-10.43915661-3.47971887-10.43915661 0-10.43915662 3.47971887V456.32449801c0 6.95943774 0 13.9188755-3.47971887 20.87831325v6.95943774c-3.47971887 13.9188755-6.95943774 13.9188755-13.91887549 17.39859439h-3.47971888-3.47971887c-3.47971887 0-6.95943774 3.47971887-6.95943777 3.47971887v3.47971887c0 3.47971887 0 6.95943774 3.47971891 13.91887548 10.43915661 24.35803212 27.837751 24.35803212 48.71606422 24.35803213 17.39859437 0 48.71606423-10.43915661 55.67550199-17.39859437 6.95943774-3.47971887 6.95943774-6.95943774 6.95943775-13.9188755 0-3.47971887 0-6.95943774 3.47971885-6.95943774v-3.47971887c0-3.47971887-6.95943774-3.47971887-10.4391566-3.47971887-3.47971887 0-6.95943774-3.47971887-10.43915662-3.47971889l-6.95943776-3.47971887c-6.95943774-3.47971887-13.9188755 0-17.39859437 0-3.47971887 3.47971887-10.43915661 3.47971887-13.91887551 0-3.47971887 0-6.95943774-3.47971887-6.95943773-10.43915663 0-3.47971887 0-6.95943774 3.47971888-6.95943774 3.47971887-6.95943774 13.9188755-6.95943774 24.3580321-6.95943774 13.9188755 0 13.9188755 0 20.87831325-3.47971889 10.43915661-3.47971887 13.9188755-3.47971887 27.837751-3.47971886 17.39859437 0 20.87831324 6.95943774 20.87831325 17.39859436 0 6.95943774 0 10.43915661-3.47971888 20.87831326v6.95943774c-3.47971887 13.9188755-6.95943774 27.837751-3.47971889 38.27690761 3.47971887 17.39859437 13.9188755 31.31746987 17.39859439 31.31746986 6.95943774 0 13.9188755-10.43915661 20.87831323-20.87831323 3.47971887-6.95943774 3.47971887-24.35803212 0-34.79718876-3.47971887-6.95943774-3.47971887-27.837751-3.47971888-41.75662648 3.47971887-17.39859437 31.31746987-17.39859437 45.23634537-13.9188755 6.95943774 0 10.43915661 3.47971887 10.43915664 3.47971889 3.47971887 0 6.95943774 3.47971887 10.43915661 3.47971886 10.43915661 3.47971887 17.39859437 3.47971887 27.83775098 3.47971888l6.95943776 3.47971887c3.47971887 0 10.43915661 0 13.91887551-3.47971887 3.47971887-3.47971887 0-3.47971887-3.47971889-10.43915663l-3.47971887-3.47971886c-3.47971887-6.95943774-10.43915661-13.9188755-10.43915663-34.79718875 0-17.39859437 13.9188755-31.31746987 17.39859439-34.79718875 3.47971887-3.47971887 6.95943774-6.95943774 6.95943774-13.91887548s-6.95943774-20.87831324-6.95943774-20.87831324c0-6.95943774 3.47971887-10.43915661 6.95943774-13.91887551 3.47971887-3.47971887 3.47971887 0 10.4391566 0 6.95943774 3.47971887 10.43915661 3.47971887 13.91887551 3.47971889 3.47971887 0 6.95943774-3.47971887 10.43915663-6.95943777 10.43915661-10.43915661 13.9188755-10.43915661 17.39859436-13.91887549z m-107.87128509 86.99297185c-3.47971887 3.47971887-6.95943774 6.95943774-13.9188755 6.95943776H1439.12357383h-66.11465859-13.91887551c-6.95943774 0-13.9188755-3.47971887-17.39859439-6.95943776 0-3.47971887-3.47971887-6.95943774 0-10.43915662 3.47971887-10.43915661 13.9188755-13.9188755 20.87831327-13.9188755h6.95943775c3.47971887 0 13.9188755-3.47971887 20.87831323 0H1473.92076258c20.87831324-3.47971887 24.35803212 6.95943774 27.83775099 10.43915664v6.95943775c3.47971887 3.47971887 0 3.47971887 0 6.95943773z m31.31746986-66.11465859c-3.47971887 3.47971887-10.43915661 3.47971887-13.9188755 0-3.47971887 0-10.43915661-3.47971887-20.87831323-6.95943777s-24.35803212-3.47971887-34.79718874-3.47971885h-66.1146586H1334.73200762c-6.95943774-3.47971887-6.95943774-3.47971887-6.95943776-10.43915664 0 0 0-3.47971887 0 0 0-3.47971887 0-6.95943774 3.47971888-10.43915661 3.47971887-3.47971887 10.43915661-3.47971887 13.9188755-3.47971888 6.95943774 0 24.35803212 3.47971887 34.79718873 0h6.95943776c3.47971887 0 10.43915661-3.47971887 17.39859437-3.47971888 10.43915661 0 24.35803212 0 31.31746985 3.47971888h45.23634537c6.95943774 0 13.9188755 0 20.87831325 3.47971888 20.87831324 10.43915661 20.87831324 10.43915661 24.35803212 13.91887548 6.95943774 6.95943774 6.95943774 10.43915661 6.95943774 13.9188755v3.47971889z" fill="#E50012" p-id="20398"></path><path d="M1588.75148542 501.56084339c-3.47971887-6.95943774-10.43915661-10.43915661-24.35803212-10.43915663-3.47971887 0-6.95943774 0-10.43915661-3.47971888H1533.07598343l-6.95943774 3.47971888c-3.47971887 3.47971887-10.43915661 0-13.91887549 0h-27.83775102c-3.47971887 0-10.43915661-3.47971887-13.91887548-3.47971888-6.95943774 0-10.43915661 6.95943774-10.43915663 20.87831325 0 6.95943774 3.47971887 10.43915661 10.43915663 17.39859437l6.95943775 10.43915662c6.95943774 10.43915661 13.9188755 13.9188755 27.83775099 17.39859436 10.43915661 0 13.9188755 0 20.87831325 3.47971889l10.43915662 3.47971886c3.47971887 3.47971887 6.95943774 3.47971887 13.91887551 3.47971889s6.95943774 0 17.39859434-3.47971889 13.9188755-13.9188755 17.3985944-17.39859436v-3.47971887-6.95943776-10.43915663c10.43915661-3.47971887 10.43915661-10.43915661 3.47971886-20.87831322zM1981.95971819 525.9188755c3.47971887-3.47971887 6.95943774-3.47971887 10.43915663-6.95943776 10.43915661 0 20.87831324 3.47971887 27.83775098 17.39859438 6.95943774 10.43915661 10.43915661 13.9188755 20.87831324 17.39859436 10.43915661 6.95943774 13.9188755 3.47971887 20.87831326 0 6.95943774-3.47971887 13.9188755-13.9188755 20.87831324-17.39859436l6.95943775-6.95943775c3.47971887-3.47971887 10.43915661-13.9188755 6.95943774-20.87831324 0-3.47971887-3.47971887-3.47971887-6.95943774-3.47971887h-13.91887549c-6.95943774 0-10.43915661-3.47971887-13.9188755-6.95943776l-6.95943776-6.95943774c-10.43915661-3.47971887-20.87831324-17.39859437-27.83775097-24.35803213l-3.47971889-3.47971886-13.91887549-13.9188755c-3.47971887-3.47971887-6.95943774-6.95943774-6.95943776-10.43915663v-3.47971889c0-6.95943774 3.47971887-10.43915661 10.43915664-13.91887547h13.9188755c3.47971887 0 3.47971887-3.47971887 6.95943773-6.95943776 0-3.47971887 3.47971887-3.47971887 3.47971888-6.95943773v-17.39859439-10.43915661c0-3.47971887 0-10.43915661 3.47971886-13.91887551V341.49377516c0-10.43915661 3.47971887-17.39859437 10.43915664-20.87831323 6.95943774-3.47971887 10.43915661-10.43915661 13.91887548-13.91887549 0-3.47971887 3.47971887-3.47971887 3.47971889-6.95943776s0-3.47971887-3.47971889-6.95943776-6.95943774-6.95943774-10.43915662-6.95943773c-6.95943774 0-13.9188755 0-17.39859436-3.47971888-3.47971887-3.47971887-3.47971887-3.47971887-10.43915661-3.47971887-3.47971887 0-6.95943774 0-6.95943777-3.47971886h-13.9188755-27.83775098-34.79718874c-20.87831324-3.47971887-31.31746987 0-34.79718874 0-6.95943774 0-20.87831324-3.47971887-24.35803212-3.4797189-3.47971887 0-6.95943774 3.47971887-10.43915663 3.4797189l-3.47971886 3.47971886c0 3.47971887-3.47971887 3.47971887-6.95943776 6.95943775-3.47971887 0-3.47971887 3.47971887-3.47971888 3.47971887s-6.95943774 6.95943774-13.91887548 6.95943775c-3.47971887 0-10.43915661-3.47971887-13.9188755-3.47971889h-6.95943773c-3.47971887 0-10.43915661 3.47971887-13.91887552-3.47971886l-6.95943775-6.95943775-6.95943775-3.47971887c-3.47971887-3.47971887-6.95943774-10.43915661-10.43915661-10.43915663-3.47971887-3.47971887-3.47971887-3.47971887-6.95943775-3.47971887h-6.95943775c-3.47971887 3.47971887-3.47971887 3.47971887-6.95943775 10.43915664-3.47971887 10.43915661-10.43915661 13.9188755-20.87831325 20.87831323-6.95943774 3.47971887-3.47971887 3.47971887-10.43915663 6.95943775-3.47971887 3.47971887-20.87831324 10.43915661-27.83775097 17.39859437l-6.95943775 3.47971887c-10.43915661 6.95943774-31.31746987 20.87831324-31.31746987 38.27690762 0 20.87831324 6.95943774 27.837751 13.9188755 27.83775098h13.91887549l6.95943774-3.47971886c3.47971887 0 6.95943774 0 10.43915662 3.47971886 6.95943774 3.47971887 0 10.43915661 3.47971889 13.9188755l3.47971886 3.47971889H1745.33883475c6.95943774 3.47971887 6.95943774 6.95943774 6.95943775 10.43915661 0 3.47971887-3.47971887 10.43915661-6.95943775 10.43915662-3.47971887 3.47971887-10.43915661 3.47971887-24.35803212 0h-6.95943775c-3.47971887 0-6.95943774 0-6.95943773 13.91887551v3.47971887c0 13.9188755 3.47971887 20.87831324 10.43915662 24.35803212 3.47971887 3.47971887 13.9188755 0 17.39859435-1e-8 6.95943774 0 13.9188755 0 13.91887551 3.47971887 3.47971887 3.47971887 3.47971887 6.95943774 3.47971887 13.9188755s0 13.9188755-3.47971887 17.39859438l-10.43915661 10.43915661s-3.47971887 0-3.4797189 3.47971887l-3.47971886 3.47971887v34.79718876c0 6.95943774 6.95943774 10.43915661 13.91887549 13.91887549 3.47971887 0 6.95943774-3.47971887 13.9188755-10.43915663l3.47971888-3.47971886c10.43915661-6.95943774 27.837751-24.35803212 38.27690762-27.837751 0 0 3.47971887 0 3.47971886-3.47971887 6.95943774-3.47971887 20.87831324-13.9188755 31.31746988-10.43915663 6.95943774 0 10.43915661 6.95943774 10.43915662 10.43915663v20.87831324c0 13.9188755 6.95943774 17.39859437 13.91887548 24.35803212l3.47971888 3.47971887c3.47971887 3.47971887 17.39859437 3.47971887 24.35803212 0l3.47971887-3.47971887c3.47971887-3.47971887 6.95943774-6.95943774 10.43915663-6.95943774 3.47971887-3.47971887 6.95943774-6.95943774 13.9188755-10.43915663 3.47971887-3.47971887 6.95943774-6.95943774 10.43915663-6.95943775 3.47971887-3.47971887 13.9188755-3.47971887 31.31746985-3.47971887h20.87831325c-3.47971887-13.9188755 0-13.9188755 3.47971887-17.39859437z m-104.39156623-76.55381523v6.95943774c0 6.95943774-3.47971887 20.87831324-10.4391566 24.35803212l-3.47971889 3.47971887c-3.47971887 3.47971887-6.95943774 6.95943774-17.39859436 3.47971888-6.95943774-3.47971887-6.95943774-3.47971887-10.43915662-6.95943775 0-3.47971887 0-6.95943774-3.47971888-6.95943775 0-3.47971887 0-3.47971887-6.95943773-3.47971887 0 0-3.47971887 0-6.95943779 3.47971887 0 0-6.95943774 3.47971887-13.91887548 3.47971888h-3.47971886c-3.47971887 0-10.43915661 0-10.43915663-13.91887549 0-6.95943774 0-10.43915661 3.47971886-13.9188755 3.47971887-3.47971887 6.95943774-3.47971887 13.91887551-3.47971887h17.39859439c3.47971887 0 3.47971887 0 6.95943773-3.47971887s0-3.47971887 6.95943775-6.95943778c3.47971887 0 10.43915661-3.47971887 10.43915662-10.43915661 0-6.95943774-3.47971887-10.43915661-10.43915662-13.91887549-13.9188755 0-24.35803212-3.47971887-31.31746987-3.47971886-6.95943774 0-10.43915661 0-13.91887551-3.47971889 0-3.47971887-3.47971887-3.47971887-3.47971886-6.95943774v-3.47971889l3.47971886-6.95943773v-3.47971888c6.95943774-10.43915661 34.79718874-6.95943774 34.79718874-3.47971887l6.95943777 3.47971887h6.95943774c3.47971887 0 3.47971887-3.47971887 3.47971888-6.95943775v-13.91887549c0-3.47971887-3.47971887-3.47971887-3.47971888-3.47971887-3.47971887 0-3.47971887 0-6.95943774-3.47971889l-10.43915661-3.47971887c-3.47971887-3.47971887-6.95943774-3.47971887-10.43915666-3.47971886h-27.83775097c-6.95943774 0-10.43915661-3.47971887-10.43915661-6.95943777 0-6.95943774 3.47971887-13.9188755 13.91887548-13.91887549 10.43915661-3.47971887 17.39859437-3.47971887 31.31746987 0h17.39859437c3.47971887 0 10.43915661 0 13.91887547 3.47971887l10.43915664 3.47971887c13.9188755 3.47971887 13.9188755 27.837751 13.91887549 31.31746987 0 27.837751 0 41.75662648 3.47971889 45.23634537 0 3.47971887 3.47971887 10.43915661 3.47971887 20.87831325-3.47971887 3.47971887-6.95943774 13.9188755-6.95943776 17.39859437z m34.79718873-121.7901606c0-6.95943774 6.95943774-10.43915661 17.3985944-13.91887549 10.43915661-3.47971887 24.35803212-3.47971887 27.83775098-3.47971888h34.79718875c6.95943774 0 17.39859437 6.95943774 17.39859437 13.9188755 0 3.47971887 0 6.95943774-3.47971889 10.43915661-3.47971887 3.47971887-10.43915661 3.47971887-17.39859435 3.4797189-3.47971887 0-20.87831324-3.47971887-27.83775101 0h-24.35803212c-3.47971887 0-17.39859437 3.47971887-20.87831323-3.4797189-3.47971887-3.47971887-3.47971887-6.95943774-3.4797189-6.95943774z m20.87831327 132.22931721V470.24337352c0 3.47971887 0 6.95943774-3.47971887 13.91887548l-6.95943776 6.95943776h-13.91887549c-3.47971887 0-3.47971887-3.47971887-3.47971888-10.43915663 0-3.47971887 0-6.95943774 3.47971888-10.43915661v-10.43915664c0-3.47971887-3.47971887-6.95943774 0-13.91887548s10.43915661-10.43915661 13.91887549-10.43915665c3.47971887 0 10.43915661 0 13.91887549 10.43915665 0 0 0 6.95943774-3.47971886 13.91887548z m10.43915662-59.15522084c-10.43915661 0-24.35803212 3.47971887-27.83775099-6.95943777v-3.47971887c0-3.47971887 0-3.47971887 3.47971888-6.95943774s10.43915661-6.95943774 13.91887549-6.95943775h6.95943774c3.47971887 0 10.43915661-3.47971887 13.91887549 0h24.35803213c6.95943774 0 13.9188755 0 13.9188755 3.47971888v6.95943775c0 3.47971887-3.47971887 3.47971887-10.43915663 6.95943773-3.47971887 0-3.47971887 3.47971887-6.95943775 3.47971889-3.47971887 6.95943774-10.43915661 6.95943774-17.39859437 6.95943774 3.47971887-3.47971887-6.95943774-3.47971887-13.91887549-3.47971886z m17.39859436 83.51325296v-13.91887548c0-6.95943774 0-6.95943774 6.95943777-10.43915664 3.47971887-3.47971887 6.95943774-3.47971887 13.91887548 0l6.95943776 6.95943775c0 3.47971887 3.47971887 3.47971887 3.47971887 6.95943775v3.47971888s3.47971887 3.47971887 3.47971885 6.95943774 0 3.47971887-3.47971885 3.47971888c-6.95943774 6.95943774-17.39859437 6.95943774-24.35803211 3.47971888-3.47971887 0-6.95943774-3.47971887-6.95943777-6.95943776zM2507.39726817 320.61546193v-3.47971887c3.47971887-6.95943774 3.47971887-6.95943774 0-13.9188755l-3.47971886-6.95943775c0-3.47971887-3.47971887-6.95943774-10.43915663-10.43915662l-10.43915661-6.95943775c-3.47971887-3.47971887-6.95943774-6.95943774-20.87831325-6.95943776-13.9188755-3.47971887-13.9188755-3.47971887-17.39859437-3.47971887h-48.71606423-3.47971889c-3.47971887 0-6.95943774-3.47971887-24.35803212-3.47971887-13.9188755 0-24.35803212 3.47971887-31.31746985 6.95943774l-10.43915664 3.4797189c-6.95943774 0-17.39859437 6.95943774-20.87831325 13.91887548-3.47971887 6.95943774-6.95943774 6.95943774-6.95943773 10.43915662 0 3.47971887 0 6.95943774-3.47971887 6.95943776-3.47971887 3.47971887-10.43915661 0-13.91887552-6.95943776l-3.47971886-3.47971887c-3.47971887-3.47971887-3.47971887-3.47971887-3.47971887-6.95943775v-3.47971887c0-3.47971887-3.47971887-6.95943774-6.95943777-6.95943775 0 0-10.43915661-3.47971887-10.43915661-6.95943776-3.47971887-3.47971887-10.43915661-3.47971887-10.43915663-6.95943774-3.47971887 0-3.47971887-3.47971887-10.43915662-3.47971887H2229.01975825c-6.95943774 0-13.9188755-3.47971887-20.87831324-3.47971887l-13.9188755-3.47971887c-13.9188755-3.47971887-34.79718874-3.47971887-45.23634535 6.95943774-6.95943774 6.95943774-6.95943774 10.43915661-6.95943777 13.91887551 0 3.47971887 0 20.87831324 3.47971888 24.3580321 3.47971887 6.95943774 10.43915661 13.9188755 24.35803214 20.87831325 13.9188755 6.95943774 17.39859437 6.95943774 20.87831323 6.95943774h6.95943774c6.95943774 3.47971887 24.35803212 0 27.83775099-3.47971887h3.47971888c6.95943774-3.47971887 13.9188755-6.95943774 20.87831325-6.95943774h17.39859435c3.47971887 3.47971887 3.47971887 3.47971887 6.95943777 0 3.47971887 0 3.47971887-3.47971887 10.43915661 0 3.47971887 0 3.47971887 0 6.95943775 3.47971887h3.47971889c3.47971887 0 6.95943774 0 10.4391566 3.47971887l3.47971889 3.47971887c3.47971887 3.47971887 3.47971887 6.95943774 10.43915662 3.47971887 6.95943774 0 6.95943774-3.47971887 10.4391566-3.47971887 3.47971887-3.47971887 6.95943774-3.47971887 13.91887552-3.47971887l6.95943774-3.47971887c3.47971887 0 10.43915661-3.47971887 13.91887549-3.47971887 6.95943774 3.47971887 10.43915661 3.47971887 13.9188755 0H2493.47839268c6.95943774 10.43915661 10.43915661 10.43915661 13.91887549 3.47971887zM2535.23501917 400.64899604c0-6.95943774 3.47971887-17.39859437 3.47971887-20.87831325 0-3.47971887-3.47971887-3.47971887-6.95943775-3.47971888-10.43915661-3.47971887-20.87831324 0-27.83775098 0h-17.39859438L2472.60007942 372.81124503c-6.95943774 0-13.9188755 0-27.83775097-3.47971886-6.95943774-3.47971887-24.35803212-3.47971887-27.83775101-3.47971889-3.47971887 0-24.35803212 3.47971887-34.79718873 0H2354.2896377l-17.39859434 3.47971889h-6.95943778-6.95943773c-3.47971887 0-10.43915661 0-10.43915662 3.47971886-3.47971887 3.47971887-6.95943774 6.95943774-13.91887549 6.95943776-6.95943774 3.47971887-13.9188755-3.47971887-24.35803212-10.43915662-6.95943774-6.95943774-10.43915661-6.95943774-17.39859438-3.47971889h-34.79718875-6.95943773c-6.95943774 0-13.9188755-3.47971887-20.87831325 0h-6.95943777c-3.47971887 0-6.95943774 0-20.87831323 6.95943775-6.95943774 3.47971887-10.43915661 6.95943774-13.91887548 10.43915663 0 3.47971887 0 10.43915661 3.47971887 17.39859438s6.95943774 13.9188755 6.95943773 24.3580321c0 6.95943774 6.95943774 10.43915661 10.43915663 10.43915661 3.47971887 0 10.43915661 0 17.39859438-3.47971885 3.47971887-3.47971887 6.95943774-3.47971887 10.43915663 0h3.47971886c6.95943774 0 10.43915661 0 13.91887551-3.47971888 6.95943774-3.47971887 17.39859437-6.95943774 27.83775097-6.95943774 3.47971887 0 6.95943774 3.47971887 10.43915663 3.47971886 3.47971887 3.47971887 3.47971887 10.43915661 0 17.39859439 0 6.95943774-6.95943774 13.9188755-10.43915663 20.87831324-3.47971887 6.95943774-13.9188755 13.9188755-17.39859436 20.87831323-6.95943774 3.47971887-13.9188755 6.95943774-20.87831324 6.95943776h-6.95943774c-6.95943774 0-13.9188755 3.47971887-20.87831325 6.95943774-6.95943774 3.47971887-13.9188755 3.47971887-17.39859439 20.87831324 0 3.47971887-3.47971887 6.95943774-3.47971885 13.9188755v10.43915663c0 10.43915661 6.95943774 13.9188755 13.91887548 20.87831325 3.47971887 3.47971887 17.39859437 3.47971887 27.83775101 3.47971887h3.47971886c3.47971887 0 6.95943774-3.47971887 10.43915663-3.47971887 3.47971887-3.47971887 3.47971887-3.47971887 17.39859437-10.43915664 20.87831324-10.43915661 24.35803212-13.9188755 27.83775099-20.87831324 0 0 3.47971887-3.47971887 3.47971888-6.95943774s3.47971887-3.47971887 3.47971885-6.95943776 3.47971887-6.95943774 3.47971888-13.91887548c3.47971887-3.47971887 3.47971887-6.95943774 3.47971889-10.43915663l3.47971887-10.43915663c0-3.47971887 3.47971887-10.43915661 3.47971886-17.39859437v-6.95943775-13.91887548c3.47971887-6.95943774 6.95943774-6.95943774 13.91887552-10.43915665h20.87831323c3.47971887 3.47971887 17.39859437 0 24.35803213 0 6.95943774-3.47971887 13.9188755-3.47971887 31.31746986-3.47971885 13.9188755 0 20.87831324 6.95943774 20.87831324 13.9188755v3.47971887c6.95943774 6.95943774 6.95943774 27.837751 6.95943776 27.83775099v17.39859437c0 6.95943774 3.47971887 17.39859437 3.47971887 20.87831324 3.47971887 6.95943774 3.47971887 17.39859437 0 24.35803213 0 6.95943774 0 13.9188755 3.47971887 17.39859437 3.47971887 3.47971887 3.47971887 10.43915661 3.47971887 13.91887549 0 3.47971887 0 6.95943774 3.47971886 13.9188755l3.47971888 6.95943774s3.47971887 6.95943774 6.95943775 6.95943776 3.47971887-3.47971887 6.95943777-3.47971888v-3.47971888-3.47971885c0-3.47971887 3.47971887-6.95943774 3.47971886-10.43915665 0 0 3.47971887-13.9188755 3.47971888-10.43915661V546.79718874v-3.47971887c0-3.47971887 0-6.95943774-3.47971888-13.9188755 0-3.47971887-3.47971887-6.95943774-3.47971886-10.43915663v-13.91887548-13.9188755-20.87831324-6.95943775-13.9188755c0-3.47971887-3.47971887-13.9188755-3.47971889-17.39859437v-6.95943776-3.47971886c3.47971887-6.95943774 6.95943774-10.43915661 13.91887551-10.43915663 3.47971887 0 10.43915661 3.47971887 17.39859436 10.43915663l3.47971888 3.47971886c6.95943774 3.47971887 24.35803212 3.47971887 31.31746986 3.47971888 6.95943774 0 10.43915661-3.47971887 13.91887549-6.95943774l3.47971888-3.47971888c17.39859437-6.95943774 20.87831324-13.9188755 24.35803212-17.39859436zM332.57297188 219.70361459c-163.54678707 0-292.29638541 132.22931721-292.29638542 292.29638541 0 163.54678707 132.22931721 292.29638541 292.29638542 292.29638541 76.55381525 0 128.74959834-27.837751 153.10763046-41.75662648 55.67550199-34.79718874 86.99297186-83.51325298 80.0335341-132.2293172-6.95943774-41.75662648-45.23634537-73.07409636-93.95240961-86.99297186-3.47971887 0-10.43915661-3.47971887-13.91887547-3.47971887 24.35803212-13.9188755 38.27690762-31.31746987 41.75662648-55.675502 6.95943774-52.19578312-52.19578312-104.39156621-132.22931721-114.83072283-73.07409636-10.43915661-132.22931721-3.47971887-153.10763047-3.47971889v93.9524096c41.75662648-6.95943774 97.43212848-6.95943774 142.66847384 0 38.27690762 6.95943774 62.63493973 20.87831324 66.1146586 38.27690762 0 3.47971887 0 10.43915661-3.47971886 13.9188755-10.43915661 13.9188755-27.837751 13.9188755-41.75662649 10.43915661-48.71606423-6.95943774-104.39156621-6.95943774-160.06706821 0V616.39156621c52.19578312-6.95943774 139.18875497-6.95943774 180.94538145 0 38.27690762 6.95943774 62.63493973 24.35803212 66.11465861 45.23634537 0 10.43915661-3.47971887 17.39859437-10.43915663 27.83775101-13.9188755 17.39859437-55.67550199 34.79718874-114.83072284 34.79718873-118.31044173 0-215.74257019-97.43212848-215.74257021-215.74257019 0-118.31044173 97.43212848-215.74257019 215.74257021-215.74257021 118.31044173 0 215.74257019 97.43212848 215.74257018 215.74257021v24.35803211c13.9188755 6.95943774 38.27690762 24.35803212 66.11465862 55.67550201 6.95943774-24.35803212 10.43915661-52.19578312 10.43915662-80.03353412-3.47971887-160.06706821-135.70903609-288.81666655-299.25582317-288.81666654z" fill="#E50012" p-id="20399"></path></svg>