<?xml version="1.0" standalone="no"?><!DOCTYPE svg PUBLIC "-//W3C//DTD SVG 1.1//EN" "http://www.w3.org/Graphics/SVG/1.1/DTD/svg11.dtd"><svg t="1547620204851" class="icon" style="" viewBox="0 0 1024 1024" version="1.1" xmlns="http://www.w3.org/2000/svg" p-id="2180" xmlns:xlink="http://www.w3.org/1999/xlink" width="200" height="200"><defs><style type="text/css"></style></defs><path d="M506.59545088 16.9809623H520.54673012c158.36587233 0.18853081 313.90378262 80.12559015 406.6609364 225.79705478a502.3717389 502.3717389 0 0 1 78.99440534 268.46785972v3.51924111a495.77316091 495.77316091 0 0 1-26.39431204 158.3030297l-0.62843648-0.31421897c-59.0729846 172.81989985-211.28018313 301.46074979-395.60046329 324.52435152v0.0628441c-15.77374313 1.63393311-31.67317447 2.5137445-47.50976169 2.51374301h-1.885308a504.00567349 504.00567349 0 0 1-206.94397473-45.68729632c-126.12710546-66.42568582-215.74207971-194.06103767-223.66037333-345.63980116a490.55714256 490.55714256 0 0 1-0.50274831-25.64018888h0.1256867c0-5.2788624 0.12568672-10.49488074 0.37706161-15.71090049 0-1.00549809 0-2.07383881 0.12568819-3.14217952a358.45989559 358.45989559 0 0 1 1.50824638-20.42417052c6.2843605-62.90644323 26.39431205-122.29364535 57.81611163-174.45383297l0.37706162-0.6284365a336.96738436 336.96738436 0 0 1 20.86407474-30.91905126l2.51374449-3.45639849a407.98065201 407.98065201 0 0 1 130.52615795-112.30151293c9.48938411-4.9646449 18.47601845-8.04398033 28.40530677-11.94028452 6.03298562-1.75962129 9.86644571-3.01649281 13.82559252-3.2678662 0.62843649 0 2.76511791-0.12568672 2.01099471 1.31971557a352.30122181 352.30122181 0 0 0-117.76890613 247.72947169 351.98700429 351.98700429 0 0 0 217.18748202 342.686151 315.60055982 315.60055982 0 0 0 147.05402428 24.94890974 340.73800036 340.73800036 0 0 0 75.34947608-12.38019021c1.25687152-0.2513749 2.38805631-0.62843649 3.58208519-1.00549662a341.68065436 341.68065436 0 0 0 20.54985725-6.66142211 350.73013279 350.73013279 0 0 0 229.19060915-296.43326228l0.25137489 0.12568819v-3.0793369a353.18103318 353.18103318 0 0 0-28.09108925-173.57402307c-63.66056643-174.70520784-227.11677036-299.82681668-420.86359051-303.53458857a1253.10138597 1253.10138597 0 0 0-100.42407252 3.14217952c44.68179969-11.43753474 93.13421539-12.82009443 119.02577913-12.94578116z m-63.4720371 303.66027532a147.05402429 147.05402429 0 0 1 143.09487747-117.45468864c10.05497651 0 20.29848235 1.06834071 30.54198967 3.2678677h0.2513749c158.68008981 34.56398057 259.66975621 192.92985287 225.60852395 353.74662412-31.42179956 148.37373989-166.84975834 246.9753485-312.45837884 234.21809815-0.43990567-0.94265401-0.62843649-1.885308-0.1885308-2.7651179a147.55677259 147.55677259 0 0 0 138.63298089-117.64321943c16.96777203-80.43980767-33.62132655-159.62274383-112.99279203-176.84189077h-0.37706161l0.06284261-0.25137488c-78.93156127-17.40767774-129.20644235-96.21355229-112.17582621-176.27629835zM219.71441533 191.49763937c26.89706036-10.99763052 49.83497539-15.45952563 69.44217862-15.45952563a106.83411971 106.83411971 0 0 1 59.01014052 16.71639714c-79.62284185 24.76037893-149.37923799 69.12795966-202.0421739 131.84587356-21.68104205 25.38881395-44.0533632 40.65980878-68.18530712 46.50426358-24.13194244 5.84445481-48.2010408 2.5137445-68.68805395-3.58208519 45.56160959-14.07696593 74.72104106-49.3322256 103.06350371-84.08473698 28.71952575-35.31810375 58.44454811-71.76739085 107.4625562-91.94018648z" fill="#C9151E" p-id="2181"></path></svg>