<?xml version="1.0" standalone="no"?><!DOCTYPE svg PUBLIC "-//W3C//DTD SVG 1.1//EN" "http://www.w3.org/Graphics/SVG/1.1/DTD/svg11.dtd"><svg t="1547622522802" class="icon" style="" viewBox="0 0 1820 1024" version="1.1" xmlns="http://www.w3.org/2000/svg" p-id="16706" xmlns:xlink="http://www.w3.org/1999/xlink" width="355.46875" height="200"><defs><style type="text/css"></style></defs><path d="M734.9709485 579.00752576l0.31857727 23.57475568c-12.63691856-11.68118561-31.3268144-17.52177728-47.57428144-10.30068144-16.14127424 7.75205872-24.84906703 23.57475568-22.6190216 40.77795568 0.95573297 12.95549584 11.36260721 26.22957008 24.31810304 31.11442992 13.91122992 4.46008864 30.37108144 1.91146704 40.77795568-7.75205984l5.20343712-4.24770304v24.21191024c-17.73416288 11.04402992-46.51235568 11.68118561-64.03413296-0.31857729-21.34471136-13.59265152-30.37108144-36.21167424-25.59241552-60.10500719 4.24770415-19.75182271 22.9376-39.82222272 43.64515568-43.64515568 15.82269584-3.61054848 32.70731856-1.06192577 45.55662273 6.69013296zM767.99684433 615.2192h0.3185784c8.07063712-6.47774849 21.66328865-6.79632576 31.00823599-2.6548144 11.25641441 5.20343712 14.22980719 16.88462273 13.91122993 28.14103712v43.64515456h-20.0704l-0.31857728-46.29997008c-0.31857728-3.50435568-0.95573297-7.11490416-4.56628144-9.02637008-4.88485872-2.23004432-11.68118561-1.91146704-15.82269696 1.59288864-3.29197008 3.61054848-3.61054848 8.07063712-4.24770304 12.95549696l-0.3185784 40.77795456H747.92644432V571.57404432h20.07040001v43.64515568zM1262.53574849 615.2192c8.3892144-6.47774849 22.30044432-7.11490416 31.96397008-2.23004432 10.40687424 5.20343712 13.27407424 16.14127424 13.27407425 27.18530304v44.28231136h-20.07040001l-0.3185784-46.29997008c-0.63715568-3.82293295-1.59288864-8.7077928-6.37155568-9.98210416-5.5220144-0.95573297-12.31834128-0.95573297-15.50411744 4.24770416-2.54862272 5.20343712-2.8672 10.93783712-2.8672 16.77842992v35.25594016h-20.0704V571.57404432h20.0704l-0.1061928 43.64515568zM1757.07465153 631.04189584l0.3185784 0.3185784c7.11490416-6.47774849 13.91122992-13.27407424 20.60136288-19.75182272h27.50388144l-32.70731856 30.37108145-0.63715567 0.63715567 34.93736287 41.73368864h-26.54814848l-22.7252144-28.141036c-0.31857728 0-0.63715568 0.31857728-0.95573295 0.31857728v27.82245872h-20.07040001V571.57404432h20.07040001v59.46785152h0.21238447zM923.2504144 623.28983712c1.91146704 3.61054848 2.54862272 8.07063712 2.86720001 12.63691856l0.3185784 48.5300144h-20.3889784l-0.31857728-45.6628144c-0.63715568-3.82293295-1.27431137-8.7077928-5.52201439-10.30068144-4.24770415-0.95573297-9.66352576-1.27431137-13.27407425 0.95573295-5.8405928 4.56628144-5.5220144 11.89357008-5.8405928 19.00847425v35.89309584h-20.3889784v-72.74192576h20.0704c0.63715568 1.27431137 0 2.9733928 0.3185784 4.24770416 8.3892144-7.11490416 22.9376-7.75205872 32.70731856-2.54862272 3.92912575 2.23004432 7.85825152 5.8405928 9.45114015 9.98210416zM1718.95151137 621.0597928c4.88485872 7.43348144 4.24770415 16.77842993 4.56628143 25.9109928v37.48598448h-20.70755568v-45.9813928c-0.63715568-3.82293295-1.27431137-7.75205872-5.20343712-9.66352576-4.56628144-1.59288864-11.36260721-1.91146704-14.86696287 1.59288976-3.92912575 4.24770415-3.92912575 9.98210416-4.56628144 15.50411744l-0.3185784 38.54791136h-20.38897728v-72.74192576h20.38897728v3.92912576c1.69908144-0.31857728 3.29197008-1.91146704 4.88485984-2.5486216 9.02637007-4.88485872 22.9376-4.24770415 31.00823712 1.91146592 1.91146704 1.80527424 3.92912575 3.82293295 5.20343712 6.0529784zM992.8065629 617.13066704c-4.88485872-3.82293295-11.04402992-6.47774849-17.20320001-7.11490416-4.77866704-0.63715568-9.66352576-0.31857728-14.336 1.38050417-13.59265152 3.82293295-23.25617728 17.73416288-24.53048864 31.00823712-1.59288864 16.45985153 4.56628144 32.70731856 19.75182161 40.45937727 5.5220144 2.9733928 12.21214848 3.92912575 19.00847423 3.61054847h0.1061928c6.47774849-0.63715568 12.53072576-2.9733928 17.09700721-6.79632575 0.31857728 1.27431137 0 3.18577728 0 4.88485872h20.38897839v-72.95431136h-20.28278559v5.52201552z m-2.76100721 44.06992576c-3.18577728 4.88485872-8.6016 7.11490416-14.4421928 7.43348144-0.95573297 0-1.91146704 0-2.8672-0.3185784-5.5220144-0.74334848-10.72545152-4.24770415-12.95549585-9.13256288-3.61054848-6.79632576-3.61054848-17.0970072 0.95573297-23.57475568 3.18577728-5.20343712 8.7077928-7.75205872 14.86696288-7.75205872 0.95573297 0 2.23004432 0 3.1857784 0.31857728 4.56628144 0.63715568 8.3892144 2.8672 11.2564144 6.79632687 4.88485872 7.11490416 5.20343712 19.00847424 0 26.22957009zM1226.32407425 627.53754128c-4.56628144-6.47774849-10.72545152-11.57499281-17.5217784-14.5483856-5.20343712-2.23004432-10.93783712-3.29197008-16.77842881-3.29197008h-0.1061928c-9.13256287 0-18.05274128 2.6548144-24.74287423 8.1768288-13.59265152 10.30068144-18.15893296 27.07911137-12.95549584 43.008 4.24770415 12.95549584 18.15893296 24.63668143 32.38874015 25.59241551 1.91146704 0 3.71674128 0.31857728 5.30962992 0.31857729h0.1061928c14.86696288-0.31857728 28.03484432-7.43348144 35.46832577-20.0704 6.58394129-11.68118561 6.26536289-28.5658072-1.16811856-39.18506592z m-18.79608865 33.9816288c-3.61054848 4.88485872-9.34494847 7.11490416-15.50411856 7.11490416-1.59288864 0-3.29197008-0.31857728-4.88485983-0.63715567-5.8405928-0.63715568-11.36260721-5.8405928-13.27407424-11.36260721-2.23004432-7.11490416-1.91146704-16.14127424 2.9733928-21.98186705 3.92912575-4.88485872 9.34494847-6.79632576 15.18554127-6.79632575 1.27431137 0 2.44242992 0 3.82293297 0.31857728 5.5220144 0.63715568 10.72545152 4.24770415 13.27407424 9.02637121 3.82293295 7.11490416 3.61054848 18.15893296-1.59288865 24.31810303zM1373.93177729 611.60865152v5.52201552c-4.56628144-3.82293295-10.61925872-6.37155569-16.99081441-7.11490416h-0.2123856c-6.05297729-0.63715568-12.21214848 0-17.30939167 2.6548144-12.31834128 5.20343712-20.0704 17.73416288-21.34471135 30.05250416-1.59288864 16.45985153 4.88485872 32.07016289 19.75182159 40.1408 5.41582272 2.9733928 12.53072576 4.24770415 19.00847423 3.61054847s12.63691856-3.0795856 17.20320001-6.90251855v4.88485872h20.3889784v-72.74192576l-20.4951712-0.1061928z m-1.91146592 48.53001552c-3.18577728 5.5220144-9.02637007 8.17682992-15.18554129 8.4954072-0.95573297 0-1.91146704 0-2.86719998-0.3185784-5.8405928-0.74334848-10.72545152-4.88485872-13.27407425-9.76971856-2.8672-7.11490416-3.18577728-16.77842993 1.38050416-23.25617728 3.50435568-4.88485872 8.7077928-7.43348144 14.86696287-7.43348144 0.95573297 0 2.12385152 0 3.07958561 0.31857728 4.56628144 0.63715568 8.3892144 2.8672 11.3626072 6.79632687 4.56628144 6.79632576 5.20343712 18.05274128 0.63715568 25.16764433zM1623.48437009 611.60865152v5.52201552c-4.88485872-4.24770415-10.61925872-6.47774849-17.0970072-7.11490416-4.56628144-0.63715568-9.45114127 0-13.91122992 1.16811857-14.22980719 3.92912575-24.21191136 18.47751136-24.84906592 32.07016287-1.59288864 16.24746704 4.88485872 31.7515856 19.7518216 39.50364432 5.20343712 2.9733928 12.31834128 4.24770415 19.11466704 3.61054847 4.46008864-0.31857728 8.6016-1.69908144 11.78737728-3.92912575 1.91146704-0.63715568 3.18577728-2.54862272 5.20343712-3.1857784v5.20343712h21.02613408v-72.74192576l-21.02613408-0.1061928z m-2.6548144 49.48574848c-3.61054848 4.88485872-8.7077928 7.43348144-14.5483856 7.43348144-1.59288864 0-3.50435568-0.31857728-4.99105152-0.63715567-6.90251856-1.59288864-11.99976288-8.3892144-12.63691856-14.86696289-1.59288864-8.7077928 0.63715568-18.05274128 8.7077928-22.9376 2.54862272-1.59288864 5.8405928-2.23004432 9.02637008-2.23004432 3.92912575 0 7.32728864 0.95573297 9.87591136 2.8672 2.01765872 1.27431137 3.61054848 3.18577728 4.88485872 4.88485872 4.88485872 7.11490416 4.56628144 18.37131856-0.31857728 25.48622272zM1144.13100721 647.39555569c-0.95573297-10.08829584-8.07063712-20.0704-18.15893296-24.31810417 1.59288864-1.91146704 3.29197008-3.82293295 4.14151135-5.8405928 4.88485872-7.75205872 4.88485872-20.0704 0.31857729-27.82245872-5.20343712-11.99976288-15.18554128-16.14127424-26.86672576-17.52177728-9.66352576-1.27431137-20.49517008-0.63715568-30.58346705-0.63715568v113.30749584c8.3892144 0 19.64562991 0.63715568 30.68965985 0v-19.11466705h-9.66352577v-29.73392575c3.18577728 0 6.47774849 0 9.66352577 0.3185784 8.07063712 0.31857728 15.39792576 1.59288864 19.00847424 9.34494736 1.59288864 4.24770415 0.95573297 9.76971856-1.59288976 13.59265264-4.56628144 5.20343712-10.72545152 6.15917009-17.41558448 6.47774735v19.11466705c9.66352576-0.63715568 18.79608864-2.23004432 25.5924144-6.15917007 11.36260721-6.47774849 16.14127424-18.47751136 14.86696288-31.00823712z m-33.45066592-33.34447426c-1.91146704 1.91146704-4.56628144 3.18577728-7.11490416 3.50435569-2.8672 0.63715568-6.37155569 0.63715568-9.55733297 0.63715568l-0.3185784-28.14103712c3.50435568 0 7.00871136-0.31857728 9.87591137 0.63715569 2.8672 0.63715568 5.5220144 1.59288864 7.75205873 4.24770303 3.61054848 5.20343712 3.29197008 13.91122992-0.63715457 19.11466703zM1556.47684433 637.20106705c-2.8672-5.8405928-9.02637007-11.57499281-14.86696288-14.22980833l3.18577729-4.24770304c6.15917009-8.3892144 5.5220144-21.66328865 0.63715567-30.37108145-5.5220144-11.36260721-15.07934848-15.50411856-26.44195567-16.77842991-9.66352576-0.95573297-20.70755568 0-30.79585152-0.31857728v113.20130304l30.79585152-0.31857728h4.14151135c11.99976288-0.31857728 22.30044432-3.82293295 29.84011855-13.59265152 7.43348144-8.7077928 8.7077928-22.9376 3.50435569-33.34447423z m-47.25570303-47.14951137c3.29197008 0 6.79632576-0.31857728 9.66352575 0.63715569 3.18577728 0.63715568 5.8405928 1.91146704 7.75205872 4.56628143 3.18577728 5.20343712 3.18577728 13.27407424-0.31857728 18.47751136-2.01765872 2.23004432-4.56628144 3.18577728-7.43348144 3.82293296-2.9733928 0.63715568-6.37155569 0.63715568-9.66352575 0.63715568v-28.14103712z m26.44195455 69.23757008c-4.14151135 4.88485872-10.40687424 5.8405928-16.7784288 6.15917007h-9.66352575v-29.73392575c3.29197008 0 6.37155569 0 9.66352575 0.3185784 8.07063712 0 15.92888864 1.59288864 19.11466592 9.66352576 1.59288864 4.46008864 0.95573297 9.98210416-2.33623712 13.59265152zM1430.42623713 584.21096288c0 6.47774849-5.5220144 11.68118561-11.99976288 11.68118561-6.37155569 0-11.99976288-5.20343712-11.99976288-11.68118561 0-6.15917009 5.5220144-11.36260721 11.99976288-11.36260721 6.37155569 0 11.99976288 5.20343712 11.99976288 11.36260721zM1408.33817728 611.71484432h20.07040001v72.74192576h-20.07040001zM848.80940721 584.52954128c0 6.47774849-5.5220144 11.68118561-11.99976288 11.68118448-6.79632576 0-11.99976288-5.20343712-11.99976288-11.68118448s5.20343712-11.57499281 11.99976288-11.57499281c6.58394129-0.1061928 11.99976288 5.09724432 11.99976288 11.57499281zM826.82754129 611.71484432h19.7518216v72.74192576h-19.7518216zM793.58925873 523.36260721v-16.14127425h1.59288976c3.50435568 0 6.15917009-0.31857728 7.11490304-1.27431025 1.27431137-0.63715568 1.91146704-2.54862272 1.91146704-4.88485983v-92.49374848h-6.15917008v-16.7784288h6.15917008v-15.18554129h30.05250416v15.18554129h40.77795456V509.87614848c0 1.91146704-0.95573297 4.56628144-2.8672 8.38921441-1.91146704 3.50435568-8.3892144 5.20343712-19.43324432 5.20343712h-14.86696287v-16.14127425h1.59288863c1.91146704 0 3.61054848-0.31857728 4.24770416-0.95573296 0.95573297-0.63715568 1.59288864-1.59288864 1.59288864-3.1857784v-94.4052144h-10.93783712v102.47585152c0 1.91146704-0.63715568 4.24770415-2.23004432 6.47774848-1.59288864 2.01765872-4.24770415 3.61054848-8.07063712 4.56628144-3.92912575 0.95573297-7.43348144 1.27431137-10.30068144 1.27431137h-20.1765928v-0.2123856zM793.58925873 400.49777728v-16.14127311V400.49777728zM664.45906705 474.51401439h30.05250304l-9.34494736 36.53025264c-0.31857728 1.27431137-1.27431137 3.29197008-2.54862272 4.88485872-1.59288864 1.91146704-3.92912575 3.61054848-7.11490417 5.20343712-3.61054848 1.59288864-8.7077928 2.23004432-16.45985151 2.23004434h-13.91122992v-15.18554016h4.56628143c3.82293295 0 6.47774849-1.27431137 7.11490417-3.92912577l7.64586704-29.73392689zM793.58925873 384.35650417h-30.79585152v-7.43348146h-30.05250305v7.43348146h-31.32681552V400.49777728h31.32681552v6.79632688h-31.64539279v25.27383712h29.41534736v-9.0263712h34.30020832v9.0263712H793.58925873v-25.27383712h-30.79585152V400.49777728h30.79585152zM793.58925873 438.30234128h-93.13090304v16.45985152h59.46785152l-12.31834016 10.61925872v8.7077928l-43.96373407 4.56628144V496.07111136l43.96373407-5.52201552v12.31834129c0 1.91146704-0.63715568 2.8672-1.59288976 3.50435567s-2.8672 0.95573297-5.84059167 0.95573296h-31.32681552V523.68118561h48.21143711c6.79632576 0 11.68118561-0.95573297 15.18554128-3.50435569 3.61054848-2.23004432 5.5220144-5.5220144 5.5220144-9.76971856v-22.30044432l11.68118559-1.91146704v-16.77842993l-11.68118559 1.27431137v-2.54862272l15.82269584-12.95549584M675.82167424 378.19733296l6.79632577 19.43324432c0.95573297 2.8672 4.24770415 4.46008864 9.76971856 4.46008976h3.18577728v15.18554016h-19.75182161c-2.54862272 0-5.5220144-0.31857728-8.70779279-0.95573296-2.9733928-0.63715568-5.20343712-1.27431137-6.47774848-2.23004432-1.27431137-0.95573297-2.8672-2.23004432-4.24770304-3.92912575-1.27431137-1.59288864-2.23004432-3.18577728-2.54862272-4.56628145l-8.3892144-27.50388144h30.37108143v0.10619168zM646.08774849 425.984h30.37108144l6.15917008 21.66328864c0.31857728 1.59288864 0.95573297 2.6548144 1.91146704 2.9733928 0.95573297 0.31857728 2.6548144 0.63715568 4.88485872 0.63715569h4.88485984v15.18554016H677.83933298c-9.34494847 0-15.50411856-1.27431137-18.79608865-4.24770305-2.8672-2.8672-4.56628144-5.5220144-5.20343712-7.75205984l-7.75205872-28.4596144zM985.37308144 474.19543712h31.96397009l-8.07063712 31.43300719c-1.91146704 6.47774849-4.88485872 10.61925872-8.70779168 12.95549698-3.92912575 1.91146704-7.75205872 3.18577728-11.36260832 3.61054735-3.61054848 0.31857728-8.3892144 0.31857728-15.18554016 0.3185784h-16.77842992v-18.05274128h11.3626072c3.82293295 0 6.47774849-0.63715568 7.75205984-1.27431136 1.27431137-0.63715568 2.23004432-2.23004432 2.8672-4.88485872l6.15917007-24.10571856zM1186.60804432 382.33884432h-99.07768863l6.15917007-6.47774848h-36.53025151l-8.7077928 8.07063713c-2.23004432 1.91146704-4.24770415 3.50435568-6.15917009 4.14151135-1.91146704 0.95573297-4.88485872 1.27431137-8.0706371 1.27431137h-7.11490417v16.88462159h11.6811856c12.31834128 0 21.34471136-1.27431137 26.54814849-4.24770304l5.30962879-2.7610072h115.96231135V382.44503712h-0.53096287l0.53096287-0.1061928zM1181.6169928 456.24888865v-45.98139281l-50.65386703 0.2123856H1029.97397009v45.66281441h-6.79632576v16.77842991h6.79632576v49.16717008l75.50293408 0.1061928h41.83988144c6.79632576 0 12.21214848-0.31857728 16.7784288-0.63715568 4.24770415-0.42477008 7.75205872-1.38050417 10.72545264-3.29197007s4.56628144-4.56628144 5.5220144-7.43348146c0.63715568-3.18577728 1.27431137-6.15917009 1.27431135-9.02637007v-28.7781928h6.47774849v-16.77842991h-6.47774849z m-31.22062272 44.49469694c0 1.59288864-0.63715568 2.8672-1.91146591 3.50435569-0.95573297 0.63715568-3.50435568 0.63715568-7.11490416 0.63715456h-11.99976288l-18.47751136-23.57475456h-32.38874017l16.77842881 23.57475456h-34.93736288v-31.96397008h90.05131855v27.82245983z m0.1061928-44.60088974h-24.21191135l-16.45985152-19.75182161h-0.2123856v-0.1061928h-32.70731856l14.22980833 19.75182272h-30.79585265v-28.672h90.15751135v28.77819169zM958.50635569 425.984h31.4330072l4.88485984 17.2032c0.63715568 2.23004432 1.27431137 3.50435568 2.5486216 4.46008864 1.27431137 0.63715568 2.8672 1.27431137 5.20343712 1.27431135h12.95549584V467.39911136h-21.02613296c-9.66352576 0-16.14127424-0.95573297-19.11466704-3.29197008-2.8672-1.91146704-4.88485872-3.92912575-5.84059168-5.52201552-0.63715568-1.59288864-1.91146704-5.09724432-3.61054848-9.98210304l-7.43348144-22.61902272zM959.78066704 376.49825151h31.75158449l3.1857784 16.45985265c0.63715568 3.92912575 3.50435568 6.15917009 8.38921441 6.15917008h14.22980719v17.84035568h-20.70755568c-4.88485872 0-9.34494847 0-13.59265152-0.63715568-4.56628144-0.63715568-7.75205872-1.59288864-9.98210304-3.50435569-2.23004432-1.59288864-3.82293295-3.50435568-4.88485984-5.52201439-1.27431137-2.23004432-2.23004432-5.20343712-3.29197009-9.0263712l-5.09724432-21.76948145zM1434.88632577 485.55804432v-27.18530304h22.61902273l3.50435567 10.72545152h11.3626072c2.54862272 0 4.56628144-0.31857728 5.20343712-0.95573408s1.27431137-1.27431137 1.27431024-2.6548144v-6.79632576h22.61902271v10.40687424c0 3.50435568-0.31857728 6.79632576-1.27431135 9.66352576-0.63715568 2.54862272-6.69013296 4.24770415-18.37131856 4.24770416h-16.45985153l4.46008865 13.9112288c1.27431137 3.92912575 2.33623712 6.15917009 3.29197008 6.47774848 1.27431137 0.63715568 1.91146704 0.95573297 2.9733928 1.27431136l5.8405928-0.3185784h16.88462273v17.4155856h-19.75182273c-14.22980719 0-23.25617728-1.27431137-27.50388144-3.18577727-3.92912575-1.91146704-6.47774849-4.46008864-7.75205872-8.07063713l-8.9201784-24.95525984zM1267.95157009 420.24960001h94.08663711v17.84035567h-40.14079999v17.84035568h40.45937839v17.0970072h-40.45937839V498.19496288c0 2.8672 0.31857728 4.56628144 1.27431137 5.20343712 0.95573297 0.63715568 3.18577728 0.95573297 6.79632575 0.95573296h24.21191137v17.4155856h-40.99034129c-3.61054848 0-7.11490416-0.63715568-11.0440288-1.27431136-4.24770415-0.63715568-7.11490416-1.91146704-9.34494848-4.24770305-2.33623712-1.91146704-3.61054848-5.20343712-3.61054848-9.34494847v-33.66305152h-23.25617728V455.71792576h23.25617728v-17.84035568h-21.34471136v-17.62797007h0.1061928z" fill="" p-id="16707"></path><path d="M1434.88632577 377.87875568H1373.40081441V501.38074128c0 4.88485872 0.31857728 8.3892144 0.95573408 10.72545152 0.31857728 1.91146704 2.23004432 3.92912575 5.52201441 5.8405928 3.18577728 1.59288864 6.79632576 2.54862272 10.72545151 2.8672 4.24770415 0 10.08829584 0.31857728 18.15893407 0.31857727h19.43324433v-17.09700719h-15.82269696c-2.23004432 0-4.24770415-0.63715568-5.20343712-1.59288864-1.27431137-0.95573297-1.91146704-3.29197008-1.91146592-7.11490417v-42.05226703H1460.05397008c7.53967424 0 12.95549584-0.31857728 16.56604433-0.63715456 3.29197008 0 7.11490416-1.38050417 11.04402992-3.2919712 3.50435568-1.91146704 6.15917009-4.24770415 7.43348144-6.79632576 0.95573297-2.23004432 1.59288864-7.75205872 1.59288864-16.14127424v-48.5300144h-61.80408864z m30.37108143 16.8846216v14.12361552h-60.42358447v-14.12361552h60.42358447z m-1.91146591 40.671764c-1.27431137 0.95573297-2.8672 1.59288864-5.52201552 1.59288864h-52.99010304v-11.89357119h60.42358447v7.00871135c0 1.38050417-0.63715568 2.33623712-1.91146591 3.2919712z" fill="" p-id="16708"></path><path d="M1451.66475569 458.37274128H1425.43518561l9.45114016 27.18530304v-27.18530304zM1316.16300721 387.54228144h45.98139279V404.74548145h-52.77771855l-3.61054848 3.61054847c-1.59288864 1.91146704-3.50435568 3.50435568-6.47774736 4.88485872-2.54862272 1.27431137-7.75205872 1.91146704-15.82269696 1.91146705h-16.88462159v-16.56604433h5.20343712c4.14151135 0 7.11490416-0.31857728 8.38921439-1.27431137 0.95573297-0.63715568 2.23004432-2.54862272 3.29197008-5.84059279l4.88485984-15.18554016h31.00823712l-3.1857784 11.2564144zM1626.98872577 411.7541928h24.95525984l-14.86696288 21.34471136V523.68118561h-36.84882992v-73.69765985h-21.34471137V430.23170416h12.63691858c3.18577728 0 5.5220144-0.31857728 6.79632575-0.95573408 1.59288864-0.63715568 3.50435568-2.6548144 5.8405928-5.8405928l7.75205873-9.66352576h-33.02589586v-19.7518216h21.66328865c2.54862272 0 4.88485872-0.31857728 6.79632576-1.27431136 1.91146704-0.63715568 3.92912575-2.54862272 5.8405928-5.20343712l8.7077928-11.5749928h39.18506704l-15.18554129 21.02613408c-5.6282072 7.64586704-11.68118561 12.53072576-18.90228143 14.76077008z m130.72308144 23.0437928h-95.36094848V415.36474129h147.82008976v19.43324431H1794.98540721v65.62702159c0 5.8405928-0.95573297 10.40687424-2.9733928 13.59265153-1.91146704 3.18577728-4.88485872 5.5220144-9.02637008 6.79632688-4.24770415 1.27431137-10.72545152 2.01765872-19.43324432 2.01765872l-72.42334848 0.3185784v-19.43324544h57.5563856c3.50435568 0 5.8405928-0.63715568 7.00871136-1.59288864 1.38050417-0.95573297 2.01765872-3.61054848 2.01765872-7.75205872v-59.57404432z m-92.49374848-37.16740832V378.19733296h143.25380833v19.43324432h-143.25380833z" fill="" p-id="16709"></path><path d="M112.04520001 449.98352576s70.51188144-97.3786072 185.62465152-36.84882992c0 0 58.83069584-40.45937728 132.95312576-38.54791024 8.3892144 0.31857728 67.21991136-0.31857728 87.29031137 28.4596144 9.66352576 14.54838559 8.7077928 32.70731856-8.07063713 46.51235568 0 0-79.85682992-63.71555568-276.52551024-2.8672 0 0-28.4596144-15.50411856-64.98986704-12.95549696-34.3002072 2.6548144-56.28207424 16.24746704-56.28207424 16.24746704z" fill="#6FB92C" p-id="16710"></path><path d="M488.49794129 687.64254848l78.26394016-164.91709696S526.93965873 408.24983712 315.40401441 437.6651856c-188.81042992 26.54814848-298.40118559 159.50127424-298.40118448 159.50127312s124.88248865-85.37884432 283.9589928-39.82222161c131.9973928 37.80456288 187.53611856 130.29831137 187.53611856 130.29831137z" fill="#00428D" p-id="16711"></path></svg>