<?xml version="1.0" standalone="no"?><!DOCTYPE svg PUBLIC "-//W3C//DTD SVG 1.1//EN" "http://www.w3.org/Graphics/SVG/1.1/DTD/svg11.dtd"><svg t="1547622466014" class="icon" style="" viewBox="0 0 3246 1024" version="1.1" xmlns="http://www.w3.org/2000/svg" p-id="14976" xmlns:xlink="http://www.w3.org/1999/xlink" width="633.984375" height="200"><defs><style type="text/css"></style></defs><path d="M1132.37149 666.816415h1499.50756v4.423326H1132.37149z" fill="" p-id="14977"></path><path d="M517.086825 52.416415C262.966739 52.416415 55.291577 260.312743 55.291577 514.211663c0 254.120086 207.675162 461.795248 461.795248 461.795248s462.016415-207.675162 462.016415-461.795248c0-253.89892-208.117495-461.795248-462.016415-461.795248z" fill="#F59219" p-id="14978"></path><path d="M707.953348 444.32311c7.961987-27.424622 7.961987-58.387905-2.211663-88.466523-24.991793-71.87905-98.640173-111.688985-165.432398-88.466522l-19.020302 6.634989-35.165443-101.294168c-1.105832-3.096328-3.096328-5.086825-5.529158-6.413823-2.875162-1.326998-5.529158-1.548164-8.625486-0.442333l-35.165442 12.164147c-3.096328 1.105832-5.086825 3.096328-6.413823 5.529158-1.326998 2.875162-1.548164 5.529158-0.442333 8.625486l35.165443 101.294168-55.733909 19.241469-35.165443-101.294169c-1.105832-3.096328-3.096328-5.086825-5.529158-6.413823-2.875162-1.326998-5.529158-1.548164-8.625486-0.442332L325.114471 216.742981c-3.096328 1.105832-5.086825 3.096328-6.413823 5.529157-1.326998 2.875162-1.548164 5.529158-0.442333 8.625486l35.165443 101.294169-114.121814 39.588769c-3.096328 1.105832-5.086825 3.096328-6.413823 5.529157-1.326998 2.875162-1.548164 5.529158-0.442333 8.625486l12.164147 35.386609c1.76933 5.529158 7.298488 8.625486 13.269979 7.298488 40.473434-9.952484 70.773218 8.846652 81.831533 41.136933l74.754212 215.858316c9.952484 28.972786 3.317495 57.282073-28.75162 71.657883-4.644492 1.76933-7.077322 6.856156-6.634989 11.721814l5.529157 38.040605c1.105832 6.634989 7.519654 10.837149 14.154644 8.625486l109.256155-37.819438 34.944277 100.409503c1.105832 3.096328 3.096328 5.086825 5.529158 6.413823 2.875162 1.326998 5.529158 1.548164 8.625486 0.442332l35.165442-12.164146c3.096328-1.105832 5.086825-3.096328 6.413823-5.529158 1.326998-2.875162 1.548164-5.529158 0.442333-8.625486L563.974082 757.715767l55.733909-19.241469 35.165443 101.294169c1.105832 3.096328 3.096328 5.086825 5.529158 6.413822 2.875162 1.326998 5.529158 1.548164 8.625486 0.442333l35.165443-12.164147c3.096328-1.105832 5.086825-3.096328 6.413822-5.529158 1.326998-2.875162 1.548164-5.529158 0.442333-8.625485l-35.165443-101.294169 46.444925-16.366307c66.128726-22.78013 100.409503-99.082505 75.41771-170.298056-15.260475-44.233261-49.762419-75.860043-89.79352-88.02419z m-269.380562-48.656587l85.370195-29.857452c31.847948-10.837149 66.349892 5.750324 77.187041 37.598272 10.837149 31.847948-5.750324 66.349892-37.598273 77.187041l-85.370194 29.857452-39.588769-114.785313z m210.329158 243.061771l-113.237149 39.367602-39.588769-115.006479 113.237149-39.146436c31.847948-10.837149 66.349892 5.750324 77.408207 37.598272 11.058315 31.405616-5.529158 66.349892-37.819438 77.187041z m0 0" fill="#FFFFFF" p-id="14979"></path><path d="M1195.403888 346.788769h72.984881l19.462635-25.434125c3.759827-4.865659 6.192657-7.298488 7.519654-6.856156 1.326998 0.442333 2.875162 1.548164 4.865659 3.317495L1333.632829 351.654428c2.653996 2.875162 3.759827 5.086825 3.538661 7.077321s-1.548164 2.875162-3.538661 2.875162h-138.228941v192.414687c40.6946-10.394816 77.408207-20.568467 110.14082-30.299784l29.857452-8.846652c2.211663-0.442333 3.317495-0.221166 3.538661 0.884665 0.221166 1.105832 0.442333 1.990497 0.442332 2.43283-0.442333 2.211663-1.76933 3.980994-3.980993 5.307991l-35.386609 20.126134c-28.309287 15.923974-50.425918 28.088121-66.349892 36.271274-15.923974 8.183153-26.097624 13.712311-30.520951 16.366307l-26.761123 16.14514-15.923974 11.942981c-3.096328 0.884665-5.750324-0.884665-7.519654-5.529158l-15.039309-36.49244c-3.096328-7.519654-4.644492-11.721814-4.423326-12.60648s0.663499-1.548164 1.105831-2.211663l6.413823-5.529158c2.653996-2.653996 4.423326-7.961987 5.086825-15.702807 0.884665-7.740821 1.105832-13.491145 1.105832-17.250972V213.20432l-2.211663-47.550756c1.326998-1.326998 2.432829-1.990497 3.759827-2.211663l6.413823 1.76933 53.743412 15.039309c2.875162 0.884665 4.20216 1.990497 4.20216 3.538661 0 1.326998-1.548164 3.096328-4.20216 5.307991l-13.712311 11.500648v146.190929z m323.787473-21.895464c-41.358099 23.664795-82.0527 44.89676-121.641469 64.359395v177.81771c0 3.980994 0.663499 7.298488 1.76933 9.510152 1.326998 2.211663 6.634989 3.980994 15.923975 4.865658 9.288985 0.884665 22.337797 1.326998 38.704103 1.548164 27.203456 0.442333 44.233261-2.432829 51.53175-8.846652 7.298488-6.413823 15.923974-22.337797 26.31879-47.771922l16.145141-40.473434c1.326998-3.096328 2.875162-4.644492 4.644492-4.423326 1.76933 0.221166 2.875162 1.326998 3.096328 3.317494 0.221166 1.990497 0.221166 3.096328 0.221167 3.096329l-5.307992 35.386609c-2.875162 17.914471-3.980994 28.972786-3.538661 33.396112 0.442333 4.423326 1.76933 8.40432 3.759828 11.721814l7.961987 10.837149c2.211663 3.980994 3.096328 8.183153 3.096328 13.048812-0.221166 11.721814-7.077322 20.568467-20.568467 26.761123-13.491145 6.192657-41.800432 9.288985-84.927861 9.510152-21.010799 0.221166-39.809935-0.884665-57.060908-3.538661-17.029806-2.432829-29.415119-6.413823-36.713606-12.164147-7.519654-5.529158-11.721814-11.500648-12.827646-17.693305s-1.76933-13.269978-1.769331-21.010799v-360.50108l-2.432829-49.320086c1.326998-1.326998 2.432829-2.211663 3.317495-2.211663 0.884665 0 2.432829 0.221166 5.086825 0.884665l55.07041 16.366307c3.096328 1.105832 5.086825 1.990497 5.529158 2.875162 0.442333 0.884665 0.663499 1.548164 0.442332 2.211663 0 0.663499-1.105832 1.990497-3.317494 3.980993l-14.596977 12.385313v172.50972c10.394816-8.40432 24.328294-21.231965 41.579266-38.261771 17.250972-17.029806 29.193952-29.415119 35.386609-37.15594l15.039309-18.57797 5.529158-7.519654c1.105832-0.884665 3.980994 1.105832 8.846652 5.750324l35.165443 36.492441c0.442333 0.442333 1.326998 2.211663 2.875162 4.865658 1.548164 2.653996 0.663499 4.20216-2.875162 4.423326l-19.462635 1.548165zM1743.453996 292.381857V205.463499l-2.43283-50.425918c0.442333-0.663499 0.884665-1.326998 1.326998-1.548164l6.856156 2.211663 50.425918 13.048812c2.653996 0.884665 3.980994 2.211663 4.202159 3.980994 0 1.76933-0.663499 3.096328-1.990496 4.202159l-15.702808 13.491145v101.957667h18.799136l17.472138-24.54946c1.76933-2.432829 3.317495-3.759827 4.423326-3.53866 1.326998 0 2.875162 0.884665 4.865659 2.432829l30.299784 28.088121c2.432829 2.432829 3.980994 4.20216 4.20216 5.307991 0.442333 1.105832 0.442333 2.432829 0.442333 3.759827 0 1.548164-1.548164 2.211663-4.644493 2.211663h-41.358099v0.221167h-34.501944v94.216846c15.039309-4.423326 26.31879-7.961987 33.838445-10.615982l28.088121-10.17365 17.472138-5.750324c3.096328-0.884665 4.644492-0.221166 4.865659 2.211663 0.221166 2.432829-0.442333 3.980994-2.211663 4.865658l-16.145141 9.510152c-18.57797 11.058315-40.473434 23.222462-65.907559 36.713607v143.0946l1.548164 47.550756c-0.663499 2.653996-1.76933 5.307991-3.317495 7.740821s-5.307991 4.423326-11.500648 6.192656c-6.192657 1.548164-11.721814 2.211663-16.808639 2.211663-6.634989 0-10.615983-0.884665-12.164147-2.653995-1.548164-1.76933-2.432829-3.759827-3.096328-6.192657l2.432829-51.974082v-120.314471c-14.154644 8.846652-27.203456 17.250972-38.704103 24.991793l-20.126134 13.491144-8.846652 6.192657c-1.326998 0.221166-2.211663 0-3.096329-0.442333l-3.538661-8.183153-14.37581-31.626782-7.077321-13.491144c0.221166-0.442333 0.442333-1.105832 1.105831-1.548165l9.288985-2.211663 20.126134-5.529157c23.443629-6.413823 45.117927-12.827646 65.24406-19.683802v-108.37149h-47.550756c-3.096328 7.740821-9.067819 21.453132-17.91447 40.915767s-15.039309 32.069114-18.356804 37.819438l-6.413823 10.837149c-1.548164 2.653996-3.317495 3.759827-5.307991 3.538661-2.211663-0.221166-3.317495-0.884665-3.317495-2.432829 0-1.326998-0.221166-2.432829-0.221166-2.875162l5.307991-22.116631c3.096328-13.712311 5.529158-24.770626 7.298488-33.174946 1.76933-8.40432 3.980994-21.674298 6.63499-40.031101s4.644492-33.617279 5.529157-45.781426l1.769331-29.193952 0.442332-14.818143c0.442333-0.663499 1.105832-1.105832 1.548165-1.326998 0.442333-0.221166 3.317495 0.663499 8.404319 2.653996l43.569763 16.808639c3.096328 1.326998 4.865659 2.211663 5.307991 2.875162 0.442333 0.663499 0.884665 1.548164 0.884665 2.211663 0 0.884665-0.884665 1.990497-3.096328 3.317495l-9.067819 5.750324c-2.432829 7.298488-5.307991 15.260475-8.404319 23.885961-3.096328 8.625486-6.192657 17.472138-9.067819 26.982289h42.242765z m188.212527 38.040605V249.917927h-95.101512l-2.653996-0.884666c-3.096328-1.990497-4.865659-4.644492-5.307991-8.404319-0.442333-3.538661 2.211663-5.529158 7.961987-5.529158h95.101512V197.722678l-2.43283-40.915767c0.884665-0.442333 1.76933-0.663499 2.43283-0.663498 0.663499 0 3.538661 0.442333 8.846652 1.548164l50.647084 10.837149c2.432829 0.663499 3.759827 1.990497 3.759827 3.538661 0 1.76933-1.105832 3.759827-3.759827 6.192656l-11.721814 10.837149v46.223758h53.964579l12.827646-16.366306c4.644492-5.97149 7.740821-9.510151 9.067818-10.394817 1.548164-0.884665 3.759827-0.221166 6.856156 2.43283l31.847948 29.415118c2.875162 2.875162 4.20216 5.086825 3.759827 6.856156-0.221166 1.76933-1.990497 2.653996-5.086825 2.653996H1979.438445v80.504535h74.090713l17.029805-22.11663c3.538661-4.644492 5.97149-6.856156 7.077322-6.63499 1.105832 0.221166 2.875162 1.326998 5.529158 3.538661l32.511447 28.530454c2.211663 2.211663 3.538661 3.759827 4.20216 4.865659 0.663499 1.105832 0.884665 2.432829 0.663499 3.759827-0.221166 1.326998-1.76933 2.211663-4.865659 2.211663h-35.165443v0.221166H1816.438877c-4.20216 0-6.634989-2.432829-7.519655-7.077322-0.663499-4.865659 1.76933-7.077322 7.519655-7.077321h115.227646z m128.276458 87.803024l16.366306-21.453132c3.538661-4.644492 5.750324-6.856156 6.413823-6.856155 0.884665 0 2.875162 1.548164 6.192657 4.423326l32.511447 28.75162c3.096328 2.875162 4.423326 5.086825 3.980993 6.856155-0.442333 1.76933-1.76933 2.653996-3.980993 2.653996h-35.607776v0.221166h-47.993088v164.1054c0 3.980994-0.663499 7.961987-1.769331 11.500648s-5.307991 7.519654-12.606479 12.164147c-7.298488 4.644492-15.923974 7.740821-25.876458 9.731317-9.952484 1.76933-15.702808 3.096328-17.029806 3.538661-1.326998 0.442333-2.432829 0.884665-3.53866 0.884665s-2.432829-2.432829-3.980994-7.740821c-1.990497-5.750324-3.980994-10.615983-6.413823-14.154643-2.211663-3.538661-5.97149-7.519654-11.279482-11.500648-5.307991-3.980994-10.17365-7.077322-15.039308-9.288985l-12.827646-5.307991c-2.432829-0.884665-3.759827-1.990497-3.538661-3.538661 0-1.548164 0.663499-2.653996 1.76933-3.317495 1.105832-0.663499 2.211663-0.884665 3.538661-0.884665l11.058316 1.76933c7.519654 1.326998 19.241469 2.211663 34.72311 2.211663 8.625486 0.221166 13.491145-0.884665 14.37581-2.875162 0.884665-2.211663 1.548164-4.423326 1.548164-6.856155v-140.219438h-169.192225c-4.20216 0-6.856156-2.432829-7.519654-7.298489-0.884665-4.865659 1.76933-7.298488 7.519654-7.298488h169.192225V354.52959h1.105831l8.183154 2.432829 49.983585 11.721814c2.211663 0.442333 3.317495 1.548164 3.538661 2.875162 0.221166 1.326998-0.884665 3.096328-3.538661 5.307992l-12.385313 10.394816v31.405616h22.116631z m-200.819007 31.847948c6.413823 0.442333 19.683801 4.423326 39.809935 12.164147s29.857451 23.222462 29.193953 46.223758c-0.221166 5.529158-2.211663 11.500648-6.192657 18.135637-3.980994 6.634989-10.17365 9.952484-19.020302 10.17365-8.846652 0.221166-15.039309-1.548164-18.799136-5.307991-3.538661-3.096328-5.750324-7.298488-6.413823-12.385313-0.663499-5.086825-1.105832-11.500648-1.326998-19.020303-0.221166-7.519654-1.105832-14.596976-2.875162-21.453131-1.76933-6.634989-5.307991-12.385313-10.394816-17.029806-5.307991-4.644492-7.740821-7.740821-7.519655-8.846652-0.442333-1.76933 0.884665-2.653996 3.538661-2.653996zM2445.878186 305.651836h115.006479l12.827646-14.596976c3.759827-4.20216 6.413823-6.413823 8.40432-6.192657 1.76933 0 5.97149 2.211663 12.606479 6.413823l22.558963 15.039309c4.644492 3.317495 7.519654 5.750324 8.625486 6.856155 1.105832 1.326998 1.76933 2.211663 1.548165 2.653996 0 0.442333-0.663499 1.548164-1.769331 3.317495s-2.432829 3.096328-3.759827 4.423326l-11.058315 10.394816v201.040173c0 7.961987-3.980994 14.818143-11.721815 20.3473-7.740821 5.529158-16.587473 9.067819-26.539957 10.394817-9.731317 1.326998-16.587473 1.990497-20.3473 1.76933-1.326998 0-2.211663-0.221166-3.096328-0.442333-0.884665-0.221166-1.548164-0.884665-2.211663-1.76933-0.663499-0.884665-1.326998-3.096328-1.769331-6.634989-0.442333-3.538661-2.211663-8.40432-4.865658-14.818143-2.653996-6.192657-8.40432-10.837149-17.029806-13.933477l-18.356803-6.192657c-3.980994-1.326998-5.750324-2.875162-5.529158-5.086825 0-1.105832 0.663499-1.990497 1.76933-2.875162 1.326998-0.884665 2.875162-1.105832 4.865659-1.105831l23.885961 2.211663c14.37581 1.326998 23.222462 1.548164 26.761123 0.442332 3.538661-1.105832 5.750324-2.432829 6.856156-3.759827 1.105832-1.548164 1.76933-4.644492 1.76933-9.067818l0.221167-184.673867h-119.650972v229.570627l2.653995 60.599568c-0.442333 1.76933-1.105832 3.538661-2.211663 5.529158-1.105832 1.990497-4.865659 3.759827-11.500648 5.086825-6.634989 1.548164-12.827646 2.211663-18.577969 2.432829-5.750324 0-9.731317-0.663499-11.500648-2.211663-1.76933-1.548164-3.096328-3.317495-4.20216-5.750324l2.432829-61.7054V320.248812H2293.4946v241.292441c0 3.096328-3.096328 6.413823-9.510151 9.731317-6.192657 3.317495-13.048812 4.865659-20.126134 4.644493-6.413823 0-10.17365-0.884665-11.721814-2.653996-1.326998-1.76933-2.432829-3.980994-2.875162-6.413823l2.211663-58.166739v-167.64406l-2.211663-51.310583c1.326998-1.326998 2.211663-1.990497 2.653996-1.990497 0.442333 0 2.875162 0.663499 7.077322 2.432829l35.828941 15.481642h107.929158V218.954644c-50.425918 2.211663-102.621166 2.432829-156.806912 1.105831l-21.674298-0.442332c-6.856156 0-11.279482-0.221166-13.491144-0.884666-1.990497-0.442333-3.096328-1.990497-3.096329-4.423326 0-2.211663 1.76933-3.538661 5.086825-4.20216l11.500648-0.221166 20.126134-1.105831c52.195248-2.653996 109.034989-9.952484 170.740389-22.116631 61.484233-12.164147 102.621166-21.895464 123.189633-29.636285l23.885961-8.846653 3.096328-1.548164c0.663499 0 2.875162 1.326998 6.63499 4.20216l44.454427 35.828942c2.875162 2.432829 4.20216 4.644492 4.20216 6.192656 0 1.76933-1.326998 2.653996-3.538661 2.875162L2572.164147 201.261339l-55.733909 7.519655-56.839741 5.529157c-3.096328 4.865659-7.740821 9.731317-13.712311 15.039309v76.302376z" fill="" p-id="14980"></path><path d="M1452.620302 809.689849c0 16.587473-6.192657 28.972786-18.356803 37.598272-9.731317 6.192657-21.453132 9.067819-34.72311 9.067819h-85.149028v-153.93175h88.908855c12.164147 0 22.558963 3.096328 31.184449 9.067819 9.067819 7.298488 13.712311 17.693305 13.712311 31.184449 0 12.827646-4.20216 23.222462-12.827646 31.184449 11.279482 8.625486 17.250972 20.568467 17.250972 35.828942z m-26.539956-66.792225c0-12.164147-7.740821-18.356803-23.001296-18.356803h-66.792225v41.136933h58.609071c20.789633 0 31.184449-7.519654 31.18445-22.78013z m5.307991 66.792225c0-7.298488-2.653996-13.048812-8.183153-17.472138-4.20216-3.759827-9.510151-5.529158-15.481642-5.529158h-71.436717v47.550756h63.253564c21.231965 0.221166 31.847948-7.961987 31.847948-24.54946zM1548.164147 856.35594h-22.116631v-153.93175h21.895465v153.93175zM1759.820302 724.540821h-59.493736v131.815119h-21.010799v-131.815119h-59.493737v-21.895465h140.219439v21.895465zM1947.811663 856.35594h-57.724406c-48.214255 0-72.321382-25.655292-72.321382-76.965875s24.107127-76.965875 72.321382-76.965875h57.724406v21.895464h-57.724406c-15.260475 0-26.539957 2.653996-33.838445 8.183154-11.500648 8.625486-17.472138 24.107127-17.472138 46.66609 0 22.558963 5.750324 37.819438 17.472138 45.781426 7.298488 6.192657 18.57797 9.067819 33.838445 9.067819h57.724406v22.337797zM2153.275162 779.390065c0 22.558963-7.298488 41.800432-21.895464 57.724406-14.154644 15.923974-31.405616 23.885961-52.195249 23.885961-20.126134 0-37.598272-7.961987-52.195248-23.885961-14.154644-15.923974-21.010799-35.165443-21.010799-57.724406 0-22.558963 7.077322-41.800432 21.010799-57.724406 14.596976-15.923974 32.069114-23.885961 52.195248-23.885961 20.789633 0 38.040605 7.961987 52.195249 23.885961 14.596976 15.923974 21.895464 35.165443 21.895464 57.724406z m-21.895464 0c0-16.587473-4.865659-30.52095-14.596977-42.021598-10.394816-12.164147-22.558963-18.356803-36.713607-18.356804-14.596976 0-27.203456 6.192657-37.598272 18.356804-10.394816 11.500648-15.481641 25.655292-15.481641 42.021598s5.086825 30.52095 15.481641 42.021598c10.394816 11.500648 23.001296 17.472138 37.598272 17.472138 13.933477 0 26.31879-5.750324 36.713607-17.472138 9.731317-11.500648 14.596976-25.434125 14.596977-42.021598zM2247.934341 856.35594h-21.895464v-153.93175h21.895464v153.93175zM2447.868683 856.35594h-21.0108l-85.149028-123.631966v123.631966h-21.895464v-153.93175h24.770626l82.495033 117.218143v-117.218143h21.010799v153.93175z" fill="" p-id="14981"></path></svg>