<?xml version="1.0" standalone="no"?><!DOCTYPE svg PUBLIC "-//W3C//DTD SVG 1.1//EN" "http://www.w3.org/Graphics/SVG/1.1/DTD/svg11.dtd"><svg t="1547619983717" class="icon" style="" viewBox="0 0 1024 1024" version="1.1" xmlns="http://www.w3.org/2000/svg" p-id="2376" xmlns:xlink="http://www.w3.org/1999/xlink" width="200" height="200"><defs><style type="text/css"></style></defs><path d="M511.74950734 3.24939472c-279.04883027 0-507.37289562 228.32406534-507.37289562 507.37289562S232.70067706 1017.99518595 511.74950734 1017.99518595s507.37289562-228.32406534 507.37289561-507.37289561-228.32406534-507.37289562-507.37289561-507.37289562z" fill="#F59219" p-id="2377"></path><path d="M721.53711537 433.72104178c8.76724333-30.18436629 8.76724333-64.37661525-2.630173-97.0659082-27.42894697-79.15568255-108.46332451-122.74140649-181.73242942-97.31640086l-21.04138395 7.26428732-38.45062428-111.09349751c-1.12721701-3.25640465-3.25640465-5.51083865-6.26231666-7.01379465-3.13115834-1.50295599-6.26231666-1.62820233-9.39347499-0.62623167l-38.45062427 13.27611132c-3.25640465 1.12721701-5.51083865 3.25640465-7.01379466 6.26231666-1.50295599 3.13115834-1.62820233 6.26231666-0.62623166 9.39347497l38.45062426 111.09349751-61.12021057 21.16663031-38.45062428-111.09349751c-1.12721701-3.25640465-3.25640465-5.51083865-6.26231666-7.01379465-3.13115834-1.50295599-6.26231666-1.62820233-9.39347499-0.62623168l-38.45062427 13.27611133c-3.25640465 1.12721701-5.51083865 3.25640465-7.01379466 6.26231665-1.50295599 3.13115834-1.62820233 6.26231666-0.62623165 9.39347498l38.45062426 111.09349752-125.49682582 43.4604776c-3.25640465 1.12721701-5.51083865 3.25640465-7.01379467 6.26231665-1.50295599 3.13115834-1.62820233 6.26231666-0.62623164 9.393475l13.40135764 38.70111694c2.00394133 6.01182399 8.14101166 9.51872131 14.40332831 8.14101166 44.33720194-11.02167733 77.77797289 9.76921399 90.05211354 45.21392627l82.16159454 237.216555c11.02167733 31.81256861 3.63214365 62.87365925-31.43682961 78.77994355-5.00985333 2.00394133-7.89051899 7.64002633-7.139041 12.77512598l6.26231666 41.95752161c1.00197066 7.38953366 8.51675065 11.89840165 15.53054531 9.51872131l120.23647983-41.70702892 38.20013162 110.34201949c1.12721701 3.25640465 3.25640465 5.51083865 6.26231665 7.01379466 3.13115834 1.50295599 6.26231666 1.62820233 9.393475 0.62623166l38.45062426-13.27611131c3.25640465-1.12721701 5.51083865-3.25640465 7.01379467-6.26231665 1.50295599-3.13115834 1.62820233-6.26231666 0.62623167-9.39347499L563.3509966 778.02321162l61.12021058-21.16663031 38.45062428 111.09349753c1.12721701 3.25640465 3.25640465 5.51083865 6.26231665 7.01379465 3.13115834 1.50295599 6.26231666 1.62820233 9.393475 0.62623166l38.45062427-13.27611131c3.25640465-1.12721701 5.51083865-3.25640465 7.01379466-6.26231667 1.50295599-3.13115834 1.62820233-6.26231666 0.62623166-9.39347498l-38.45062428-111.09349751 51.22575026-17.7849793c72.51762689-25.17451295 110.21677318-108.96430985 83.03831888-187.24326807-17.15874763-48.7208236-55.35887926-83.41405787-98.94460319-96.81541553zM425.32953745 380.49135019l93.80950355-32.56404662c34.81848061-12.02364799 73.01861224 6.51280933 85.04226021 41.33128994 12.02364799 34.81848061-6.51280933 73.01861224-41.33128994 85.04226021l-93.80950355 32.56404662L425.32953745 380.49135019z m231.32997734 267.02518228l-124.36960882 43.0847386-43.71097028-126.12305748 124.36960884-43.0847386c34.81848061-12.02364799 73.01861224 6.51280933 85.0422602 41.33128994 12.27414065 34.44274163-6.01182399 72.64287323-41.33128994 84.79176754z m0 0" fill="#FFFFFF" p-id="2378"></path></svg>