<?xml version="1.0" standalone="no"?><!DOCTYPE svg PUBLIC "-//W3C//DTD SVG 1.1//EN" "http://www.w3.org/Graphics/SVG/1.1/DTD/svg11.dtd"><svg t="1551031499415" class="icon" style="" viewBox="0 0 1024 1024" version="1.1" xmlns="http://www.w3.org/2000/svg" p-id="7418" xmlns:xlink="http://www.w3.org/1999/xlink" width="32" height="32"><defs><style type="text/css"></style></defs><path d="M512 928l0 0c-229.75 0-416-186.25-416-416s186.25-416 416-416c229.75 0 416 186.25 416 416s-186.25 416-416 416zM512 896c212.077 0 384-171.923 384-384s-171.923-384-384-384c-212.077 0-384 171.923-384 384s171.923 384 384 384l0 0zM512 864c194.404 0 352-157.596 352-352s-157.596-352-352-352c-194.404 0-352 157.596-352 352s157.596 352 352 352l0 0zM579.882 579.882c-56.569 56.569-294.156 158.392-294.156 158.392s101.823-237.588 158.392-294.156c56.569-56.569 294.156-158.392 294.156-158.392s-101.823 237.588-158.392 294.156l0 0zM466.745 557.255c24.994 24.994 65.516 24.994 90.51 0s24.994-65.516 0-90.51c-24.994-24.994-65.516-24.994-90.51 0s-24.994 65.516 0 90.51l0 0z" p-id="7419" fill="#ffffff"></path></svg>