<?xml version="1.0" standalone="no"?><!DOCTYPE svg PUBLIC "-//W3C//DTD SVG 1.1//EN" "http://www.w3.org/Graphics/SVG/1.1/DTD/svg11.dtd"><svg t="1551031713673" class="icon" style="" viewBox="0 0 1024 1024" version="1.1" xmlns="http://www.w3.org/2000/svg" p-id="1159" xmlns:xlink="http://www.w3.org/1999/xlink" width="32" height="32"><defs><style type="text/css"></style></defs><path d="M511.088746 64.775282c-246.926856 0-447.091688 200.158692-447.091688 447.089641 0 246.934019 200.164832 447.090665 447.091688 447.090665 246.934019 0 447.087595-200.157669 447.087595-447.090665C958.17634 264.933975 758.022765 64.775282 511.088746 64.775282zM511.088746 899.344932c-213.647915 0-387.480009-173.829024-387.480009-387.478985 0-213.647915 173.832094-387.476939 387.480009-387.476939s387.475915 173.830047 387.475915 387.476939C898.565684 725.514885 724.736661 899.344932 511.088746 899.344932z" p-id="1160" fill="#a4e7ed"></path><path d="M287.543414 740.243331l338.941526-112.981191L739.465107 288.319591 400.522558 401.299759 287.543414 740.243331zM645.215536 382.570185 589.896626 548.525891 479.258807 437.889095 645.215536 382.570185zM547.74869 590.67485l-165.955706 55.31891 55.31891-165.955706L547.74869 590.67485z" p-id="1161" fill="#a4e7ed"></path></svg>