<?xml version="1.0" standalone="no"?><!DOCTYPE svg PUBLIC "-//W3C//DTD SVG 1.1//EN" "http://www.w3.org/Graphics/SVG/1.1/DTD/svg11.dtd"><svg t="1547622444496" class="icon" style="" viewBox="0 0 3246 1024" version="1.1" xmlns="http://www.w3.org/2000/svg" p-id="14323" xmlns:xlink="http://www.w3.org/1999/xlink" width="633.984375" height="200"><defs><style type="text/css"></style></defs><path d="M1142.272 666.624h1665.024v4.608H1142.272v-4.608z" p-id="14324"></path><path d="M526.848 55.808c-252.416 0-459.264 206.336-459.264 459.264s206.336 459.264 459.264 459.264 459.264-206.336 459.264-459.264c0-252.416-206.848-459.264-459.264-459.264z" fill="#FFFFFF" p-id="14325"></path><path d="M526.848 976.896c-61.952 0-122.368-12.288-179.2-36.352-54.784-23.552-104.448-56.832-146.944-99.328-42.496-42.496-75.776-91.648-99.328-146.944-24.064-56.832-36.352-117.248-36.352-179.712s12.288-122.368 36.352-179.2c23.552-54.784 56.832-104.448 99.328-146.944S292.352 112.64 347.648 89.088c56.832-24.064 117.248-36.352 179.2-36.352s122.368 12.288 179.2 36.352c54.784 23.552 104.448 56.832 146.944 99.328 42.496 42.496 75.776 91.648 99.328 146.944 24.064 56.832 36.352 117.248 36.352 179.2s-12.288 122.368-36.352 179.2c-23.552 54.784-56.832 104.448-99.328 146.944-42.496 42.496-91.648 75.776-146.944 99.328-56.832 24.576-117.248 36.864-179.2 36.864z m0-918.016c-61.44 0-120.832 12.288-177.152 35.84C295.424 117.76 246.272 151.04 204.8 192.512 162.816 235.008 129.536 284.16 107.008 337.92c-24.064 56.32-35.84 115.712-35.84 177.152s12.288 120.832 35.84 177.152c23.04 54.272 56.32 103.424 97.792 144.896 41.984 41.984 91.136 74.752 144.896 97.792 56.32 24.064 115.712 35.84 177.152 35.84s120.832-12.288 177.152-35.84c54.272-23.04 103.424-56.32 144.896-97.792 41.984-41.984 74.752-91.136 97.792-144.896 24.064-56.32 35.84-115.712 35.84-177.152s-12.288-120.832-35.84-177.152c-23.04-54.272-56.32-103.424-97.792-144.896-41.984-41.984-91.136-74.752-144.896-97.792-56.32-24.064-116.224-36.352-177.152-36.352z" fill="#FF6D65" p-id="14326"></path><path d="M2398.208 864.256h-57.856c-48.128 0-72.192-25.6-72.192-76.8s24.064-76.8 72.192-76.8h57.856v22.016h-57.856c-15.36 0-26.624 2.56-33.792 8.192-11.264 8.704-17.408 24.064-17.408 46.592 0 22.528 5.632 37.888 17.408 45.568 7.168 6.144 18.432 9.216 33.792 9.216h57.856v22.016z m161.28-76.8c0 22.528-7.168 41.984-22.016 57.856-14.336 15.872-31.232 24.064-52.224 24.064-19.968 0-37.376-8.192-52.224-24.064-14.336-15.872-20.992-35.328-20.992-57.856s7.168-41.984 20.992-57.856c14.848-15.872 32.256-24.064 52.224-24.064 20.992 0 37.888 8.192 52.224 24.064 14.848 15.872 22.016 35.328 22.016 57.856z m-22.016 0c0-16.384-5.12-30.72-14.848-41.984-10.24-12.288-22.528-18.432-36.864-18.432-14.848 0-27.136 6.144-37.376 18.432-10.24 11.264-15.36 25.6-15.36 41.984s5.12 30.72 15.36 41.984c10.24 11.264 23.04 17.408 37.376 17.408 13.824 0 26.112-5.632 36.864-17.408 10.24-11.264 14.848-25.6 14.848-41.984z m72.192 76.8h-22.016v-154.112h22.016v154.112z m155.648 0H2744.32l-84.992-123.392v123.392h-22.016v-154.112h24.576l82.432 117.248v-117.248h20.992v154.112z" p-id="14327"></path><path d="M527.872 573.952l-75.264-76.8h-42.496l35.328 86.016 82.432 86.528 81.92-86.528 35.328-86.016h-42.496zM713.216 208.384H340.992L172.032 430.08l84.992-0.512 97.792-131.072L434.176 378.88 373.76 429.568h102.912l50.688-42.496 50.688 42.496H680.96l-59.904-51.2 79.36-80.384 97.792 131.072 84.992 0.512-169.984-221.184z m-135.168 134.144l-51.2-43.52-51.2 43.52-67.072-68.096h237.056l-67.584 68.096z" fill="#FF6D65" p-id="14328"></path><path d="M781.312 497.152l-163.328 196.096 71.68-196.096h-56.832l-105.984 290.816-105.984-290.816H364.032l71.68 196.096-162.816-196.096H186.88l339.968 411.648 340.48-411.648z" fill="#FFA247" p-id="14329"></path><path d="M1445.376 596.48c61.44-2.56 67.072-14.336 67.072-67.584V259.072c0-52.736-5.632-64.512-60.928-67.072v-10.24H1648.64c81.92 0 147.456 13.312 188.928 53.248 35.84 33.792 54.784 81.408 54.784 140.288 0 179.2-155.648 230.4-291.328 230.4h-155.648v-9.216z m101.888-70.144c0 52.224 10.752 62.976 78.336 62.976 165.888 0 221.184-107.52 221.184-197.632 0-77.312-31.232-146.944-94.72-176.64-30.72-11.264-73.728-19.456-139.264-19.456-34.304 0-53.248 0.512-59.392 1.536-3.584 0-6.144 0.512-6.144 12.8v316.416zM2536.96 482.816c-9.728 35.84-25.088 91.136-35.328 114.176-21.504 3.584-85.504 18.944-136.192 18.944-177.152 0-253.44-113.664-252.416-216.064 0-135.168 113.664-228.352 266.752-228.352 66.56 0 109.056 14.848 128 18.944 5.632 33.792 8.704 66.56 12.8 104.96l-11.264 2.048c-18.944-78.336-65.024-109.056-153.088-109.056-134.144 0-194.048 88.576-194.048 194.048 0 131.584 78.336 216.576 198.144 216.576 94.208 0 132.608-50.688 165.376-120.32l11.264 4.096z" p-id="14330"></path><path d="M1326.592 785.408c0 50.176-23.552 75.776-71.168 75.776h-69.12v-151.04h69.12c47.616 0 71.168 25.088 71.168 75.264z m-20.992 0c0-22.016-5.632-37.376-16.384-46.08-7.168-5.632-18.432-8.192-34.304-8.192h-47.616V839.68h47.616c14.848 0 26.624-3.072 34.304-9.216 11.264-7.68 16.384-22.528 16.384-45.056zM1376.768 861.184h-21.504v-151.04h21.504v151.04zM1567.744 861.184h-23.552l-16.384-35.84h-86.528l-14.336 35.84h-23.552l62.976-151.04h16.384c7.68 0 13.824 2.048 17.92 5.632 3.584 3.072 7.168 8.704 10.752 16.896l56.32 128.512z m-48.64-57.344l-28.672-66.56c-2.048-4.096-4.096-6.144-7.168-6.144h-2.048l-30.72 72.704h68.608zM1744.896 861.184h-21.504v-121.344l-52.224 121.344h-16.896l-51.2-121.344v121.344h-21.504v-151.04h31.744l50.176 117.248 49.664-117.248h32.256v151.04zM1903.616 785.408c0 22.016-7.168 40.96-21.504 56.832-13.824 15.36-30.72 23.552-51.2 23.552-19.968 0-36.864-7.68-51.2-23.552-13.824-15.36-20.48-34.304-20.48-56.832 0-22.016 6.656-40.96 20.48-56.832 14.336-15.36 31.744-23.552 51.2-23.552 20.48 0 37.376 7.68 51.2 23.552 14.336 15.872 21.504 34.816 21.504 56.832z m-22.016 0c0-16.384-4.608-30.208-14.336-41.472-10.24-11.776-22.016-17.92-35.84-17.92-14.336 0-26.624 6.144-36.864 17.92-10.24 11.264-15.36 25.088-15.36 41.472s5.12 30.208 15.36 41.472c10.24 11.264 22.528 16.896 36.864 16.896 13.824 0 25.6-5.632 35.84-16.896 9.728-11.264 14.336-25.088 14.336-41.472zM2042.88 861.184h-20.48l-83.456-121.344v121.344h-21.504v-151.04h24.064l80.896 115.2v-115.2h20.48v151.04zM2196.992 785.408c0 50.176-23.552 75.776-71.168 75.776h-69.12v-151.04h69.12c47.104 0 71.168 25.088 71.168 75.264z m-20.992 0c0-22.016-5.632-37.376-16.384-46.08-7.168-5.632-18.432-8.192-34.304-8.192h-47.616V839.68h47.616c14.848 0 26.624-3.072 34.304-9.216 11.264-7.68 16.384-22.528 16.384-45.056z" p-id="14331"></path></svg>