<?xml version="1.0" standalone="no"?><!DOCTYPE svg PUBLIC "-//W3C//DTD SVG 1.1//EN" "http://www.w3.org/Graphics/SVG/1.1/DTD/svg11.dtd"><svg t="1547619959063" class="icon" style="" viewBox="0 0 1024 1024" version="1.1" xmlns="http://www.w3.org/2000/svg" p-id="1923" xmlns:xlink="http://www.w3.org/1999/xlink" width="200" height="200"><defs><style type="text/css"></style></defs><path d="M512 4.608C233.472 4.608 6.144 231.936 6.144 510.464s227.84 505.856 505.856 505.856 505.856-227.84 505.856-505.856S790.528 4.608 512 4.608z" fill="#FFFFFF" p-id="1924"></path><path d="M512 1019.392c-68.608 0-134.656-13.824-197.632-40.448-60.416-25.6-115.2-62.464-161.792-109.056s-83.456-101.376-109.056-161.792C16.896 645.632 3.072 578.56 3.072 509.952S16.896 375.296 43.52 312.32c25.6-60.416 62.464-115.2 109.056-161.792S253.44 67.584 314.368 41.984C376.832 15.36 443.392 1.536 512 1.536s134.656 13.824 197.632 40.448c60.416 25.6 115.2 62.464 161.792 109.056 46.592 46.592 83.456 101.376 109.056 161.792 26.624 62.464 40.448 129.024 40.448 197.632s-13.824 134.656-40.448 197.632c-25.6 60.416-62.464 115.2-109.056 161.792-46.592 46.592-101.376 83.456-161.792 109.056-62.976 27.136-129.536 40.448-197.632 40.448z m0-1011.2c-67.584 0-133.12 13.312-195.072 39.936-59.904 25.6-113.664 61.952-159.744 108.032-46.08 46.08-82.432 100.352-108.032 159.744-26.112 61.44-39.936 127.488-39.936 195.072 0 67.584 13.312 133.12 39.936 195.072 25.6 59.904 61.952 113.664 108.032 159.744s100.352 82.432 159.744 108.032c61.952 26.112 128 39.936 195.072 39.936 67.584 0 133.12-13.312 195.072-39.936 59.904-25.6 113.664-61.952 159.744-108.032 46.08-46.08 82.432-100.352 108.032-159.744 26.112-61.952 39.936-127.488 39.936-195.072 0-67.584-13.312-133.12-39.936-195.072-25.6-59.904-61.952-113.664-108.032-159.744-46.08-46.08-100.352-82.432-159.744-108.032C645.12 21.504 579.584 8.192 512 8.192z" fill="#FF6D65" p-id="1925"></path><path d="M513.024 575.488L430.08 490.496h-46.592l38.912 95.232 90.624 95.232 90.624-95.232 38.912-95.232h-47.104zM717.312 172.544H307.2L120.832 417.28l93.184-0.512 107.52-144.896L409.6 359.936l-66.048 56.32h113.152l55.808-47.104 55.808 47.104h112.64l-66.048-56.32L702.464 271.36l107.52 144.896 93.184 0.512-185.856-244.224zM568.32 320l-56.32-47.616-56.32 47.616-73.728-74.752H642.56L568.32 320z" fill="#FF6D65" p-id="1926"></path><path d="M792.064 490.496l-179.2 216.576 78.848-216.576h-62.464L512 811.008 395.264 490.496H332.8l78.848 216.576-179.2-216.576H137.216l374.784 453.632 374.784-453.632z" fill="#FFA247" p-id="1927"></path></svg>