<?xml version="1.0" standalone="no"?><!DOCTYPE svg PUBLIC "-//W3C//DTD SVG 1.1//EN" "http://www.w3.org/Graphics/SVG/1.1/DTD/svg11.dtd"><svg t="1547622461124" class="icon" style="" viewBox="0 0 3339 1024" version="1.1" xmlns="http://www.w3.org/2000/svg" p-id="14843" xmlns:xlink="http://www.w3.org/1999/xlink" width="652.1484375" height="200"><defs><style type="text/css"></style></defs><path d="M1132.37149 666.816415h2116.561555v4.423326H1132.37149z" fill="" p-id="14844"></path><path d="M517.086825 53.079914C263.187905 53.079914 55.07041 260.976242 55.07041 515.096328s207.896328 461.795248 461.795249 461.795249c253.89892 0 461.795248-207.896328 461.795248-461.795249C978.882073 261.418575 771.206911 53.079914 517.086825 53.079914z" fill="#009F42" p-id="14845"></path><path d="M517.307991 132.036285v285.525702l237.090281 103.063499z" fill="#DDDDDD" p-id="14846"></path><path d="M517.307991 132.036285v285.525702l-237.09028 103.063499z" fill="#FFFFFF" p-id="14847"></path><path d="M517.307991 417.561987l237.090281 103.063499-237.090281 143.758099-237.09028-144.200432z" fill="#CCCCCC" p-id="14848"></path><path d="M280.438877 561.09892L517.529158 901.2527v-199.492009z" fill="#FFFFFF" p-id="14849"></path><path d="M754.398272 561.09892L517.307991 901.2527v-199.492009z" fill="#DDDDDD" p-id="14850"></path><path d="M518.634989 417.783153l236.869115 103.063499-236.869115 143.7581z" fill="#B7B7B7" p-id="14851"></path><path d="M1196.509719 211.877322v293.487689c25.434125-14.154644 44.675594-24.991793 57.282074-32.511447l88.908855-54.185745 29.857451-17.693305c2.211663-1.326998 3.759827-1.105832 4.865659 0.442333 1.105832 1.548164 1.76933 2.875162 1.548164 4.202159 0 1.326998-0.663499 2.432829-1.76933 3.317495l-31.184449 25.212959c-1.105832 0.884665-22.78013 19.462635-65.022895 55.955076-42.242765 36.492441-67.234557 58.387905-75.41771 65.907559l-25.212959 24.54946c-6.413823 5.97149-10.17365 9.067819-11.058316 9.067819-1.105832 0-3.096328-2.211663-6.413822-7.077322l-28.088121-39.367603c-1.326998-1.76933-2.211663-3.096328-2.211663-3.759827v-1.105832-0.884665c0-0.442333 0.442333-0.884665 1.105831-1.76933l10.615983-11.721814c3.980994-5.750324 5.750324-13.712311 5.750324-24.54946V252.793089l-2.875162-77.85054c1.105832-0.663499 1.76933-1.105832 2.432829-1.105832 0.442333 0 2.211663 0.221166 5.307992 1.105832l51.752915 15.702807c5.529158 1.76933 8.40432 3.980994 8.40432 6.413823 0.221166 2.432829-2.211663 5.307991-7.519654 8.183154l-11.058316 6.634989z m313.171491-17.472138c-1.105832 22.337797-2.211663 47.993089-3.317495 76.744708-1.105832 28.972786-2.211663 51.089417-3.096328 66.792225-0.884665 15.702808-2.653996 33.396112-5.529158 53.079913-2.653996 19.683801-5.97149 35.828942-9.731318 48.656588l-9.731317 34.059611c6.634989 4.423326 11.500648 7.740821 14.818143 9.731317l35.828941 22.116631c29.415119 19.020302 44.012095 37.377106 43.790929 54.849244-0.221166 17.472138-3.538661 29.857451-9.510151 37.377106-6.192657 7.519654-12.606479 11.058315-19.683802 10.837149-7.077322-0.221166-12.385313-2.875162-16.366306-7.740821-3.980994-4.865659-6.634989-11.279482-7.961987-19.241468l-4.20216-26.539957c-2.653996-13.269978-7.077322-25.434125-13.269979-36.271274-6.192657-10.837149-15.481641-22.116631-27.866954-33.617279-5.529158 9.731317-13.269978 22.337797-23.664795 37.819438-10.17365 15.481641-28.309287 30.52095-53.964579 45.117927-25.655292 14.596976-44.675594 24.54946-57.060907 29.415119-12.385313 5.086825-25.876458 9.952484-40.6946 15.039309-14.818143 4.865659-24.54946 7.961987-28.972787 8.846652l-21.674298 4.865659c-2.211663 0.442333-3.759827 0.442333-4.865658 0s-1.76933-1.105832-1.990497-1.990497-0.442333-1.76933-0.663499-3.096328c-0.221166-1.326998 1.326998-2.432829 4.865659-3.759828l18.799136-6.634989c7.740821-2.653996 19.020302-7.298488 34.059611-13.712311 14.818143-6.634989 29.636285-14.154644 44.012095-23.222462 14.596976-8.846652 30.52095-22.558963 47.993089-40.915767 17.472138-18.356803 30.742117-37.377106 39.809935-57.060907 8.846652-19.683801 15.702808-42.242765 20.126134-68.119222 4.423326-25.655292 7.519654-53.522246 9.067818-83.600864 1.548164-30.078618 2.211663-53.079914 2.43283-69.225054 0-15.923974 0-27.866955-0.221167-35.386609l-1.105831-42.685098-0.442333-17.693304c0.663499-0.884665 1.326998-1.326998 1.769331-1.548164 0.442333-0.221166 2.875162 0.442333 7.519654 1.548164l47.108423 13.048812c8.40432 2.432829 12.606479 4.865659 12.164147 7.519654-0.442333 2.432829-2.432829 4.865659-5.750324 6.856156l-12.827645 7.740821z m-239.301944-10.615983c-1.105832-1.76933-1.548164-3.538661-1.326998-5.307991 0.221166-1.76933 1.990497-3.096328 5.529157-3.759828 1.76933-0.221166 9.067819 2.211663 21.895465 7.077322 12.827646 4.865659 25.434125 12.385313 37.819438 22.78013 12.385313 10.394816 20.3473 19.241469 24.54946 26.761123s5.97149 15.481641 6.192657 24.54946c0 8.846652-1.326998 15.923974-4.20216 21.453132-3.980994 7.740821-10.17365 13.048812-18.356803 15.702807-8.183153 2.653996-15.923974 1.105832-23.001296-4.644492-5.307991-3.980994-8.625486-8.846652-9.952484-14.37581-1.326998-5.529158-2.875162-17.029806-4.423326-34.501944S1296.034557 207.011663 1282.764579 194.847516l-12.385313-11.058315zM1842.315335 309.190497c0.221166-10.615983 0.442333-18.57797 0.442332-24.107128l0.884666-23.885961c0-5.307991 0-15.039309 0.221166-29.193952 0-14.154644 0-23.001296-0.221166-26.98229l-1.326998-25.655291-2.211663-23.664795c1.326998-1.548164 2.432829-2.432829 3.759827-2.653996 1.326998-0.221166 4.20216 0.221166 9.067818 1.105832l57.282074 11.500648c7.519654 1.548164 10.394816 3.759827 8.846652 6.634989-1.548164 2.875162-3.538661 5.307991-6.192656 7.077322l-12.164147 9.510151c-0.663499 15.702808-1.105832 27.645788-1.326998 35.386609l-1.548164 45.781425c-0.663499 15.481641-1.548164 28.75162-2.43283 39.367603h131.815119l24.54946-28.75162c3.759827-4.423326 6.856156-6.634989 9.510151-6.856155 1.76933 0 3.759827 0.884665 6.192657 2.653995l39.367603 32.95378c2.211663 2.211663 3.980994 3.980994 4.865658 5.750324 0.884665 1.76933 1.548164 3.096328 1.548164 3.759827 0 0.884665-0.663499 1.76933-2.432829 2.875162s-3.980994 1.548164-6.634989 1.548164h-187.770194c1.326998 8.625486 2.653996 15.481641 3.759827 20.568467s4.865659 15.923974 11.058315 32.511447c6.413823 16.587473 12.606479 30.742117 18.356804 42.021598 5.97149 11.279482 14.37581 24.54946 25.655291 39.588769 11.058315 15.039309 21.674298 28.088121 31.847948 38.704104 10.17365 10.837149 25.876458 24.107127 47.550756 40.031101 21.674298 15.923974 41.800432 26.31879 60.599568 31.18445l15.923974 4.202159c3.096328 1.105832 4.865659 2.875162 4.865659 5.307992 0 2.432829-1.990497 4.20216-6.413823 5.086825l-14.37581 3.096328c-6.634989 1.548164-12.606479 3.759827-18.135637 6.413823-5.529158 2.653996-11.500648 8.183153-17.693304 16.14514-6.192657 7.961987-9.952484 11.942981-11.058316 11.721815-5.307991-0.442333-17.693305-8.625486-36.934773-24.770627-19.241469-16.14514-36.492441-33.838445-51.531749-53.30108-15.039309-19.462635-26.539957-37.598272-34.501944-53.964578-7.961987-16.587473-14.818143-34.501944-21.010799-53.743413-6.192657-19.241469-10.394816-36.934773-12.827646-53.079914l-4.423326-34.72311c-1.548164-10.615983-2.432829-16.366307-2.43283-17.029805l-0.442332-5.750324h-8.846653c-0.442333 2.653996-0.442333 4.644492-0.442332 5.750324l-2.211663 25.434125c-1.76933 19.020302-4.423326 36.492441-8.183154 52.195248-3.538661 15.702808-12.385313 39.367603-26.31879 70.773218-13.933477 31.626782-41.579266 60.157235-82.937365 85.591361s-74.533045 43.569762-99.082506 53.964579l-24.54946 10.394816c-4.20216 1.76933-6.856156 1.990497-7.519654 0.884666-0.884665-1.326998-1.105832-2.211663-1.105832-3.096329s0-1.548164 0.221167-2.432829c0-0.884665 1.326998-1.990497 3.538661-3.538661l21.231965-11.942981c25.655292-14.37581 48.214255-29.857451 67.234557-46.444924 19.241469-16.587473 35.386609-33.396112 48.435421-50.425918 13.048812-17.029806 23.443629-35.386609 31.405616-54.628078 7.740821-19.241469 13.933477-39.588769 18.356804-60.820734 4.423326-21.231965 7.298488-45.339093 8.625485-72.100216h-186.443196c-4.423326 0-6.634989-2.432829-6.856156-7.077322 0-4.644492 2.211663-7.077322 6.856156-7.077322H1842.315335z m23.222462 202.588337L1860.008639 502.047516c-0.884665-1.326998-1.326998-2.875162-1.105831-4.423326 0-1.548164 1.105832-2.432829 3.317494-2.875162 2.432829-0.221166 15.260475 5.97149 38.040605 18.799136 23.001296 12.606479 34.059611 30.078618 33.617279 52.416415-0.442333 9.067819-3.759827 17.029806-9.952484 24.328294-6.192657 7.077322-14.37581 10.615983-24.107127 10.394816-9.067819 0-15.260475-3.096328-19.020303-9.067819-3.538661-5.97149-5.750324-10.394816-6.192656-13.048812l2.653995-36.713607c-0.442333-1.76933-1.105832-4.644492-1.990497-8.625486-0.884665-3.980994-1.990497-6.856156-2.875162-8.846652-0.884665-1.548164-3.317495-5.97149-6.856155-12.606479zM2238.42419 315.161987l68.561555 9.067819c17.693305-24.54946 28.972786-40.473434 33.396112-48.435422l7.740821-13.048812 1.548164-3.759827c0.221166-0.442333 0.442333-0.663499 0.884666-0.663499s2.653996 1.326998 6.856155 4.423326l41.800432 31.626782c0.442333 0.663499 1.326998 1.76933 2.211663 2.875162 0.884665 1.326998 1.326998 2.432829 1.548164 3.538661 0 1.105832-2.432829 1.990497-7.74082 2.875162l-13.048813 1.769331-128.276457 133.363282c22.558963-1.990497 58.166739-4.865659 106.602159-8.846652l20.126134-1.548164c1.548164 0 2.875162 0.442333 3.759827 1.105832 0.884665 0.663499 1.548164 1.548164 1.548165 2.432829-0.221166 1.548164-1.326998 2.653996-3.759828 3.538661l-21.231965 6.634989c-41.136933 12.827646-75.638877 24.328294-103.284665 34.280778l-30.299784 10.837149-8.40432 3.096328c-0.442333-0.221166-0.884665-1.326998-1.548164-3.096328l-16.366307-42.021599-1.105831-2.653995c-0.221166-0.221166-0.221166-0.442333 0-0.442333 0-0.663499 0.442333-1.326998 1.548164-1.548164l10.394816-3.759827c7.298488-2.653996 15.260475-8.846652 23.885961-18.57797l34.280778-45.117927 27.203456-35.165442c-28.75162 3.759827-49.541253 7.077322-62.368899 9.731317l-21.010799 4.865659c-7.519654 1.76933-11.279482 2.653996-10.837149 2.875162 0.442333 0 0.442333-0.663499 0.221166-2.211663l-0.221166-2.211663-9.510151-33.396113c-0.663499-2.653996-1.105832-4.20216-1.105832-4.423326 0-0.442333 1.326998-0.884665 3.759827-1.76933l6.856156-2.211663c7.519654-2.211663 15.702808-11.058315 24.991793-26.761123 9.288985-15.702808 18.356803-32.732613 27.424622-50.868251s14.818143-30.52095 17.472138-36.713607l11.500648-27.203456 2.653996-7.519654c0.442333-0.442333 0.663499-0.663499 1.105831-0.884665l2.653996 1.76933 46.223758 28.75162c2.211663 1.326998 3.096328 2.653996 3.096328 3.980994-0.221166 1.990497-1.990497 3.317495-5.307991 4.202159l-13.491145 3.759828-82.937365 113.458315z m4.865659 288.62203l-13.048812 7.519655c-4.20216 2.432829-6.413823 3.759827-6.413823 3.538661 0 0-0.663499-1.76933-1.990497-5.086825l-18.135637-45.117927-2.432829-4.865659c0-0.442333 0.221166-0.663499 0.884665-1.105831l4.20216-0.442333 25.212959-4.423326c3.317495-0.442333 24.54946-5.086825 63.47473-13.712311l70.330885-15.702808 19.683801-5.086825c3.980994 0.221166 6.192657 1.105832 6.192657 3.096328 0 1.76933-1.326998 3.317495-4.20216 4.644493l-15.702808 7.740821c-30.963283 15.039309-73.869546 38.040605-128.055291 69.003887z m280.881209-10.17365h68.119223l23.885961-28.972786c2.211663-2.653996 3.538661-3.980994 4.423326-4.20216 0.884665 0 2.653996 0.884665 5.086825 3.096328l40.915767 37.377106c1.326998 1.326998 2.211663 2.653996 2.211663 3.980994-0.442333 1.76933-2.211663 2.653996-5.529158 2.653995h-322.681641l-5.307992-2.432829c-1.326998-1.990497-1.76933-4.423326-1.76933-7.298488 0-2.875162 1.990497-4.423326 5.97149-4.423326h138.450108v-136.017279h-108.813823c-2.211663-0.442333-3.759827-1.326998-4.865658-2.211663-1.105832-0.884665-1.548164-3.096328-1.548165-6.856155 0-3.538661 2.211663-5.529158 6.192657-5.529158h208.559827l18.135637-22.337797c1.326998-1.76933 2.653996-2.653996 3.538661-2.432829 0.884665 0 2.653996 1.105832 5.086825 3.096328l34.72311 30.078618c0.221166 0.442333 0.663499 0.884665 1.105832 1.76933 0.663499 0.884665 0.884665 1.548164 1.105832 1.769331 0 0.442333-0.442333 0.884665-1.548165 1.548164-1.105832 0.663499-2.432829 0.884665-3.980993 0.884665H2534.565875c-0.884665 3.538661-1.76933 5.750324-2.43283 6.634989-0.663499 0.884665-3.317495 2.432829-7.961987 4.423326v125.401296z m11.058316-379.742548H2388.596112c-4.20216 0-6.856156-2.432829-7.519654-7.077322-0.884665-4.865659 1.76933-7.077322 7.519654-7.077322h149.066091l14.818143-18.799136c1.326998-1.548164 2.211663-2.211663 3.096328-2.211663 0.884665 0.221166 1.76933 0.442333 3.096328 1.105831l47.771922 31.18445c1.326998 1.105832 2.211663 2.211663 2.211663 3.096328-0.221166 1.548164-1.76933 3.096328-4.423326 4.20216l-17.693304 7.74082c-15.702808 23.443629-25.212959 36.934773-28.088121 40.694601l-38.704104 47.771922c35.165443 7.298488 62.811231 13.933477 83.600864 20.3473 20.568467 6.192657 36.271274 15.702808 46.887257 28.088121s15.260475 24.991793 14.154644 37.598272c-1.326998 12.606479-7.740821 19.462635-19.241469 20.347301-11.500648 1.105832-22.78013-5.307991-33.396112-18.799136l-11.942981-16.366307c-21.453132-28.75162-50.204752-49.983585-86.254859-63.917063-25.655292 23.001296-50.204752 40.915767-73.427214 53.964579-23.222462 12.827646-46.223758 23.664795-69.003888 31.847948l-19.462635 7.077322c-1.990497 0.663499-3.538661 0.884665-5.086825 0.221166-1.326998-0.442333-1.990497-1.326998-1.76933-2.653995 0-1.326998 1.105832-2.653996 3.53866-3.980994l17.472139-9.510151c28.309287-15.481641 58.166739-38.92527 89.351188-70.773218 30.52095-32.069114 57.50324-69.888553 80.062203-114.121814zM2805.936933 471.526566v-196.39568l-1.548164-53.964579c0.663499-0.442333 1.105832-0.884665 1.548164-0.884666 0.221166 0 2.432829 0.884665 6.192657 3.096329l40.473434 22.780129h51.089417V204.357667l-1.548165-51.310583c1.326998-0.884665 2.211663-1.326998 2.875162-1.548164 0.663499-0.221166 3.538661 0.442333 8.625486 1.548164l42.021599 10.394817c1.76933 0.442333 2.653996 1.548164 2.875162 2.875162 0 1.326998-0.884665 3.096328-2.875162 4.865658l-9.510152 9.067819v65.907559h51.310584V198.82851l-1.548165-46.223758c0.442333-0.884665 1.105832-1.548164 1.548165-1.769331l6.413823 1.548164 44.675593 8.40432c3.980994 0.884665 5.97149 1.990497 5.971491 3.538661 0 1.548164-0.884665 3.096328-2.875162 4.644492l-13.048812 11.058316v65.907559h45.117926l16.145141-24.54946c1.548164-2.432829 3.096328-3.759827 4.202159-3.759827 1.105832 0.221166 2.432829 0.663499 3.980994 1.548164l45.781425 31.847948c1.105832 0.884665 1.76933 1.76933 2.43283 2.432829s0.663499 1.548164 0.663499 2.211664c0 0.663499-1.76933 2.432829-4.865659 5.086825l-16.14514 14.154643v196.395681h21.674298l23.885961-28.75162c2.653996-3.096328 4.423326-4.865659 5.086825-4.865659 0.884665 0 2.211663 0.663499 4.20216 2.432829l33.396112 36.050108c3.317495 3.759827 5.086825 6.192657 4.865659 7.298488 0 1.105832-1.990497 1.76933-5.971491 1.769331h-490.104535c-3.096328-0.221166-5.307991-0.663499-6.634989-1.548164-1.326998-0.884665-1.990497-3.096328-1.990497-6.856156 0-3.759827 2.211663-5.529158 6.856155-5.529157h74.754212z m122.083801 78.071706c-46.666091 25.655292-77.408207 42.242765-92.005183 49.541253-14.596976 7.298488-38.261771 16.808639-70.773218 28.309287l-16.366307 5.750324c-1.326998 0.442333-2.432829 0.663499-3.538661 0.221166-1.105832-0.442333-1.76933-0.884665-2.211663-1.548164-0.442333-0.663499-0.442333-1.548164-0.442333-2.653995s1.105832-2.211663 2.875162-3.317495l14.154644-7.961987c6.634989-3.759827 18.135637-11.279482 34.280777-23.001296 16.14514-11.500648 31.405616-23.885961 45.781426-36.713607 14.37581-12.827646 24.328294-22.337797 29.857451-28.530453l20.126134-22.116631 2.875162-4.20216c0.442333-0.442333 1.105832-0.884665 1.548164-0.884665 0.442333 0 1.990497 0.663499 4.644493 2.432829l47.550756 34.501944c2.875162 2.211663 4.20216 4.20216 4.20216 5.97149 0 1.76933-2.432829 2.875162-7.077322 3.096329l-15.481642 1.105831z m-24.54946-197.722678v-91.341685h-51.089417v91.341685h51.089417z m0 119.650972v-106.159827h-51.089417v106.159827h51.089417z m93.332182-119.650972v-91.341685h-51.310583v91.341685h51.310583z m0 119.650972v-106.159827h-51.310583v106.159827h51.310583z m15.923974 41.800432c0.442333-0.442333 1.105832-0.663499 2.211663-0.663499s12.827646 1.76933 35.607775 5.750324c22.558963 3.980994 42.021598 9.952484 57.945573 17.693304 15.923974 7.740821 31.184449 17.029806 45.339092 28.088121 14.154644 10.837149 20.126134 24.770626 17.693305 41.3581-2.432829 16.587473-9.288985 25.212959-20.3473 25.655291-11.279482 0.442333-20.3473-2.432829-27.203456-8.404319-4.423326-3.538661-10.394816-10.837149-17.693304-21.895465s-16.808639-22.78013-28.088121-35.386609c-11.500648-12.385313-24.328294-22.78013-38.92527-30.963283-14.596976-8.183153-22.78013-12.606479-24.770627-13.491144-1.990497-0.884665-3.096328-1.76933-3.538661-2.43283-0.442333-0.663499-0.442333-1.548164-0.442332-2.432829 0.442333-1.105832 1.105832-1.990497 2.211663-2.875162z m75.196544-161.451404v-91.341685h-49.983585v91.341685h49.983585z m0 119.650972v-106.159827h-49.983585v106.159827h49.983585z" fill="" p-id="14852"></path><path d="M1257.330454 855.250108h-55.070411c-21.453132 0-36.713607-4.644492-45.339093-13.933477-8.846652-9.952484-13.048812-26.31879-13.048812-48.877754v-83.82203h113.679482v21.010799h-93.553348V769.658747h88.245357v20.126134h-88.245357v2.653996c0 16.366307 2.875162 27.424622 8.846652 33.174946 5.307991 5.750324 15.039309 8.846652 29.636286 8.846652h55.07041v20.789633zM1405.069546 729.406479h-56.83974v125.843629h-20.126134v-125.843629h-56.839741v-21.010799h133.584449v21.010799zM1552.808639 855.250108h-21.010799v-64.580562h-86.476026v64.580562H1424.311015v-146.854428h21.010799V769.658747h86.476026v-61.263067h21.010799v146.854428zM1679.315767 855.250108h-55.070411c-21.453132 0-36.713607-4.644492-45.339093-13.933477-8.846652-9.952484-13.048812-26.31879-13.048812-48.877754v-83.82203h113.679482v21.010799h-93.553348V769.658747H1674.228942v20.126134h-88.245357v2.653996c0 16.366307 2.875162 27.424622 8.846653 33.174946 5.307991 5.750324 15.039309 8.846652 29.636285 8.846652h55.07041v20.789633zM1820.862203 855.250108H1798.082073l-26.982289-60.378402h-57.724406v60.378402h-20.126134v-146.854428h76.965875c12.164147 0 22.337797 2.653996 30.52095 7.961987 12.164147 7.519654 18.356803 19.462635 18.356804 35.828942 0 19.241469-9.067819 32.290281-26.98229 39.367603l28.75162 63.695896z m-21.895464-103.063499c0-15.039309-9.510151-22.78013-28.75162-22.78013h-56.839741v45.339093h56.839741c19.241469 0.221166 28.75162-7.519654 28.75162-22.558963zM1947.590497 855.250108h-55.070411c-21.453132 0-36.713607-4.644492-45.339092-13.933477-8.846652-9.952484-13.048812-26.31879-13.048813-48.877754v-83.82203h113.679482v21.010799h-93.553348V769.658747h88.245357v20.126134h-88.245357v2.653996c0 16.366307 2.875162 27.424622 8.846653 33.174946 5.307991 5.750324 15.039309 8.846652 29.636285 8.846652h55.07041v20.789633zM2087.367603 793.323542c0 26.31879-7.961987 44.89676-23.664795 55.955076-10.394816 7.077322-23.664795 10.394816-39.367603 10.394816s-28.75162-3.538661-39.367602-10.394816c-15.702808-11.058315-23.664795-29.636285-23.664795-55.955076v-84.706695h20.126134v84.706695c0 30.963283 14.154644 46.223758 42.906263 46.223758 28.530454 0 42.906263-15.481641 42.906264-46.223758v-84.706695h20.126134v84.706695zM2259.434989 855.250108h-21.010799v-117.881641l-50.647084 117.881641h-16.587473l-49.762419-117.881641v117.881641h-21.010799v-146.854428h30.52095l48.877754 113.679482 47.993088-113.679482h31.405616v146.854428zM2458.705832 855.250108h-55.070411c-46.002592 0-69.003888-24.54946-69.003888-73.427214s23.001296-73.427214 69.003888-73.427214h55.070411v21.010799h-55.070411c-14.596976 0-25.434125 2.653996-32.290281 7.961988-11.058315 8.183153-16.587473 23.001296-16.587473 44.454427 0 21.453132 5.529158 36.050108 16.587473 43.790929 7.077322 5.750324 17.693305 8.846652 32.290281 8.846652h55.070411v20.789633zM2584.54946 855.250108h-56.839741c-19.904968 0-34.280778-4.865659-43.790929-14.818143-8.183153-8.846652-12.164147-22.116631-12.164146-40.252267v-91.784018h20.126134v89.130022c0 12.827646 2.653996 21.895464 7.961987 26.982289 5.307991 6.413823 14.596976 9.510151 27.866954 9.510152h56.839741v21.231965zM2756.616847 855.250108h-22.78013l-15.702808-34.944276h-83.82203l-13.933477 34.944276h-22.78013l61.263067-146.854428h15.702808c7.519654 0 13.491145 1.76933 17.472138 5.307992 3.538661 2.875162 7.077322 8.40432 10.394817 16.587473l54.185745 124.958963z m-47.108424-55.955076l-27.866954-64.580561c-1.76933-3.980994-3.980994-6.192657-7.077322-6.192657h-1.769331l-29.636285 70.773218h66.349892zM2899.047948 809.02635c0 30.963283-16.808639 46.223758-50.647084 46.223758h-75.196544v-21.010799h75.196544c9.952484 0 17.250972-1.548164 21.895464-4.423326 5.307991-3.980994 7.961987-11.058315 7.961987-21.010799 0-13.933477-9.067819-21.010799-26.982289-21.0108H2819.87041c-13.491145 0-24.770626-3.096328-34.059611-9.510151-10.394816-7.077322-15.702808-17.250972-15.702808-30.52095 0-14.596976 5.750324-25.434125 17.472139-32.290281 8.183153-4.644492 18.135637-7.077322 29.636285-7.077322h76.081209v21.010799h-76.081209c-17.472138 0-26.31879 6.192657-26.318791 18.356804 0 5.750324 2.211663 10.394816 7.077322 13.933477 5.307991 3.538661 12.606479 5.307991 21.895464 5.307992h31.405616c12.164147 0 22.78013 2.875162 31.405615 8.846652 10.837149 7.519654 16.366307 18.57797 16.366307 33.174946zM3041.47905 809.02635c0 30.963283-16.808639 46.223758-50.647085 46.223758h-75.196544v-21.010799h75.196544c9.952484 0 17.250972-1.548164 21.895465-4.423326 5.307991-3.980994 7.961987-11.058315 7.961987-21.010799 0-13.933477-9.067819-21.010799-26.98229-21.0108h-31.405615c-13.491145 0-24.770626-3.096328-34.059611-9.510151-10.394816-7.077322-15.702808-17.250972-15.702808-30.52095 0-14.596976 5.750324-25.434125 17.472138-32.290281 8.183153-4.644492 18.135637-7.077322 29.636285-7.077322h76.08121v21.010799H2959.205184c-17.472138 0-26.31879 6.192657-26.318791 18.356804 0 5.750324 2.211663 10.394816 7.077322 13.933477 5.307991 3.538661 12.606479 5.307991 21.895464 5.307992h31.405616c12.164147 0 22.78013 2.875162 31.405615 8.846652 11.279482 7.519654 16.808639 18.57797 16.80864 33.174946zM3089.472138 855.250108h-21.010799v-146.854428h21.010799v146.854428zM3239.64406 855.250108H3184.794816c-46.002592 0-69.003888-24.54946-69.003887-73.427214s23.001296-73.427214 69.003887-73.427214h55.070411v21.010799H3184.794816c-14.596976 0-25.434125 2.653996-32.29028 7.961988-11.058315 8.183153-16.587473 23.001296-16.587473 44.454427 0 21.453132 5.529158 36.050108 16.587473 43.790929 7.077322 5.750324 17.693305 8.846652 32.29028 8.846652h55.070411v20.789633z" fill="" p-id="14853"></path></svg>