<?xml version="1.0" standalone="no"?><!DOCTYPE svg PUBLIC "-//W3C//DTD SVG 1.1//EN" "http://www.w3.org/Graphics/SVG/1.1/DTD/svg11.dtd"><svg t="1547619970268" class="icon" style="" viewBox="0 0 1024 1024" version="1.1" xmlns="http://www.w3.org/2000/svg" p-id="2146" xmlns:xlink="http://www.w3.org/1999/xlink" width="200" height="200"><defs><style type="text/css"></style></defs><path d="M511.74950734 3.24939472c-279.04883027 0-507.37289562 228.32406534-507.37289562 507.37289562S232.70067706 1017.99518595 511.74950734 1017.99518595s507.37289562-228.32406534 507.37289561-507.37289561-228.32406534-507.37289562-507.37289561-507.37289562z" fill="#009F42" p-id="2147"></path><path d="M512 89.91985727v313.49157188l260.26188029 112.97219251L512 89.91985727z" fill="#DDDDDD" p-id="2148"></path><path d="M512 89.91985727v313.49157188l-260.26188029 112.97219251L512 89.91985727z" fill="#FFFFFF" p-id="2149"></path><path d="M512 403.53667549l260.26188029 112.9721925L512 674.44449411 251.73811971 516.38362166 512 403.53667549z" fill="#CCCCCC" p-id="2150"></path><path d="M251.73811971 561.0965626L512 934.7063744V715.77578406L251.73811971 561.0965626z" fill="#FFFFFF" p-id="2151"></path><path d="M772.26188029 561.0965626L512 934.7063744V715.77578406l260.26188029-154.67922146z" fill="#DDDDDD" p-id="2152"></path><path d="M513.25246333 403.66192181l260.2618803 112.97219252L513.25246333 674.56974043V403.66192181z" fill="#B7B7B7" p-id="2153"></path></svg>