<?xml version="1.0" standalone="no"?><!DOCTYPE svg PUBLIC "-//W3C//DTD SVG 1.1//EN" "http://www.w3.org/Graphics/SVG/1.1/DTD/svg11.dtd"><svg t="1547622477278" class="icon" style="" viewBox="0 0 3246 1024" version="1.1" xmlns="http://www.w3.org/2000/svg" p-id="15361" xmlns:xlink="http://www.w3.org/1999/xlink" width="633.984375" height="200"><defs><style type="text/css"></style></defs><path d="M1132.37149 666.816415h1539.317495v4.423326H1132.37149z" fill="" p-id="15362"></path><path d="M517.307991 53.30108C263.187905 53.30108 55.512743 260.976242 55.512743 515.096328c0 253.89892 207.896328 461.795248 461.795248 461.795249 253.89892 0 461.795248-207.896328 461.795249-461.795249 0-254.120086-207.896328-461.795248-461.795249-461.795248z m0 0" fill="#D8D8D8" p-id="15363"></path><path d="M517.529158 132.257451v285.304536l236.869114 102.842333L517.529158 132.257451z m0 0" fill="#333333" p-id="15364"></path><path d="M517.529158 132.257451v285.304536l-236.869115 102.842333L517.529158 132.257451z m0 0" fill="#8C8C8C" p-id="15365"></path><path d="M517.529158 417.561987l236.869114 102.842333-236.869114 143.758099-236.869115-143.979266L517.529158 417.561987z m0 0" fill="#383838" p-id="15366"></path><path d="M280.660043 561.09892L517.529158 901.031533v-199.270842l-236.869115-140.661771z m0 0" fill="#8C8C8C" p-id="15367"></path><path d="M754.398272 561.09892L517.529158 901.031533v-199.270842l236.869114-140.661771z m0 0" fill="#333333" p-id="15368"></path><path d="M518.634989 417.783153l236.869115 102.842333-236.869115 143.758099V417.783153z m0 0" fill="#141414" p-id="15369"></path><path d="M1198.942549 205.463499v300.786177c26.097624-14.596976 45.781425-25.655292 58.830237-33.174946l91.120519-55.512743 30.52095-18.135637c2.211663-1.326998 3.759827-1.105832 5.086825 0.442333 1.105832 1.548164 1.76933 3.096328 1.548164 4.423326 0 1.326998-0.663499 2.432829-1.76933 3.317494L1352.431965 433.485961c-1.105832 0.884665-23.222462 20.126134-66.571058 57.50324s-69.003888 59.936069-77.187041 67.455723l-25.876458 24.991793c-6.634989 6.192657-10.394816 9.288985-11.500648 9.288985s-3.317495-2.211663-6.634989-7.298488l-28.75162-40.252268c-1.548164-1.76933-2.211663-3.096328-2.211663-3.759827v-1.105832-0.884665c0-0.442333 0.442333-1.105832 1.105832-1.990497l10.837149-11.94298c3.980994-5.750324 5.97149-14.154644 5.97149-24.991793V247.485097l-3.096328-79.841037c1.105832-0.663499 1.990497-1.105832 2.432829-1.326997 0.442333 0 2.432829 0.221166 5.529158 1.326997l53.079913 16.145141c5.529158 1.76933 8.625486 3.980994 8.625486 6.634989 0.221166 2.653996-2.432829 5.307991-7.519654 8.40432l-11.721814 6.634989z m320.912311-17.693305c-1.105832 22.78013-2.211663 49.09892-3.317495 78.735206-1.105832 29.636285-2.211663 52.416415-3.096328 68.340388-0.884665 16.14514-2.875162 34.059611-5.529158 54.406912-2.875162 20.126134-6.192657 36.713607-9.952484 49.762419l-10.17365 34.944276c6.634989 4.644492 11.721814 7.961987 15.260475 10.17365l36.713607 22.558964c30.078618 19.683801 45.117927 38.261771 44.675594 56.176242-0.221166 17.914471-3.538661 30.52095-9.731317 38.261771-6.192657 7.519654-13.048812 11.279482-20.126134 11.058315-7.077322-0.221166-12.827646-2.875162-16.80864-7.961987-3.980994-5.086825-6.634989-11.500648-8.183153-19.683801l-4.423326-27.203456c-2.653996-13.712311-7.298488-26.097624-13.712311-37.15594-6.413823-11.058315-15.923974-22.558963-28.530454-34.501943-5.529158 9.952484-13.712311 22.78013-24.328293 38.704103-10.615983 15.702808-28.972786 31.184449-55.291577 46.223758s-45.781425 24.991793-58.387905 30.299784c-12.606479 5.086825-26.539957 10.394816-41.800432 15.481642-15.260475 5.086825-25.212959 7.961987-29.636285 9.067818l-22.337797 4.865659c-2.211663 0.442333-3.759827 0.442333-4.865659 0s-1.76933-1.326998-1.990497-1.990497c-0.221166-0.884665-0.442333-1.76933-0.663498-3.096328-0.221166-1.326998 1.548164-2.653996 4.865658-3.759827l19.241469-6.856156c7.961987-2.653996 19.683801-7.519654 34.944276-14.154643 15.260475-6.634989 30.299784-14.596976 45.117927-23.664795 14.818143-9.067819 31.405616-23.001296 49.320086-42.021598 17.914471-18.799136 31.626782-38.482937 40.694601-58.609072 9.067819-20.126134 16.14514-43.348596 20.789633-69.667386 4.644492-26.31879 7.740821-54.849244 9.288985-85.812527 1.548164-30.742117 2.432829-54.406911 2.432829-70.994385 0-16.366307 0-28.530454-0.221166-36.271274l-1.105832-43.790929-0.442333-18.135637c0.663499-0.884665 1.326998-1.548164 1.769331-1.548164 0.442333-0.221166 3.096328 0.442333 7.740821 1.548164l48.214255 13.269978c8.625486 2.653996 12.827646 5.086825 12.385313 7.519655-0.442333 2.653996-2.432829 4.865659-5.750324 7.077322l-13.048812 8.404319zM1274.581425 176.933045c-1.105832-1.76933-1.548164-3.538661-1.326997-5.529157 0.221166-1.76933 1.990497-3.096328 5.750324-3.759828 1.76933-0.221166 9.288985 2.211663 22.558963 7.298489 13.048812 5.086825 26.097624 12.827646 38.704104 23.443628 12.606479 10.615983 21.010799 19.683801 24.991792 27.424622 3.980994 7.519654 6.192657 15.923974 6.192657 24.991793 0 9.067819-1.326998 16.366307-4.20216 22.11663-4.20216 7.961987-10.394816 13.491145-19.020302 16.145141-8.40432 2.875162-16.366307 1.326998-23.443629-4.865659-5.529158-4.20216-8.846652-9.067819-10.17365-14.596976-1.326998-5.529158-2.875162-17.472138-4.423326-35.386609s-9.288985-33.174946-22.78013-45.781426l-12.827646-11.500648zM1860.450972 305.43067c0.221166-10.837149 0.442333-19.241469 0.442333-24.770627l0.884665-24.54946c0-5.529158 0-15.481641 0.221166-29.857451 0-14.37581 0-23.664795-0.221166-27.645789l-1.326998-26.31879-2.211663-24.328294c1.326998-1.548164 2.432829-2.432829 3.759827-2.653996 1.326998-0.221166 4.423326 0.221166 9.288985 1.105832l58.830238 11.721814c7.519654 1.548164 10.615983 3.980994 9.067818 6.856156-1.548164 2.875162-3.759827 5.307991-6.192656 7.298488l-12.60648 9.731317c-0.663499 16.14514-1.105832 28.309287-1.326998 36.271275l-1.548164 46.887257c-0.663499 15.923974-1.548164 29.415119-2.432829 40.252268h134.911447l24.991792-29.415119c3.759827-4.423326 7.077322-6.856156 9.731318-7.077322 1.76933 0 3.980994 0.884665 6.192656 2.653996l40.252268 33.838445c2.432829 2.211663 3.980994 4.20216 5.086825 5.97149 1.105832 1.76933 1.548164 3.096328 1.548165 3.980993 0 0.884665-0.663499 1.76933-2.653996 2.875162-1.76933 1.105832-3.980994 1.548164-6.856156 1.548164h-192.414686c1.548164 8.846652 2.653996 15.923974 3.759827 21.0108s4.865659 16.366307 11.500648 33.396112c6.634989 17.029806 12.827646 31.405616 19.020302 42.906263 5.97149 11.721814 14.818143 25.212959 26.318791 40.473435 11.500648 15.481641 22.337797 28.75162 32.732613 39.809935 10.394816 11.058315 26.539957 24.770626 48.656587 40.915766 22.116631 16.14514 42.906263 26.982289 62.147733 32.069115l16.366306 4.423326c3.317495 1.105832 4.865659 2.875162 5.086825 5.529158 0 2.432829-2.211663 4.20216-6.634989 5.086825l-14.596976 3.317494c-6.634989 1.548164-12.827646 3.759827-18.57797 6.63499-5.750324 2.875162-11.721814 8.40432-18.135637 16.366306-6.413823 8.183153-10.17365 12.164147-11.500648 11.942981-5.529158-0.442333-18.135637-8.846652-37.819438-25.212959-19.683801-16.587473-37.377106-34.72311-52.858748-54.628078s-27.203456-38.482937-35.165442-55.291577c-8.183153-17.029806-15.260475-35.386609-21.453132-55.07041-6.192657-19.683801-10.615983-37.819438-13.269979-54.406911l-4.644492-35.607776c-1.548164-10.837149-2.432829-16.587473-2.432829-17.472138l-0.442333-5.97149H1915.300216c-0.442333 2.653996-0.442333 4.644492-0.442333 5.97149l-2.211663 26.097624c-1.76933 19.683801-4.644492 37.377106-8.404319 53.522246-3.759827 16.14514-12.606479 40.252268-26.98229 72.542549-14.154644 32.290281-42.685097 61.484233-85.149028 87.803024-42.463931 26.31879-76.302376 44.675594-101.515335 55.291577l-24.991792 10.615982c-4.423326 1.76933-6.856156 1.990497-7.740821 0.884665-0.884665-1.326998-1.326998-2.211663-1.326998-3.096328s0-1.76933 0.221166-2.653996c0-0.884665 1.326998-1.990497 3.759828-3.53866l21.674298-12.164147c26.31879-14.596976 49.320086-30.52095 69.003887-47.550756 19.683801-17.029806 36.271274-34.280778 49.762419-51.752916 13.491145-17.472138 24.107127-36.050108 32.069115-55.955076 7.961987-19.683801 14.37581-40.473434 19.020302-62.368898 4.644492-21.674298 7.519654-46.444924 8.846653-73.64838H1669.805616c-4.644492 0-6.856156-2.432829-6.856156-7.298488 0-4.865659 2.211663-7.298488 6.856156-7.298488h190.645356z m23.664795 207.453995l-5.750324-10.17365c-0.884665-1.548164-1.326998-2.875162-1.326998-4.423326s1.326998-2.432829 3.317495-2.875162c2.432829-0.221166 15.481641 6.192657 39.146436 19.241469 23.443629 13.048812 34.944276 30.963283 34.501944 53.743412-0.442333 9.288985-3.759827 17.472138-10.17365 24.991793-6.413823 7.298488-14.596976 10.837149-24.54946 10.837149-9.288985 0-15.702808-3.096328-19.462635-9.288985-3.759827-6.192657-5.750324-10.615983-6.413823-13.269978l2.653995-37.598273c-0.442333-1.76933-1.105832-4.865659-1.990496-8.846652-1.105832-3.980994-1.990497-7.077322-2.875162-9.067818-0.884665-1.990497-3.096328-6.413823-7.077322-13.269979zM2293.052268 301.670842h-73.206048c-4.423326 0-6.856156-2.432829-7.519654-7.519654-0.663499-5.086825 1.76933-7.519654 7.519654-7.519655h73.206048v-62.811231l-2.43283-66.571058c0.884665-0.663499 1.76933-1.326998 2.653996-1.548164l9.731318 2.653996 50.86825 12.827645c4.20216 1.105832 6.192657 2.875162 6.413823 5.086825 0 2.211663-1.326998 4.20216-3.980993 6.192657l-18.799137 13.048812v91.341685h16.366307l20.126134-24.991793c3.096328-3.759827 5.307991-6.192657 6.413823-7.298488 1.105832-0.884665 4.20216 0.663499 8.846652 4.865659l33.174946 30.52095c1.990497 1.990497 3.317495 3.759827 4.20216 5.307991 0.884665 1.548164 1.326998 2.432829 1.326998 2.875162-0.442333 2.653996-3.538661 3.759827-9.288985 3.759828H2337.727862v155.037581l102.4-23.885961c3.980994-0.884665 5.97149 0.221166 5.97149 3.53866-0.221166 1.990497-1.548164 3.538661-3.759827 4.644493l-43.569763 20.789633c-30.078618 14.37581-54.849244 25.876458-74.090712 34.501944-19.241469 8.625486-31.626782 14.154644-36.713607 16.808639l-34.944277 17.693304c-5.529158 2.875162-8.846652 4.20216-9.510151 4.20216-0.663499 0-1.326998-0.442333-1.990497-1.326998l-3.759827-9.067818-19.904967-38.92527-3.538661-6.192657c0.442333-0.442333 6.856156-1.76933 19.020302-3.759827l23.443629-3.538661c5.529158-0.663499 17.472138-2.875162 36.271274-6.634989v-164.1054z m255.447084-30.742116c-3.538661 3.538661-7.740821 7.298488-12.827646 11.058315-0.884665 15.481641-1.76933 31.184449-2.653995 47.108423l-1.990497 35.828942h86.033693l11.942981-16.366307c2.875162-3.980994 5.086825-5.97149 6.634989-6.192656 1.548164 0 4.20216 1.105832 8.40432 3.759827l38.92527 24.991793c3.317495 2.211663 5.086825 3.759827 5.750323 4.644492 0.442333 0.884665 0.663499 1.76933 0.663499 2.653996 0 0.884665-1.76933 2.875162-5.307991 6.413823l-12.164147 11.94298c-1.548164 19.020302-2.875162 36.271274-3.980993 51.752916-1.326998 15.481641-3.317495 35.386609-6.192657 59.714903-2.875162 24.328294-8.183153 44.012095-15.481641 58.830237-7.519654 15.039309-17.693305 27.203456-30.963283 36.713607-13.269978 9.510151-25.876458 15.702808-37.598272 18.135637-11.942981 2.653996-19.020302 3.759827-21.674299 3.759828-1.76933 0-2.875162-0.442333-3.317494-1.105832l-0.442333-3.538661-1.326998-2.653995-6.192656-16.366307c-4.20216-9.067819-11.942981-15.923974-23.222462-20.789633l-18.57797-7.519654c-1.548164-0.442333-2.875162-1.548164-3.759827-2.653996-0.884665-1.326998-1.326998-2.211663-1.105832-3.096328 0-0.442333 0.442333-1.326998 1.326998-2.875162 0.884665-1.548164 3.096328-1.990497 6.856155-1.548165l20.789633 3.317495c13.269978 2.211663 26.097624 3.096328 38.261771 3.096328 12.164147-0.221166 22.116631-5.307991 29.415119-15.481641 7.298488-10.17365 13.269978-23.443629 17.693305-40.252268 4.423326-16.587473 7.519654-39.588769 9.288985-69.225054 1.76933-29.636285 2.653996-49.320086 2.653995-59.051404v-5.97149h-93.99568c-0.442333 2.653996-0.884665 4.423326-1.105832 5.750324l-7.519654 42.906263c-4.865659 22.78013-15.039309 48.435421-30.299784 76.523542-15.260475 28.309287-41.579266 52.858747-78.735205 74.090713-37.15594 21.231965-66.792225 35.828942-88.908856 44.233262l-22.337797 8.404319c-1.548164 0.442333-2.432829 0.884665-3.317494 0.884665-0.663499 0-1.76933 0-2.875162-0.442332s-1.76933-1.105832-1.990497-2.211663c0-1.105832 0.442333-2.211663 1.326998-3.317495 1.105832-1.326998 2.211663-2.432829 3.980993-3.317494l20.126134-10.837149c23.885961-12.827646 46.002592-27.424622 66.349892-43.790929 20.126134-16.14514 36.713607-32.95378 49.09892-49.983585 12.606479-17.029806 23.885961-40.252268 34.059612-69.888553 10.17365-29.415119 15.481641-78.735205 16.14514-147.739093v-30.742117h-68.340389c-1.548164 0-3.317495-0.663499-5.307991-2.211663-1.990497-1.548164-2.432829-3.759827-1.76933-6.856155 0.663499-3.096328 3.096328-4.865659 7.077321-4.865659h218.069979l26.097624-30.963283c2.432829-3.096328 4.644492-4.644492 6.192657-4.423326 1.548164 0 4.423326 1.548164 8.183153 4.423326l39.367602 32.732613c1.76933 1.548164 3.096328 3.096328 3.759828 4.423326 0.663499 1.326998 0.884665 2.211663 0.884665 2.875162-0.221166 1.548164-1.105832 2.653996-2.432829 3.538661-1.548164 0.884665-3.096328 1.326998-4.865659 1.326998h-162.778402zM2488.12095 166.538229l-12.827645-12.827646c-1.326998-1.105832-1.76933-2.432829-1.769331-4.423326 0-1.76933 2.211663-2.653996 6.634989-2.653996 7.519654 0.221166 18.57797 3.096328 33.396113 8.625486 14.818143 5.529158 27.203456 13.933477 37.377105 25.212959 10.17365 11.058315 15.039309 22.337797 15.039309 33.396113-0.221166 9.731317-3.538661 18.135637-10.394816 24.770626-6.634989 6.634989-14.596976 9.952484-23.443629 9.731317-4.644492 0-9.067819-1.105832-13.269978-3.53866-4.20216-2.432829-7.298488-5.307991-9.288985-8.846653-1.990497-3.538661-3.538661-8.183153-4.20216-13.712311l-2.432829-23.664795c-0.884665-7.077322-2.432829-13.048812-4.423326-17.693304-2.211663-4.644492-5.750324-9.510151-10.394817-14.37581z" fill="" p-id="15370"></path><path d="M1280.774082 860.558099H1223.049676c-22.558963 0-38.482937-4.865659-47.550756-14.596976-9.067819-10.394816-13.712311-27.424622-13.712311-51.310583v-88.02419h118.987473v21.895464h-97.976674v42.021599h92.447516v21.010799h-92.447516v2.653995c0 17.029806 3.096328 28.75162 9.067819 34.72311 5.529158 6.192657 15.923974 9.067819 31.184449 9.067819h57.724406v22.558963zM1479.823758 728.742981h-59.493736v131.815118h-21.0108v-131.815118h-59.493736v-21.895465h140.219438v21.895465zM1678.652268 860.558099h-21.895465v-67.676889h-90.678185v67.676889h-21.895465v-153.931749h21.895465v64.138229h90.678185v-64.138229h21.895465v153.931749zM1855.806479 860.558099H1798.082073c-22.558963 0-38.482937-4.865659-47.550756-14.596976-9.067819-10.394816-13.712311-27.424622-13.712311-51.310583v-88.02419h118.987473v21.895464h-97.976673v42.021599h92.447516v21.010799h-92.447516v2.653995c0 17.029806 3.096328 28.75162 9.067818 34.72311 5.529158 6.192657 15.923974 9.067819 31.184449 9.067819h57.724406v22.558963zM2048.442333 860.558099h-23.885962l-28.309287-63.253563h-60.378401v63.253563h-21.0108v-153.931749h80.504536c12.827646 0 23.443629 2.653996 32.069114 8.183153 12.827646 7.961987 19.241469 20.568467 19.241469 37.598272 0 20.126134-9.510151 33.838445-28.309287 41.136933l30.078618 67.013391z m-23.001296-108.150324c0-15.923974-10.17365-23.885961-30.299784-23.885961h-59.493737V776.293737h59.493737c20.3473 0 30.299784-7.961987 30.299784-23.885962zM2225.375378 860.558099h-57.724406c-22.558963 0-38.482937-4.865659-47.550756-14.596976-9.067819-10.394816-13.712311-27.424622-13.712311-51.310583v-88.02419h118.987473v21.895464h-97.976674v42.021599h92.447516v21.010799h-92.447516v2.653995c0 17.029806 3.096328 28.75162 9.067819 34.72311 5.529158 6.192657 15.923974 9.067819 31.184449 9.067819h57.724406v22.558963zM2416.020734 795.535205c0 27.424622-8.183153 47.108423-24.770626 58.609071-11.058315 7.298488-24.770626 11.058315-41.136933 11.058316s-30.299784-3.759827-41.136933-11.058316c-16.587473-11.500648-24.770626-31.184449-24.770626-58.609071v-88.908855h21.010799v88.908855c0 32.290281 15.039309 48.435421 44.89676 48.435421s44.89676-16.14514 44.89676-48.435421v-88.908855h21.010799v88.908855zM2640.725702 860.558099h-21.895464v-123.631965l-53.079914 123.631965h-17.472138l-52.195249-123.631965v123.631965h-21.895464v-153.931749h32.069114l51.310584 118.987473 50.425918-118.987473h32.953779v153.931749z" fill="" p-id="15371"></path></svg>