<?xml version="1.0" standalone="no"?><!DOCTYPE svg PUBLIC "-//W3C//DTD SVG 1.1//EN" "http://www.w3.org/Graphics/SVG/1.1/DTD/svg11.dtd"><svg t="1547619987409" class="icon" style="" viewBox="0 0 1024 1024" version="1.1" xmlns="http://www.w3.org/2000/svg" p-id="2486" xmlns:xlink="http://www.w3.org/1999/xlink" width="200" height="200"><defs><style type="text/css"></style></defs><path d="M511.74950734 3.24939472c-279.04883027 0-507.37289562 228.32406534-507.37289562 507.37289562S232.70067706 1017.99518595 511.74950734 1017.99518595s507.37289562-228.32406534 507.37289561-507.37289561-228.32406534-507.37289562-507.37289561-507.37289562z" fill="#D8D8D8" p-id="2487"></path><path d="M512 89.91985727v313.49157188l260.26188029 112.97219251L512 89.91985727z m0 0" fill="#333333" p-id="2488"></path><path d="M512 89.91985727v313.49157188l-260.26188029 112.97219251L512 89.91985727z m0 0" fill="#8C8C8C" p-id="2489"></path><path d="M512 403.53667549l260.26188029 112.9721925L512 674.44449411 251.73811971 516.38362166 512 403.53667549z m0 0" fill="#383838" p-id="2490"></path><path d="M251.73811971 561.0965626L512 934.7063744V715.77578406L251.73811971 561.0965626z m0 0" fill="#8C8C8C" p-id="2491"></path><path d="M772.26188029 561.0965626L512 934.7063744V715.77578406l260.26188029-154.67922146z m0 0" fill="#333333" p-id="2492"></path><path d="M513.25246333 403.66192181l260.2618803 112.97219252L513.25246333 674.56974043V403.66192181z m0 0" fill="#141414" p-id="2493"></path></svg>