<?xml version="1.0" standalone="no"?><!DOCTYPE svg PUBLIC "-//W3C//DTD SVG 1.1//EN" "http://www.w3.org/Graphics/SVG/1.1/DTD/svg11.dtd"><svg t="1547620018950" class="icon" style="" viewBox="0 0 1024 1024" version="1.1" xmlns="http://www.w3.org/2000/svg" p-id="3246" xmlns:xlink="http://www.w3.org/1999/xlink" width="200" height="200"><defs><style type="text/css"></style></defs><path d="M511.74950734 3.24939472c-279.04883027 0-507.37289562 228.32406534-507.37289562 507.37289562S232.70067706 1017.99518595 511.74950734 1017.99518595s507.37289562-228.32406534 507.37289561-507.37289561-228.32406534-507.37289562-507.37289561-507.37289562z" fill="#D81E06" p-id="3247"></path><path d="M519.51477999 308.85044762c0.87672434-2.37968034 2.25443399-4.38362166 3.88263633-5.88657765 1.62820233-1.50295599 3.88263632-2.88066566 6.63805566-4.63411434 6.63805565-2.75541933 13.90234298-6.76330199 21.79286196-11.89840164 7.89051899-5.260346 15.78103798-11.02167733 23.42106431-17.28399397 7.76527266-6.26231666 14.90431364-12.64987964 21.66761563-19.28793532 6.76330199-6.63805565 12.52463332-12.64987964 16.90825498-18.1607183 6.01182399-8.01576532 11.52266264-12.27414065 16.65776231-12.27414065 5.13509966 0 11.52266264 3.50689733 19.41318164 10.39544566 7.89051899 7.01379465 11.02167733 13.77709665 9.14298231 20.41515229-1.62820233 6.63805565-5.88657765 11.89840165-12.90037231 15.78103799-4.63411433 2.37968034-9.89446032 5.260346-15.90628432 8.64199697-6.26231666 3.25640465-12.27414065 6.76330199-18.28596462 10.14495299-6.01182399 3.50689733-11.52266264 6.63805565-16.65776232 9.51872133-5.13509966 2.88066566-9.01773598 5.13509966-11.77315532 7.01379466-9.76921399 6.26231666-13.90234298 11.39741632-13.02561865 15.28005264 0.87672434 3.88263632 7.139041 5.00985333 18.9121963 3.25640466 3.25640465-0.50098533 7.01379465-1.25246333 10.77118465-1.878695 3.88263632-0.50098533 8.39150433-1.62820233 13.52660398-3.13115833 5.13509966-0.87672434 9.39347499-3.25640465 12.64987965-7.13904098 2.88066566-2.75541933 5.88657765-5.51083865 8.641997-8.39150433s5.51083865-5.88657765 8.641997-9.14298233c5.51083865-6.01182399 10.39544565-9.01773598 15.28005263-8.76724331 4.63411433 0.12524634 9.01773598 4.38362166 12.90037233 12.90037232 2.75541933 5.13509966 2.88066566 11.02167733 0.87672431 17.7849793-2.25443399 6.76330199-6.26231666 11.77315532-12.27414064 15.28005265-2.75541933 1.50295599-6.63805565 3.63214365-11.52266265 6.26231667-5.00985333 2.75541933-10.39544565 5.63608499-16.28202331 9.01773598-5.88657765 3.25640465-11.89840165 6.76330199-18.28596463 10.14495298-6.26231666 3.50689733-12.27414065 6.76330199-17.65973298 10.14495299-7.89051899 4.25837533-11.77315532 7.139041-11.52266266 8.64199699 0.12524634 1.50295599 5.00985333 1.25246333 14.65382097-0.37573901 11.14692365-1.878695 22.04335464-4.25837533 32.8145393-7.13904098 10.64593832-2.88066566 20.91613764-6.26231666 30.43485895-9.51872133 6.01182399-2.00394133 10.27019932-2.75541933 12.90037232-2.00394133 2.50492665 0.751478 4.63411433 2.75541933 6.011824 6.01182399 1.25246333 3.25640465-0.751478 7.01379465-5.88657767 10.77118465-2.75541933 2.37968034-6.38756299 5.00985333-11.39741632 7.76527266-4.75936066 2.75541933-10.14495299 5.260346-15.78103797 7.76527266-5.63608499 2.37968034-11.77315532 4.63411433-17.78497931 6.76330199-6.26231666 2.25443399-11.89840165 3.88263632-17.40924032 5.00985333-6.01182399 1.25246333-13.77709665 3.13115834-23.17057162 5.88657765s-18.91219631 6.26231666-28.43091764 10.39544566c-7.01379465 2.75541933-13.02561865 3.25640465-18.28596464 1.62820233-5.260346-1.62820233-9.51872131-6.01182399-12.9003723-13.40135765-2.25443399-5.13509966-2.25443399-10.27019932 0-15.65579165 2.00394133-5.260346 5.88657765-9.51872131 11.39741631-12.90037231 6.63805565-3.63214365 13.52660398-7.89051899 20.7908913-12.64987964 7.139041-4.75936066 13.02561865-8.76724333 17.28399399-12.27414066 2.37968034-1.878695 3.63214365-3.25640465 3.63214365-4.63411432 0-1.25246333-1.50295599-1.50295599-4.63411431-0.87672434-8.01576532 1.50295599-15.02955997 2.75541933-20.79089132 3.88263634-5.63608499 1.12721701-9.89446032 2.00394133-12.64987964 2.88066565-6.26231666 1.50295599-12.27414065 0.50098533-17.78497932-2.75541934-5.51083865-3.25640465-8.64199699-7.51477999-9.14298232-12.64987964-0.50098533-6.26231666-0.87672434-11.39741632-0.87672433-15.40529898 0.12524634-3.75739 0.50098533-6.88854833 1.37770967-9.26822865zM96.55791292 313.35931563c-2.88066566-3.88263632-5.13509966-7.38953366-6.26231666-10.39544566-1.25246333-2.88066566-2.00394133-7.139041-2.75541933-12.64987966-0.50098533-2.75541933-0.12524634-4.63411433 1.127217-5.63608499 1.25246333-1.12721701 4.25837533-1.62820233 8.39150433-2.00394132 2.00394133 0 5.51083865-0.12524634 10.14495298-0.37573901 4.63411433-0.375739 9.51872131-0.751478 14.65382098-1.12721701 5.13509966-0.375739 10.14495299-0.87672434 14.90431365-1.12721699 4.75936066-0.375739 8.64199699-0.751478 11.39741631-1.25246332 7.89051899-1.25246333 16.53251597-3.13115834 26.0512373-5.63608499 9.51872131-2.50492665 18.53645731-5.260346 27.30370063-8.39150433 8.76724333-2.88066566 16.2820233-6.01182399 23.17057164-9.01773598 6.63805565-2.88066566 11.14692365-5.51083865 13.52660397-7.76527266 9.39347499-8.39150433 15.65579164-8.76724333 18.91219631-1.25246333 2.37968034 4.75936066 3.25640465 8.76724333 2.50492666 11.89840164-0.751478 3.13115834-3.50689733 7.38953366-8.39150433 12.52463332-3.25640465 3.25640465-8.39150433 7.139041-15.28005264 11.39741631-6.76330199 4.25837533-14.65382098 8.64199699-23.67155697 13.02561865-9.01773598 4.63411433-18.91219631 9.01773598-29.30764195 13.40135765-10.64593832 4.38362166-21.29187663 8.39150433-32.06306128 11.89840165-14.65382098 5.13509966-26.17648362 7.01379465-34.3174953 5.51083867-8.26625798-2.00394133-14.90431364-6.26231666-20.0394133-13.02561864zM123.73636722 479.56119971c-3.88263632-2.37968034-6.63805565-4.75936066-8.01576534-7.01379465-1.50295599-2.25443399-2.50492665-5.51083865-3.13115831-9.76921399-0.50098533-2.75541933 0-5.00985333 1.62820233-6.763302 1.62820233-1.878695 4.25837533-2.63017299 7.51477998-2.25443399 3.88263632 0.375739 10.64593832-0.751478 20.41515231-3.13115833 9.76921399-2.37968034 20.03941331-5.51083865 31.18633695-9.51872131 11.14692365-3.88263632 21.79286197-8.26625798 32.31355395-13.02561865 10.39544565-4.75936066 18.53645731-9.51872131 24.54828131-13.90234299 8.39150433-6.26231666 16.2820233-13.77709665 23.67155696-22.41909364 7.38953366-8.64199699 13.40135764-16.90825497 18.28596465-24.54828128 3.25640465-5.13509966 4.38362166-8.64199699 3.13115832-10.64593832-1.25246333-2.00394133-5.260346-3.13115834-12.27414064-3.25640467-4.75936066 0-9.01773598 0-12.64987965 0.12524633-3.63214365 0.12524634-7.01379465 0.375739-10.14495299 0.87672434-3.13115834 0.375739-6.26231666 1.12721701-9.14298231 1.878695s-6.26231666 1.62820233-9.89446032 2.63017299c-6.63805565 1.50295599-11.89840165 2.25443399-15.90628433 2.25443399-4.00788267 0-7.89051899-0.50098533-11.52266264-1.878695-3.25640465-1.25246333-5.51083865-3.25640465-6.76330199-6.01182398-1.25246333-2.88066566-1.50295599-5.88657765-0.87672433-9.14298231 0.50098533-3.25640465 2.25443399-6.63805565 5.00985333-9.769214s6.26231666-5.88657765 10.77118465-8.39150433c6.01182399-2.88066566 11.02167733-5.260346 14.90431365-6.76330199 3.88263632-1.50295599 7.139041-2.63017299 9.89446031-2.88066565 2.75541933-0.375739 5.13509966-0.375739 7.13904098 0.375739 2.00394133 0.751478 4.63411433 1.62820233 7.139041 2.88066565 1.50295599 0.87672434 4.00788267 1.62820233 7.51477999 2.630173 3.50689733 0.751478 7.01379465 1.50295599 10.64593832 2.00394133 3.63214365 0.50098533 7.139041 0.87672434 10.39544564 1.127217 3.25640465 0.12524634 5.63608499 0.12524634 7.139041 0.12524634 11.14692365-0.50098533 24.04729597 0.12524634 38.32537794 2.50492667 14.52857464 2.25443399 28.93190296 5.88657765 43.83621661 11.0216773 5.51083865 1.878695 9.39347499 2.88066566 11.77315532 3.13115833 2.37968034 0.375739 5.00985333 0.12524634 7.76527265-0.37573899 5.63608499-1.878695 10.39544565-0.751478 14.52857465 3.13115833 7.89051899 7.01379465 12.90037231 14.65382098 14.90431365 23.17057163 2.00394133 8.39150433 2.00394133 17.03350132-0.37573901 25.6754983-0.50098533 1.878695-1.62820233 4.38362166-3.13115832 7.76527265-1.50295599 3.25640465-3.13115834 6.76330199-5.00985333 10.64593831-1.878695 3.88263632-3.63214365 7.51477999-5.51083865 11.02167733-1.878695 3.63214365-3.50689733 6.76330199-5.00985333 9.51872132-9.76921399 16.53251597-17.65973298 28.80665662-23.67155697 36.82242195-6.26231666 8.01576532-11.77315532 13.52660398-16.53251598 16.90825497-7.139041 4.75936066-14.90431364 7.89051899-22.79483263 9.01773598-8.01576532 1.25246333-15.53054531 0.751478-22.79483263-1.62820232-7.139041-2.25443399-13.77709665-6.01182399-19.66367431-11.52266264-5.88657765-5.51083865-10.39544565-12.52463332-13.77709666-21.29187664-1.878695-5.13509966-1.62820233-8.64199699 0.75147801-10.39544566 2.25443399-1.878695 4.75936066-2.00394133 7.51477998-0.37573899 11.14692365 5.51083865 20.41515231 8.01576532 27.67943964 7.76527265s15.28005264-3.88263632 23.29581795-10.39544565c3.88263632-2.88066566 7.89051899-7.139041 12.27414066-12.64987965 4.25837533-5.51083865 7.89051899-11.02167733 11.39741631-16.90825497 3.25640465-5.88657765 6.01182399-11.39741632 8.01576533-16.65776231 2.00394133-5.260346 3.13115834-9.51872131 3.13115833-12.90037233-0.50098533-10.27019932-4.75936066-16.90825497-12.64987965-19.78892063-0.87672434-0.375739-2.37968034-0.751478-4.25837532-1.12721699-2.00394133-0.375739-4.00788267-0.87672434-6.01182399-1.127217-2.25443399-0.375739-4.25837533-0.751478-6.26231666-1.12721701-2.25443399-0.375739-3.63214365-0.87672434-4.63411434-1.12721699-3.88263632-1.50295599-6.76330199-1.878695-8.39150431-1.127217-1.62820233 0.751478-4.00788267 3.13115834-7.01379465 7.01379465-2.75541933 3.25640465-5.13509966 6.76330199-7.51478 10.64593832-2.25443399 3.88263632-5.00985333 8.26625798-7.89051899 13.40135764-3.88263632 6.26231666-9.01773598 13.02561865-15.28005264 20.16465964-6.26231666 7.139041-12.90037231 13.77709665-20.16465965 20.16465965-7.139041 6.26231666-14.65382098 12.14889432-22.54433996 17.40924031-7.89051899 5.260346-15.40529899 9.39347499-22.54433996 12.5246333-23.17057163 9.76921399-43.33523127 15.65579164-60.36873259 17.78497931-17.28399398 1.37770966-28.6814103 0.87672434-34.31749528-2.50492666zM255.24501702 769.38121464c-3.63214365 4.25837533-7.51477999 7.89051899-11.7731553 10.77118464-4.25837533 3.13115834-8.76724333 5.88657765-13.90234299 8.26625799-9.14298233 4.38362166-16.65776232 6.26231666-22.16860096 5.636085-5.63608499-0.751478-9.89446032-3.63214365-13.02561866-9.017736-2.00394133-3.25640465-2.63017299-5.88657765-1.87869499-7.51477998 0.751478-1.878695 2.37968034-3.13115834 4.75936067-4.00788266 11.89840165-3.63214365 21.79286197-8.39150433 30.05911994-14.15283565 8.01576532-5.63608499 15.40529899-12.64987964 21.79286199-21.29187663 5.13509966-7.01379465 8.76724333-16.53251597 11.02167731-28.43091764 2.37968034-11.89840165 2.88066566-25.92599096 1.87869498-41.95752159-0.375739-6.38756299-0.12524634-11.39741632 0.75147801-15.28005266 0.87672434-3.63214365 2.37968034-6.26231666 4.00788267-7.38953365 3.13115834-2.00394133 6.26231666-2.25443399 9.51872131-0.50098532 3.25640465 1.62820233 5.63608499 5.260346 7.38953366 10.77118465 1.12721701 4.00788267 1.62820233 9.51872131 1.62820232 16.53251598s-0.375739 14.52857464-1.127217 22.41909363c-0.751478 7.89051899-2.00394133 15.53054531-3.50689732 22.92007896-1.50295599 7.38953366-3.25640465 13.40135764-5.26034598 18.03547198-3.25640465 7.38953366-6.63805565 13.52660398-9.89446033 19.03744263-3.381651 6.01182399-6.63805565 11.02167733-10.27019933 15.15480632zM321.50032726 791.80030826c-1.12721701 1.878695-2.88066566 2.50492665-5.51083864 2.37968033-2.63017299-0.12524634-7.38953366-1.878695-14.27808199-5.00985333-4.38362166-2.00394133-8.26625798-3.88263632-11.39741632-5.63608498-3.13115834-1.878695-5.88657765-3.50689733-8.01576532-5.13509966-2.25443399-1.62820233-4.00788267-3.25640465-5.63608499-5.13509965-1.62820233-1.878695-3.25640465-3.63214365-4.75936066-5.88657766-2.88066566-4.00788267-4.38362166-7.01379465-4.38362166-9.14298233-0.12524634-2.00394133 0.87672434-4.38362166 3.13115833-7.13904098 2.37968034-3.13115834 4.75936066-4.75936066 7.38953365-5.13509966 2.37968034-0.375739 5.260346 0.751478 8.64199699 3.13115833 6.26231666 4.38362166 11.77315532 9.01773598 16.65776231 13.52660398 5.00985333 4.63411433 10.27019932 10.27019932 15.90628431 17.28399397 2.37968034 3.13115834 3.88263632 5.260346 4.00788267 7.01379465-0.12524634 1.37770966-0.50098533 3.00591199-1.75344868 4.88460699z" fill="#FFFFFF" p-id="3248"></path><path d="M505.23669801 757.10707399c-4.00788267 10.14495299-9.14298233 17.28399398-15.78103797 21.41712296-7.76527266 5.13509966-15.65579164 7.01379465-23.67155697 5.88657767-8.01576532-1.12721701-15.90628431-5.88657765-23.79680331-14.15283565-3.13115834-3.13115834-5.88657765-5.63608499-8.26625798-7.89051898-2.37968034-2.25443399-4.75936066-4.38362166-7.38953367-6.63805567-2.00394133-1.50295599-3.63214365-1.50295599-5.00985331 0-6.26231666 7.76527266-13.15086498 14.65382098-20.91613764 20.91613765-7.89051899 6.26231666-18.03547198 12.64987964-30.68535162 18.9121963-7.89051899 4.00788267-13.90234298 5.63608499-18.28596465 5.26034598-4.25837533-0.375739-8.01576532-2.63017299-11.39741631-6.63805566-5.63608499-6.26231666-5.63608499-16.15677697 0-29.68338096 1.878695-4.25837533 3.13115834-11.14692365 4.00788267-20.91613763 0.87672434-9.76921399 2.00394133-22.92007896 3.13115832-39.45259494 0.12524634-3.50689733-0.87672434-5.13509966-3.63214366-4.63411433-2.50492665 0.375739-5.13509966 0.751478-7.51478 0.87672434-2.37968034 0.12524634-4.00788267 0.375739-5.00985332 0.87672432-5.260346 2.00394133-9.14298233 2.88066566-11.52266266 2.50492668-1.25246333 0-2.00394133 0.751478-2.37968032 2.37968032-0.375739 3.63214365-0.751478 8.26625798-0.751478 13.77709665-0.12524634 5.260346-0.375739 9.76921399-0.50098533 13.02561865-0.12524634 2.63017299-0.50098533 4.75936066-0.87672434 6.38756299-0.375739 1.62820233-1.12721701 3.13115834-2.25443399 4.00788266-0.87672434 1.12721701-2.37968034 2.00394133-4.00788266 2.37968033-1.878695 0.50098533-4.25837533 1.12721701-7.38953365 1.502956-4.75936066 0.87672434-7.89051899 0.751478-9.14298233-0.375739-1.25246333-1.12721701-1.878695-3.63214365-1.25246333-7.89051899 0.375739-6.76330199 0.87672434-14.15283565 1.25246333-22.16860096 0.375739-7.89051899 0.87672434-15.90628431 1.25246334-24.17254232 0.375739-8.26625798 0.87672434-16.53251597 1.12721699-24.79877396 0.375739-8.26625798 0.50098533-16.15677697 0.75147801-23.79680329 0.12524634-3.63214365-0.375739-6.26231666-1.878695-7.51478s-4.63411433-2.25443399-9.39347499-2.75541933c-5.51083865-0.87672434-10.39544565-1.25246333-14.65382097-1.25246332-4.25837533 0-9.14298233 0.375739-14.65382098 1.25246332-0.751478 0-1.50295599 0.50098533-2.37968034 1.502956-0.87672434 0.87672434-1.50295599 1.62820233-1.50295601 2.254434-0.12524634 9.51872131-0.375739 18.91219631-0.75147798 28.05517863-0.12524634 9.14298233-0.375739 17.78497932-0.50098535 25.6754983-0.12524634 7.89051899-0.375739 14.90431364-0.50098531 20.91613764-0.12524634 6.01182399-0.375739 10.64593832-0.75147801 13.77709665-0.375739 6.63805565-1.878695 11.02167733-4.25837533 13.02561864-2.37968034 2.00394133-6.76330199 3.63214365-12.90037232 4.75936066-2.88066566 0.375739-4.75936066 0-5.88657765-1.25246333-1.12721701-1.25246333-2.00394133-4.38362166-2.50492666-9.14298233-0.375739-2.50492665-0.50098533-8.26625798-0.37573901-16.90825497 0.12524634-8.64199699 0.87672434-20.03941331 2.00394133-33.94175629 0.12524634-3.50689733 0.375739-7.76527266 0.375739-12.5246333s-0.12524634-9.39347499-0.375739-13.90234299c-0.12524634-4.63411433-0.50098533-8.64199699-0.87672432-12.27414066-0.375739-3.63214365-0.751478-6.26231666-1.12721701-7.76527264-1.25246333-5.88657765-1.50295599-11.02167733-0.751478-15.28005266 0.87672434-4.25837533 2.63017299-7.38953366 5.00985333-9.14298232 4.00788267-3.25640465 8.26625798-4.75936066 13.02561865-4.25837531 4.75936066 0.375739 8.01576532 2.37968034 10.14495298 5.63608499 0.12524634 0.375739 0.87672434 0.87672434 1.87869501 1.62820233s1.62820233 0.87672434 2.25443399 0.87672433c12.90037231-1.25246333 24.17254229-1.12721701 34.31749529 0.75147799 2.88066566 0.375739 5.51083865 0.50098533 7.76527265 0.37573901 2.37968034-0.12524634 4.63411433-0.87672434 7.139041-2.00394133 5.260346-2.25443399 10.64593832-1.25246333 15.78103797 2.88066566 2.00394133 1.878695 3.13115834 4.63411433 3.63214366 8.64199697 0.375739 4.00788267 0.12524634 7.89051899-0.87672434 11.89840168-1.878695 7.01379465-2.88066566 13.90234298-3.50689732 20.54039863-0.50098533 6.76330199-0.50098533 14.90431364-0.12524634 24.54828129 0 2.00394133 0.751478 2.37968034 2.00394134 0.87672433 6.26231666-4.63411433 13.40135764-5.63608499 21.79286197-3.25640466 2.37968034 0.375739 4.00788267 0.375739 5.00985333 0 0.87672434-0.375739 1.25246333-1.878695 1.25246333-4.00788266-0.12524634-8.39150433-0.50098533-16.65776232-0.87672434-24.9240203-0.375739-8.26625798-1.25246333-15.90628431-2.37968033-22.92007896-1.25246333-9.14298233-0.87672434-16.2820233 0.87672433-21.29187663 2.00394133-5.00985333 5.260346-7.51477999 9.89446032-7.76527268 8.64199699-0.12524634 14.65382098 2.50492665 18.16071831 8.39150433 3.50689733 5.88657765 4.63411433 14.15283565 3.25640466 24.5482813-0.12524634 1.12721701-0.375739 2.37968034-0.50098534 4.00788266-0.12524634 1.50295599-0.375739 2.88066566-0.50098533 4.25837532-0.12524634 2.25443399 0.751478 2.88066566 2.50492668 2.37968034 19.03744264-7.89051899 33.81650995-16.2820233 43.83621659-25.17451297 5.63608499-5.13509966 10.39544565-7.51477999 14.27808197-7.51477997 3.88263632 0 8.26625798 2.88066566 13.40135767 9.01773597 6.38756299 7.01379465 4.63411433 14.15283565-5.63608499 21.41712298-2.25443399 1.50295599-5.63608499 3.13115834-10.39544567 5.00985332-4.75936066 1.878695-10.14495299 3.50689733-16.15677696 5.13509967-6.01182399 1.62820233-12.52463332 3.13115834-19.41318165 4.63411433-7.01379465 1.50295599-13.77709665 2.50492665-20.41515231 3.50689732-1.50295599 0.12524634-2.63017299 1.12721701-3.13115832 2.63017299-0.50098533 1.50295599-0.87672434 4.75936066-1.127217 9.89446032-0.12524634 3.63214365 0 6.01182399 0.751478 7.13904099 0.751478 1.12721701 1.878695 1.50295599 3.63214366 1.502956 2.88066566 0 7.01379465 0 12.52463331 0.12524633 5.260346 0.12524634 11.39741632 0.12524634 18.03547198 0.12524634 6.63805565 0 13.40135764 0.12524634 20.54039864 0.375739 7.139041 0.12524634 13.77709665 0.375739 19.78892063 0.375739 6.01182399 0 11.14692365 0 15.65579166 0.12524633 4.25837533 0.12524634 7.01379465 0.12524634 8.01576531 0.12524633 4.38362166 0.375739 7.139041 1.25246333 8.26625799 2.37968034 1.12721701 1.12721701 1.50295599 3.25640465 1.25246333 6.63805565 0 2.50492665-0.751478 4.63411433-2.25443399 5.636085-1.50295599 1.12721701-4.25837533 1.878695-8.39150433 2.37968033-2.00394133 0.12524634-4.25837533 0.375739-6.63805565 0.50098532-2.37968034 0.12524634-5.260346 0.12524634-8.64199699 0.12524633-3.25640465 0-7.38953366 0-11.89840164-0.12524633-4.63411433-0.12524634-10.27019932-0.12524634-16.90825498-0.50098532-9.14298233-0.375739-18.28596464-0.751478-27.1784543-0.87672435-8.76724333-0.12524634-17.03350132 0-24.79877397 0.12524635-1.12721701 0-2.00394133 0.375739-2.37968033 0.87672432-0.50098533 0.751478-0.87672434 2.00394133-0.87672432 4.00788266 0 5.51083865 0 11.02167733-0.12524634 16.53251598-0.12524634 5.51083865-0.12524634 10.64593832-0.12524634 15.40529898 0 4.75936066 0 8.76724333 0.12524634 12.52463332 0.12524634 3.50689733 0.12524634 6.01182399 0.50098532 7.51477998 0.375739 2.88066566 1.62820233 4.75936066 3.88263633 5.88657766 2.00394133 1.12721701 5.00985333 0.87672434 8.39150433-0.75147799 4.75936066-1.878695 9.39347499-4.00788267 13.77709664-6.63805566 4.25837533-2.50492665 8.39150433-5.51083865 12.64987966-8.64199699 1.50295599-1.25246333 1.878695-2.50492665 0.751478-3.63214367-3.13115834-3.25640465-6.26231666-6.38756299-9.51872133-9.51872132-3.13115834-2.88066566-6.63805565-5.260346-10.64593832-7.51477999-4.00788267-2.25443399-7.139041-3.63214365-9.51872131-4.63411432-1.878695-0.375739-3.13115834-1.25246333-3.88263632-2.50492666-0.751478-1.25246333-0.87672434-2.63017299-0.37573901-4.00788267 0.50098533-1.25246333 1.878695-2.37968034 3.63214366-3.25640465 1.878695-0.87672434 4.38362166-1.12721701 7.76527266-0.751478 1.878695 0.12524634 6.38756299 2.00394133 13.90234298 5.26034598s17.78497932 8.01576532 31.06109063 14.15283566c3.63214365 1.878695 8.39150433 3.63214365 14.15283563 5.63608498 5.63608499 2.00394133 11.39741632 3.88263632 17.40924031 5.636085 6.01182399 1.878695 11.89840165 3.25640465 17.78497931 4.75936065 5.88657765 1.50295599 10.77118466 2.37968034 15.02955998 3.13115833 3.25640465 0.375739 5.51083865 1.25246333 6.387563 2.63017299 1.37770966 1.62820233 1.12721701 3.75739-0.12524634 6.88854834zM511.624261 305.7192893c-3.63214365 7.89051899-7.89051899 14.52857464-12.90037232 20.16465962-5.00985333 5.51083865-10.39544565 9.51872131-16.53251596 11.89840166-6.01182399 2.75541933-11.02167733 4.63411433-15.28005266 5.63608499-4.00788267 1.12721701-7.89051899 1.25246333-11.52266264 0.87672433-3.63214365-0.375739-7.139041-1.62820233-10.64593832-3.25640466-3.50689733-1.878695-7.51477999-4.63411433-12.52463332-8.01576532-4.25837533-2.88066566-9.76921399-6.76330199-16.2820233-11.52266266-6.63805565-4.63411433-13.40135764-9.39347499-20.16465965-13.90234297-6.76330199-4.63411433-13.40135764-9.14298233-19.66367431-13.52660397-6.26231666-4.38362166-11.39741632-7.89051899-15.40529896-10.64593833-3.63214365-2.37968034-7.51477999-4.75936066-11.89840167-7.01379465-4.38362166-2.25443399-8.76724333-4.38362166-13.40135764-6.26231666-4.63411433-2.00394133-8.76724333-3.63214365-12.90037232-5.00985333-4.00788267-1.25246333-7.51477999-2.37968034-10.14495299-2.88066567-5.63608499-1.25246333-9.14298233-2.50492665-10.64593831-3.88263632-1.25246333-1.25246333-2.00394133-3.63214365-2.00394132-7.01379465 0-2.37968034 0.87672434-4.63411433 2.75541932-6.763302 1.878695-2.00394133 6.26231666-4.63411433 13.02561864-7.13904099 4.25837533-1.878695 7.89051899-2.50492665 11.39741633-2.50492667 3.25640465 0.12524634 7.89051899 1.62820233 13.90234297 4.75936067 2.88066566 1.50295599 9.14298233 4.25837533 18.53645732 7.89051898 9.39347499 3.88263632 19.6636743 7.76527266 31.06109062 11.89840167 11.39741632 4.25837533 22.54433996 8.26625798 33.81650996 12.27414063 11.14692365 3.88263632 20.16465963 7.01379465 27.17845428 9.017736 2.88066566 0.87672434 7.139041 2.25443399 12.52463331 3.63214366 5.260346 1.50295599 10.39544565 2.88066566 15.78103798 4.63411432 5.260346 1.50295599 10.14495299 2.75541933 14.52857464 3.88263633 4.38362166 1.12721701 7.38953366 1.62820233 8.76724334 2.00394132 5.13509966 1.25246333 8.26625798 2.63017299 9.14298232 3.88263633 1.37770966 0.751478 1.25246333 3.13115834-0.50098534 6.88854834zM519.38953366 444.36698009c4.00788267-3.63214365 11.77315532-6.63805565 23.29581796-9.01773598 10.39544565-2.00394133 25.92599096-5.88657765 46.0906506-11.02167733 20.16465963-5.260346 47.34311394-12.52463332 81.28487021-21.41712297 6.26231666-1.878695 10.77118466-2.63017299 13.40135767-2.00394132 2.63017299 0.375739 4.25837533 1.878695 5.13509965 4.25837533 0.375739 0.87672434 0.375739 2.00394133 0 3.13115833-0.375739 1.25246333-1.12721701 2.63017299-2.50492666 4.00788265-1.25246333 1.50295599-3.50689733 3.25640465-6.26231666 5.63608501-2.88066566 2.25443399-7.01379465 5.13509966-12.52463332 8.3915043-3.63214365 2.37968034-10.27019932 5.88657765-20.16465964 10.39544565-9.76921399 4.63411433-20.66564497 9.39347499-33.06503195 14.65382099-12.27414065 5.260346-24.42303497 10.27019932-36.69717561 14.90431365-12.27414065 4.63411433-22.41909364 8.39150433-30.43485896 11.0216773-7.89051899 2.37968034-15.02955997 2.25443399-21.66761563-0.75147799-6.63805565-2.88066566-10.27019932-7.89051899-10.77118467-15.28005264-0.751478-7.51477999 0.87672434-13.27611132 4.88460701-16.90825498zM659.91591945 603.93080854c3.13115834-2.88066566 6.01182399-4.38362166 9.017736-4.75936067 2.88066566-0.375739 6.26231666 0.375739 9.89446032 2.25443399 14.15283565 6.38756299 25.6754983 11.52266264 34.69323428 15.40529899 9.01773598 3.88263632 16.15677697 6.63805565 21.04138396 8.39150433 4.00788267 1.25246333 5.88657765 3.13115834 5.88657768 5.13509965 0 2.00394133-1.25246333 3.63214365-4.00788267 4.38362166-5.63608499 2.00394133-12.52463332 2.88066566-20.54039865 2.88066567-7.89051899 0-15.78103798-0.50098533-23.29581797-1.62820233-7.51477999-1.12721701-14.52857464-2.75541933-20.54039862-4.75936065-6.26231666-2.00394133-10.39544565-4.38362166-12.90037232-6.763302-6.76330199-6.88854833-6.63805565-13.77709665 0.75147799-20.54039864z" fill="#FFFFFF" p-id="3249"></path><path d="M923.55945076 455.88964275c-3.88263632 4.63411433-8.64199699 9.14298233-13.90234299 13.40135764-7.89051899 6.01182399-15.40529899 9.14298233-22.79483263 9.769214-7.38953366 0.375739-16.2820233-1.62820233-26.92796163-6.011824-5.63608499-2.37968034-11.39741632-4.38362166-16.65776232-6.01182399-5.51083865-1.62820233-11.14692365-2.88066566-17.40924031-4.00788267-6.26231666-1.12721701-13.02561865-1.878695-20.4151523-2.630173-7.38953366-0.50098533-15.78103798-1.25246333-25.17451296-1.87869498-2.37968034-0.375739-5.63608499-0.375739-9.89446032-0.37573901h-26.92796163c-4.38362166 0-7.51477999 0.12524634-9.76921398 0.37573901-17.28399398 2.25443399-31.93781495 4.25837533-44.08670928 6.63805565-12.27414065 2.25443399-20.03941331 4.25837533-23.29581797 5.63608499-7.139041 3.25640465-13.15086498 4.25837533-17.7849793 2.630173-4.63411433-1.62820233-7.38953366-6.26231666-7.89051898-13.77709665-0.375739-1.878695-0.375739-3.25640465-0.12524634-4.25837532 0.12524634-1.12721701 0.751478-2.25443399 1.62820233-3.63214366 0.87672434-1.25246333 2.37968034-2.88066566 4.25837531-4.75936067 2.00394133-1.878695 4.63411433-4.00788267 7.890519-6.76330199 7.01379465-6.01182399 13.40135764-9.51872131 19.41318164-10.64593831 6.01182399-1.12721701 10.39544565-1.12721701 13.52660398-0.12524634 2.37968034 0.50098533 5.88657765 1.25246333 10.39544565 1.87869499 4.63411433 0.50098533 8.76724333 0.50098533 12.64987965 0 3.25640465-0.375739 7.38953366-0.50098533 11.89840166-0.75147798 4.63411433-0.12524634 9.51872131-0.375739 14.65382098-0.751478 4.63411433 0 7.89051899-0.50098533 9.89446031-1.87869501 2.00394133-1.25246333 2.88066566-4.00788267 2.75541934-8.64199699v-108.96430984c0-4.63411433-0.87672434-7.38953366-2.88066567-8.64199699-2.00394133-1.25246333-4.75936066-1.62820233-8.39150433-1.25246334-9.89446032 0.87672434-17.78497932 2.00394133-23.4210643 3.13115834-5.63608499 1.25246333-10.27019932 2.63017299-13.52660398 4.00788266-7.51477999 3.25640465-12.90037231 5.00985333-15.9062843 4.75936065-3.13115834-0.12524634-5.13509966-1.25246333-5.63608499-3.25640465-0.87672434-5.51083865-0.375739-11.14692365 1.878695-17.28399398 2.00394133-6.01182399 5.63608499-11.39741632 10.77118465-16.28202332 4.75936066-4.75936066 10.39544565-7.51477999 16.65776231-8.3915043 6.26231666-0.751478 11.89840165-0.375739 16.65776231 1.12721699 4.25837533 1.25246333 8.76724333 2.00394133 13.77709665 2.25443399 5.00985333 0.375739 12.27414065 0.12524634 21.79286196-0.37573899 9.01773598-0.50098533 18.03547198-0.751478 26.92796162-0.75147799 8.76724333 0.12524634 19.03744264 0 30.43485896-0.75147801 10.77118466-0.50098533 19.03744264-0.87672434 24.54828131-0.75147801 5.51083865 0.12524634 10.77118466 0.375739 15.9062843 0.75147801 4.63411433 0.50098533 7.76527266 1.50295599 9.51872132 2.75541933 1.878695 1.25246333 2.75541933 2.88066566 2.75541935 5.51083866-0.375739 7.01379465-1.62820233 11.52266264-4.25837535 13.90234297-2.50492665 2.37968034-7.89051899 4.38362166-15.90628431 5.88657767-3.88263632 0.50098533-10.14495299 1.12721701-18.5364573 1.62820232-8.39150433 0.375739-17.28399398 0.50098533-26.17648364 0.12524635-4.25837533 0.375739-7.51477999 1.50295599-10.14495298 3.25640465-2.63017299 2.00394133-3.88263632 4.63411433-3.88263631 7.89051899 0.375739 14.52857464 0.50098533 31.18633695 0.75147798 49.84804059 0.12524634 18.91219631 0.50098533 37.94963895 1.12721701 57.61331326 0 4.63411433 0.751478 7.51477999 2.50492665 8.76724332 1.62820233 1.25246333 5.00985333 1.878695 9.76921399 1.62820233 6.01182399 0 12.14889432 0 18.16071832-0.12524634 6.01182399-0.12524634 11.52266264-0.375739 16.53251597-0.375739 5.00985333-0.12524634 9.39347499-0.12524634 13.02561865-0.12524633h8.39150433c22.04335464 0.375739 37.94963895 0.375739 48.09459192 0 10.14495299-0.375739 16.90825497-0.50098533 20.16465963-0.87672433 7.01379465-0.87672434 8.26625798 2.88066566 4.00788266 11.77315532-3.75739 7.38953366-7.38953366 13.40135764-11.3974163 18.16071831zM796.81016159 643.63389616c-2.37968034-1.62820233-5.88657765-2.50492665-10.27019931-2.37968034-4.38362166 0-8.01576532 0.87672434-10.64593832 2.75541933-2.37968034 1.50295599-5.00985333 2.37968034-7.51477999 2.75541933-2.50492665 0.375739-6.38756299 0.12524634-11.14692366-0.50098533-2.37968034-0.12524634-6.26231666-0.50098533-11.3974163-0.87672435-5.260346-0.375739-11.02167733-0.751478-17.28399398-1.12721698-6.38756299-0.375739-12.64987964-0.50098533-18.91219632-0.75147801-6.26231666-0.12524634-11.77315532-0.12524634-16.2820233-0.12524633-10.14495299 0.12524634-20.03941331 0.50098533-29.55813463 0.87672434-9.51872131 0.50098533-20.41515231 1.25246333-32.43880029 2.37968032-2.25443399 0.12524634-3.88263632 0.12524634-4.75936065 0-0.87672434-0.12524634-2.37968034-1.12721701-4.38362166-2.88066567-3.25640465-2.50492665-7.01379465-4.00788267-11.02167732-4.25837531-4.25837533-0.12524634-7.51477999 1.12721701-10.39544565 4.00788265-2.00394133 2.25443399-3.50689733 4.00788267-4.63411433 5.88657766-1.12721701 1.878695-1.878695 3.63214365-2.25443399 5.63608499-0.375739 2.00394133-0.375739 4.25837533 0 6.76330199 0.375739 2.63017299 1.12721701 5.51083865 2.25443399 8.76724333 2.37968034 8.64199699 3.13115834 19.03744264 2.00394133 31.56207595-1.12721701 12.27414065-4.63411433 25.92599096-10.27019932 40.32931928-4.25837533 10.27019932-12.14889432 17.40924031-23.7968033 21.29187663-11.77315532 3.88263632-25.55025197 4.63411433-41.58178261 2.254434-2.88066566-0.375739-5.00985333-0.12524634-5.88657765 0.75147801-0.87672434 0.87672434-1.12721701 2.75541933-0.375739 5.26034598 1.62820233 6.76330199 5.00985333 12.64987964 9.76921398 17.7849793s11.02167733 8.39150433 18.66170364 10.27019934c7.51477999 1.62820233 14.65382098 2.00394133 21.66761564 0.87672432 7.01379465-1.25246333 13.40135764-3.13115834 19.03744265-5.88657765 5.88657765-2.75541933 10.77118466-6.26231666 15.40529897-10.27019932 4.63411433-4.00788267 8.01576532-8.39150433 10.39544565-13.02561866 2.75541933-5.13509966 5.00985333-9.76921399 6.763302-13.90234298 1.878695-4.00788267 3.50689733-8.26625798 4.75936064-12.52463331 1.25246333-4.25837533 2.37968034-8.64199699 3.13115834-13.15086498 0.751478-4.63411433 1.50295599-9.89446032 1.87869499-16.15677698 0.12524634-2.88066566 0.50098533-4.75936066 1.25246334-5.51083865 0.50098533-0.87672434 2.25443399-1.12721701 4.63411432-0.87672435 5.260346 0.375739 12.52463332 0.50098533 21.41712297 0.75147801 9.14298233 0.12524634 18.66170364 0.375739 28.80665663 0.375739s20.16465963 0 30.30961262-0.12524635c10.14495299-0.12524634 18.91219631-0.50098533 26.55222263-0.87672431 3.50689733-0.12524634 6.63805565-0.375739 9.51872131-0.12524635 2.88066566 0.12524634 5.63608499 0.375739 8.641997 0.75147801 2.88066566 0.375739 5.88657765 0.87672434 8.76724332 1.87869499 2.88066566 0.87672434 6.38756299 2.00394133 10.14495299 3.25640468 1.62820233 0.751478 3.88263632 1.12721701 6.26231665 0.87672432 2.37968034 0 4.75936066-0.50098533 7.139041-1.25246333 2.37968034-0.751478 4.38362166-1.878695 6.38756298-3.25640466 2.00394133-1.50295599 3.25640465-3.25640465 4.00788267-5.51083866 0.87672434-2.37968034 1.62820233-5.00985333 2.25443399-7.51477998 0.50098533-2.50492665 0.87672434-5.63608499 0.87672434-9.14298233 0-0.751478 0.12524634-2.37968034 0.375739-4.38362166 0.375739-2.00394133 0.50098533-4.38362166 0.75147799-6.76330198 0.375739-2.50492665 0.50098533-5.00985333 0.87672434-7.38953367 0.12524634-2.37968034 0.50098533-4.38362166 0.75147799-5.88657766 1.25246333-8.51675065-2.12918767-15.53054531-10.64593832-21.66761562z m-26.05123729 41.5817826c-1.62820233 2.00394133-4.38362166 3.13115834-8.39150431 3.13115832h-36.32143663c-10.64593832 0-20.91613764 0.12524634-30.68535162 0.37573901-9.76921399 0.375739-19.28793531 0.50098533-28.80665662 0.751478-9.51872131 0.375739-19.6636743 0.50098533-30.43485896 0.751478-3.13115834 0.12524634-5.00985333 0-5.51083866-0.375739-0.751478-0.375739-0.87672434-1.878695-0.87672434-4.25837533 0-1.50295599 0-2.88066566 0.12524634-4.38362166 0.12524634-1.25246333 0.12524634-2.75541933 0.12524634-4.00788266 0-3.25640465 0.375739-5.260346 0.75147799-6.26231666 0.50098533-0.87672434 1.62820233-1.50295599 3.63214366-1.62820234 2.50492665-0.375739 5.88657765-0.751478 9.51872133-0.87672432 12.27414065-1.12721701 27.1784543-2.00394133 44.5876946-2.37968033 17.40924031-0.375739 39.57784128-0.375739 66.38055656 0.37573899 7.38953366 0.12524634 12.14889432 0.87672434 14.15283566 1.878695 2.00394133 0.87672434 3.13115834 2.88066566 3.50689733 5.63608499 0.375739 5.38559233-0.12524634 9.26822864-1.75344867 11.27216999z" fill="#FFFFFF" p-id="3250"></path></svg>