<?xml version="1.0" standalone="no"?><!DOCTYPE svg PUBLIC "-//W3C//DTD SVG 1.1//EN" "http://www.w3.org/Graphics/SVG/1.1/DTD/svg11.dtd"><svg t="1547620208482" class="icon" style="" viewBox="0 0 1024 1024" version="1.1" xmlns="http://www.w3.org/2000/svg" p-id="2310" xmlns:xlink="http://www.w3.org/1999/xlink" width="200" height="200"><defs><style type="text/css"></style></defs><path d="M22.06093081 515.22831186C22.06093081 240.49242935 244.74852959 17.87071495 519.48441206 17.87071495a497.29171241 497.29171241 0 1 1 0 994.58342494A497.35759685 497.35759685 0 0 1 22.06093081 515.29419472z m497.35759687 433.25255708a433.31844151 433.31844151 0 1 0 0-866.57099864 433.31844151 433.31844151 0 0 0 0 866.57099864zM232.2305872 263.68356279h270.51931209v79.25833732H310.69831766v74.84411675h192.05158163v216.23097507H310.69831766v91.57862652h192.05158163v70.62754628H232.2305872v-242.18923404h195.87284861v-65.62036908H232.2305872v-224.66411439z m574.3099965 0v224.66411594h-195.87284855v65.68625196h195.87284855v242.18923404h-270.45342765v-70.62754628h191.91981426v-91.57862652h-191.91981426V417.78601686h191.91981426V342.94190011h-191.91981426V263.61767988h270.45342765z" fill="#B91D22" p-id="2311"></path></svg>