<?xml version="1.0" standalone="no"?><!DOCTYPE svg PUBLIC "-//W3C//DTD SVG 1.1//EN" "http://www.w3.org/Graphics/SVG/1.1/DTD/svg11.dtd"><svg t="1547622481235" class="icon" style="" viewBox="0 0 1820 1024" version="1.1" xmlns="http://www.w3.org/2000/svg" p-id="15494" xmlns:xlink="http://www.w3.org/1999/xlink" width="355.46875" height="200"><defs><style type="text/css"></style></defs><path d="M94.39014189 512.20842201h55.02330449v27.82428417h-55.02330449v82.84758977h89.51708108v-27.82428526h-61.69279581v-27.19901923H177.23773164v-83.47285471h-55.02330448v-27.82428417h61.69279581v-27.82428528h-89.51708108v83.47285471z" fill="#C6000B" p-id="15495"></path><path d="M189.95144934 346.40903149c-98.5834212 0-179.03416216 79.82547603-179.03416217 179.03416216s80.45074098 179.03416216 179.03416217 179.65942713c99.20868614 0 179.65942712-80.45074098 179.65942712-179.65942713 0-98.5834212-80.45074098-179.03416216-179.65942712-179.03416216z m0.62526495 330.86930401c-84.09811965 0-151.83514184-68.36228823-151.83514184-151.83514185s67.73702329-151.83514184 151.83514184-151.83514185c83.47285471 0 151.83514184 67.73702329 151.83514186 151.83514185 0 83.47285471-67.73702329 151.83514184-151.83514186 151.83514185z" fill="#C6000B" p-id="15496"></path><path d="M197.87147056 456.55985258H259.56426748v27.82428417h-55.0233056v83.47285471H259.56426748v27.82428416h-61.69279692v26.57375538h89.51708109v-83.47285471h-55.0233045V510.95789211h55.0233045v-82.22232481h-89.51708109v27.82428528zM498.83227354 589.32441735h1317.01614678v9.69160394H498.83227354z" fill="#C6000B" p-id="15497"></path><path d="M1710.49129681 385.27966161h89.72550308v27.19902034h-89.72550308v-27.19902034z m-652.151214 24.69796053h60.44226702v-28.76218215H962.57035333v28.76218215h61.48437491v107.33712938h-66.06964937v29.17902508h166.32044338v-29.17902508h-66.06965045v-107.33712938h0.10421101z m-442.06223191-35.8485164c0.52105394-1.98000475 2.5010598-1.98000475 2.50105871-4.06422162 0-1.04210789-1.45895082-2.5010598-1.98000476-2.5010587l-29.70007902-1.04210786v33.76430062h-66.48649339v108.9002901H549.27030358v-10.10844798h37.82852225v57.94120722h29.70007902v-57.94120722h37.82852224v9.58739405h29.28323611V399.86917415h-67.52860129l-0.10421101-25.74006841z m-29.17902507 98.27078817H549.27030358v-43.35169469h37.82852225V472.39989391z m29.70007902-43.76853762H655.56532397v43.35169468h-38.76641912V428.63135629z m236.87115838 36.26536043h7.6073882V444.26297671h-28.76218215v-13.65161456h32.72219276v-20.11268608h-89.72550201v19.69584206h32.72219276v13.65161566h-28.2411282v21.15479394h28.2411282V492.19994696h-35.32746355v19.69584203H867.11325689v-20.6337389c-5.52317244 0.52105394-1.98000475 0.52105394-8.02423223 0.52105394l10.62950192-9.06634012c-7.50317828-10.31687-16.04846336-17.82004719-16.04846335-17.82004719z m-7.08633535 27.19901922h-14.0684586v-27.19901922h14.0684586l-11.04634486 11.04634488s7.6073882 8.02423224 13.13056172 16.15267434h-2.08421686z m628.49536245 30.22113406c0 0.52105394-3.54316767-10.10844798-6.04422747-22.71795577-8.54528617 6.04422638-14.58951254 8.02423224-14.58951254 8.02423223v-20.11268498h22.71795576v-23.13479869h-22.71795576v-14.58951254h18.65373415v-23.65585265H1426.72527714l9.06633902-13.13056174h40.32958205l0.52105395-24.17690657h-27.19902034c1.98000475-4.58527556 4.58527556-7.08633424 5.52317244-7.6073893 1.56316181-1.04210789 3.02211374-3.02211374 1.04210898-5.52317242-11.04634486-3.54316767-17.61162628-7.08633424-25.21901557-9.58739405-7.6073882 19.69584204-19.69584204 42.83064074-35.7443054 60.44226701 9.06634011 10.10844798 11.04634486 22.19690182 11.04634487 22.19690073 7.08633424-7.08633424 9.58739404-10.10844798 9.58739407-10.10844797v10.62950191h14.06845857v14.06845861h-21.67584678v23.1347987h22.19690072v32.30534982c-9.06634011 5.00211849-22.19690182 10.62950193-22.19690072 10.62950194 6.56528031 14.0684586 9.06634011 20.6337389 10.108448 23.1347987 3.02211374 2.5010598 5.52317244-1.56316181 8.02423112-2.5010598 21.15479285-13.13056172 41.78853287-24.17690659 48.35381428-28.2411271l0.52105393 0.52105393z" fill="#231815" p-id="15498"></path><path d="M739.76765354 554.10116479h25.74006952v-7.60738819h110.35924091v7.60738819h25.74006949V375.69226757H739.76765354v178.40889722z m25.74006952-153.71093671h109.31713302v121.50979789H765.50772306V400.39022808z m512.5087359-24.69796051c0-1.98000475 1.98000475-1.98000475 1.98000474-4.06422164 0-1.04210789-1.56316181-2.5010598-1.98000474-2.50105868 0 0-15.11056648-0.52105394-30.22113296-0.52105393v16.67372829H1178.7035618v24.1769066h35.7443065s0.52105394 1.56316181 3.54316658 5.52317242c0.52105394 0.52105394 5.00211849 9.58739404 6.04422746 12.08845385h-37.82852226v126.51191637h26.26112236v-72.53071976s5.52317244 4.58527556 9.0663401 13.13056172c0 0 4.06422161-0.52105394 6.56528141-4.48106456v46.89486127h20.63373892v-4.06422052h30.74218688v4.06422052h19.17478812c4.58527556 9.58739404 4.06422161 18.13268021 4.06422161 18.13268021h5.52317243c19.69584204-0.52105394 32.30534983-8.02423224 32.30534982-22.19690073V426.54714053H1304.79863524l8.02423223-18.13268022h35.74430538v-24.17690658h-70.55071389v-8.54528616z m-65.96543945 97.22868028v-20.63373891h26.15691244c-6.04422638 8.02423224-26.15691245 20.6337389-26.15691244 20.63373891z m65.96543945 39.80852811h-29.70007902v-15.63162152h29.70007902v15.63162152z m4.06422159-36.26536043h-34.28535455s2.5010598-1.45895082 9.066339-8.54528617c3.54316767-0.52105394 5.00211849-1.98000475 3.02211374-5.00211849l-11.04634486-11.04634485h33.24324667s-4.58527556 7.08633424-12.08845382 13.65161565c6.56528031 4.89790748 9.58739404 8.96212912 12.08845382 10.94213386z m32.72219166 44.91485651c0 1.04210789-2.5010598 4.48106454-4.58527446 4.48106454h-11.04634594V490.1157312l6.04422636 5.52317242c5.52317244-7.08633424 9.58739404-13.13056172 9.58739404-13.13056173V521.37897204z m0-69.0917631V472.39989391s-14.0684586-11.56739881-27.72007315-20.11268497h27.72007315z m-31.15902981-41.78853287l-8.54528618 17.09057234h-22.71795576l-7.60738821-17.09057234h38.87063015z m268.55124325 93.16445978c6.04422638-4.06422161 15.11056648-11.04634486 18.1326791-13.13056173 1.04210789-0.52105394 3.54316767-3.02211374 4.06422163-3.02211264s1.04210789-1.04210789 0.52105393-1.4589519c-3.02211374-4.06422161-12.60950778-16.67372829-12.60950668-17.09057234l-20.63374001 16.67372942c-3.02211374-6.56528031-5.00211849-17.61162628-5.00211849-17.61162628l28.76218215-0.52105395 0.52105394-91.18445391h-84.61917251V525.54740466l-12.08845383 6.04422636c8.02423224 14.58951254 9.58739404 22.71795577 9.58739404 22.71795577 1.04210789 1.04210789 1.04210789 1.04210789 1.45895081 1.0421079s0 1.04210789 4.06422162-2.5010598c9.58739404-4.58527556 34.80640851-19.17478809 40.32958095-22.71795468 8.02423224-4.58527556 1.04210789-0.52105394 3.02211373-2.50105978-2.5010598-9.06634011-1.56316181-19.17478809-1.56316181-19.1747881 13.13056172 23.65585264 28.24112821 38.76641912 36.26535932 45.33170054 8.02423224-12.60950778 19.17478809-22.71795577 19.17478809-22.71795578-24.2811176-11.25476687-29.38744709-27.40744124-29.38744598-27.40744124z m-46.79065135-105.2529125h36.26535932v14.0684586h-36.26535932V398.41022335z m0 115.88241444v-46.37380843h5.52317241c0 2.5010598 4.58527556 21.67584679 12.08845276 38.34957619 0.52105394-0.10421101-9.58739404 4.48106454-17.61162517 8.02423224z m0-68.57070918v-13.65161566h36.26535932v13.65161566h-36.26535932z m135.05720254-8.54528615c13.13056172-9.06634011 27.72007425-24.17690659 29.70007901-26.15691245 2.5010598-1.98000475 13.65161566-14.0684586 13.65161566-14.06845858 5.52317244-4.06422161 5.00211849-3.02211374 7.5031772-3.54316658 3.02211374-1.04210789 2.5010598-3.02211374 3.02211373-3.02211374 1.04210789-1.98000475-1.04210789-3.54316767-8.54528616-11.56739881-3.02211374-3.02211374-11.56739881-11.04634486-11.56739881-11.04634596-12.60950778 19.17478809-33.76430063 37.3074683-45.33170055 45.85275448 6.46107041 6.35685939 11.56739881 23.55164164 11.56739992 23.55164164z m66.48649339-2.50105981c1.04210789-1.04210789 3.02211374-1.98000475 3.02211262-1.98000474 1.98000475-0.52105394 3.02211374-3.02211374 3.54316768-4.06422162 0-1.04210789-1.45895082-2.5010598-10.62950193-10.10844799 0 0-1.04210789-1.04210789-8.54528616-9.58739404-16.67372829 24.17690659-40.85063489 47.4159163-62.52648278 61.48437489 7.08633424 6.56528031 12.08845384 25.21901448 12.08845385 25.21901447l13.65161457-11.04634486h0.52105394v70.02965996h26.67796637v-92.74761573c7.6073882-7.6073882 19.17478809-22.71795577 19.17478809-22.71795578v22.71795578h49.91697501v62.52648278c0 4.48106454-5.00211849 5.00211849-5.00211849 5.0021185h-16.15267438c10.62950193 12.60950778 8.54528617 24.17690659 9.06634013 28.24112818h3.02211263c17.09057232-1.04210789 36.78641437-1.45895082 37.82852224-24.69796053v-71.59282287h23.65585265v-26.6779664h-99.31289604z" fill="#231815" p-id="15499"></path><path d="M521.55022931 646.01509464v43.56011561h-5.94001537v-43.56011561h5.94001537zM535.4102659 646.01509464l20.00847506 32.40955975h0.20842202v-32.40955975h5.94001535v43.56011561h-5.83580543L535.51447691 656.8530186h-0.20842092v32.72219165h-5.94001647v-43.56011561h6.04422638zM583.55565816 646.01509464c6.35685939 0 11.04634486 1.98000475 14.38109052 5.94001538 3.02211374 3.64737868 4.58527556 8.96212912 4.58527557 15.84004244s-1.56316181 12.08845384-4.68948548 15.94425344c-3.33474565 3.8557996-8.02423224 5.83580546-14.38109162 5.83580435h-14.17266961v-43.56011561h14.27688062z m-8.23265314 37.82852227h7.08633424c4.89790748 0 8.64949717-1.35474091 10.94213385-3.96001061 2.29263779-2.6052697 3.43895667-6.66949133 3.43895668-12.08845384 0-5.62738344-1.14631889-9.58739404-3.33474567-12.19266376-2.29263779-2.6052697-5.94001537-3.8557996-10.83792284-3.8557996h-7.29475626v32.09692781zM614.61047808 646.01509464v27.09480934c0 3.8557996 0.72947596 6.77370233 2.39684768 8.64949607 1.66737282 1.87579484 4.27264253 2.81369172 7.81581131 2.81369173 3.54316767 0 6.04422638-0.93789688 7.7115992-2.81369173 1.56316181-1.87579484 2.39684878-4.79369647 2.39684879-8.64949607v-27.09480934h5.94001536v26.99059832c0 5.62738344-1.45895082 10.00423696-4.27264253 13.02635072-2.81369172 2.91790272-6.77370233 4.48106454-11.88003183 4.48106456-5.21054051 0-9.17055112-1.45895082-11.88003182-4.37685354-2.81369172-3.02211374-4.27264253-7.39896727-4.27264363-13.02635072v-26.99059832h6.04422747zM673.07273924 648.30773243c2.70948071 2.29263779 4.27264253 5.73159445 4.68948548 10.52529093h-5.94001537c-0.52105394-2.81369172-1.56316181-4.89790748-3.02211374-6.04422637-1.56316181-1.25052989-3.7515886-1.87579484-6.66949133-1.87579484-2.6052697 0-4.58527556 0.41684292-5.94001536 1.25052989-1.66737282 0.93789688-2.5010598 2.6052697-2.50105978 4.79369647 0 1.98000475 0.93789688 3.43895667 2.91790271 4.58527557 0.83368696 0.52105394 3.12632364 1.45895082 6.77370235 2.70948071 5.31475152 1.87579484 8.75370708 3.23053465 10.21265897 4.27264363 3.33474565 2.29263779 5.00211849 5.31475152 5.00211851 9.37897203 0 3.8557996-1.35474091 6.98212434-4.06422163 9.17055112-2.70948071 2.18842677-6.56528031 3.33474565-11.56739881 3.33474566-4.79369647 0-8.54528617-1.14631889-11.15055586-3.12632365-3.23053465-2.6052697-5.00211849-6.56528031-5.31475151-12.08845384h5.94001536c0.41684292 3.43895667 1.56316181 5.94001537 3.33474677 7.39896727 1.56316181 1.35474091 3.96001061 1.98000475 7.29475625 1.98000477 2.91790272 0 5.31475152-0.62526494 7.08633427-1.66737284s2.6052697-2.6052697 2.6052697-4.58527556c0-2.39684878-1.25052989-4.37685354-3.75158859-5.73159334-0.83368696-0.52105394-3.43895667-1.45895082-7.81581022-2.91790274-4.79369647-1.66737282-7.81581021-2.81369172-8.96212909-3.64737868-3.02211374-1.98000475-4.48106454-4.89790748-4.48106455-8.75370709s1.45895082-6.87791334 4.37685354-9.0663401c2.70948071-2.08421576 6.14843738-3.12632364 10.31687001-3.12632364 4.48106454 0 8.02423224 1.04210789 10.62950192 3.23053464zM713.19389926 646.01509464v5.62738345h-13.0263507v37.82852226h-5.94001645V651.64247809h-13.13056063v-5.62738345h32.09692778zM735.28658901 646.01509464c3.96001061 0 7.08633424 0.93789688 9.48318302 3.02211264 2.39684878 2.18842677 3.64737868 5.31475152 3.6473787 9.48318417 0 2.29263779-0.52105394 4.37685354-1.66737284 6.04422635-1.25052989 1.98000475-2.91790272 3.23053465-5.1063295 3.8557996v0.10421102c3.54316767 0.83368696 5.41896142 3.43895667 5.83580546 7.71159921l0.62526385 6.98212432c0.20842201 2.70948071 0.93789688 4.79369647 2.29263777 6.3568583h-6.4610693c-0.93789688-1.35474091-1.45895082-3.33474565-1.66737282-5.73159334l-0.52105396-5.41896252c-0.20842201-2.39684878-0.93789688-4.16843262-2.08421685-5.21053941-1.25052989-1.14631889-2.91790272-1.56316181-5.10632839-1.56316292h-10.62950305v18.0284692h-5.94001535v-43.5601156h17.29899326z m-11.35897791 19.80005307h10.62950305c2.6052697 0 4.58527556-0.62526494 5.94001537-1.87579486 1.25052989-1.25052989 1.87579484-3.02211374 1.87579483-5.3147515 0-2.39684878-0.62526494-4.16843262-1.87579483-5.31475041-1.35474091-1.14631889-3.33474565-1.66737282-6.04422639-1.66737285h-10.52529203v14.17266962zM761.96455537 646.01509464v43.56011561h-5.94001644v-43.56011561h5.94001644zM787.80883479 646.01509464l15.11056648 43.56011561h-6.46106931l-3.64737868-11.25476687h-16.88215033l-3.64737756 11.25476687h-6.3568594l15.11056647-43.56011561h6.77370233z m3.12632366 26.7821763l-6.46106931-19.69584202h-0.20842202l-6.5652803 19.69584202h13.23477163zM812.61100632 646.01509464v37.82852227h21.5716369v5.62738344H806.67098987v-43.56011671h5.94001645zM875.45012104 646.01509464l15.11056647 43.56011561h-6.4610693l-3.64737869-11.25476687h-16.88215031l-3.64737757 11.25476687H853.56585222l15.11056648-43.56011561h6.77370234z m3.23053465 26.7821763l-6.46106931-19.69584202h-0.20842202l-6.56528032 19.69584202h13.23477165zM900.46071459 646.01509464l20.00847396 32.40955975h0.20842202v-32.40955975h5.94001537v43.56011561h-5.83580437L900.5649256 656.8530186h-0.20842201v32.72219165h-5.94001647v-43.56011561h6.04422747zM948.60610574 646.01509464c6.35685939 0 11.04634486 1.98000475 14.38109163 5.94001538 3.02211374 3.64737868 4.58527556 8.96212912 4.58527445 15.84004244s-1.56316181 12.08845384-4.68948546 15.94425344c-3.33474565 3.8557996-8.02423224 5.83580546-14.38109163 5.83580435h-14.1726685v-43.56011561h14.27687951z m-8.23265315 37.82852227h7.08633426c4.89790748 0 8.64949717-1.35474091 10.94213494-3.96001061 2.29263779-2.6052697 3.43895667-6.66949133 3.43895669-12.08845384 0-5.62738344-1.14631889-9.58739404-3.33474567-12.19266376-2.29263779-2.6052697-5.94001537-3.8557996-10.83792395-3.8557996h-7.19054525v32.09692781zM1020.30313964 649.03720728c2.81369172 2.6052697 4.58527556 6.04422638 5.2105405 10.52529203h-5.83580545c-0.62526494-2.91790272-1.87579484-5.1063295-3.75158859-6.56528141-1.87579484-1.35474091-4.16843262-2.08421576-6.98212435-2.08421575-4.27264253 0-7.39896727 1.56316181-9.58739404 4.79369756-1.98000475 2.91790272-3.02211374 6.98212434-3.02211375 11.98424174 0 5.21054051 0.93789688 9.27476213 2.91790273 12.08845385 2.08421576 3.02211374 5.31475152 4.58527556 9.69160506 4.58527554 2.81369172 0 5.31475152-0.83368696 7.08633427-2.39684876 1.98000475-1.66737282 3.33474565-4.27264253 4.06422161-7.71159921h5.83580545c-0.83368696 5.1063295-2.91790272 9.06634011-6.14843738 11.88003183-3.02211374 2.70948071-6.66949133 4.06422161-10.83792395 4.06422052-6.46107041 0-11.25476687-2.29263779-14.48530152-6.77370234-2.81369172-3.8557996-4.27264253-9.17055112-4.27264364-15.73583143 0-6.46107041 1.45895082-11.67160982 4.37685464-15.73583143 3.33474565-4.58527556 8.02423224-6.87791334 14.27687951-6.87791223 4.68948656 0 8.44107516 1.35474091 11.4631889 3.96000949zM1063.55062332 651.53826708c3.33474565 4.06422161 4.89790748 9.48318303 4.89790748 16.25688538 0 6.66949133-1.66737282 11.98424283-4.89790748 16.15267434-3.43895667 4.27264253-8.12844324 6.35685939-14.0684586 6.35685942s-10.73371294-2.18842677-14.0684586-6.46106931c-3.33474565-4.16843262-4.89790748-9.48318303-4.89790748-16.04846445 0-6.66949133 1.56316181-11.98424283 4.89790748-16.15267437 3.43895667-4.37685354 8.12844324-6.56528031 14.0684586-6.5652803 5.83580546 0 10.52529092 2.18842677 14.0684586 6.46106929z m-23.86427468 4.16843263c-2.18842677 3.02211374-3.33474565 6.98212434-3.33474565 12.08845275 0 5.1063295 1.14631889 9.06634011 3.33474565 12.08845384 2.29263779 3.02211374 5.52317244 4.58527556 9.69160507 4.58527556s7.39896727-1.56316181 9.69160505-4.48106565c2.18842677-2.91790272 3.33474565-6.98212434 3.33474566-12.19266375 0-5.21054051-1.14631889-9.27476213-3.33474566-12.29687476-2.29263779-3.02211374-5.52317244-4.48106454-9.69160505-4.48106454s-7.39896727 1.45895082-9.69160507 4.68948655zM1081.57909251 646.01509464l13.65161568 34.91061954h0.20842092l13.65161567-34.91061954h7.08633425v43.56011561h-5.94001536v-31.0548188h-0.20842203l-11.98424173 31.0548188h-5.1063295l-11.98424284-31.0548188h-0.20842202v31.0548188h-5.94001536v-43.56011561h6.77370232zM1130.87080257 646.01509464l13.65161566 34.91061954h0.20842203l13.65161455-34.91061954h7.08633536v43.56011561h-5.94001646v-31.0548188h-0.20842092l-11.98424284 31.0548188h-5.10632949l-11.98424285-31.0548188h-0.2084209v31.0548188h-5.94001647v-43.56011561h6.77370233zM1201.10888455 646.01509464v5.62738345h-22.19690074v12.71371771h20.84216093v5.62738344h-20.84216093v13.86003767h23.1347987v5.62738344h-29.07481515v-43.56011671h28.13691719zM1225.49421316 646.01509464c3.96001061 0 7.08633424 0.93789688 9.48318302 3.02211264 2.39684878 2.18842677 3.64737868 5.31475152 3.6473787 9.48318417 0 2.29263779-0.52105394 4.37685354-1.66737284 6.04422635-1.25052989 1.98000475-2.91790272 3.23053465-5.10632949 3.8557996v0.10421102c3.54316767 0.83368696 5.41896142 3.43895667 5.83580435 7.71159921l0.62526496 6.98212432c0.20842201 2.70948071 0.93789688 4.79369647 2.29263778 6.3568583h-6.46106932c-0.93789688-1.35474091-1.45895082-3.33474565-1.66737282-5.73159334l-0.52105395-5.41896252c-0.20842201-2.39684878-0.93789688-4.16843262-2.08421686-5.21053941-1.25052989-1.14631889-2.91790272-1.56316181-5.10632948-1.56316292H1214.13523528v18.0284692h-5.94001538v-43.5601156h17.29899326z m-11.35897788 19.80005307h10.62950193c2.6052697 0 4.58527556-0.62526494 5.94001645-1.87579486 1.25052989-1.25052989 1.87579484-3.02211374 1.87579485-5.3147515 0-2.39684878-0.62526494-4.16843262-1.87579485-5.31475041-1.35474091-1.14631889-3.33474565-1.66737282-6.04422638-1.66737285H1214.13523528v14.17266962zM1274.47329127 649.03720728c2.81369172 2.6052697 4.58527556 6.04422638 5.21054052 10.52529203h-5.83580546c-0.62526494-2.91790272-1.87579484-5.1063295-3.75158858-6.56528141-1.87579484-1.35474091-4.16843262-2.08421576-6.98212436-2.08421575-4.27264253 0-7.39896727 1.56316181-9.58739405 4.79369756-1.98000475 2.91790272-3.02211374 6.98212434-3.02211264 11.98424174 0 5.21054051 0.93789688 9.27476213 2.91790272 12.08845385 2.08421576 3.02211374 5.31475152 4.58527556 9.69160397 4.58527554 2.81369172 0 5.31475152-0.83368696 7.08633536-2.39684876 1.98000475-1.66737282 3.33474565-4.27264253 4.0642205-7.71159921h5.83580546c-0.83368696 5.1063295-2.91790272 9.06634011-6.14843738 11.88003183-3.02211374 2.70948071-6.66949133 4.06422161-10.83792394 4.06422052-6.46107041 0-11.25476687-2.29263779-14.48530153-6.77370234-2.81369172-3.8557996-4.27264253-9.17055112-4.27264253-15.73583143 0-6.46107041 1.45895082-11.67160982 4.37685354-15.73583143 3.33474565-4.58527556 8.02423224-6.87791334 14.27687952-6.87791223 4.68948656 0 8.44107516 1.35474091 11.46318888 3.96000949zM1292.29333845 646.01509464v43.56011561h-5.94001534v-43.56011561h5.94001534zM1318.13761897 646.01509464l15.11056648 43.56011561h-6.4610704l-3.64737757-11.25476687h-16.88215032l-3.64737869 11.25476687h-6.35685939l15.11056757-43.56011561h6.77370232z m3.12632365 26.7821763l-6.46107041-19.69584202h-0.2084209l-6.5652814 19.69584202h13.23477271zM1342.93978942 646.01509464v37.82852227h21.57163688v5.62738344h-27.51165224v-43.56011671h5.94001536zM1405.5704832 646.01509464c3.8557996 0 6.77370233 0.93789688 8.9621291 3.02211264 2.08421576 1.98000475 3.12632364 4.58527556 3.12632475 7.92002123 0 2.39684878-0.52105394 4.48106454-1.66737282 6.25264839-1.14631889 1.56316181-2.6052697 2.81369172-4.58527557 3.64737868 2.6052697 0.52105394 4.58527556 1.66737282 5.83580435 3.43895668 1.35474091 1.77158383 1.98000475 4.16843262 1.98000585 7.08633425 0 4.37685354-1.35474091 7.6073882-4.06422161 9.58739404-2.29263779 1.66737282-5.52317244 2.6052697-9.69160505 2.6052697h-17.92425821v-43.56011561h18.02846921z m-11.88003183 18.44531216h10.31687001c2.70948071 0 4.68948656-0.52105394 5.94001537-1.56316182 1.25052989-1.14631889 1.77158383-2.81369172 1.77158382-5.10632951 0-2.18842677-0.62526494-3.7515886-1.77158382-4.79369757-1.25052989-1.04210789-3.23053465-1.56316181-5.83580435-1.56316182h-10.42108103v13.02635072z m0 19.59163102h11.04634596c2.5010598 0 4.48106454-0.52105394 5.94001538-1.3547398 1.77158383-1.14631889 2.70948071-3.02211374 2.70948071-5.52317352 0-2.6052697-0.72947596-4.48106454-2.08421578-5.62738345s-3.54316767-1.66737282-6.35685938-1.66737282h-11.25476689v14.17266959zM1443.50321646 646.01509464l15.11056649 43.56011561h-6.46107042l-3.64737757-11.25476687h-16.88215032l-3.64737869 11.25476687h-6.3568583l15.1105665-43.56011561h6.77370231z m3.12632364 26.7821763l-6.4610693-19.69584202h-0.20842201l-6.56528033 19.69584202h13.23477164zM1468.4095979 646.01509464l20.00847507 32.40955975h0.20842202v-32.40955975h5.94001536v43.56011561h-5.83580546l-20.21689597-32.72219165h-0.20842092v32.72219165h-5.94001646v-43.56011561h6.04422636zM1534.8960913 646.01509464l-17.29899327 18.75794518 19.90426408 24.80217043h-8.02423224l-15.94425344-20.52952788-5.1063295 5.41896141v15.00635657h-5.94001537v-43.56011671h5.94001537v21.05058295l18.96636717-21.05058295h7.5031772zM1590.96150477 651.53826708c3.33474565 4.06422161 4.89790748 9.48318303 4.89790749 16.25688538 0 6.66949133-1.66737282 11.98424283-4.89790749 16.15267434-3.43895667 4.27264253-8.12844324 6.35685939-14.06845859 6.35685942s-10.73371294-2.18842677-14.0684586-6.46106931c-3.33474565-4.16843262-4.89790748-9.48318303-4.89790858-16.04846445 0-6.66949133 1.56316181-11.98424283 4.89790858-16.15267437 3.43895667-4.37685354 8.12844324-6.56528031 14.0684586-6.5652803 5.83580546 0 10.62950193 2.18842677 14.06845859 6.46106929z m-23.86427465 4.16843263c-2.18842677 3.02211374-3.33474565 6.98212434-3.33474566 12.08845275 0 5.1063295 1.14631889 9.06634011 3.33474566 12.08845384 2.29263779 3.02211374 5.52317244 4.58527556 9.69160506 4.58527556s7.39896727-1.56316181 9.69160505-4.48106565c2.18842677-2.91790272 3.33474565-6.98212434 3.33474566-12.19266375 0-5.21054051-1.14631889-9.27476213-3.33474566-12.29687476-2.29263779-3.02211374-5.52317244-4.48106454-9.69160505-4.48106454s-7.39896727 1.45895082-9.69160506 4.68948655zM1628.477394 646.01509464v5.62738345h-20.6337389v12.71371771h19.48742001v5.62738344h-19.48742001v19.48742111h-5.94001647v-43.56011671h26.57375537zM1680.37437485 649.03720728c2.81369172 2.6052697 4.58527556 6.04422638 5.21054051 10.52529203h-5.83580546c-0.62526494-2.91790272-1.87579484-5.1063295-3.75158859-6.56528141-1.87579484-1.35474091-4.16843262-2.08421576-6.98212435-2.08421575-4.27264253 0-7.39896727 1.56316181-9.58739404 4.79369756-1.98000475 2.91790272-3.02211374 6.98212434-3.02211373 11.98424174 0 5.21054051 0.93789688 9.27476213 2.91790272 12.08845385 2.08421576 3.02211374 5.31475152 4.58527556 9.69160505 4.58527554 2.81369172 0 5.31475152-0.83368696 7.08633427-2.39684876 1.98000475-1.66737282 3.33474565-4.27264253 4.06422161-7.71159921h5.83580545c-0.83368696 5.1063295-2.91790272 9.06634011-6.14843738 11.88003183-3.02211374 2.70948071-6.66949133 4.06422161-10.83792395 4.06422052-6.46107041 0-11.25476687-2.29263779-14.48530152-6.77370234-2.81369172-3.8557996-4.27264253-9.17055112-4.27264364-15.73583143 0-6.46107041 1.45895082-11.67160982 4.37685463-15.73583143 3.33474565-4.58527556 8.02423224-6.87791334 14.27687952-6.87791223 4.68948656 0 8.44107516 1.35474091 11.4631889 3.96000949zM1698.09021102 646.01509464v18.34110116h20.52952901v-18.34110116h5.94001536v43.56011561h-5.94001536v-19.48742001h-20.52952901v19.48742001h-5.94001537v-43.56011561h5.94001537zM1738.31558208 646.01509464v43.56011561h-5.94001648v-43.56011561h5.94001648zM1752.17561865 646.01509464l20.00847506 32.40955975h0.20842092v-32.40955975h5.94001646v43.56011561h-5.83580546l-20.21689596-32.72219165h-0.20842202v32.72219165h-5.94001537v-43.56011561h6.04422637zM1804.1768105 646.01509464l15.11056649 43.56011561h-6.4610704l-3.6473776-11.25476687h-16.88215032l-3.64737868 11.25476687h-6.35685829l15.11056649-43.56011561h6.77370231z m3.12632365 26.7821763l-6.4610693-19.69584202h-0.20842202l-6.56528031 19.69584202h13.23477163z" fill="" p-id="15500"></path></svg>