<?xml version="1.0" standalone="no"?><!DOCTYPE svg PUBLIC "-//W3C//DTD SVG 1.1//EN" "http://www.w3.org/Graphics/SVG/1.1/DTD/svg11.dtd"><svg t="1547622560524" class="icon" style="" viewBox="0 0 2560 1024" version="1.1" xmlns="http://www.w3.org/2000/svg" p-id="18006" xmlns:xlink="http://www.w3.org/1999/xlink" width="500" height="200"><defs><style type="text/css"></style></defs><path d="M26.59200002 305.5616h212.1728s40.14079999 0 48.74239999 11.46880001h-40.1408v11.46879999H307.57760001s8.6016 5.7344 8.60160001 11.4688H244.49920001v11.4688h77.4144s8.6016 5.7344 5.7344 14.336H89.67040001v11.4688h246.57920001s2.8672 8.6016 2.86719999 11.4688H89.67040001v11.4688h249.4464s2.8672 8.6016-2.86719999 11.4688l-246.57920001 2.8672v11.4688l243.712-2.86720001s0 8.6016-5.7344 11.46880001L89.67040001 437.4528v17.2032l229.37600001-2.8672s0 11.46880001-8.6016 14.336H89.67040001v11.4688l200.70400001-2.86720001s-5.7344 14.33599999-34.40640001 14.33600001h-37.2736v11.46879999H278.90560001s25.8048 0 28.672 11.46880001l-91.75039999 2.8672v11.46879999h106.08639999s8.6016 8.6016 8.6016 11.46880001l-246.57919999 2.8672v14.336l249.44639999-2.86720001s8.6016 5.7344 8.60160001 14.33600001l-252.31360001 2.8672v11.4688h263.7824s2.8672 2.8672 2.8672 11.4688l-266.6496 2.8672v11.4688h266.6496s2.8672 5.7344 0 11.4688L89.67040001 620.9536v11.4688h263.7824s2.8672 8.6016-2.8672 14.336H89.67040001v8.60159999h255.18080001s0 11.46880001-5.73440001 11.46880001H250.23360001v11.46880001h77.4144s-5.7344 11.46880001-11.46879999 14.33599999h-68.81280001v11.46880001h45.87520001s-5.7344 14.33599999-65.94560001 11.46879999H26.59200002V305.5616z" fill="#FCEA00" p-id="18007"></path><path d="M571.36000001 509.1328h57.34400001v22.9376s31.5392-31.5392 57.34399999-28.672c0 0 60.2112-11.46880001 74.5472 60.2112l2.8672 154.8288h-57.34399999v-140.49280001s-17.2032-40.14079999-57.34400001-14.33599999c0 0-17.2032 5.7344-14.336 54.4768V718.4384h-57.34399999l-5.73440001-209.3056zM777.79840001 425.984h51.6096l2.86720001 157.696 63.07839999-83.14880001H961.29920002l-60.21120001 83.14880001 71.68 131.8912-65.9456 2.8672-45.87519999-86.016-28.672 37.2736v45.8752h-57.344l2.86719999-289.5872zM554.15680001 695.5008l-2.86719999-137.6256c-2.8672-71.68-120.4224-48.7424-120.42240001-48.7424-63.07840001 8.6016-57.344 65.94559999-57.344 65.94560001l60.2112 2.86719998c2.8672-34.4064 51.6096-22.9376 51.6096-22.93759999 34.4064 28.672-5.7344 34.4064-5.7344 34.4064-17.2032 0-77.4144 17.2032-77.4144 17.2032-37.27360001 14.33599999-34.4064 51.6096-34.40639999 51.6096 0 60.2112 51.6096 63.07840001 51.6096 63.0784 48.7424 11.46880001 80.2816-20.0704 80.2816-20.0704l2.86719999 20.0704 60.2112-2.8672-8.6016-22.9376z m-60.2112-58.49087999s-3.44064 24.08448-22.93759999 36.12672-45.30175999 16.05632-51.6096-8.60160001c0 0-5.7344-17.2032 11.46879999-22.9376 2.8672 0 60.2112-14.33599999 63.0784-22.9376v18.35008001z" fill="#6B1685" p-id="18008"></path><path d="M1167.73760002 526.33599999V425.984h71.68v-43.008h34.4064v2.8672c-2.8672 5.7344-2.8672 11.46880001-2.8672 17.2032v22.9376h77.4144v100.35199999H1316.83200002V512h-43.008v74.5472H1242.28480001v-74.5472h-43.008v17.2032H1167.73760002v-2.86720001z m31.53919999-77.4144v37.27360001h43.008V448.92159999h-43.008z m117.55520001 40.14080001v-37.2736h-43.008v37.2736h43.008z m88.88319999 97.4848v-200.704h183.5008v197.8368h-28.672V575.07840001H1431.52000001v11.46879999h-25.8048z m154.8288-174.8992H1431.52000001V552.14079999h126.15680001v-140.49279999h2.86719999zM1442.98880001 466.1248h37.27360001v-20.07039999h-40.14080001v-22.93760002H1551.94240001v22.93760002h-43.008v20.07039999h40.14080001v22.9376h-11.46880001c5.7344 11.46880001 11.46880001 20.0704 11.46880001 20.0704L1534.73920001 517.7344h17.2032v22.9376h-114.688v-22.9376h40.14080001v-28.672h-37.27360001v-22.9376h2.8672z m68.8128 28.672l14.336-8.6016h-17.2032v28.672h17.2032c-2.8672-5.7344-8.6016-11.46880001-14.336-20.0704z m123.28960001-11.4688v-25.8048H1718.24000001v-74.5472h25.8048c2.8672 0 5.7344 0 5.7344 2.8672v5.7344c0 8.6016-2.8672 17.2032-2.8672 25.8048v43.008h86.01600001v22.9376h-65.94560001v60.2112c0 5.7344 2.8672 8.6016 8.6016 8.60159999h11.46880001c8.6016 0 14.33599999-8.6016 14.33599999-28.67199998 11.46880001 5.7344 22.9376 8.6016 31.53920001 8.60159999-2.8672 20.0704-5.7344 31.5392-11.46880001 37.2736-2.8672 5.7344-11.46880001 8.6016-20.0704 8.60159999H1764.11520002c-20.0704 0-28.672-8.6016-25.8048-22.93759999V483.328h-11.46880001c2.8672 48.7424-20.0704 83.1488-71.68 103.2192-5.7344-11.46880001-14.33599999-20.0704-20.07039999-22.9376 22.9376-8.6016 37.27360001-20.0704 45.87519999-28.672s11.46880001-25.8048 14.336-51.6096h-60.21119999z m146.2272-28.672l-22.93760001-14.336c11.46880001-14.33599999 20.0704-28.672 28.67200001-48.7424 14.33599999 8.6016 22.9376 14.33599999 28.672 17.2032 0 0 2.8672 2.8672 0 2.8672-5.7344 5.7344-14.33599999 17.2032-25.8048 31.5392-2.8672 5.7344-5.7344 8.6016-8.6016 11.4688z m-126.15680001-40.1408l25.8048-17.20320001c5.7344 8.6016 17.2032 22.9376 28.67200001 40.14080001l-25.8048 17.2032c-8.6016-14.33599999-17.2032-28.672-28.67200001-40.1408z m217.9072 48.7424V437.4528h80.2816v-57.344h20.0704c11.46880001 0 17.2032 0 17.2032 2.8672v57.344H2068.03840001v25.8048h-77.4144c5.7344 45.8752 34.4064 74.5472 86.016 91.7504-11.46880001 8.6016-17.2032 17.2032-22.9376 31.5392-40.14079999-14.33599999-65.94559999-40.14079999-80.2816-74.5472-11.46880001 31.5392-40.14079999 57.344-83.14879999 77.4144-5.7344-11.46880001-14.33599999-20.0704-22.9376-25.8048 54.4768-20.0704 80.2816-51.6096 83.14879999-97.4848H1873.06880001v-5.7344z m286.72-57.344h34.40640001v22.9376h-45.8752l-5.7344 17.20320001h51.6096v22.93759999h-25.8048v17.2032h28.67199999v25.8048h-28.67199999v25.8048c2.8672-2.8672 8.6016-5.7344 11.46879999-8.6016 5.7344-5.7344 8.6016-8.6016 11.4688-8.6016 2.8672 5.7344 2.8672 14.33599999 5.7344 20.0704-22.9376 17.2032-37.27360001 28.672-43.008 34.40640001l-5.73439999 5.73439999c-2.8672-2.8672-8.6016-11.46880001-14.33600001-25.8048 0 0 0-2.8672 2.8672-5.73439999 5.7344-5.7344 5.7344-8.6016 5.73440001-11.46880001v-28.672h-31.53920001v-22.9376h31.53920001v-17.2032h-8.60160001c0 2.8672-2.8672 2.8672-2.8672 5.73439999s-2.8672 2.8672-2.8672 5.73440001c-2.8672-2.8672-8.6016-8.6016-20.0704-14.336 0 0-2.8672 0-2.8672-2.8672 17.2032-31.5392 25.8048-57.344 25.8048-74.5472 2.8672-5.7344 2.8672-8.6016 2.8672-11.4688 5.7344 0 14.33599999 2.8672 28.672 5.7344 0 0 0 2.8672-2.8672 5.7344v17.2032z m40.14080001 134.7584v-149.0944h97.4848v100.352h-8.60160001c5.7344 5.7344 11.46880001 11.46880001 14.33600001 17.2032s2.8672 8.6016 0 8.6016h-2.86720001c-8.6016 5.7344-14.33599999 11.46880001-20.07039999 14.336 8.6016 11.46880001 20.0704 17.2032 34.40639999 22.9376-5.7344 5.7344-14.33599999 14.33599999-22.9376 25.8048l-2.8672-2.86720001C2268.74240001 563.6096 2257.27360001 552.14079999 2251.53920002 540.672v17.2032c-22.9376 11.46880001-37.27360001 20.0704-40.14080001 22.9376l-5.7344 5.7344c-2.8672-2.8672-5.7344-11.46880001-14.336-28.672 0 0 0-2.8672 2.86720001-2.8672 5.7344-5.7344 5.7344-8.6016 5.7344-14.336z m25.8048-126.1568v17.2032h40.14079999v-17.2032h-40.14079999z m43.00799999 54.4768v-17.2032h-40.14079999v17.2032h40.14079999z m-34.4064 22.9376h-8.60159999v51.6096c11.46880001-2.8672 17.2032-8.6016 20.0704-11.4688-5.7344-14.33599999-11.46880001-28.672-11.46880001-40.1408z m48.7424 0H2257.27360001v2.8672c2.8672 8.6016 5.7344 14.33599999 8.6016 17.2032 8.6016-5.7344 14.33599999-14.33599999 17.2032-20.0704z m63.0784-54.4768c20.0704-17.2032 37.27360001-34.4064 54.47680001-57.344 2.8672 2.8672 5.7344 2.8672 11.46879999 5.7344l17.2032 8.60160001-2.86719999 2.86719998c-2.8672 2.8672-5.7344 5.7344-8.60160001 5.73440001-20.0704 20.0704-34.4064 37.27360001-51.6096 48.7424-5.7344-2.8672-11.46880001-8.6016-20.0704-14.336z m189.23520001-43.00799999v22.93759999H2440.77440001v-22.93759999h94.61760001z m-131.89120001 80.28159998v108.95360001h-28.67199999V500.53119999c-2.8672 5.7344-8.6016 8.6016-14.33600001 17.20320001l-20.0704-17.20320001c22.9376-17.2032 43.008-40.14079999 60.21120001-68.81279999 17.2032 8.6016 25.8048 14.33599999 25.8048 17.20319999 0 0 0 2.8672-2.86720001 2.86720001-2.8672 2.8672-11.46880001 11.46880001-20.0704 22.93759999z m22.93760001-25.8048H2549.72800001v25.8048h-34.4064v91.75040001c0 11.46880001-11.46880001 20.0704-43.008 20.0704-2.8672-11.46880001-5.7344-20.0704-8.6016-28.672 17.2032 0 22.9376 0 22.93760001-5.73440001v-77.4144h-60.2112V448.92159999zM1230.81600001 663.9616h-17.20319999c0-8.6016-5.7344-14.33599999-14.33600001-14.336s-14.33599999 8.6016-14.336 25.8048 5.7344 25.8048 14.336 25.8048 14.33599999-5.7344 14.33600001-14.336h17.20319999c0 17.2032-11.46880001 22.9376-31.5392 22.9376s-28.672-11.46880001-28.67199999-37.2736 11.46880001-37.27360001 28.67199999-37.2736c20.0704 5.7344 28.672 14.33599999 31.5392 28.672z m28.672 48.7424h-14.33599999v-71.68h14.33599999v28.672h28.672v-28.672h14.336V712.704H1288.16000001v-31.53920001h-28.672v31.53920001z m77.4144-71.68V712.704H1322.56640002v-71.68h14.33599999zM1420.05120002 712.704h-22.93760001l-28.67199999-60.21119999V712.704h-14.33600001v-71.68h22.93760001l28.67199999 57.344v-57.344h14.33600001V712.704z m28.67199999 0h-17.2032l25.8048-71.68h17.2032L1500.33280001 712.704h-14.336l-5.73439999-14.336h-28.672l-2.86720001 14.336z m8.6016-25.8048h20.07040001l-8.60160001-31.53920001-11.4688 31.53920001z m80.2816 25.8048v-71.68h48.7424v11.46880001h-31.53919999v17.20319999h31.53919999v11.46879999h-31.53919999v20.07040001h34.40639999v11.4688h-51.6096z m86.016 0l-25.8048-71.68h17.2032l20.07040001 57.344 20.07039999-57.344h14.336l-28.672 71.68h-17.2032z m57.344 0v-71.68h48.74240001v11.46880001h-31.53920001v17.20319999h31.53920001v11.46879999h-31.53920001v20.07040001h34.4064v11.4688h-51.6096z m80.28160001-60.21119999v20.07039999h14.33599999c5.7344 0 11.46880001-2.8672 11.46880001-11.4688 0-5.7344-2.8672-8.6016-11.46880001-8.60159999h-14.33599999z m0 31.53919999v28.672H1746.91200001v-71.68h31.5392c17.2032 0 25.8048 5.7344 25.8048 20.0704 0 8.6016-5.7344 14.33599999-14.33599999 17.20320001 5.7344 0 11.46880001 5.7344 11.46879999 17.20319999v2.8672c0 8.6016 2.8672 14.33599999 2.8672 17.2032h-17.20319999c-2.8672-5.7344-2.8672-11.46880001-2.86720001-20.0704 0-5.7344-2.8672-8.6016-5.7344-8.6016h-17.20319999v-2.8672z m74.54719999 17.2032h11.4688c8.6016 0 11.46880001-2.8672 11.46880001-8.6016s-2.8672-8.6016-11.46880001-8.6016h-11.4688v17.2032z m0-31.5392h11.4688c5.7344 0 8.6016-2.8672 11.46880001-8.6016 0-5.7344-2.8672-8.6016-11.46880001-8.60159999h-11.4688v17.20319999z m11.4688 43.008h-28.672v-71.68h28.672c17.2032 0 25.8048 5.7344 25.8048 20.0704 0 8.6016-5.7344 11.46880001-11.4688 14.336 11.46880001 2.8672 14.33599999 8.6016 17.2032 20.0704-5.7344 11.46880001-14.33599999 17.2032-31.5392 17.2032z m57.344-60.21119999v20.07039999h14.33600001c5.7344 0 11.46880001-2.8672 11.46879999-11.4688 0-5.7344-2.8672-8.6016-11.46879999-8.60159999h-14.33600001z m0 31.53919999v28.672H1890.27200002v-71.68h31.53919999c17.2032 0 25.8048 5.7344 25.8048 20.0704 0 8.6016-5.7344 14.33599999-14.336 17.20320001 5.7344 0 11.46880001 5.7344 11.46880001 17.20319999v2.8672c0 8.6016 2.8672 14.33599999 2.86719999 17.2032h-17.2032c-2.8672-5.7344-2.8672-11.46880001-2.8672-20.0704 0-5.7344-2.8672-8.6016-5.7344-8.6016h-17.2032v-2.8672z m71.68-43.008V712.704h-14.33599999v-71.68h14.33599999z m68.81280001 45.8752h-14.33600001v-11.4688h28.672v37.2736h-34.4064c-22.9376 0-34.4064-14.33599999-34.4064-37.2736s11.46880001-37.27360001 34.4064-37.2736 34.4064 8.6016 34.4064 22.9376h-17.2032c0-8.6016-5.7344-11.46880001-14.336-11.4688-14.33599999 0-20.0704 8.6016-20.0704 25.8048s5.7344 25.8048 20.0704 25.8048h14.336v-14.336h2.86720001z m48.74239999 25.8048H2079.50720001v-71.68h14.336v28.672h28.67200001v-28.672h14.33599999V712.704h-14.33599999v-31.53920001h-28.67200001v31.53920001z m57.34400001-60.21119999v-11.46880001h57.34399999v11.46880001H2188.46080001V712.704h-14.33599999v-60.21119999h-22.9376z m108.95359999 48.74239999h11.46880001c8.6016 0 11.46880001-2.8672 11.46879999-8.6016s-2.8672-8.6016-11.46879999-8.6016h-11.46880001v17.2032z m0-31.5392h11.46880001c5.7344 0 8.6016-2.8672 11.46879999-8.6016 0-5.7344-2.8672-8.6016-11.46879999-8.60159999h-11.46880001v17.20319999z m11.46880001 43.008h-28.67200001v-71.68h28.67200001c17.2032 0 25.8048 5.7344 25.8048 20.0704 0 8.6016-5.7344 11.46880001-11.46880001 14.336 11.46880001 2.8672 14.33599999 8.6016 17.20320001 20.0704-2.8672 11.46880001-14.33599999 17.2032-31.5392 17.2032z m54.47679999 0h-14.336l25.8048-71.68h17.20320001l25.8048 71.68H2366.22720001l-5.7344-14.336h-28.67199999l-5.73440001 14.336z m8.6016-25.8048h20.07040001l-8.60160001-31.53920001-11.4688 31.53920001zM2457.97760002 712.704h-22.9376l-28.672-60.21119999V712.704h-14.33600001v-71.68h22.9376l28.672 57.344v-57.344h14.33600001V712.704z m34.40639999-71.68v31.5392l22.9376-31.5392h17.2032l-25.8048 31.5392 28.67200001 40.1408H2515.32160001l-22.9376-37.2736v37.2736h-14.33599999v-71.68h14.33599999z" fill="#231815" p-id="18009"></path></svg>