<?xml version="1.0" standalone="no"?><!DOCTYPE svg PUBLIC "-//W3C//DTD SVG 1.1//EN" "http://www.w3.org/Graphics/SVG/1.1/DTD/svg11.dtd"><svg t="1547620039488" class="icon" style="" viewBox="0 0 1024 1024" version="1.1" xmlns="http://www.w3.org/2000/svg" p-id="3625" xmlns:xlink="http://www.w3.org/1999/xlink" width="200" height="200"><defs><style type="text/css"></style></defs><path d="M509.58800001 418.25A2212.193 2212.193 0 0 1 372.52 655.04399999C242.81299999 662.82700001 116.053 682.35099999 0.853 713.73100001c164.67000001-179.83699999 300.874-414.288 372.76000001-646.90599998h0.24999999c31.266 115.347 77.83499999 234.985 135.72499997 351.42499997z" fill="#BC0015" p-id="3626"></path><path d="M372.52 655.00999998a2215.25300001 2215.25300001 0 0 1 274.09 0.60300001c72.386 109.079 153.418 209.45400002 239.09299996 293.54700003-238.52399998-53.68-510.93-54.955-749.54499996-1.02400001l-0.22799999-0.38700004 3.948-3.94799999 3.94799999-4.01599999 3.949-4.01699999 3.92500003-4.05000001 3.94799997-4.08499999 3.92500001-4.08500005 3.92599999-4.10699995 3.925-4.10699999 3.92500001-4.17600001 3.89199998-4.14100002 3.89000001-4.17599999 3.892-4.20999998 3.857-4.24400002 3.857-4.24399999 3.85700001-4.26600001 3.82299999-4.26700001 3.85700002-4.33499999 3.82299999-4.335 3.82299998-4.36899999 3.82300002-4.36900002 3.82299999-4.42599998 3.789-4.403 3.78799999-4.46000003 3.76700002-4.42599998A2040.69499999 2040.69499999 0 0 0 372.52 655.00999998z" fill="#730000" p-id="3627"></path><path d="M646.622 655.62499999a2220.10000001 2220.10000001 0 0 1-137.03399999-237.33999999C567.569 301.866 613.90999997 182.4 644.13 66.846c73.95599999 233.48400001 210.023 469.65199998 376.707 648.17999999l-0.16 0.28500001c-115.927-31.29999999-243.48400001-51.29-374.09-59.69900002z" fill="#E4001F" p-id="3628"></path><path d="M646.622 655.62499999c130.59399997 8.44200001 258.19599998 28.44400001 374.09 59.699L885.714 949.12599999c-85.686-84.06000001-166.74000001-184.43399999-239.092-293.54699999z" fill="#BC0015" p-id="3629"></path><path d="M372.52 655.00999998C300.61200002 763.19 220.25 863.155 135.942 947.726L0.853 713.742c115.20000001-31.42499999 241.937-50.90399999 371.667-58.71z" fill="#E4001F" p-id="3630"></path><path d="M644.13 66.82499998c-30.185 115.507-76.527 235.042-134.54200003 351.39000002-57.89-116.40499999-104.46000001-236.04300001-135.72599997-351.39000002z" fill="#730000" p-id="3631"></path></svg>