<?xml version="1.0" standalone="no"?><!DOCTYPE svg PUBLIC "-//W3C//DTD SVG 1.1//EN" "http://www.w3.org/Graphics/SVG/1.1/DTD/svg11.dtd"><svg t="1547622637345" class="icon" style="" viewBox="0 0 2560 1024" version="1.1" xmlns="http://www.w3.org/2000/svg" p-id="20260" xmlns:xlink="http://www.w3.org/1999/xlink" width="500" height="200"><defs><style type="text/css"></style></defs><path d="M377.1248 440.32c-14.33599999-25.8048-25.8048-54.4768-37.27359999-80.2816-20.0704-51.6096-40.14079999-103.2192-57.34400001-154.8288-57.344 166.29760001-149.0944 321.12640001-260.91519999 453.0176 83.1488-20.0704 166.29760001-31.5392 249.4464-37.2736 40.14079999-57.344 74.5472-117.55519999 106.08639999-180.6336" fill="#BF0017" p-id="20261"></path><path d="M377.1248 618.0864c-34.4064 0-68.8128 0-103.2192 2.8672-45.8752 68.8128-100.352 134.7584-157.69599999 197.8368 86.016-17.2032 172.032-22.9376 260.91519999-22.9376 88.88320001 0 177.7664 8.6016 260.9152 22.9376-57.344-63.07840001-111.8208-129.024-157.696-197.8368-34.4064-2.8672-68.8128-2.8672-103.2192-2.8672" fill="#730000" p-id="20262"></path><path d="M21.59200001 658.2272l91.7504 160.5632c57.344-63.07840001 111.8208-129.024 157.696-197.8368-83.1488 5.7344-166.29760001 17.2032-249.4464 37.2736" fill="#E60020" p-id="20263"></path><path d="M271.03840001 620.9536c40.14079999-57.344 74.5472-117.55519999 103.2192-180.6336 31.5392 63.07840001 65.94559999 123.2896 103.2192 180.6336-34.4064-2.8672-68.8128-2.8672-103.2192-2.8672-31.5392 0-65.94559999 0-103.2192 2.8672" fill="#FFFFFF" p-id="20264"></path><path d="M468.87520001 205.2096c-17.2032 51.6096-34.4064 103.2192-57.34400001 154.8288-11.46880001 28.672-22.9376 54.4768-37.27359999 80.2816 31.5392 63.07840001 65.94559999 123.2896 103.2192 180.6336 86.016 5.7344 169.16479999 17.2032 249.4464 37.2736-108.9536-131.8912-197.8368-286.72-258.048-453.0176" fill="#E60020" p-id="20265"></path><path d="M377.1248 440.32c14.33599999-25.8048 25.8048-54.4768 37.27360001-80.2816 20.0704-51.6096 40.14079999-103.2192 57.344-154.8288h-186.368c17.2032 51.6096 34.4064 103.2192 57.344 154.8288 8.6016 25.8048 20.0704 54.4768 34.40639999 80.2816" fill="#730000" p-id="20266"></path><path d="M638.04 818.7904l91.75040001-160.5632c-80.2816-20.0704-163.4304-31.5392-249.44640001-37.2736 48.7424 68.8128 100.352 134.7584 157.696 197.8368" fill="#BF0017" p-id="20267"></path><path d="M2097.44480001 537.8048s-22.9376 17.2032-51.6096 34.4064c-11.46880001-17.2032-14.33599999-34.4064-17.20320001-43.008h83.14880001v-194.9696H1913.94400001v335.4624s11.46880001 8.6016 22.9376 22.9376c22.9376-5.7344 57.344-8.6016 65.94559999-8.6016v-45.8752c-14.33599999 0-37.27360001 2.8672-43.008 2.8672v-114.68800001h11.46880001c5.7344 43.008 63.07840001 134.7584 117.55519999 163.43040001l37.27360001-37.27359999c-31.5392-20.0704-51.6096-43.008-54.4768-48.74240002 28.672-20.0704 48.7424-34.4064 48.7424-34.40639999l-22.9376-31.5392zM1962.68640001 454.656h100.35199999v31.5392h-100.35199999V454.656z m100.35199999-40.1408h-100.35199999v-31.5392h100.35199999v31.5392zM1836.52960001 328.4992h-48.7424s-2.8672 63.07840001-40.14080001 129.024l28.67200001 40.14080001h22.93759999v31.53919999h-45.8752v48.74239999H1799.256v94.61760001l22.9376 22.9376c11.46880001-2.8672 45.8752-8.6016 74.54720001-8.6016v-43.008c-22.9376 0-45.8752 2.8672-48.74240001 2.8672v-71.67999999h51.6096v-48.74240002h-51.6096v-31.53919999h43.00800001v-48.74239999h-83.1488c2.8672-8.6016 8.6016-20.0704 11.4688-28.67200001h80.28159999V368.64000001h-68.8128c5.7344-22.9376 5.7344-40.14079999 5.73440001-40.14080001M1165.60480001 328.4992h-57.34400001s8.6016 22.9376 11.46880001 43.00799999H967.76800001v163.43040001c0 34.4064-5.7344 86.016-48.74240001 131.8912l40.14080001 31.5392c63.07840001-71.68 60.2112-154.8288 60.2112-189.2352v-88.88319999h272.384v-48.74240002h-117.5552c-2.8672-25.8048-8.6016-43.008-8.6016-43.00799999M1581.34880001 609.4848c31.5392-28.672 60.2112-71.68 71.68-106.0864l-28.67200001-31.53919999h-146.22719999c2.8672-8.6016 8.6016-22.9376 11.46879999-28.67200001h203.5712v-48.74239999H1655.89600001c-8.6016-34.4064-5.7344-28.672-20.0704-65.94560001h-54.4768s14.33599999 40.14079999 20.0704 65.94560001h-103.2192c8.6016-34.4064 8.6016-65.94559999 8.6016-65.94560001h-48.7424s0 31.5392-8.6016 65.94560001h-48.7424c11.46880001-40.14079999 11.46880001-65.94559999 11.46879999-65.94560001h-48.74239999s0 31.5392-17.2032 83.1488l25.8048 31.5392h65.94559999c-14.33599999 40.14079999-45.8752 108.9536-114.68799999 174.8992l34.40639999 34.40640001c45.8752-43.008 71.68-83.1488 91.75040001-117.55520001 8.6016 14.33599999 20.0704 37.27360001 37.27359999 57.344 2.8672 5.7344 8.6016 8.6016 14.33600001 14.336-37.27360001 22.9376-74.5472 34.4064-117.55520001 40.1408l20.07040001 48.7424c57.344-11.46880001 103.2192-31.5392 137.62559999-54.4768 37.27360001 28.672 86.016 43.008 140.49280001 54.4768l17.2032-48.7424c-45.8752-5.7344-86.016-17.2032-117.5552-37.2736m-86.01600001-88.8832h94.6176c-8.6016 17.2032-37.27360001 48.7424-48.7424 57.34399999-14.33599999-11.46880001-37.27360001-40.14079999-45.8752-57.34399999M2203.53120001 471.85920001c43.008-20.0704 91.75039999-97.4848 94.6176-143.36000001h-48.7424c-2.8672 43.008-48.7424 88.88320001-68.8128 100.352l22.9376 43.00800001zM2272.34400001 420.24960001c-8.6016 51.6096-68.8128 108.9536-100.352 123.28959999l20.07039999 45.8752c17.2032-8.6016 31.5392-22.9376 43.008-31.5392v134.7584h48.74240001V512c17.2032-22.9376 31.5392-54.4768 37.27359999-88.88320001h-48.74239999zM2344.02400001 339.968h189.2352v51.6096H2344.02400001zM2544.728 451.7888h-215.03999999v48.74239999h126.1568v146.22720001s-45.8752-5.7344-80.2816-2.8672v45.8752c45.8752 0 131.8912 8.6016 131.8912 8.6016v-194.9696H2544.728v-51.6096z" fill="#221815" p-id="20268"></path></svg>