<?xml version="1.0" standalone="no"?><!DOCTYPE svg PUBLIC "-//W3C//DTD SVG 1.1//EN" "http://www.w3.org/Graphics/SVG/1.1/DTD/svg11.dtd"><svg t="1547620212040" class="icon" style="" viewBox="0 0 1024 1024" version="1.1" xmlns="http://www.w3.org/2000/svg" p-id="2440" xmlns:xlink="http://www.w3.org/1999/xlink" width="200" height="200"><defs><style type="text/css"></style></defs><path d="M112.81745152 9.2511995h515.3175215s97.21904891 0 115.50653655 27.52549685H648.37061276v29.34796077l146.67696267 1.885308s23.88056754 16.46502372 23.88056759 29.28511815l-170.55753026 1.885308v27.46265277h188.84501789s21.99525954 10.99763052 16.46502371 34.81535399H265.08749561v31.17042614l597.83116797-1.88530801s3.6449293 23.88056754 3.64492782 31.23326878H265.08749561v31.17042614l603.2985612-1.82246391s3.6449293 18.28748764-5.46739323 31.1704247l-597.83116797 5.53023729v29.34796076l588.59315875-3.70777191s0 23.88056754-14.6425598 31.23326875l-573.95059895 3.64492931v27.52549687l555.60026869-3.77061601s-1.75962129 29.41080486-21.99526104 34.94104215l-533.60500765 1.75961982v29.41080485l489.55164446-3.70777191s-10.99763052 36.63781937-86.09573168 32.99289008l-91.75165716-1.75962131v27.46265425l148.56227071 1.88530799s62.34085084 0 71.51601743 25.57734477l-220.01544405 5.53023731v27.52549684h258.53857141s23.81772495 18.28748764 23.81772347 29.34796077l-594.12339459 3.64492929v32.99289008l606.94348902-5.46739322s23.88056754 16.46502372 23.88056902 32.99289006l-630.82405804 3.64492783v27.52549687h639.93637908s7.41554531 9.11232252 3.70777338 25.70303294l-643.64415246 5.46739321v27.46265277h643.64415246s5.46739321 16.52786635 0 29.41080484L265.0246515 770.28719651v29.28511815h638.11391518s5.53023729 18.35033172-9.11232103 33.05573268H265.0246515v29.34796224l616.18149972-1.885308s-1.885308 29.41080486-14.70540243 31.23326878H648.37061276v31.17042615l188.84501789-1.88530801s-12.88293852 29.41080486-25.70303295 33.05573268l-163.14198494 1.88530801v31.10758206l109.97629925-1.82246392s-16.46502372 34.81535397-161.38236514 29.34796078l-484.14709535-1.88530801V9.37688621z" fill="#FBE900" p-id="2441"></path></svg>