<?xml version="1.0" standalone="no"?><!DOCTYPE svg PUBLIC "-//W3C//DTD SVG 1.1//EN" "http://www.w3.org/Graphics/SVG/1.1/DTD/svg11.dtd"><svg t="1547620062206" class="icon" style="" viewBox="0 0 1024 1024" version="1.1" xmlns="http://www.w3.org/2000/svg" p-id="4147" xmlns:xlink="http://www.w3.org/1999/xlink" width="200" height="200"><defs><style type="text/css"></style></defs><path d="M981.41301449 216.83912589l-39.11782756-49.7863256s-138.69047882 24.8931635-135.13431282-56.89865768c0 0 10.66849806-56.89865767-92.46032062-32.00549554 0 0-24.8931635-24.8931635-24.89316211-32.00549551 0 0 3.55616601-32.00549554-99.57265259-14.22466408 0 0-163.58364233 17.7808301-341.39194873 220.48229995 0 0-177.80830639 149.35897827-177.80830778-3.556166 0 0-96.01648523 99.57265127-42.67399361 177.80830778 0 0 56.89865767 81.79182116 174.25214178 14.22466407 0 0-32.00549554 273.82479298 149.35897686 419.62760388 0 0 192.03297185 177.80830639 408.95910716 117.3534827 0 0 181.36447242-39.11782757 256.04396154-220.48229999 0 0-32.00549554 32.00549554-49.78632561 28.44932816 0 0 49.78632563-56.89865767 53.34249164-85.34798721 0 0 0-32.00549554-28.44932952 17.78083147 0 0 3.55616601-32.00549554-14.22466408-17.78083147 0 0-96.01648523 110.24115069-138.69048016 120.90964873 0 0-309.38645452 181.36447242-448.07693339-181.36447239 0 0-56.89865767-174.25214042 81.79182114-302.27412253 138.69047882-131.57814677 280.93712505-117.35348272 405.40293981-24.89316216 0 0 64.01099107-71.12332309 92.46032062-56.898659-3.55616601-3.55616601 21.33699748-17.7808301 10.66849801-39.11782758z" fill="#E60012" p-id="4148"></path><path d="M554.67307721 433.76526126h302.27412254v231.150798h-302.27412254z" fill="#E60012" p-id="4149"></path></svg>