<?xml version="1.0" standalone="no"?><!DOCTYPE svg PUBLIC "-//W3C//DTD SVG 1.1//EN" "http://www.w3.org/Graphics/SVG/1.1/DTD/svg11.dtd"><svg t="1547622629868" class="icon" style="" viewBox="0 0 2560 1024" version="1.1" xmlns="http://www.w3.org/2000/svg" p-id="19993" xmlns:xlink="http://www.w3.org/1999/xlink" width="500" height="200"><defs><style type="text/css"></style></defs><path d="M1030.8464 572.2112V540.672c14.33599999-5.7344 28.672-8.6016 43.008-14.33600001-2.8672-28.672 0-57.344 0-86.01599999 0-5.7344 11.46880001-2.8672 14.33600001-5.7344 14.33599999 2.8672 28.672-2.8672 43.008 0v54.4768c2.8672 5.7344 5.7344 8.6016 8.6016 14.336 28.672-14.33599999 45.8752-34.4064 68.8128-51.6096h51.6096c-5.7344 5.7344-8.6016 20.0704-14.336 25.8048-25.8048 28.672-48.7424 48.7424-80.2816 63.0784-11.46880001 5.7344-22.9376 0-34.4064 8.60160001 5.7344 17.2032-8.6016 28.672 8.6016 34.40639999 17.2032-2.8672 51.6096 2.8672 80.2816 2.8672 22.9376 0 43.008-5.7344 51.6096 2.8672 0 5.7344 2.8672 22.9376 2.8672 28.672-54.4768 0-137.6256 5.7344-183.5008-2.8672-5.7344 0-8.6016-8.6016-11.4688-11.46880001-2.8672-14.33599999-5.7344-25.8048-5.73440001-40.14079999-17.2032 5.7344-31.5392 5.7344-43.008 8.6016z m771.27680001-134.7584c17.2032 0 45.8752-2.8672 54.47679999 2.8672-5.7344 11.46880001-8.6016 22.9376-14.33599999 34.40639999 11.46880001 0 25.8048-2.8672 40.14079999 0v31.53920001c-28.672-2.8672-60.2112 0-80.28159999 0-8.6016 0-11.46880001 8.6016-20.0704 11.4688-8.6016 5.7344-25.8048 8.6016-40.1408 8.60159999l-2.8672-2.86719998v-31.53920001c17.2032-8.6016 40.14079999-17.2032 48.7424-28.672 5.7344-8.6016 0-17.2032 14.336-25.8048z m447.2832-2.8672c14.33599999 0 37.27360001 2.8672 51.6096 5.7344v2.8672l-5.73440001 5.73439999c-11.46880001 28.672-34.4064 54.4768-65.94559999 65.94560001-20.0704 5.7344-43.008 5.7344-65.9456 8.60160001v-34.40640001c25.8048-2.8672 45.8752-8.6016 63.0784-20.0704 11.46880001-8.6016 8.6016-25.8048 22.9376-34.4064z m-1318.912 97.4848c-17.2032 0-34.4064 2.8672-48.7424 2.8672 0-11.46880001 0-25.8048 2.8672-34.40640001 43.008 0 77.4144-17.2032 97.4848-37.27359999 8.6016-8.6016 5.7344-14.33599999 14.33599999-22.9376h51.6096c-2.8672 2.8672-2.8672 8.6016-5.73439999 11.4688-8.6016 28.672-34.4064 40.14079999-51.6096 60.2112 0 37.27360001-2.8672 74.5472-2.8672 111.8208-17.2032 0-37.27360001-2.8672-54.4768-2.8672-2.8672-31.5392-2.8672-60.2112-2.8672-88.8832zM1340.504 741.376v-37.27359999c-17.2032-5.7344-17.2032-11.46880001-25.8048-20.07040001 2.8672-5.7344 5.7344-8.6016 11.46880001-14.336 22.9376-8.6016 40.14079999-25.8048 51.6096-48.7424-17.2032-14.33599999-28.672-2.8672-40.1408-22.9376 5.7344-25.8048-5.7344-86.016 5.7344-108.9536 43.008-2.8672 91.75039999-2.8672 134.7584-2.8672v-11.46880001l-5.7344-5.73439999c-48.7424 0-97.4848 2.8672-146.2272 0V454.656c0-2.8672 2.8672-5.7344 2.8672-11.4688 51.6096 0 197.8368-5.7344 289.58719999-5.7344 43.008 0 71.68-5.7344 80.28160001 2.8672v28.672c-54.4768 2.8672-106.0864 0-160.56320001 0v14.336c5.7344 0 8.6016 2.8672 14.33600001 2.8672 34.4064-8.6016 91.75039999-8.6016 131.8912 0 5.7344 20.0704 2.8672 43.008 2.8672 65.94559999 0 22.9376 5.7344 40.14079999-2.8672 51.6096-5.7344 0-11.46880001 8.6016-17.20320001 8.60160001-74.5472 2.8672-154.8288 0-226.50879999 2.8672 0 11.46880001-2.8672 5.7344 2.86719999 14.33599999H1684.56800001c-11.46880001 43.008-51.6096 43.008-77.4144 68.81280001v2.8672c31.5392 2.8672 60.2112 5.7344 91.7504 5.73439999 0 11.46880001-2.8672 20.0704-2.86720001 31.53920001-31.5392 0-88.88320001 0-129.024-8.60159999-22.9376-2.8672-31.5392-14.33599999-45.8752-14.33600001-25.8048 5.7344-43.008 14.33599999-71.67999999 17.20319999-31.5392 11.46880001-74.5472 8.6016-108.95360001 8.60160001z m596.37760001-298.1888c65.94559999-2.8672 194.96959999-17.2032 186.368 31.53919999-5.7344 40.14079999 11.46880001 126.1568-14.33600001 123.28960001-22.9376 11.46880001-63.07840001 5.7344-157.696 5.73439999 0 34.4064-5.7344 86.016 5.73440001 108.95360001 17.2032 0 34.4064 2.8672 51.6096 2.8672v28.672c-25.8048 0-57.344-2.8672-86.016-2.8672-8.6016-5.7344-20.0704 2.8672-25.8048-14.336-8.6016-31.5392-2.8672-100.352-2.8672-149.09440001 0-45.8752-2.8672-91.75039999 2.8672-123.28959999 2.8672-2.8672 17.2032-17.2032 40.1408-11.4688z m381.3376 5.73439999c45.8752 2.8672 174.8992-5.7344 215.04 2.86720001 2.8672 0 2.8672 31.5392-2.8672 28.672-68.8128 0-140.49280001 5.7344-209.30560001 5.7344 0-8.6016-2.8672-28.672-2.86719999-37.27360001z m-272.384 88.88320001c-22.9376 0-71.68 0-91.75040001 2.8672 2.8672 14.33599999-5.7344 17.2032 0 25.8048 34.4064 0 86.016 11.46880001 108.9536 0 0-28.672 5.7344-68.8128 0-94.61759999-25.8048 2.8672-91.75039999-2.8672-108.9536 2.86719998 0 5.7344 0 17.2032-2.8672 22.93760002l5.73440001 5.73439999h88.8832c0 2.8672 2.8672 5.7344 2.8672 5.7344 0 11.46880001-2.8672 20.0704-2.8672 28.672z m-444.416-14.33599999c0 14.33599999 5.7344 17.2032 0 22.93759999-65.94559999 0-137.6256 2.8672-206.4384 2.86720001 0 2.8672 2.8672 5.7344 2.8672 5.73439999 68.8128 0 134.7584 2.8672 203.5712 2.8672v2.8672c0 5.7344 2.8672 11.46880001 0 17.20319999-34.4064 0-83.1488 2.8672-123.2896 0-31.5392 0-57.344 0-83.1488 2.86720001 2.8672 0-2.8672 5.7344 0 8.6016 25.8048 2.8672 48.7424 2.8672 86.016 2.8672 57.344 0 123.2896 0 146.2272-5.7344 0-28.672 2.8672-60.2112-5.7344-77.4144-28.672 0-60.2112 2.8672-91.7504 0-40.14079999-2.8672-71.68-2.8672-108.9536 0-8.6016 0-17.2032-2.8672-25.8048 0 0 2.8672 0 8.6016 2.8672 11.4688 65.94559999 2.8672 134.7584 2.8672 203.5712 2.86720001zM2200.66400001 741.376c0-48.7424-2.8672-94.6176-2.8672-143.36-11.46880001 0-25.8048 5.7344-37.27360001 5.73439999v-40.14079999c40.14079999-2.8672 68.8128-22.9376 86.01600001-48.7424h51.6096c-5.7344 17.2032-8.6016 28.672-17.2032 40.1408-5.7344 5.7344-22.9376 11.46880001-25.8048 22.93759999 0 54.4768-2.8672 111.8208-2.8672 166.29760001-17.2032-2.8672-34.4064-2.8672-51.6096-2.8672z m140.49279999 5.7344c0-8.6016-2.8672-22.9376-2.8672-31.5392 31.5392 0 68.8128-2.8672 100.35200001-2.8672 22.9376-14.33599999 11.46880001-114.68800001 8.6016-146.2272-34.4064 0-111.8208 0-140.4928-2.8672-2.8672-11.46880001-8.6016-20.0704-2.8672-28.672 77.4144 2.8672 160.5632-5.7344 235.1104-2.8672 0 8.6016 2.8672 25.8048 2.8672 37.2736-17.2032 0-28.672-2.8672-37.2736 2.8672-2.8672 48.7424 2.8672 103.2192-2.86720001 143.36-2.8672 11.46880001-11.46880001 17.2032-17.20319999 25.8048-11.46880001 11.46880001-94.6176 5.7344-143.36000001 5.7344z m-458.752-183.5008h-43.00799999v5.7344c-11.46880001 28.672 20.0704 22.9376 40.1408 25.8048 2.8672 5.7344 5.7344 11.46880001 2.86719999 17.2032v11.4688c-14.33599999 0-34.4064 2.8672-48.74239999 2.86720001 0 22.9376 0 48.7424 2.8672 65.94559999 14.33599999-8.6016 28.672-22.9376 43.008-22.9376-2.8672 11.46880001 2.8672 25.8048 0 37.27359999-25.8048 17.2032-63.07840001 43.008-106.08640001 31.53920001v-117.5552c-11.46880001 0-25.8048 2.8672-37.27359999 0 0-8.6016-2.8672-22.9376-2.8672-28.672 11.46880001 0 28.672 0 40.14079999-2.8672 0-5.7344-2.8672-17.2032 0-25.8048-8.6016-8.6016-22.9376 0-37.27359999-2.8672v-28.672c11.46880001 2.8672 28.672 0 43.00799999-2.8672h68.8128c11.46880001 0 22.9376-2.8672 31.53920001 0 2.8672 14.33599999 2.8672 28.672 2.86719999 34.4064z m111.82080001 51.6096c17.2032 8.6016 28.672 37.27360001 40.1408 51.6096 5.7344-5.7344 14.33599999-11.46880001 20.07039999-17.2032 2.8672-11.46880001 5.7344-20.0704 11.46880001-31.5392 17.2032 0 34.4064 2.8672 51.6096 2.8672-5.7344 8.6016-8.6016 22.9376-14.336 31.53920001-8.6016 14.33599999-22.9376 22.9376-31.5392 37.27359999 2.8672 2.8672 5.7344 5.7344 5.7344 11.4688 17.2032 2.8672 37.27360001 2.8672 54.47679999 5.73439999 0 11.46880001-2.8672 28.672-2.86719999 37.27360001-86.016-2.8672-134.7584-54.4768-163.4304-111.8208 8.6016-11.46880001 20.0704-11.46880001 28.672-17.2032z m-888.832 17.2032c5.7344 5.7344-2.8672 11.46880001 0 20.07040001h163.4304c0 5.7344 2.8672 8.6016 2.8672 14.33599999s-2.8672 11.46880001-2.8672 17.2032h-160.56320001c-2.8672 0-5.7344 2.8672-5.7344 2.8672 0 20.0704 2.8672 40.14079999 0 60.2112-20.0704 0-43.008-2.8672-63.07839999-2.8672v-63.07840001h-160.5632c0-11.46880001 2.8672-34.4064 0-31.53919999 48.7424 0 103.2192 2.8672 157.696 0 5.7344 0-2.8672-17.2032 2.8672-17.2032 20.0704-2.8672 45.8752 0 65.9456 0z m367.0016 22.93759999l-2.86720001 2.86720001c25.8048 28.672 97.4848 40.14079999 114.68800001-2.86720001h-111.8208z m-83.1488 14.33600001c-14.33599999 11.46880001-28.672 25.8048-43.008 37.27359999h68.8128c14.33599999 0 28.672 2.8672 37.2736-5.73439999-20.0704-8.6016-43.008-22.9376-63.0784-31.5392z" fill="#231815" p-id="19994"></path><path d="M600.76640001 339.968l-22.9376-28.672s-83.1488 14.33599999-80.2816-34.4064c0 0 5.7344-34.4064-54.4768-20.0704 0 0-14.33599999-14.33599999-14.33600001-20.0704 0 0 2.8672-20.0704-60.21119999-8.6016 0 0-97.4848 11.46880001-203.5712 131.8912 0 0-106.0864 88.88320001-106.0864-2.8672 0 0-57.344 60.2112-25.8048 106.0864 0 0 34.4064 48.7424 103.2192 8.60160001 0 0-20.0704 163.4304 88.88319999 249.44639999 0 0 114.68800001 106.0864 243.71200001 68.8128 0 0 108.9536-22.9376 151.9616-131.8912 0 0-20.0704 20.0704-28.67200001 17.2032 0 0 28.672-34.4064 31.53920001-51.6096 0 0 0-20.0704-17.2032 11.4688 0 0 2.8672-20.0704-8.6016-11.4688 0 0-57.344 65.94559999-83.14880001 71.68 0 0-183.5008 108.9536-266.6496-108.9536 0 0-34.4064-103.2192 48.74240001-180.6336 83.1488-77.4144 166.29760001-68.8128 240.8448-14.336 0 0 37.27360001-43.008 54.47679999-34.4064 0 2.8672 14.33599999-5.7344 8.60160001-17.2032z" fill="#E60012" p-id="19995"></path><path d="M345.58560001 468.992h180.6336v137.6256h-180.6336v-137.6256z" fill="#E60012" p-id="19996"></path><path d="M1320.43360001 380.1088h-17.2032v-100.352h17.2032v43.008h51.6096v-43.008h17.2032v100.352h-17.2032v-43.008h-51.6096v43.008z m100.352-100.352h17.20319999v63.07840001c0 8.6016 2.8672 14.33599999 5.7344 20.07039999 2.8672 2.8672 8.6016 5.7344 17.2032 5.73440001s14.33599999-2.8672 17.20320001-5.73440001c2.8672-2.8672 5.7344-8.6016 5.7344-20.07039999v-63.07840001h17.2032v77.4144c0 2.8672-2.8672 5.7344-5.73440001 8.6016-2.8672 5.7344-8.6016 8.6016-14.33599999 11.4688-5.7344 2.8672-11.46880001 2.8672-20.07040001 2.8672-8.6016 0-14.33599999 0-20.07039999-2.8672-5.7344-2.8672-11.46880001-5.7344-14.336-11.4688-2.8672-2.8672-2.8672-5.7344-5.7344-8.6016 0-2.8672-2.8672-8.6016-2.86720001-17.2032v-60.2112h2.86720001z m169.16479999 57.344l-17.2032-37.2736-17.20319999 37.2736h34.40639999z m-40.14079999 14.336l-14.336 28.672h-20.07040001l48.7424-100.352h17.20320001l48.7424 100.352h-20.0704l-14.336-28.672h-45.8752z m140.4928-8.60159999l-31.5392 40.14079999h-20.0704l43.008-51.6096-40.14080001-48.7424h20.07040001l28.672 40.1408 28.67199999-40.1408h22.93760001l-40.14080001 48.7424 43.008 51.6096h-20.07039999l-34.4064-40.14079999z m91.7504 37.27359999h-17.2032v-100.352h17.2032v100.352z m88.8832-43.008l-17.2032-37.2736-17.2032 37.2736h34.4064z m-40.14080001 14.336l-14.33599999 28.672h-20.07040001l48.74240001-100.352h17.2032l48.7424 100.352h-20.0704l-14.33600001-28.672h-45.8752z m258.048-28.672h5.73440001c8.6016 0 17.2032 0 20.07039999-2.86720001 2.8672-2.8672 5.7344-5.7344 5.73440001-11.46879999s-2.8672-8.6016-5.73440001-11.4688c-2.8672-2.8672-8.6016-2.8672-17.20319999-2.86720001h-8.60160001v28.67200001z m0 45.87520001h14.33600001c8.6016 0 14.33599999 0 17.2032-2.86720001 2.8672-2.8672 5.7344-5.7344 5.7344-11.4688s-2.8672-8.6016-5.7344-14.336c-2.8672-2.8672-11.46880001-5.7344-17.2032-5.7344h-14.33600001V368.64000001z m8.60160001-88.88320001c14.33599999 0 22.9376 2.8672 31.5392 5.7344 5.7344 5.7344 11.46880001 11.46880001 11.46879999 20.0704 0 2.8672 0 8.6016-2.86719999 11.46880001l-8.6016 8.60159999c5.7344 2.8672 11.46880001 2.8672 14.336 8.6016 2.8672 2.8672 5.7344 8.6016 5.7344 14.336s0 8.6016-2.8672 14.336c-2.8672 2.8672-5.7344 8.6016-8.6016 11.4688-2.8672 2.8672-8.6016 5.7344-14.336 5.7344s-11.46880001 2.8672-20.0704 2.8672h-28.672V282.624h22.9376v-2.8672z m134.7584 57.344l-17.2032-37.2736-17.2032 37.2736h34.4064z m-43.008 14.336l-14.336 28.672h-20.0704l48.7424-100.352h17.2032l48.74239999 100.352h-20.07039999l-14.33600001-28.672h-45.87519999z m117.5552 28.672h-17.20320001v-100.352h20.07040001l63.07839999 74.5472v-74.5472h17.2032v100.352H2372.696l-63.07839999-77.4144-2.8672 77.4144z m131.8912-48.7424l48.7424-51.6096h22.9376L2458.71200001 331.3664l48.7424 51.6096h-22.9376l-45.8752-51.6096z m0 48.7424h-17.2032v-100.352h17.2032v100.352z" fill="#231815" p-id="19997"></path></svg>