<?xml version="1.0" standalone="no"?><!DOCTYPE svg PUBLIC "-//W3C//DTD SVG 1.1//EN" "http://www.w3.org/Graphics/SVG/1.1/DTD/svg11.dtd"><svg t="1547622582735" class="icon" style="" viewBox="0 0 2560 1024" version="1.1" xmlns="http://www.w3.org/2000/svg" p-id="18671" xmlns:xlink="http://www.w3.org/1999/xlink" width="500" height="200"><defs><style type="text/css"></style></defs><path d="M267.43680002 259.6864s45.8752-34.4064 126.1568-8.6016c0 0 25.8048 8.6016 57.34399999 37.2736l94.6176 100.352-51.6096 51.6096-146.2272-149.09439999c0-2.8672-22.9376-31.5392-80.28159999-31.53920001z m209.30559999 194.9696l-60.2112 57.344s-8.6016 14.33599999-17.2032 0l-111.8208-108.9536s-8.6016-14.33599999-17.2032-2.8672l-111.8208 114.688s-8.6016 11.46880001 2.86720001 17.2032l108.95359999 108.9536s8.6016 14.33599999 17.2032 2.8672l111.8208-114.688s2.8672-8.6016 20.07040001-8.6016h114.68799999s5.7344 117.55519999-83.1488 189.2352c0 0-114.68800001 114.68800001-275.2512 45.87520001 0 0-154.8288-54.4768-151.9616-252.31360001 0 0 2.8672-131.8912 126.1568-203.5712 0 0 88.88320001-65.94559999 157.696-17.2032l169.1648 172.032z" fill="#003B90" p-id="18672"></path><path d="M1987.75680002 351.4368c8.6016 2.8672 20.0704 8.6016 28.67199999 11.4688-2.8672 5.7344-2.8672 11.46880001-5.7344 17.2032H2059.43680001v20.0704c-25.8048 0-51.6096-8.6016-68.8128 5.7344 0 2.8672-2.8672 5.7344-2.86719999 5.7344v2.8672h68.81279999v20.0704h-40.1408v17.2032c14.33599999 0 28.672 2.8672 43.008 2.8672 0 8.6016 0 17.2032-2.8672 20.07039999-11.46880001-2.8672-37.27360001-5.7344-43.00799999 5.73440001 2.8672 8.6016-2.8672 25.8048 2.86719999 37.2736 14.33599999-8.6016 25.8048-14.33599999 40.1408-22.9376v25.8048c0 2.8672-2.8672 5.7344-2.8672 8.6016-14.33599999 5.7344-57.344 37.27360001-74.5472 25.8048-8.6016-2.8672-11.46880001-14.33599999-17.20319999-20.0704 5.7344-2.8672 11.46880001-5.7344 17.20319999-5.7344v-51.6096c-8.6016 0-22.9376 2.8672-28.672-2.86720001v-17.20319999c8.6016 0 20.0704-2.8672 28.672-2.8672v-17.2032c-14.33599999-2.8672-20.0704 0-31.5392 0-5.7344-5.7344-11.46880001-14.33599999-17.2032-20.0704 5.7344-8.6016 17.2032-11.46880001 22.9376-17.2032 17.2032-11.46880001 25.8048-25.8048 34.40640001-48.7424z m332.59519999 2.8672c8.6016 2.8672 20.0704 11.46880001 22.9376 20.0704-11.46880001 22.9376-43.008 68.8128-71.67999999 68.8128-2.8672-5.7344-8.6016-14.33599999-11.46880001-20.07040001l5.7344-5.73439999c22.9376-20.0704 43.008-34.4064 54.4768-63.0784z m-1298.8416 5.7344c48.7424 0 100.352 2.8672 149.09440001 2.8672 20.0704 2.8672 54.4768-5.7344 63.07839999 8.60159999 14.33599999 17.2032 2.8672 117.55519999 5.73440001 151.96160002 2.8672 14.33599999 2.8672 34.4064-5.73440001 40.14079999-83.1488 0-166.29760001-2.8672-246.57919999-2.8672 0-11.46880001-5.7344-88.88320001-2.86720001-146.2272 0-14.33599999-2.8672-28.672 0-37.2736 2.8672-8.6016 11.46880001-14.33599999 14.336-17.2032h22.9376z m-235.1104 0h22.93760001c0 8.6016 2.8672 14.33599999 2.86719999 22.9376 37.27360001 5.7344 65.94559999-2.8672 100.35200001 5.7344 5.7344 20.0704 8.6016 149.0944 0 146.2272h-97.48480001v22.9376H772.06400001c-2.8672-2.8672 0 0 0-2.8672v-20.0704h-103.2192c0-37.27360001-2.8672-137.6256 2.86720001-143.36 31.5392-17.2032 68.8128-2.8672 97.48479999-8.6016 2.8672-5.7344 2.8672-14.33599999 5.73440001-22.9376h11.46879999zM1569.14560001 425.984h-17.2032v34.4064c-20.0704 0-54.4768-5.7344-68.8128 2.8672v8.60160001c22.9376 0 51.6096-5.7344 71.68000001 2.86719998v20.07040001H1488.86400001c0 2.8672-2.8672 2.8672-2.8672 5.73439999h2.8672c20.0704 8.6016 51.6096-5.7344 65.94560001 5.73440001 2.8672 5.7344 0 14.33599999 0 20.07039999h-68.81280001v8.60160001h83.1488v17.20319999l-5.7344 5.73440001c-48.7424-11.46880001-117.55519999 2.8672-163.43039999 0-22.9376 0-37.27360001-11.46880001-54.47680001-14.336-11.46880001 8.6016-22.9376 14.33599999-43.008 14.336v-28.672c8.6016-2.8672 14.33599999-2.8672 20.07040001-8.6016-8.6016-11.46880001-14.33599999-28.672-14.33600001-45.87520001h20.0704c2.8672 8.6016 5.7344 22.9376 14.33600001 25.8048 5.7344-14.33599999 8.6016-34.4064 2.86719999-45.87519999h-40.1408v-2.8672-20.0704c20.0704-5.7344 40.14079999-20.0704 40.1408-43.008h-8.6016c-8.6016 2.8672-25.8048 2.8672-37.27359999-2.8672 0-5.7344 2.8672-14.33599999 2.86719999-20.0704H1382.77760001c0 31.5392-11.46880001 43.008-20.0704 60.2112h14.33600001v60.2112c-2.8672 8.6016-14.33599999 28.672-11.46880001 34.4064 2.8672 14.33599999 63.07840001 17.2032 80.28160001 11.4688v-8.60159999h-60.21120001v-20.07040001c20.0704 0 40.14079999-2.8672 60.21120001-2.86720001v-5.73439999h-54.47680001v-5.7344c2.8672-8.6016-2.8672-20.0704 8.60160001-17.20319999 11.46880001-2.8672 34.4064 0 45.8752-2.86720001v-5.7344l-2.86720001-2.8672c-17.2032 2.8672-25.8048 0-48.74239999 0v-20.0704h2.86719999c17.2032 0 31.5392-2.8672 48.74240001-2.8672v-8.6016h-57.34400001v-22.9376c17.2032 0 48.7424 5.7344 57.34400001-5.7344-2.8672-2.8672 0-2.8672-2.86720001-2.86720001-14.33599999-5.7344-37.27360001 2.8672-48.74239999-2.86719998v-20.07040001c17.2032 0 37.27360001 2.8672 51.6096-2.86720001v-8.60159999h40.14079999c2.8672 8.6016 2.8672 8.6016 11.46880001 11.4688 17.2032-2.8672 48.7424-5.7344 57.344 14.336 0 5.7344 2.8672 11.46880001 2.8672 20.0704 8.6016 0 14.33599999 0 17.2032 2.8672-5.7344 2.8672-5.7344 8.6016-5.73440001 14.336z m321.12640001-5.73439999v20.07039999c-14.33599999 0-28.672 2.8672-40.14080001 0-5.7344 0-8.6016-5.7344-14.336-5.7344-2.8672-5.7344-8.6016-14.33599999-8.6016-20.0704 0-8.6016 2.8672-20.0704 0-28.672H1775.58400001c-2.8672 17.2032 0 37.27360001-11.46879999 48.7424-14.33599999 2.8672-37.27360001 5.7344-51.6096 2.8672 0-5.7344 2.8672-11.46880001 2.86719999-20.0704 28.672 0 17.2032-43.008 20.07040001-60.2112h129.024l8.60159999 8.6016c0 17.2032-2.8672 34.4064 0 43.008 0 2.8672 2.8672 2.8672 5.7344 5.7344 2.8672 5.7344 5.7344 5.7344 11.46880001 5.73440001z m212.17279999-60.21120001c34.4064 0 65.94559999 2.8672 100.35200001 2.8672 22.9376 17.2032 5.7344 71.68 14.33599999 97.4848l-2.8672 2.8672h-100.352c0 20.0704-5.7344 51.6096 2.86720001 65.9456 14.33599999-5.7344 22.9376-11.46880001 28.67199999-5.73439999 2.8672 2.8672 0 11.46880001 2.86720001 20.07039999-5.7344 11.46880001-65.94559999 17.2032-77.4144 14.336 0-5.7344-2.8672-20.0704-2.86720001-22.9376 0-2.8672 5.7344 0 8.6016-2.8672v-5.73440001-166.29759999h25.8048z m278.11840001 25.8048v-20.0704c45.8752-2.8672 120.4224-5.7344 160.56319999 0v20.0704h-160.56319999z m-676.6592 2.8672H1623.62240001c0-11.46880001 0-17.2032 2.86720001-20.07039999h77.4144v20.07039999z m-665.1904-5.7344c-2.8672 2.8672-8.6016 2.8672-11.46880001 11.46880001-2.8672 11.46880001 0 28.672 0 45.87519999v97.4848h2.8672c5.7344 2.8672 157.696 2.8672 166.29760001 0v-149.0944h-2.8672c-51.6096-2.8672-103.2192-5.7344-154.8288-5.7344z m1083.8016 0h-8.60160001v17.2032H2176.99200002c0-8.6016 0-14.33599999-2.8672-17.2032h-51.6096z m186.36799999 177.7664c0-20.0704 2.8672-71.68-5.73439999-77.4144-5.7344 2.8672-11.46880001 5.7344-20.07040001 8.6016-5.7344-11.46880001-11.46880001-17.2032-14.336-28.672 40.14079999-8.6016 57.344-48.7424 86.01600001-71.68 8.6016 5.7344 14.33599999 11.46880001 22.93759999 20.0704-5.7344 14.33599999-25.8048 25.8048-28.67199999 40.1408v111.8208c-14.33599999-2.8672-25.8048-2.8672-40.14080001-2.8672z m-825.7536-157.696h28.672v-8.60159999h-25.8048c-2.8672 2.8672-2.8672 5.7344-2.8672 8.60159999z m-298.1888 60.2112h-34.4064v2.8672c14.33599999-2.8672 20.0704 11.46880001 34.4064 17.2032v14.33600001h-22.93759999v2.86719998c8.6016 0 20.0704-2.8672 22.93759999 2.86720001v14.336c-5.7344 8.6016-131.8912 8.6016-151.96159999 2.8672v-20.07040001c17.2032-2.8672 37.27360001 2.8672 48.74239999-2.86719998v-40.14080001c-17.2032 0-40.14079999 2.8672-48.74239999-2.8672v-20.0704c17.2032 0 37.27360001 5.7344 48.74239999-2.8672v-17.2032H1032.97920002v-22.9376h149.09439999v5.73439999c2.8672 5.7344 2.8672 11.46880001-2.8672 17.20320001-8.6016 2.8672-40.14079999-2.8672-48.7424 2.8672v17.2032c17.2032 0 31.5392 2.8672 48.7424 2.8672 5.7344 11.46880001 5.7344 20.0704 5.7344 25.8048z m-450.1504-57.344c-8.6016 2.8672-22.9376 0-28.67199999 5.7344 2.8672 17.2032-5.7344 91.75039999 2.86719999 103.2192 8.6016 2.8672 43.008 5.7344 57.344 0 2.8672-11.46880001 0-34.4064 0-57.344 0-20.0704 0-40.14079999-2.8672-48.7424-8.6016 0-17.2032 0-28.672-2.8672z m83.1488 0h-2.8672v54.4768c0 17.2032 0 31.5392 2.8672 51.6096 17.2032 2.8672 43.008 2.8672 60.21120001 0v-106.0864h-60.21120001z m788.48000001 28.672v-20.0704h68.81279999v100.352c11.46880001-8.6016 20.0704-17.2032 31.5392-25.8048 0 11.46880001 2.8672 22.9376 0 34.40640001-8.6016 14.33599999-51.6096 48.7424-74.54719999 37.27359999-2.8672-5.7344-8.6016-11.46880001-11.46880001-17.2032V540.672c5.7344 0 8.6016-2.8672 14.33600001-2.8672v-60.2112c0-14.33599999 2.8672-28.672 0-37.2736-5.7344-5.7344-17.2032-5.7344-28.672-5.7344z m504.62719999-11.46880001v14.33600001l2.8672 2.8672c8.6016 2.8672 57.344 0 60.21120001 0V425.984h-2.86720001c-20.0704 0-40.14079999 0-60.2112-2.86720001z m-627.9168 2.86720001c0 5.7344 0 8.6016 2.8672 14.336h25.8048v-11.4688c-11.46880001 0-20.0704 0-28.672-2.8672z m888.832 2.8672h174.8992v2.8672c-2.8672 5.7344 2.8672 14.33599999 0 17.20319999-8.6016 2.8672-25.8048-2.8672-31.5392 0v54.47680001c0 11.46880001 2.8672 22.9376 0 34.4064-11.46880001 28.672-68.8128 22.9376-100.352 20.0704v-20.0704c20.0704 0 37.27360001 2.8672 54.4768-5.7344 2.8672-28.672 2.8672-60.2112 0-86.01599999-28.672-5.7344-71.68 0-100.352 0 2.8672-2.8672 2.8672-11.46880001 2.8672-17.20320001z m-662.32319999 40.1408c0-11.46880001 0-20.0704 5.73439999-22.93759999 57.344 0 114.68800001 2.8672 174.89920001 2.86719998v25.8048l-45.87520001 45.87520001c20.0704 5.7344 34.4064 11.46880001 60.2112 11.4688v28.672c-20.0704 0-43.008-2.8672-63.07839999-8.60160001-11.46880001-2.8672-22.9376-14.33599999-37.27360001-11.46879999-22.9376 5.7344-71.68 31.5392-91.75039999 20.0704v-22.9376-2.8672c20.0704-2.8672 37.27360001-5.7344 54.47679999-11.46879999v-2.86720001c-14.33599999-14.33599999-31.5392-20.0704-43.008-37.2736l2.8672-2.8672c37.27360001-8.6016 51.6096 11.46880001 77.4144 22.9376 17.2032-5.7344 31.5392-20.0704 40.1408-31.53919999v-2.86720001h-134.75839999z m-573.44-5.7344c-2.8672 8.6016-2.8672 17.2032 0 28.672 8.6016 8.6016 11.46880001 8.6016 22.93759999 11.4688-5.7344-11.46880001-8.6016-20.0704-14.33599999-31.53919999l5.73439999-5.73440001v-2.8672h-14.33599999z m1060.86399999 8.60160001h25.8048v5.73439999c-8.6016 14.33599999-20.0704 28.672-28.67199999 43.008 11.46880001 2.8672 22.9376 8.6016 34.4064 11.4688v28.672c-51.6096 0-91.75039999-45.8752-100.35200001-88.88319999h28.672c2.8672 11.46880001 11.46880001 22.9376 20.07040001 28.67199998 5.7344-5.7344 11.46880001-20.0704 20.07039999-28.67199998zM1202.14400001 629.55519999c-8.6016 0-11.46880001 0-17.2032-2.86719998-8.6016-37.27360001-83.1488-17.2032-68.81279999 37.27359999 5.7344 20.0704 31.5392 37.27360001 54.4768 25.8048 8.6016-5.7344 11.46880001-20.0704 20.07039999-22.9376h11.4688c-17.2032 51.6096-91.75039999 48.7424-103.2192-5.7344-11.46880001-63.07840001 63.07840001-77.4144 100.352-37.2736 2.8672 0 2.8672 2.8672 2.8672 5.73439999zM1744.04480001 598.016l5.7344 5.73439999v8.60160001h-14.33599999v-8.60160001-2.86719998s5.7344-2.8672 8.60159999-2.86720001z m-977.7152 65.9456c0 25.8048-40.14079999 54.4768-68.81279999 37.2736 0-5.7344-28.672-17.2032-31.53920001-48.74239999v-2.86720001c2.8672-60.2112 97.4848-68.8128 100.352-20.07040001h-14.336c-11.46880001-40.14079999-71.68-17.2032-71.67999999 22.93760002 0 45.8752 65.94559999 54.4768 71.67999999 11.46879999h14.336z m25.8048-65.9456v34.4064h8.60160001c5.7344-5.7344 22.9376-8.6016 34.4064-5.73439999 14.33599999 11.46880001 8.6016 22.9376 8.60159999 40.14079999 0 14.33599999 5.7344 31.5392 0 37.27360001h-11.46879999c0-20.0704-2.8672-40.14079999-2.86720001-60.21120001-17.2032-8.6016-22.9376-2.8672-34.4064 2.8672-5.7344 11.46880001 2.8672 51.6096-5.7344 57.34400001h-11.4688v-100.35200002c5.7344-5.7344 8.6016-5.7344 14.336-5.73439999z m71.68 0h8.6016v14.336h-11.46879999v-11.46879999c0-2.8672 0-2.8672 2.86719999-2.86720001z m1129.67680001 0c20.0704 0 43.008 0 57.34399999 11.4688 5.7344 17.2032 2.8672 22.9376-5.73439999 37.2736 5.7344 5.7344 11.46880001 11.46880001 17.20319999 20.0704 0 8.6016-2.8672 14.33599999-5.7344 22.9376-5.7344 2.8672-8.6016 8.6016-17.20319999 8.6016-20.0704 5.7344-43.008 2.8672-63.07840001-2.8672 0-34.4064-2.8672-77.4144 0-100.352 2.8672 2.8672 11.46880001 2.8672 17.20320001 2.8672z m243.71199999 0h11.4688v54.47680001c2.8672 0 2.8672-2.8672 5.73440001-2.86720001 8.6016-8.6016 20.0704-17.2032 28.67199999-22.93759999h14.33600001l-2.86720001 2.86719998c-8.6016 2.8672-17.2032 11.46880001-22.93759999 20.07040001v5.73439999c8.6016 5.7344 31.5392 34.4064 28.67199999 43.00800001-2.8672 0-8.6016-2.8672-11.4688-2.8672-8.6016-11.46880001-14.33599999-22.9376-22.9376-34.4064-5.7344 2.8672-8.6016 5.7344-14.33599999 5.7344 0 11.46880001-2.8672 20.0704-2.86720001 31.5392-5.7344 0-8.6016 0-11.4688-2.8672-2.8672-8.6016-2.8672-86.016 0-97.4848z m-785.61279999 28.67200001v-20.07040001c5.7344 0 8.6016 0 11.46879999 2.8672 0 5.7344 2.8672 11.46880001 2.8672 17.20320001 5.7344 0 8.6016 0 11.46880001 2.86719998v5.73440001h-11.46880001c0 17.2032-5.7344 40.14079999 2.8672 51.6096 2.8672 2.8672 5.7344 2.8672 11.46880001 2.8672v8.6016c-11.46880001 2.8672-20.0704 2.8672-22.93760001-5.7344-8.6016-14.33599999-2.8672-37.27360001-2.86719999-57.344-2.8672 0-5.7344-2.8672-11.46880001-2.8672 0-5.7344-2.8672-5.7344 8.60160001-5.73439999z m246.57919999-20.07040001h14.33600001v17.2032h11.46879999v8.6016c-5.7344 0-8.6016 2.8672-14.33599999 2.8672 0 17.2032-2.8672 40.14079999 2.8672 51.6096h11.46879999v8.6016l-2.8672 2.8672c-11.46880001 0-17.2032 0-20.0704-5.7344-8.6016-14.33599999-2.8672-45.8752-2.8672-60.2112h-11.46879999v-8.6016h11.46879999v-17.2032z m289.58720001 2.8672c-2.8672 8.6016-2.8672 20.0704 0 31.5392 17.2032 0 40.14079999 2.8672 51.6096-11.46880001 0-22.9376-25.8048-20.0704-51.6096-20.07039999z m-192.10240001 11.4688c17.2032 2.8672 25.8048 8.6016 37.27360001 17.2032 2.8672 31.5392 5.7344 54.4768-28.67200001 60.2112-5.7344 2.8672-22.9376 2.8672-31.5392-2.8672-17.2032-11.46880001-20.0704-51.6096-2.8672-65.94560001 5.7344-2.8672 14.33599999-5.7344 25.8048-8.60159999z m-794.2144 0c14.33599999 0 25.8048 2.8672 31.53920001 11.4688 8.6016 11.46880001 2.8672 40.14079999 2.86719999 51.6096 2.8672 0 5.7344 2.8672 8.6016 2.8672v5.7344c-11.46880001 2.8672-17.2032-2.8672-22.9376-8.6016-17.2032 8.6016-28.672 11.46880001-48.7424 2.8672-2.8672-5.7344-5.7344-11.46880001-5.7344-20.0704 14.33599999-22.9376 40.14079999-8.6016 57.344-25.8048 0-2.8672-2.8672-5.7344-2.8672-8.6016-14.33599999-2.8672-22.9376-5.7344-37.2736 2.8672-2.8672 5.7344 0 5.7344-8.6016 5.7344H972.76800001l8.60160001-17.2032c5.7344 2.8672 11.46880001 0 20.07039999-2.8672z m292.4544 5.73440001h11.4688v5.73439999c8.6016-2.8672 31.5392-17.2032 45.87520001-2.86720001 17.2032 11.46880001 11.46880001 48.7424 8.60159999 68.81280001H1345.50400001c0-14.33599999 2.8672-65.94559999-14.336-60.2112h-17.2032c-2.8672 5.7344-8.6016 8.6016-8.6016 14.33600001-2.8672 14.33599999 2.8672 34.4064 0 45.87519999h-11.4688c0-11.46880001 0-31.5392-2.86719999-37.2736 0 51.6096-71.68 54.4768-83.14880001 8.6016-11.46880001-45.8752 60.2112-68.8128 83.14880001-11.4688h2.86719999V626.68800001z m103.2192-2.86720001c17.2032 0 40.14079999 0 40.1408 20.0704h-11.46879999c-5.7344-11.46880001-22.9376-11.46880001-34.40640001-8.6016 0 2.8672-2.8672 2.8672-2.8672 5.7344s2.8672 5.7344 2.8672 8.6016c17.2032 5.7344 37.27360001 11.46880001 51.6096 20.0704v14.336c-8.6016 25.8048-63.07840001 22.9376-65.94559999-5.73439999h11.46879999c5.7344 11.46880001 11.46880001 11.46880001 20.0704 17.20319999 11.46880001-2.8672 20.0704-2.8672 22.9376-17.20319999-17.2032-11.46880001-34.4064-11.46880001-51.6096-20.07040001 0-8.6016-2.8672-11.46880001 0-20.0704 2.8672-8.6016 8.6016-11.46880001 17.2032-14.336z m487.42400001 0c11.46880001 0 17.2032 2.8672 25.8048 8.6016 2.8672 14.33599999 8.6016 45.8752 2.86719999 65.9456h-11.4688c0-20.0704 2.8672-51.6096-8.60159999-60.2112-5.7344-5.7344-14.33599999-2.8672-22.93760001 0-2.8672 2.8672-5.7344 8.6016-11.46879999 11.4688v48.7424h-5.73440001c-5.7344 2.8672-5.7344-2.8672-8.6016-8.6016V626.68800001h11.4688c0 2.8672 2.8672 5.7344 2.86720001 5.73439999l25.8048-8.6016z m-966.24640001 0c14.33599999 0 22.9376 2.8672 31.5392 5.73439999 8.6016 20.0704 5.7344 43.008 5.73440001 65.94560001H944.09600001c-5.7344-22.9376 2.8672-43.008-5.73439999-60.2112l-2.8672-2.8672c-8.6016 0-14.33599999 2.8672-22.9376 2.8672-11.46880001 17.2032-2.8672 48.7424-11.46880001 60.2112h-11.4688v-71.68h8.6016c2.8672 2.8672 2.8672 2.8672 2.8672 5.73439999 5.7344 0 11.46880001-2.8672 17.2032-5.73439999z m604.97920001 0c5.7344 2.8672 5.7344 8.6016 0 14.336-8.6016-2.8672-14.33599999 2.8672-20.0704 5.7344 0 5.7344-2.8672 8.6016-2.86720001 14.336 0 14.33599999 2.8672 31.5392-2.86719999 40.1408-2.8672 0-5.7344-2.8672-8.60160001-2.8672V626.68800001H1497.46560002c0 2.8672 2.8672 5.7344 2.86719999 8.60159999 8.6016-5.7344 14.33599999-5.7344 22.93760001-11.4688z m123.28959999 0c20.0704 0 31.5392 5.7344 37.27360001 20.0704v2.8672h-11.46880001c-5.7344-14.33599999-25.8048-17.2032-40.14079999-8.6016-11.46880001 22.9376-8.6016 37.27360001 11.46879999 51.6096 8.6016 0 17.2032-2.8672 22.9376-8.60160001 2.8672-2.8672 5.7344-8.6016 8.6016-11.46879999 2.8672-2.8672 5.7344 0 11.46880001 0-5.7344 28.672-48.7424 40.14079999-65.94560001 14.336-14.33599999-22.9376-8.6016-45.8752 2.8672-57.34399999 5.7344 0 14.33599999 0 22.9376-2.86720001z m444.41600001 0c20.0704 0 31.5392 2.8672 43.00799999 8.6016 0 11.46880001 0 40.14079999 2.8672 48.74239999 2.8672 8.6016 5.7344 0 8.6016 5.73440001 0 0-2.8672 2.8672 0 5.7344l-2.86719999 2.8672c-8.6016 2.8672-17.2032-2.8672-20.0704-8.6016-17.2032 11.46880001-40.14079999 11.46880001-54.47680001 0v-14.336c14.33599999-22.9376 37.27360001-11.46880001 57.34400001-22.9376v-8.6016c-2.8672 0-5.7344-2.8672-5.73440001-2.8672-17.2032-8.6016-28.672 2.8672-40.1408 11.4688h-5.73439999v-2.8672c2.8672-5.7344 2.8672-8.6016 8.60159999-11.4688 2.8672-5.7344 5.7344-8.6016 8.60160001-11.4688z m97.48479999 0c11.46880001 0 17.2032 2.8672 25.8048 5.73439999 5.7344 14.33599999 11.46880001 51.6096 2.8672 68.81280001H2205.66400001c0-22.9376 2.8672-45.8752-8.6016-60.2112h-2.86719999c-14.33599999 0-20.0704 2.8672-28.67200001 8.6016-2.8672 14.33599999-2.8672 34.4064-2.8672 51.6096-2.8672 0-5.7344 2.8672-5.7344 2.8672h-2.8672c-5.7344-17.2032-2.8672-45.8752-2.86719999-71.68000001 5.7344 0 11.46880001-2.8672 11.46879999 2.86720001 5.7344 2.8672 14.33599999 0 25.8048-8.6016zM858.08000002 626.68800001c5.7344 0 11.46880001 0 14.33599999 2.86719998v71.68000001H858.08000002V626.68800001z m877.3632 0h14.33599999v71.67999999h-11.46879999-2.8672V626.68800001z m-200.70400001 0h11.4688c0 28.672-5.7344 68.8128 31.5392 60.21119999 5.7344-14.33599999 11.46880001-40.14079999 8.6016-60.21119999h14.33600001c2.8672 11.46880001 5.7344 57.344-2.86720001 71.67999999h-8.6016v-8.6016c-5.7344 2.8672-8.6016 5.7344-14.33599999 8.6016-5.7344 2.8672-14.33599999 2.8672-22.93760001 2.8672-2.8672-2.8672-8.6016-5.7344-11.4688-8.6016-8.6016-11.46880001-11.46880001-45.8752-5.7344-65.94559999z m252.31360001 5.73439999c-17.2032 11.46880001-22.9376 31.5392-11.46880001 51.6096 5.7344 2.8672 8.6016 5.7344 14.33600001 5.7344 11.46880001-2.8672 20.0704-2.8672 22.9376-14.336 8.6016-14.33599999 2.8672-31.5392-2.86720001-40.1408-5.7344 0-11.46880001-2.8672-22.93759999-2.8672z m-541.9008 2.8672c-2.8672 0-5.7344 2.8672-8.60160001 2.8672-17.2032 11.46880001-14.33599999 34.4064-2.8672 51.6096 17.2032 5.7344 22.9376 5.7344 37.27360001-5.7344 2.8672-17.2032 2.8672-25.8048 0-40.1408-11.46880001-5.7344-17.2032-8.6016-25.8048-8.6016z m742.6048 17.20320001V684.032c0 2.8672 2.8672 2.8672 2.86719999 5.7344 28.672 0 45.8752 2.8672 54.47680001-17.2032-2.8672-5.7344-2.8672-8.6016-5.7344-14.336-17.2032-5.7344-31.5392-5.7344-51.6096-5.73439999z m-969.11360001 8.60159999c-14.33599999 5.7344-28.672 2.8672-40.1408 8.6016v11.46879999c17.2032 8.6016 28.672 2.8672 40.1408-5.73439999 2.8672-2.8672 5.7344-8.6016 0-14.336z m1101.0048 2.8672c-11.46880001 2.8672-22.9376 5.7344-37.2736 5.7344-2.8672 8.6016-2.8672 14.33599999 5.7344 20.0704 14.33599999 8.6016 34.4064-5.7344 37.27360001-14.336v-11.4688H2119.64800001z" fill="#231815" p-id="18673"></path></svg>