<?xml version="1.0" standalone="no"?><!DOCTYPE svg PUBLIC "-//W3C//DTD SVG 1.1//EN" "http://www.w3.org/Graphics/SVG/1.1/DTD/svg11.dtd"><svg t="1547620215230" class="icon" style="" viewBox="0 0 1024 1024" version="1.1" xmlns="http://www.w3.org/2000/svg" p-id="2570" xmlns:xlink="http://www.w3.org/1999/xlink" width="200" height="200"><defs><style type="text/css"></style></defs><path d="M660.49942661 108.22986971c-71.76739085-81.69668065-139.01004397-82.19942896-139.0100425-82.19942897s161.19383433-69.75639613 306.36255061 75.41232013l153.96681982 153.96681982s10.49488074 8.98663434 9.42654001 14.32834084c-2.2623696 10.49488074-8.29535522 21.24113634-8.29535521 21.24113635l-70.51051934 67.55687062-252.00283601-250.30605879z m302.65477869 434.87771236s13.13431194-2.95364871 19.48151653 1.57109048c6.09582971 4.39905249 5.2788624 6.66142211 5.21601831 9.74075753-11.94028452 256.2762018-223.84890414 460.32937041-477.61136143 460.32937042-257.47022922 0-477.54851734-212.59989873-477.54851736-478.05126565 0-235.97771799 167.28966401-433.87221574 398.1770504-471.89259334 25.89156372-4.21052172 92.75715378-9.74075751 153.65260231 51.09184692l287.44662793 286.00122417-98.66445267 100.17269907s-13.95127923 12.44303282-23.62919415 9.92928833c-10.43203811-2.76511791-19.16729755-12.94578113-19.16729754-12.94578113l-213.54255273-213.66824092a9.67791491 9.67791491 0 0 0-13.57421761 0L260.62559901 527.58521234a9.67791491 9.67791491 0 0 0 0 13.63706172l242.38776665 241.75933016c3.770616 3.770616 9.80360162 3.770616 13.57421765 0l228.24795514-227.17961445s10.49488074-8.79810353 14.20265414-10.4320381c5.65592402-2.57658711 18.97876674-2.2623696 18.97876674-2.2623696h185.07440188z" fill="#0E3484" p-id="2571"></path></svg>