<?xml version="1.0" standalone="no"?><!DOCTYPE svg PUBLIC "-//W3C//DTD SVG 1.1//EN" "http://www.w3.org/Graphics/SVG/1.1/DTD/svg11.dtd"><svg t="1547620192222" class="icon" style="" viewBox="0 0 1024 1024" version="1.1" xmlns="http://www.w3.org/2000/svg" p-id="1792" xmlns:xlink="http://www.w3.org/1999/xlink" width="200" height="200"><defs><style type="text/css"></style></defs><path d="M803.95451141 758.65214714c-59.18253567 1.90279491-113.87927939 3.81937106-173.03622133 5.72019722-37.47216672 159.36523509-347.33047286 116.33627743-312.80650733-85.90632157 17.34959264-119.8002891 179.23482478-172.12764417 279.68035234-81.66071718 22.06375959 24.93517853 32.88695188 48.10734338 39.96853872 98.86068478 49.63115489-1.90377929 116.57449519-3.81838667 166.1938376-5.72118258 2.50720117-257.73176362-290.22791961-388.53243351-509.73250191-263.4647577-210.43259115 119.87510159-186.14020852 485.14874528 34.37237278 578.43885688v5.74579094c-120.2412891-2.36840428-252.1375664-95.50790649-280.85372539-206.18600134l1.62520118-594.18982644C144.81076452 145.37432374 250.31105281 67.56940054 345.76875617 2.66666668l11.46598915 5.73299408c-6.61499313 89.57311552-2.41959179 237.27056556 2.85960648 345.06247584 59.80072316-58.03475545 100.09410567-118.72929008 203.32639486-138.88927039 66.52793503-12.9897997 130.22087303-5.15319823 170.38923992 8.59358486 301.57972131 103.31989959 320.35468695 493.01094052 64.43614011 627.13780963-5.74480659 0-18.19418541 11.27698917-27.69437869 13.14237779 0-1.90279491 5.98499411-10.18138078 10.49539542-18.8753719l22.9063836-85.91911945z" fill="#13227a" p-id="1793"></path></svg>