<?xml version="1.0" standalone="no"?><!DOCTYPE svg PUBLIC "-//W3C//DTD SVG 1.1//EN" "http://www.w3.org/Graphics/SVG/1.1/DTD/svg11.dtd"><svg t="1547622624464" class="icon" style="" viewBox="0 0 2560 1024" version="1.1" xmlns="http://www.w3.org/2000/svg" p-id="19862" xmlns:xlink="http://www.w3.org/1999/xlink" width="500" height="200"><defs><style type="text/css"></style></defs><path d="M454.77275768 656.98828643c-32.54839083 0-65.09678166 2.95894462-97.64517248 2.9589446-20.71261235 91.72728325-198.2492896 65.09678166-177.53667725-50.30205854 8.87683386-68.05572627 103.56306173-97.64517249 159.78300952-47.34311394 11.83577849 14.7947231 17.75366773 26.63050159 23.67155697 56.2199478 29.58944621 0 65.09678166-2.95894462 94.68622787-2.95894462 0-147.94723103-165.70089876-221.92084656-289.97657285-150.90617567-121.31672945 68.05572627-106.52200635 278.14079436 20.71261235 328.44285291v2.95894463c-68.05572627 0-144.98828643-53.26100317-159.78300952-118.35778484V337.42226738c53.26100317-38.46628008 115.39884021-82.85044938 168.65984339-118.35778484 2.95894462 0 2.95894462 2.95894462 5.91788924 2.95894462-2.95894462 50.30205855 0 136.11145256 2.95894462 198.24928959 35.50733545-32.54839083 56.21994779-68.05572627 115.39884021-79.89150476 38.46628008-8.87683386 73.97361552-2.95894462 97.64517249 5.91788925 171.61878801 59.17889241 183.45456649 281.09973897 35.50733544 358.03229911-2.95894462 0-11.83577849 5.91788924-14.7947231 8.87683386l5.91788924-11.83577848c0-11.83577849 2.95894462-29.58944621 8.87683386-44.3841693zM1984.54712665 242.73603951c14.7947231 2.95894462 26.63050159 8.87683386 35.50733544 20.71261235-5.91788924 23.67155697-26.63050159 32.54839083-20.71261234 50.30205854 2.95894462 8.87683386 14.7947231 14.7947231 20.71261234 20.71261235 5.91788924 8.87683386 8.87683386 26.63050159 17.75366773 32.54839082 11.83577849 8.87683386 20.71261235 5.91788924 38.46628007 2.95894463 38.46628008-5.91788924 85.809394-23.67155697 133.15250793-32.54839082 2.95894462 2.95894462 5.91788924 8.87683386 8.87683386 11.83577848-8.87683386 14.7947231-14.7947231 26.63050159-26.63050158 32.54839082-14.7947231 5.91788924-35.50733545 2.95894462-50.30205855 17.75366773-8.87683386 11.83577849-5.91788924 26.63050159-5.91788924 47.34311393 2.95894462 41.42522469 14.7947231 94.68622786-2.95894463 127.23461869-8.87683386 0-14.7947231 2.95894462-23.67155696 2.95894463-23.67155697-11.83577849-50.30205855-23.67155697-65.09678166-44.38416931l2.95894462-2.95894462c17.75366773-2.95894462 32.54839083-2.95894462 50.30205856-5.91788924 0-41.42522469 2.95894462-85.809394 2.95894462-127.2346187-2.95894462 0-8.87683386 2.95894462-11.83577848 2.95894462-11.83577849 2.95894462-47.34311394 23.67155697-62.13783705 2.95894462-2.95894462-11.83577849-8.87683386-23.67155697-11.83577848-35.50733546l-29.5894462 29.58944622c0 17.75366773-2.95894462 38.46628008 0 59.17889242 5.91788924 41.42522469 14.7947231 88.76833862-2.95894462 118.35778482-2.95894462 2.95894462-8.87683386 2.95894462-11.83577849 5.91788924-5.91788924-8.87683386-8.87683386-11.83577849-8.87683386-11.83577848-5.91788924-5.91788924-11.83577849-11.83577849-20.71261235-17.75366771 0-44.38416932 17.75366773-73.97361552 5.91788924-115.39884022h-2.95894462c-29.58944621 8.87683386-32.54839083 32.54839083-62.13783703 41.42522469l-8.87683387-8.87683387v-17.75366771c26.63050159-35.50733545 62.13783703-56.21994779 85.80939401-97.64517249 0-2.95894462-2.95894462-5.91788924-2.95894462-8.87683386-11.83577849-2.95894462-14.7947231 2.95894462-23.67155697-8.87683387v-8.87683386c11.83577849-32.54839083 41.42522469-44.38416932 53.26100318-82.85044938z m-1127.35790053 17.75366772c20.71261235 2.95894462 32.54839083 8.87683386 44.38416931 17.75366772v38.46628008c8.87683386 2.95894462 14.7947231 5.91788924 23.67155696 8.87683386 17.75366773-8.87683386 35.50733545-14.7947231 62.13783704-17.75366773 8.87683386 14.7947231 11.83577849 17.75366773 8.87683387 38.46628008-32.54839083 2.95894462-62.13783703-2.95894462-88.76833863 11.83577848v2.95894462c2.95894462 8.87683386 2.95894462 17.75366773 5.91788924 26.63050158 23.67155697 2.95894462 68.05572627 8.87683386 82.85044939 29.58944622 2.95894462 11.83577849 2.95894462 8.87683386-5.91788924 17.75366772-23.67155697 8.87683386-44.38416932 0-62.13783705-11.83577848-14.7947231-8.87683386-29.58944621-14.7947231-38.46628006-26.63050159-5.91788924-8.87683386-8.87683386-23.67155697-11.83577849-32.54839082h-8.87683386c-2.95894462 2.95894462-8.87683386 5.91788924-11.83577848 11.83577847-2.95894462 11.83577849-2.95894462 29.58944621-5.91788925 38.46628007-5.91788924 14.7947231-17.75366773 20.71261235-20.71261234 32.54839083 8.87683386 5.91788924 14.7947231 8.87683386 20.71261234 20.71261234 5.91788924 0 11.83577849-2.95894462 17.75366773-2.95894462 2.95894462-14.7947231 5.91788924-23.67155697 17.75366772-32.54839082 11.83577849 2.95894462 23.67155697 8.87683386 35.50733545 11.83577849v2.95894461c-5.91788924 14.7947231-20.71261235 23.67155697-17.75366772 38.46628007 14.7947231 47.34311394 59.17889241 65.09678166 97.64517249 71.01467091 29.58944621 5.91788924 50.30205855-2.95894462 65.09678165 17.75366771l-11.83577848 11.83577849c-20.71261235 0-53.26100317 32.54839083-68.05572628 20.71261234-35.50733545-26.63050159-71.0146709-62.13783703-103.56306172-88.76833862-29.58944621 23.67155697-53.26100317 50.30205855-85.80939401 59.17889242-23.67155697 5.91788924-47.34311394 2.95894462-82.85044938-5.91788925v-8.87683386h17.75366772c11.83577849-2.95894462 26.63050159-2.95894462 41.42522469-5.91788923 35.50733545-8.87683386 68.05572627-26.63050159 73.97361552-65.09678167-14.7947231-11.83577849-26.63050159-29.58944621-44.3841693-35.50733544-14.7947231-5.91788924-32.54839083 2.95894462-38.46628008-8.87683387 2.95894462-2.95894462 5.91788924-8.87683386 8.87683386-11.83577848 29.58944621-2.95894462 47.34311394-26.63050159 59.17889241-50.30205856 0-5.91788924-2.95894462-11.83577849-2.95894461-17.75366773-32.54839083 2.95894462-38.46628008 5.91788924-65.09678166 0-2.95894462-2.95894462-2.95894462-8.87683386-5.91788924-11.83577847 8.87683386-8.87683386 2.95894462-11.83577849 14.7947231-8.87683386 100.60411711-2.95894462 82.85044938-11.83577849 115.39884022-23.67155697v-2.95894462c-8.87683386-14.7947231-23.67155697-23.67155697-35.50733546-35.50733545-5.91788924-2.95894462-2.95894462-14.7947231 2.95894463-23.67155697z m473.43113932 0c17.75366773 5.91788924 26.63050159 11.83577849 29.58944621 35.50733545-20.71261235 14.7947231-44.38416932 29.58944621-59.17889241 53.26100318 2.95894462 11.83577849 2.95894462 14.7947231 8.87683387 23.67155696 11.83577849-11.83577849 17.75366773-17.75366773 38.46628006-20.71261234 14.7947231 17.75366773 26.63050159 26.63050159 8.87683386 50.30205855 0 8.87683386-2.95894462 11.83577849-2.95894462 26.63050159s8.87683386 20.71261235 8.87683387 41.42522469c2.95894462 23.67155697 0 62.13783703 2.95894461 73.97361552 23.67155697-5.91788924 47.34311394-11.83577849 71.0146709-20.71261234 2.95894462 2.95894462 2.95894462 5.91788924 5.91788925 8.87683386-44.38416932 118.35778484-177.53667725 26.63050159-275.18184974 23.67155697-23.67155697 8.87683386-47.34311394 14.7947231-71.01467089 23.67155695-14.7947231-20.71261235-17.75366773-20.71261235-2.95894463-38.46628006 11.83577849 0 26.63050159-2.95894462 38.46628007-2.95894462 0-5.91788924 5.91788924-8.87683386 5.91788924-14.7947231v-14.79472311c-8.87683386-17.75366773-20.71261235-41.42522469-23.67155696-65.09678165-2.95894462-14.7947231 5.91788924-26.63050159 5.91788923-38.46628008l-5.91788923-35.50733545c2.95894462 0 5.91788924-2.95894462 8.87683386-2.95894463 8.87683386-5.91788924 11.83577849-5.91788924 23.67155696-2.9589446 5.91788924 11.83577849 11.83577849 20.71261235 20.71261235 32.54839082-2.95894462 8.87683386-8.87683386 20.71261235-11.83577848 32.54839083-2.95894462 20.71261235 2.95894462 41.42522469 8.87683386 62.13783703 2.95894462 20.71261235 5.91788924 41.42522469 23.67155697 50.30205856h20.71261235c0-2.95894462 2.95894462-2.95894462 2.95894462-5.91788924-5.91788924-17.75366773-5.91788924-50.30205855-5.91788925-79.89150476 0-20.71261235-2.95894462-41.42522469 2.95894463-53.26100318 11.83577849 0 26.63050159 0 32.54839082-8.87683387 5.91788924-5.91788924 5.91788924-20.71261235 8.87683386-26.63050159 5.91788924-8.87683386 14.7947231-2.95894462 17.75366773-8.87683385 2.95894462-5.91788924 2.95894462-20.71261235 2.95894462-26.63050159-2.95894462 0-5.91788924-2.95894462-8.87683386-2.95894462-11.83577849 8.87683386-23.67155697 20.71261235-35.50733546 29.58944621-2.95894462-2.95894462-8.87683386-5.91788924-11.83577847-8.87683386 2.95894462-11.83577849 2.95894462-20.71261235 5.91788923-32.54839083 17.75366773 0 35.50733545 2.95894462 44.38416932 0 11.83577849-2.95894462 17.75366773-17.75366773 26.63050159-26.63050159 14.7947231-17.75366773 26.63050159-20.71261235 38.46628006-29.58944621z m266.30501588 5.91788924c35.50733545 5.91788924 38.46628008 50.30205855 53.26100317 76.93256015l-8.87683386 17.75366772h-2.95894462c-11.83577849-8.87683386-20.71261235-14.7947231-32.54839083-23.67155696-14.7947231 8.87683386-35.50733545 26.63050159-11.83577848 41.42522468 14.7947231 2.95894462 14.7947231-8.87683386 29.5894462 0 2.95894462 2.95894462 5.91788924 2.95894462 8.87683386 5.91788924-2.95894462 14.7947231-8.87683386 23.67155697-8.87683386 29.58944621 0 5.91788924 11.83577849 14.7947231 17.75366773 26.63050159-14.7947231 11.83577849-23.67155697 14.7947231-26.63050159 41.42522469 2.95894462 0 2.95894462 2.95894462 5.91788924 2.95894462s5.91788924-2.95894462 8.87683387-2.95894462c2.95894462-8.87683386 2.95894462-17.75366773 5.91788924-26.63050158h11.83577848c2.95894462 20.71261235-2.95894462 38.46628008 2.95894462 53.26100317 5.91788924 0 11.83577849-2.95894462 17.75366773-2.95894462-2.95894462-29.58944621-2.95894462-76.93256014-2.95894462-118.35778484 0-29.58944621-2.95894462-56.21994779 5.91788924-73.97361552 38.46628008 8.87683386 50.30205855-20.71261235 88.76833862-26.63050159 5.91788924 2.95894462 11.83577849 8.87683386 17.75366773 11.83577849-5.91788924 38.46628008-14.7947231 56.21994779-17.75366773 112.43989559-23.67155697 11.83577849-23.67155697 23.67155697-53.26100317 29.58944621 5.91788924 17.75366773 20.71261235 23.67155697 38.46628007 11.83577849 23.67155697-14.7947231 23.67155697-41.42522469 44.38416932-56.2199478h35.50733544c0 2.95894462 2.95894462 2.95894462 2.95894462 5.91788924v11.83577848c-17.75366773 8.87683386-53.26100317 26.63050159-53.26100317 53.26100317l53.26100317 35.50733546c8.87683386 17.75366773-2.95894462 38.46628008-8.87683387 50.30205855-14.7947231-11.83577849-44.38416932-59.17889241-62.13783703-41.42522469-35.50733545 14.7947231-20.71261235 68.05572627-68.05572627 73.97361552-5.91788924-2.95894462-11.83577849-2.95894462-17.75366773-5.91788925-2.95894462-8.87683386-5.91788924-5.91788924-5.91788924-14.7947231s-2.95894462-32.54839083-5.91788925-32.54839082c-35.50733545 17.75366773-97.64517249 56.21994779-136.11145255 29.5894462v-2.95894461c11.83577849-8.87683386 29.58944621-14.7947231 41.42522469-23.67155697-2.95894462-11.83577849-8.87683386-26.63050159-11.83577849-38.46628007 11.83577849-2.95894462 20.71261235-5.91788924 32.54839084-8.87683387v-8.87683386c-2.95894462-2.95894462-5.91788924-2.95894462-8.87683386-5.91788925l-17.75366773 8.87683387c-11.83577849-8.87683386-17.75366773-5.91788924-20.71261235-26.63050158 14.7947231-2.95894462 29.58944621-8.87683386 44.38416932-11.83577848 0-17.75366773-2.95894462-20.71261235-8.87683387-32.54839084h-23.67155696c-14.7947231 14.7947231-29.58944621 29.58944621-41.42522469 44.38416932-17.75366773 0-29.58944621 0-38.46628007-5.91788924h-5.91788925v-11.83577849c14.7947231-8.87683386 32.54839083-17.75366773 47.34311394-29.58944621 26.63050159-23.67155697 44.38416932-56.21994779 59.17889241-82.85044938 8.87683386-17.75366773 2.95894462-23.67155697 11.83577849-41.42522469 5.91788924-14.7947231 8.87683386-8.87683386 14.7947231-17.75366773z m550.36369947 23.67155697l17.75366772 8.87683386v8.87683386c-2.95894462 2.95894462-5.91788924 2.95894462-8.87683386 5.91788924-5.91788924 8.87683386-47.34311394 20.71261235-68.05572627 17.75366773-20.71261235 2.95894462-26.63050159-11.83577849-35.50733546-29.58944621h5.91788924c26.63050159-2.95894462 56.21994779-8.87683386 88.76833863-11.83577848z m-997.16433721 14.7947231c8.87683386 2.95894462 17.75366773 8.87683386 26.63050159 11.83577849 2.95894462 20.71261235 0 41.42522469-20.71261235 26.63050159-8.87683386-2.95894462-5.91788924-2.95894462-11.83577849-8.87683387-11.83577849-14.7947231-5.91788924-17.75366773 5.91788925-29.58944621z m568.11736719 17.75366773l-23.67155696 23.67155697c2.95894462 2.95894462 5.91788924 8.87683386 8.87683386 11.83577848 17.75366773 0 17.75366773-2.95894462 29.5894462-8.87683386 0-5.91788924 2.95894462-11.83577849 2.95894463-17.75366773-5.91788924-5.91788924-2.95894462-5.91788924-17.75366773-8.87683386z m-11.83577848 56.21994779c-2.95894462 14.7947231-2.95894462 23.67155697 2.95894463 35.50733545h8.87683385c2.95894462-5.91788924 8.87683386-11.83577849 11.83577848-17.75366772 0-5.91788924-2.95894462-11.83577849-2.95894462-17.75366773h-20.71261234z m-387.62174533 5.91788924c-5.91788924 2.95894462-11.83577849 8.87683386-20.71261234 11.83577849v11.83577848l11.83577849 11.83577848c8.87683386-2.95894462 11.83577849-2.95894462 17.75366771-8.87683386 5.91788924-11.83577849 2.95894462-17.75366773-8.87683386-26.63050159z m-71.0146709 23.67155697c-2.95894462 11.83577849-5.91788924 17.75366773-2.95894462 32.54839083h2.95894462c11.83577849-5.91788924 11.83577849-2.95894462 17.75366773-11.83577848v-20.71261235h-17.75366773z m65.09678166 32.54839083c-2.95894462 2.95894462-5.91788924 8.87683386-8.87683386 11.83577849l8.87683386 17.75366772c5.91788924-2.95894462 11.83577849 2.95894462 20.71261234-5.91788925v-20.71261233c-8.87683386-2.95894462-14.7947231-2.95894462-20.71261234-2.95894463z m-65.09678166 14.79472311c-2.95894462 0-2.95894462 2.95894462-5.91788924 2.95894462 2.95894462 8.87683386 0 14.7947231 5.91788924 23.67155696h8.87683387c2.95894462-2.95894462 2.95894462-5.91788924 5.91788924-8.87683387 0-2.95894462-2.95894462-8.87683386-2.95894463-11.83577847-2.95894462-2.95894462-8.87683386-2.95894462-11.83577848-5.91788924z m452.71852699 14.7947231c-8.87683386 17.75366773-11.83577849 38.46628008-2.95894462 50.30205855 5.91788924 5.91788924 0 2.95894462 11.83577849 5.91788924 23.67155697-14.7947231 38.46628008-56.21994779-8.87683387-56.21994779z m-390.58068994 14.7947231c-8.87683386 20.71261235-14.7947231 44.38416932-2.95894463 65.09678167h8.87683387c5.91788924-8.87683386 8.87683386-8.87683386 5.91788923-20.71261235 5.91788924-14.7947231 2.95894462-29.58944621-2.95894462-41.4252247-2.95894462 0-5.91788924 0-8.87683385-2.95894462z m-59.17889243 8.87683386c-2.95894462 2.95894462-5.91788924 8.87683386-8.87683386 11.83577849 2.95894462 11.83577849 2.95894462 26.63050159 5.91788924 38.46628007h11.83577848c2.95894462-2.95894462 5.91788924-2.95894462 8.87683387-5.91788924 2.95894462-23.67155697 5.91788924-41.42522469-17.75366773-44.38416932z" fill="#1D2088" p-id="19863"></path><path d="M718.11882894 686.57773262v26.63050159h20.71261234c11.83577849 0 17.75366773-5.91788924 17.75366773-14.7947231s-5.91788924-11.83577849-17.75366773-11.83577849H718.11882894z m-14.7947231 76.93256015v-88.76833863h38.46628006c14.7947231 0 23.67155697 8.87683386 23.67155697 23.67155697 0 8.87683386-2.95894462 14.7947231-11.83577849 17.75366773 11.83577849 2.95894462 17.75366773 11.83577849 17.75366773 20.71261235 0 17.75366773-11.83577849 26.63050159-29.58944621 26.63050158h-38.46628006z m14.7947231-38.46628007v29.58944621h26.63050158c11.83577849 0 17.75366773-5.91788924 17.75366773-14.79472311s-5.91788924-14.7947231-20.71261235-14.7947231H718.11882894z m124.27567407 14.7947231H806.88716756l-8.87683386 26.63050158h-11.83577848l32.54839083-88.76833862h14.79472309l32.54839084 88.76833862h-11.83577849l-11.83577848-26.63050158z m-29.5894462-11.83577848h26.63050158l-11.83577849-38.46628007-14.79472309 38.46628007z m130.19356331 20.71261235v-71.01467091h11.83577848v88.76833862h-14.79472311L895.65550619 692.49562187v71.0146709h-11.83577848v-88.76833863h14.7947231l44.38416931 73.97361553z m47.34311394-14.79472311v32.54839082h-11.83577849v-88.76833862h11.83577849V719.12612346l44.3841693-44.38416932h17.75366773L1014.01329102 713.20823421l38.46628007 53.26100317h-14.79472311l-29.5894462-44.3841693-17.75366772 11.83577848z m177.53667724-11.83577848c0-23.67155697-11.83577849-35.50733545-29.58944621-35.50733546-20.71261235 0-29.58944621 11.83577849-29.5894462 35.50733546 0 23.67155697 11.83577849 35.50733545 29.5894462 35.50733545 17.75366773-2.95894462 26.63050159-14.7947231 29.58944621-35.50733545z m11.83577848 0c-2.95894462 29.58944621-17.75366773 44.38416932-44.38416931 44.3841693s-41.42522469-14.7947231-44.38416931-44.3841693c2.95894462-29.58944621 14.7947231-47.34311394 44.38416931-47.34311394 26.63050159 0 41.42522469 14.7947231 44.38416931 47.34311394z m32.54839084 2.95894462v41.42522468h-11.83577849v-88.76833862h62.13783704v8.87683386h-50.30205855v26.63050159h44.38416931v11.83577849h-44.38416931z m171.618788-23.67155697h-11.83577848c-2.95894462-11.83577849-11.83577849-17.75366773-23.67155697-17.75366772-17.75366773 0-29.58944621 11.83577849-29.58944621 35.50733545 0 23.67155697 8.87683386 35.50733545 29.58944621 35.50733545 14.7947231 0 20.71261235-8.87683386 26.63050159-23.67155697h11.83577848c-2.95894462 20.71261235-17.75366773 32.54839083-38.46628007 35.50733544-26.63050159 0-38.46628008-17.75366773-38.46628006-47.34311392s14.7947231-44.38416932 41.42522468-47.34311394c17.75366773 2.95894462 29.58944621 11.83577849 32.54839083 29.58944621z m91.72728325 20.71261235c0-23.67155697-11.83577849-35.50733545-29.58944622-35.50733546-20.71261235 0-29.58944621 11.83577849-29.5894462 35.50733546 0 23.67155697 11.83577849 35.50733545 29.5894462 35.50733545 17.75366773-2.95894462 29.58944621-14.7947231 29.58944622-35.50733545z m11.83577848 0c-2.95894462 29.58944621-17.75366773 44.38416932-44.38416931 44.3841693s-41.42522469-14.7947231-44.38416931-44.3841693c2.95894462-29.58944621 14.7947231-47.34311394 44.38416931-47.34311394s44.38416932 14.7947231 44.38416931 47.34311394z m106.52200635 41.42522469h-11.83577848v-53.26100317-23.67155698l-26.63050159 73.97361552H1546.62332276l-26.63050159-71.01467089v76.93256013h-11.83577847v-88.76833862h17.75366771l26.63050159 73.97361553 26.63050159-73.97361553h17.75366773v85.80939401h-2.95894462z m109.48095097 0h-11.83577848v-53.26100317-23.67155698l-26.63050159 73.97361552h-11.83577849l-23.67155696-71.01467089v76.93256013h-11.83577849v-88.76833862h17.75366773l26.63050159 73.97361553 26.63050159-73.97361553h17.75366772v85.80939401h-2.95894462z m82.85044938-88.76833863h11.83577849v56.2199478c0 20.71261235-11.83577849 32.54839083-35.50733545 32.54839083-20.71261235 0-32.54839083-11.83577849-32.54839084-29.58944621v-59.17889242h11.83577849v56.2199478c0 14.7947231 8.87683386 23.67155697 23.67155696 23.67155697s23.67155697-8.87683386 23.67155698-23.67155697v-56.2199478h-2.95894463z m97.64517249 73.97361553v-71.01467091h11.83577849v88.76833862h-14.79472311l-44.38416932-71.01467089v71.01467089h-11.83577848v-88.76833862h14.7947231l44.38416932 71.01467091z m50.30205855-73.97361553v88.76833863h-11.83577848v-88.76833863h11.83577848z m100.60411711 26.63050159h-11.83577849c-2.95894462-11.83577849-11.83577849-17.75366773-23.67155696-17.75366772-17.75366773 0-29.58944621 11.83577849-29.58944621 35.50733545 0 23.67155697 8.87683386 35.50733545 29.58944621 35.50733545 14.7947231 0 20.71261235-8.87683386 26.63050158-23.67155697h11.83577849c-2.95894462 20.71261235-17.75366773 32.54839083-38.46628007 35.50733544-26.63050159 0-38.46628008-17.75366773-38.46628007-47.34311392s14.7947231-44.38416932 41.4252247-47.34311394c17.75366773 2.95894462 29.58944621 11.83577849 32.54839082 29.58944621z m73.97361552 38.46628007h-35.50733545l-8.87683386 26.63050158H2049.6439083l32.54839084-88.76833862h14.7947231l32.54839082 88.76833862h-11.83577848l-8.87683386-26.63050158z m-32.54839083-11.83577848h26.63050159l-11.83577848-38.46628007-14.79472311 38.46628007z m65.09678166-41.4252247v-8.87683386h71.01467089v8.87683386h-29.5894462v79.89150476h-11.83577848v-79.89150476h-29.58944621z m103.56306172-11.83577848v88.76833863h-11.83577848v-88.76833863h11.83577848z m97.64517249 47.34311394c0-23.67155697-11.83577849-35.50733545-29.58944621-35.50733546-20.71261235 0-29.58944621 11.83577849-29.5894462 35.50733546 0 23.67155697 11.83577849 35.50733545 29.5894462 35.50733545 17.75366773-2.95894462 26.63050159-14.7947231 29.58944621-35.50733545z m11.83577849 0c-2.95894462 29.58944621-17.75366773 44.38416932-44.38416932 44.3841693s-41.42522469-14.7947231-44.38416931-44.3841693c2.95894462-29.58944621 14.7947231-47.34311394 44.38416931-47.34311394 26.63050159 0 41.42522469 14.7947231 44.38416932 47.34311394z m79.89150476 26.63050159v-71.01467091h11.83577848v88.76833862h-14.79472311l-44.3841693-71.01467089v71.01467089H2375.1278166v-88.76833862h14.7947231L2434.30670901 748.71556967z m100.60411711-47.34311394H2523.07504763c0-11.83577849-8.87683386-17.75366773-23.67155696-17.75366772-11.83577849 0-20.71261235 5.91788924-20.71261235 14.7947231 0 5.91788924 2.95894462 8.87683386 11.83577849 11.83577849l26.63050158 5.91788924c11.83577849 2.95894462 20.71261235 11.83577849 20.71261234 23.67155696 0 17.75366773-11.83577849 23.67155697-35.50733545 26.63050158-11.83577849 0-20.71261235-2.95894462-26.63050158-8.87683385-5.91788924-5.91788924-8.87683386-11.83577849-8.87683386-23.67155697h11.83577848c0 14.7947231 8.87683386 20.71261235 23.67155696 20.71261235s23.67155697-5.91788924 23.67155697-14.79472311-5.91788924-14.7947231-20.71261235-14.7947231l-17.75366771-2.95894462c-11.83577849-2.95894462-17.75366773-8.87683386-17.75366773-20.71261235 0-17.75366773 11.83577849-26.63050159 29.58944621-26.63050159 23.67155697 0 35.50733545 8.87683386 35.50733545 26.63050159z" fill="#231815" p-id="19864"></path></svg>