<?xml version="1.0" standalone="no"?><!DOCTYPE svg PUBLIC "-//W3C//DTD SVG 1.1//EN" "http://www.w3.org/Graphics/SVG/1.1/DTD/svg11.dtd"><svg t="1547622503797" class="icon" style="" viewBox="0 0 1820 1024" version="1.1" xmlns="http://www.w3.org/2000/svg" p-id="16183" xmlns:xlink="http://www.w3.org/1999/xlink" width="355.46875" height="200"><defs><style type="text/css"></style></defs><path d="M295.348148 476.634074c-21.712593-19.057778-53.854815-28.728889-95.383704-28.728889h-46.743703v228.314074h46.743703c41.528889 0 73.671111-9.671111 95.383704-28.634074 21.428148-18.773333 32.805926-48.355556 32.805926-85.428148 0-37.167407-11.377778-66.74963-32.805926-85.522963m-21.522963 150.376296c-15.454815 14.127407-38.874074 21.333333-69.499259 21.333334H183.940741V475.97037h20.385185c30.625185 0 54.044444 7.111111 69.499259 21.238519 15.265185 13.937778 23.324444 36.314074 23.324445 64.948148 0 28.539259-8.059259 50.915556-23.324445 64.853333M90.168889 586.24c0 15.739259-1.042963 26.927407-3.223704 33.28-2.085926 6.352593-5.783704 11.567407-10.903704 15.644444-5.973333 4.551111-13.084444 7.86963-21.428148 9.955556-7.86963 1.991111-17.73037 3.034074-29.297777 3.128889h-0.853334v28.065185h2.56c31.762963 0 56.604444-6.921481 71.86963-19.911111 15.454815-13.274074 23.324444-33.46963 23.324444-60.112593V447.905185H90.168889v138.334815zM345.884444 636.871111c-6.826667 0-12.420741 5.499259-12.42074 12.420741 0 6.826667 5.594074 12.420741 12.42074 12.420741 6.826667 0 12.420741-5.594074 12.420741-12.420741 0-6.921481-5.594074-12.420741-12.420741-12.420741M508.112593 499.105185v-33.754074H381.819259v33.848889h53.665185v32.237037c0 5.973333-1.042963 8.912593-3.128888 10.714074-2.085926 1.801481-5.214815 2.74963-9.386667 2.844445v10.05037c10.808889-0.379259 18.773333-2.654815 23.798518-7.111111 5.025185-4.361481 7.585185-11.093333 7.585186-20.100741v-28.634074l53.76-0.094815z m-18.204445-10.429629h-89.884444v-12.8h89.884444v12.8zM454.447407 439.751111h-18.962963v7.964445h-58.311111v10.524444h135.585186v-10.524444h-58.311112z" fill="#C71622" p-id="16184"></path><path d="M377.173333 554.666667h10.714074c22.945185-20.005926 29.013333-48.545185 29.013334-48.545186h-20.764445c-2.465185 20.195556-10.998519 37.262222-18.962963 48.545186M473.031111 506.121481s5.973333 28.539259 28.918519 48.545186h10.808889c-7.964444-11.377778-16.497778-28.34963-18.962963-48.545186h-20.764445zM532.66963 554.666667h10.714074c22.945185-20.005926 28.918519-48.545185 28.918518-48.545186h-20.764444c-2.465185 20.195556-10.903704 37.262222-18.868148 48.545186M628.527407 506.121481s5.973333 28.539259 28.918519 48.545186h10.714074c-7.964444-11.377778-16.402963-28.34963-18.962963-48.545186h-20.66963z" fill="#C71622" p-id="16185"></path><path d="M580.361481 447.715556l3.697778-7.964445h-18.962963l-3.697777 7.964445h-28.634075v10.524444h23.703704l-19.057778 40.96h54.992593v32.237037c0 6.257778-1.042963 8.912593-3.128889 10.714074-2.085926 1.801481-5.214815 2.74963-9.386667 2.844445v10.05037c10.808889-0.379259 18.773333-2.654815 23.798519-7.111111 5.025185-4.361481 7.585185-11.093333 7.585185-20.100741v-28.634074h52.337778v-10.524444h-52.337778v-22.660741h-18.868148v22.660741h-30.814815l14.032593-30.435556h92.728889v-10.524444h-87.988149zM511.905185 577.042963c-27.401481 0-49.682963 22.281481-49.682963 49.682963s22.281481 49.682963 49.682963 49.682963 49.682963-22.281481 49.682963-49.682963-22.281481-49.682963-49.682963-49.682963m0 82.868148c-18.299259 0-33.28-14.885926-33.28-33.28s14.885926-33.28 33.28-33.28c18.299259 0 33.28 14.885926 33.28 33.28S530.204444 659.911111 511.905185 659.911111M651.851852 581.214815l-31.383704 58.88-31.478518-58.88h-16.118519v90.927407h15.739259V614.4l31.857778 57.457778 31.762963-57.457778v57.742222h15.834074V581.214815z" fill="#C71622" p-id="16186"></path><path d="M448.853333 651.662222c-6.068148 5.404444-13.937778 8.343704-21.997037 8.343704-18.299259 0-33.28-14.885926-33.28-33.28 0-18.299259 14.885926-33.28 33.28-33.28 8.154074 0 15.928889 2.939259 21.997037 8.343704l1.801482 1.517037 11.567407-11.567408-1.896296-1.801481c-9.102222-8.343704-21.048889-12.894815-33.374815-12.894815-27.401481 0-49.682963 22.281481-49.682963 49.682963s22.281481 49.588148 49.682963 49.588148c12.420741 0 24.272593-4.551111 33.46963-12.98963l1.896296-1.801481-11.567407-11.567407-1.896297 1.706666z" fill="#C71622" p-id="16187"></path><path d="M992.142222 560.924444v-70.257777H729.220741v70.447407h111.691852v67.034074c0 12.420741-2.180741 18.583704-6.447408 22.281482-4.266667 3.792593-10.903704 5.688889-19.531852 5.878518v20.954074c22.565926-0.758519 39.063704-5.594074 49.588148-14.696296 10.42963-9.102222 15.739259-23.134815 15.73926-41.813333v-59.638519h111.881481v-0.18963z m-37.925926-21.712592H767.051852v-26.548148h187.069629v26.548148zM880.355556 437.475556h-39.442963v16.592592H719.644444V475.97037h282.074075v-21.902222h-121.362963z" fill="#C71622" p-id="16188"></path><path d="M719.644444 676.598519h22.376297c47.786667-41.623704 60.302222-100.977778 60.302222-100.977778h-43.140741c-5.30963 42.002963-23.04 77.368889-39.537778 100.977778M919.04 575.620741s12.420741 59.354074 60.207407 100.977778h22.376297c-16.592593-23.608889-34.228148-58.974815-39.537778-100.977778h-43.045926zM1043.152593 676.598519h22.376296c47.786667-41.623704 60.302222-100.977778 60.302222-100.977778h-43.140741c-5.30963 42.002963-23.04 77.368889-39.537777 100.977778M1242.548148 575.620741s12.420741 59.354074 60.207408 100.977778h22.376296c-16.592593-23.608889-34.228148-58.974815-39.442963-100.977778h-43.140741z" fill="#C71622" p-id="16189"></path><path d="M1142.328889 454.068148l7.774815-16.687407h-39.537778l-7.774815 16.687407h-59.638518V475.97037h49.398518l-39.727407 85.143704H1167.17037v67.034074c0 12.98963-2.180741 18.583704-6.447407 22.281482-4.361481 3.792593-10.808889 5.688889-19.531852 5.878518v20.954074c22.565926-0.758519 39.063704-5.594074 49.588148-14.696296 10.42963-9.102222 15.739259-23.134815 15.73926-41.813333v-59.638519h109.037037v-21.902222h-109.037037v-47.028148H1167.17037v47.028148h-64.189629l29.202963-63.241482h192.948148v-21.902222h-182.802963zM1368.462222 667.97037V449.422222h166.968889v23.22963h-131.508148v71.869629H1528.414815v23.22963h-124.491852V646.637037h131.508148v21.238519h-166.968889zM1561.41037 555.70963v-22.660741h84.48v-93.771852h36.124445v34.038519h95.857778V495.881481H1682.014815v37.072593h118.518518V555.614815h-239.122963z m83.531852 123.638518V563.958519h36.124445v115.484444h-36.124445z m137.102222-31.952592c-30.245926-19.911111-60.776296-34.702222-91.78074-44.278519V578.37037c36.408889 7.585185 67.034074 18.868148 91.78074 34.038519v34.986667z" fill="#C71622" p-id="16190"></path></svg>