<?xml version="1.0" standalone="no"?><!DOCTYPE svg PUBLIC "-//W3C//DTD SVG 1.1//EN" "http://www.w3.org/Graphics/SVG/1.1/DTD/svg11.dtd"><svg t="1547622508972" class="icon" style="" viewBox="0 0 1820 1024" version="1.1" xmlns="http://www.w3.org/2000/svg" p-id="16313" xmlns:xlink="http://www.w3.org/1999/xlink" width="355.46875" height="200"><defs><style type="text/css"></style></defs><path d="M507.62577771 541.7671115h122.55288885l0.09955575 83.6266662c0.09955575 11.15022195-8.86044495 20.20977735-20.0106669 20.20977735h-8.064v19.0151115h32.7537777c18.3182223 0 33.15199965-14.83377735 33.15200071-33.15199965v-89.6995554h122.65244354v-84.92088885l-282.8373324 0.4977777-0.29866725 84.42311115z m37.83111151-56.54755575h207.57333344v28.27377735H545.45688922v-28.27377735zM668.10933382 419.01511115l0.39822194-18.816H630.37777806l-0.398223 18.816H489.70577736V448.28444495l319.3742223-0.79644495v-29.16977805z" fill="#CB0F19" p-id="16314"></path><path d="M535.99911081 560.384H582.59111152s-28.47288885 97.0666662-75.7617777 103.8364446h-8.56177875s42.11200035-51.5697777 37.73155574-103.8364446zM714.50222197 560.384h45.59644424s7.0684446 51.5697777 40.12088956 103.8364446c0 0-34.54577805 15.4311108-85.7173338-103.8364446zM871.50133311 560.384H918.09333382s-28.47288885 97.0666662-75.76177876 103.8364446h-8.56177769s42.21155505-51.5697777 37.73155574-103.8364446zM1050.00444427 560.384h45.59644424s7.0684446 51.5697777 40.12088956 103.8364446c0 0-34.54577805 15.4311108-85.7173338-103.8364446z" fill="#CB0F19" p-id="16315"></path><path d="M828.79200036 418.51733345h75.46311045v-18.3182223h38.92622265v18.3182223h197.61777735v28.27377735H931.93155576l-32.4551115 66.10488885h70.7840007v-46.59199965h37.13422125v46.59199965H1130.14666656v28.87111185h-120.96v77.0559993c0 24.8888892-20.11022265 44.9991108-44.9991108 44.99911185H941.98666657v-28.2737784h8.66133344c11.2497777 0 20.3093331-9.0595554 20.30933311-20.3093331v-73.47199965H838.15022196l46.5920007-94.37866725h-56.04977805v-28.8711108zM1168.27644426 437.33333345H1300.38666621v-35.34222195h45.5964453V437.33333345h125.04177736v29.8666662h-123.44888851v36.1386669h93.5822223v28.2737784l-82.5315561 82.53155505s63.71555505 33.84888885 119.56622265 32.256v15.72977805s-84.5226669 1.1946669-160.08533415-35.342223c0 0-64.91022195 34.2471108-149.8311108 35.44177875v-15.3315561s83.72622195-12.9422223 114.3893331-33.0524439c0 0-55.4524446-36.53688885-77.85244424-71.9786676h56.6471115s40.91733345 50.7733338 61.72444424 49.5786669c0 0 47.98577805-22.0017777 59.73333345-59.33511045h-193.43644425V503.04000035h109.7102223v-37.8311115h-130.9155561v-27.8755554zM1562.31733311 399.90044495s9.45777735 41.3155554-63.71555504 96.768v10.65244425h38.92622159v156.8995554h40.12088956V466.0053338s23.59466655-34.2471108 27.1786662-66.10488885h-42.51022231zM1602.83644461 447.88622195l128.22755505 0.398223v-48.384h41.31555541V448.28444495h36.53688989v27.1786662h-35.342223v131.4133338c0 26.48177805-21.40444425 57.34399965-47.88622229 57.34399965h-18.81600001v-7.66577805l1.8915561-0.09955575c11.84711115-0.59733345 21.10577805-10.35377805 21.10577805-22.20088815V476.65777805l-127.0328892-0.398223v-28.3733331z" fill="#CB0F19" p-id="16316"></path><path d="M1621.25422267 504.53333345h37.43288849l28.27377736 74.36800035H1650.82222266zM382.28533312 777.71377805H18.11111152c-1.4933331 0-2.78755575-1.1946669-2.78755576-2.78755575V318.06577805c0-1.4933331 1.1946669-2.78755575 2.78755576-2.78755575h364.07466585c1.4933331 0 2.78755575 1.1946669 2.78755574 2.78755575v456.86044425c0 1.59288885-1.1946669 2.78755575-2.68799999 2.78755575z" fill="#CB0F19" p-id="16317"></path><path d="M46.08622266 400.19911115h309.81688815v65.3084439H46.08622266z" fill="#CEA754" p-id="16318"></path><path d="M356.79911152 400.19911115h-311.60888955v-35.9395554c0-6.17244495 5.0773338-11.2497777 11.2497777-11.2497777h289.10933415c6.17244495 0 11.2497777 5.0773338 11.2497777 11.2497777v35.9395554z" fill="#FFFFFF" p-id="16319"></path><path d="M67.49066691 644.0106662h24.192s-14.83377735 50.3751108-39.3244446 53.85955575h-4.48000035c0 0.09955575 21.90222195-26.6808885 19.61244495-53.85955575zM160.17688851 644.0106662h23.69422231s3.6835554 26.78044425 20.80711184 53.85955575c0 0.09955575-18.01955505 8.064-44.50133415-53.85955575z" fill="#FFFFFF" p-id="16320"></path><path d="M45.28977772 570.4391108h39.22488884v-9.45777735H104.72444496v9.45777735h102.54222195v14.73422265H98.85066621l-16.82488815 34.2471108h36.7359993v-24.192h19.3137777v24.192h63.71555611V634.4533331h-62.71999965v40.0213338c0 12.9422223-10.4533338 23.39555505-23.39555611 23.39555505h-11.5484439v-14.7342216h4.4799993c5.77422195 0 10.5528885-4.6791108 10.55288955-10.55288955V634.4533331H50.16800002l24.192-48.98133345H45.28977772v-15.03288885zM240.31911082 560.78222195s4.8782223 21.40444425-33.05244391 50.17600035v5.47555575h20.20977736v81.4364439h20.8071108V595.0293338s12.2453331-17.72088885 14.03733344-34.24711185h-22.00177769zM261.32533312 585.67111115l66.50311185 0.1991115V560.78222195h21.40444424v25.0880007h19.01511045v14.0373324h-18.417777v68.19555645c0 13.7386662-11.15022195 29.7671115-24.8888892 29.76711045h-9.7564446v-3.9822216l0.99555541-0.09955575c6.17244495-0.2986662 10.9511115-5.376 10.95111149-11.54844495v-81.6355554l-65.90577839-0.19911045V585.67111115z" fill="#FFFFFF" p-id="16321"></path><path d="M270.88266622 615.03999965h19.41333345l14.73422265 38.6275554h-18.81600001z" fill="#FFFFFF" p-id="16322"></path></svg>