<?xml version="1.0" standalone="no"?><!DOCTYPE svg PUBLIC "-//W3C//DTD SVG 1.1//EN" "http://www.w3.org/Graphics/SVG/1.1/DTD/svg11.dtd"><svg t="1547622469491" class="icon" style="" viewBox="0 0 3246 1024" version="1.1" xmlns="http://www.w3.org/2000/svg" p-id="15104" xmlns:xlink="http://www.w3.org/1999/xlink" width="633.984375" height="200"><defs><style type="text/css"></style></defs><path d="M1132.37149 666.816415h1539.317495v4.423326H1132.37149z" fill="" p-id="15105"></path><path d="M518.634989 55.07041C265.620734 55.07041 58.387905 262.30324 58.387905 515.317495c0 253.014255 207.232829 460.247084 460.247084 460.247084 253.014255 0 460.247084-207.232829 460.247084-460.247084-0.221166-253.235421-207.232829-460.247084-460.247084-460.247085z" fill="#0B538E" p-id="15106"></path><path d="M499.393521 661.287257l24.107127-105.938661 56.397408-19.683801 24.770627-99.967171-51.752916 18.135637 0.884665-2.653995 51.089417-207.011663h-183.568035l-70.330885 281.102375-57.724406 20.347301-24.770627 99.96717 52.195249-18.57797-2.875162 9.288985-40.031102 149.508424h461.13175l30.963283-124.516631z" fill="#FFFFFF" p-id="15107"></path><path d="M1390.251404 414.465659h34.501944c0.884665-2.432829 1.548164-4.423326 2.211663-5.529158l6.413823-15.923974c2.875162-7.519654 6.634989-19.241469 11.721814-34.72311l6.192657-19.683801 4.423326-15.702808c0.663499-0.442333 1.326998-0.663499 2.211663-0.663499 0.663499 0 3.538661 1.105832 8.846652 3.317494l41.136933 18.57797c4.865659 2.211663 7.298488 4.644492 7.298488 7.077322s-1.990497 4.20216-6.192656 5.307991l-16.145141 4.20216c-21.010799 23.885961-34.280778 38.704104-39.809935 44.454428-5.307991 5.750324-8.183153 8.846652-8.625486 9.288985h78.071706l19.683802-24.54946c3.980994-4.865659 6.634989-7.298488 8.404319-7.298488 1.76933 0 4.865659 1.990497 9.510151 5.529157l35.828942 29.193953c3.980994 3.317495 6.192657 5.750324 6.192657 7.519654-0.221166 3.096328-3.317495 4.423326-9.288985 4.423326H1402.194384c4.865659 7.077322 11.500648 16.14514 20.126134 27.203456 8.625486 11.058315 23.443629 23.222462 44.675594 36.934773 21.010799 13.712311 44.89676 24.991793 71.657884 33.838445 26.761123 8.846652 47.550756 13.712311 62.590064 14.818143l13.491145 1.105831c3.317495 0.442333 5.086825 1.76933 5.086825 3.980994-0.221166 2.211663-1.548164 3.538661-3.980993 4.423326L1601.24406 557.339093c-5.307991 2.211663-10.17365 5.750324-14.596976 10.394816s-8.625486 9.731317-12.827646 15.481642c-4.20216 5.750324-6.634989 8.625486-7.519654 8.846652-0.884665 0.221166-1.548164 0.221166-2.432829 0-5.750324-0.663499-19.020302-6.413823-40.031102-17.250972-21.010799-10.837149-39.146436-22.78013-54.406911-36.050108-15.260475-13.269978-27.866955-26.097624-37.819439-38.704104-9.952484-12.385313-17.472138-23.885961-22.558963-33.838444-5.086825-10.17365-9.731317-22.337797-13.712311-36.934774H1391.136069v146.412095l2.211663 47.32959c-4.644492 10.17365-12.606479 15.260475-23.885961 15.481641-11.279482 0.221166-17.914471-0.663499-20.126134-2.211663-2.211663-1.76933-3.980994-3.980994-5.529158-6.856155l2.211664-72.542549v-86.254859c-11.058315 9.288985-24.54946 20.3473-40.031102 32.732613-15.481641 12.385313-38.040605 27.203456-67.455724 44.454428s-56.176242 30.963283-80.283369 41.136933l-17.029805 7.077322c-1.548164 0.663499-3.317495 0.884665-5.307992 0.884665-1.990497-0.221166-2.875162-0.884665-2.875162-2.211663s0.442333-2.653996 1.105832-3.980994c0.884665-1.326998 2.211663-2.653996 4.423326-3.980993l18.356803-11.500648c32.732613-20.126134 61.926566-42.906263 87.581858-67.898056 25.655292-24.991793 49.983585-51.089417 73.427214-78.071707h-174.057884c-4.865659 0-7.519654-2.432829-7.740821-7.519654-0.221166-4.865659 1.990497-7.519654 6.856156-7.519655h119.650972c-4.20216-2.211663-7.519654-5.307991-9.731318-8.846652-2.211663-3.538661-3.538661-7.077322-3.980993-10.615983-0.442333-3.538661-0.884665-10.17365-1.105832-19.683801-0.442333-9.510151-1.105832-16.587473-2.211663-20.789633-1.105832-4.423326-2.875162-8.625486-5.307991-13.048812l-7.077322-10.837149-3.980993-6.192656c-1.105832-1.326998-1.548164-2.875162-1.548165-4.20216 0-1.326998 1.326998-2.211663 3.759828-2.43283 5.750324-0.442333 16.14514 4.20216 31.184449 13.712311s25.434125 18.356803 31.184449 26.761124c5.750324 8.183153 8.40432 17.029806 8.40432 26.539956-0.221166 9.288985-1.990497 15.702808-5.529158 19.683802-3.538661 3.980994-7.519654 7.298488-11.721814 9.952483h61.041901l0.221166-104.832829h-168.086393c-8.846652 0-11.721814-2.432829-8.40432-7.298488 3.317495-4.865659 5.97149-7.298488 8.40432-7.298488h167.865227v-11.058316l-2.211664-45.781425c0.663499-0.442333 1.326998-0.663499 2.211664-0.884665l8.183153 1.76933 45.781425 8.846652c2.875162 0.663499 4.865659 1.548164 6.413823 2.43283 1.326998 0.884665 2.211663 2.211663 2.211663 3.538661 0 1.326998-1.990497 3.317495-5.97149 5.97149l-11.500648 7.740821v27.424622h107.265659l18.57797-23.222462c2.211663-2.875162 4.20216-4.20216 5.750324-4.423327 1.548164 0 4.423326 1.326998 8.404319 4.423327l34.72311 26.539956c2.432829 1.990497 3.759827 3.759827 3.759828 5.529158-0.221166 1.326998-0.884665 2.653996-2.211663 3.759827s-3.096328 1.548164-5.086826 1.548164h-41.800431v0.221167h-129.603456v105.275162z m143.0946-209.00216l21.010799-25.434125c2.432829-3.096328 4.644492-4.20216 6.63499-3.759828 1.990497 0.442333 3.980994 1.548164 5.750324 3.096329l33.174946 27.645788c4.20216 3.759827 6.413823 6.413823 6.413823 8.183153-0.221166 2.875162-3.096328 4.20216-8.40432 4.20216l-128.055292 0.442333-0.221166 31.184449 1.548164 22.78013c-2.653996 9.288985-12.827646 14.154644-30.742116 14.154643-5.750324 0.221166-9.731317-0.442333-12.385314-2.211663-2.653996-1.548164-4.423326-3.538661-5.750324-6.192656l2.211663-39.588769v-20.126134h-105.93866v28.530453l1.548164 21.231966c-1.76933 5.529158-6.413823 9.510151-13.933478 12.164147-7.519654 2.653996-14.818143 3.759827-21.674298 3.538661-4.644492 0-7.740821-0.663499-9.510151-1.990497-1.76933-1.326998-3.096328-3.096328-4.20216-5.086825l1.548164-40.694601 0.221167-17.472138h-131.593953c-2.432829 0-4.865659-1.105832-6.856155-3.317494-2.211663-2.211663-1.990497-4.644492 0.442332-7.298489s4.644492-3.980994 6.413823-3.980993h131.15162v-19.904968l-1.326998-36.050108c0.663499-0.663499 1.326998-1.105832 1.548164-1.326998 0.442333-0.221166 3.317495 0.221166 9.067819 1.326998l47.32959 9.510152c2.211663 0.442333 3.980994 1.105832 4.865658 1.76933 0.884665 0.663499 1.326998 1.548164 1.105832 2.432829 0 1.105832-1.76933 3.096328-5.086825 5.750324l-11.058315 9.510152v26.761123h105.93866v-14.154644l-1.548164-38.040605c0.663499-0.442333 1.326998-0.884665 1.769331-0.884665 0.442333 0 3.317495 0.442333 8.404319 1.548164l47.771923 10.394817c2.875162 0.663499 4.865659 1.548164 5.97149 2.432829 1.105832 0.884665 1.548164 2.211663 1.548164 3.538661-0.221166 1.326998-2.211663 3.538661-5.750324 6.413823l-13.048812 9.731317v18.799136h63.695896zM1776.407775 290.170194V203.251836l-2.432829-50.425918c0.442333-0.663499 0.884665-1.326998 1.326998-1.548164l6.856155 2.211663 50.425918 13.048812c2.653996 0.884665 3.980994 2.211663 4.20216 3.980993 0 1.76933-0.663499 3.096328-1.990497 4.20216l-15.702807 13.491145v101.957667h18.799136l17.472138-24.54946c1.76933-2.432829 3.317495-3.759827 4.423326-3.538661 1.326998 0 2.875162 0.884665 4.865659 2.43283l30.299784 28.088121c2.432829 2.432829 3.980994 4.20216 4.20216 5.307991 0.442333 1.105832 0.442333 2.432829 0.442332 3.759827 0 1.548164-1.548164 2.211663-4.644492 2.211663h-41.3581v0.221167h-34.501943v94.216846c15.039309-4.423326 26.31879-7.961987 33.838444-10.615982l28.088121-10.17365 17.472139-5.750324c3.096328-0.884665 4.644492-0.221166 4.865658 2.211663 0.221166 2.432829-0.442333 3.980994-2.211663 4.865658l-16.14514 9.510152c-18.57797 11.058315-40.473434 23.222462-65.907559 36.713606v143.094601l1.548164 47.550756c-0.663499 2.653996-1.76933 5.307991-3.317495 7.740821s-5.307991 4.423326-11.500648 6.192656c-6.192657 1.548164-11.721814 2.211663-16.808639 2.211663-6.634989 0-10.615983-0.884665-12.164147-2.653995-1.548164-1.76933-2.432829-3.759827-3.096328-6.192657l2.432829-51.974082V451.179266c-14.154644 8.846652-27.203456 17.250972-38.704104 24.991792l-20.126134 13.491145-8.846652 6.192657c-1.326998 0.221166-2.211663 0-3.096328-0.442333l-3.538661-8.183153L1687.49892 455.602592l-7.077322-13.491145c0.221166-0.442333 0.442333-1.105832 1.105832-1.548164l9.288985-2.211663 20.126134-5.529158c23.443629-6.413823 45.117927-12.827646 65.24406-19.683801v-108.37149h-47.550756c-3.096328 7.740821-9.067819 21.453132-17.914471 40.915766s-15.039309 32.069114-18.356803 37.819439l-6.413823 10.837149c-1.548164 2.653996-3.317495 3.759827-5.307991 3.538661-2.211663-0.221166-3.317495-0.884665-3.317495-2.43283 0-1.326998-0.221166-2.432829-0.221166-2.875162l5.307991-22.11663c3.096328-13.712311 5.529158-24.770626 7.298488-33.174946 1.76933-8.40432 3.980994-21.674298 6.634989-40.031102s4.644492-33.617279 5.529158-45.781425l1.76933-29.193953 0.442333-14.818142c0.442333-0.663499 1.105832-1.105832 1.548164-1.326998 0.442333-0.221166 3.317495 0.663499 8.40432 2.653996l43.569762 16.808639c3.096328 1.326998 4.865659 2.211663 5.307992 2.875162 0.442333 0.663499 0.884665 1.548164 0.884665 2.211663 0 0.884665-0.884665 1.990497-3.096328 3.317494l-9.067819 5.750324c-2.432829 7.298488-5.307991 15.260475-8.40432 23.885962-3.096328 8.625486-6.192657 17.472138-9.067818 26.982289h42.242764z m188.212527 38.261771v-80.504535h-95.101512l-2.653995-0.884665c-3.096328-1.990497-4.865659-4.644492-5.307992-8.40432-0.442333-3.538661 2.211663-5.529158 7.961987-5.529158h95.101512v-37.598272l-2.432829-40.915767c0.884665-0.442333 1.76933-0.663499 2.432829-0.663499 0.663499 0 3.538661 0.442333 8.846653 1.548165l50.647084 10.837149c2.432829 0.663499 3.759827 1.990497 3.759827 3.538661 0 1.76933-1.105832 3.759827-3.759827 6.192656l-11.721814 10.837149v46.223758h53.964578l12.827646-16.366306c4.644492-5.97149 7.740821-9.510151 9.067819-10.394817 1.548164-0.884665 3.759827-0.221166 6.856155 2.43283l31.847948 29.415118c2.875162 2.875162 4.20216 5.086825 3.759828 6.856156-0.221166 1.76933-1.990497 2.653996-5.086825 2.653995h-113.237149v80.504536h74.090712l17.029806-22.116631c3.538661-4.644492 5.97149-6.856156 7.077322-6.634989 1.105832 0.221166 2.875162 1.326998 5.529157 3.538661l32.511448 28.530454c2.211663 2.211663 3.538661 3.759827 4.202159 4.865658 0.663499 1.105832 0.884665 2.432829 0.663499 3.759828-0.221166 1.326998-1.76933 2.211663-4.865658 2.211663h-35.165443v0.221166H1849.392657c-4.20216 0-6.634989-2.432829-7.519655-7.077322-0.663499-4.865659 1.76933-7.077322 7.519655-7.077322h115.227645z m128.276458 87.581858l16.366307-21.453132c3.538661-4.644492 5.750324-6.856156 6.413823-6.856155 0.884665 0 2.875162 1.548164 6.192656 4.423326l32.511448 28.75162c3.096328 2.875162 4.423326 5.086825 3.980993 6.856155-0.442333 1.76933-1.76933 2.653996-3.980993 2.653996H2118.773218v0.221166h-47.993088V594.937365c0 3.980994-0.663499 7.961987-1.769331 11.500648s-5.307991 7.519654-12.606479 12.164147c-7.298488 4.644492-15.923974 7.740821-25.876458 9.731317-9.952484 1.76933-15.702808 3.096328-17.029806 3.538661-1.326998 0.442333-2.432829 0.884665-3.538661 0.884665s-2.432829-2.432829-3.980993-7.74082c-1.990497-5.750324-3.980994-10.615983-6.413823-14.154644-2.211663-3.538661-5.97149-7.519654-11.279482-11.500648-5.307991-3.980994-10.17365-7.077322-15.039309-9.288985l-12.827645-5.307991c-2.432829-0.884665-3.759827-1.990497-3.538661-3.538661 0-1.548164 0.663499-2.653996 1.76933-3.317495 1.105832-0.663499 2.211663-0.884665 3.538661-0.884665l11.058315 1.769331c7.519654 1.326998 19.241469 2.211663 34.72311 2.211663 8.625486 0.221166 13.491145-0.884665 14.37581-2.875162 0.884665-2.211663 1.548164-4.423326 1.548165-6.856156v-140.219438h-169.192225c-4.20216 0-6.856156-2.432829-7.519654-7.298488-0.884665-4.865659 1.76933-7.298488 7.519654-7.298488h169.192225V352.539093h1.105831l8.183153 2.432829 49.983586 11.721815c2.211663 0.442333 3.317495 1.548164 3.538661 2.875161 0.221166 1.326998-0.884665 3.096328-3.538661 5.307992l-12.385313 10.394816v31.405616h22.11663z m-200.819006 32.069114c6.413823 0.442333 19.683801 4.423326 39.809935 12.164147s29.857451 23.222462 29.193952 46.223758c-0.221166 5.529158-2.211663 11.500648-6.192656 18.135637-3.980994 6.634989-10.17365 9.952484-19.020302 10.173651-8.846652 0.221166-15.039309-1.548164-18.799137-5.307992-3.538661-3.096328-5.750324-7.298488-6.413822-12.385313-0.663499-5.086825-1.105832-11.500648-1.326998-19.020302-0.221166-7.519654-1.105832-14.596976-2.875162-21.453132-1.76933-6.634989-5.307991-12.385313-10.394817-17.029806-5.307991-4.644492-7.740821-7.740821-7.519654-8.846652-0.442333-1.76933 0.884665-2.653996 3.538661-2.653996zM2478.831965 303.440173h115.00648l12.827646-14.596976c3.759827-4.20216 6.413823-6.413823 8.404319-6.192657 1.76933 0 5.97149 2.211663 12.60648 6.413823l22.558963 15.039309c4.644492 3.317495 7.519654 5.750324 8.625486 6.856155 1.105832 1.326998 1.76933 2.211663 1.548164 2.653996 0 0.442333-0.663499 1.548164-1.76933 3.317494s-2.432829 3.096328-3.759827 4.423327l-11.058316 10.394816v201.261339c0 7.961987-3.980994 14.818143-11.721814 20.3473-7.740821 5.529158-16.587473 9.067819-26.539957 10.394817-9.731317 1.326998-16.587473 1.990497-20.3473 1.76933-1.326998 0-2.211663-0.221166-3.096328-0.442332-0.884665-0.221166-1.548164-0.884665-2.211663-1.769331-0.663499-0.884665-1.326998-3.096328-1.769331-6.634989-0.442333-3.538661-2.211663-8.40432-4.865659-14.818143-2.653996-6.192657-8.40432-10.837149-17.029805-13.933477l-18.356804-6.192657c-3.980994-1.326998-5.750324-2.875162-5.529157-5.086825 0-1.105832 0.663499-1.990497 1.76933-2.875162 1.326998-0.884665 2.875162-1.105832 4.865659-1.105831l23.885961 2.211663c14.37581 1.326998 23.222462 1.548164 26.761123 0.442333 3.538661-1.105832 5.750324-2.432829 6.856156-3.759828 1.105832-1.548164 1.76933-4.644492 1.76933-9.067818l0.221166-184.673866h-119.650972v229.570626l2.653996 60.599568c-0.442333 1.76933-1.105832 3.538661-2.211663 5.529158-1.105832 1.990497-4.865659 3.759827-11.500648 5.086825-6.634989 1.548164-12.827646 2.211663-18.57797 2.432829-5.750324 0-9.731317-0.663499-11.500648-2.211663-1.76933-1.548164-3.096328-3.317495-4.202159-5.750324l2.432829-61.705399V318.037149H2326.669546v241.292441c0 3.096328-3.096328 6.413823-9.510151 9.731317-6.192657 3.317495-13.048812 4.865659-20.126134 4.644493-6.413823 0-10.17365-0.884665-11.721814-2.653996-1.326998-1.76933-2.432829-3.980994-2.875162-6.413823l2.211663-58.166739v-167.64406l-2.211663-51.310583c1.326998-1.326998 2.211663-1.990497 2.653996-1.990497 0.442333 0 2.875162 0.663499 7.077322 2.432829l35.828941 15.481642h107.929158V216.964147c-50.425918 2.211663-102.621166 2.432829-156.806912 1.105831l-21.674298-0.442332c-6.856156 0-11.279482-0.221166-13.491144-0.884665-1.990497-0.442333-3.096328-1.990497-3.096329-4.423327 0-2.211663 1.76933-3.538661 5.086825-4.202159l11.500648-0.221167 20.126134-1.105831c52.195248-2.653996 109.034989-9.952484 170.740389-22.116631 61.484233-12.164147 102.621166-21.895464 123.189633-29.636285l23.885961-8.846652 3.096328-1.548164c0.663499 0 2.875162 1.326998 6.63499 4.202159l44.454427 35.828942c2.875162 2.432829 4.20216 4.644492 4.20216 6.192657 0 1.76933-1.326998 2.653996-3.538661 2.875162L2605.339093 199.049676l-55.733909 7.519654-56.839741 5.529158c-3.096328 4.865659-7.740821 9.731317-13.712311 15.039309v76.302376z" fill="" p-id="15108"></path><path d="M1355.74946 860.336933h-59.493736c-20.789633 0-36.050108-5.086825-45.781426-15.481641-8.625486-9.067819-12.827646-23.222462-12.827646-42.021599v-96.207343h21.010799v93.332181c0 13.491145 2.653996 23.001296 8.183154 28.309288 5.529158 6.634989 15.260475 10.17365 29.193952 10.17365h59.714903v21.895464zM1450.408639 860.336933h-21.895464v-153.931749h21.895464V860.336933zM1662.064795 728.521814h-59.493737V860.336933h-21.010799v-131.815119h-59.493736v-21.895464h140.219438v21.895464zM1839.219006 860.336933h-57.724406c-22.558963 0-38.482937-4.865659-47.550756-14.596976-9.067819-10.394816-13.712311-27.424622-13.712311-51.310583v-88.02419h118.987473v21.895464h-97.976673v42.021598h92.447516v21.010799h-92.447516v2.653996c0 17.029806 3.096328 28.75162 9.067818 34.72311 5.529158 6.192657 15.923974 9.067819 31.184449 9.067819h57.724406V860.336933zM2028.095032 860.336933h-57.724406c-48.214255 0-72.321382-25.655292-72.321382-76.965875s24.107127-76.965875 72.321382-76.965874H2028.095032v21.895464h-57.724406c-15.260475 0-26.539957 2.653996-33.838445 8.183153-11.500648 8.625486-17.472138 24.107127-17.472138 46.666091 0 22.558963 5.750324 37.819438 17.472138 45.781425 7.298488 6.192657 18.57797 9.067819 33.838445 9.067819H2028.095032V860.336933zM2122.754212 860.336933h-21.895465v-153.931749h21.895465V860.336933zM2341.930022 783.371058c0 22.558963-7.298488 41.800432-21.895465 57.724406-14.154644 15.923974-31.405616 23.885961-52.195248 23.885961-20.126134 0-37.598272-7.961987-52.195249-23.885961-14.154644-15.923974-21.010799-35.165443-21.010799-57.724406 0-22.558963 7.077322-41.800432 21.010799-57.724406 14.596976-15.923974 32.069114-23.885961 52.195249-23.885961 20.789633 0 38.040605 7.961987 52.195248 23.885961 14.596976 15.923974 21.895464 35.165443 21.895465 57.724406z m-22.116631 0c0-16.587473-4.865659-30.52095-14.596976-42.021598-10.394816-12.164147-22.558963-18.356803-36.713607-18.356803-14.596976 0-27.203456 6.192657-37.598272 18.356803-10.394816 11.500648-15.481641 25.655292-15.481642 42.021598s5.086825 30.52095 15.481642 42.021599c10.394816 11.500648 23.001296 17.472138 37.598272 17.472138 13.933477 0 26.31879-5.750324 36.713607-17.472138 9.731317-11.500648 14.596976-25.434125 14.596976-42.021599zM2527.930886 860.336933h-21.0108l-85.149028-123.631965V860.336933h-21.895464v-153.931749h24.770626l82.495033 117.218142v-117.218142h21.010799V860.336933z" fill="" p-id="15109"></path></svg>