<?xml version="1.0" standalone="no"?><!DOCTYPE svg PUBLIC "-//W3C//DTD SVG 1.1//EN" "http://www.w3.org/Graphics/SVG/1.1/DTD/svg11.dtd"><svg t="1547620045387" class="icon" style="" viewBox="0 0 1024 1024" version="1.1" xmlns="http://www.w3.org/2000/svg" p-id="3754" xmlns:xlink="http://www.w3.org/1999/xlink" width="200" height="200"><defs><style type="text/css"></style></defs><path d="M516.84900001 612.846l94.29699999 50.14400001-94.29699999 50.05399997v60.143l235.66399999-118.57L516.84900001 554.44999998v58.39600002z m0-459.04v-48.428h3.25299999c169.07499998-5.06000001 505.479 58.39599999 503.853 255.42000002H867.89c-22.70800001-148.59599999-188.50099999-212.05199999-351.04099999-206.99300003zM422.61299999 662.99000001l87.73000001-53.42700001 6.505 3.283V554.44999998l-22.738-10.02899998s-341.343 13.37200001-312.1-230.333c35.809-98.512 185.30799999-156.969 334.838-160.281v-48.428c-185.278 4.96900001-443.68 56.70999997-492.469 228.707-1.626 6.656-3.222 11.655-3.222 16.715v23.34000001c9.698 98.542 151.126 211.99299997 383.537 211.99299999l-125.105 76.858 222.62299999 116.823 14.63700002-6.626v-60.14300001l-3.25299998 1.68700001-90.98300004-51.741z" fill="#009B89" p-id="3755"></path><path d="M602.983 362.45500001l-87.73 51.74099997-6.535-1.62599997v58.42699999l21.14200001 8.31099998s341.313-11.685 313.66599997 230.39300003c-37.375 98.482-185.248 156.969-334.80699998 160.25099998v48.458c185.339-6.656 443.71-56.73999999 492.46899998-228.70699999 1.626-4.999 3.283-10.02899999 3.28300002-16.74499999v-21.65400001c-9.75799999-100.198-152.81199999-212.05199999-383.597-213.739l123.539-75.11100001-221.027-118.53999999-14.667 8.40299998v58.36600002l3.25300003-1.65700002 91.01299996 53.42700002z m-94.266 50.115l-94.29699999-50.11400001 94.29699999-51.77099999v-58.36600002L273.05300001 369.14199999l235.66399999 101.85500001V412.56999999z m0 457.38299998v48.45799999h-3.25299997C336.50899999 921.75399998 0.014 859.984 0.014 662.99099997h157.661c22.76799998 146.90999999 186.905 210.335 351.04099999 206.96200002z" fill="#2C5082" p-id="3756"></path></svg>