<?xml version="1.0" standalone="no"?><!DOCTYPE svg PUBLIC "-//W3C//DTD SVG 1.1//EN" "http://www.w3.org/Graphics/SVG/1.1/DTD/svg11.dtd"><svg t="1547620056798" class="icon" style="" viewBox="0 0 1024 1024" version="1.1" xmlns="http://www.w3.org/2000/svg" p-id="4016" xmlns:xlink="http://www.w3.org/1999/xlink" width="200" height="200"><defs><style type="text/css"></style></defs><path d="M513.69342761 273.73778496c39.11782757 0 78.23565515 7.11233204 110.24114932 24.8931621 3.55616601 0 7.11233204 3.55616601 7.11233205 7.11233341v195.58913649c0 17.7808301-10.66849806 21.33699748-21.33699614 7.11233342l-85.34798718-85.34798862c-3.55616601-3.55616601-3.55616601-3.55616601-10.66849802 0-74.67948912 74.67948912-145.80281225 142.24664622-220.4823014 213.36996938-3.55616601 3.55616601-17.7808301 3.55616601-21.3369961-3.55616603-10.66849806-32.00549554-21.33699748-64.01099107-21.33699748-103.12881862-7.11233204-142.24664622 117.35348272-256.04396154 263.15629495-256.04396155zM719.9510635 142.15963678c-32.00549554-78.23565515-117.35348272-128.02198075-213.36996929-128.02198077-131.57814677 0-238.26313145 103.12881866-238.26313144 227.59463339 0 10.66849806 0 28.4493295 3.55616737 39.11782758 3.55616601 17.7808301 7.11233204 17.7808301 21.3369961 7.11233202 56.89865767-53.34249165 135.13431281-85.34798718 216.92613398-85.34798717 24.8931635 0 53.34249165 3.55616601 78.23565517 7.112332 10.66849806 3.55616601 10.66849806 3.55616601 21.33699745-3.55616598 32.00549554-21.33699748 64.01099107-35.56166154 103.12881728-49.78632561 7.11233204 7.11233204 14.22466409-3.55616601 7.11233341-14.22466546zM207.86313906 209.72679383c-85.34798718 7.11233204-160.0274763 74.67948912-188.47680581 163.58364236-39.11782757 128.02198075 24.8931635 256.04396154 145.80281222 298.71795648 10.66849806 3.55616601 24.8931635 7.11233204 35.56166157 7.11233203 17.7808301 0 21.33699748-3.55616601 10.66849804-17.78083143-28.4493295-74.67948912-39.11782757-156.4713103-10.66849804-231.15079805 7.11233204-24.8931635 21.33699748-49.78632563 32.00549552-71.1233231 7.11233204-10.66849806 7.11233204-7.11233204 3.55616603-21.33699749-7.11233204-35.56166154-10.66849806-74.67948912-17.78083147-113.7973167 3.55616601-7.11233204 0-14.22466409-10.66849806-14.22466406zM111.84665383 721.81471831c-21.33699748 81.79182116 21.33699748 170.69597436 99.57265125 227.594632 106.68498469 78.23565515 252.48779553 56.89865767 327.16728465-46.23015959 7.11233204-10.66849806 17.7808301-21.33699748 21.33699749-32.00549414 3.55616601-17.7808301 3.55616601-21.33699748-10.66849944-17.78083148-78.23565515 7.11233204-160.0274763-10.66849806-224.038466-60.45482368-21.33699748-17.7808301-39.11782757-32.00549554-56.89865901-53.34249303-7.11233204-7.11233204-7.11233204-7.11233204-21.33699614-10.66849803-35.56166154-3.55616601-74.67948912-10.66849806-110.24115069-21.3369975-10.66849806-3.55616601-17.7808301 0-24.89316211 14.22466545zM570.59208528 967.19018178c74.67948912 46.23015961 170.69597436 32.00549554 245.3754635-21.33699747 106.68498469-78.23565515 131.57814677-224.03846738 56.89865765-327.1672846-7.11233204-10.66849806-17.7808301-21.33699748-24.89316216-28.44932819-10.66849806-7.11233204-17.7808301-7.11233204-21.33699744 3.55616598-17.7808301 78.23565515-56.89865767 145.80281225-128.02198077 195.5891379-21.33699748 17.7808301-46.23015961 28.4493295-71.12332312 35.56166017-10.66849806 3.55616601-10.66849806 3.55616601-17.7808301 17.78083147-10.66849806 32.00549554-32.00549554 64.01099107-53.34249163 103.12881727 3.55616601 7.11233204 3.55616601 17.7808301 14.22466407 21.33699747zM947.54569554 608.01740161c64.01099107-56.89865767 85.34798718-149.35897827 56.89865904-241.81929748-39.11782757-128.02198075-170.69597436-195.58913785-295.16179049-156.47131026-10.66849806 3.55616601-24.8931635 7.11233204-35.56166014 17.78083145-10.66849806 7.11233204-17.7808301 10.66849806-3.55616743 21.33699611 64.01099107 39.11782757 120.90964873 103.12881866 145.80281223 177.80830778 7.11233204 24.8931635 10.66849806 49.78632563 17.7808301 78.23565372 0 10.66849806 0 10.66849806 7.11233341 21.33699754 28.4493295 24.8931635 53.34249165 53.34249165 78.23565513 81.79182114 10.66849806 7.11233204 17.7808301 10.66849806 28.44932815 0z" fill="#CA1A1D" p-id="4017"></path><path d="M506.58109421 792.93804142c-39.11782757 0-78.23565515-7.11233204-110.24114935-24.89316353-3.55616601 0-7.11233204-3.55616601-7.11233339-7.112332v-195.58913787c0-17.7808301 10.66849806-21.33699748 21.33699751-7.11233202l85.34798717 85.34798718c3.55616601 3.55616601 3.55616601 3.55616601 10.66849804 0 74.67948912-71.12332309 145.80281225-142.24664622 220.48230137-213.36996796 3.55616601-3.55616601 17.7808301-3.55616601 21.3369961 3.55616599 10.66849806 32.00549554 21.33699748 64.01099107 21.33699749 103.1288173 0 142.24664622-120.90964873 256.04396154-263.15629496 256.04396291z" fill="#CA1A1D" p-id="4018"></path></svg>