<?xml version="1.0" standalone="no"?><!DOCTYPE svg PUBLIC "-//W3C//DTD SVG 1.1//EN" "http://www.w3.org/Graphics/SVG/1.1/DTD/svg11.dtd"><svg t="1547622571519" class="icon" style="" viewBox="0 0 2560 1024" version="1.1" xmlns="http://www.w3.org/2000/svg" p-id="18274" xmlns:xlink="http://www.w3.org/1999/xlink" width="500" height="200"><defs><style type="text/css"></style></defs><path d="M371.79146667 348.5696c28.672 0 54.4768 5.7344 77.4144 17.2032 2.8672 0 5.7344 2.8672 5.73440001 5.73439999v137.62560001c0 11.46880001-8.6016 14.33599999-14.336 5.7344L380.39306667 454.656c-2.8672-2.8672-2.8672-2.8672-8.6016 0-51.6096 51.6096-103.2192 100.352-154.8288 149.09439999-2.8672 2.8672-11.46880001 2.8672-14.33599999-2.86719998-8.6016-22.9376-14.33599999-45.8752-14.336-71.68000001-5.7344-100.352 80.2816-180.6336 183.50079999-180.6336z m146.22720001-91.7504c-22.9376-54.4768-83.1488-88.88320001-149.0944-88.8832-91.75039999 0-166.29760001 71.68-166.2976 160.5632 0 8.6016 0 20.0704 2.8672 28.672 2.8672 11.46880001 5.7344 11.46880001 14.33599999 5.7344 40.14079999-37.27360001 94.6176-60.2112 151.9616-60.2112 17.2032 0 37.27360001 2.8672 54.4768 5.7344 8.6016 2.8672 8.6016 2.8672 14.33600001-2.8672 22.9376-14.33599999 45.8752-25.8048 71.68-34.4064 5.7344 0 8.6016-5.7344 5.7344-14.336z m-361.2672 48.7424c-60.2112 5.7344-111.8208 51.6096-131.8912 114.68800001-28.672 88.88320001 17.2032 180.6336 103.2192 209.30559998 8.6016 2.8672 17.2032 5.7344 25.8048 5.73440001 11.46880001 0 14.33599999-2.8672 8.6016-11.4688-20.0704-51.6096-28.672-108.9536-8.6016-163.4304 5.7344-17.2032 14.33599999-34.4064 22.9376-48.7424 5.7344-8.6016 5.7344-5.7344 2.8672-14.33600001-5.7344-25.8048-8.6016-51.6096-11.46880001-80.28159998 0-8.6016-2.8672-11.46880001-11.46879999-11.46880001zM90.80586667 663.9616c-14.33599999 57.344 14.33599999 120.4224 68.81280001 160.5632 74.5472 54.4768 177.7664 40.14079999 229.376-31.5392 5.7344-8.6016 11.46880001-14.33599999 14.336-22.9376 2.8672-11.46880001 2.8672-14.33599999-8.6016-11.46880001-54.4768 5.7344-111.8208-8.6016-157.696-43.00799999-14.33599999-11.46880001-28.672-22.9376-40.1408-37.27359999-5.7344-5.7344-5.7344-5.7344-14.336-8.60160001-25.8048-2.8672-51.6096-8.6016-77.4144-14.33600001-5.7344-2.8672-11.46880001 0-14.33600001 8.60160001z m321.12640001 172.03199999c51.6096 31.5392 120.4224 22.9376 172.032-14.33599999 74.5472-54.4768 91.75039999-157.696 40.1408-229.376-5.7344-8.6016-11.46880001-14.33599999-17.20320001-20.0704-8.6016-5.7344-11.46880001-5.7344-14.33599999 2.86720001-11.46880001 54.4768-40.14079999 103.2192-88.88320001 137.62559999-14.33599999 11.46880001-31.5392 20.0704-48.74239999 25.8048-8.6016 2.8672-8.6016 2.8672-11.4688 11.4688-8.6016 22.9376-22.9376 45.8752-37.27360001 71.68-2.8672 5.7344-2.8672 11.46880001 5.73440001 14.33599999z m263.7824-252.31359999c45.8752-40.14079999 60.2112-106.0864 40.14079999-169.1648-28.672-88.88320001-120.4224-137.6256-206.4384-108.9536-8.6016 2.8672-17.2032 5.7344-25.8048 11.46880001s-11.46880001 8.6016-2.86719999 14.33599999c45.8752 28.672 86.016 71.68 103.2192 126.1568 5.7344 17.2032 8.6016 34.4064 11.4688 54.4768 0 8.6016 0 8.6016 5.7344 14.33599999 20.0704 17.2032 37.27360001 37.27360001 54.47679999 57.34400001 8.6016 5.7344 14.33599999 8.6016 20.07040001 0z" fill="#CA1A1D" p-id="18275"></path><path d="M366.05706668 715.5712c-28.672 0-54.4768-5.7344-77.4144-17.2032-2.8672 0-5.7344-2.8672-5.7344-5.7344v-137.6256c0-11.46880001 8.6016-14.33599999 14.33599999-5.73439999l60.21120001 60.21119999c2.8672 2.8672 2.8672 2.8672 8.6016 0 51.6096-48.7424 103.2192-100.352 154.8288-149.0944 2.8672-2.8672 11.46880001-2.8672 14.33599999 2.8672 8.6016 22.9376 14.33599999 45.8752 14.33600001 71.68 2.8672 100.352-83.1488 180.6336-183.5008 180.6336z" fill="#CA1A1D" p-id="18276"></path><path d="M907.95786668 741.376v-20.0704s0-2.8672-2.8672-2.8672c0 0-2.8672 0-2.8672-2.8672h-5.73440001v-2.8672h51.6096c5.7344 0 8.6016 2.8672 11.46880001 2.8672 2.8672 2.8672 5.7344 2.8672 8.60159999 8.6016 2.8672 2.8672 2.8672 8.6016 2.86720001 11.4688s0 5.7344-2.86720001 8.6016c0 2.8672-2.8672 5.7344-5.73439999 5.7344-2.8672 2.8672-5.7344 2.8672-8.6016 5.73440001-2.8672 0-5.7344 2.8672-8.6016 2.86719998 2.8672 0 8.6016 0 11.4688 2.86720001 2.8672 0 5.7344 2.8672 8.60159999 2.8672l8.6016 8.6016c2.8672 2.8672 2.8672 8.6016 2.86720001 11.46879999 0 5.7344 0 8.6016-2.86720001 14.33600001-2.8672 2.8672-5.7344 5.7344-11.46879999 8.60160001-2.8672 2.8672-8.6016 2.8672-14.33600001 2.86719998H893.62186668v-2.86719998h5.7344s2.8672 0 2.8672-2.86720001l2.8672-2.8672V741.376h2.8672z m14.33599999 17.20319999h14.33600001c2.8672 0 5.7344 0 8.6016-2.86719998s5.7344-5.7344 5.7344-8.60160001v-11.4688c0-5.7344-2.8672-11.46880001-5.7344-14.336s-8.6016-5.7344-14.336-5.7344h-11.4688v43.00799999h2.86719999z m0 25.8048v20.07040001c0 2.8672 2.8672 2.8672 2.86720001 2.86720001l2.8672 2.86719998h11.46879999c8.6016 0 11.46880001-2.8672 17.20320001-5.73439999 2.8672-2.8672 5.7344-8.6016 5.7344-17.2032 0-5.7344 0-8.6016-2.8672-11.4688l-8.6016-8.6016c-2.8672-2.8672-8.6016-2.8672-11.46880001-2.8672h-17.2032v20.07039999z m106.08640001-5.73439999s0 2.8672-2.86720001 5.73439999c0 2.8672-2.8672 2.8672-2.86719999 5.73440001s0 2.8672-2.86720001 5.7344v8.6016l2.86720001 2.86720001h5.7344v2.86719998h-34.40640001v-2.86719998h5.7344c2.8672 0 2.8672 0 2.86720001-2.86720001l2.8672-2.8672s2.8672-2.8672 2.8672-5.7344c2.8672-5.7344 2.8672-8.6016 5.7344-14.33599999s2.8672-8.6016 5.73439999-14.33600001l22.9376-60.21120001h5.73440001l31.5392 77.4144s0 2.8672 2.8672 2.86720001c0 2.8672 0 2.8672 2.8672 5.7344 0 2.8672 0 2.8672 2.8672 5.7344 0 2.8672 0 2.8672 2.8672 2.8672 2.8672 2.8672 2.8672 2.8672 5.73439999 2.8672h5.7344v2.86720001h-45.87519999v-2.86720001h5.7344s2.8672 0 2.8672-2.8672V792.9856c0-2.8672 0-2.8672-2.8672-5.7344l-5.7344-14.336H1019.77866667l8.60160001 5.7344z m37.2736-8.6016l-17.2032-40.14079999-17.2032 40.14079999h34.4064z m77.4144-45.8752l-5.7344-5.7344c-2.8672 0-5.7344-2.8672-8.60160001-2.8672v-2.8672h22.93760001l63.0784 77.4144V724.1728c0-2.8672 0-2.8672-2.8672-5.7344l-2.8672-2.8672h-8.60160001v-2.8672h34.40640001v2.8672h-5.7344s-2.8672 0-2.86720001 2.8672c0 0 0 2.8672-2.8672 2.8672V815.9232h-5.73439999l-5.7344-5.73440001-5.73440001-5.73439999-60.2112-71.68000001v74.54720002c0 2.8672 0 2.8672 2.8672 2.86719998 0 0 2.8672 0 2.86720001 2.86720001h5.7344v2.8672h-34.40640001v-2.8672h5.7344s2.8672 0 2.86720001-2.86720001l2.8672-2.86719998V724.1728h8.6016z m146.2272 51.6096v25.8048c0 2.8672 0 2.8672 2.8672 5.73440001 0 0 2.8672 2.8672 5.7344 2.86719998h8.6016v2.86720001h-45.8752v-2.86720001h5.7344s2.8672 0 2.8672-2.86719998l2.8672-2.86720001v-83.1488s0-2.8672-2.8672-2.8672c0 0-2.8672 0-2.8672-2.8672h-5.7344v-2.8672h45.8752v2.8672h-8.6016c-2.8672 0-2.8672 0-5.7344 2.8672 0 0-2.8672 2.8672-2.8672 5.7344v45.8752l5.7344-5.7344 8.60159999-8.60159999 8.60160001-8.60160001 8.6016-8.6016c2.8672-2.8672 2.8672-5.7344 5.73439999-8.60159999s2.8672-5.7344 2.8672-5.73440001v-2.8672s-2.8672 0-2.8672-2.8672h-5.73439999v-5.7344h34.40639999v2.8672H1346.63946668l-2.8672 2.8672-2.8672 2.8672-22.9376 28.672 20.0704 22.9376s2.8672 2.8672 2.8672 5.7344c2.8672 2.8672 2.8672 5.7344 5.7344 8.6016l8.60159999 8.6016 5.7344 5.7344c2.8672 0 2.8672 2.8672 2.86720001 2.8672h5.7344v2.86720001h-45.8752v-2.86720001h8.6016l2.86719999-2.8672s0-2.8672-2.86719999-2.8672c0-2.8672-2.8672-2.8672-2.86720001-5.7344s-2.8672-2.8672-2.8672-5.7344-2.8672-2.8672-2.86719999-2.86720001l-17.2032-22.93759999-17.2032 14.336z m217.90719999 37.2736c-8.6016 0-14.33599999 0-20.07039999-2.86720001s-11.46880001-5.7344-17.2032-11.46879999-8.6016-8.6016-11.46880001-17.20319999c-2.8672-5.7344-5.7344-14.33599999-5.73439999-20.07040001 0-8.6016 2.8672-14.33599999 5.73439999-20.0704s5.7344-11.46880001 11.46880001-17.2032 11.46880001-8.6016 17.2032-11.4688 14.33599999-2.8672 20.07039999-2.8672c8.6016 0 14.33599999 0 20.07040001 2.8672s11.46880001 5.7344 17.2032 11.4688 8.6016 8.6016 11.4688 17.2032c2.8672 5.7344 5.7344 14.33599999 5.73439999 20.0704 0 8.6016 0 14.33599999-2.8672 20.07040001s-5.7344 11.46880001-11.46879999 17.20319999-11.46880001 8.6016-17.2032 11.46879999c-8.6016 2.8672-14.33599999 2.8672-22.93760001 2.86720001z m0-97.4848c-5.7344 0-11.46880001 2.8672-17.2032 5.7344s-8.6016 5.7344-11.46879999 11.46879999-5.7344 8.6016-5.7344 14.33600001-2.8672 11.46880001-2.8672 17.2032 0 11.46880001 2.8672 17.20320001c0 5.7344 2.8672 11.46880001 5.7344 14.33599999 2.8672 5.7344 5.7344 8.6016 11.46879999 11.46880001s11.46880001 2.8672 17.2032 2.86719998 11.46880001-2.8672 17.20320001-2.86719998c5.7344-2.8672 8.6016-5.7344 11.46879999-11.46880001s5.7344-8.6016 5.7344-14.33599999 2.8672-11.46880001 2.86720001-17.20320001 0-11.46880001-2.86720001-17.2032c0-5.7344-2.8672-11.46880001-5.7344-14.33600001-2.8672-5.7344-5.7344-8.6016-11.46879999-11.46879999-2.8672-5.7344-8.6016-5.7344-17.20320001-5.7344z m160.56320001 20.0704h-2.86720001v-5.73439999c0-2.8672 0-2.8672-2.8672-5.73440001l-2.86719999-2.8672-2.8672-2.8672c-2.8672 0-5.7344-2.8672-11.46880001-2.8672h-20.07039999v43.00799999h11.46879999c2.8672 0 5.7344-2.8672 8.6016-2.86719998 2.8672-2.8672 2.8672-2.8672 2.86720001-5.73440001V741.376h2.8672v40.14080001h-2.8672c0-2.8672 0-5.7344-2.86720001-8.60160001 0-2.8672-2.8672-2.8672-5.7344-5.7344-2.8672 0-5.7344-2.8672-8.60159999-2.8672H1621.89066668v40.1408c0 2.8672 2.8672 2.8672 2.8672 2.86720001h11.46879999v2.86719998h-45.87519999v-2.86719998h5.7344s2.8672 0 2.8672-2.86720001l2.8672-2.8672v-80.2816s0-2.8672-2.8672-2.8672c0 0-2.8672 0-2.8672-2.8672h-5.7344v-2.8672h74.54719999l2.86720001 22.9376z m114.688-11.4688l-5.7344-5.7344c-2.8672 0-5.7344-2.8672-8.60160001-2.8672v-2.8672h22.9376l63.07840001 77.4144V724.1728c0-2.8672 0-2.8672-2.86720001-5.7344l-2.86719999-2.8672H1839.79786668v-2.8672h34.4064v2.8672h-5.73440001s-2.8672 0-2.86719999 2.8672c0 0 0 2.8672-2.8672 2.8672V815.9232h-5.7344l-5.73440001-5.73440001-5.7344-5.73439999-60.21119999-71.68000001v74.54720002c0 2.8672 0 2.8672 2.8672 2.86719998 0 0 2.8672 0 2.86719999 2.86720001h5.73440001v2.8672h-34.4064v-2.8672h5.73439999s2.8672 0 2.86720001-2.86720001l2.86719999-2.86719998V724.1728h8.60160001z m134.7584 54.4768s0 2.8672-2.8672 5.73439999c0 2.8672-2.8672 2.8672-2.8672 5.73440001s0 2.8672-2.8672 5.7344v8.6016l2.8672 2.86720001h5.7344v2.86719998h-34.4064v-2.86719998h5.7344c2.8672 0 2.8672 0 2.8672-2.86720001l2.86719999-2.8672s2.8672-2.8672 2.8672-5.7344c2.8672-5.7344 2.8672-8.6016 5.7344-14.33599999s2.8672-8.6016 5.73440001-14.33600001l22.9376-60.21120001h5.7344l31.5392 77.4144s0 2.8672 2.86719999 2.86720001c0 2.8672 0 2.8672 2.8672 5.7344 0 2.8672 0 2.8672 2.86720001 5.7344 0 2.8672 0 2.8672 2.86719999 2.8672 2.8672 2.8672 2.8672 2.8672 5.73440001 2.8672h5.7344v2.86720001h-45.87520001v-2.86720001h5.73440001s2.8672 0 2.86719999-2.8672V792.9856c0-2.8672 0-2.8672-2.86719999-5.7344l-5.73440001-14.336H1908.61066668l8.6016 5.7344z m37.27359999-8.6016l-17.20319999-40.14079999-14.33600001 40.14079999h31.5392z m77.4144-45.8752l-5.7344-5.7344c-2.8672 0-5.7344-2.8672-8.60159999-2.8672v-2.8672h22.9376l63.07839999 77.4144V724.1728c0-2.8672 0-2.8672-2.8672-5.7344l-2.86719999-2.8672h-8.6016v-2.8672h34.4064v2.8672h-5.7344s-2.8672 0-2.8672 2.8672c0 0 0 2.8672-2.8672 2.8672V815.9232h-5.7344l-5.73440001-5.73440001-5.73439999-5.73439999-60.2112-71.68000001v74.54720002c0 2.8672 0 2.8672 2.8672 2.86719998 0 0 2.8672 0 2.8672 2.86720001h5.7344v2.8672h-34.4064v-2.8672h5.7344s2.8672 0 2.8672-2.86720001l2.86719999-2.86719998V724.1728h8.6016z m146.2272 94.6176v11.4688c0 2.8672-2.8672 5.7344-2.86719999 11.4688-2.8672 5.7344-5.7344 8.6016-11.4688 8.6016-5.7344 2.8672-8.6016 2.8672-14.336 2.8672h-5.7344c-2.8672 0-5.7344 0-8.60160001-2.8672-2.8672 0-5.7344-2.8672-5.7344-2.8672-2.8672-2.8672-2.8672-2.8672-2.8672-5.7344s0-2.8672 2.8672-2.8672c0 0 2.8672-2.8672 5.7344-2.86720001s2.8672 0 5.73440001 2.86720001c0 0 2.8672 2.8672 2.8672 5.7344s2.8672 5.7344 2.8672 5.7344 2.8672 2.8672 5.73439999 2.8672c5.7344 0 8.6016 0 11.46880001-2.8672s2.8672-5.7344 5.7344-8.6016V729.90720001s0-2.8672-2.8672-2.86720001c0 0-2.8672 0-2.8672-2.8672h-5.7344v-11.4688h45.87519999v2.8672h-5.73439999s-2.8672 0-2.8672 2.8672l-2.8672 2.8672v97.4848H2178.12746667z m57.34400001-77.4144v-20.0704s0-2.8672-2.86720001-2.8672c0 0-2.8672 0-2.8672-2.8672h-5.73439999v-2.8672h45.8752v2.8672h-5.73440001s-2.8672 0-2.86719999 2.8672l-2.86720001 2.8672V804.4544s0 2.8672 2.86720001 2.86720001c0 0 2.8672 0 2.86719999 2.86719998h5.73440001v2.86720001h-45.8752v-2.86720001h5.73439999s2.8672 0 2.8672-2.86719998l2.86720001-2.86720001v-63.0784z m71.67999999-17.2032l-5.73439999-5.7344c-2.8672 0-5.7344-2.8672-8.6016-2.8672v-2.8672h22.93759999l63.07840001 77.4144V724.1728c0-2.8672 0-2.8672-2.8672-5.7344l-2.8672-2.8672h-8.6016v-2.8672h34.4064v2.8672h-5.73440001s-2.8672 0-2.86719999 2.8672c0 0 0 2.8672-2.86720001 2.8672V815.9232h-5.73439999l-5.7344-5.73440001-5.7344-5.73439999-60.21120001-71.68000001v74.54720002c0 2.8672 0 2.8672 2.86720001 2.86719998 0 0 2.8672 0 2.86719999 2.86720001h5.73440001v2.8672h-34.4064v-2.8672h5.7344s2.8672 0 2.8672-2.86720001l2.8672-2.86719998V724.1728h8.60159999z m209.3056 20.0704h-2.8672c0-2.8672 0-8.6016-2.86719999-11.46880001s-2.8672-5.7344-5.7344-8.60159999-5.7344-5.7344-8.60160001-5.7344c-2.8672-2.8672-8.6016-2.8672-11.46879999-2.8672-8.6016 0-14.33599999 2.8672-17.2032 5.7344-5.7344 2.8672-8.6016 5.7344-11.4688 11.46879999s-5.7344 11.46880001-5.7344 17.20320001v17.2032c0 5.7344 0 11.46880001 2.8672 17.20319999 0 5.7344 2.8672 11.46880001 5.7344 14.33600001s5.7344 8.6016 11.46879999 11.46879999 8.6016 2.8672 17.2032 2.86720001 14.33599999-2.8672 17.20320001-5.73439999c5.7344-2.8672 5.7344-8.6016 5.7344-17.20320001v-5.73440001c0-2.8672 0-2.8672-2.8672-2.86719998l-2.8672-2.86720001h-5.7344V770.048h40.14079999v2.8672h-5.73439999s-2.8672 0-2.8672 2.8672v25.8048h-11.4688s-2.8672 0-2.86720001 2.8672c-2.8672 0-2.8672 2.8672-5.73439999 2.86720001-2.8672 2.8672-8.6016 2.8672-11.4688 5.73439999h-11.46880001c-8.6016 0-14.33599999 0-20.07039999-2.86720001l-17.2032-8.60159999c-5.7344-2.8672-8.6016-8.6016-11.46880001-14.336s-2.8672-11.46880001-2.8672-20.0704 0-14.33599999 2.8672-20.0704 5.7344-11.46880001 11.46880001-17.20319999 11.46880001-8.6016 17.2032-11.46880001 14.33599999-2.8672 20.07039999-2.8672 11.46880001 0 17.20320001 2.8672 11.46880001 2.8672 14.336 8.6016l2.86719999-5.7344h2.86720001l-8.60160001 22.9376z" fill="#231815" p-id="18277"></path><path d="M2430.44106668 649.6256c-17.2032-14.33599999-63.07840001-37.27360001-63.07840001-65.9456 28.672 0 43.008 5.7344 54.47680001-20.0704 0-43.008 5.7344-88.88320001-2.86720001-129.024-17.2032-17.2032-48.7424 2.8672-65.94559999 11.46880001-25.8048 0-31.5392-25.8048-54.4768-31.53920001-14.33599999 14.33599999-20.0704 25.8048-31.5392 45.8752-2.8672 28.672-2.8672 131.8912-5.7344 146.2272L2252.67466668 615.2192c-8.6016-2.8672-17.2032-2.8672-25.8048-2.8672-14.33599999-31.5392-8.6016-111.8208-8.6016-120.4224v-11.4688c-2.8672 0-2.8672 5.7344-8.6016 8.6016-5.7344 5.7344-22.9376 17.2032-34.4064 8.60160001 0-31.5392 51.6096-63.07840001 65.9456-88.88320001 14.33599999-11.46880001 14.33599999-11.46880001 28.672-34.4064h14.33599999c20.0704 20.0704 31.5392 22.9376 60.21120001 22.93759999 28.672-8.6016 54.4768-17.2032 83.1488-22.93759999 22.9376-2.8672 91.75039999-28.672 114.68799999-5.73439999 5.7344 51.6096-25.8048 25.8048-63.07839999 48.74239999-2.8672 63.07840001-2.8672 123.2896-2.8672 186.36799999-11.46880001 22.9376-17.2032 43.008-45.8752 45.87520001zM1590.35146668 606.6176c-8.6016-2.8672-17.2032-8.6016-22.93760001-11.4688-11.46880001-25.8048-51.6096-45.8752-45.87519999-83.1488 20.0704-5.7344 45.8752-2.8672 60.2112 2.8672s17.2032 8.6016 22.9376 17.2032c5.7344 5.7344 11.46880001 14.33599999 11.4688 22.9376 2.8672 14.33599999 5.7344 28.672 0 40.1408-8.6016 11.46880001-14.33599999 8.6016-25.8048 11.4688z" fill="#040000" p-id="18278"></path><path d="M1383.91306668 368.64000001c37.27360001-5.7344 74.5472-14.33599999 111.8208-20.07040001 40.14079999-17.2032 94.6176-11.46880001 134.7584-31.53919999 5.7344-51.6096-48.7424-31.5392-80.2816-25.8048H1501.46826668c-5.7344-17.2032-11.46880001-34.4064-17.20320001-48.74240002-11.46880001-5.7344-11.46880001-5.7344-28.672-20.07039999-43.008 0-28.672 20.0704-14.33599999 51.6096v25.8048c-22.9376 25.8048-88.88320001 25.8048-117.5552 28.672-17.2032 5.7344-17.2032 5.7344-51.6096 11.4688-5.7344 45.8752 48.7424 37.27360001 77.4144 43.008 0 17.2032 0 37.27360001 2.86719999 54.4768 14.33599999 22.9376 25.8048 45.8752 37.27360001 71.68h11.4688c34.4064-14.33599999 43.008-2.8672 45.8752 31.5392-2.8672 28.672-2.8672 63.07840001-43.00800001 45.8752-2.8672-5.7344-5.7344-8.6016-8.60159999-11.46879999 0-22.9376 2.8672-40.14079999-5.7344-60.21120001-37.27360001 5.7344-40.14079999 20.0704-54.47680001 54.4768 0 65.94559999 25.8048 51.6096 68.8128 45.8752l34.4064 17.2032c2.8672 8.6016 11.46880001 14.33599999 20.0704 20.07040001 2.8672 0 8.6016-2.8672 11.46880001-5.73440001 34.4064-25.8048 22.9376-108.9536 22.9376-146.22720001 14.33599999-11.46880001 31.5392-20.0704 45.8752-28.67199998 8.6016-20.0704 37.27360001-60.2112 37.2736-83.14880001-25.8048-40.14079999-68.8128-28.672-106.0864-11.4688-25.8048 2.8672-25.8048 2.8672-48.7424 8.6016-14.33599999-2.8672-37.27360001 0-51.6096 0 0-2.8672-5.7344-8.6016-2.8672-11.4688l17.2032-5.73439999z m31.5392 63.07839999c17.2032-17.2032 106.0864-43.008 77.4144 14.33600001-22.9376 17.2032-34.4064 20.0704-63.07840001 20.07039999-17.2032-8.6016-14.33599999-17.2032-14.33599999-34.4064zM1143.06826668 371.50719999c-20.0704 11.46880001-48.7424 5.7344-71.68000001 5.73440001 0-5.7344-2.8672-8.6016-2.8672-11.4688 5.7344-14.33599999 5.7344-14.33599999 14.33600001-20.07040001 28.672-5.7344 57.344-8.6016 80.2816-22.93759999 8.6016-57.344-51.6096-31.5392-80.2816-43.008-5.7344-17.2032-45.8752-91.75039999-71.68-45.8752 0 22.9376-5.7344 48.7424-11.46880001 71.68-31.5392 8.6016-71.68-2.8672-97.48479999 20.0704 0 43.008 51.6096 43.008 80.2816 45.87519999l2.8672 2.86720001c0 14.33599999 0 14.33599999-2.8672 17.2032-22.9376 5.7344-48.7424 11.46880001-71.68 17.2032-17.2032 2.8672-34.4064-2.8672-45.87520001 8.6016 11.46880001 60.2112 14.33599999 123.2896 17.20320001 186.36799999l14.33599999 14.33600001h17.2032c2.8672-2.8672 5.7344-8.6016 8.6016-11.4688V448.92159999l17.2032-8.60159999c25.8048 0 28.672 0 37.27360001 22.9376-8.6016 8.6016-17.2032 14.33599999-17.2032 28.672 5.7344 2.8672 14.33599999 5.7344 20.0704 8.60159999-2.8672 5.7344-2.8672 14.33599999-8.6016 20.07040001-34.4064 8.6016-40.14079999 22.9376-17.2032 45.8752h22.9376c8.6016-11.46880001 11.46880001-11.46880001 22.93759999-14.33600001 5.7344 2.8672 8.6016 8.6016 11.46880001 11.46880001-2.8672 31.5392-2.8672 65.94559999 20.0704 88.88320001 5.7344-2.8672 11.46880001-8.6016 22.9376-8.60160001 2.8672-11.46880001 8.6016-22.9376 14.33599999-34.4064v-48.7424c11.46880001-17.2032 68.8128-22.9376 40.14080001-60.21120001-5.7344 0-14.33599999-2.8672-20.0704-2.86719998 2.8672-14.33599999 11.46880001-17.2032 22.9376-28.67200001 0-11.46880001-5.7344-22.9376-5.7344-37.2736 17.2032-8.6016 25.8048-5.7344 40.14079999 2.8672 2.8672 31.5392 8.6016 111.8208-14.33599999 134.7584-11.46880001 2.8672-31.5392 0-40.1408 8.60159999 0 22.9376 14.33599999 34.4064 31.53919999 51.6096 22.9376 14.33599999 40.14079999 20.0704 60.21120001 0l8.6016-25.8048c5.7344-65.94559999 14.33599999-131.8912 17.2032-197.83679999-14.33599999-34.4064-28.672-34.4064-65.9456-34.40640001z m-120.4224 86.01600001c0-5.7344-2.8672-14.33599999-2.86720001-20.0704 2.8672-2.8672 5.7344-2.8672 11.46880001-5.7344 5.7344 5.7344 5.7344 11.46880001 5.7344 20.0704-5.7344 2.8672-8.6016 5.7344-14.336 5.7344zM2189.59626668 368.64000001c0-14.33599999-2.8672-17.2032 2.8672-28.67200001 28.672-31.5392 48.7424-60.2112 65.94559999-97.48480001h17.20320001c57.344 40.14079999 34.4064 45.8752-14.336 88.88320001-20.0704 14.33599999-43.008 28.672-71.68 37.27360001zM2129.38506667 537.8048c-40.14079999-17.2032-91.75039999-25.8048-123.2896-57.344 0-20.0704 34.4064-28.672 51.6096-31.53920001v-25.8048c-14.33599999-2.8672-28.672-11.46880001-43.00799999-14.33599999 2.8672-48.7424 31.5392-97.4848 31.5392-146.2272-28.672-48.7424-65.94559999-14.33599999-100.35200001 0-20.0704 0-40.14079999 2.8672-60.21119999 2.86720001 0 17.2032 8.6016 48.7424 2.8672 60.21119999-8.6016 0-14.33599999-8.6016-20.07040001-8.60159999-45.8752-68.8128-45.8752-68.8128-51.6096-71.68000001h-14.33599999c-2.8672 2.8672-5.7344 8.6016-8.60160001 11.4688-14.33599999 60.2112-63.07840001 100.352-100.35199999 143.36v17.2032c5.7344 2.8672 11.46880001 8.6016 17.2032 11.4688 31.5392 0 34.4064-14.33599999 65.9456 8.6016 2.8672 40.14079999-65.94559999 5.7344-45.8752 60.21120001 20.0704 0 28.672 2.8672 45.8752 11.46879999 0 22.9376-8.6016 34.4064-22.9376 51.6096-5.7344 28.672 2.8672 37.27360001 22.9376 57.344h14.33599999c25.8048-25.8048 40.14079999-65.94559999 68.81280001-94.61759999h17.20319999c5.7344 40.14079999-20.0704 83.1488 14.33600001 117.55519999 5.7344 0 14.33599999-2.8672 20.0704-8.6016 28.672-25.8048 54.4768-57.344 83.1488-88.8832 22.9376 0 37.27360001 14.33599999 57.34399999 25.8048 25.8048 0 60.2112 0 80.28160001-14.336 0-11.46880001 0-11.46880001-2.86720001-17.2032z m-246.57919999-45.8752c-8.6016 0-17.2032 2.8672-25.8048 2.8672-22.9376 14.33599999-22.9376 14.33599999-37.27360001 20.0704-2.8672 0-2.8672-2.8672-5.73439999-2.8672 0-31.5392 45.8752-37.27360001 31.53919999-65.94559999-8.6016-2.8672-17.2032-5.7344-22.93759999-11.46880001V420.24960001c8.6016-5.7344 17.2032-14.33599999 28.67199999-20.07040001 11.46880001-43.008-43.008-11.46880001-63.07839999-14.336v-11.4688c17.2032-20.0704 51.6096-65.94559999 68.8128-20.0704 8.6016 2.8672 20.0704 8.6016 28.672 14.33600001 11.46880001 31.5392 0 88.88320001-2.8672 123.28959999z m45.87519999-189.2352c20.0704-2.8672 20.0704-2.8672 43.008 0 8.6016 14.33599999 8.6016 17.2032-2.86719999 31.5392-8.6016 0-20.0704 2.8672-28.672 2.8672-14.33599999-14.33599999-20.0704-14.33599999-11.46880001-34.4064z m34.40640001 80.2816c-5.7344 2.8672-14.33599999 5.7344-20.0704 8.6016-8.6016-5.7344-14.33599999-11.46880001-17.2032-17.2032 2.8672-2.8672 2.8672-5.7344 5.7344-5.73439999 20.0704 0 31.5392-5.7344 31.5392 14.33599999z m-17.20320001 163.4304c-5.7344 0-11.46880001 0-17.2032 2.86720001-5.7344-17.2032-5.7344-25.8048 0-45.87520001 28.672 0 43.008 25.8048 17.2032 43.008z m43.00800001-117.5552c-14.33599999 17.2032-20.0704 25.8048-43.00800001 28.672-8.6016-8.6016-5.7344-11.46880001-8.60159999-22.9376 8.6016-8.6016 37.27360001-22.9376 51.6096-20.0704v14.336zM2364.49546668 322.7648c-14.33599999-11.46880001-22.9376-14.33599999-22.93760001-31.53919999 2.8672-2.8672 2.8672-5.7344 5.73440001-5.73440001 40.14079999-14.33599999 160.5632-83.1488 149.09439999 5.73440001-22.9376 17.2032-77.4144 22.9376-106.08639999 31.53919999-5.7344-2.8672-17.2032-2.8672-25.8048 0z" fill="#040000" p-id="18279"></path></svg>