<?xml version="1.0" standalone="no"?><!DOCTYPE svg PUBLIC "-//W3C//DTD SVG 1.1//EN" "http://www.w3.org/Graphics/SVG/1.1/DTD/svg11.dtd"><svg t="1547622517834" class="icon" style="" viewBox="0 0 1820 1024" version="1.1" xmlns="http://www.w3.org/2000/svg" p-id="16576" xmlns:xlink="http://www.w3.org/1999/xlink" width="355.46875" height="200"><defs><style type="text/css"></style></defs><path d="M1195.03974847 582.24753677c1.75344862-1.75344862 1.42467752-2.08221973 1.4246775-4.27403022-2.73976311-1.20549601-5.58911813-1.64385787-8.65765235-1.42467752-26.52091083-6.46584187-44.82253118-14.68513234-68.8228604-28.71272248 16.54817172-20.60302159 29.69903696-39.67177607 38.68546042-64.54882787l2.84935502-5.69870889 5.69870773-2.84935386c2.52058276-1.64385787 4.27403137-3.50689724 4.27403138-5.69870773l-30.13739883-20.05507012-7.12338524 10.08232985h-24.32910034v-60.27479766h38.68546042c-1.86303938 10.30151138-4.16444061 21.37015572-10.08232871 30.13739884v4.27403138h4.27403022c7.67133786-9.86314835 15.23308497-16.65776248 27.28804496-21.47974648 4.38362213-1.75344862 25.42500558-3.06853538 24.32910036-7.12338525l-4.27403138-7.12338408L1162.05299578 377.20363419h-5.69870773l-8.65765352 12.93168373h-38.68546042v-37.26078407l11.50700621-8.65765235-1.42467634-2.84935502-35.83610773-7.12338524-1.42467634 1.42467751 1.42467634 30.13739883v24.32910034h-35.83610656l-11.50700737-7.12338524-12.93168372-5.69870773v14.35636009c2.08221973 32.00043821 2.73976311 65.31596317 0.21918151 96.8780395-1.75344862 22.35647022-4.93157476 44.1649878-11.61659814 62.68578967-6.24666036 17.42489662-15.56185724 31.7812567-28.82231207 48.32942842-2.95894462 4.27403137-1.09590525 6.68502338 3.39730649 3.06853537 29.3702647-23.12360435 55.23363331-60.27479766 59.72684504-117.80983221l1.4246775-12.93168373v-2.84935386h7.12338525c5.69870773 28.27435946 15.34267573 57.09667268 34.4114302 78.90518911-19.28793483 21.37015572-54.46649918 45.48007455-83.17922164 51.94591642-2.410992 0.54795262-2.63017351 4.71239324 1.53426827 4.05485103 33.31552497-5.47952738 66.1926869-21.91810834 94.46704635-40.1101391 19.06875448 16.21940061 38.79505118 29.2606751 60.27479766 41.64440621h4.27403137c8.21929048-13.26045599 12.1645496-19.28793483 28.82231208-23.2331951z m-146.30337202-123.28935843v-60.27479883h34.41142905v60.27479883h-34.41142905z m14.35636007 9.97273911h68.82286042c-4.49321173 22.35647022-15.56185724 47.01434282-30.13739883 64.54882903-19.06875448-19.06875448-32.00043821-37.80873669-38.68546159-64.54882903zM952.73506183 602.41219649c17.97284924 6.02747999 29.91821732-5.36993662 27.28804496-21.47974532-2.73976311-16.54817172-9.97273911-30.02780807-6.90420488-46.57598095 4.821984-26.52091083 13.69881786-52.71305055 21.37015572-78.57641801 6.90420373-23.34278586 14.68513234-46.35679944 21.37015573-69.91876566 0-3.17812613-1.97263014-3.83566951-4.27403139-1.42467636-20.16465972 47.01434282-38.79505118 94.79581862-61.69947401 140.60466429-5.58911813 8.32888124-13.15086524 5.69870773-21.47974648 5.69870773-5.47952738-0.21918151-2.63017351 4.05484986 3.28771573 5.26034587 32.21961972 6.13707075 4.05484986 57.86380566 21.04138462 66.41186841zM739.03350575 569.42544379c-1.64385787 3.28771573-2.63017351 4.05484986-5.69870888 5.69870774-11.50700737 0-22.79483208-2.84935386-34.41142905-2.84935387v4.27403137h1.42467635c14.46595199 6.24666036 23.89073848 10.19192062 27.28804496 27.28804498l1.42467752 2.84935385c11.83577849-0.65754338 22.46606097-4.60280249 33.20593421-8.98642461 3.72607875-3.72607875 3.17812613-5.04116435 5.47952621-9.75355759V461.8075322h113.31662048l1.42467636-2.19181049-5.69870774-7.89051937c-5.58911813-4.05484986-10.63028248-9.09601537-16.21940062-13.15086523-2.95894462-2.19181049-6.13707075-3.72607875-9.64396683-5.58911699-5.26034586 5.58911813-10.52069173 12.05496-15.78103875 18.63039146-69.37081303 0-138.63203531-0.98631449-208.00284718 0-5.26034586 0.10959076-7.45215635 10.08232986 0 10.08232987H739.03350575v107.72750234z" fill="" p-id="16577"></path><path d="M932.57040211 418.73844965c4.60280249 6.90420373 7.67133786 12.05496 9.64396799 17.97284808 1.31508676 4.05484986 1.64385787 8.65765235 3.28771573 13.5892271 14.24677048 21.37015572 37.26078407-2.52058276 25.86336745-22.90442284-8.43847199-8.43847199-26.41132008-13.15086524-37.26078407-14.35636123-6.46584187 0-7.89051938 1.53426711-1.5342671 5.69870889zM1659.81323544 371.50492531h140.6046643v-5.69870773l-24.32910035-21.47974648-15.7810376 17.2057151h-100.38493559c-0.98631449 0-4.71239324 2.73976311-4.71239324 5.04116551-0.10959076 2.63017351 1.86303938 4.93157476 4.60280248 4.9315736zM1547.92129247 424.54674813c30.13739883-20.05506896 56.98708193-44.1649878 84.60389801-67.3981829 3.28771573-1.09590525 8.98642461-1.75344862 11.50700737-4.27403138-10.52069173-8.10969973-21.04138346-16.9865336-31.56207633-21.47974648-10.52069173 31.56207634-44.1649878 67.06941179-67.3981829 90.3026069-2.73976311 2.73976311-0.43836186 6.02747999 2.84935385 2.84935386zM1814.66467022 437.47843186l-24.32910034-21.47974648-14.35636009 17.20571511h-139.07039718c-0.54795262 0-2.95894462 2.08221973-2.73976426 4.16444061 0.21918151 2.19181049 1.75344862 4.38362213 2.73976426 4.38362213h98.96025809V567.89117669c0 2.63017351 0.10959076 4.93157476-1.42467636 5.69870772-8.87683386 3.9452591-31.56207634 0.98631449-41.6444062 0-5.04116435 0-4.71239324 0.65754338-2.84935386 4.27403138 14.13717972 1.64385787 29.15108434 13.15086524 28.71272132 27.28804497 9.64396799 0 19.50711634-3.06853538 28.71272248-5.69870889 15.12349422-10.08232986 10.52069173-5.58911813 15.78103759-21.47974532V441.75246323h50.19246779c3.61648799 0 3.61648799-2.30140124 1.31508676-4.27403137z" fill="" p-id="16578"></path><path d="M1613.89479902 596.60389801V447.45117097l32.9867527-31.56207635 8.65765235-2.84935386c-8.10969973-8.10969973-20.38384123-13.91799821-30.13739883-20.05506897-16.32899021 31.12371332-46.79516131 74.41197739-83.1792205 106.08364448-2.84935386 2.84935386-1.86303938 4.27403137 1.42467636 4.27403138 16.21940061-10.84946399 31.67166594-22.79483208 47.34311394-34.4114302v131.94701193c0 2.73976311-0.32877111 4.27403137 2.84935386 4.27403138 7.67133786-0.98631449 17.20571511 0.10959076 20.05507012-8.54806275zM1284.02726861 599.45325187l53.04182166-48.76779028 10.08232986-10.08232987c1.31508676-1.31508676 0.10959076-2.19181049-1.42467636-1.42467751l-14.35636124 7.12338524-31.56207633 14.35636124V488.98598641h47.34311393c0.87672489-0.76713413 1.42467752-1.75344862 1.42467751-2.84935387l-17.20571511-18.63039261-2.84935386-1.42467635-2.84935386 1.42467635-10.08232987 11.50700737h-15.78103874v-37.26078407h41.6444062v-2.84935386l-17.20571511-17.2057151-2.84935385-1.42467752-11.50700739 12.93168374h-63.12415151l8.65765235-11.50700622 17.20571509-24.32910035h71.67221428c2.95894462-0.76713413 3.17812613-2.73976311 1.42467751-5.69870888l-18.63039261-17.2057151-12.93168372 12.93168487h-38.68546159l18.63039261-31.56207634 7.01379449-6.02747999-32.65798158-15.23308498-1.31508676 4.05484987c-7.78092862 35.17856434-21.91810834 85.37103214-40.43890905 116.16597435-1.64385787 2.84935386 3.06853538 3.9452591 4.49321174 1.75344862 4.821984-7.89051938 8.87683386-13.15086524 14.13717972-20.38384124 0.43836186 2.08221973 1.31508676 3.9452591 2.84935387 5.69870888h28.71272247v37.26078407h-44.49376007c-2.84935386 0-5.58911813 2.84935386-5.36993662 5.47952623 0.21918151 2.30140124 2.95894462 4.60280249 5.36993662 4.60280364h44.49376007V563.83632566l-2.84935386 5.69870888-5.69870889 5.69870774 0.10959076 1.64385787 1.75344861 1.31508675 12.38373111 18.30162035 1.42467752 2.95894462zM637.77184527 435.72498323c4.93157476 0.87672489 8.87683386 0.32877111 13.80840861-3.9452591 5.47952738-4.71239324 12.1645496-13.26045599 13.3700456-20.93179386 0.76713413-4.821984 1.20549601-9.64396799 0.87672488-16.43858097h169.20779601c-1.86303938 13.15086524-7.67133786 23.56196621-12.93168488 35.83610656v1.42467751h4.27403138c7.232976-7.232976 16.0002191-13.04127448 24.32910034-18.63039261 10.41110097-3.83566951 21.69892683-4.38362213 31.56207633-7.12338525V400.21764779c-8.54806275-6.46584187-16.43858097-13.26045599-24.32910033-20.05506897-4.38362213-3.72607875-6.02747999-5.58911813-11.50700738-7.12338524-4.16444061 2.84935386-7.89051938 7.01379449-11.50700621 11.50700621H664.40234686c-3.50689724-5.26034586-4.821984-9.97273911-7.12338525-15.78103759-1.64385787-1.64385787-3.83566951-1.20549601-4.27403138 1.42467752-3.39730648 18.08243884-6.24666036 24.65787145-21.58933607 35.39774469-4.71239324 3.28771573-8.10969973 8.65765235-8.32888124 16.32899021-0.10959076 5.69870773 8.98642461 12.82209297 14.68513235 13.80840861zM1470.44077972 593.75454414c0.98631449 0.21918151 1.86303938-0.32877111 2.84935385-1.42467751 9.75355875-13.04127448 16.87694284-15.23308497 32.9867527-17.2057151 1.09590525-1.31508676 1.97263014-1.53426711 0-4.27403022-33.31552497-9.20560497-50.63082966-29.47985545-70.24753677-54.46649918l51.61714532-18.63039261 8.43847199-0.10959075 4.82198284-1.53426712-23.23319394-27.06886345-1.42467751 2.84935386c-13.91799821 13.91799821-28.0551791 27.39763572-43.06908255 40.11013794-11.39741661-18.73998221-15.34267573-31.7812567-21.47974648-53.04182166h37.26078407c0 4.60280249-0.54795262 8.00010897 2.84935385 11.50700622 9.86314835-0.32877111 21.47974648-1.97263014 24.32910036-8.65765236V367.12130433l7.12338523-5.69870889V358.57324159l-27.28804496-17.20571511-8.65765235 12.93168373h-68.82286041l-22.90442284-11.50700621v217.31804407l-2.95894462 13.5892271-4.60280248 6.24666035 0.32877111 0.87672489 10.08232987 20.05506897 2.84935385 2.84935387 1.42467752 1.42467751 1.42467751-1.42467751 68.82285926-53.04182166c11.39741661 15.78103759 23.89073848 29.47985545 37.47996558 43.06908255z m-91.72728325-230.90727118h70.24753677v38.68546159h-70.24753677v-38.68546159z m0 47.34311394h70.24753677v38.68546157h-70.24753677v-38.68546157z m0 156.27611228v-107.50832084h27.28804496c4.60280249 31.56207634 10.84946399 59.06930166 25.86336746 87.45325187-17.86325848 8.10969973-35.50733545 14.68513234-53.15141242 20.05506897zM968.51609942 369.20352407c1.42467752 7.232976 1.31508676 11.06864435 6.79461414 16.54817173 6.79461414 4.49321173 14.7947231 4.27403137 20.49343082-1.42467636 10.08232986-9.31519572 8.00010897-25.42500558-4.27403137-31.56207634-10.73987324-4.27403137-25.64418709-7.12338524-37.26078407-7.12338525-2.19181049 2.19181049-1.64385787 1.09590525 0 4.27403138 9.97273911 5.04116435 11.50700737 8.65765235 14.24677048 19.28793484z" fill="" p-id="16579"></path><path d="M728.95117589 338.51817262c7.89051938 9.86314835 7.89051938 12.05496 8.87683386 24.54828185 0.87672489 11.50700737 9.75355875 16.9865336 17.20571511 16.76735209 11.83577849-0.43836186 17.64407697-9.09601537 17.86325848-19.72629671 0.10959076-4.38362213-5.26034586-15.01390461-12.38373111-19.72629786-10.84946399-7.232976-20.05506896-10.19192062-32.76757235-11.61659697-1.75344862-0.21918151-5.36993662 2.410992-4.16444061 3.616488l5.36993662 6.1370696zM733.22520726 688.55036276c24.10991883-11.06864435 20.49343084-44.60335083-8.6576535-44.60335083h-38.68546043v93.26155037h35.83610656c9.09601537 0 24.4386911-4.38362213 28.49354097-14.68513236 5.36993662-13.5892271-0.32877111-29.2606751-16.9865336-33.97306718zM697.38909955 652.60466429h24.32910034l5.69870773 1.42467751c14.68513234 7.34256676 10.19192062 23.56196621-2.84935386 30.13739883l-5.69870773 1.42467751H697.38909955v-32.98675385z m23.01401359 75.94624565h-23.01401359V693.92029938h21.58933723c15.67144799 0 21.15097421 8.43847199 21.15097421 18.95916372 0.10959076 7.78092862-10.08232986 15.67144799-19.72629785 15.67144684zM922.597663 722.85220221l-54.46649918-78.90519028h-15.78103874v93.26155037h11.39741662v-77.48051278l54.57608992 77.48051278h15.78103759v-93.26155037h-11.50700621zM1473.29013357 722.85220221l-54.46649917-78.90519028h-15.78103759v93.26155037h11.50700621v-77.48051278l54.46649918 77.48051278h15.78103875v-93.26155037H1473.29013357zM1552.19532385 694.13947974h20.05506897V725.70155607c-27.06886345 6.79461414-61.69947517 4.71239324-61.69947518-34.4114302 0.54795262-47.01434282 43.06908255-39.12382345 70.24753678-34.4114302l-1.42467636-10.08232986c-43.50744443-11.61659698-82.63126787 2.410992-81.75454413 44.49376006 1.20549601 54.02813731 50.08287704 49.20615332 87.45325186 43.06908255v-48.76779028h-32.87716194v8.5480616zM1372.90519799 643.94701193h11.50700621v93.26155037h-11.50700621zM1650.16926745 688.87913388c24.10991883-11.06864435 20.49343084-44.60335083-8.65765235-44.60335083h-38.68546158v93.26155151h35.83610771c9.09601537 0 24.4386911-4.38362213 28.49354097-14.68513235 5.36993662-13.69881786-0.32877111-29.2606751-16.98653475-33.97306833z m-35.83610655-36.05528808h24.32910033l5.69870774 1.42467751c14.68513234 7.34256676 10.19192062 23.56196621-2.84935387 30.13739883l-5.69870888 1.42467635h-21.47974532v-32.98675269z m22.90442282 76.0558364h-22.90442282v-34.6306117h21.58933607c15.67144799 0 21.15097421 8.43847199 21.15097537 18.95916371 0.10959076 7.67133786-10.08232986 15.67144799-19.83588862 15.67144799zM1725.23878821 642.74151594c-27.06886345 0-49.09656256 21.58933723-49.09656255 48.11024806s22.0276991 48.11024807 49.09656255 48.11024691c26.9592727 0 48.9869718-21.58933723 48.98697296-48.11024691s-22.0276991-48.11024807-48.98697296-48.11024806z m0 86.57652813c-21.58933723 0-39.23341421-17.31530586-39.23341305-38.46628007s17.64407697-38.46628008 39.23341305-38.46628006c21.58933723 0 39.23341421 17.31530586 39.23341421 38.46628006-0.10959076 21.15097421-17.64407697 38.46628008-39.23341421 38.46628007zM1102.43574149 642.74151594c-27.06886345 0-49.09656256 21.58933723-49.09656255 48.11024806s22.0276991 48.11024807 49.09656255 48.11024691c26.9592727 0 48.9869718-21.58933723 48.9869718-48.11024691s-22.0276991-48.11024807-48.9869718-48.11024806z m0 86.57652813c-21.58933723 0-39.23341421-17.31530586-39.23341421-38.46628007s17.64407697-38.46628008 39.23341421-38.46628006c21.58933723 0 39.23341421 17.31530586 39.23341305 38.46628006-0.10959076 21.15097421-17.64407697 38.46628008-39.23341305 38.46628007zM949.77611721 643.94701193v93.26155037h12.93168373v-93.26155037zM1012.90026874 643.94701193h-14.35636125l-35.83610655 44.49376007 41.64440619 48.7677903h15.7810376l-43.06908256-50.1924678zM1165.0119404 737.2085623h12.82209297v-43.06908256h40.21972869v-8.5480616h-40.21972869v-31.56207634h44.49376006v-10.08232987h-57.31585303zM794.92468128 643.94701193l-44.49375891 93.26155037h14.35636007l17.20571511-38.68546043h37.26078407l14.35636124 38.68546043h12.93168373l-37.26078407-93.26155037H794.92468128z m-10.08232986 45.91843643l15.78103875-35.83610656 15.78103759 35.83610656h-31.56207634zM1342.76779916 722.85220221l-54.46649918-78.90519028h-15.78103875v93.26155037h11.50700738v-77.48051278l54.46649917 77.48051278h15.78103759v-93.26155037h-11.50700621z" fill="" p-id="16580"></path><path d="M271.95861754 799.34639933C415.74140796 799.34639933 533.00328754 682.0845209 533.00328754 538.30173048S415.74140796 277.25706047 271.95861754 277.25706047 10.91394753 394.51894006 10.91394753 538.30173048s117.26187959 261.04467001 261.04467001 261.04466885z" fill="#F2933B" p-id="16581"></path><path d="M411.13860547 317.58637992c22.0276991 13.91799821 41.86358656 31.12371332 58.74053055 50.74042042-14.46595199-1.97263014-29.2606751-3.06853538-44.27457972-3.06853538-178.19422063 0-323.62086891 145.31705753-323.62086891 323.62086892 0 17.20571511 1.42467752 34.1922487 4.05484986 50.74042041-20.05506896-16.54817172-37.47996558-36.05528807-51.94591641-57.7542149 3.61648799-196.71502249 161.31727664-356.71721236 357.04598463-364.27895947z m113.64539158 155.6185689c-32.21961972-16.32899021-68.49408815-25.53459634-106.96036821-25.53459634-130.96069745 0-237.81147491 106.85077746-237.81147607 237.8114749 0 37.69914594 8.87683386 73.31607214 24.54828186 105.09732885 21.47974648 5.80829848 44.05539821 8.87683386 67.39818291 8.87683386h1.97263012c-24.87705296-31.34289483-39.67177607-70.79548939-39.67177607-113.75498235 0-101.04247897 82.41208752-183.45456649 183.45456649-183.45456649 43.61703518 0 83.72717427 15.34267573 115.28924946 40.98686283 0-1.64385787 0.10959076-3.17812613 0.10959076-4.821984-0.10959076-22.57565173-2.95894462-44.38416932-8.32888125-65.20637126z m-15.12349536 173.04346437c-13.80840861-39.12382345-51.17878344-67.28859214-94.90540823-67.28859216-55.45281366 0-100.60411711 45.15130345-100.60411711 100.60411711 0 44.05539821 28.60313172 81.75454414 68.27490664 95.23418049 56.00076628-26.30173048 101.37125124-72.11057614 127.2346187-128.54970544z m-93.37114111-17.75366773c-29.80862772 0-54.13772806 24.32910034-54.13772692 54.13772806s24.32910034 54.13772806 54.13772692 54.13772691 54.13772806-24.32910034 54.13772806-54.13772691-24.32910034-54.13772806-54.13772806-54.13772806z" fill="#FEDA65" p-id="16582"></path><path d="M271.95861754 277.25706047c21.47974648 0 42.30194958 2.63017351 62.35701854 7.56174711 15.01390461 31.12371332 23.45237546 65.97350655 23.45237546 102.79592759 0 130.96069745-106.85077746 237.81147491-237.81147492 237.81147491-36.05528807 0-70.24753677-8.10969973-100.93288822-22.57565173-5.26034586-20.60302159-8.10969973-42.19235883-8.10970087-64.43923827v-3.06853422c30.46617109 22.57565173 68.16531703 35.94569731 108.82340758 35.94569731 101.04247897 0 183.45456649-82.41208752 183.45456649-183.45456649 0-41.42522469-13.80840861-79.67232325-37.15119331-110.46726661 1.97263014-0.10959076 3.9452591-0.10959076 5.91788925-0.1095896zM32.17451249 435.28662137c16.76735323 33.64429608 51.61714531 56.87749117 91.61769249 56.87749118 56.32953855 0 102.35756573-45.91843642 102.35756688-102.35756689 0-40.00054718-23.12360435-74.74074965-56.76790157-91.61769249-22.90442284 9.86314835-44.05539821 22.79483208-63.01456077 38.46628007 4.60280249-1.20549601 9.42478648-1.86303938 14.35636123-1.86303938 30.35658034 0 55.12404255 24.76746221 55.12404256 55.12404255 0 30.35658034-24.76746221 55.12404255-55.12404256 55.12404256-30.35658034 0-55.12404255-24.76746221-55.12404254-55.12404256 0-4.60280249 0.54795262-9.09601537 1.64385786-13.37004559-14.13717972 17.86325848-25.97295821 37.58955518-35.06897358 58.74053055z" fill="#FEDA65" p-id="16583"></path></svg>