<?xml version="1.0" standalone="no"?><!DOCTYPE svg PUBLIC "-//W3C//DTD SVG 1.1//EN" "http://www.w3.org/Graphics/SVG/1.1/DTD/svg11.dtd"><svg t="1547620031149" class="icon" style="" viewBox="0 0 1024 1024" version="1.1" xmlns="http://www.w3.org/2000/svg" p-id="3498" xmlns:xlink="http://www.w3.org/1999/xlink" width="200" height="200"><defs><style type="text/css"></style></defs><path d="M120.59000002 646.20599999A431.60399999 431.60399999 0 0 1 8.865 591.933a505.81400001 505.81400001 0 0 0 93.252 221.93900001c0-1.635-0.091-3.27000001-0.09099999-4.91700003a718.965 718.965 0 0 1 18.56400001-162.74999997z m287.07699998-9.72a432.27400002 432.27400002 0 0 1-206.384 26.92099998 635.19399999 635.19399999 0 0 0-8.97000001 244.40900003 506.064 506.064 0 0 0 255.582 108.307 432.19400001 432.19400001 0 0 1-40.22799999-379.67zM224.321 408.382A186.20700001 186.20700001 0 0 1 64.40999999 268.35199999 505.64399998 505.64399998 0 0 0 2.91599999 491.87000002a357.26800001 357.26800001 0 0 0 138.27000001 82.88499998 714.174 714.174 0 0 1 83.135-166.37199999z m67.47700001-85.25799999a721.16800001 721.16800001 0 0 1 52.00199998-50.95700001 110.04400001 110.04400001 0 1 0-52.00199998 50.95700001z m621.72899998 499.06999999a110.05499996 110.05499996 0 1 0-59.59800001 64.719 511.42299997 511.42299997 0 0 0 59.59800001-64.719z" fill="#F2943A" p-id="3499"></path><path d="M798.74800001 92.41999999a505.79200001 505.79200001 0 0 0-177.53300002-77.20799997 429.95700001 429.95700001 0 0 1 41.59000001 93.99999999A718.261 718.261 0 0 1 798.74800001 92.41999999z m-119.60400001 97.57700001a432.91 432.91 0 0 1-24.162 193.95100002 431.751 431.751 0 0 1 352.28399998 16.78199998A506.848 506.848 0 0 0 895.77 179.24499999a635.99000001 635.99000001 0 0 0-216.57999999 10.75200001zM1019.12 494.96999999a356.235 356.235 0 0 0-447.39699999 27.25000002q-13.171 14.76-27.511 28.13500002a356.088 356.088 0 0 0-1.13599997 468.68699994 505.41699999 505.41699999 0 0 0 204.77199996-57.41799997c-72.485-25.433-124.57799998-94.24-124.578-175.44399999a186.014 186.014 0 0 1 355.83800001-75.95900001 506.813 506.813 0 0 0 40.26199999-198.606q0.023-8.38000003-0.25-16.64499999z m-500.61399999-24.98a355.577 355.577 0 0 0 88.48200001-235.234c0-7.94799999-0.28300003-15.895-0.80600002-23.68399999a634.32 634.32 0 0 0-221.677 135.534 187.18399999 187.18399999 0 0 1-19.17699999 18.79000001 634.695 634.695 0 0 0-142.29000001 225.29999999q13.386 1.01 27.034 1.03400004a355.62199999 355.62199999 0 0 0 240.70699999-93.43300003q13.273-14.77200001 27.72700002-28.30600001z m-88.15300001-263.53999999a713.901 713.901 0 0 1 160.649-77.32099999A356.814 356.814 0 0 0 521.447 3.336a535.55500001 535.55500001 0 0 0-10.48000003-0.11400001 506.61999999 506.61999999 0 0 0-206.87199996 43.86099998c68.647 22.95799998 119.513 84.747 126.25799999 159.36700003z" fill="#F2943A" p-id="3500"></path><path d="M544.21199999 550.354q14.34000001-13.37500001 27.51000001-28.135a356.235 356.235 0 0 1 447.353-27.341 509.11799995 509.11799995 0 0 0-11.80899999-94.148 431.751 431.751 0 0 0-352.28400001-16.81599999 432.91 432.91 0 0 0 24.162-193.91700001 635.99000001 635.99000001 0 0 1 216.62499999-10.75200001 511.24200001 511.24200001 0 0 0-96.97599999-86.825 718.261 718.261 0 0 0-135.942 16.75900001 429.95700001 429.95700001 0 0 0-41.58999999-94 509.55 509.55 0 0 0-99.81400001-11.843 356.814 356.814 0 0 1 69.566 125.826 713.901 713.901 0 0 0-160.65000001 77.32199999c-6.75500003-74.61999999-57.61000001-136.409-126.26799998-159.40000001A510.49199997 510.49199997 0 0 0 64.40999999 268.38500001a186.20700001 186.20700001 0 0 0 159.91000002 139.99599999 714.174 714.174 0 0 0-83.13400001 166.33800001 357.26800001 357.26800001 0 0 1-138.27000001-82.885q-0.37499999 9.82100001-0.37499999 19.74499998a512.13899998 512.13899998 0 0 0 6.313 80.31900001 431.60399999 431.60399999 0 0 0 111.72400001 54.27299999 718.965 718.965 0 0 0-18.56400001 162.76000001c0 1.647 0 3.29299999 0.09099999 4.917a511.41199998 511.41199998 0 0 0 90.19700001 93.944 635.19399999 635.19399999 0 0 1 8.97-244.409 432.27400002 432.27400002 0 0 0 206.38400001-26.92 432.19400001 432.19400001 0 0 0 40.23900001 379.65900001 513.45600004 513.45600004 0 0 0 63.072 3.88299999q16.145 0 32.05199999-0.99999999a356.088 356.088 0 0 1 1.13599999-468.68600001zM134.896 223.35600001a110.13500001 110.13500001 0 1 1 208.91599999 48.754 721.16800001 721.16800001 0 0 0-52.00199999 50.958 110.13500001 110.13500001 0 0 1-156.903-99.712z m115.176 368.37299999q-13.625 0-27.034-1.034a634.695 634.695 0 0 1 142.28999997-225.3 187.18399999 187.18399999 0 0 0 19.17700003-18.78999998 634.32 634.32 0 0 1 221.734-135.48899999c0.511 7.834 0.806 15.726 0.80599999 23.68499998a355.577 355.577 0 0 1-88.53999999 235.18899998q-14.453 13.52299999-27.69200001 28.30600001a355.62199999 355.62199999 0 0 1-240.74099999 93.433z" fill="#FED966" p-id="3501"></path><path d="M809.42000002 600.097a186.08300001 186.08300001 0 0 0-186.15000002 186.08199999c0 81.20500004 52.09300002 150.01 124.578 175.444a509.72 509.72 0 0 0 106.09199997-74.66499998 109.99899999 109.99899999 0 1 1 59.59800003-64.71800004 508.006 508.006 0 0 0 65.61600002-111.97499994A185.86699997 185.86699997 0 0 0 809.42000002 600.097z" fill="#FED966" p-id="3502"></path></svg>