<?xml version="1.0" standalone="no"?><!DOCTYPE svg PUBLIC "-//W3C//DTD SVG 1.1//EN" "http://www.w3.org/Graphics/SVG/1.1/DTD/svg11.dtd"><svg t="1547620219666" class="icon" style="" viewBox="0 0 1024 1024" version="1.1" xmlns="http://www.w3.org/2000/svg" p-id="2700" xmlns:xlink="http://www.w3.org/1999/xlink" width="200" height="200"><defs><style type="text/css"></style></defs><path d="M635.61336096 22.13413653c210.14899833 53.16568571 365.87543943 241.94786097 378.31847372 458.31837572 14.83108915 258.3500406-176.84189075 492.50529466-433.68368495 527.25780602-284.55582186 38.58596999-550.13287548-177.15610826-569.86576543-463.72292629-16.46502372-240.18823968 146.237057-463.78576893 379.76387457-522.29315965l-0.12568671 274.50084532c0 31.79886117-1.5710905 47.1327001 32.67867255 47.1327001 17.53336443 0.0628441 35.38094638-1.00549809 52.78862411 0 30.98189534 1.9481521 25.51450214 27.90255844 25.51450066 52.72578001v114.68957072c-10.43203811-21.68104205-50.27487962-12.31734611-69.19080372-12.31734609h-65.98578013c-13.57421765-1.75962129-19.79573404-8.86094762-21.17829228-22.30947855V148.95252258c-140.14122877 64.22615884-232.01857117 208.64075191-232.01857264 362.60757175 0 195.82065749 149.1278631 368.45202802 343.69164909 394.78349595v-209.14350022c0-9.74075751 3.95914682-19.60720325-7.10132632-19.60720324h-52.47440659c-16.46502372 0-47.63544839 6.15867232-51.72028192-16.71639861-2.76511791-12.69440771-0.3142175-27.58834094-0.31421898-40.34559129v-118.14596774c-0.50274831 9.74075751 3.770616 17.15630283 13.38568682 19.67004733 25.26312725 5.84445481 56.87345761 0.69127911 82.76502136 0.62843501 16.71639715-0.12568672 55.3023686-8.16966849 59.70142109 16.08796214 3.45639851 14.57971571 0.43990567 33.05573415 0.43990422 48.01250999v79.12009354c0 8.98663434-1.00549809 7.85544953 5.02748901 10.62056744 4.1476776 1.885308 12.94578113 0.50274831 17.59620705 0.69128058v-100.61260477c0-17.97327013-6.66142211-54.04549562 21.36682452-54.04549564 27.02274854-3.770616 57.31336332 0 84.65032937 0 18.03611274 0 51.53175259 6.09582971 50.21203699-21.49251122 0.18853081 34.94104215 0 69.88208285 0 104.8859691 0.0628441 11.31184801-5.46739321 39.96852969 0.25137343 49.5836005 14.13981003 35.31810375-95.14521009 17.40767774-107.27402542 21.99525955-7.2270145 2.82796201-3.33071031-1.63393311-5.78161073 7.2270145-1.06834071 3.89630272 0 10.24350732 0 14.26549673v207.38388041c194.62663008-26.39431205 343.75449316-199.0256811 343.75449318-394.84634004 0-153.7154464-91.24890739-297.87866459-230.88738784-362.60757175v286.44112837c0 5.40454912-3.51924111 37.20341178 0.12568819 39.90568708 0 10.68341152-5.34170652 20.42417055-16.59071044 22.74938274-27.27412196 5.2788624-60.20416942 0.37706159-88.10672787 0.37706158-16.46502372 0-42.79649168-6.15867232-51.72028338 12.31734613v-100.92682228c0-16.46502372-8.9237917-57.81611163 13.07146931-64.91743944 20.92691885-6.59857803 93.51127698 13.19715602 97.72179869-17.34483362 6.66142211-47.57260581 0.43990567-100.54976068 0.628435-148.56227069l0.56559242-156.85762592z m-159.1199955 298.44425702a21.17829374 21.17829374 0 0 1-19.92142077-17.40767626c-3.51924111-34.50113648-0.2513749-70.88758096-0.25137489-105.57724821V47.58579459c0-5.02748752-1.50824642-35.82085206 1.75962129-35.82085207h108.6565851c3.20502362 0 1.75962129 63.78625462 1.75961982 71.83023494v188.53080037c0 6.97563961 2.63943121 20.80123212 0 27.14843526 0 3.83346009-1.75962129 9.42654002-3.9591468 12.56872101-5.34170652 10.80909971-23.31497517 8.7352609-32.67867108 8.73525945h-55.3652127z" fill="#148F79" p-id="2701"></path></svg>