<?xml version="1.0" standalone="no"?><!DOCTYPE svg PUBLIC "-//W3C//DTD SVG 1.1//EN" "http://www.w3.org/Graphics/SVG/1.1/DTD/svg11.dtd"><svg t="1547620197516" class="icon" style="" viewBox="0 0 1024 1024" version="1.1" xmlns="http://www.w3.org/2000/svg" p-id="1916" xmlns:xlink="http://www.w3.org/1999/xlink" width="200" height="200"><defs><style type="text/css"></style></defs><path d="M644.106875 403.09531251c14.566875-0.4190625 29.1553125-0.13312499 43.7353125-0.13500001 10.9509375-0.001875 11.84999999-0.86625001 10.3078125-11.521875-0.22875001-1.56656251-2.46468751-4.05656249-3.80437499-4.07343751-19.07343755-0.26156254-38.15062501-0.1828125-58.16437502-0.18281249 0 3.44718756 0.2690625 5.7421875-0.05062499 7.95468749-0.93374999 6.40124999 1.7784375 8.1403125 7.981875 7.96125001z" fill="#FF6100" p-id="1917"></path><path d="M691.235 421.3690625c-13.8759375 0.47718749-27.78093748 0.1415625-41.67468751 0.1415625-14.5303125 0-14.5303125 0-12.75843749 15.8615625 18.49406252 0 36.6665625-0.28406249 54.8203125 0.148125 6.4640625 0.15374998 6.8090625-2.8940625 6.83343749-7.86187501 0.0253125-5.25656251-0.49218751-8.525625-7.22156249-8.29312499z" fill="#FF6100" p-id="1918"></path><path d="M627.66593747 619.86031251c7.31906253 1.84874997 15.73499999 0.15937501 23.52468753-0.97031249 4.84125001-0.703125 7.6509375-4.580625 7.60687498-9.87656251-0.04406251-5.32125001-2.89218752-8.58093749-7.86468749-9.64125001-4.39124999-0.9346875-8.9221875-1.21031249-13.39125002-1.78125001-0.01875001 0.18000001-0.0421875 0.358125-0.06093747 0.53906251-2.953125 0-5.9015625 0.07593749-8.85093751-0.01687499-4.2628125-0.13312499-5.235 2.746875-4.46718749 5.81906249 1.35468751 5.4346875-4.40906247 13.92656251 3.5015625 15.92625z" fill="#FF6100" p-id="1919"></path><path d="M710.58031251 633.49531254c10.0659375 0 18.8578125 0 28.50187502 0-4.7746875-10.910625-9.1040625-20.8040625-14.27156253-32.61375004-5.17124999 11.85375001-9.54562501 21.87937499-14.2284375 32.61375004z" fill="#FF6100" p-id="1920"></path><path d="M655.52 632.1096875c-5.025-1.09406253-10.24687501-1.29656251-15.38531252-1.88812499-0.01875001 0.18000001-0.039375 0.35718751-0.05812498 0.53531251-3.628125 0-7.2590625 0.0984375-10.8815625-0.02906252-3.20625001-0.11531251-5.746875 0.79031251-5.03343753 4.44375001 1.1709375 6.00468752-4.0846875 15.489375 3.1415625 17.42812499 8.724375 2.33812501 18.8090625 0.33374996 28.19343754-0.75375 4.8515625-0.560625 7.52343754-4.5253125 7.56093747-9.85874999 0.039375-5.36906247-2.5978125-8.803125-7.53374996-9.8765625z" fill="#FF6100" p-id="1921"></path><path d="M425.03468751 445.92125001c-19.33406247 0.20343747-38.6784375 0.08624999-58.01906252 0.08624998-4.03124999 0-8.0634375 0-11.9353125 0-3.01125003 17.5415625-1.5909375 20.43093753 13.0546875 27.5634375 25.0978125 12.2334375 24.93187502 11.88843751 51.27843751-0.97124999 9.24281252-4.509375 12.45281249-10.84875001 12.05531247-20.52093748-0.195-4.785-1.7615625-6.21375003-6.43874998-6.16406253z" fill="#FF6100" p-id="1922"></path><path d="M512 33.03500001c-264.5240625 0-478.96499999 214.43812499-478.96499999 478.96499999s214.43812499 478.96499999 478.96499999 478.96499999 478.96499999-214.43812499 478.96499999-478.96499999-214.43812499-478.96499999-478.96499999-478.96499999zM846.6621875 367.45999999c14.810625-0.1415625 29.623125-0.0328125 44.43187499-0.03281249 16.861875 0 33.72843748 0.18000001 50.58656251-0.10125 5.74125001-0.09562498 8.26781251 1.4653125 8.12343749 7.6659375-0.4471875 19.10343751 1.996875 16.209375-16.423125 16.28531251-30.99093748 0.12937499-61.981875-0.15374998-92.9671875 0.18-6.793125 0.07124999-8.6728125-2.3521875-8.61281248-8.70468751 0.18000001-18.40875004-0.15843751-15.148125 14.86218748-15.29437499zM750.4653125 407.21843751c9.6928125-12.1003125 19.51687502-24.095625 29.1346875-36.25312501 2.74874999-3.47156249 5.690625-5.3353125 10.38374998-5.09062498 7.67906249 0.4021875 15.39468751 0.1096875 23.09718752 0.10968748 0.3609375 0.601875 0.72281251 1.2046875 1.0846875 1.8046875-5.806875 7.23656251-11.62031252 14.46468748-17.41499999 21.703125-1.9959375 2.491875-4.48124998 4.7503125-5.86125001 7.54874998-9.2915625 18.84937499-25.644375 17.7290625-43.5853125 15.26531253 1.2046875-1.96124999 2.01374999-3.65906251 3.16125-5.08875002zM539.001875 368.38343753c0.64968748-1.141875 2.51343753-2.20874998 3.84093751-2.24343755 8.09062499-0.20343747 16.18874999-0.103125 25.55531249-0.10312498-2.5209375 5.175-4.2703125 8.7646875-6.66187498 13.670625 10.62000001 0 20.05875001 0.3234375 29.46656247-0.1115625 6.3721875-0.29531251 8.83499999 2.0859375 8.10468751 8.29125-0.23624999 2.0184375-0.16687499 4.09874999-0.0159375 6.1321875 0.380625 5.045625-2.03812499 6.916875-6.8934375 6.87093749-12.50531252-0.12281249-25.01718751 0.0496875-37.5215625-0.09562499-3.69375003-0.0421875-6.03656249 0.96468749-8.443125 4.16625-1.955625 2.60625001-5.85562499 4.7728125-9.12656251 5.1646875-6.615 0.78843748-13.38656246 0.2353125-21.81937499 0.2353125 8.46562501-15.189375 15.8990625-28.63687502 23.50968749-41.98125zM134.21 639.1878125c-9.56156251 0.20343747-19.1371875 0.17437502-28.7015625 0.0646875-3.97875001-0.04687501-5.95875001 1.325625-5.69999999 5.5584375 0.20625002 3.403125-0.35625001 6.88874998 0.10874998 10.2365625 0.9815625 7.09500001-1.929375 8.9484375-8.76656249 8.7365625-5.86125001-0.1809375-7.35468751-2.18718751-7.17000001-7.659375 0.35156249-10.46718748 0.103125-20.95687497 0.10312502-31.43531251 0.0009375-10.70718748 0.12937499-21.4171875-0.06468751-32.12062498-0.07593749-4.14374999 0.830625-6.31500001 5.60718751-6.24187502 14.80406251 0.2221875 29.6259375-0.21187502 44.42062499 0.19218751 16.275 0.4434375 25.86281251 11.2490625 25.73062496 28.12406248-0.1190625 15.49875001-9.0721875 24.19312499-25.57218746 24.5465625zM187.64093748 625.13843749c-0.0009375 10.910625-0.1865625 21.825 0.07968751 32.72625001 0.12937499 5.2490625-2.52468749 6.03375001-6.79031249 5.72062502-3.90281249-0.29437498-8.5453125 1.2628125-8.506875-5.47593751 0.11718753-22.04531251 0.14812498-44.090625-0.046875-66.13781254-0.0646875-7.3828125 5.060625-5.13843751 8.96625001-5.59406247 4.64624997-0.54375001 6.496875 1.17937499 6.37781248 6.0365625-0.2671875 10.90125001-0.080625 21.81374999-0.08062499 32.72625zM184.5415625 496.6746875c0 10.183125-0.1415625 19.2684375 0.05343753 28.33968751 0.11531251 5.311875-2.1665625 7.43437498-7.37906254 7.24593747-5.690625-0.2071875-11.40281249-0.20343747-17.09437499-0.0009375-4.7296875 0.16968749-6.5765625-1.9003125-6.485625-6.51843748 0.14812498-7.51968751-0.2221875-15.0571875 0.1115625-22.56656249 0.230625-5.11312501-1.6003125-6.658125-6.67593751-6.60843751-23.47875001 0.22875001-46.9640625 0.11156249-70.44468749 0.09468751-8.57718749-0.005625-8.8584375-0.354375-8.9540625-8.89406249-0.1753125-15.1565625 0.04406251-13.63875001 13.85625001-13.62468753 21.42937495 0.02062503 42.86437499-0.24375001 64.28531251 0.15656251 6.5053125 0.1209375 8.0521875-2.10937499 7.97343745-8.20406252-0.298125-22.79625001-0.31124999-45.5953125 0.00562503-68.39062497 0.0853125-6.11906251-1.96781251-7.783125-7.87218748-7.69687502-20.97093753 0.3028125-41.95031249-0.07124999-62.92125002 0.23062501-6.38343751 0.0946875-8.9390625-1.6546875-8.73374998-8.45437501 0.39281251-12.9984375 0.04406251-13.0078125 12.97781245-13.00499999 55.40062499 0.0009375 110.795625-0.0009375 166.19625 0.0028125 9.48843754 0.0009375 9.6065625 0.1246875 9.66656255 9.391875 0.0065625 1.36687501-0.11718753 2.746875 0.01593749 4.100625 0.57656251 5.80218751-1.6996875 8.04468749-7.7896875 7.963125-20.97093753-0.3028125-41.95031249 0.1078125-62.92125001-0.24375001-6.24375001-0.103125-8.1346875 1.666875-8.02781253 8.02500002 0.3853125 22.79062501 0.14812498 45.5953125 0.14812503 68.39062504 0 2.22937499 0 4.453125 0 7.32468746 3.099375 0.16406251 5.52281249 0.39281251 7.9434375 0.39374999 23.2509375 0.02906247 46.51124999 0.22125001 69.7565625-0.105 6.6496875-0.0946875 8.7909375 2.12624999 8.64468753 8.69906249-0.3065625 13.9434375-0.0253125 13.948125-14.25656253 13.94625001-21.2015625-0.001875-42.4040625 0-63.60656249 0.00093749-2.46468751 0-4.93312501 0-8.49375001 0zM84.40718751 405.75875001c9.7753125 0 19.15406249-0.135 28.52062499 0.15375 1.34624999 0.0421875 3.10312501 1.905 3.86343748 3.35062499 7.9246875 15.09656246 15.695625 30.26343749 23.45062502 45.45 0.4734375 0.9253125 0.3815625 2.1365625 0.67875 3.97312499-9.755625 0-19.126875 0.1415625-28.4840625-0.16406249-1.305-0.04406251-2.9671875-2.07562503-3.7434375-3.5615625-7.87781249-15.1153125-15.613125-30.30562501-23.35312501-45.4921875-0.388125-0.7715625-0.44437499-1.71562501-0.93374998-3.7059375zM253.623125 405.5534375c-1.02562499 2.91281251-1.51781251 5.02781249-2.473125 6.91687501-6.84843753 13.58812502-13.91906251 27.0684375-20.623125 40.72499999-2.205 4.48875001-5.3353125 6.41624997-10.18124999 6.3478125-7.78968749-0.1078125-15.5840625-0.02906247-25.029375-0.02906251 9.4996875-18.3365625 17.8734375-34.665 26.4984375-50.86124999 0.7846875-1.4746875 3.1565625-2.90531252 4.84406248-2.9596875 8.5959375-0.298125 17.20499999-0.135 26.96625001-0.13500001zM283.0353125 654.09124999c-0.02906247 3.09281251-0.9253125 8.5453125-2.27625 8.82843751-4.8478125 1.01343751-10.434375 2.33812501-14.61656252-2.44593751-5.548125-6.343125-11.15156249-12.64406249-16.73999998-18.95062498-9.77437499-11.04-19.55718752-22.074375-29.338125-33.10593751-0.71062501 0.24375001-1.42124999 0.4903125-2.13375001 0.73312502 0 8.7965625 0.005625 17.593125-0.00187501 26.39062498-0.0065625 7.74656251-0.11531251 15.49499999-0.016875 23.24156251 0.0609375 4.67718749-2.836875 5.1028125-6.34593745 4.78406246-3.099375-0.28406249-7.43437498 1.42124999-7.42125003-4.25531249 0.04125001-23.4646875 0.09562498-46.933125 0.18562501-70.39781248 0.001875-0.6140625 0.4734375-1.2253125 0.69843748-1.78125 8.619375-2.27625001 14.986875-0.15937501 20.88656251 7.00781251 13.1578125 15.9703125 27.22312499 31.19718749 42.34312498 48.343125 0.2765625-4.0134375 0.53156251-6.07031252 0.53531251-8.12343752 0.0365625-13.90031251 0.32624999-27.80812499-0.11531249-41.69437497-0.19874998-6.2953125 3.0853125-6.2390625 7.6096875-6.36187502 4.685625-0.1265625 7.03781251 0.7453125 6.9590625 6.275625-0.2915625 20.5021875-0.01875001 41.01375001-0.219375 61.52062499zM374.495 648.3359375c-2.29875001 9.3590625-10.30125001 14.65593751-19.858125 15.23625-12.02624999 0.73031249-24.1696875 0.74624999-36.19593749 0.0159375-12.11343753-0.7378125-20.8696875-10.59562501-21.14906251-22.693125-0.2503125-10.71000003-0.21656249-21.43125002 0.005625-32.1384375 0.23624999-11.383125 7.92375001-21.2446875 19.216875-22.18125 13.299375-1.104375 26.84156249-1.19062499 40.1259375 0.00093749 12.24375003 1.1034375 20.308125 12.564375 18.83625 25.0828125-3.181875 0-6.511875-0.1471875-9.82312496 0.03937501-3.8503125 0.21468752-5.66624999-1.42781249-5.09062503-5.2153125 0.97875001-6.4584375-2.3353125-7.5740625-7.91062498-7.41656251-11.39062498 0.32624999-22.79906252 0.2503125-34.18875003 0.02531249-4.453125-0.09-6.2015625 1.68281251-6.18562499 5.94937501 0.050625 13.220625 0.05437502 26.4384375-0.00656252 39.66375-0.02062503 4.21312499 1.55531251 6.1509375 6.0834375 6.07406252 12.076875-0.20812498 24.163125-0.1921875 36.24562502-0.00281252 4.3884375 0.0665625 6.4546875-1.45031251 5.93437499-5.93437499-0.0271875-0.2278125 0.0009375-0.4546875-0.00093749-0.6815625-0.15656247-13.60125002 1.46812501-11.63156247-11.4421875-11.83875-1.36687501-0.02062503-2.735625 0.0009375-4.10343751-0.001875-9.706875-0.0215625-10.1615625-0.63000001-7.963125-11.473125 12.849375 0 25.36312498 0 39.616875 0-0.60937499 9.31875004 0.0065625 18.7453125-2.14125 27.49125zM454.2621875 660.2834375c-0.0609375 1.18687501-2.015625 2.31562501-3.181875 3.37312497-0.25687499 0.230625-0.8784375 0.04687501-1.33406251 0.08062503-18.79312499 1.3865625-20.6878125-0.92718751-17.59968749-22.8421875 2.55281248 0 4.7878125 0 7.0153125 0 4.73999999 0 9.474375 0 15.2503125 0 0 6.855 0.16875001 13.130625-0.148125 19.3846875zM469.86874999 656.0009375c-8.69718749-17.2584375-17.36625001-34.52437499-26.69906249-53.08312503-1.75406251 3.05624999-3.01125003 5.01281251-4.051875 7.07531253-7.580625 15.04499999-15.1153125 30.1153125-22.67156251 45.17156251-4.72312502 9.41718749-7.775625 10.59562501-18.87562499 6.97874999 0.43874998-1.40437499 0.6928125-2.91281251 1.3528125-4.216875 11.20874998-22.1484375 22.5665625-44.22562498 33.6290625-66.4471875 2.0896875-4.19718747 4.92093749-5.4946875 9.24468751-5.14875 4.1540625 0.33374996 8.46281253-0.99375002 11.08968749 4.2946875 11.34843751 22.84218751 23.0146875 45.5240625 34.52812499 68.281875 0.47718749 0.94125001 0.601875 2.0634375 0.88125003 3.0646875-9.8521875 3.8503125-14.2134375 2.39999999-18.43031254-5.97375001zM479.67593751 446.00937499c-6.57093749 0.0065625-13.1428125 0.0009375-20.18812501 0.00093751-1.6059375 11.7759375 1.73999999 24.92156249-9.21093748 32.78625-9.3178125 6.691875-19.73437501 11.85562505-30.11812501 17.95874999 10.33874999 5.46093749 21.16124999 8.4178125 32.65593749 8.68312501 10.0246875 0.22875001 20.0634375 0.22875001 30.09093749 0.00093752 4.81218749-0.1096875 7.123125 1.29093749 7.06125001 6.52687497-0.219375 17.68406251 1.239375 14.92218749-14.26593751 14.87343751-17.45625001-0.0571875-35.16843749 1.92281251-51.9496875-5.1271875-8.17875001-3.435-16.483125-6.6103125-24.48374999-10.4334375-4.7315625-2.2603125-8.600625-2.03624999-13.509375-0.08531251-13.674375 5.43656249-27.36281251 11.89499999-41.67093749 14.42906253-14.61000001 2.58468754-29.95874999 1.0809375-44.9859375 1.05187498-1.39031251-0.00281248-3.81468747-2.1834375-3.96937501-3.56062498-0.515625-4.50281249-0.830625-9.2259375 0.10499999-13.58156252 0.369375-1.7240625 4.16156247-3.71624999 6.49125003-3.85031251 13.40156249-0.76406252 26.8959375-0.3609375 40.22906247-1.67062499 7.72125002-0.7565625 15.19406249-3.9928125 22.78218751-6.10874999-0.0065625-0.71437499-0.01781248-1.42968749-0.0290625-2.14312502-6.47812499-3.21937501-12.9103125-6.52968751-19.441875-9.63562499-13.35093748-6.3459375-20.360625-16.6134375-19.00593749-31.58906251 0.63843749-7.055625-1.86000001-9.2446875-8.76656251-8.65218752-7.01531252 0.601875-14.12999998-0.0365625-21.18937504 0.18281252-5.071875 0.15843751-6.78000001-2.2190625-6.97312496-6.98156248-0.5990625-14.8603125-0.6984375-14.851875 14.09812501-14.84156251 5.69812498 0.00281248 11.4009375-0.103125 17.09999999-0.00374997 3.94218751 0.069375 6.005625-1.38937502 5.65124999-5.62031252-0.1865625-2.263125 0.09562498-4.56374998-0.03656248-6.83343752-0.2503125-4.19906249 2.05874998-5.74125001 5.81156248-5.79187499 4.558125-0.0609375 9.13125002 0.1921875 13.67437501-0.0796875 6.07031252-0.361875 9.0384375 2.0090625 8.589375 8.30531251-0.20625002 2.91281251-0.0346875 5.85374999-0.0346875 9.40968748 2.9596875 0.2353125 5.38218749 0.58781249 7.7990625 0.58781252 20.29125002 0.039375 40.5853125-0.1865625 60.8671875 0.13125002 6.38343751 0.1021875 8.95312502-1.60874998 8.64000007-8.40937504-0.4546875-9.87468749 0.0159375-9.9403125 9.75937494-9.96375 1.14093749-0.00281248 2.2790625 0 3.41999999 0 13.10718749 0 13.2609375-0.0065625 14.21999998 13.239375 0.28781251 3.97499999 2.05874998 5.0465625 5.57906253 5.01281253 7.2946875-0.0665625 14.589375 0.18000001 21.87937503-0.0178125 5.338125-0.1415625 7.83843749 1.46156247 7.69031247 7.43437498-0.3965625 15.88968749 1.2703125 14.35312499-14.36343751 14.37281251zM492.39031251 403.79843748c-0.73031249 1.2628125-2.79375001 2.12906251-4.38093751 2.42906252-2.20124999 0.41625001-4.539375 0.13312499-6.81562499 0.12937502-9.4621875-0.001875-9.66187501 0.0065625-10.23656249-9.42187502-0.25874999-4.21312499-2.0896875-5.40656251-5.98124999-5.40375001-48.298125 0.06187499-96.5990625 0.07593749-144.89906251-0.02906251-4.49437499-0.0065625-6.245625 1.6378125-5.74687504 6.03562502 0.7790625 6.855-2.3184375 9.1528125-9.16125001 8.95968749-13.68562499-0.388125-13.69499999-0.0665625-13.45593748-13.26843749 0.245625-13.63687498 6.82312499-20.6409375 20.52375001-20.8584375 18.67687502-0.29531251 37.3621875-0.07593749 56.04375-0.1265625 2.66343749-0.005625 5.326875-0.28781251 7.843125-0.433125 2.0596875-12.54656253 2.0596875-12.54656253 14.84156251-12.54656249 2.506875 0 5.0334375 0.21468752 7.51312499-0.04125 6.4584375-0.661875 10.12500001 1.2215625 9.285 8.600625-0.57656251 5.09062499 3.5259375 4.3884375 6.56531249 4.3978125 18.45468751 0.07124999 36.90562501-0.016875 55.36125001 0.10968748 3.8296875 0.0271875 7.8834375 0.08624999 11.454375 1.26656251 9.916875 3.2690625 16.468125 21.1246875 11.2434375 30.19593751zM576.63124998 653.97968749c-0.0346875 3.12-1.546875 8.93343751-2.18718749 8.9015625-4.9340625-0.19874998-11.165625 0.0065625-14.45437498-2.83687499-7.51875001-6.5128125-13.6003125-14.685-20.24156251-22.201875-7.24875001-8.199375-14.51624999-16.38374997-21.675-24.65999999-1.460625-1.68656251-2.47874999-3.7621875-3.7021875-5.65687501-0.898125 0.54562501-1.79156251 1.0903125-2.6915625 1.6359375 0 15.455625 0.0159375 30.90281249-0.00375 46.359375-0.005625 7.43812499-4.966875 10.83374998-11.7796875 7.69781249-1.31624999-0.6046875-2.4140625-3.19875001-2.42531247-4.8853125-0.15843751-22.34531247-0.0646875-44.6934375-0.14156256-67.0415625-0.0159375-3.436875 1.198125-4.75124998 4.74656253-4.98468749 6.511875-0.42937501 11.53406252 0.88875001 16.1034375 6.388125 12.23906251 14.7234375 25.2103125 28.8346875 37.84312501 43.228125 1.479375 1.68656251 2.6728125 3.62156249 3.9984375 5.446875 0.7321875-0.30468749 1.46812501-0.60937499 2.20124999-0.91499999 0.1753125-2.26781251 0.49312498-4.539375 0.49874999-6.80531251 0.0496875-12.9984375 0.1078125-25.99687503-0.01593749-38.9953125-0.04687501-4.87031255-0.28406249-8.5959375 6.853125-8.518125 6.703125 0.07124999 7.28718751 3.08718749 7.24593749 8.326875-0.15937501 19.8346875 0.0346875 39.67781252-0.17156249 59.51437498zM599.2765625 428.9478125c0.0159375 10.605 0.0159375 10.605-10.41375001 10.62656251-4.55531252 0.0159375-9.1621875-0.3609375-13.63874999 0.22781249-1.7240625 0.2278125-4.3059375 2.4796875-4.513125 4.06875004-0.6046875 4.66125002-0.21656249 9.455625-0.21656251 15.26906247 7.8834375 0 14.68874998 0.1865625 21.47531251-0.06093751 5.1534375-0.1903125 7.3528125 1.57781251 7.40156251 7.04624999 0.1246875 14.09812499 0.32906247 14.09812499-14.02312501 14.09812501-4.539375 0-9.0815625 0-14.24625001 0 0 10.700625 0 21.0065625 0 32.42343751 5.30531248 0 10.674375 0.15656247 16.03218751-0.03656253 8.2171875-0.28781251 6.5053125 5.5865625 6.7884375 10.40343757 0.28593749 4.88625001-0.275625 8.4609375-6.7171875 8.18906246-9.09375001-0.3853125-18.22218751 0.050625-27.3271875-0.17437502-8.6446875-0.21656249-14.495625-6.07499998-14.683125-14.70093747-0.21468752-9.7903125-0.354375-19.6021875 0.03281249-29.37937502 0.21656249-5.5528125-1.8534375-7.28625001-7.10999999-6.79687501-3.83812501 0.358125-7.92375001 0.76124999-11.54531251-0.19781251-2.30624999-0.60937499-4.02000001-3.6196875-5.86499999-5.67093749-0.345-0.3796875-0.050625-1.32374998-0.06468751-2.00718749-0.24281249-13.14000001-0.24281249-13.14000001 12.86062501-13.14093753 11.235-0.0009375 14.8846875-5.11781249 11.311875-16.42874996-0.42937501-1.35937499-2.81812498-2.80875001-4.40906249-2.94562501-4.7503125-0.41625001-9.5540625-0.24281249-14.33812501-0.22218751-3.65437499 0.0159375-5.4290625-1.67062501-5.42812501-5.38218749 0.00375001-16.57875001-1.344375-15.14343749 13.52718751-15.1565625 18.90843748-0.0159375 37.815 0.195 56.716875-0.12656251 6.59343753-0.11531251 9.3459375 2.1834375 8.40281251 8.71499999-0.0646875 0.4434375-0.005625 0.909375-0.00468751 1.36406251zM612.01437499 382.65781251c0.0271875-8.97187502 6.0440625-15.061875 15.0628125-15.13406252 26.8865625-0.21656249 53.7815625-0.21187502 80.67375001-0.0028125 8.9221875 0.0665625 14.75624999 6.29062501 14.829375 15.34218752 0.15093753 19.370625 0.16125002 38.74499999 0.00656251 58.11187501-0.07968751 10.063125-6.1453125 15.8990625-16.43062502 15.95437498-20.2809375 0.11531251-40.565625 0.0365625-60.84656251 0.03937498-2.6915625 0-5.38218749 0-8.59124998 0 0 18.56156251 0 36.4453125 0 55.66406252 5.953125 0 11.5978125 0.2015625 17.22-0.0496875 7.4165625-0.32906247 7.0134375 4.55718751 6.9946875 9.58125-0.01781248 4.74093753 0.53156251 9.29718751-6.6496875 9.0234375-9.10125001-0.346875-18.23343749 0.0571875-27.3459375-0.15375001-9.3290625-0.21656249-14.89874999-5.6353125-14.92875002-15.05718749-0.13312499-44.44125001-0.135-88.87874999 0.00187502-133.31343749zM667.62125001 658.7946875c-3.70312498 2.385-8.319375 4.3696875-12.62812502 4.61156251-12.04687499 0.684375-24.1471875 0.4265625-36.22593749 0.40687496-4.4409375-0.005625-6.58781251-2.50218748-6.58312503-6.94687495 0.016875-20.7459375 0.0065625-41.48531251 0.00656252-62.23312502 0.0009375-4.8234375 2.5190625-7.04624998 7.24874998-7.0284375 9.79874998 0.0365625 19.606875-0.10875001 29.40281252 0.10875 9.1940625 0.2015625 17.21437499 3.17531249 21.1959375 12.19218751 3.65437499 8.27156247 1.05937499 14.92875001-7.97531249 23.07281249-0.275625 0.245625-0.275625 0.795-0.54562503 1.66968752 1.635 0.93187501 3.36 1.88343749 5.05687503 2.87999997 11.870625 6.9665625 12.601875 23.81437499 1.0359375 31.26281251zM671.721875 504.80281248c-7.1728125-12.3084375-14.3259375-24.63374999-22.5121875-38.713125 9.60374999 0 17.056875-0.2596875 24.466875 0.19031252 1.77 0.1078125 3.76499999 2.31093756 5.01656251 4.02000001 2.5209375 3.4453125 4.60125001 7.2121875 7.033125 11.12531249 5.67937499-5.3353125 10.2253125-12.24656252 16.52812494-14.77687499 6.21281249-2.49375003 14.2059375-0.54375001 23.12718756-0.54375002-2.05312499 3.001875-3.0759375 4.84125001-4.42312497 6.4096875-6.5184375 7.60124999-13.29281251 14.9878125-19.57312504 22.77375001-1.68 2.0821875-3.3871875 5.92312501-2.5528125 7.88531249 1.8384375 4.33593749 3.8465625 9.5690625 10.31062499 9.36937501 3.6365625-0.11156249 7.28625001-0.04687501 10.91906251 0.10781251 7.31156249 0.3065625 6.178125 5.76374999 6.3103125 10.48031249 0.1265625 4.5346875-0.44437499 8.40937497-6.4359375 7.96687499-0.45375001-0.0346875-0.91031251 0-1.36406248 0.00656251-30.84375001 0.63843749-31.2853125 0.399375-46.85156252-26.2996875zM758.67781251 663.83093753c-2.31937499 0.478125-5.3596875-2.45531251-8.03812501-3.91500005-0.3178125-0.17437502-0.478125-0.7790625-0.5596875-1.21593749-2.34843749-12.616875-10.72687499-14.96343747-21.96843749-13.5384375-5.8265625 0.7378125-11.87625001-0.3234375-17.70843751 0.37687498-2.499375 0.3028125-5.3240625 2.56687503-6.90093751 4.74000004-2.0859375 2.87718749-2.51062501 7.029375-4.75874999 9.70312499-1.760625 2.09343751-5.52 4.24218749-7.8384375 3.75281249-4.171875-0.8859375-4.0303125-4.8140625-2.4553125-8.34843748 6.2915625-14.10468749 12.5896875-28.21406252 18.89531253-42.31125001 3.06093751-6.84375001 5.83781251-13.8403125 9.36187497-20.4421875 1.5290625-2.865 4.6115625-4.8965625 8.0596875-8.4 3.53437499 3.29343751 6.9834375 5.12343753 8.2978125 7.9434375 9.675 20.8040625 18.9646875 41.79374998 28.2703125 62.77124999 1.584375 3.5765625 2.0184375 7.9209375-2.655 8.88187501zM769.49093751 523.9840625c0.2409375-16.6303125-0.16687499-33.2746875 0.21937499-49.8984375 0.13781249-5.96343746-1.4690625-8.319375-7.61906252-7.65093748-4.60874998 0.49593749-9.3065625 0.0984375-15.48374998 0.09843748 1.951875-3.1209375 2.72343751-4.67343751 3.78187501-5.9934375 9.8296875-12.268125 19.5384375-24.64124999 29.72062499-36.60843752 2.03156253-2.38874999 5.863125-4.24218749 9.015-4.49437499 7.89843751-0.63374999 15.8859375-0.20812498 26.20968752-0.20812501-10.2871875 13.05562501-19.425 24.65999999-29.45437502 37.38656252 3.1903125 0.4321875 4.70437503 0.6665625 6.223125 0.83343747 1.5721875 0.1715625 3.15 0.279375 5.32687501 0.46312504 0.22875001 2.0259375 0.6346875 3.99093748 0.63937499 5.95593749 0.0478125 19.82437498-0.12937499 39.65156249 0.12937501 59.475 0.07593749 5.91093753-1.87874999 8.364375-7.90687501 7.8571875-4.5253125-0.3815625-9.12281252-0.298125-13.66499999-0.0253125-5.338125 0.324375-7.216875-1.8365625-7.14281251-7.18031251zM845.34687499 655.293125c-0.1471875 3.01500002-2.323125 7.71562501-4.52906249 8.36062499-2.45812499 0.7209375-7.01906251-1.486875-8.919375-3.8296875-11.75625001-14.52281254-23.0146875-29.4496875-34.453125-44.22562499-1.486875-1.9190625-3.09281251-3.76124999-5.8021875-7.0378125-0.36843749 3.59062503-0.7096875 5.45437499-0.71437498 7.31625-0.0496875 13.4503125-0.12937499 26.9015625 0.02156248 40.35187499 0.050625 4.49343756-1.305 8.240625-5.97843751 8.28468752-4.7803125 0.045-5.99343749-3.8296875-5.97374999-8.25468753 0.0946875-19.8328125 0.0253125-39.66562501 0.04406251-59.50031248 0.00281248-3.61125001-0.594375-8.44687501 4.12312499-8.77031251 3.474375-0.23718749 8.415 1.2703125 10.50656251 3.80718752 11.4421875 13.8871875 22.19437501 28.3453125 33.20906247 42.58687496 1.486875 1.92468751 3.10312501 3.75281251 4.65843752 5.62031253 0.6721875-0.19874998 1.344375-0.41062501 2.01656249-0.613125 0-3.781875-0.0009375-7.56843751 0-11.34843751 0.001875-10.715625-0.00281248-21.42937495 0.00656251-32.14406248 0.005625-4.3528125 0.39281251-8.7309375 6.25406251-8.46562502 5.20593749 0.230625 5.77874999 4.1709375 5.74874998 8.37468752-0.0609375 8.8903125-0.0065625 17.78343749-0.0065625 26.67281248-0.0009375 10.94437499 0.3234375 21.90187497-0.21468752 32.81812501zM927.021875 663.12875001c-2.63812502 3.3290625-6.26531248 1.46812501-8.6390625-1.48312501-6.42000001-7.978125-12.68812502-16.08-19.03125001-24.12187501-1.95281249-2.4796875-3.96281251-4.92093749-6.36093749-7.89187501-7.33312501 6.26531248-15.43781249 11.0334375-13.52156249 22.6340625 0.830625 5.0165625 1.00874998 12.020625-6.21281252 12.10781255-7.3490625 0.080625-6.4134375-6.76125001-6.41624999-11.96625001-0.005625-18.6684375 0.0346875-37.33968752-0.0253125-56.00718753-0.0159375-4.76531248 0.733125-9.11624999 6.6384375-8.979375 5.53687498 0.12937499 6.10875001 4.60500001 6.1453125 8.88656251 0.080625 9.495 0.0253125 18.99375002 0.02531249 29.9990625 2.6128125-2.1665625 4.1709375-3.2690625 5.50593751-4.5965625 9.67312501-9.6459375 19.3003125-19.33406247 28.94156252-29.0128125 0.96468749-0.96656251 1.80468751-2.555625 2.92124998-2.77781251 3.181875-0.63937499 6.4753125-0.72562499 9.7209375-1.02937499-0.46968751 3.05906252 0.080625 6.9646875-1.606875 9.0121875-4.31718751 5.235-9.613125 9.66375001-14.56687498 14.36625001-2.8003125 2.656875-5.69812498 5.2021875-9.26062502 8.44312501 8.11125002 10.1090625 15.49875001 19.314375 22.87968751 28.52812498 1.27875001 1.59843749 3.30843749 3.12 3.57375 4.891875 0.4434375 2.97656249 0.8671875 7.006875-0.71062501 8.99718751zM941.53999999 444.63124999c-3.5878125 0.0009375-7.1728125 0-11.43656249 0 0 21.20624999 0.0215625 41.65500001-0.01968751 62.10843751-0.0065625 3.6365625-0.0065625 7.31156249-0.51281249 10.90031251-1.228125 8.81437502-6.24937501 13.340625-15.1490625 13.40718749-18.91124999 0.14437501-37.8328125-0.0665625-56.74312499 0.14437497-5.07281247 0.0571875-6.7884375-2.0128125-7.03781251-6.80156247-0.73875003-14.24906247-0.4546875-14.67937502 13.45406251-14.68499999 10.25437499-0.001875 20.51156251-0.15656247 30.76218751 0.06093749 4.42124999 0.0946875 6.04218749-1.4896875 6.00468748-5.93437501-0.15937501-17.7740625-0.2071875-35.551875 0.0159375-53.32312499 0.06187499-5.06718749-2.16-5.983125-6.58218749-5.94562501-20.2790625 0.16406251-40.56656255-0.1265625-60.841875 0.18562501-6.62531252 0.103125-8.87062499-2.42062501-8.84718751-8.79937501 0.06187499-18.2878125 0.13781249-15.1584375 15.0253125-15.20062499 35.7778125-0.1021875 71.55843748-0.039375 107.33437499-0.02531249 9.24656249 0.00281248 9.34218751 0.1265625 9.37968751 9.06656249 0.0646875 14.8378125 0.0646875 14.8378125-14.806875 14.84343751z" fill="#FF6100" p-id="1923"></path><path d="M137.1415625 599.21281249c-5.22562502 0.1809375-10.46343749 0.04687501-15.69374997 0.04687503-0.0065625-0.1753125-0.0253125-0.3534375-0.03656251-0.5315625-6.93281252 0.5390625-16.558125-1.4353125-20.05124998 2.31374998-3.60656247 3.8653125-1.25531251 13.2946875-1.50937504 20.2903125-0.0065625 0.22875001 0.01968749 0.4546875 0.0028125 0.68156249-0.3178125 3.82125001 1.535625 5.26875001 5.2490625 5.23500003 10.68843751-0.0984375 21.3815625-0.07124999 32.0709375-0.02718752 3.8521875 0.0065625 5.9296875-1.3734375 5.77875-5.61843749-0.19874998-5.67937499-0.2221875-11.37937503 0.00375-17.05687502 0.17437502-4.35656251-1.9434375-5.46281251-5.81812497-5.32874998z" fill="#FF6100" p-id="1924"></path></svg>