<?xml version="1.0" standalone="no"?><!DOCTYPE svg PUBLIC "-//W3C//DTD SVG 1.1//EN" "http://www.w3.org/Graphics/SVG/1.1/DTD/svg11.dtd"><svg t="1547622553363" class="icon" style="" viewBox="0 0 2560 1024" version="1.1" xmlns="http://www.w3.org/2000/svg" p-id="17741" xmlns:xlink="http://www.w3.org/1999/xlink" width="500" height="200"><defs><style type="text/css"></style></defs><path d="M967.03360001 581.38624c0 21.21728-17.2032 38.42048-38.42048 38.42048H93.68448002c-21.21728 0-38.42048-17.2032-38.42048001-38.42048v-262.06208c0-21.21728 17.2032-38.42048 38.42048001-38.42047999h834.92863999c21.21728 0 38.42048 17.2032 38.42048 38.42047999v262.06208zM473.87520002 460.3904h-18.35008v6.88128h-17.77664v-16.05631999h30.96576v-14.33600001h-30.96576v-11.46879999h36.12672v-16.05632001h-96.33792v16.05632001h36.12672v10.89535999h-30.96576v14.90944001h30.96576v16.05631999h-36.12672v16.05632H473.87520002v-22.9376z m-174.89920001-65.37216h-53.90336v-16.05631999c0-1.72032-1.14688001-2.8672-2.8672-2.86720001h-21.79072c-1.72032 0-2.8672 1.14688001-2.86719999 2.86720001v16.05631999h-53.90336001c-9.74848 0-17.77664 8.02816-17.77663999 17.77663999v58.49088001c0 9.74848 8.02816 17.77664 17.77663999 17.77664h53.90336001v25.23136c0 1.72032 1.14688001 2.8672 2.86719999 2.8672h21.79072c1.72032 0 2.8672-1.14688001 2.8672-2.8672V489.0624h53.90336c9.74848 0 17.77664-8.02816 17.77664-17.77664v-58.49088001c0-9.74848-8.02816-17.77664-17.77664-17.77663999z m-82.00192 75.69408h-46.44864v-55.05024h46.44864v55.05024z m74.5472 0h-46.44864v-55.05024h46.44864v55.05024z m424.3456-55.62367999h14.336c1.72032 0 2.8672-1.14688001 2.8672-2.86720001V403.0464h126.1568v9.17504c0 1.72032 1.14688001 2.8672 2.8672 2.86720001h14.33600001c1.72032 0 2.8672-1.14688001 2.86719999-2.86720001v-10.32192c0-8.6016-6.88128-16.05632-16.05631999-16.05632h-54.47680001v-7.45472c0-1.72032-1.14688001-2.8672-2.86719999-2.8672h-20.64384c-1.72032 0-2.8672 1.14688001-2.86720001 2.8672v7.45472h-54.4768c-8.6016 0-16.05632 6.88128-16.05632 16.05632v10.32192c1.14688001 1.72032 2.29376 2.8672 4.01408 2.86720001z m-55.62368-1.72032001c-2.29376 0-4.58752 1.14688001-5.16096 2.8672l-20.64384 40.14080001c-0.57344 1.72032 0 2.8672 1.72032001 2.86719998h20.64384c2.29376 0 4.58752-1.14688001 5.16096-2.86719998l20.64384-40.14080001c0.57344-1.72032 0-2.8672-1.72032001-2.8672h-20.64384z m-168.01792-32.68608H359.18720001c-9.74848 0-17.77664 8.02816-17.77663999 17.77664v97.4848c0 9.74848 8.02816 17.77664 17.77663999 17.77664h133.03808c9.74848 0 17.77664-8.02816 17.77664001-17.77664v-97.4848c0-9.74848-8.02816-17.77664-17.77664001-17.77664z m-6.30783999 114.68799999H364.92160001v-96.91135999h120.99584001v96.91135999z m392.23296-66.51903999h-26.37824001v-11.4688c0-1.72032-1.14688001-2.8672-2.8672-2.8672h-17.77664c-1.72032 0-3.44064 1.14688001-3.44064 2.8672v11.4688H766.32960001v-11.4688c0-1.72032-1.14688001-2.8672-2.8672-2.8672h-17.77664c-1.72032 0-2.8672 1.14688001-2.8672 2.8672v11.4688H714.72000001c-1.72032 0-2.8672 1.14688001-2.8672 2.8672v13.18912c0 1.72032 1.14688001 2.8672 2.8672 2.8672h26.37824v8.02816c0 9.74848 4.58752 18.92352 16.05632 24.65792 4.58752 2.29376 10.32192 4.58752 16.05632001 7.45472-10.32192 4.01407999-20.0704 6.30784001-29.81888001 6.30784h-25.23135999c-1.72032 0-3.44064 1.14688001-3.44064001 2.8672v13.18912c0 1.72032 1.14688001 2.8672 3.44064001 2.86720001h24.65791999c9.74848 0 21.79072001-2.29376 32.11264001-5.73440001 4.01407999-1.72032 12.04224-5.16096 20.64384-9.17504 9.17503999 4.01407999 16.62976001 7.45472 21.21728 9.17504 10.32192 4.01407999 22.36416 5.7344 32.11263999 5.73440001h24.65792001c1.72032 0 2.8672-1.14688001 2.8672-2.86720001v-13.18912c0-1.72032-1.14688001-2.8672-2.8672-2.8672h-25.23136001c-9.74848 0-18.92352-1.72032-29.81888-6.30784 5.7344-2.8672 11.46880001-5.7344 16.05632-7.45472 12.04224-5.7344 16.05632-14.90944 16.05632001-24.65792v-7.45472h26.37823999c1.72032 0 2.8672-1.14688001 2.8672-2.8672v-13.18912c1.14688001-1.72032 0-3.44064-1.72031999-3.44064z m-51.03616 25.23135999c0 5.16096-1.14688001 9.74848-8.02816001 13.18912001-5.7344 2.8672-14.90944 6.88128-22.93759999 10.89536-8.02816-4.01407999-17.2032-8.02816-22.9376-10.89536-6.88128-3.44064-8.02816-7.45472-8.02816-13.18912001v-5.73439999h61.35808l0.57344 5.73439999z m-258.62144 5.16096h20.64384c1.72032 0 2.8672-1.14688001 1.72031999-2.86719998l-20.64384-40.14080001c-0.57344-1.72032-2.8672-2.8672-5.16096-2.8672h-20.64384c-1.72032 0-2.8672 1.14688001-1.72031999 2.8672l20.64384 40.14080001c0.57344 1.14688001 2.29376 2.8672 5.16096 2.86719998z m125.00991999 10.32192h-67.09248v-67.09248h61.93152c1.72032 0 2.8672-1.14688001 2.8672-2.86719998v-13.18912001c0-1.72032-1.14688001-2.8672-2.8672-2.8672h-150.24127999c-1.72032 0-2.8672 1.14688001-2.86720001 2.8672v13.18912001c0 1.72032 1.14688001 2.8672 2.86720001 2.86719998H600.03200002v67.09248h-67.09248c-1.72032 0-2.8672 1.14688001-2.86720001 2.86720001v13.76256c0 1.72032 1.14688001 2.8672 2.86720001 2.8672H600.03200002v25.8048c0 1.72032 1.14688001 2.8672 2.8672 2.8672h20.64384c1.72032 0 2.8672-1.14688001 2.86719999-2.8672V489.0624h67.09248c1.72032 0 2.8672-1.14688001 2.8672-2.8672v-13.76256c0-1.72032-1.14688001-2.8672-2.8672-2.86720001z" fill="#EC681B" p-id="17742"></path><path d="M996.27904001 313.01632l-0.57344-7.45472-1.72032-6.30784001-2.29375999-6.30783999-2.86720001-5.7344-3.44064-5.7344-4.01407999-5.16096-4.58752-4.58752-4.58752001-4.58752-5.16096-4.01408001-5.73439999-3.44063999-5.7344-2.8672-6.30784001-2.29376-6.30784-1.72032001-6.88128-1.14687999-6.88128-0.57344H93.11104001l-6.88128 0.57344-6.88128 1.14687999-6.30783999 1.72032001-6.30784001 2.29376-5.73439999 2.8672-5.73440001 3.44063999-5.16096 4.01408001-4.58751999 4.58752-4.58752001 4.58752-4.01407999 5.16096-3.44064001 5.7344-2.8672 5.7344-2.29376 6.30783999-1.72031999 6.30784001-1.14688001 6.88128-0.57343999 6.88128v384.77824001l0.57343999 6.88127999 1.14688001 7.45472 1.72031999 6.30784001 2.29376 6.30783999 2.8672 5.7344 3.44064001 5.7344 4.01407999 5.16096 4.58752001 4.58752 4.58751999 4.58752 5.16096 4.01408001 5.73440001 3.44063999 5.73439999 2.8672 6.30784001 2.29376 6.30783999 1.72032001 6.88128 1.14687999 6.88128 0.57344h835.50208l6.88128001-0.57344 6.88127999-1.14687999 6.30784001-1.72032001 6.30783999-2.29376 5.73440001-2.8672 5.7344-3.44063999 5.16096-4.01408001 4.58752-4.58752 4.58751999-4.58752 4.01408001-5.16096 3.44063999-5.7344 2.8672-5.7344 2.29376-6.30783999 1.72032001-6.30784001 1.14687999-6.88128 0.57344001-6.88128v-384.77824001l-0.57344001-6.88127999z m-9.17503999 391.08608001c0 32.11264001-25.8048 57.91744001-57.91744001 57.91743999H94.25792002c-32.11264001 0-57.91744001-25.8048-57.91744001-57.91743999v-384.20480002c0-32.11264001 25.8048-57.91744001 57.91744001-57.91743999h834.92863999c31.5392 0 57.344 25.8048 57.91744001 57.91743999v384.20480002zM2350.74432001 314.1632c-4.01407999 0-6.88128-2.8672-6.88127999-6.88128v-27.52512c0-4.01407999 2.8672-6.88128 6.88127999-6.88128h182.35392001c4.01407999 0 6.88128 3.44064 6.88128 6.88128v27.52512c0 4.01407999-3.44064 6.88128-6.88128 6.88128h-182.35392001z m-10.89536 87.73632c-4.01407999 0-6.88128-2.8672-6.88128-6.88128v-27.52512c0-3.44064 2.8672-6.88128 6.88128-6.88128H2543.99360001c4.01407999 0 6.88128 3.44064 6.88128001 6.88128v27.52512c0 4.01407999-2.8672 6.88128-6.88128001 6.88128h-36.12672v116.98176c0 14.33599999-11.46880001 25.8048-25.8048 25.8048H2383.43040002c-4.01407999 0-6.88128-2.8672-6.88128001-6.88128v-24.08448c0-4.01407999 2.8672-6.88128 6.88128001-6.88128h75.12063999v-104.93952h-118.70208z m-129.59743999 35.55328c-2.8672 0-5.16096-1.14688001-5.16096-2.8672 0-0.57344 0-1.14688001 1.14687999-2.29376l55.05024001-68.23936c4.01407999-5.16096 5.16096-6.30784001 9.17503999-6.30784h43.00800001c2.29376 0 4.01407999 1.14688001 4.01407999 3.44063999 0 1.14688001-0.57344 1.72032-1.14687999 2.86720001l-44.72832 56.19712001h20.64384v116.98175999c0 3.44064-3.44064 6.88128-6.88128 6.88128001h-35.55328001c-4.01407999 0-7.45472-2.8672-7.45472-6.88128001V437.4528h-32.11263999z m0-87.16288c-3.44064 0-5.16096-1.14688001-5.16096-2.8672l0.57343999-1.72032001 55.62368001-68.81279999c4.01407999-5.16096 5.16096-6.30784001 9.17503999-6.30783999h43.00800001c2.29376 0 4.01407999 1.14688001 4.01407999 2.86719998s-0.57344 2.8672-1.14687999 3.44064001l-56.19712001 69.95968c-1.72032 2.29376-3.44064 2.8672-7.45472 2.8672h-42.43455999v0.57344zM2123.08864001 440.89344001c4.01407999-4.58752 5.7344-5.7344 9.17504001-5.73440001h32.68607999c4.01407999 0 6.30784001 0.57344 6.30784 2.8672 0 1.14688001-1.14688001 2.8672-3.44064 5.16096l-42.43455999 49.31584001 2.86719999 5.16096c5.16096 8.6016 5.7344 9.17503999 7.45472001 11.46879999 2.8672 2.8672 4.01407999 2.8672 12.61568 2.8672h17.77663999c3.44064 0 6.88128 3.44064 6.88128 6.88128v18.92352c0 3.44064-3.44064 6.88128-6.88128 6.88128h-26.37824c-22.9376 0-34.97983999-5.7344-44.15488-20.64384l-47.59551999-81.42848c-1.14688001-1.72032-1.72032-2.8672-1.72032001-4.01408001 0-1.72032 1.14688001-2.8672 4.01408001-2.86719998h34.97983999c5.16096 0 6.30784001 1.14688001 9.74848 6.88127999l11.46880001 18.92352001 16.62975999-20.64384z m-98.63167999-76.26752001v24.08448h99.77855999v-24.08448h-99.77855999z m100.35199999-57.344h-99.77856v24.08448h99.77856v-24.08448zM2024.45696002 512h33.83296c4.01407999 0 7.45472 2.8672 7.45472 6.88128v18.92352c0 3.44064-3.44064 6.88128-7.45472 6.88128h-49.88928c-14.33599999 0-25.8048-11.46880001-25.8048-25.8048v-220.20096c0-13.76256 11.46880001-25.8048 25.8048-25.8048h133.03807999c14.33599999 0 25.8048 11.46880001 25.8048 25.8048v96.91136c0 14.33599999-11.46880001 25.8048-25.8048 25.8048h-116.98175999V512z m-107.80672001-88.30976h40.71424001c4.01407999 0 7.45472 2.8672 7.45471999 6.88128001v22.93759999c0 4.01407999-3.44064 6.88128-7.45471999 6.88128h-40.71424001v51.6096h32.11264c3.44064 0 6.88128 2.8672 6.88128 6.88128v18.92352c0 3.44064-3.44064 6.88128-6.88128 6.88128h-50.46271999c-13.76256 0-25.8048-11.46880001-25.8048-25.8048V460.3904h-32.68608001c-4.01407999 0-6.88128-2.8672-6.88127999-6.88128v-22.93759999c0-4.01407999 2.8672-6.88128 6.88127999-6.88128001h32.68608001v-29.81888h-32.68608001c-4.01407999 0-6.88128-2.8672-6.88127999-6.88128001v-22.93759999c0-4.01407999 2.8672-6.88128 6.88127999-6.88128h116.98176001c4.01407999 0 7.45472 2.8672 7.45471999 6.88128v22.93759999c0 4.01407999-3.44064 6.88128-7.45471999 6.88128001h-40.71424v29.81888h0.57343999z m40.14080001-130.74432c4.01407999 0 7.45472 2.8672 7.45471999 6.88128v22.9376c0 3.44064-3.44064 6.88128-7.45471999 6.88128h-75.69408001l-5.16096 9.17504c-2.8672 5.7344-4.01407999 6.30784001-9.74848 6.30784h-34.97983999c-4.58752 0-5.7344-0.57344-5.73440001-2.8672 0-0.57344 0.57344-1.72032 1.72032-4.01408l34.4064-62.50495999c2.8672-5.16096 4.01407999-6.30784001 8.02816001-6.30784001h37.84703999c4.01407999 0 5.16096 0.57344 5.16096 2.29376 0 1.14688001-0.57344 2.29376-1.14688 4.01408001l-9.74848 16.62975999h55.05024001v0.57344zM1560.54400001 417.3824c0 18.35008 1.14688001 20.0704 22.36416 30.39232l40.1408 18.35008 40.14080001-18.35008c21.79072001-10.32192 22.36416-11.46880001 22.36415999-30.39232v-13.18912h-125.00992v13.18912z m36.12672-150.24128c0-4.01407999 2.8672-7.45472 6.88128-7.45472h38.99392001c4.01407999 0 6.88128 2.8672 6.88127999 7.45472v13.76256001h108.9536c17.2032 0 31.5392 14.33599999 31.53920001 32.11263999v19.49696001c0 4.01407999-2.8672 6.88128-6.88128001 6.88127999h-25.8048c-4.01407999 0-6.88128-2.8672-6.88127999-6.88127999v-17.20320001h-255.18080001v17.20320001c0 4.01407999-2.8672 6.88128-6.88128 6.88127999h-25.23136c-4.01407999 0-7.45472-2.8672-7.45472-6.88127999v-19.49696001c0-17.77664 14.90944-32.11264001 32.68608-32.11263999h108.38016v-13.76256001z m-136.47872 137.62560001c-4.01407999 0-7.45472-2.8672-7.45472-6.88128001v-24.08447999c0-4.01407999 2.8672-6.88128 7.45472-6.88128001h52.75648001v-22.9376c0-4.01407999 2.8672-6.88128 6.88127999-6.88128h33.83296c4.01407999 0 7.45472 2.8672 7.45472 6.88128v22.9376h125.00992v-22.36416c0-4.01407999 2.8672-7.45472 7.45472001-7.45472h33.83295999c4.01407999 0 6.88128 2.8672 6.88128 7.45472v22.36416h50.46272001c4.01407999 0 6.88128 2.8672 6.88128 6.88128001v24.08447999c0 4.01407999-2.8672 6.88128-6.88128 6.88128001h-50.46272001v13.76255999c0 31.5392-9.17503999 42.43456001-49.31584 60.2112l-16.62975999 7.45472 2.8672 1.14688001c20.64384 9.17503999 36.12672 12.61568 53.90336 12.61567999h53.32991999c4.01407999 0 6.88128 3.44064 6.88128 7.45472v24.08447999c0 4.01407999-2.8672 6.88128-6.88128 6.88128001h-53.32991999c-27.52512-0.57344-41.86112-4.01407999-73.40032001-18.35008l-28.09856-12.61568-28.09855999 12.61568c-33.25952 14.90944-44.15488 17.2032-73.40032001 18.35008h-53.32992c-4.01407999 0-6.88128-2.8672-6.88127999-6.88128001v-24.08447999c0-4.01407999 2.8672-7.45472 6.88127999-7.45472h53.32992c17.2032 0 36.12672-4.58752 53.90336-12.61567999l2.8672-1.14688001-16.62976-7.45472c-40.71424-18.92352-48.16896-28.09856-49.31583999-60.2112v-13.76255999H1460.19200001zM1353.53216002 334.80704h38.42047999c3.44064 0 4.58752 1.14688001 4.58752 3.44064 0 0.57344-0.57344 2.29376-1.72031999 5.16096l-38.99392001 76.26752c-2.8672 5.16096-4.58752 6.30784001-12.61567999 6.30784h-38.42048c-2.8672 0-4.58752-1.14688001-4.58752001-3.44064 0-0.57344 0-1.72032 1.72032001-5.16096l39.56735999-76.26752c1.72032-4.58752 4.58752-6.30784001 12.04224001-6.30784z m-143.36000001 83.14879999c1.72032 2.8672 1.72032 4.01407999 1.72032001 5.16096 0 2.29376-1.72032 3.44064-4.58752001 3.44064001h-38.42048c-8.02816 0-9.74848-1.14688001-12.61568-6.30783999l-39.56736-76.26752001c-0.57344-1.72032-1.72032-4.01407999-1.72032-5.16096 0-2.29376 1.72032-3.44064 4.58752-3.44064001h38.42048c7.45472 0 9.74848 1.14688001 12.61568001 6.30784001l39.56735999 76.26751999z m-114.68799999 69.95968001c-4.01407999 0-7.45472-2.8672-7.45472-7.45472v-24.65792c0-4.01407999 2.8672-7.45472 7.45472-7.45472h133.61152v-135.90528h-123.2896c-4.01407999 0-6.88128-3.44064-6.88128001-7.45472V282.624c0-4.01407999 2.8672-6.88128 6.88128001-6.88127999h299.33568c4.01407999 0 6.88128 2.8672 6.88127999 6.88127999v23.51104c0 4.01407999-2.8672 7.45472-6.88127999 7.45472H1282.42560001V448.92159999h134.7584c4.01407999 0 7.45472 3.44064 7.45472 7.45472002v24.65791999c0 4.01407999-2.8672 7.45472-7.45472 7.45472H1282.42560001v51.6096c0 4.01407999-3.44064 6.88128-7.45472 6.88127999H1236.55040001c-4.01407999 0-6.88128-2.8672-6.88127999-6.88127999v-51.6096h-133.61152001v-0.57344zM1983.74272001 645.61152c0-6.30784001 5.16096-11.46880001 11.4688-11.4688h46.44864c14.90944 0 26.37824 4.01407999 33.83296001 11.4688 5.7344 5.7344 8.6016 12.61568 8.6016 21.21728v0.57344c0 15.48288-8.6016 23.51104-18.35008 28.672 14.90944 5.16096 25.23136 13.76256 25.23136 30.96576v0.57343999c0 22.9376-18.92352 34.97983999-47.59552001 34.97984001h-48.16896c-6.30784001 0-11.46880001-5.16096-11.4688-11.4688v-105.51296z m52.18304 43.00800001c14.33599999 0 24.08448-5.7344 24.08448001-17.20320001v-0.57344001c0-10.32192-8.02816-16.05632-22.36416-16.05631999H2004.96000001v33.83296001h30.96576z m6.88128001 54.47679998c15.48288 0 24.65791999-6.30784001 24.65791999-17.77663999v-1.14688c0-10.89536-8.6016-17.2032-26.37824-17.20320001H2004.96000001v34.97984001h37.84704001v1.14687999z m65.37215999 5.73440001l47.59552-106.0864c2.29376-5.7344 6.88128-9.17503999 13.76256-9.17504h1.14688c6.30784001 0 10.89536 3.44064 13.18912001 9.17504l47.59551999 106.0864c1.14688001 1.72032 1.14688001 3.44064 1.14688 4.58751999 0 5.7344-4.58752 10.89536-10.89536 10.89536001-5.16096 0-9.17503999-2.8672-10.89536-8.02816l-10.32192-24.08448h-62.50495999l-10.89536 24.65792c-1.72032 4.58752-5.7344 6.88128-10.32192 6.88127999-5.7344 0-10.32192-4.58752-10.32192-10.32192 0.57344-1.72032 0.57344-3.44064 1.72031999-4.58751999z m83.72224-37.2736l-22.36416-51.6096-22.36416 51.6096h44.72832z m65.37216-65.9456c0-6.30784001 5.16096-11.46880001 11.4688-11.4688h2.29376c5.7344 0 8.6016 2.8672 11.46880001 6.88128l64.22527999 83.1488v-78.56128c0-6.30784001 5.16096-10.89536 10.89536001-10.89536001 6.30784001 0 11.46880001 5.16096 11.46879999 10.89536001V752.8448c0 6.30784001-4.58752 11.46880001-10.89536 11.4688h-1.14688c-5.16096 0-8.6016-2.8672-11.4688-6.88128l-65.9456-85.44256V752.8448c0 6.30784001-5.16096 10.89536-10.89536 10.89535999-6.30784001 0-11.46880001-5.16096-11.4688-10.89535999v-107.23328z m145.08032-1.14688c0-6.30784001 5.16096-11.46880001 11.4688-11.4688s10.89536 5.16096 10.89536001 11.4688v54.47680001l60.78463999-61.35808001c2.29376-2.8672 5.16096-4.01407999 9.17504-4.01408 6.30784001 0 10.32192 5.16096 10.32192 10.32192 0 3.44064-1.72032 6.30784001-4.01408 8.60160001l-40.14079999 38.42047999 43.008 53.90336c1.72032 2.29376 2.8672 4.58752 2.86719999 8.02816 0 6.30784001-5.16096 10.89536-11.4688 10.89535999-4.58752 0-7.45472-2.29376-9.74848-5.16096l-41.28768-52.75647999-20.64384 20.0704v26.37824c0 6.30784001-5.16096 11.46880001-10.89536 11.46879999-6.30784001 0-11.46880001-5.16096-11.46879999-11.46879999v-107.80672h1.14687999zM1441.84192001 632.99584h-19.49696c-1.72032 0-2.8672 1.14688001-2.8672 2.8672V724.1728c-10.32192-11.46880001-77.4144-87.73632-78.56127999-89.45664001-1.72032-1.72032-4.01407999-2.29376-5.73440001-2.29375999h-18.92352c-1.72032 0-2.8672 1.14688001-2.8672 2.8672v122.71616c0 1.72032 1.14688001 2.8672 2.8672 2.86720001h19.49696001c1.72032 0 2.8672-1.14688001 2.86719999-2.86720001v-89.45664c7.45472 8.02816 77.98784 88.30976 79.70816001 90.03007999 1.72032 1.72032 4.01407999 2.29376 5.73439999 2.29376002h18.35008c1.72032 0 2.8672-1.14688001 2.8672-2.86720001v-122.14272c-0.57344-1.72032-2.29376-2.8672-3.44064-2.8672z m111.8208-1.72032h-44.72832c-24.08448 0-43.58144 17.2032-43.58144 38.99392v53.90336c0 21.79072001 19.49695999 38.99392 43.58144 38.99392h44.72832c24.08448 0 43.58144-17.2032 43.58144-38.99392v-34.4064h-67.66592v18.35008c0 1.72032 1.14688001 2.8672 2.8672 2.8672h37.27360001v24.65792c0 1.72032-1.14688001 2.8672-2.86720001 2.8672h-71.10655999c-1.72032 0-2.8672-1.14688001-2.8672-2.8672v-76.84096c0-1.72032 1.14688001-2.8672 2.8672-2.8672h71.10655999c1.72032 0 2.8672 1.14688001 2.86720001 2.8672v14.90944c0 1.72032 1.14688001 2.8672 2.86719999 2.8672h21.79072c1.72032 0 2.8672-1.14688001 2.8672-2.8672v-2.86720001c0.57344-22.36416-19.49695999-39.56736-43.58144-39.56735999z m370.44224001 1.72032h-19.49696001c-1.72032 0-2.8672 1.14688001-2.8672 2.8672V724.1728c-10.32192-11.46880001-77.4144-87.73632-78.56127999-89.45664001-1.72032-1.72032-4.01407999-2.29376-5.7344-2.29375999H1798.52160001c-1.72032 0-2.8672 1.14688001-2.8672 2.8672v122.71616c0 1.72032 1.14688001 2.8672 2.8672 2.86720001h19.49696001c1.72032 0 2.8672-1.14688001 2.8672-2.86720001v-89.45664c7.45472 8.02816 77.98784 88.30976 79.70816 90.03007999 1.72032 1.72032 4.01407999 2.29376 5.73439999 2.29376002h18.35008c1.72032 0 2.8672-1.14688001 2.8672-2.86720001v-122.14272c-0.57344-1.72032-1.14688001-2.8672-3.44063999-2.8672z m-202.99776001 4.01408001c-1.14688001-2.29376-3.44064-3.44064-5.7344-3.44064001h-18.92352c-2.29376 0-4.58752 1.14688001-5.7344 3.44064001l-60.2112 118.70208c-2.29376 4.01407999-0.57344 6.30784001 3.44064 6.30783999h18.92352001c2.8672 0 4.01407999-0.57344 5.16096-3.44064001l47.59551999-95.76447998 47.59552 95.76447998c1.14688001 2.8672 2.29376 3.44064 5.16096 3.44064001h18.92352c3.44064 0 5.16096-2.29376 3.44064-6.30783999l-59.63776-118.70208z m-508.64128 60.21119999c0 1.72032-1.14688001 2.8672-2.8672 2.8672h-65.37216V655.35999999h65.37216c1.72032 0 2.8672 1.14688001 2.8672 2.86720001v38.99392z m-14.33599999-64.22528h-79.13472c-1.72032 0-2.8672 1.14688001-2.8672 2.8672v122.14272c0 1.72032 1.14688001 2.8672 2.8672 2.86720001h21.79071999c1.72032 0 2.8672-1.14688001 2.8672-2.86720001v-36.12672h53.90336c24.08448 0 44.15488-14.33599999 44.15488-36.12672v-13.76256c-0.57344-21.79072001-20.0704-38.99392-43.58143999-38.99392z m86.58943999 0h-21.79072c-1.72032 0-2.8672 1.14688001-2.86719999 2.8672v122.14272c0 1.72032 1.14688001 2.8672 2.86719999 2.86720001h21.79072c1.72032 0 2.8672-1.14688001 2.8672-2.86720001v-122.14272c0.57344-1.72032-0.57344-2.8672-2.8672-2.8672z" fill="#EC681B" p-id="17743"></path><path d="M1722.82752002 723.02592H1689.56800001c-1.72032 0-2.8672 1.14688001-2.86719999 2.8672v32.11264c0 1.72032 1.14688001 2.8672 2.86719999 2.86720001h32.68608c1.72032 0 2.8672-1.14688001 2.86720001-2.86720001v-32.11264c0.57344-1.72032-1.14688001-2.8672-2.29376-2.8672z" fill="#005C3B" p-id="17744"></path><path d="M764.60928002 685.17888l6.88127999-2.8672 2.8672-1.72032 2.29376-1.72032 2.29376-1.72032 2.8672-3.44064 1.14688 1.14688 2.29376001 2.29376 2.86719999 2.29376 2.86720001 1.72031999 6.30783999 3.44064001h-32.68607999v0.57344z m29.24544-13.18912l1.14687999 3.44064 3.44064-1.14688 0.57344001-0.57344 0.57343999-0.57343999 0.57344-0.57344001 1.72032-2.29376 1.72032-2.29375999 1.14688-2.86720001 1.14688001-2.8672V658.80064l-0.57344001-1.14687999-1.14687999-0.57344001-1.14688001-0.57344h-29.81887999v-4.01407999l-1.72032001-2.29376002h-2.8672l-0.57343999 0.57344001-0.57344001 0.57344-0.57344 0.57344-1.14688 2.29376-0.57343999 1.14687999-1.72032001 2.86720001-2.29376 2.8672-2.29376 2.29376v-2.86720001l-2.29376-2.29375999-11.4688-4.01408-1.72032-0.57344H741.67168001l-0.57344 0.57344-0.57344 0.57344-0.57344 0.57343999-0.57343999 0.57344001v2.29376l0.57343999 0.57344 0.57344 0.57344 0.57344 0.57344 0.57344 0.57343999 1.14688 0.57344001 1.14688001 0.57344c1.14688001 0.57344 2.29376 0.57344 3.44064 1.14688001l3.44063999 1.14687999c1.14688001 0.57344 2.29376 1.14688001 4.01408001 1.72031999h2.8672V667.40224l0.57343999 1.72032-3.44063999 1.14688-3.44064001 2.29376-3.44064 2.29376-4.01407999 2.29376c-1.72032 0.57344-3.44064 1.72032-4.58752 2.29376l-0.57344 0.57344-0.57344001 0.57344-0.57344 0.57343999V682.88512l0.57344 0.57344001 0.57344001 0.57343999 0.57344 0.57344 0.57343999 0.57344h2.8672l4.58752001-2.29376c1.72032-1.14688001 3.44064-1.72032 5.16096-2.8672l2.29376-1.14688v3.44064l1.14687999 1.72032h-6.30783999l-1.14688001 0.57344-1.14687999 0.57344-1.14688001 0.57344-0.57344 1.14688-0.57344 1.14688-0.57343999 1.14688V709.8368l0.57343999 0.57344 2.8672 2.8672-7.45472 0.57344h-1.14687999l-0.57344 0.57344001-0.57344001 0.57343999-0.57344 0.57344-0.57343999 0.57344v2.29376l0.57343999 0.57344 0.57344 0.57344001 0.57344001 0.57343999 0.57344 0.57344H741.09824001l7.45472-0.57344 6.30784001-1.14688 5.73439999-2.29376 4.58752001-2.8672 4.01407999-3.44064 2.8672-4.58752 1.72032-5.16096 1.14688001-5.7344V693.20704l-0.57344001-2.29376h16.62976001l0.57343999 0.57343999v16.62976001l-4.01408-1.72032c-1.72032-0.57344-4.01407999-1.14688001-5.7344-2.29375999l-1.14687999-0.57344001-2.86720001-0.57344H776.07808001c-0.57344 0-0.57344 0-1.14687999 0.57344l-1.72032 1.14688v3.44064l0.57343999 0.57344 0.57344 0.57344001 0.57344001 0.57343999 0.57344 0.57344 3.44063999 1.14688 2.8672 1.14688 2.8672 1.14688 2.8672 1.14688 2.86720001 1.14688 2.86719999 1.72032 2.86720001 1.72032001 2.8672 1.72031999 2.86719999 0.57344 2.29376001-1.72032v-1.72032l-2.29376001-2.29376-8.02815999-4.01408001 1.72032-1.14687999 0.57344-0.57344 0.57343999-0.57344 0.57344-0.57343999V690.33984l-0.57344-1.14688-1.72032-2.86720001 5.73440001 1.72032001h2.86719999l1.72032-2.29376v-2.29375999l-0.57344-0.57344001-0.57343999-0.57344-0.57344001-0.57344-0.57344-0.57344001-4.58752-1.14687999-3.44064-1.14688-4.01407999-1.72032-4.58752001-3.44064-2.29376-2.29376-2.29376-2.29376-1.72031999-2.29376 0.57344-1.14688001 0.57343999-1.14687999h12.61568001c-0.57344 1.14688001-1.72032 2.29376-2.29376001 3.44064001-0.57344 0.57344-1.14688001 1.72032-1.72032 2.29375999l-0.57344 0.57343999v1.14688001h4.58752001z m1.72032 3.44064z m-33.25952001-1.72032l-1.14688-3.44064 1.72032001-0.57344c0.57344 0 1.14688001-0.57344 1.72032-1.14688l1.72031999-1.72032c1.14688001-1.14688001 1.72032-2.29376 2.8672-3.44064h8.02816l-0.57344 1.72032-1.14687999 2.29376-1.72032001 2.29376-1.72032 2.8672-2.8672 1.72032-2.8672 1.72031999-3.44063999 1.72032001-4.01408001 1.14688 3.44064-5.16096z m11.4688 34.97984l0.57344-1.72032001 1.14688001-1.72031999v1.72031999l-1.72032001 1.72032001z m-3.44063999-16.05632l-1.14688001 2.29376v0.57344l-0.57344 4.58752-1.14688 4.01408001-2.29375999 3.44063999-2.86720001 2.8672-3.44064 2.29376-8.02816 2.8672 2.29376-2.8672 0.57344-0.57344001v-17.77663999h0.57344001l16.05632-1.72032z m-57.344-10.89536h-30.39232l2.29375999-2.29376 1.72032-1.72032 1.14688001-1.72032001 1.14687999-2.29375999 0.57344-2.29376 0.57344-2.29376V661.0944h14.90944v13.76256l0.57344 1.72032v0.57344l0.57344001 0.57344 0.57343999 0.57344001 0.57344 0.57343999 0.57344001 0.57344 5.16096 2.29376z m-9.74848 17.20320001l-1.72032001 1.72031999-3.44063999 2.8672-1.72032001-1.72032001-1.14688-1.14687999-2.29375999-2.29376-1.14688001-1.72032001-2.8672-3.44063999-2.29376-3.44064h23.51104l-1.14688 2.8672-1.14687999 1.72032-1.14688001 1.72032-1.14688 1.72032-2.29375999 1.14688001z m-26.95168001-15.48288l-2.29376 1.14687999c-1.14688001 0.57344-2.29376 1.72032-3.44064 2.29376v-12.61568h8.6016v-5.7344l-0.57344-0.57343999-0.57344-0.57344001-0.57343999-0.57344h-6.88128001v-12.61568l-0.57343999-0.57344-0.57344001-0.57344-0.57344-0.57343999h-4.01407999l-0.57344001 0.57343999-0.57344 0.57344-0.57344 0.57344V667.97568001H656.22912002l-0.57344001 0.57343999-0.57344 0.57344-0.57343999 0.57344v4.01408l0.57343999 0.57344 0.57344 0.57344 0.57344001 0.57344h6.88127999v16.05631999l-2.29376 1.14688001-2.8672 1.72032c-1.14688001 0.57344-1.72032 1.14688001-2.8672 1.72032l-0.57343999 0.57343999-0.57344001 0.57344001v2.8672l0.57344001 0.57344 0.57343999 0.57344 0.57344 0.57343999 0.57344001 0.57344001h2.29375999c1.14688001-0.57344 1.72032-0.57344 2.86720001-1.14688l2.29375999-1.14688v15.48288l-2.8672-1.14687999h-3.44064l-1.72032 2.86719998v2.29376002l0.57344001 0.57343999 0.57344 0.57344 0.57343999 0.57344 0.57344 0.57344 0.57344 0.57343999 2.86720001 0.57344001 2.29375999 0.57344h2.29376l1.72032-0.57344 1.14688-1.14688 1.72032-2.29375999 1.14688001 2.29375999 0.57344 0.57343999 0.57343999 0.57344001 0.57344 0.57344h2.8672l2.8672-0.57344 2.86720001-1.14688 2.86719999-1.14688 2.86720001-1.14687999 2.8672-1.14688001 2.29376-1.14688001 4.58752-2.29375999 1.72031999 1.14688 2.29376 1.14687999 2.8672 1.14688001 2.8672 1.14688001 2.8672 1.14687999 3.44064001 1.14688 3.44063999 0.57343999 4.01408 0.57344001H722.74816001l0.57344001-0.57344001 0.57344-0.57343999 0.57343999-0.57344 0.57344-0.57344v-2.29376l-0.57344-0.57344-0.57343999-0.57344001-0.57344-0.57343999-0.57344001-0.57344-0.57344-0.57344h-0.57343999l-2.29376001-0.57344-2.29376-0.57343999-2.29376-0.57344001-2.29376-0.57344-2.29376-1.14688001-2.29375999-1.14687999-3.44064001-1.72031999 2.8672-2.86720001 1.72032-2.29375999 1.72032-2.29376002 1.72032-2.29375999 1.72032-2.29376 1.14688-2.29376 1.14688001-2.8672 0.57343999-1.72032 0.57344-1.72031999V686.8992l-0.57344-0.57344001-0.57343999-0.57343999-0.57344001-0.57344-0.57344-0.57344-4.58752-2.29376H721.02784001l0.57344001-0.57344 0.57343999-0.57344001 0.57344-0.57343999 0.57344001-0.57344v-2.29376l-0.57344001-0.57344-0.57344-0.57344-0.57343999-0.57344001-0.57344001-0.57343999H714.72000001l-1.72031999-0.57344V659.94752l-0.57344001-1.14688-0.57344-0.57344-1.14688-0.57343999-1.14688-0.57344001h-22.36415999l-1.14688001 0.57344001-1.14688 0.57343999-0.57344 1.14688-0.57344 1.14687999v9.17504001l-0.57344 1.72032-0.57343999 1.72032001-0.57344 1.72031999-2.86720001 3.44064001v-0.57344001l-3.44064 2.29376-0.57343999 0.57344-0.57344001-2.29375999-0.57344 0.57343999V680.59136l0.57344 0.57343999 1.72032 2.29376002z m2.8672-9.17504001z m-8.6016 42.43456V695.5008c2.29376-1.14688001 4.58752-2.29376 6.30784001-4.01408001l0.57344-0.57343999 2.8672-3.44064-1.14688001 4.58752v1.14688l0.57344 0.57344001 0.57344001 0.57343999 2.86719999 4.01408 2.8672 3.44063999c1.14688001 1.14688001 1.72032 2.29376 2.8672 2.86720001l2.29376 2.29375999-4.58752 2.29376002-2.29376 1.14687999-4.58752 1.72031999-5.16096 1.72032001-0.57344 0.57344001-0.57344 0.57343999-2.8672 1.72032z m-180.06016-40.1408V683.45856001l-0.57344 0.57343999h-21.21727999v-6.88128h21.79071999v-0.57344z m-21.79071999-13.76255999l0.57343999-0.57344001H491.07840002v6.30784h-21.79072001l-0.57343999-5.73439999z m12.61568 45.30175999l-4.01408001-1.14688001-2.8672 1.72032001-1.72032 1.72032-1.14688 1.14688-2.86719999 2.86720001v-23.51104001h4.58751999l1.14688 4.01408 1.72032001 4.58752 2.29375999 4.58752001 2.86720001 4.01407999z m-20.07040001-15.48288v14.33599999l-4.01408-1.14687999-2.29375999 1.14687999-3.44064001 3.44064001-2.29376 2.29376v-18.35008H458.96576001l2.29376-1.72032z m0-14.90944v10.89536001l-2.29376-1.14688001h-9.74848v-8.02816H457.81888001l0.57344001-0.57344 0.57343999-0.57343999 0.57344-0.57344001 1.14688001-2.29376-1.14688001-2.29375999-0.57344-0.57344001-0.57343999-0.57344-0.57344001-0.57344H444.05632001l2.8672-6.30784H460.11264002l1.72031999-0.57344v8.60160001l-1.14687999 2.29375999 0.57343999 2.29376z m32.68608 13.18912c-1.72032 2.29376-4.01407999 4.58752-6.30784 6.30784l-0.57344 0.57344-2.29376 2.29376-1.72032-3.44064001-1.72031999-3.44063999-1.14688001-2.29376h13.76256z m5.16096 3.44064v-0.57343999l-0.57344-0.57344001-0.57344-0.57344-0.57344-0.57344-3.44064-1.14688 2.29376001-1.72032 0.57344-0.57343999 0.57343999-1.14688001 0.57344-1.14688001v-26.95167999l-0.57344-1.14688-0.57343999-1.14688-0.57344-0.57344-0.57344001-0.57344-1.14687999-0.57344001-1.14688001-0.57343999H465.84704002l-1.14688001 0.57343999-1.14687999 0.57344001-0.57344001 0.57344-0.57344 0.57344-1.14688 2.29376-1.72032-0.57344h-10.89536c0-0.57344 0-1.72032 0.57344-2.29376v-2.29376l-0.57344-0.57344-0.57343999-0.57344-0.57344001-0.57343999-0.57344-0.57344001h-2.8672l-0.57344 0.57344001-0.57343999 0.57343999-0.57344001 0.57344-0.57344 0.57344v0.57344l-0.57344 3.44064-1.14687999 2.8672-1.14688001 2.8672-1.14687999 2.8672-1.14688001 2.8672-1.14688 2.8672-1.72032 2.29376-1.72032 2.29376-0.57344 0.57344-0.57344 0.57344001V680.01792l0.57344 0.57344 0.57344 0.57343999 0.57344001 0.57344001 2.86719999 0.57344 2.8672-1.72032 1.14688001-1.72032h1.72031999v8.02816H433.73440001l-0.57344 0.57344-0.57343999 0.57344-0.57344001 0.57344001v3.44063999l0.57344001 0.57344 0.57343999 0.57344 0.57344 0.57344001h8.02816V719.01184l0.57344 0.57344001 0.57344001 0.57343999 0.57343999 0.57344 0.57344 0.57344 0.57344001 0.57344h2.86719999l1.72032-0.57344 2.29376-1.72031999 2.8672-2.29376002c1.14688001-1.14688001 2.8672-2.29376 4.01408001-4.01407999l2.29376-2.29376V717.86496l0.57343999 1.72032001 0.57344 1.14687999 1.14688 1.14688 1.14688 0.57343999h3.44064l1.72032-0.57343999 2.29376-1.72032 2.29376001-1.72032c1.14688001-1.14688001 2.8672-2.29376 4.01407999-4.01407999l1.72032-1.72032001 0.57344-0.57344001 0.57344001-0.57343999v-3.44064l2.86719999 2.8672 4.01408 3.44064001 4.01408001 2.86719998 4.58752 2.86720001 3.44064 0.57344 2.86719999-1.72032 0.57344-3.44064-2.29376-2.29376-3.44064-2.29376-3.44064-2.29376-2.86719999-2.29376-1.72032-1.72032 5.16096-5.16096 2.86719999-2.86720001 0.57344-0.57343999 0.57344-0.57344 0.57344-0.57344v-0.57344z m44.72832-38.99392001h-1.14687999l-0.57344001 0.57344001-0.57344 0.57344-0.57343999 0.57344-0.57344001 0.57344001v2.29375999l0.57344001 0.57343999 0.57343999 0.57344001 0.57344 0.57344 0.57344001 0.57344h37.84703999l0.57344-0.57344 0.57344-0.57344 0.57344001-0.57344001 0.57343999-0.57343999v-2.29375999l-0.57343999-0.57344001-0.57344001-0.57344-0.57344-0.57344-0.57344-0.57344001h-36.70016z m-16.62975999-0.57343999l-2.29376001 4.01408-2.29375999 4.01408001-2.86720001 3.44063999-2.86719999 3.44064-0.57344001 0.57344-0.57344 0.57343999V672.5632l0.57344 0.57344001 0.57344001 0.57343999 0.57344 0.57344 2.8672 1.14688 2.29376-1.14688 2.8672-4.01408 2.86719999-4.01408 2.8672-4.58752 2.8672-4.58752 0.57344-2.8672-2.29375999-2.29376h-2.86720001l-2.29375999 2.8672z m-5.73440001 40.71424l2.29376-2.29376V720.15872l0.57344 0.57344 0.57344 0.57344 0.57344001 0.57344 0.57343999 0.57343999h2.8672l0.57344-0.57343999 0.57344-0.57344 0.57344001-0.57344 0.57343999-0.57344V682.31168l2.29376-3.44064c1.14688001-2.29376 1.14688001-3.44064 1.72032-5.73439999l-2.29375999-2.29376002h-2.86720001l-2.29375999 2.29376002-1.14688001 2.29375999-1.14687999 2.29376-1.14688001 2.29376-1.14688 2.29376-2.86719999 4.01407999-3.44064 4.01408001-1.14688001 2.8672 1.14688001 2.8672 2.86719999 1.14688 1.72032-1.72032z m15.48288-19.49696001V677.72416l0.57344001 0.57344001 0.57344 0.57343999 0.57343999 0.57344 0.57344 0.57344h28.09856v32.11263999l-0.57343999 0.57344001-0.57344001 0.57344h-4.58751999l-3.44064-0.57344-6.88128-1.72032h-3.44064l-1.72032 2.29376v3.44064l2.29376 1.72032 3.44063999 1.14688001 3.44064 0.57343999 2.86720001 0.57344 2.86719999 0.57344h6.30784l1.72032001-0.57344 1.14687999-0.57344 1.14688-0.57343999 1.14688-1.14688001 0.57344-1.14688001 0.57344001-1.72031999 0.57344-1.72032v-33.83296H582.82880001l0.57344-0.57344 0.57344001-0.57344 0.57344-0.57343999 0.57343999-0.57344001v-2.29376l-0.57343999-0.57344-0.57344-0.57344-0.57344001-0.57344-0.57344-0.57343999h-44.72831999l-0.57344 0.57343999-0.57344001 0.57344-0.57344 0.57344-0.57343999 0.57344 1.14687999 0.57343999z m-234.53696-13.18911998h6.30784001l-2.8672 13.18911998V679.44448c0 0.57344 0 1.14688001 0.57343999 1.72031999 0 0.57344 0.57344 1.14688001 0.57344 1.72032001 0.57344 1.72032 1.14688001 2.8672 1.72032001 4.58752l0.57343999 1.72032 1.14688001 3.44064v4.01407999s0 0.57344-0.57344001 0.57344001l-0.57344 0.57344h-0.57343999l-2.8672-0.57344h-1.14688001l-1.72032 0.57344-0.57344-34.97983999z m49.88928001 14.33599999v-4.01407999l4.58752 2.29375999h3.44064l2.29376-2.29375999v-3.44064001l-2.29376-2.29376-2.8672-1.14688-2.86720001-1.14688-2.29375999-1.72032-2.29376-1.72032-2.29376001-1.72032-2.29376-1.72032-2.29376-2.29376-2.8672-3.44063999-1.14688-0.57344001-1.14688-0.57344h-2.29376l-1.14687999 0.57344-1.14688001 1.14688c-1.14688001 1.72032-2.8672 3.44064-4.01407999 4.58752001l-0.57344001 0.57343999-1.72032 1.72032-1.72032 1.72032-2.29376 1.72032-2.29375999 1.72032-5.73440001 4.01408 1.72032-6.88128 0.57344-2.8672V654.78656l-0.57344-0.57344-0.57343999-0.57344-0.57344-0.57344-2.29376001 2.29375999H299.54944001l-1.14687999 0.57344001-1.14688001 0.57344-0.57344 0.57344-0.57344 0.57344001-0.57343999 1.14687999v62.50496l0.57343999 0.57344 0.57344 0.57343999 0.57344 0.57344001 0.57344 0.57344h2.29376001l0.57344-0.57344 0.57343999-0.57344001 0.57344-0.57343999 0.57344-0.57344v-15.48288l1.72032 0.57344c0.57344 0 1.14688001 0 1.72032001 0.57343999H312.16512001l1.14688-0.57343999 1.14688-0.57344 1.14688001-0.57344 0.57344-0.57344 0.57343999-0.57343999 0.57344-0.57344001 0.57344-1.14688 0.57344-1.14688 0.57344001-1.14688v-5.7344c0-1.14688001 0-1.72032-0.57344001-2.29376 0-1.14688001-0.57344-2.29376-1.14688-3.44063999l-1.14687999-3.44064001-2.29376-4.58752v-1.72032l0.57343999-3.44064 2.29376 1.72032 0.57344 0.57344H319.04640002l0.57343999-0.57344 0.57344-0.57344 2.8672-1.72032 0.57344 1.72032c0 0.57344 0 0.57344 0.57344001 1.14688l0.57343999 0.57344001 0.57344 0.57343999 0.57344001 0.57344h8.6016l-2.29376001 2.29376-0.57343999 0.57344v2.29376l1.72031999 6.88127999c0.57344 2.29376 1.14688001 5.16096 1.14688001 7.45472002l0.57343999 5.16096v1.14687999l0.57344 0.57344 0.57344001 0.57344 0.57344 0.57343999 0.57343999 0.57344001H339.11680001l2.29376001-1.14688-0.57344001 2.29376v1.14688l0.57344001 1.72032h-13.18912001l2.86720001-2.29375999 0.57344-0.57344001V706.96959999c0-0.57344 0-1.72032-0.57344-2.29375999-0.57344-1.14688001-0.57344-2.29376-1.14688001-4.01408l-0.57343999-2.8672-1.14688001-2.8672-1.14688-2.8672-2.29376-5.73440001-1.14688-2.86719998-0.57344-0.57344001 1.72032 1.14688-0.57343999-0.57343999-0.57344001-0.57344001h-2.29375999l-0.57344 0.57344001-1.72032 0.57343999-0.57344001 0.57344v1.14688c0 2.29376 1.72032 5.16096 2.86720001 7.45472l2.29375999 5.73440001 1.72032 5.16096 1.14688001 4.58751999v0.57344001l0.57343999 0.57343999 0.57344 0.57344 2.8672 2.29376h-12.61568l-0.57344 0.57344-0.57344 0.57344-0.57343999 0.57344001-0.57344 0.57343999v2.8672l0.57344 0.57344 0.57343999 0.57344 0.57344 0.57344001H358.61376001l0.57344-0.57344001 0.57344-0.57344 0.57344001-0.57344v-3.44063999l-0.57344001-0.57344001-0.57344-0.57344-0.57344-0.57344h-11.46879999c0.57344-0.57344 1.14688001-1.72032 1.14687999-2.29376v-0.57344l2.29376-6.30784 1.14688001-3.44064 1.14687999-3.44064001 0.57344-3.44063999 0.57344-3.44064 0.57344-3.44064001 0.57344001-3.44063999v-2.29376l-0.57344001-0.57344-0.57344-0.57344-0.57344-0.57344-0.57344-0.57343999h-2.86719999l-1.14688001 1.72031999c0 0.57344-0.57344 1.14688001-0.57344 1.14687999l-0.57344 4.58752001-1.14687999 6.88128-0.57344001 3.44064-2.8672 10.32192c-0.57344-2.8672-0.57344-5.7344-1.14687999-8.6016 0-1.72032-0.57344-4.01407999-1.14688001-5.7344l-1.14687999-5.16096-1.14688001-4.58752v-0.57344l-2.29375999-3.44063999h14.33599999l1.14688001-1.72032001 0.57344 0.57344z m-1.72032001 2.29376z m-23.51104-8.02816l2.8672-2.29376 1.72032001-1.72032 1.14687999-1.72032001 2.29376-2.86719998 0.57344-0.57344001 1.14688001-1.14688 2.29375999 2.29376 1.14688 1.72032 1.72032001 1.72032c1.14688001 0.57344 1.72032 1.72032 2.8672 2.29376 1.72032 1.14688001 2.8672 2.29376 4.58751999 2.8672h-22.36416v-0.57344z m-93.47071999 0.57344V661.0944h32.68607999l0.57344 0.57344v11.46880001l-1.14688 0.57343999h-31.5392-0.57343999v-1.72032z m-12.04224001 19.49695999l2.29376 1.72032001h20.07040001l-2.29376 2.8672-2.29376001 2.29376-2.86719999 2.29376-2.8672 2.29376-3.44064001 2.29376-3.44064 2.29376-5.16096 2.8672v-18.92352001z m4.58752001-33.25951999v17.77663999l0.57343999 1.14688001 0.57344 1.14688001 0.57344001 0.57343999 0.57344 0.57344 1.14687999 0.57344 1.14688 0.57344h15.48288v5.73439999h-21.21728c-0.57344 0-0.57344 0-1.14688 0.57344001l-1.72032 1.72032001v-17.20320001c0.57344-1.14688001 1.14688001-2.8672 1.72032-4.58752l2.29376001-8.6016z m32.68608 38.42047999l-2.86720001-3.44063999H277.75872002l0.57343999-0.57344 0.57344-0.57344 0.57344001-0.57344001v-3.44063999l-0.57344001-0.57344-0.57344-0.57344-0.57343999-0.57344001h-24.08448v-5.73439999H269.73056002l1.14687999-0.57344 1.14688-0.57344 0.57344001-0.57344 0.57343999-0.57343999 0.57344-1.14688001 0.57344001-1.14688001V658.2272l-0.57344001-1.14688-0.57344-1.14688-0.57343999-0.57344001-0.57344001-0.57343999-1.14688-0.57344-1.14687999-0.57344H230.73664001l-1.14688 0.57344-1.14687999 0.57344-0.57344 0.57343999-1.72032 1.72032001-1.14688001-2.8672v-0.57344l-2.8672-1.72032H220.41472001l-0.57344 0.57344001-0.57344 0.57343999-0.57344 0.57344-0.57343999 0.57344-0.57344 1.14687999v1.14688001l-0.57344001 3.44064-1.14687999 3.44064-1.14688001 3.44064-1.14688 2.8672-1.14687999 2.8672-1.72032 2.8672-1.72032001 2.29376-1.72031999 2.29376-0.57344001 0.57344-0.57344 0.57343999v2.29376002l0.57344 0.57343999 0.57344001 1.14688 2.86719999 1.14687999 4.01408-2.29375999V718.4384l0.57344 0.57344 0.57344 0.57344001 0.57344001 0.57343999 0.57343999 0.57344h2.8672l0.57344-0.57344 0.57344-0.57343999 0.57344001-0.57344001 0.57343999-0.57344v-4.58752l2.29376 1.14688h2.29376001l3.44063999-2.29376 3.44064001-2.29376 2.86719999-2.29376 2.86720001-2.29376 2.29375999-2.29376 4.01408-4.01408V718.4384l0.57344 0.57344 0.57344 0.57344001 0.57344001 0.57343999 0.57343999 0.57344h2.29376l0.57344-0.57344 0.57344-0.57343999 0.57344-0.57344001 0.57344001-0.57344v-17.2032l2.86719999 2.86720001 2.8672 2.29375999 2.8672 2.29376 2.8672 2.29376 3.44064 2.29376 3.44064 2.29376 4.01408001 2.29376h2.86719999l2.29376001-2.29376 0.57344-3.44064001-1.72032001-2.29375999-4.58752-2.29376-4.01407999-2.29376-3.44064001-2.29376-3.44064-2.29376-2.8672-2.29376-1.14687999-1.72032001z m367.0016-9.74847999v-1.14688l-0.57344-1.14688-0.57344001-1.14687999-0.57344-0.57344001-1.14688-0.57344-1.14688-0.57344-1.14687999-0.57344001h-2.29376l-1.14688001 0.57344001-1.14688 0.57344-0.57343999 0.57344-0.57344 0.57344001-0.57344001 1.14687999-0.57344 1.14688v2.29376l0.57344 1.14688 0.57344001 1.14688 0.57344 0.57344 0.57343999 0.57343999 1.14688 0.57344001 1.14688001 0.57344h2.29376l1.14687999-0.57344 1.14688-0.57344001 1.14688-0.57343999 0.57344-1.14688 0.57344001-1.14687999 0.57344-1.14688001v-0.57344z m-223.06816001 0v-1.14688l-0.57344-1.14688-0.57343999-1.14687999-0.57344001-0.57344001-1.14688-0.57344-1.14687999-0.57344-1.14688001-0.57344001h-2.29376l-1.14688 0.57344001-1.14687999 0.57344-0.57344001 0.57344-0.57344 0.57344001-0.57343999 1.14687999-0.57344001 1.14688v2.29376l0.57344001 1.14688 0.57343999 1.14688 0.57344 0.57344 0.57344001 0.57343999 1.14687999 0.57344001 1.14688 0.57344h2.29376l1.14688001-0.57344 1.14687999-0.57344001 1.14688-0.57343999 0.57344001-0.57344 0.57343999-1.14688 0.57344-1.14688v-1.14688z" fill="#EC681B" p-id="17745"></path></svg>