<?xml version="1.0" standalone="no"?><!DOCTYPE svg PUBLIC "-//W3C//DTD SVG 1.1//EN" "http://www.w3.org/Graphics/SVG/1.1/DTD/svg11.dtd"><svg t="1547622617988" class="icon" style="" viewBox="0 0 2560 1024" version="1.1" xmlns="http://www.w3.org/2000/svg" p-id="19599" xmlns:xlink="http://www.w3.org/1999/xlink" width="500" height="200"><defs><style type="text/css"></style></defs><path d="M1141.93280002 377.2416s-20.0704 77.4144-54.47680001 131.8912l-2.86719999 2.8672 31.5392 22.9376 2.8672-2.8672c37.27360001-57.344 57.344-134.7584 57.34399999-134.75840001v-2.86719998l-34.40639999-20.07040001v2.8672z m-2.86720001-14.336l2.86720001 2.8672 25.8048-22.93759999V339.968c-31.5392-37.27360001-63.07840001-54.4768-65.94560001-57.344h-2.8672l-25.8048 22.9376 2.8672 2.8672c0-2.8672 45.8752 28.672 63.0784 54.4768m249.4464-117.5552c-17.2032-25.8048-43.008-43.008-43.008-43.008l-2.86719999-2.8672-28.67200001 20.0704 2.86720001 2.8672s14.33599999 14.33599999 25.8048 22.9376h-37.27360001V196.608h-37.2736v48.7424h-100.35199999v5.7344c-22.9376-22.9376-45.8752-37.27360001-45.87520001-37.27359999h-2.86719999l-28.672 22.93759999 2.8672 2.86720001s40.14079999 28.672 63.07839999 54.47679998l2.8672 2.86720001 20.0704-14.336h88.8832v20.0704h-83.1488V540.672h34.40640001v-86.016h48.74239999v77.4144h37.2736V454.656h48.7424v48.7424s-5.7344 2.8672-31.53919999 2.8672H1316.83200002l11.46879999 34.4064h22.93760001c8.6016 0 17.2032-2.8672 22.9376-8.6016 5.7344-5.7344 11.46880001-14.33599999 11.46879999-22.9376v-206.4384h-83.1488V282.624h111.8208v-34.4064l-25.8048-2.8672z m-120.4224 172.032h-48.74239999v-25.8048h48.74239999v25.8048z m0-60.2112h-48.74239999v-22.9376h48.74239999v22.9376z m86.016 60.2112h-48.7424v-25.8048h48.7424v25.8048zM1354.10560001 357.1712h-48.7424v-22.9376h48.7424v22.9376z m323.99360001 100.352c20.0704-22.9376 34.4064-48.7424 48.74239999-80.2816v-25.8048H1603.55200001c2.8672-5.7344 5.7344-17.2032 8.6016-22.9376H1775.58400001v-34.40640001h-157.696c2.8672-14.33599999 8.6016-40.14079999 11.4688-77.4144v-2.86719998l-34.4064-8.60160001v2.8672c-2.8672 37.27360001-8.6016 65.94559999-14.33599999 86.01599999h-51.6096c2.8672-8.6016 25.8048-65.94559999 25.8048-65.94559999l-31.5392-17.2032-34.40640001 88.8832v28.672h83.1488c-17.2032 74.5472-60.2112 131.8912-120.42239999 169.16480001l-2.86720001 2.86719998 25.8048 28.67200001 2.86720001-2.86720001c54.4768-40.14079999 88.88320001-83.1488 108.95359999-131.89119998 11.46880001 22.9376 28.672 45.8752 43.008 63.07839999-25.8048 22.9376-63.07840001 40.14079999-108.9536 51.6096h-5.7344l20.0704 28.672h2.8672c45.8752-8.6016 83.1488-28.672 114.68800001-57.344 25.8048 20.0704 45.8752 31.5392 57.344 37.2736 17.2032 8.6016 34.4064 14.33599999 54.4768 20.0704h2.86719999l22.93760001-28.672h-5.73440001c-37.27360001-11.46880001-74.5472-28.672-106.08639999-51.6096m-22.93760001-25.8048c-11.46880001-11.46880001-22.9376-28.672-34.4064-51.6096H1689.56800001c-8.6016 20.0704-20.0704 37.27360001-34.4064 51.6096m272.384-94.6176h40.14080001v-34.4064h-71.68000001c2.8672-8.6016 5.7344-14.33599999 8.6016-20.0704h65.94560001v-34.4064h-57.34400001c5.7344-20.0704 5.7344-34.4064 5.73440001-37.2736v-2.8672l-31.53920001-8.6016v2.8672c-5.7344 63.07840001-25.8048 108.9536-60.2112 137.6256l-2.8672 2.86720001 22.9376 25.8048h-2.8672v34.40639999h48.74240001v86.016c0 8.6016 0 14.33599999-2.8672 17.2032l-2.86720001 2.8672 20.0704 31.5392 65.9456-34.4064v-34.40639999s-37.27360001 17.2032-45.8752 22.93759999v-86.016h45.8752V368.64000001h-45.8752v-31.53920001zM1893.13920002 368.64000001h-45.87520001c11.46880001-11.46880001 22.9376-20.0704 28.672-28.67200001h14.33600001v28.67200001z m203.5712 86.01599999c20.0704-11.46880001 37.27360001-28.672 51.6096-48.7424l2.8672-2.8672-25.8048-20.0704h5.73439999V216.67839999h-151.9616v275.25120001c0 8.6016-2.8672 11.46880001-2.8672 14.336l-2.8672 2.8672 17.2032 31.5392 80.28160001-28.672v-34.4064s-45.8752 17.2032-54.47680001 17.2032v-108.9536h22.93760001c2.8672 31.5392 14.33599999 63.07840001 31.5392 88.88319999 17.2032 28.672 43.008 45.8752 77.4144 54.47680001h2.8672l22.9376-31.53919999h-5.7344c-34.4064-8.6016-57.344-22.9376-71.68-43.00800001m-83.1488-203.5712h83.1488V282.624h-83.1488v-31.5392z m0 63.0784h83.1488v34.4064h-83.1488v-34.4064z m68.81279999 111.8208c-5.7344-11.46880001-8.6016-25.8048-11.46879999-43.008h51.6096c-14.33599999 22.9376-25.8048 34.4064-40.14080001 43.008m169.16480001-106.08640001c28.672-20.0704 60.2112-54.4768 91.75039999-100.35199999l2.8672-2.86720001-28.672-20.07039999-2.8672 2.8672c-25.8048 40.14079999-57.344 71.68-91.7504 97.4848l-2.86719999 2.8672 31.5392 20.07039999z m103.2192-5.73439999v34.4064h94.61759999v149.09440001c0 2.8672 0 2.8672-2.8672 2.86719998 0 0-5.7344 2.8672-17.2032 2.86720001h-40.1408l11.46880001 34.4064h22.93759999c17.2032 0 28.672 0 37.27360001-2.8672 8.6016-2.8672 14.33599999-5.7344 20.07039999-11.46879999 5.7344-5.7344 5.7344-14.33599999 5.73440001-22.93760002v-151.96159999H2549.72800001v-34.4064h-194.96959999z m5.73439999-11.4688l-28.67199999-20.0704-2.8672 2.8672c-34.4064 51.6096-71.68 86.016-111.82080001 108.95360001l-2.8672 2.86719998 25.8048 28.67200001s28.672-20.0704 37.27360001-25.8048v134.7584h34.40639999v-169.1648c25.8048-28.672 40.14079999-48.7424 48.7424-63.0784z m166.2976-43.008V225.28h-163.4304v34.4064h163.4304z m-794.2144 28.672l2.86720001 2.86720001 28.672-20.07040001-2.8672-2.86720001c-28.672-40.14079999-60.2112-63.07840001-60.21120001-63.07839999h-2.8672l-28.672 20.0704 2.8672 2.8672c0-2.8672 40.14079999 31.5392 60.2112 60.2112M2265.87520001 790.1184l-2.8672-5.73440001c-5.7344-5.7344-114.68800001-166.29760001-123.2896-177.76639999h-34.4064v212.1728h22.9376v-183.5008l2.8672 5.7344c5.7344 5.7344 114.68800001 166.29760001 123.28960001 177.7664h31.53919999v-212.1728H2263.00800001v183.5008z m114.68800001-86.01599999c0-2.8672 86.016-83.1488 106.0864-100.35200002h-31.53920001c-8.6016 5.7344-97.4848 88.88320001-100.35199999 94.61760001l-5.7344 2.8672v-97.48480001h-22.93760001v212.17280001h22.93760001v-111.82079999l2.86719999 2.86719998c2.8672 5.7344 97.4848 100.352 106.08640001 108.95360001H2492.38400001c-20.0704-17.2032-111.8208-111.8208-111.82079999-111.82079999M1202.14400001 701.2352c-25.8048-8.6016-48.7424-14.33599999-48.7424-43.008 0-14.33599999 8.6016-37.27360001 45.8752-37.2736 17.2032 0 31.5392 5.7344 40.14080001 17.2032 0 0 17.2032-14.33599999 20.07039999-17.2032-14.33599999-14.33599999-31.5392-22.9376-57.344-22.9376-51.6096 0-71.68 34.4064-71.68 57.34399999 0 45.8752 34.4064 57.344 63.07840001 65.94560001 22.9376 8.6016 45.8752 14.33599999 45.8752 37.27359999 0 28.672-28.672 40.14079999-45.8752 40.14080001-20.0704 0-37.27360001-8.6016-45.87520001-22.9376-2.8672 2.8672-17.2032 14.33599999-20.0704 17.2032 14.33599999 17.2032 37.27360001 25.8048 65.94560001 25.8048 43.008 0 71.68-25.8048 71.68-65.9456-5.7344-34.4064-34.4064-43.008-63.07840001-51.6096m163.4304-94.6176h-74.54719999v212.1728h25.8048v-97.4848h51.6096c60.2112 0 65.94559999-40.14079999 65.94559999-57.344 0-17.2032-8.6016-57.344-68.8128-57.344m-8.6016 94.6176H1316.83200002v-77.4144h43.00799999c11.46880001 0 48.7424 0 48.7424 37.2736 0 40.14079999-37.27360001 40.14079999-51.6096 40.1408m172.03200001-94.6176h-74.5472v212.1728h68.8128c34.4064 0 65.94559999-11.46880001 86.016-31.5392 20.0704-20.0704 28.672-45.8752 28.67199999-74.5472 2.8672-11.46880001 0-106.0864-108.95359999-106.0864m-8.60160001 189.2352h-40.14079999V626.68800001h48.7424c86.016 0 88.88320001 74.5472 88.88319999 83.14879999-2.8672 60.2112-51.6096 86.016-97.4848 86.016m301.056-91.75039999c22.9376-8.6016 34.4064-25.8048 34.4064-45.87520001 0-31.5392-22.9376-51.6096-63.0784-51.6096h-71.68v212.1728h71.68c43.008 0 74.5472-22.9376 74.54720001-57.344 0-28.672-20.0704-57.344-45.87520001-57.34399999m-77.4144-80.28160001h48.7424c28.672 0 37.27360001 17.2032 37.2736 34.4064 0 22.9376-17.2032 34.4064-43.00799999 34.4064h-43.00800001v-68.8128z m48.7424 174.8992H1746.91200001v-83.1488h45.8752c31.5392 0 48.7424 14.33599999 48.74240001 43.00799999 0 37.27360001-37.27360001 40.14079999-48.74240001 40.14080001m174.89920001-192.1024c0 2.8672-91.75039999 206.4384-94.61760001 212.1728h28.672c0-2.8672 22.9376-54.4768 22.9376-54.4768H2033.63200001s20.0704 51.6096 22.9376 54.4768h28.672c-2.8672-5.7344-88.88320001-209.3056-91.75039999-212.1728h-25.8048z m-34.40640001 137.6256l45.8752-111.8208 45.8752 111.8208h-91.7504zM571.36000001 428.8512c57.344-45.8752 120.4224-43.008 143.36-40.1408-8.6016-25.8048-48.7424-108.9536-163.43039999-108.9536-65.94559999 0-108.9536 34.4064-131.8912 63.07840001-28.672 34.4064-37.27360001 74.5472-37.27360001 97.48479999-8.6016 100.352-63.07840001 149.0944-68.8128 154.8288-60.2112 48.7424-120.4224 43.008-143.36 37.2736 11.46880001 25.8048 51.6096 111.8208 166.29760001 108.9536 45.8752-2.8672 86.016-20.0704 120.42239999-54.4768 37.27360001-37.27360001 45.8752-97.4848 48.7424-114.688 8.6016-83.1488 48.7424-129.024 65.9456-143.36m289.58720001-163.43039999c0-20.0704-14.33599999-31.5392-14.33600001-31.53920001l-88.88319999-68.81280001s-17.2032-14.33599999-17.20320001 8.60160001V454.656c0 20.0704-5.7344 83.1488-60.21119999 129.024-65.94559999 54.4768-134.7584 51.6096-157.696 45.87519999 11.46880001 25.8048 60.2112 108.9536 172.03199999 108.95360001 100.352 0 169.16479999-88.88320001 169.1648-172.032V265.42080001z m-653.7216 169.16479999c65.94559999-54.4768 134.7584-51.6096 157.69599999-45.8752-11.46880001-25.8048-60.2112-108.9536-172.032-108.9536-100.352 0-169.16479999 88.88320001-169.1648 172.032v309.6576c0 20.0704 14.33599999 31.5392 14.336 31.5392l88.8832 68.81279999s17.2032 14.33599999 17.2032-8.60159999V563.6096c5.7344-20.0704 8.6016-83.1488 63.07840001-129.024" fill="#003F7B" p-id="19600"></path></svg>