<?xml version="1.0" standalone="no"?><!DOCTYPE svg PUBLIC "-//W3C//DTD SVG 1.1//EN" "http://www.w3.org/Graphics/SVG/1.1/DTD/svg11.dtd"><svg t="1547620222803" class="icon" style="" viewBox="0 0 1024 1024" version="1.1" xmlns="http://www.w3.org/2000/svg" p-id="2830" xmlns:xlink="http://www.w3.org/1999/xlink" width="200" height="200"><defs><style type="text/css"></style></defs><path d="M228.44967626 417.73459981a237.92587007 237.92587007 0 0 1 192.11288556-56.11933441c-15.20815073-31.73601856-74.28113534-132.59999676-206.88113209-132.59999676C91.38778436 229.07811273 9.2511995 336.91773053 9.2511995 437.59317794v372.85107905c0 23.62919413 17.84758194 37.95753497 17.84758193 37.95753496l108.71942773 83.39345639s21.55535533 18.22464355 21.55535533-9.61507081v-339.16690988c0-0.69127911-0.3142175-3.6449293-0.3142175-8.67241681 0-25.26312725 6.09582971-100.23554169 71.39032927-156.48056432m786.04775082-204.24169942c0-23.50350595-17.84758194-38.08322167-17.84758341-38.08322167L888.43316426 92.26759427s-21.74388613-18.22464355-21.74388465 9.61507082c0 94.51677508-0.2513749 333.51098587-0.25137492 333.51098586 0.2513749 0.62843649 0.37706159 3.6449293 0.3770616 8.6095742 0 25.26312725-5.90729891 100.23554169-71.45317332 156.41772022a237.67449517 237.67449517 0 0 1-191.86151071 56.18217851c15.39668155 31.73601856 74.15544865 132.59999676 206.94397473 132.59999676 122.29364535 0 204.36738761-107.83961782 204.36738761-208.51506519 0 0-0.2513749-193.30691447-0.25137489-367.19515653m-346.89667269 197.01468639l3.26786768-3.01649281c65.10597022-52.9771549 143.15772157-48.2010408 169.36350284-44.74464229-10.6205689-30.41630294-57.50189412-131.97156027-196.88899969-131.97156027-78.86871865 0-130.33762714 41.79099359-159.43421301 77.04625325-34.56398057 41.60246277-43.11070919 90.49478418-45.05886133 116.07212894-11.31184801 121.09961793-76.04075664 179.10426036-83.33061372 185.38862087-72.08160985 59.70141964-145.98568359 51.84597011-172.44283972 46.31573279 12.56871953 32.42729765 63.53487972 136.11923787 201.85364457 132.59999676 55.17668042-1.63393311 103.75478429-23.00075764 144.54027979-63.91194134 45.49876699-45.49876699 55.17668042-116.26065973 57.06198843-136.99904777 9.80360162-103.62909612 59.76426372-158.05165481 81.06824416-176.77904813" fill="#0E3868" p-id="2831"></path></svg>