<?xml version="1.0" standalone="no"?><!DOCTYPE svg PUBLIC "-//W3C//DTD SVG 1.1//EN" "http://www.w3.org/Graphics/SVG/1.1/DTD/svg11.dtd"><svg t="1547620201461" class="icon" style="" viewBox="0 0 1024 1024" version="1.1" xmlns="http://www.w3.org/2000/svg" p-id="2047" xmlns:xlink="http://www.w3.org/1999/xlink" width="200" height="200"><defs><style type="text/css"></style></defs><path d="M968.192 611.32800001c-4.608-54.27200001-29.184-99.32800001-64.51200001-132.09600001 0 1.02400001 18.432 86.016-16.89599998 171.52-35.328 86.016-117.24800001 180.736-169.47200001 211.456-53.248 30.72-130.04800001 90.624-288.768 88.576-158.72000001-2.048-235.51999999-66.048-235.52-66.048s39.93600001 38.4 96.76800001 70.65600001c31.74400001 18.432 73.216 30.208 105.47199999 41.98399999 55.29600002 19.96800001 284.672 55.29600002 482.816-128.00000002 118.784-139.264 90.112-258.04800003 90.112-258.04799997z" fill="#F89F00" p-id="2048"></path><path d="M281.59999999 253.44L537.60000003 506.87999999s61.952-68.096 180.73599997-81.408c119.296-12.79999999 235.51999999 63.99999999 247.29599999 189.44000001 0 0 28.672 119.296-90.624 258.048 0 0 119.296-110.08 142.848-275.45600001 24.064-165.37600001-33.28000001-308.22400002-128-394.75199999-78.84799998-71.168-226.81599999-164.35199999-468.99199998-50.17600004-46.59199999 20.992-91.13600001 56.832-139.26400002 100.86400004z" fill="#00469B" p-id="2049"></path><path d="M58.36799999 402.43199999c4.608 54.27200001 29.184 99.32800001 64.51200001 132.09600001 0-1.02400001-18.432-86.016 16.896-171.52 35.328-86.016 117.24800001-180.736 169.472-211.456s130.04800001-90.624 288.768-88.576c158.72000001 2.048 236.54400001 66.048 236.54400001 66.04800001s-39.93600001-38.4-96.76800001-70.65600002c-31.74400001-18.432-73.216-30.208-105.472-41.98399999C576.51200001-3.07200001 347.13599999-38.4 148.99199999 144.896 29.69599999 283.64799999 58.36799999 402.43199999 58.36799999 402.43199999z" fill="#F89F00" p-id="2050"></path><path d="M745.47200001 760.32L489.472 506.87999999s-61.952 68.096-180.73599999 81.40800001c-118.784 13.31200001-235.51999999-63.99999999-247.29600001-189.44 0 0-28.672-119.296 90.624-258.048 0 0-119.296 110.08-142.84799999 275.45600001s33.28000001 308.22400002 127.99999998 394.75199999c79.36 71.68 226.81599999 165.37600001 469.50400002 50.68800001 45.56800001-21.50400001 90.112-56.832 138.75199998-101.37600001z" fill="#00469B" p-id="2051"></path></svg>