<?xml version="1.0" standalone="no"?><!DOCTYPE svg PUBLIC "-//W3C//DTD SVG 1.1//EN" "http://www.w3.org/Graphics/SVG/1.1/DTD/svg11.dtd"><svg t="1547620049743" class="icon" style="" viewBox="0 0 1024 1024" version="1.1" xmlns="http://www.w3.org/2000/svg" p-id="3885" xmlns:xlink="http://www.w3.org/1999/xlink" width="200" height="200"><defs><style type="text/css"></style></defs><path d="M522.94856393 432.49358025c133.87337593 0 246.03755645 10.8545977 347.34713787 32.56379312 57.89118917 14.47279695 108.54598129 25.32739605 148.34617427 43.41839358l-513.78430972-513.78430968-510.16610908 510.16610908c43.41839225-18.0909962 101.30958141-32.56379453 170.0553697-43.41839223 108.54598129-18.0909962 227.94656027-28.94559529 358.20173696-28.94559387z" fill="#FDD000" p-id="3886"></path><path d="M504.85756635 1022.2600753l510.16611048-510.16610906c-72.36398751-7.23639847-170.05536969-7.23639847-293.07414792 3.61819923-133.87337593 10.8545977-220.71016038 21.70919682-271.36495249 39.80019299-43.41839225 14.47279695-68.74578829 36.18199377-61.50938842 54.27298992 0 7.23639847 3.61819922 18.0909962 10.85459769 25.32739607l14.47279694 10.85459769c18.0909962 14.47279695 28.94559529 18.0909962 32.56379455 21.7091954 18.0909962 14.47279695 21.70919682 32.56379453 18.09099619 50.65479216-7.23639847 28.94559529-61.50938841 57.89118917-170.05536971 90.45498368l209.85556269 213.47376192z" fill="#293C90" p-id="3887"></path></svg>