<?xml version="1.0" standalone="no"?><!DOCTYPE svg PUBLIC "-//W3C//DTD SVG 1.1//EN" "http://www.w3.org/Graphics/SVG/1.1/DTD/svg11.dtd"><svg t="1547622613522" class="icon" style="" viewBox="0 0 2560 1024" version="1.1" xmlns="http://www.w3.org/2000/svg" p-id="19467" xmlns:xlink="http://www.w3.org/1999/xlink" width="500" height="200"><defs><style type="text/css"></style></defs><path d="M452.07306667 451.7888c108.9536 0 203.5712 8.6016 286.72000001 25.8048 48.7424 11.46880001 88.88320001 20.0704 123.28959999 34.4064L437.73706668 87.65439999 16.25866668 509.1328c37.27360001-14.33599999 83.1488-25.8048 140.4928-34.40640001 88.88320001-14.33599999 189.2352-22.9376 295.32159999-22.93759999z" fill="#FDD000" p-id="19468"></path><path d="M437.73706668 936.34560001l421.4784-421.47840001c-60.2112-5.7344-140.49280001-5.7344-240.8448 2.8672-108.9536 8.6016-180.6336 17.2032-223.6416 31.53920001-37.27360001 11.46880001-57.344 28.672-51.6096 45.87519999 0 5.7344 2.8672 14.33599999 8.6016 20.0704l11.4688 8.6016c14.33599999 11.46880001 22.9376 14.33599999 25.8048 17.2032 14.33599999 11.46880001 17.2032 25.8048 14.336 43.008-5.7344 22.9376-51.6096 48.7424-140.4928 74.54719999l174.8992 177.76640002z" fill="#293C90" p-id="19469"></path><path d="M1091.45866668 557.8752V259.6864c0-2.8672 0-5.7344-2.8672-11.4688s-2.8672-11.46880001 0-14.336c2.8672-2.8672 14.33599999 0 31.53919999 5.73440001 17.2032 2.8672 22.9376 5.7344 25.8048 8.60159999 0 2.8672-2.8672 5.7344-8.60159999 8.6016l-2.8672 2.8672v120.4224h71.67999999c5.7344-14.33599999 17.2032-25.8048 25.8048-34.40640001h5.73440001c17.2032 14.33599999 31.5392 25.8048 45.87519999 34.40640001 2.8672 5.7344 0 8.6016-2.86719999 8.6016H1134.46666668v172.032h97.48479999c8.6016-14.33599999 17.2032-22.9376 28.67200001-31.5392h5.7344c22.9376 14.33599999 40.14079999 22.9376 45.8752 31.5392 2.8672 2.8672 2.8672 5.7344-2.86720001 8.6016H982.50506668c-2.8672 0-11.46880001 0-25.8048 2.8672l-8.60160001-11.4688c2.8672 0 8.6016 0 11.46880001 2.8672h131.8912v-5.7344zM1547.34346668 354.304c22.9376 5.7344 37.27360001 20.0704 40.14079999 34.4064 0 14.33599999-5.7344 22.9376-17.20319999 25.8048-14.33599999 2.8672-20.0704-2.8672-20.0704-17.20320001 0-2.8672 0-5.7344 2.8672-8.60159999 2.8672-5.7344 0-17.2032-5.7344-31.5392-5.7344-2.8672-5.7344-2.8672 0-2.8672z m-11.46880001 88.8832s0-2.8672 2.86720001-2.8672c22.9376 5.7344 37.27360001 20.0704 40.1408 40.1408 0 11.46880001-8.6016 17.2032-20.07040001 20.07039999-14.33599999 0-20.0704-2.8672-20.07039999-14.33599999 0 0 0-2.8672 2.86719999-8.6016 5.7344-8.6016 2.8672-20.0704-5.7344-34.4064z m-8.60159999-97.48480001l-14.336 74.54720002h106.08639999V345.70239999h-91.75039999z m-14.336 86.01600001l-17.2032 80.2816v2.8672h106.0864c5.7344-20.0704 11.46880001-45.8752 14.336-83.1488h-103.2192z m43.008-183.5008l-11.4688 5.7344c-5.7344 11.46880001-14.33599999 20.0704-17.2032 22.9376-2.8672 2.8672-2.8672 5.7344-5.7344 8.6016h117.55519999V282.624c11.46880001-17.2032 20.0704-25.8048 25.8048-28.672h5.7344c25.8048 14.33599999 40.14079999 25.8048 43.008 31.5392 0 2.8672 0 5.7344-2.86719999 5.73440001h-194.96960001c-20.0704 25.8048-43.008 45.8752-63.07839999 65.94559999-2.8672 2.8672-2.8672 0-2.8672-2.8672 22.9376-43.008 40.14079999-88.88320001 51.6096-131.8912 0 0 2.8672-2.8672 5.73439999-2.8672l17.20320001 8.6016c14.33599999 5.7344 25.8048 8.6016 31.5392 11.46880001v8.60159999z m-54.4768 272.384l-14.336 11.4688c-2.8672 2.8672-2.8672 2.8672-5.73440001 2.8672-14.33599999-14.33599999-22.9376-22.9376-25.8048-28.672 0 0-2.8672 0-2.86719999-2.8672l2.86719999-2.86720001c8.6016-8.6016 14.33599999-31.5392 22.93760001-68.81279999h-31.5392l-8.60160001-11.46879999c2.8672 0 8.6016 2.8672 11.46880001 2.86719998h28.672c8.6016-43.008 11.46880001-74.5472 14.336-94.61759999 0-2.8672 2.8672-2.8672 5.7344-2.8672 14.33599999 5.7344 25.8048 11.46880001 31.5392 14.336h80.28159999l5.73440001-5.7344c5.7344-2.8672 8.6016-5.7344 11.4688-8.6016h5.7344c8.6016 5.7344 22.9376 11.46880001 34.4064 22.9376v5.7344c-2.8672 0-5.7344 2.8672-8.6016 5.7344-2.8672 2.8672-5.7344 2.8672-5.7344 2.8672V425.984h5.7344c8.6016-11.46880001 17.2032-20.0704 22.9376-25.8048h5.73439999c14.33599999 8.6016 25.8048 20.0704 34.4064 28.672 0 2.8672 0 5.7344-2.86719999 5.7344h-65.9456c0 17.2032 0 31.5392-2.8672 45.8752 0 14.33599999-2.8672 25.8048-5.73440001 40.1408h2.86720001c5.7344-11.46880001 14.33599999-20.0704 22.93759999-25.8048h5.73440001c14.33599999 8.6016 25.8048 17.2032 34.4064 28.67200001 0 2.8672 0 5.7344-2.8672 5.73439999h-63.07840001c-11.46880001 40.14079999-34.4064 60.2112-68.81279999 60.2112-2.8672 0-5.7344 0-5.7344-2.8672-5.7344-20.0704-17.2032-31.5392-34.40640001-34.40640001-2.8672-11.46880001 0-11.46880001 2.86720001-11.46879999 28.672 8.6016 51.6096 2.8672 63.0784-17.20319999h-100.352v-2.86720001z m-94.61760001-235.1104c-2.8672-2.8672-2.8672-5.7344-2.8672-11.4688 0-11.46880001-5.7344-22.9376-20.07039999-34.40639999-2.8672 0-2.8672 0-2.86720001-2.86720001 0 0 2.8672-2.8672 5.7344-2.8672 31.5392 2.8672 51.6096 14.33599999 57.34400001 31.53920001 2.8672 11.46880001-2.8672 20.0704-14.33600001 25.8048-8.6016 5.7344-17.2032 2.8672-22.9376-5.73440001z m-31.53919999 88.8832c-2.8672-2.8672-2.8672-5.7344-5.7344-14.336 0-11.46880001-5.7344-22.9376-14.33600001-34.4064-2.8672 0-2.8672 0-2.8672-2.8672 0 0 2.8672-2.8672 5.73440001-2.86720001 25.8048 5.7344 43.008 17.2032 48.74239999 31.53920001 2.8672 11.46880001 0 20.0704-8.60159999 25.8048-8.6016 8.6016-17.2032 5.7344-22.9376-2.8672z m83.14879999-83.14879999c-22.9376 94.6176-37.27360001 157.696-43.00799999 189.23519999-2.8672 14.33599999 0 28.672 8.6016 45.87519999 5.7344 11.46880001 8.6016 20.0704 8.60159999 22.93760002-2.8672 17.2032-11.46880001 25.8048-28.672 25.8048-20.0704-2.8672-28.672-11.46880001-25.8048-28.67200001V512c-2.8672-22.9376-14.33599999-34.4064-25.8048-34.4064-2.8672 0-2.8672-2.8672-2.86719999-5.73439999s2.8672-2.8672 5.73439999-2.86720001c25.8048 11.46880001 57.344-45.8752 97.48480001-177.76639999 0 0 0-2.8672 2.86719999-2.86720001 0 0 2.8672 0 2.8672 2.86720001zM2011.82986668 394.44480001h-40.14080001v126.15679999c34.4064-20.0704 51.6096-28.672 51.6096-28.672-5.7344-25.8048-11.46880001-57.344-11.46879999-97.48479999z m-40.14080001-65.94560001v57.344h86.016v-57.344h-86.016z m0-65.9456v57.34399999h86.016v-57.34399999h-86.016zM1937.28266668 534.9376v-263.7824l-2.8672-31.53919999c0-2.8672 0-2.8672 2.8672-2.86720001 22.9376 8.6016 40.14079999 14.33599999 45.8752 17.2032h71.68l5.7344-5.7344c5.7344-5.7344 8.6016-11.46880001 11.4688-11.4688 14.33599999 5.7344 25.8048 11.46880001 34.4064 20.0704 0 2.8672-2.8672 5.7344-8.6016 11.46879999l-2.8672 2.86720001V397.31199999c-20.0704 11.46880001-31.5392 11.46880001-34.4064 0v-8.60159999h-40.1408c5.7344 28.672 14.33599999 54.4768 25.8048 77.4144 14.33599999-17.2032 25.8048-37.27360001 34.4064-60.2112 2.8672 0 5.7344-2.8672 8.6016-2.8672 5.7344 2.8672 11.46880001 8.6016 22.9376 17.20320001 2.8672 2.8672 8.6016 2.8672 11.4688 5.73439999v5.7344c-2.8672 0-5.7344 2.8672-8.6016 2.8672-2.8672 0-5.7344 2.8672-5.73440001 2.8672-5.7344 2.8672-8.6016 8.6016-14.33599999 11.46879999-14.33599999 11.46880001-28.672 20.0704-40.1408 28.67200001 20.0704 31.5392 43.008 51.6096 71.67999999 60.2112 2.8672 2.8672 2.8672 5.7344 2.8672 8.6016-20.0704 5.7344-34.4064 14.33599999-43.00799999 28.67200001h-8.60160001c-22.9376-25.8048-40.14079999-51.6096-48.74239999-77.4144l-40.1408 40.14079999c-20.0704 20.0704-31.5392 31.5392-40.14080001 43.008-5.7344 0-8.6016 0-8.60159999-2.86720001-2.8672-2.8672-5.7344-8.6016-14.336-20.07039999-5.7344-5.7344-8.6016-8.6016-8.6016-11.4688-2.8672-2.8672-2.8672-5.7344 2.86719999-8.6016 0 2.8672 5.7344 0 17.20320001-2.8672z m-71.68-20.0704l63.07839999-31.5392c2.8672 0 2.8672 0 5.73440001 2.8672v5.7344c-37.27360001 37.27360001-65.94559999 65.94559999-86.016 88.8832-2.8672 2.8672-5.7344 2.8672-11.4688 0l-22.9376-40.1408s0-2.8672 2.86719999-5.7344l14.33600001-8.60160001v-94.61759999h-43.008l-8.6016-11.46879999c2.8672 0 8.6016 2.8672 14.33599999 2.86719998h40.14080001v-51.6096h-28.672l-11.46880001-11.46879999c2.8672 0 8.6016 2.8672 14.33600001 2.8672h57.344c5.7344-5.7344 11.46880001-14.33599999 20.0704-22.9376h5.7344c14.33599999 11.46880001 22.9376 20.0704 25.8048 25.8048 0 2.8672-2.8672 2.8672-2.8672 5.73439999H1879.93866668s0 2.8672-2.86720001 2.86720001h-2.86719999l-8.6016 8.6016v40.14079999h11.46879999c5.7344-5.7344 11.46880001-14.33599999 20.0704-22.93759999h5.7344c14.33599999 11.46880001 22.9376 20.0704 25.8048 25.8048 0 2.8672-2.8672 2.8672-2.86719999 5.7344h-60.2112v83.1488z m5.73439999-266.6496l-20.0704 8.6016c-2.8672 5.7344-5.7344 11.46880001-11.46879999 20.0704-5.7344 8.6016-8.6016 17.2032-11.4688 20.0704h48.74239999s5.7344-5.7344 11.46880001-14.336c2.8672-5.7344 5.7344-8.6016 8.60159999-11.4688h5.7344c11.46880001 8.6016 20.0704 20.0704 25.8048 25.8048 0 2.8672-2.8672 5.7344-2.86719999 5.7344H1822.59466668c-14.33599999 22.9376-28.672 43.008-48.74240001 63.0784-2.8672 2.8672-2.8672 2.8672-5.7344 2.86720001v-5.73440001c17.2032-28.672 31.5392-74.5472 43.00800001-137.6256 0 0 2.8672-2.8672 8.60159999-2.8672l51.6096 17.20320001v8.60159999zM2350.15946668 265.42080001h94.61759999s5.7344-5.7344 11.46880001-14.33600001c5.7344-5.7344 8.6016-11.46880001 11.4688-14.336h5.7344c17.2032 11.46880001 31.5392 20.0704 37.2736 28.67200001 2.8672 2.8672 2.8672 5.7344-2.8672 8.60159999h-160.5632l-8.6016-11.4688c2.8672 2.8672 5.7344 2.8672 11.4688 2.86720001z m83.1488 269.51679999v-160.5632h-88.8832c-8.6016 0-17.2032 2.8672-22.9376 2.8672l-8.6016-11.4688c2.8672 0 8.6016 2.8672 14.336 2.86720001h137.62559999c2.8672-2.8672 5.7344-5.7344 11.46880001-14.33600001s11.46880001-14.33599999 14.33599999-17.2032h5.7344s0 2.8672 2.86720001 2.8672c22.9376 14.33599999 37.27360001 25.8048 40.14079999 28.67200001 0 2.8672-2.8672 5.7344-5.73439999 5.73439999h-48.7424l-8.6016 8.6016c-2.8672 2.8672-5.7344 5.7344-5.73440001 8.6016v106.08640001c0 17.2032 0 31.5392 2.86720001 43.00799999 0 5.7344 2.8672 11.46880001 2.8672 17.2032 0 8.6016-17.2032 17.2032-48.7424 20.07039999-2.8672 0-5.7344-2.8672-5.7344-5.73439999-5.7344-17.2032-20.0704-28.672-40.1408-31.5392-2.8672 0-2.8672 0-2.8672-2.8672s0-2.8672 2.8672-2.8672c20.0704 2.8672 37.27360001 2.8672 51.6096 0z m-143.36000001-137.62560001v172.03200001c-2.8672 2.8672-8.6016 8.6016-22.93759999 11.4688-11.46880001 0-17.2032 0-17.2032-5.73439999v-169.16480001c-20.0704 17.2032-40.14079999 31.5392-63.07840001 43.00799999-2.8672 0-2.8672 0-2.86719999-5.73439999 31.5392-31.5392 63.07840001-77.4144 88.8832-134.7584h5.7344c11.46880001 5.7344 25.8048 17.2032 43.008 25.8048v5.7344c-2.8672 0-2.8672 2.8672-5.73440001 2.86720001s-8.6016 2.8672-11.46879999 2.86719998c-8.6016 8.6016-17.2032 17.2032-22.93760001 25.8048 8.6016 2.8672 11.46880001 5.7344 14.33600001 5.73440001 2.8672 2.8672 2.8672 5.7344 2.8672 8.6016-8.6016 5.7344-8.6016 8.6016-8.60160001 11.46879999z m-11.46879999-166.29759999c17.2032 11.46880001 28.672 22.9376 40.1408 31.5392 0 2.8672 0 5.7344-2.86720001 5.73439999-8.6016 0-14.33599999 2.8672-17.20319999 5.73440001-43.008 34.4064-83.1488 54.4768-117.55520001 65.9456-2.8672 0-2.8672-2.8672-2.8672-5.7344 28.672-20.0704 60.2112-54.4768 91.75040001-103.2192h8.6016zM996.84106668 764.3136h17.2032c17.2032 0 25.8048-8.6016 25.8048-25.8048 0-11.46880001-2.8672-17.2032-8.6016-22.9376-2.8672-2.8672-5.7344-2.8672-8.6016-5.7344h-25.8048v54.4768z m0-65.9456h11.4688c8.6016 0 17.2032-2.8672 20.0704-5.7344 5.7344-5.7344 8.6016-11.46880001 8.6016-22.9376 0-17.2032-8.6016-25.8048-25.8048-25.8048h-14.336v54.4768z m-22.93760001-63.0784H1019.77866667c11.46880001 0 20.0704 2.8672 28.67200001 8.6016 8.6016 5.7344 11.46880001 14.33599999 11.4688 28.672 0 11.46880001-5.7344 22.9376-14.33600001 28.672-2.8672 2.8672-8.6016 2.8672-14.33599999 5.73439999 5.7344 0 11.46880001 2.8672 14.33599999 5.73440001 11.46880001 5.7344 17.2032 17.2032 17.20320001 28.672 0 14.33599999-5.7344 22.9376-14.336 31.5392-5.7344 5.7344-14.33599999 8.6016-25.8048 8.60160001h-51.6096v-134.75840001c2.8672-8.6016 2.8672-11.46880001 2.86719999-11.4688zM1143.06826668 709.8368c-2.8672 2.8672-5.7344 2.8672-5.7344 2.8672s-5.7344 2.8672-17.20320001 5.7344c-8.6016 2.8672-11.46880001 5.7344-17.2032 11.46880001-2.8672 2.8672-5.7344 8.6016-5.7344 14.33599999s2.8672 11.46880001 5.7344 14.33599999c2.8672 2.8672 8.6016 5.7344 14.33600001 5.73440001 8.6016 0 14.33599999-2.8672 20.0704-11.4688 2.8672-5.7344 5.7344-8.6016 5.7344-14.336v-28.672z m0 51.6096l-11.4688 11.4688c-5.7344 2.8672-14.33599999 5.7344-22.9376 5.7344-8.6016 0-14.33599999-2.8672-20.0704-8.6016-5.7344-5.7344-8.6016-14.33599999-8.6016-22.9376 0-11.46880001 5.7344-20.0704 14.33599999-25.8048 2.8672-2.8672 8.6016-5.7344 11.46880001-5.7344 2.8672 0 11.46880001-2.8672 22.93759999-8.60160001 5.7344-2.8672 8.6016-2.8672 11.46880001-5.73439999 2.8672-2.8672 2.8672-5.7344 2.8672-8.6016 0-5.7344-2.8672-8.6016-5.7344-11.46880001-2.8672-2.8672-8.6016-5.7344-14.33600001-5.73439999s-8.6016 0-14.33599999 2.86720001c-2.8672 2.8672-8.6016 5.7344-14.33600001 8.60159999l-2.86719999-14.336c8.6016-2.8672 14.33599999-5.7344 20.0704-8.6016 5.7344 0 11.46880001-2.8672 20.0704-2.8672 11.46880001 0 20.0704 2.8672 25.8048 5.7344 5.7344 5.7344 8.6016 11.46880001 8.6016 20.0704v65.9456c0 5.7344 2.8672 8.6016 5.73439999 8.6016s2.8672 0 8.6016-2.86720001v11.46880001c-5.7344 2.8672-11.46880001 5.7344-17.20319999 5.7344-5.7344 0-8.6016 0-11.4688-2.8672-5.7344 0-5.7344-5.7344-8.6016-11.4688zM1191.81066668 666.8288h22.9376v14.33599999c2.8672-5.7344 5.7344-8.6016 11.46879999-11.46879999 5.7344-5.7344 14.33599999-5.7344 22.9376-5.7344 11.46880001 0 22.9376 2.8672 28.672 11.4688 2.8672 5.7344 5.7344 11.46880001 5.7344 20.0704V775.7824h-22.93759999v-77.4144c0-5.7344-2.8672-11.46880001-5.7344-14.336-2.8672-2.8672-8.6016-5.7344-14.336-5.73439999-8.6016 0-14.33599999 2.8672-20.0704 5.73439999-5.7344 5.7344-5.7344 11.46880001-5.7344 20.07040001v71.67999999H1191.81066668v-103.2192c2.8672-2.8672 0-5.7344 0-5.7344zM1332.30346668 718.4384v57.344h-22.93760001V629.55519999v-5.73439999h25.8048v86.016l37.27360001-40.1408c0-2.8672 2.8672-2.8672 2.8672-5.7344h17.2032l-5.73440001 5.7344-34.4064 34.40640001 51.6096 63.07839999 5.73440001 5.7344h-28.67200001c-2.8672-2.8672-2.8672-5.7344-2.8672-5.7344l-45.87519999-48.7424zM1515.80426667 672.5632c-2.8672 0-8.6016 0-11.46879999 2.8672l-8.6016 8.6016c-5.7344 8.6016-8.6016 20.0704-8.6016 37.2736 0 14.33599999 2.8672 28.672 8.6016 37.27359999l8.6016 8.60160001c2.8672 2.8672 8.6016 2.8672 11.46879999 2.8672 2.8672 0 8.6016 0 11.46880001-2.8672l8.60159999-8.60160001c5.7344-8.6016 8.6016-20.0704 8.60160001-37.27359999 0-14.33599999-2.8672-28.672-8.60160001-37.2736-2.8672-8.6016-11.46880001-11.46880001-20.0704-11.4688z m0-8.6016c17.2032 0 28.672 5.7344 37.27360001 17.20319999 8.6016 11.46880001 11.46880001 22.9376 11.4688 40.14080001 0 17.2032-5.7344 31.5392-14.336 43.008-8.6016 8.6016-20.0704 14.33599999-37.2736 14.336-17.2032 0-28.672-5.7344-37.2736-17.2032-8.6016-11.46880001-14.33599999-25.8048-14.336-43.008s5.7344-28.672 14.336-40.14079999c11.46880001-8.6016 25.8048-14.33599999 40.14079999-14.33600001zM1593.21866667 675.4304h-11.46879999v-11.4688h11.46879999v-20.0704c0-8.6016 2.8672-14.33599999 5.73440001-17.20319999 5.7344-5.7344 14.33599999-8.6016 25.8048-8.60160001 5.7344 0 17.2032 2.8672 25.8048 5.7344l-5.73440001 11.4688c-5.7344-2.8672-11.46880001-5.7344-17.20319999-5.73440001-5.7344 0-8.6016 0-11.4688 2.86720001-2.8672 2.8672-2.8672 5.7344-2.86720001 11.4688v17.2032h31.5392v11.4688h-31.5392v103.2192h-22.93759999v-100.352h2.86719999zM1705.03946668 767.1808l5.7344-17.2032 8.6016 8.60159999c8.6016 5.7344 14.33599999 8.6016 22.93759999 8.60160001 8.6016 0 14.33599999-2.8672 20.07040001-8.60160001 5.7344-5.7344 5.7344-11.46880001 5.73439999-17.20319999 0-8.6016-2.8672-14.33599999-8.60159999-20.0704-2.8672-2.8672-11.46880001-5.7344-20.07040001-11.4688-11.46880001-5.7344-20.0704-11.46880001-25.8048-17.2032-5.7344-5.7344-8.6016-14.33599999-8.60159999-22.9376 0-8.6016 2.8672-14.33599999 5.7344-20.0704 8.6016-11.46880001 22.9376-17.2032 40.1408-17.2032 11.46880001 0 22.9376 2.8672 31.5392 8.6016v14.33599999c-11.46880001-8.6016-20.0704-11.46880001-28.672-11.46879999-8.6016 0-14.33599999 2.8672-17.2032 5.7344-2.8672 2.8672-5.7344 8.6016-5.7344 14.336s2.8672 11.46880001 5.7344 14.33600001c2.8672 2.8672 11.46880001 8.6016 22.9376 14.33599999 14.33599999 5.7344 22.9376 11.46880001 25.8048 17.2032 5.7344 8.6016 8.6016 14.33599999 8.60159999 25.8048 0 8.6016-2.8672 14.33599999-5.73439999 22.93759999-8.6016 14.33599999-22.9376 20.0704-43.008 20.07040001-5.7344 0-14.33599999 0-20.0704-2.8672-5.7344-2.8672-11.46880001-5.7344-20.0704-8.6016zM1813.99306668 775.7824V629.55519999v-5.73439999h22.9376v54.47680001c5.7344-5.7344 8.6016-11.46880001 14.33599999-14.33600001 5.7344-2.8672 11.46880001-2.8672 20.0704-2.8672 11.46880001 0 20.0704 2.8672 25.8048 8.6016 5.7344 5.7344 8.6016 14.33599999 8.60160001 22.9376V775.7824h-22.9376v-71.67999999c0-8.6016-2.8672-14.33599999-5.73440001-17.20320001-2.8672-2.8672-8.6016-5.7344-17.20319999-5.73440001s-14.33599999 2.8672-20.0704 5.73440001c-5.7344 5.7344-5.7344 11.46880001-5.7344 17.20320001v71.67999999h-20.0704zM1986.02506668 709.8368c-2.8672 2.8672-2.8672 2.8672-5.73440001 2.8672 0 0-5.7344 2.8672-17.20319999 5.7344-8.6016 2.8672-11.46880001 5.7344-14.33600001 11.46880001-2.8672 2.8672-5.7344 8.6016-5.73439999 14.33599999s2.8672 11.46880001 5.73439999 14.33599999c2.8672 2.8672 8.6016 5.7344 14.33600001 5.73440001 8.6016 0 14.33599999-2.8672 20.0704-11.4688 2.8672-5.7344 5.7344-8.6016 5.7344-14.336v-28.672h-2.8672z m0 51.6096l-11.46880001 11.4688c-5.7344 2.8672-14.33599999 5.7344-22.93759999 5.7344-8.6016 0-14.33599999-2.8672-20.0704-8.6016-5.7344-5.7344-8.6016-14.33599999-8.60160001-22.9376 0-11.46880001 5.7344-20.0704 14.33600001-25.8048 2.8672-2.8672 8.6016-5.7344 11.46879999-5.7344 2.8672 0 11.46880001-2.8672 22.9376-8.60160001 5.7344-2.8672 8.6016-2.8672 11.46880001-5.73439999 2.8672-2.8672 2.8672-5.7344 2.8672-8.6016 0-5.7344-2.8672-8.6016-5.73440001-11.46880001-2.8672-2.8672-8.6016-5.7344-14.33599999-5.73439999s-8.6016 0-14.336 2.86720001c-2.8672 2.8672-8.6016 5.7344-14.336 8.60159999l-2.8672-14.336c8.6016-2.8672 14.33599999-5.7344 20.07039999-8.6016 5.7344 0 11.46880001-2.8672 20.0704-2.8672 11.46880001 0 20.0704 2.8672 25.8048 5.7344 5.7344 5.7344 8.6016 11.46880001 8.60160001 20.0704v65.9456c0 5.7344 2.8672 8.6016 5.7344 8.6016s2.8672 0 8.60159999-2.86720001v11.46880001c-5.7344 2.8672-11.46880001 5.7344-17.2032 5.7344-5.7344 0-8.6016 0-11.46879999-2.8672-2.8672 0-5.7344-5.7344-8.6016-11.4688zM2037.63466668 666.8288h22.9376v14.33599999c2.8672-5.7344 5.7344-8.6016 11.4688-11.46879999 5.7344-5.7344 14.33599999-5.7344 22.9376-5.7344 11.46880001 0 22.9376 2.8672 28.672 11.4688 2.8672 5.7344 5.7344 11.46880001 5.73439999 20.0704V775.7824h-22.93759999v-77.4144c0-5.7344-2.8672-11.46880001-5.73440001-14.336-2.8672-2.8672-8.6016-5.7344-14.33599999-5.73439999-8.6016 0-14.33599999 2.8672-20.0704 5.73439999-5.7344 5.7344-5.7344 11.46880001-5.7344 20.07040001v71.67999999h-22.9376v-103.2192-5.7344zM2201.06506668 675.4304c-8.6016 0-17.2032 2.8672-20.07040001 11.4688-2.8672 5.7344-5.7344 14.33599999-5.73439999 25.8048s2.8672 20.0704 5.73439999 28.672c5.7344 5.7344 11.46880001 8.6016 20.07040001 8.6016 8.6016 0 14.33599999-2.8672 20.0704-11.4688 5.7344-5.7344 5.7344-17.2032 5.7344-25.8048 0-11.46880001-2.8672-20.0704-5.7344-25.8048-5.7344-8.6016-11.46880001-11.46880001-20.0704-11.4688z m-45.87520001 111.8208l-2.8672-17.2032 22.93760001-17.2032c-5.7344-2.8672-11.46880001-8.6016-14.33600001-11.4688-5.7344-5.7344-8.6016-17.2032-8.6016-28.672 0-17.2032 5.7344-28.672 14.33600001-37.2736 8.6016-8.6016 20.0704-11.46880001 34.4064-11.4688h11.46879999c2.8672 0 5.7344-2.8672 8.60160001-5.7344 2.8672-2.8672 2.8672-5.7344 2.8672-11.4688h20.0704c0 5.7344-2.8672 8.6016-5.73440001 11.4688-2.8672 2.8672-5.7344 5.7344-11.46879999 8.6016 5.7344 2.8672 11.46880001 5.7344 14.336 11.46880001 5.7344 8.6016 11.46880001 20.0704 11.4688 31.53919999 0 14.33599999-2.8672 25.8048-11.4688 34.4064-5.7344 5.7344-14.33599999 11.46880001-25.8048 11.46880001-2.8672 0-5.7344 0-14.336 2.86719998-2.8672 0-8.6016 2.8672-11.4688 2.86720001l-20.0704 11.4688c20.0704-5.7344 34.4064-5.7344 43.00799999-5.7344 11.46880001 0 20.0704 2.8672 28.67200001 5.7344 2.8672 2.8672 8.6016 2.8672 8.6016 8.60160001 2.8672 2.8672 2.8672 5.7344 2.8672 11.46879999 0 8.6016-2.8672 11.46880001-11.4688 17.20319999-8.6016 2.8672-20.0704 5.7344-34.40640001 5.73440001s-31.5392-2.8672-54.4768-8.60159999V798.72c17.2032 2.8672 31.5392 5.7344 43.00800001 5.7344 8.6016 0 14.33599999 0 20.0704-2.8672 5.7344-2.8672 8.6016-5.7344 8.6016-8.6016 0-2.8672-2.8672-5.7344-8.6016-8.60160001-5.7344-2.8672-14.33599999-2.8672-22.9376-2.86719998-8.6016-2.8672-20.0704 0-37.27360001 5.73439999zM2272.74506668 775.7824V629.55519999v-5.73439999h22.9376v54.47680001c5.7344-5.7344 8.6016-11.46880001 14.33599999-14.33600001 5.7344-2.8672 11.46880001-2.8672 20.07040001-2.8672 11.46880001 0 20.0704 2.8672 25.8048 8.6016 5.7344 5.7344 8.6016 14.33599999 8.6016 22.9376V775.7824h-22.93760001v-71.67999999c0-8.6016-2.8672-14.33599999-5.7344-17.20320001-2.8672-2.8672-8.6016-5.7344-17.20319999-5.73440001s-14.33599999 2.8672-20.0704 5.73440001c-5.7344 5.7344-5.7344 11.46880001-5.7344 17.20320001v71.67999999h-20.0704zM2444.77706667 709.8368c-2.8672 2.8672-2.8672 2.8672-5.7344 2.8672 0 0-5.7344 2.8672-17.20319999 5.7344-8.6016 2.8672-11.46880001 5.7344-17.2032 11.46880001-2.8672 2.8672-5.7344 8.6016-5.7344 14.33599999s2.8672 11.46880001 5.7344 14.33599999c2.8672 2.8672 8.6016 5.7344 14.33599999 5.73440001 8.6016 0 14.33599999-2.8672 20.0704-11.4688 2.8672-5.7344 5.7344-8.6016 5.7344-14.336v-28.672z m0 51.6096l-11.46879999 11.4688c-5.7344 2.8672-14.33599999 5.7344-22.93760001 5.7344-8.6016 0-14.33599999-2.8672-20.07039999-8.6016-5.7344-5.7344-8.6016-14.33599999-8.6016-22.9376 0-11.46880001 5.7344-20.0704 14.336-25.8048 2.8672-2.8672 8.6016-5.7344 11.4688-5.7344 2.8672 0 11.46880001-2.8672 22.9376-8.60160001 5.7344-2.8672 8.6016-2.8672 11.4688-5.73439999 2.8672-2.8672 2.8672-5.7344 2.86719999-8.6016 0-5.7344-2.8672-8.6016-5.7344-11.46880001-2.8672-2.8672-8.6016-5.7344-14.33599999-5.73439999s-8.6016 0-14.33600001 2.86720001c-2.8672 2.8672-8.6016 5.7344-14.33599999 8.60159999l-2.86720001-14.336c8.6016-2.8672 14.33599999-5.7344 20.0704-8.6016 5.7344 0 11.46880001-2.8672 20.07040001-2.8672 11.46880001 0 20.0704 2.8672 25.8048 5.7344 5.7344 5.7344 8.6016 11.46880001 8.6016 20.0704v65.9456c0 5.7344 2.8672 8.6016 5.7344 8.6016s2.8672 0 8.6016-2.86720001v11.46880001c-5.7344 2.8672-11.46880001 5.7344-17.20320001 5.7344-5.7344 0-8.6016 0-11.46879999-2.8672-2.8672 0-5.7344-5.7344-8.60160001-11.4688zM2496.38666667 666.8288h22.93760001V775.7824h-22.93760001v-103.2192-5.7344z m11.46880001-31.5392c2.8672 0 8.6016 0 8.60159999 2.8672 2.8672 2.8672 2.8672 2.8672 2.86720001 8.6016 0 2.8672 0 5.7344-2.86720001 8.60159999h-8.60159999c-8.6016 0-14.33599999-2.8672-14.336-8.60159999 0-2.8672 0-5.7344 2.86719999-8.6016 2.8672-2.8672 5.7344-2.8672 11.46880001-2.8672z" fill="#231815" p-id="19470"></path></svg>