<?xml version="1.0" standalone="no"?><!DOCTYPE svg PUBLIC "-//W3C//DTD SVG 1.1//EN" "http://www.w3.org/Graphics/SVG/1.1/DTD/svg11.dtd"><svg t="1547622513084" class="icon" style="" viewBox="0 0 1820 1024" version="1.1" xmlns="http://www.w3.org/2000/svg" p-id="16445" xmlns:xlink="http://www.w3.org/1999/xlink" width="355.46875" height="200"><defs><style type="text/css"></style></defs><path d="M1372.96705423 600.5179073c-2.9859139-0.28895898-23.30939429 0.77055898-49.60470248-14.83325155l-2.21535594-22.63515531s25.81370921 27.35482616 52.4942974 28.70330413c12.61789562 0.48159898 28.51066413-6.54974679 31.20761905-21.09403936 2.9859139-16.66332749-5.10494984-24.27259225-31.49657803-37.27576686-25.81370921-13.0031746-50.85686044-23.69467327-47.10038858-47.19670756 2.11903594-13.0031746 20.41980038-29.4738621 49.21942451-29.66650209 10.49885968-0.28895898 24.46523225 1.05951797 45.36663061 10.98045867l1.63743695 18.49340342c-21.76827733-20.03452038-40.93591975-21.86459733-49.50838349-20.32348038-22.8277953 4.43071086-36.31256889 25.52475022 9.15038273 46.61878857 27.45114616 12.8105346 48.64150451 23.21307429 48.9304645 47.19670858 0.28895898 36.40888889-47.58198756 41.89911771-58.08084723 41.03223974zM1535.65121727 598.10991137c-14.64061156-14.92957054-32.45977702-32.941376-55.19125231-70.50610185l2.21535593-2.69695492c28.70330413 2.79327492 39.87640178-11.65469765 39.78008178-28.31802412-0.09632-14.06269257-9.24670171-29.37754311-47.19670756-27.16218718v106.04811276c0 6.64606679-0.28895898 12.61789562 4.04543188 22.34619632h-30.91866007c4.33439187-9.7283007 4.04543187-15.70012952 4.04543289-22.34619632v-93.52653714c0-6.64606679 0.28895898-12.8105346-4.04543289-22.63515632h28.89594413c19.26396241 0 69.83186387-4.91231086 69.83186387 36.31256889 0 27.35482616-24.07995327 39.58744279-40.35800177 40.64696076 16.18172851 18.97500343 26.48794819 31.40025905 64.43795403 61.74100013h-35.54200991zM1642.27724902 599.36206933c-40.35800076 0.48159898-76.38161067-26.48794819-76.38161067-68.5797059 0-35.9272899 31.68921803-71.37298083 76.09265067-71.66193981 14.83325054 0 30.43706006 3.56383289 45.7519106 12.32893562l1.83007695 21.86459733s-19.9382014-22.8277953-47.48566755-22.8277953c-40.35800076 0-52.87957638 35.9272899-51.33845943 57.79188724 2.79327492 37.17944787 29.6665021 60.87412114 53.16853638 60.29620216 19.16764241-0.28895898 32.45977702-6.64606679 45.7519106-20.80507937l3.37119289 12.32893562c-15.02589054 12.32893562-31.88185803 18.97500343-50.76054044 19.26396241zM1752.65975264 597.82095238h-44.59607264c4.14175187-9.53566171 3.85279289-12.13629663 3.85279289-22.44251632v-93.71917714c0-10.30621968 0.28895898-12.61789562-3.85279289-22.44251632h41.32119975c40.55064076 0 51.82005841 13.87005257 52.10901841 31.88185803 0.28895898 10.59517968-4.91231086 17.81916546-13.58109359 23.69467429 9.24670171 4.62335086 24.17627327 14.64061156 25.71738921 38.91320381 2.02271594 33.51929498-30.53338006 44.11447365-60.97044114 44.11447365z m-1.73375594-128.97222806h-15.89276952v42.95863568h22.53883632c13.0994946 0 21.28667835-8.76510273 20.80507936-18.78236343-0.77055898-22.6351553-22.8277953-24.17627327-27.45114616-24.17627225z m0.77055797 52.97589638h-16.66332749v66.46066997h18.39708444c26.29530819 0 36.21624889-17.24124648 36.21624889-29.85914108 0.38527898-24.17627327-15.89276851-36.60152889-37.95000584-36.60152889z" fill="#00438F" p-id="16446"></path><path d="M407.3609407 578.65330997s-3.66015289 2.79327492-7.41662578 5.20126984c-4.52703086 2.60063492-9.6319807 3.94911187-14.92957054 3.94911187h-2.11903593H344.84938261v-78.98224558h56.05813028c2.60063492 0 3.66015289-1.73375695 1.15583797-4.81599086l-10.11357968-11.65469664s-3.46751289 2.69695492-7.0313468 5.00862984c-2.79327492 1.54111695-6.26078781 2.8895939-9.72830069 3.37119391-0.86687797 0.09632-1.73375695 0.09632-2.50431492 0.19263898H344.84938261V466.72968838c0-3.0822339 0.96319797-6.35710781 1.73375695-9.15038171l2.31167492-6.7423868-23.59835327-3.75647289v140.8195647H261.05114616l2.11903594 8.09086476h153.43746032c2.69695492 0 3.85279289-1.92639594 1.25215796-5.00863085-0.09632-0.19264-10.49885968-12.32893562-10.49885968-12.32893562zM920.36025905 459.02410362s-8.18718375 7.99454476-12.52157562 9.24670171c-4.33439187 1.25215797-12.71421562 0.96319797-12.71421562 0.96319797h-26.68058819c-2.02271594-7.60926476-6.26078781-15.41116952-13.38845358-19.16764241-9.15038171-4.91231086-16.66332749-5.20126984-16.6633275-5.20126984l-1.25215695 1.92639593s7.70558476 3.94911187 10.59517867 16.27804851c0.48159898 2.02271594 0.96319797 4.23807187 1.25215797 6.26078781h-66.55698997l1.83007593 6.6460668h33.23033499c1.15583797 0.67423898 7.70558476 4.91231086 10.40253968 16.1817285 0.57791898 2.21535594 0.96319797 4.62335086 1.44479797 6.7423868h-20.90139937l-13.38845358-3.46751289v107.78186971l18.87868241-3.75647289V544.748736c2.21535594-0.67423898 7.22398578-2.60063492 14.06269257-6.64606679 0.77055898-0.48159898 1.63743695-1.05951797 2.50431492-1.63743696v45.94455061l14.92957156-2.88959492v-3.56383289h21.28667835v3.0822339h15.41116952l0.09632-33.90457397 0.09632-0.67423796c0.28895898-1.73375695 1.15583797-3.3711939 2.02271594-4.52703188 0.67423898 0.96319797 1.92639594 1.63743695 2.9859139 1.44479797 2.31167594-0.48159898 4.91231086-1.44479695 13.77373359-4.33439187 0.19264-0.09632 0.38527898-0.09632 0.48159898-0.19264v40.35800178c0 2.40799492-0.19264 3.46751289-0.67423898 4.43071085-0.48159898 0.96319797-1.54111695 1.92639594-2.88959391 2.40799492-1.25215797 0.48159898-5.77918883 1.05951797-12.32893663 0.67423899l-6.7423868-0.67423899-0.67423796 2.11903594c4.43071086 2.02271594 13.29213359 6.74238679 14.44797155 18.01180546 0 0 9.34302171-1.15583797 16.47068749-2.79327492 5.00862984-1.34847695 7.99454476-5.20126984 9.05406273-7.22398578 1.15583797-2.11903594 1.83007594-6.26078781 1.83007594-8.95774273v-71.27666082c0-0.57791898 0.09632-1.15583797 0.09632-1.44479696 0.96319797-5.00862984 4.14175187-8.47614375 4.14175187-8.47614374L908.32028242 492.1581186l-5.20126985 3.27487391c-3.3711939 1.83007594-7.51294578 3.46751289-10.11358069 3.46751289h-17.14492648c1.73375695-0.67423898 3.56383289-1.54111695 5.39390984-2.60063492 7.70558476-4.23807187 12.23261562-12.52157562 14.06269257-20.32348038H929.70328077c2.60063492 0 3.66015289-1.73375695 1.15583695-4.81598985 0.09632 0-10.49885968-12.13629663-10.49885867-12.13629663z m-92.37070019 16.95228648h47.87094654c-0.48159898 2.21535594-1.05951797 4.91231086-1.83007594 7.32030577-2.40799492 8.66878273-7.12766578 13.48477359-9.82462069 15.60380953h-15.41117054c-1.92639594-7.80190476-6.26078781-15.89276851-13.48477359-19.7455614-2.69695492-1.44479695-5.10494984-2.40799492-7.32030578-3.1785539z m38.81688483 93.33389815h-21.28667835v-29.18490311h18.58972343c1.34847695 0 2.69695492 1.05951797 2.69695492 2.98591391v26.1989892z m28.31802412-63.47475606c2.21535594 0 6.35710781 1.83007594 6.35710781 6.83870679v17.53020546c-3.56383289-6.74238679-9.34302171-12.61789562-17.24124647-16.3743685-10.78781867-5.20126984-18.30076444-5.39390984-18.30076445-5.39390883l-0.86687797 2.50431492s8.47614375 4.91231086 14.54429156 17.62652546c1.15583797 2.40799492 2.02271594 5.00862984 2.79327492 7.32030578l-2.31167594-2.02271594c-0.86687797-0.86687797-1.73375695-1.63743695-2.9859139-2.60063492l-2.69695492-2.40799492-3.37119391 2.11903594c-2.21535594 1.44479695-4.43071086 2.02271594-6.74238679 2.11903492h-22.24987632c-1.15583797-0.09632-4.14175187-0.28895898-6.83870679-0.57791797 6.06814781-5.39390984 12.13629663-12.8105346 15.12221054-19.16764343 0.96319797-2.11903594-0.09632-4.52703086-2.11903594-4.52703085h-16.66332749l-1.15583695 3.46751288c-1.05951797 2.8895939-2.69695492 7.03134578-4.23807188 10.69149969-3.94911187 9.05406273-9.53566171 15.50748952-12.42525562 18.39708444v-35.73465092h81.39024051zM1069.5596475 554.6696767c1.25215797-0.28895898 2.79327492-0.57791898 4.52703085-0.86687797 8.37982375-1.54111695 18.01180444-4.91231086 24.94683124-10.0172607 0.09632-0.09632 0.19264-0.09632 0.28896-0.19264 0.09632-0.09632 0.48159898-0.28895898 0.67423797-0.38527898 2.8895939-1.54111695 5.87550883-2.79327492 5.87550882-2.79327492l-16.1817285-12.23261562-2.50431492 2.60063492-0.09632 0.09632c-2.21535594 2.21535594-5.77918883 5.68286883-8.86142273 8.47614273-5.68286883 5.20126984-9.24670171 8.09086375-11.75101664 9.63198171l-0.09632-0.09632c-4.23807187-7.22398578-7.70558476-16.37436851-10.30621968-27.54746616h14.92957054v3.85279289h18.78236343v-55.09493231c0-4.14175187 3.0822339-8.47614375 3.0822339-8.47614375s-2.50431492-2.11903594-3.2748739-2.69695492c-1.54111695-1.25215797-3.0822339-2.50431492-4.71967086-3.75647289l-6.45342679-5.39390883s-8.18718375 5.68286883-12.61789562 6.83870578c-0.57791898 0.19264-1.25215797 0.28895898-1.92639594 0.38528h-27.25850717l-14.73693156-4.71967085c0 0.09632 0.09632 17.62652546 0.09632 20.03452038V574.6078781c0 2.11903594 0.19264 4.23807187-0.57791898 5.9718278-0.28895898 0.57791898-1.05951797 1.54111695-1.44479696 1.92639594-1.54111695 1.44479695-2.40799492 2.79327492-1.25215695 4.23807187l13.87005257 16.47068851s22.24987632-31.40025905 27.64378616-38.62424482c7.70558476 26.29530819 23.21307429 38.62424483 23.21307429 38.62424482s10.1135807-11.07677867 23.98363327-16.18172851c-0.09632 0-21.96091733-3.85279289-37.85368584-32.36345701z m-28.70330413-91.21486222h24.17627225c2.69695492 0 5.87550883 1.44479695 5.87550883 6.16446781v15.89276952h-30.05178108v-22.05723733z m0 28.70330412h30.05178108v22.63515632h-30.05178108v-22.63515632z m0 78.01904762v-48.93046451h11.46205765s0.48159898 15.50748952 7.03134578 40.16536178c0.09632 0.09632-13.0031746 4.62335086-18.49340343 8.76510273zM1200.3619515 466.2480894h59.42932419c2.60063492 0 3.66015289-1.73375695 1.15583796-4.81599086-2.50431492-2.9859139-10.98045867-12.52157562-10.98045866-12.52157562s-8.76510273 8.37982375-13.09949461 9.53566171c-1.25215797 0.28895898-2.60063492 0.57791898-3.94911187 0.67423899h-43.63287467l1.92639594 7.12766578h9.15038172zM455.42452724 470.00456229c1.25215797 3.3711939 2.40799492 7.03134578 3.17855289 9.63198069 0.38527898 1.34847695 1.25215797 2.60063492 2.79327492 2.40799594 1.54111695-0.28895898 15.70012952-4.62335086 15.70012952-4.62335187l-0.67423898-1.92639594c0-0.09632-0.09632-0.19264-0.09632-0.38527898-2.50431492-7.60926476-7.60926476-15.60380952-15.41116952-19.07132242-9.8246207-4.33439187-17.53020546-4.04543187-17.53020546-4.04543288l-0.96319797 2.40799593c0.09632 0.09632 8.37982375 3.2748739 13.0031746 15.60380953zM442.99927061 503.81281625c1.34847695 3.56383289 2.60063492 7.51294578 3.3711939 10.30621969 0.48159898 1.44479695 1.34847695 2.79327492 2.98591391 2.50431492 1.73375695-0.28895898 16.85596749-4.91231086 16.85596749-4.91230984l-0.96319797-2.60063492c-2.69695492-8.09086375-8.18718375-16.56700749-16.37436851-20.1308414-10.49885968-4.62335086-18.68604343-4.23807187-18.68604343-4.23807187l-0.96319796 2.60063492c0-0.09632 8.86142273 3.3711939 13.77373257 16.4706885zM579.19548546 518.74238679s-7.99454476 7.80190476-12.42525663 9.24670172c-0.96319797 0.19264-1.92639594 0.38527898-2.88959391 0.48159898l1.44479696-18.49340343c0.09632-0.96319797 0.48159898-3.1785539 0.77055898-4.43071187 0.96319797-3.75647289 4.23807187-8.76510273 4.23807187-8.76510273l-20.13084139-11.26941765s-4.62335086 4.04543187-10.88413867 4.43071086h-48.54518451l-7.03134679 38.62424482H470.06513778l1.83007695 6.54974781H482.5867134l-2.31167492 12.9068546c-0.96319797 5.97182883-5.58654883 9.8246207-5.58654984 9.8246207l6.54974781 17.91548445c3.46751289-1.25215797 9.9209407-1.54111695 9.9209407-1.54111695H539.41540267s-0.57791898 5.68286883-4.52703086 7.89822476c-2.69695492 1.54111695-7.99454476 1.83007594-14.06269257 1.15583797l-9.8246207-0.96319797-0.67423898 2.11903593s9.05406273 3.66015289 12.32893562 12.42525562c0.38527898 1.25215797 1.63743695 6.26078781 1.63743695 6.26078781s13.1958146-0.96319797 21.28667835-5.68286882c2.60063492-1.63743695 8.86142273-4.14175187 12.32893562-23.30939429H584.68571429c2.69695492 0 3.75647289-1.83007594 1.15583797-4.91231086l-9.9209407-11.46205765s-7.41662578 7.41662578-11.84733664 8.66878273c-1.25215797 0.28895898-3.46751289 0.57791898-4.81599085 0.67423899l1.15583797-7.80190476c0.48159898-4.23807187 1.54111695-11.17309867 2.7932739-24.36891226h24.85051225c2.40799492 0 3.56383289-1.54111695 1.83007594-3.94911187L579.19548546 518.74238679z m-38.91320482 48.93046451h-37.27576686c-4.43071086-0.09632-6.45342781-4.04543187-5.97182781-7.03134679l4.62335086-25.52474921h42.4770367c-0.48159898 4.62335086-1.54111695 15.50748952-3.85279289 32.556096z m6.35710781-65.11219301c-0.38527898 5.87550883-0.96319797 15.31485054-1.92639594 25.9100292h-41.80279873l5.77918883-32.07449701H541.34179861c1.92639594 0.28895898 4.62335086 1.34847695 5.20126984 5.20126984v0.48159898c0.09632 0.19264 0.09632 0.38527898 0.09632 0.48159899z" fill="#00438F" p-id="16447"></path><path d="M535.56260978 523.07677867c-0.48159898-6.26078781-2.9859139-13.0994946-8.76510273-17.14492648-7.41662578-5.29758984-14.25533257-6.74238679-14.25533155-6.74238679l-1.44479797 1.54111695s6.45342781 4.14175187 7.22398679 14.54429155c0.19264 2.8895939 0.28895898 5.97182883 0.28895898 8.18718375 0 1.15583797 0.38527898 2.31167594 1.83007696 2.50431492h15.21852952s0-2.11903594-0.09632-2.8895939zM513.79433245 554.28439771c0.19264 2.8895939 0.28895898 5.97182883 0.28896 8.18718375 0 1.15583797 0.38527898 2.31167594 1.83007593 2.50431492h15.21853054s0-2.02271594-0.09632-2.7932739v-0.09632c-0.48159898-6.26078781-2.9859139-13.0994946-8.76510273-17.14492648-7.41662578-5.29758984-14.25533257-6.74238679-14.25533257-6.74238679l-1.44479695 1.54111695s6.45342781 4.14175187 7.22398578 14.54429155zM974.1067134 479.63654298h38.43160483c1.83007594 0 2.69695492-0.96319797 1.92639695-2.69695492l-0.09632-0.09631898c-0.19264-0.38527898-0.48159898-0.86687797-0.86687797-1.34847797l-9.34302171-10.49885968s-5.49022883 5.10494984-9.9209407 7.51294578c-0.96319797 0.38527898-1.83007594 0.57791898-2.60063492 0.57791898h-13.09949461c3.85279289-6.54974679 8.95774273-15.02589054 11.26941765-20.22716038 0.57791898-1.54111695 0.38527898-2.79327492-1.15583796-3.46751391-1.15583797-0.48159898-18.68604343-4.62335086-18.68604343-4.62335085s-5.39390984 31.40025905-16.75964749 52.30165841l-3.37119289 5.29758984 0.77055796 2.50431492c5.20126984-3.3711939 15.41116952-13.77373359 23.50203429-25.23579124z" fill="#00438F" p-id="16448"></path><path d="M1015.13895315 506.31713117c2.11903594 0 3.0822339-1.63743695 1.34847796-3.66015288l-9.82462069-10.78781867s-2.69695492 2.60063492-5.77918883 5.00862984c-2.31167594 1.54111695-4.91231086 2.69695492-6.64606679 2.69695492H960.33298083l1.73375594 6.64606679h11.84733765v22.24987632h-20.99771937l1.83007695 6.7423868h19.16764242v37.66104685c0 3.2748739-0.57791898 4.43071086-2.02271594 5.97182781-1.83007594 1.92639594-2.60063492 2.8895939-1.25215797 4.62335188 0 0 10.20989968 11.07677867 11.84733664 12.7142146 0 0 0.09632 0.09632 0.19264 0.09632l2.50431492 2.9859139s2.50431492-3.2748739 2.69695492-3.37119289c1.73375695-2.21535594 27.06586717-37.27576686 27.06586717-37.27576787 0.19264-0.19264 0.28895898-0.38527898 0.38527899-0.57791898l-0.57791899-1.73375594c-1.92639594 0.96319797-15.50748952 8.18718375-21.67195733 11.46205765V535.1167553h22.24987632c2.31167594 0 3.1785539-1.54111695 0.96319796-4.14175187-2.11903594-2.60063492-9.43934171-10.20989968-9.43934171-10.2099007s-2.79327492 2.69695492-5.97182781 5.00863086c-2.31167594 1.54111695-4.81599086 2.60063492-6.45342781 2.60063492h-1.44479695v-22.15355734c4.23807187 0.09632 18.68604343 0.09632 22.15355632 0.09632zM461.78163404 562.95318044c-1.34847695-16.47068749 8.18718375-45.5592706 10.49885968-52.39797739 0 0-1.83007594-1.73375695-1.83007594-1.63743695-1.25215797 2.9859139-14.06269257 32.845056-19.16764343 39.58744279-2.50431492 3.3711939-6.35710781 5.20126984-13.29213358 5.20126984l-4.52703086-0.19264-1.44479695 2.69695492s2.31167594 0.57791898 3.46751288 1.05951797c1.25215797 0.48159898 3.94911187 1.63743695 5.68286883 3.75647289 4.04543187 5.00862984 3.85279289 19.16764241 3.75647289 22.05723632 0 0-0.48159898 7.03134578 0.77055797 12.13629663 1.05951797 3.85279289 3.94911187 5.20126984 5.97182882 5.58654883 8.28350375 1.25215797 22.24987632-5.00862984 17.43388546-15.79644851 0 0-6.54974679-12.42525562-7.32030577-22.05723734zM713.36898337 538.00634921l-0.28896-0.48159899c1.63743695 0 3.46751289-0.09632 5.29758984-0.38527898 9.05406273-1.44479695 19.8418814-4.91231086 27.64378616-10.59517968 0.28895898-0.19264 0.77055898-0.48159898 0.86687797-0.57791899 2.8895939-1.73375695 7.51294578-3.3711939 7.51294577-3.37119289l-6.06814882-5.10495085c-2.31167594-2.02271594-5.68286883-4.91231086-8.37982375-7.03134578l-5.20126984-4.33439188-2.50431492 2.69695493c-0.19264 0.19264-0.38527898 0.28895898-0.48159898 0.48159898-2.60063492 2.60063492-6.45342781 6.35710781-10.20989969 9.63198171-5.10494984 4.52703086-9.6319807 8.37982375-13.58109358 11.26941765-7.03134578-11.26941765-12.71421562-25.71739022-18.87868343-45.6555906h36.89048787c-4.14175187 7.51294578-9.24670171 20.61243937-9.24670171 20.61243937l2.21535593 1.54111695s11.26941765-12.61789562 31.01497905-11.46205765c1.73375695 0 3.3711939-0.67423898 4.14175187-1.54111695 1.25215797-1.54111695 1.15583797-3.1785539-0.28895898-4.81599086-1.44479695-1.63743695-19.8418814-16.66332749-19.8418814-16.66332749s-1.44479695 1.15583797-3.3711939 2.50431593c-1.83007594 1.15583797-5.58654883 3.2748739-12.7142146 3.27487289h-31.68921804c2.21535594-5.87550883 4.04543187-10.98045867 6.5497468-17.62652546 0.48159898-1.25215797 0.96319797-2.31167594 1.44479695-3.1785539 0.38527898-0.86687797 3.94911187-6.74238679 3.94911289-6.7423868l-25.52475022-7.89822374s-3.56383289 22.24987632-5.20126984 27.64378514c-0.57791898 2.21535594-1.34847695 4.81599086-2.31167594 7.80190476h-26.29530819c-1.92639594-9.7283007-5.58654883-14.92957054-5.58654883-14.92957054l-2.88959492 0.86687797s1.15583797 11.84733663-10.0172607 28.02906616c-3.0822339 4.43071086-6.54974679 9.05406273-8.95774171 12.23261562-1.34847695 1.73375695-2.21535594 3.75647289-0.96319797 5.00862984l15.02589054 11.36573867 1.34847695-1.63743696c0.28895898-0.28895898 0.67423898-0.67423898 0.96319797-1.15583796 7.12766578-9.7283007 13.0031746-22.34619632 11.94365664-33.42297499h23.2130753c-9.15038171 25.62107022-23.21307429 53.84277435-50.18262248 81.10128153-3.0822339 3.1785539-5.77918883 5.77918883-6.64606679 6.64606679l1.34847695 2.69695492c2.02271594-0.77055898 5.87550883-2.50431492 9.05406273-4.62335086 10.59517968-7.22398578 22.7314753-16.08540851 33.51929397-30.34074108v35.06041194c0 2.31167594 0.38527898 4.33439187-0.96319797 5.58654882-2.31167594 2.21535594-4.43071086 3.46751289-2.8895939 5.58654985l14.15901257 18.39708342 0.96319797-1.25215695 2.50431492-2.88959492 33.51929498-36.21624889-1.34847797-3.0822339h-0.09632l-27.16218616 11.46205765v-55.7691713l0.48159899-0.77055899c5.68286883-10.0172607 10.59517968-21.86459733 14.64061054-31.78553701h1.73375695s1.54111695 34.00089397 12.52157562 60.00724216c2.8895939 6.93502679 6.45342781 13.38845359 10.78781867 19.36028241 13.77373359 19.6492414 30.05178108 29.5701821 30.05178209 29.57018209 10.40253968-14.44797156 24.94683124-20.99771937 24.94683124-20.99771936s-15.31485054-2.8895939-30.24442108-14.06269257c-7.51294578-5.77918883-14.35165156-12.52157562-20.22716038-20.03452038zM1123.40242184 494.75875352l5.68286883-2.50431492c20.32348038-9.9209407 44.30711365-25.42843022 48.44886552-30.43706108 0.28895898-0.38527898 0.57791898-0.77055898 0.67423899-1.05951695 0.48159898-1.34847695-0.38527898-1.92639594-0.86687797-2.31167594l-17.81916546-13.58109358-5.00863086 8.66878273c-11.94365663 20.32348038-33.23033498 39.10584381-33.23033498 39.10584381l0.86687898 2.60063492c0 0.09632 0.77055898-0.19264 1.25215695-0.48159899zM1181.0016701 493.41027657c0.19264-1.44479695-0.67423898-1.92639594-1.15583797-2.21535594l-10.2099007-5.58654882c-4.62335086-2.60063492-9.43934171-5.20126984-9.4393407-5.20126984l-5.10495085 10.88413866c-11.36573765 23.30939429-33.61561397 49.79734248-33.61561397 50.08630248l0.77055797 2.21535492c2.31167594-1.25215797 5.49022883-3.3711939 5.49022984-3.37119289 6.54974679-4.43071086 13.0031746-9.34302171 21.19035835-15.79644952v78.30800762l18.97500343-4.04543289v-91.21486121c6.45342781-5.77918883 11.26941765-10.59517968 12.7142146-13.0031746 0.19264-0.38527898 0.38527898-0.77055898 0.38528-1.05951797zM472.28049372 499.1894654l1.63743695 1.34847695 4.91231086-3.94911187c2.8895939-2.21535594 14.83325054-13.77373359 20.80507936-20.90139937l0.19263899-0.19264h76.38161066c2.40799492 0 3.46751289-1.44479695 1.92639696-3.85279187l-0.19264-0.19264c-0.19264-0.19264-0.38527898-0.48159898-0.57791899-0.77055899-1.25215797-1.54111695-10.20989968-11.94365663-10.20989968-11.94365663s-8.28350375 8.18718375-12.71421562 9.34302171c-1.63743695 0.48159898-3.66015289 0.67423898-5.49022883 0.86687899h-43.63287466c2.69695492-3.3711939 5.97182883-7.70558476 7.99454374-10.59517969 0.28895898-0.48159898 1.25215797-1.73375695 1.44479696-2.02271593 2.60063492-3.46751289 2.50431492-5.00862984 0.38528-5.77918883-2.02271594-0.77055898-20.32348038-6.06814781-20.32348038-6.06814781l-0.57791899 2.69695492v0.09631899c-0.48159898 1.54111695-1.73375695 6.83870679-3.66015289 12.42525663-1.83007594 5.49022883-4.43071086 12.03997663-7.60926476 19.6492414-3.1785539 7.60926476-5.97182883 13.0994946-8.28350476 16.56700749l-2.40799492 3.27487391z" fill="#00438F" p-id="16449"></path><path d="M1276.83988216 505.35393321c-2.11903594-2.50431492-4.14175187-4.81599086-6.45342679-7.22398578l-4.81599086-5.29758984s-7.99454476 7.89822476-12.42525562 9.15038171c-2.9859139 0.86687797-6.45342781 1.15583797-8.86142273 1.34847797h-64.72691403l1.92639695 7.12766578h44.59607264v62.80051708c0 5.77918883-2.69695492 7.03134578-5.10494984 7.99454476-1.44479695 0.57791898-7.12766578 1.05951797-14.73693156 0l-8.28350375-1.54111695-0.86687796 2.40799492s9.9209407 4.23807187 13.0031746 13.0994946c0.96319797 2.02271594 1.83007594 7.89822476 1.83007594 7.89822476h0.09632l0.09632 0.09632c1.83007594 0.19264 14.83325054-1.15583797 20.61243936-2.40799593 5.58654883-1.15583797 9.05406273-4.91231086 10.20989968-7.41662477 1.15583797-2.50431492 1.73375695-5.58654883 1.73375696-9.24670273v-73.78097574h30.82234006c2.8895939 0.09632 4.04543187-1.73375695 1.34847695-5.00862984z" fill="#00438F" p-id="16450"></path><path d="M55.40834845 604.56333917c39.00952381 36.21624889 101.13580292 34.48249295 141.68644266-4.14175187 0.67423898-0.67423898 7.32030578-7.70558476 11.17309867-14.15901257 15.79644952-27.06586717 11.94365663-54.32437435-2.79327492-70.12082286-3.75647289-4.04543187-7.03134578-5.87550883-7.03134578-5.87550882 6.16446781 8.37982375 6.26078781 20.41980038 4.33439086 30.72602006-3.3711939 16.47068749-11.26941765 31.97817803-27.25850616 47.87094654-23.98363327 23.69467327-57.21396825 32.07449702-86.78415035 27.35482718-11.55837765-2.02271594-22.8277953-5.87550883-33.32665498-11.65469766zM188.23336838 442.45709613c-39.00952381-36.21624889-101.13580292-34.48249295-141.68644266 4.14175187-0.67423898 0.67423898-7.32030578 7.70558476-11.07677867 14.15901257-15.79644952 27.06586717-11.94365663 54.32437435 2.79327492 70.12082286 3.75647289 4.04543187 7.03134578 5.87550883 7.03134578 5.87550781-6.16446781-8.37982375-6.26078781-20.41980038-4.33439187-30.72602007 3.3711939-16.47068749 11.26941765-31.97817803 27.25850717-47.87094552 23.98363327-23.69467327 57.21396825-32.07449702 86.78415035-27.35482717 11.46205765 2.02271594 22.7314753 5.87550883 33.23033498 11.65469765z" fill="#E99A15" p-id="16451"></path><path d="M197.9616701 456.90506768zM203.93349791 519.89822476c19.5529214 19.5529214 16.27804851 54.90229232-6.9350268 80.52336254 41.41751873-41.22487975 42.5733567-106.33707276 0.96319899-143.61283962-32.941376-29.4738621-86.49519137-24.65787225-124.63783721 13.38845359l53.26485638 53.26485638c23.69467327-21.38299835 57.69556724-23.21307429 77.34480864-3.56383289z" fill="#00438F" p-id="16452"></path><path d="M45.68004673 590.11536762zM39.70821892 527.12221054c-19.5529214-19.5529214-16.27804851-54.90229232 6.93502578-80.52336254-41.41751873 41.22487975-42.5733567 106.33707276-0.96319797 143.61283962 32.941376 29.4738621 86.49519137 24.65787225 124.63783721-13.3884546L117.05302756 523.55837765c-23.69467327 21.38299835-57.69556724 23.21307429-77.34480864 3.56383289z" fill="#00438F" p-id="16453"></path></svg>