<?xml version="1.0" standalone="no"?><!DOCTYPE svg PUBLIC "-//W3C//DTD SVG 1.1//EN" "http://www.w3.org/Graphics/SVG/1.1/DTD/svg11.dtd"><svg t="1547622549738" class="icon" style="" viewBox="0 0 4096 1024" version="1.1" xmlns="http://www.w3.org/2000/svg" p-id="17607" xmlns:xlink="http://www.w3.org/1999/xlink" width="800" height="200"><defs><style type="text/css"></style></defs><path d="M531.8968869 174.90844048c17.17663997 34.35327995 34.35327995 66.5594799 53.67699992 96.61859986 34.35327995 57.97115992 73.0007199 109.50107984 115.94231983 158.88391977-45.08867994-15.02955998-83.73611987-30.05911996-115.94231983-49.38283993-88.03027988-49.38283993-126.67771981-113.79523983-115.94231984-191.09011973-163.17807977 47.23575993-319.91491955 133.11895981-450.88679937 261.94375964l158.88391978 128.82479982c100.91275986-64.41239992 240.47295966-103.05983985 410.09227943-109.50107984 38.64743995 0 81.58903989-2.14708001 122.38355983 0-40.79451993 10.73539998-83.73611987 19.32371997-122.38355983 30.05911995-135.26603981 34.35327995-257.64959963 73.0007199-369.29775948 113.79523983l249.06127964 203.97259972c-17.17663997-107.35399986 15.02955998-107.35399986 47.23575993-161.03099978 15.02955998-25.76495997 38.64743995-47.23575993 70.85363991-70.8536399 34.35327995-23.61787996 77.29487989-47.23575993 128.82479982-75.14779989-45.08867994 62.26531991-88.03027988 130.97187982-128.82479982 201.82551972-17.17663997 30.05911996-34.35327995 62.26531991-49.38283993 94.47151986 158.88391978-68.70655991 304.88535956-55.82407992 435.85723938 23.61787997L1440.11172561 447.58760008c-253.35543964-253.35543964-592.59407917-341.38571951-908.21483871-272.6791596z m493.82839929 133.11895981c-19.32371997 42.94159994-85.88319988 85.88319988-193.23719972 107.35399985v-2.14708c62.26531991-75.14779989 150.2955998-158.88391978 143.85435979-210.4138397 32.20619995 4.29415999 66.5594799 68.70655991 49.38283993 105.20691985z m-203.97259971-88.03027988c6.44123999 8.58831999 8.58831999 19.32371997 10.73539999 27.91203996 2.14708001 10.73539998 2.14708001 21.47079998 0 32.20619997-6.44123999 45.08867994-38.64743995 90.17735987-30.05911996 133.1189598 0 6.44123999-186.79595974-137.41311981 19.32371997-193.23719973z m120.23647983 547.50539922c-66.5594799-62.26531991-62.26531991-154.58975979-109.50107984-206.1196797-17.17663997-19.32371997-38.64743995-30.05911996-73.0007199-36.50035995 23.61787996-8.58831999 49.38283993-12.88247998 73.0007199-12.88247998 115.94231984 0 201.82551972 98.76567986 109.50107984 255.50251963z m317.76783955-197.53135971c-8.58831999-15.02955998-36.50035994-53.67699992-115.94231983-77.29487989-62.26531991-19.32371997-161.03099977-27.91203995-309.17951957-23.61787997 0 0-8.58831999-2.14708001 0-6.44123999h6.44123999c88.03027988-19.32371997 390.76855944-75.14779989 425.1218394 45.08867994v47.23575993c-4.29415999 6.44123999-4.29415999 10.73539998-6.44123999 15.02955998z" fill="#04017C" p-id="17608"></path><path d="M707.95744664 471.20548007c-42.94159994-2.14708001-83.73611987 0-122.38355982 0-240.47295966 10.73539998-418.68059941 83.73611987-517.44627927 203.9725997 146.00143979-64.41239992 319.91491955-122.38355982 517.44627927-173.91347975 38.64743995-10.73539998 81.58903989-19.32371997 122.38355982-30.05911995zM512.57316692 660.14851979c-40.79451993 66.5594799-79.44195988 49.38283993-25.76495997 259.79667964 30.05911996-73.0007199 62.26531991-139.5601998 98.76567987-201.82551972 40.79451993-73.0007199 83.73611987-139.5601998 128.82479982-201.82551972-51.52991993 25.76495997-94.47151987 49.38283993-128.82479982 75.14779989-32.20619995 19.32371997-55.82407992 42.94159994-73.0007199 68.70655991zM583.42680682 381.02812018c32.20619995 17.17663997 70.85363989 34.35327995 115.94231983 49.38283993-42.94159994-49.38283993-79.44195988-100.91275986-115.94231983-158.88391977-32.20619995-53.67699992-62.26531991-109.50107984-88.03027987-167.47223977-60.11823991 118.08939983-30.05911996 210.41383971 88.03027987 276.97331961zM832.48808647 413.23432014c107.35399986-19.32371997 173.91347976-62.26531991 193.23719972-105.20691985 17.17663997-36.50035994-17.17663997-100.91275986-49.38283993-105.20691985 6.44123999 53.67699992-81.58903989 137.41311981-143.85435979 210.4138397zM838.92932647 462.61716007h-6.44124c-8.58831999 4.29415999 0 6.44123999 0 6.44123999 150.2955998-2.14708001 246.91419965 6.44123999 309.17951955 23.61787997 81.58903989 23.61787996 107.35399986 62.26531991 115.94231985 77.29487989 2.14708001-4.29415999 2.14708001-8.58831999 4.29415999-15.02955998v-47.23575993c-32.20619995-118.08939983-334.94447953-64.41239992-422.97475939-45.08867994zM832.48808647 512c-23.61787996 0-49.38283993 4.29415999-73.0007199 12.88247998 34.35327995 4.29415999 55.82407992 17.17663997 73.0007199 36.50035995 47.23575993 51.52991993 42.94159994 146.00143979 109.50107984 206.1196797 92.32443987-156.73683978 6.44123999-255.50251963-109.50107984-255.50251963zM802.42896651 413.23432014c-8.58831999-42.94159994 23.61787996-88.03027988 30.05911996-133.1189598 2.14708001-10.73539998 2.14708001-23.61787996 0-32.20619997-2.14708001-8.58831999-4.29415999-19.32371997-10.73539999-27.91203996-206.11967971 55.82407992-19.32371997 199.67843972-19.32371997 193.23719973z" fill="#FFF100" p-id="17609"></path><path d="M2322.56160436 617.20691985c-2.14708001-30.05911996-2.14708001-88.03027988-2.14708-173.91347976l17.17663997-12.88247998-34.35327995-25.76495997-15.02955997 23.61787999H2127.17732464l-30.05911996-17.17663999c0 23.61787996 2.14708001 57.97115992 2.14707999 107.35399985 0 47.23575993 0 90.17735987-2.14707999 126.67771982l30.05911996-15.02955998v-30.05911995h165.32515976v40.79451994l30.05911996-23.61787997z m-105.20691985-36.50035994H2127.17732464v-141.70727981h165.32515976v141.70727981h-75.14779989zM1916.76348493 801.85579959c23.61787996-8.58831999 36.50035994-19.32371997 36.50035995-38.64743995 0-10.73539998-4.29415999-19.32371997-12.88247997-23.61787997-8.58831999-6.44123999-19.32371997-8.58831999-32.20619997-8.58831998h-49.38283992v146.0014398h53.67699992c15.02955998 0 27.91203995-2.14708001 34.35327994-8.58832 8.58831999-6.44123999 12.88247998-15.02955998 12.88247999-25.76495996-2.14708001-21.47079998-15.02955998-34.35327995-42.94159994-40.79451994z m-30.05911996-49.38283993h21.47079997c4.29415999 0 6.44123999 2.14708001 8.58831999 2.14708 4.29415999 2.14708001 6.44123999 8.58831999 6.44123999 15.02955997 0 8.58831999-2.14708001 12.88247998-8.58831998 17.17663997-2.14708001 2.14708001-4.29415999 4.29415999-8.58831999 4.29416001s-8.58831999 2.14708001-12.88247998 2.14707999h-6.44124v-40.79451994z m32.20619996 100.91275985c-2.14708001 2.14708001-6.44123999 2.14708001-12.88247998 2.14708h-21.47079997v-42.94159994h4.29415999c6.44123999 0 10.73539998 0 15.02955997 2.14708001 4.29415999 2.14708001 6.44123999 4.29415999 10.7354 6.44123998 6.44123999 4.29415999 8.58831999 10.73539998 8.58831998 19.32371998 2.14708001 6.44123999 0 10.73539998-4.29415999 12.88247997zM2058.47076473 731.00215969h-25.76495997l-57.97115991 146.0014398h23.61787997l15.02955997-38.64743995H2075.64740471l15.02955997 38.64743995h30.05911996l-55.82407992-146.0014398h-6.44123999z m0 88.03027988h-38.64743994l23.61787996-57.97115993 15.02955998 34.35327996 8.58831999 23.61787997h-8.58831999zM2247.41380446 831.91491955l-30.05911995-45.08867995-38.64743994-55.82407991h-25.76495997v148.14851979h23.61787996v-100.91275986l40.79451995 57.97115992 27.91203996 42.94159994h25.76495996v-148.14851979h-23.61787997zM2429.91560421 731.00215969h-25.76495997l-55.82407992 73.0007199v-73.0007199h-30.05911996v148.14851979h30.05911996v-73.0007199l53.67699992 73.0007199h38.64743995l-62.26531991-81.58903988zM3666.63368246 243.61500038c8.58831999-8.58831999 15.02955998-17.17663997 23.61787996-25.76495996 25.76495997-27.91203995 42.94159994-45.08867994 53.67699993-47.23575993l-38.64743995-30.05911997c-6.44123999 19.32371997-19.32371997 40.79451993-36.50035996 66.55947992-2.14708001 2.14708001-4.29415999 6.44123999-6.44123998 8.58831998-21.47079998 30.05911996-45.08867994 57.97115992-68.7065599 81.58903988l4.29415999 6.44124c23.61787996-19.32371997 49.38283993-38.64743995 68.70655991-60.11823992zM2668.24148387 318.76280026c8.58831999 38.64743995 21.47079998 49.38283993 34.35327995 32.20619997 12.88247998-17.17663997 17.17663997-38.64743995 10.73539999-57.97115992-4.29415999-17.17663997-34.35327995-57.97115992-88.03027988-118.08939983-6.44123999-8.58831999-12.88247998-15.02955998-19.32371998-23.61787996l-6.44123998 6.44123998c10.73539998 17.17663997 19.32371997 34.35327995 25.76495996 49.38283994 21.47079998 45.08867994 36.50035994 81.58903989 42.94159994 111.64815982zM3866.31212217 209.26172042h184.64887973l-38.64743993-42.94159994-30.05911996 30.05911996h-188.94303974l19.32371997 19.32371998c15.02955998-4.29415999 34.35327995-6.44123999 53.67699993-6.44124zM2045.58828475 529.17663997c-32.20619995 8.58831999-57.97115992 17.17663997-79.44195989 23.61787996-17.17663997 4.29415999-36.50035994 8.58831999-60.11823991 15.02955999-10.73539998 2.14708001-21.47079998 6.44123999-34.35327995 8.58832l25.76495996 40.79451993 8.58831999-8.58831999 6.44123999-8.58831998c47.23575993-23.61787996 92.32443987-42.94159994 133.11895981-60.11823993 4.29415999-2.14708001 8.58831999-2.14708001 15.02955997-4.29415999l6.44124-2.14707998-2.14708-8.58832h-2.14707999l-17.17663998 4.29415999zM1906.02808495 348.82192023c4.29415999-2.14708001 10.73539998-4.29415999 15.02955998-6.44123998 12.88247998-4.29415999 32.20619995-8.58831999 60.11823991-10.7354-30.05911996 45.08867994-51.52991993 77.29487989-64.41239991 92.32443987-4.29415999 4.29415999-6.44123999 8.58831999-8.58831999 10.73539999-10.73539998 10.73539998-21.47079998 15.02955998-30.05911995 19.32371997l27.91203996 45.08867994c12.88247998-12.88247998 32.20619995-23.61787996 62.26531991-34.35327995s53.67699992-19.32371997 77.29487989-23.61787996h4.29416l-2.14708001-8.58831999h-2.14707999c-34.35327995 6.44123999-77.29487989 15.02955998-128.82479982 21.47079996 45.08867994-57.97115992 75.14779989-98.76567986 92.32443986-122.38355983 10.73539998-15.02955998 23.61787996-30.05911996 36.50035996-45.08867993 4.29415999-4.29415999 8.58831999-8.58831999 15.02955997-12.88247998 2.14708001 0 4.29415999-2.14708001 6.44124-4.29416l-6.44124-4.29415999-15.02955997-10.73539998-17.17663998-15.02955999c-12.88247998 25.76495997-25.76495997 53.67699992-40.79451993 77.2948799l-81.58903989 6.44123999h-15.02955998c4.29415999-6.44123999 8.58831999-15.02955998 15.02955998-21.47079998 23.61787996-34.35327995 40.79451993-62.26531991 53.67699992-83.73611987 15.02955998-25.76495997 30.05911996-40.79451993 42.94159994-45.08867994l-42.94159994-27.91203996c-8.58831999 27.91203995-23.61787996 64.41239992-47.23575993 107.35399984-2.14708001 4.29415999-6.44123999 8.58831999-8.58832 12.88247999-19.32371997 36.50035994-36.50035994 53.67699992-49.38283992 55.82407992l23.61787997 45.08867994c10.73539998-6.44123999 19.32371997-12.88247998 27.91203996-17.17663998z" fill="#080059" p-id="17610"></path><path d="M2077.7944847 196.37924044c15.02955998-4.29415999 34.35327995-6.44123999 53.67699993-6.44123999h23.61787997c-4.29415999 55.82407992-12.88247998 98.76567986-27.91203996 133.11895982-12.88247998 30.05911996-36.50035994 62.26531991-68.70655991 92.32443987l-6.44124 6.44123999 4.29416 6.44124c49.38283993-36.50035994 81.58903989-70.85363989 98.76567987-105.20691986 15.02955998-36.50035994 25.76495997-79.44195988 30.05911995-130.97187982h109.50107984c-6.44123999 96.61859986-10.73539998 150.2955998-15.02955997 156.73683978-4.29415999 6.44123999-10.73539998 8.58831999-21.47079997 8.58831998-8.58831999 0-23.61787996-2.14708001-42.94159994-4.29415999l-12.88247998-2.14707999-2.14708 8.58831999c4.29415999 0 8.58831999 2.14708001 15.02955998 4.29415999 30.05911996 10.73539998 42.94159994 23.61787996 42.94159994 40.79451993 15.02955998-4.29415999 30.05911996-10.73539998 38.64743995-21.47079996 10.73539998-8.58831999 17.17663997-30.05911996 19.32371996-64.41239992 4.29415999-34.35327995 6.44123999-75.14779989 8.58831999-120.23647981l17.17663998-15.02955999-38.64743995-25.76495996-15.02955997 23.61787997h-234.03171967l23.61787996 15.02955997zM2537.26960405 308.02740029c6.44123999 17.17663997 10.73539998 36.50035994 15.02955998 51.52991993 6.44123999 25.76495997 15.02955998 32.20619995 30.05911996 17.17663997 12.88247998-15.02955998 17.17663997-34.35327995 12.88247998-55.82407992-4.29415999-15.02955998-23.61787996-45.08867994-55.82407992-83.73611987-15.02955998-17.17663997-30.05911996-36.50035994-51.52991993-57.97115993l-6.44123999 6.44123999c17.17663997 25.76495997 30.05911996 55.82407992 45.08867994 88.03027988 2.14708001 10.73539998 6.44123999 23.61787996 10.73539998 34.35327995zM2623.15280393 490.52920002c8.58831999-4.29415999 15.02955998-8.58831999 21.47079997-10.73539997l-21.47079997-15.02955998-27.91203996-23.61787996c-8.58831999 21.47079998-23.61787996 49.38283993-47.23575993 83.73611987-2.14708001 4.29415999-6.44123999 8.58831999-10.73539999 15.02955997-23.61787996 30.05911996-53.67699992 66.5594799-96.61859986 107.35399986l6.44123999 6.44123999c36.50035994-27.91203995 64.41239992-53.67699992 90.17735987-75.1477999l38.64743994-38.64743995c17.17663997-23.61787996 34.35327995-38.64743995 47.23575994-49.38283993zM3643.01580249 801.85579959l23.61787997-38.64743995 21.47079996-32.20619995h-25.76495996l-32.20619995 49.38283993-30.05911996-49.38283993H3565.7209226l45.08867994 75.14779989-47.23575994 73.0007199h23.61787998l34.35327993-53.67699993 32.20619997 53.67699993H3690.25156242l-23.61787996-36.50035995zM3720.31068238 731.00215969h30.05911995v146.0014398h-30.05911995zM3696.69280242 359.55732022c12.88247998-15.02955998 30.05911996-38.64743995 47.23575993-66.55947991l15.02955998-8.58831998 4.29415999-2.14708001-4.29415999-6.44123999-32.20619996-27.91203996c-15.02955998 34.35327995-34.35327995 68.70655991-62.26531992 105.20691985-2.14708001 2.14708001-2.14708001 4.29415999-4.29415999 6.44124-27.91203995 38.64743995-57.97115992 73.0007199-90.17735987 105.20691985l4.29416 6.44124c30.05911996-21.47079998 60.11823991-45.08867994 90.17735986-77.2948799 2.14708001-4.29415999 6.44123999-6.44123999 8.58832-10.73539999 0 148.14851979 0 238.32587966-2.14708 270.53207962l32.20619995-19.32371998v-242.62003965l12.88247999-12.88247998-19.32371997-19.32371997zM3464.80816274 726.7079997c-23.61787996 0-40.79451993 8.58831999-53.67699993 21.47079997-12.88247998 15.02955998-19.32371997 32.20619995-19.32371998 55.82407992s6.44123999 42.94159994 19.32371998 55.82407991c12.88247998 15.02955998 30.05911996 21.47079998 53.67699993 21.47079998s40.79451993-6.44123999 53.67699993-21.47079998c12.88247998-12.88247998 19.32371997-32.20619995 19.32371997-55.82407991s-6.44123999-42.94159994-19.32371997-55.82407992c-12.88247998-12.88247998-30.05911996-21.47079998-53.67699993-21.47079997z m32.20619995 120.23647983c-8.58831999 10.73539998-17.17663997 15.02955998-30.05911995 15.02955998-12.88247998 0-23.61787996-6.44123999-30.05911996-15.02955998-8.58831999-10.73539998-10.73539998-23.61787996-10.73539999-40.79451995 0-17.17663997 4.29415999-30.05911996 10.73539999-40.79451994 8.58831999-10.73539998 17.17663997-15.02955998 30.05911996-15.02955998 12.88247998 0 23.61787996 4.29415999 30.05911995 15.02955998 8.58831999 10.73539998 12.88247998 23.61787996 12.88247999 40.79451994-2.14708001 17.17663997-6.44123999 30.05911996-12.88247999 40.79451995zM3892.07708214 831.91491955l-66.55947991-100.91275986h-27.91203997v148.14851979h23.61787997v-100.91275986l68.7065599 100.91275986h27.91203997v-148.14851979h-25.76495996zM2623.15280393 726.7079997c-23.61787996 0-40.79451993 8.58831999-53.67699992 21.47079997-15.02955998 15.02955998-21.47079998 32.20619995-21.47079997 55.82407992s6.44123999 42.94159994 19.32371997 55.82407991c15.02955998 15.02955998 32.20619995 21.47079998 53.67699993 21.47079998 23.61787996 0 40.79451993-6.44123999 53.67699992-21.47079998 15.02955998-12.88247998 21.47079998-32.20619995 21.47079997-55.82407991s-6.44123999-42.94159994-21.47079997-55.82407992c-10.73539998-12.88247998-27.91203995-21.47079998-51.52991993-21.47079997z m32.20619996 120.23647983c-8.58831999 10.73539998-17.17663997 15.02955998-30.05911996 15.02955998-12.88247998 0-23.61787996-6.44123999-30.05911996-15.02955998-8.58831999-10.73539998-10.73539998-23.61787996-10.73539998-40.79451995 0-17.17663997 4.29415999-30.05911996 10.73539998-40.79451994 8.58831999-10.73539998 17.17663997-15.02955998 30.05911996-15.02955998 12.88247998 0 23.61787996 4.29415999 30.05911996 15.02955998 8.58831999 10.73539998 10.73539998 23.61787996 10.73539998 40.79451994 0 17.17663997-4.29415999 30.05911996-10.73539998 40.79451995z" fill="#080059" p-id="17611"></path><path d="M4042.37268192 297.2920003l-34.35327995 30.05911996h-255.50251963l6.44123999 6.44123999 15.02955997 15.02955998c15.02955998-4.29415999 34.35327995-6.44123999 53.67699993-6.44123998h83.73611988v225.44339967c0 17.17663997-6.44123999 25.76495997-19.32371997 25.76495997-12.88247998 0-40.79451993 0-79.4419599-4.29416v10.73539999c49.38283993 12.88247998 75.14779989 27.91203995 75.14779991 49.38283993 38.64743995-8.58831999 55.82407992-30.05911996 55.82407992-70.85363991V340.23360024H4081.02012186l-38.64743994-42.94159994zM3473.39648272 636.53063983c8.58831999-17.17663997 21.47079998-27.91203995 42.94159994-27.91203997v-8.58831998c-17.17663997-2.14708001-34.35327995-8.58831999-49.38283992-15.02955998-38.64743995-15.02955998-70.85363989-40.79451993-98.76567987-75.14779991 38.64743995-23.61787996 73.0007199-40.79451993 98.76567987-53.67699991 15.02955998-6.44123999 25.76495997-8.58831999 36.50035994-10.73539998l-32.20619994-40.79451996-4.29416 4.29416001c-12.88247998 15.02955998-27.91203995 30.05911996-45.08867994 45.08867993l-57.97115992 45.08867994c-19.32371997-30.05911996-34.35327995-66.5594799-42.94159994-111.64815985h98.76567987v21.47079998l32.20619995-12.88247999c0-34.35327995-2.14708001-100.91275986-2.14708-199.67843972l15.02955998-15.02955997 4.29415999-2.14708-4.29415999-2.14708-34.35327996-23.61787997-15.02955996 23.61787997H3258.68848303l-30.05911995-19.32371997c2.14708001 27.91203995 2.14708001 49.38283993 2.14707999 62.26531991v358.56235949c2.14708001 12.88247998 0 23.61787996-8.58831999 30.05911996l30.05911996 34.35327996c6.44123999-15.02955998 19.32371997-30.05911996 42.94159994-51.52991994 12.88247998-12.88247998 27.91203995-23.61787996 47.23575993-38.64743995l-4.29415999-6.44123998-42.94159994 23.61787997-34.35327995 17.17663997v-199.67843972h49.38283994c6.44123999 55.82407992 21.47079998 103.05983985 45.08867992 143.8543598 23.61787996 36.50035994 60.11823991 68.70655991 111.64815985 98.76567986 0 4.29415999 2.14708001 6.44123999 6.44123998 6.44124z m-214.70799969-442.29847937h161.03099978v85.88319988h-161.03099978v-85.88319988z m34.35327996 184.64887973h-34.35327996v-83.73611989h161.03099978v83.73611989h-126.67771982zM3973.66612203 748.17879967c-15.02955998 15.02955998-21.47079998 32.20619995-21.47079998 57.97115991 0 25.76495997 6.44123999 45.08867994 21.47079998 57.97115992 12.88247998 12.88247998 32.20619995 19.32371997 57.9711599 19.32371998 12.88247998 0 30.05911996-2.14708001 47.23575994-6.44123999v-64.41239992h-30.05911995v49.38283994h-12.88247999c-15.02955998 0-27.91203995-4.29415999-38.64743994-15.02955998-8.58831999-8.58831999-12.88247998-23.61787996-12.88247999-40.79451995 0-17.17663997 4.29415999-32.20619995 12.88247999-42.94159994 8.58831999-8.58831999 21.47079998-15.02955998 36.50035995-15.02955997 10.73539998 0 25.76495997 2.14708001 45.08867993 8.58831998v-23.61787996c-15.02955998-4.29415999-32.20619995-6.44123999-47.23575994-6.44123999-23.61787996 0-42.94159994 8.58831999-57.9711599 21.47079997zM2846.44912362 415.38140014H2749.83052375c45.08867994-77.29487989 75.14779989-130.97187982 92.32443988-163.17807978 17.17663997-32.20619995 34.35327995-53.67699992 49.38283992-60.11823991l-57.97115992-38.64743995c-10.73539998 40.79451993-21.47079998 77.29487989-32.20619996 109.50107986-12.88247998 32.20619995-34.35327995 83.73611987-66.5594799 152.44267978h-304.88535956l19.32371997 19.32371997c15.02955998-4.29415999 34.35327995-6.44123999 53.67699992-6.44123998h433.71015938l-51.52991991-51.52991994-38.64743995 38.64743995zM2726.21264379 458.32300008l-6.44124 8.58831998c68.70655991 68.70655991 109.50107984 115.94231984 122.38355984 146.0014398 15.02955998 30.05911996 25.76495997 38.64743995 36.50035994 23.61787997s12.88247998-32.20619995 8.58831999-53.67699994c-4.29415999-19.32371997-57.97115992-62.26531991-161.03099977-124.53063981zM2734.80096377 879.15067948h30.05911996v-62.26531992h51.52991993v-21.47079996h-51.52991993v-42.94159994h62.26531991v-21.47079997h-92.32443987zM3215.74688309 254.35040037l-38.64743995-38.64743995-25.76495995 25.76495997h-60.11823993c6.44123999-15.02955998 12.88247998-30.05911996 17.17663999-42.94159994 6.44123999-12.88247998 15.02955998-23.61787996 27.91203995-27.91203996l-47.23575992-27.91203997c-25.76495997 100.91275986-55.82407992 180.35471975-94.47151987 238.32587966l6.44123998 4.29416001c15.02955998-17.17663997 30.05911996-32.20619995 38.64743995-45.08867995h45.08867994v88.03027989h-83.73611989l19.32371998 19.32371995c15.02955998-4.29415999 34.35327995-6.44123999 53.67699992-6.44123997h10.73539999v120.23647982c2.14708001 15.02955998-2.14708001 25.76495997-10.73539999 32.20619996l27.91203997 36.50035994c4.29415999-15.02955998 38.64743995-49.38283993 98.76567986-98.76567986l-4.29416001-6.44123999-81.58903987 42.94159994v-124.53063983h98.76567985L3179.24652314 404.64600014l-30.05911996 23.61787999H3114.83412324V340.23360024h88.03027987l-36.50035995-40.79451993-30.05911996 27.91203995h-92.32443987c12.88247998-19.32371997 25.76495997-45.08867994 40.79451995-73.00071989h130.97187981zM3293.04176299 731.00215969h-10.7354l-57.9711599 146.0014398h23.61787996l15.02955997-38.64743995h60.11823993l15.02955997 38.64743995h32.20619995l-57.97115992-146.0014398h-19.32371996z m0 88.03027988h-23.61787998l23.61787998-57.97115993 23.61787996 57.97115993h-23.61787996zM2998.8918034 791.12039961l-10.73539999-6.44123999c-8.58831999-4.29415999-12.88247998-8.58831999-15.02955997-10.7354-2.14708001-2.14708001-4.29415999-6.44123999-4.29416-10.73539998s2.14708001-8.58831999 6.44123999-12.88247998c4.29415999-2.14708001 8.58831999-4.29415999 15.02955999-4.29415999 8.58831999 0 21.47079998 2.14708001 36.50035994 8.58831999v-23.61787997c-15.02955998-4.29415999-27.91203995-6.44123999-38.64743995-6.44124-15.02955998 0-25.76495997 4.29415999-36.50035994 10.7354-8.58831999 8.58831999-12.88247998 17.17663997-12.88247999 30.05911995 0 8.58831999 2.14708001 17.17663997 8.58832 23.61787997 4.29415999 6.44123999 15.02955998 15.02955998 27.91203995 21.47079996l10.73539999 6.44123999c8.58831999 4.29415999 12.88247998 8.58831999 15.02955997 10.7354 2.14708001 4.29415999 4.29415999 8.58831999 4.29415999 12.88247998 0 6.44123999-2.14708001 10.73539998-8.58831998 15.02955997-4.29415999 4.29415999-10.73539998 6.44123999-17.17663998 6.44124-10.73539998 0-25.76495997-4.29415999-40.79451994-10.73539999v25.76495997c15.02955998 4.29415999 30.05911996 4.29415999 40.79451994 4.29415999 17.17663997 0 32.20619995-4.29415999 42.94159995-10.73539998 8.58831999-8.58831999 15.02955998-19.32371997 15.02955998-32.20619996 0-8.58831999-2.14708001-17.17663997-8.58831999-23.61787996-4.29415999-6.44123999-15.02955998-15.02955998-30.05911996-23.61787997zM3164.21696316 791.12039961h-60.11823991v-60.11823992H3071.8925233v148.14851979h32.20619995v-68.70655991h60.11823991v68.70655991h30.05911997v-148.14851979h-30.05911997z" fill="#080059" p-id="17612"></path></svg>