<?xml version="1.0" standalone="no"?><!DOCTYPE svg PUBLIC "-//W3C//DTD SVG 1.1//EN" "http://www.w3.org/Graphics/SVG/1.1/DTD/svg11.dtd"><svg t="1547619945736" class="icon" style="" viewBox="0 0 1024 1024" version="1.1" xmlns="http://www.w3.org/2000/svg" p-id="1811" xmlns:xlink="http://www.w3.org/1999/xlink" width="200" height="200"><defs><style type="text/css"></style></defs><path d="M512 4.608C232.96 4.608 4.608 232.96 4.608 512s228.352 507.392 507.392 507.392 507.392-228.352 507.392-507.392C1019.392 232.96 791.04 4.608 512 4.608z" fill="#09B1FF" p-id="1812"></path><path d="M266.24 523.264l170.496-166.4 24.576 24.064 40.96-36.864s6.144-15.36-3.072-29.184l-42.496-41.984s-22.016-15.36-53.76 4.608l-242.176 248.32L394.24 766.976h73.728l38.912-45.568-46.592-51.2-30.208 27.648-163.84-174.592z" fill="#FFFFFF" p-id="1813"></path><path d="M457.728 386.56l51.2 48.64-84.48 95.744 84.48 88.064-45.056 46.08-140.288-134.144zM757.76 523.264l-170.496-166.4-24.576 24.064-40.96-36.864s-6.144-15.36 3.072-29.184l42.496-41.984s22.016-15.36 53.76 4.608l242.176 248.32-233.472 241.152h-73.728l-38.912-45.568 46.592-51.2 30.208 27.648 163.84-174.592z" fill="#FFFFFF" p-id="1814"></path><path d="M566.272 386.56l-51.2 48.64 84.48 95.744-84.48 88.064 45.056 46.08 140.288-134.144z" fill="#FFFFFF" p-id="1815"></path></svg>