<?xml version="1.0" standalone="no"?><!DOCTYPE svg PUBLIC "-//W3C//DTD SVG 1.1//EN" "http://www.w3.org/Graphics/SVG/1.1/DTD/svg11.dtd"><svg t="1547622393085" class="icon" style="" viewBox="0 0 3246 1024" version="1.1" xmlns="http://www.w3.org/2000/svg" p-id="14061" xmlns:xlink="http://www.w3.org/1999/xlink" width="633.984375" height="200"><defs><style type="text/css"></style></defs><path d="M1132.544 666.624h1782.784v4.608H1132.544v-4.608z" p-id="14062"></path><path d="M518.656 56.832C267.264 56.832 61.44 262.656 61.44 514.048s205.824 457.216 457.216 457.216 457.216-206.336 457.216-457.216-205.824-457.216-457.216-457.216z" fill="#02B2FF" p-id="14063"></path><path d="M2236.416 870.4h-57.856c-48.128 0-72.192-25.6-72.192-76.8s24.064-76.8 72.192-76.8h57.856v22.016h-57.856c-15.36 0-26.624 2.56-33.792 8.192-11.264 8.704-17.408 24.064-17.408 46.592s5.632 37.888 17.408 45.568c7.168 6.144 18.432 9.216 33.792 9.216h57.856v22.016z m205.312-76.8c0 22.528-7.168 41.984-22.016 57.856-14.336 15.872-31.232 24.064-52.224 24.064-19.968 0-37.376-8.192-52.224-24.064-14.336-15.872-20.992-35.328-20.992-57.856s7.168-41.984 20.992-57.856c14.848-15.872 32.256-24.064 52.224-24.064 20.992 0 37.888 8.192 52.224 24.064 14.848 15.872 22.016 34.816 22.016 57.856z m-21.504 0c0-16.384-5.12-30.72-14.848-41.984-10.24-12.288-22.528-18.432-36.864-18.432-14.848 0-27.136 6.144-37.376 18.432-10.24 11.264-15.36 25.6-15.36 41.984s5.12 30.72 15.36 41.984c10.24 11.264 23.04 17.408 37.376 17.408 13.824 0 26.112-5.632 36.864-17.408 9.728-11.264 14.848-25.6 14.848-41.984z m116.224 76.8h-22.016v-153.6h22.016v153.6z m200.192 0h-20.992l-84.992-123.392V870.4h-22.016v-153.6h24.576l82.432 117.248V716.8h20.992v153.6z" p-id="14064"></path><path d="M293.888 525.312l154.112-150.528 22.016 22.016L506.88 363.52s5.632-13.824-3.072-26.112L465.92 299.52s-19.968-13.824-48.64 4.096L199.168 527.36 409.6 744.96h66.56l34.816-40.96-41.984-46.08-27.136 25.088-147.968-157.696z" fill="#FFFFFF" p-id="14065"></path><path d="M466.432 401.92l46.592 44.032-76.288 86.016 76.288 79.872-40.448 41.472-126.976-121.344zM737.28 525.312l-154.112-150.528-22.016 22.016-36.864-33.28s-5.632-13.824 3.072-26.112l38.4-37.888s19.968-13.824 48.64 4.096l218.624 223.744-210.944 217.6h-66.56l-34.816-40.96 41.984-46.08 27.136 25.088 147.456-157.696z" fill="#FFFFFF" p-id="14066"></path><path d="M564.736 401.92l-46.08 44.032 75.776 86.016-75.776 79.872 39.936 41.472 126.976-121.344z" fill="#FFFFFF" p-id="14067"></path><path d="M1199.104 240.128c-0.512-12.288-3.072-20.992-8.192-26.112-7.168-6.144-24.576-9.216-51.712-9.216-5.632 0-8.192-3.072-8.192-8.704 0.512-5.632 3.072-8.704 8.192-8.704h161.792c7.168 0 10.752 3.072 10.752 8.704 0 6.144-3.584 8.704-10.752 8.704-29.696 0.512-46.592 4.096-51.2 11.264-4.096 6.144-5.632 14.336-5.632 23.552V486.4c0.512 35.84 11.776 63.488 34.304 83.456 18.432 15.872 43.008 24.064 73.728 24.064 45.568-0.512 77.312-15.36 94.72-44.544 8.704-14.336 12.8-33.792 12.8-58.368V242.176c-0.512-14.336-2.56-24.064-5.632-28.672-4.608-5.632-18.944-8.704-42.496-8.704-8.192 0-12.288-3.072-12.288-8.704s4.096-8.704 12.288-8.704h115.2c6.144 0 9.216 3.072 9.216 8.704-0.512 6.144-3.584 8.704-9.216 8.704-26.624 0.512-41.984 3.584-45.568 10.24-2.048 3.584-3.072 96.768-3.072 279.552-0.512 36.864-7.168 64-20.48 81.92-16.384 20.992-39.424 35.328-69.12 43.008-16.896 4.608-34.304 7.168-52.224 7.168-39.424-0.512-71.168-10.24-95.744-29.696-27.648-23.04-41.472-58.88-41.472-107.52V240.128zM1947.136 292.352c-0.512 5.632-3.072 8.704-8.192 8.704-4.096-0.512-7.168-2.56-9.216-6.656-15.872-30.72-33.28-54.784-52.224-73.216-24.576-22.528-50.176-34.304-77.824-34.304-22.528 0.512-41.472 7.68-55.296 22.528-14.848 15.872-22.528 34.816-22.528 57.856 0 28.16 12.288 50.176 36.864 65.536 13.312 8.192 36.352 17.92 69.632 28.16 50.176 15.872 83.968 32.768 100.864 49.664 20.992 20.992 31.744 47.104 31.744 77.824 0 44.032-19.456 77.824-58.368 101.376-12.288 7.168-24.576 12.288-37.888 15.872-31.232 6.656-74.24 1.536-129.536-15.36-3.072-1.024-5.632-1.024-8.192-1.024-5.12 0-8.704 1.536-11.264 5.12-1.024 3.072-2.56 6.144-3.584 8.704-1.536 4.096-4.096 6.656-7.68 6.656-4.608 0-8.192-3.072-10.752-8.704l-42.496-117.76c-1.024-2.048-1.536-3.584-1.536-5.12-0.512-6.656 2.56-10.24 8.704-10.24 2.56 0 5.12 1.536 7.68 5.12 24.576 40.448 45.568 68.096 62.976 83.456 25.088 22.016 54.784 32.768 89.088 32.768 28.672-0.512 51.2-8.192 67.584-24.064 17.92-16.384 26.624-36.864 26.624-61.952-0.512-9.216-1.536-17.408-3.072-23.552-9.216-29.696-45.568-53.76-109.568-73.216-45.568-15.36-77.312-30.72-94.72-46.592-22.016-22.016-32.768-47.616-32.768-77.312 0-37.888 14.848-67.584 44.032-90.112 3.072-2.56 6.144-4.608 8.704-5.632 43.008-26.624 89.088-27.136 138.24-0.512 5.12 2.56 9.728 4.096 13.312 4.608 2.56-0.512 10.752-5.12 25.088-14.848 4.608 0 7.68 3.072 9.216 8.704l36.352 107.52zM2110.464 585.216c3.072-5.632 4.608-13.312 4.608-23.04V236.544c0-12.8-3.072-20.992-8.704-26.112-5.12-4.608-17.92-7.168-37.888-7.168-5.632-0.512-8.704-3.584-8.704-9.216 0-6.656 3.072-10.24 8.704-10.24h175.616c44.544 0.512 82.944 10.24 114.688 29.696 57.856 35.84 86.528 94.72 86.528 177.152-0.512 88.576-26.112 152.064-76.8 189.44-31.232 23.552-72.704 35.328-123.904 35.328h-173.568c-5.632-0.512-8.192-3.584-8.192-9.216 0.512-6.144 3.072-9.216 8.192-9.216 21.504-0.512 34.816-4.608 39.424-11.776z m90.624-381.44c-15.872 0.512-26.624 4.096-32.256 11.264-5.12 4.608-7.68 11.264-7.68 19.968v318.464c0.512 17.408 3.072 28.672 8.192 33.792 7.68 6.656 15.872 10.24 26.112 10.24h53.248c42.496-0.512 77.824-16.384 105.984-48.128 28.16-33.792 42.496-86.016 42.496-156.672-0.512-79.872-24.576-134.656-73.216-165.376-26.112-15.36-51.2-23.04-74.752-23.04h-48.128zM2822.656 232.448c3.072-5.12 4.608-10.24 4.608-14.848 0-5.12-1.024-8.704-3.584-11.264-3.584-2.56-17.92-3.584-43.008-3.584-6.144-0.512-9.216-3.584-9.216-9.216 0.512-6.144 3.584-9.216 9.216-9.216h137.216c6.656 0.512 10.24 3.584 10.24 9.216-0.512 6.144-3.584 9.216-10.24 9.216-26.624-0.512-44.544 3.584-54.272 11.776-7.168 4.608-44.544 59.904-113.152 165.888l107.008 171.008c11.264 17.408 22.016 29.696 31.232 36.352 8.192 6.656 23.552 10.24 46.08 10.24 6.656 0 10.24 3.072 10.24 8.704-0.512 5.632-3.584 8.704-10.24 8.704h-166.4c-6.656 0-10.24-3.072-10.24-8.704 0.512-6.144 3.584-8.704 10.24-8.704h24.064c15.36 0 23.04-6.144 23.04-17.92-0.512-6.656-2.56-13.312-6.656-19.456l-86.528-136.704-88.576 136.704c-5.632 8.192-8.192 15.872-8.192 23.04 0 4.608 1.536 8.192 5.12 10.752s18.944 3.584 46.592 3.584c5.632 0 8.192 3.072 8.192 8.704-0.512 5.632-3.072 8.704-8.192 8.704h-141.824c-6.656 0-10.24-3.072-10.24-8.704 0.512-6.144 3.584-8.704 10.24-8.704 24.064-0.512 41.472-4.096 52.224-11.776 7.168-7.68 47.616-68.608 121.856-181.76l-109.056-172.032c-12.8-19.456-32.768-29.696-59.904-29.696-5.632-0.512-8.192-3.584-8.192-9.216 0-6.144 3.072-9.216 8.704-9.216h146.432c7.168 0.512 10.752 3.584 10.752 9.216 0 6.144-3.584 9.216-10.752 9.216h-17.92c-13.824 0.512-20.48 4.608-20.48 12.8 0 6.656 29.696 55.296 89.088 145.92l84.48-129.024z" p-id="14068"></path><path d="M1399.808 802.816c0 27.136-8.192 46.08-24.064 57.344-10.752 7.168-24.064 10.752-40.448 10.752s-29.696-3.584-40.448-10.752c-16.384-11.264-24.064-30.72-24.064-57.344v-87.552h20.48v87.552c0 31.744 14.848 47.616 44.032 47.616 29.184 0 44.032-15.872 44.032-47.616v-87.552h20.48v87.552zM1617.92 819.2c0 31.744-17.408 47.616-52.224 47.616h-77.312v-21.504h77.312c10.24 0 17.92-1.536 22.528-4.608 5.632-4.096 8.192-11.264 8.192-21.504 0-14.336-9.216-21.504-27.648-21.504H1536c-13.824 0-25.6-3.072-35.328-9.728-10.752-7.168-16.384-17.92-16.384-31.744 0-14.848 6.144-26.112 17.92-33.28 8.192-4.608 18.432-7.168 30.72-7.168h78.336v21.504h-78.336c-17.92 0-27.136 6.144-27.136 18.944 0 6.144 2.56 10.752 7.168 14.336 5.632 3.584 12.8 5.632 22.528 5.632h32.256c12.8 0 23.552 3.072 32.256 9.216 12.288 7.168 17.92 18.944 17.92 33.792zM1661.952 715.776h69.12c47.616 0 71.168 25.088 71.168 75.776s-23.552 75.776-71.168 75.776h-69.12m119.808-76.288c0-22.016-5.632-37.376-16.384-46.08-7.168-5.632-18.432-8.192-34.304-8.192h-47.616V844.8h47.616c14.848 0 26.624-3.072 34.304-9.216 11.264-7.168 16.384-22.016 16.384-44.544zM1990.656 866.816h-27.136l-49.664-64-49.664 64h-27.136l62.976-80.896-54.784-70.144h27.136l41.472 53.248 41.472-53.248h27.136l-54.784 70.144 62.976 80.896z" p-id="14069"></path></svg>