<?xml version="1.0" standalone="no"?><!DOCTYPE svg PUBLIC "-//W3C//DTD SVG 1.1//EN" "http://www.w3.org/Graphics/SVG/1.1/DTD/svg11.dtd"><svg t="1547622537589" class="icon" style="" viewBox="0 0 2813 1024" version="1.1" xmlns="http://www.w3.org/2000/svg" p-id="17215" xmlns:xlink="http://www.w3.org/1999/xlink" width="549.4140625" height="200"><defs><style type="text/css"></style></defs><path d="M354.12589877 617.82629062c-14.27787506 7.26285852-31.7429782 1.95160908-39.56138648-12.0305312l-1.95639809-4.30311755-81.66585162-179.27503157a15.49912711 15.49912711 0 0 1-1.41880823-6.30860542 14.9615363 14.9615363 0 0 1 14.96393128-14.96393126 14.67298546 14.67298546 0 0 1 8.94986269 2.98368689l96.38553289 68.4619602a44.50386642 44.50386642 0 0 0 39.85592429 4.54856556l453.32282362-201.77001732C761.72599891 179.41830846 627.83126219 116.82314745 476.23555231 116.82314745 228.6434349 116.77525564 27.75343704 284.41127445 27.75343704 490.92501851c0 112.47493163 60.44240475 214.09388831 155.020005 282.60613632a29.87757577 29.87757577 0 0 1 12.56812198 24.4501868 35.99341495 35.99341495 0 0 1-1.56487962 9.78079331l-20.24644487 75.40753304a44.9265157 44.9265157 0 0 0-2.3958093 10.95295654c0.05387879 8.22668963 6.73724165 14.86694967 14.96393031 14.86575168a16.82214976 16.82214976 0 0 0 8.65532589-2.78732868l98.24494935-56.67807404a46.95475148 46.95475148 0 0 1 23.81561438-6.895286 45.09054605 45.09054605 0 0 1 13.20389141 2.00548785 530.94537267 530.94537267 0 0 0 146.70591174 20.48949886c247.78727858 0 448.67727648-167.3917688 448.67727546-373.90551286a323.67972067 323.67972067 0 0 0-51.10341662-173.259765L357.64717647 616.26141195l-3.27582971 1.90730826-0.24544799-0.34242961z" fill="#00B700" p-id="17216"></path><path d="M1669.34385821 446.52172569h236.49189342v20.00099783H1669.34385821v-20.00099783m0 66.60493973h236.49189342v21.6640551H1669.34385821v-21.6640551m6.02244957 207.6380145h224.41107543V593.61915683H1675.36630778v127.14552309m21.65926711-107.58393647h180.93689185v87.38777742H1697.02557489v-87.38777742m-169.25118526-93.40304301l11.84135698 20.48949787c13.78099308-20.40808219 27.59790502-43.35924206 41.41481691-68.85347962v250.76976848h21.6712401V426.56981764a722.02344736 722.02344736 0 0 0 35.05712077-91.64300316l-20.10276844-11.58992296a665.57884738 665.57884738 0 0 1-89.88176632 196.44080892M1789.25406068 378.25492667z m0 0l16.9778001-9.78079331c-3.32851051-7.77530545-17.56447973-36.77405879-21.95859293-46.79910211l-19.95909198 11.54083317c7.10002519 13.34996283 13.79296604 26.69992565 19.95909198 40.0019957 0.86206052 1.50501389 1.43676717 3.16687415 1.66425527 4.88979717H1646.02033686v21.66405608h284.80319238V378.25492667H1789.25406068m-452.43801422-17.45792015h-19.95909203v74.91783502h-41.65427799v-106.55784465h-20.00698481v106.55784465h-43.27662739v-74.91783502H1191.9180664v94.91883286h144.89798006v-94.91883286M1198.6169942 498.99366379H1326.84248694v20.00099783H1198.6169942v-20.00099783m146.46046374 115.94711954l-33.20129728 28.5102523v-81.12826182h-108.27118968V593.96158644c3.26026477 44.79481125-7.79087038 76.401297-33.15460248 94.82185125l11.54083318 20.05008666c31.03656806-25.56009029 45.45093558-61.06260923 43.22394661-106.50875486V582.32377165h66.65402855v48.31489098c-0.82614164 16.38154154-1.60439048 21.85921631-7.48316264 29.92786256l12.52382119 21.6640561c11.08705403-8.90077289 30.48341231-25.52776242 58.1890739-49.88096762l-10.02145135-17.40883034M1180.22996483 335.85592371l-18.72945901-10.80688415a355.12097808 355.12097808 0 0 1-74.77056563 104.35719657l11.98024439 21.07617849a423.657171 423.657171 0 0 0 81.51978025-114.62649091m-21.6149663 98.19585958a445.60858093 445.60858093 0 0 1-77.7051637 129.24799252l11.58992295 20.0500867a914.347917 914.347917 0 0 0 37.85043642-47.72821136v186.56183602h20.00099786V502.12342208a571.51608905 571.51608905 0 0 0 27.77630328-57.06839546l-19.51249681-11.00324337" fill="#394144" p-id="17217"></path><path d="M1419.31043375 324.16902013h-20.97680189c-13.94861542 65.20289344-34.6021456 120.20114726-61.96058862 164.99595854l12.61960582 21.9083061 9.3389871-18.68156621c4.43003204-7.75854352 7.69867777-13.87198771 9.78199031-18.33793958 6.51334458 58.84519823 18.17510625 105.46590206 34.96133714 139.8597155-15.87627858 27.51648835-39.85831927 55.53704165-71.93414811 84.06285889l12.08081797 20.78403569c34.36268358-32.20992731 57.67423298-59.92157686 69.93464725-83.13374869a421.2877026 421.2877026 0 0 0 66.06734792 84.50226915l12.17660358-21.12526729c-28.41207271-27.14053387-53.06460469-57.21566485-66.60613672-83.13374968 24.37715108-44.36976798 39.36742327-108.7584937 44.93489666-193.16378124h23.32352237v-20.29433763h-94.71888267c8.06984327-24.3041154 17.75604895-53.35195852 20.97680189-78.24275355z m30.66300856 98.24375138c-4.46595188 71.07208762-16.1157396 127.12995717-34.96133712 168.17480661-14.43951142-36.64355231-24.9877776-86.05158385-31.64479962-148.22289858a152.77745108 152.77745108 0 0 1 8.32127726-19.99980084l58.28485948 0.04789278z m1113.99750492 81.0312792c24.4489898 36.38373637 54.22599196 86.21441719 68.74931406 114.96892052l18.977301-12.12751379c-14.66699948-26.94537267-44.99476144-75.45662283-69.63532046-111.83916121l-18.0912946 8.99775448z m-248.57271139-4.93888695l-14.08031887-9.43836371-4.40608614 0.88001943h-114.18707966v-79.02579136h173.26216096v-21.56587748H2182.72475117v-74.08690439h-21.12047831v74.08690439H1988.72525032v21.56587748h172.81915678v79.02579136h-117.35993981v21.12646529a334.684161 334.684161 0 0 0 110.08031934 129.34617116c-51.98702906 29.34118195-113.25318046 48.36398076-176.33923651 60.09997515l6.15415305 20.09917744 0.44300318 1.07518065c67.4322774-13.49603423 133.16437969-35.01401892 189.10251874-67.778299 52.47792506 32.76428006 115.94711856 54.77076577 189.16238545 66.01825913l0.82614064-1.46670005 5.7231228-18.82763761c-67.87528058-10.17111473-126.66300806-29.34118195-176.05188267-58.29084547 52.9089553-35.06310773 95.70067369-81.32462002 122.11324453-142.84340243z m-246.41756016 12.56812101h215.16787195c-24.4489898 49.83068081-63.03816421 88.02354683-110.22399576 118.09867879a307.58074298 307.58074298 0 0 1-104.94387619-118.09867879z m449.60039872-192.67528022c-26.16113785 70.66380626-68.01895702 138.54028388-113.20528765 184.36118696l8.80019929 22.83741632c0 0.34242962 0.49089501 0.83093063 0.63457242 1.17336023a445.87318486 445.87318486 0 0 0 53.30406572-66.01706212v260.4523822h21.18034406V427.54801667a685.53315042 685.53315042 0 0 0 49.3888756-102.69413831l-20.10276944-6.45587381z" fill="#394144" p-id="17218"></path><path d="M2737.71203027 416.73993553v-96.09219311h-21.16837111v96.09219309h-184.70840653v21.56587651h184.70840653v249.69458686c0 10.31838412-3.52007971 13.00873023-13.64928962 13.88875064-8.02195046 0.3915194-16.72636612 2.29763067-39.65477611 2.44489908v18.8276376c31.2496882 0 41.80992736-0.34242962 53.79496076-3.76552772 14.12821167-3.57036652 20.7253679-10.75899235 20.7253679-31.88426062V438.1106508h59.51808449v-21.37071527h-59.56597631z" fill="#394144" p-id="17219"></path></svg>