<?xml version="1.0" standalone="no"?><!DOCTYPE svg PUBLIC "-//W3C//DTD SVG 1.1//EN" "http://www.w3.org/Graphics/SVG/1.1/DTD/svg11.dtd"><svg t="1547622589757" class="icon" style="" viewBox="0 0 2560 1024" version="1.1" xmlns="http://www.w3.org/2000/svg" p-id="18934" xmlns:xlink="http://www.w3.org/1999/xlink" width="500" height="200"><defs><style type="text/css"></style></defs><path d="M783.93386668 506.2656c0-97.4848-131.8912-177.7664-295.3216-177.7664-131.8912 0-240.8448 51.6096-280.98559999 120.42239999-2.8672 5.7344-5.7344 14.33599999-5.7344 20.07040001 0 17.2032 11.46880001 34.4064 28.67199999 43.008l149.0944 86.016c8.6016 2.8672 17.2032 5.7344 25.8048 5.73439999 8.6016 0 20.0704-2.8672 25.8048-5.73439999l143.36-83.1488c8.6016-5.7344 14.33599999-14.33599999 14.33600001-22.9376 0-8.6016-5.7344-17.2032-14.33600001-22.9376l-51.6096-31.5392-117.5552 68.8128-88.8832-51.6096c34.4064-31.5392 97.4848-51.6096 172.032-51.6096 108.9536 0 197.8368 45.8752 197.8368 103.2192-2.8672 88.88320001-131.8912 157.696-289.5872 151.9616-157.696-2.8672-283.8528-80.2816-280.9856-169.1648 0-117.55519999 154.8288-209.3056 341.1968-209.3056 17.2032 0 34.4064 0 48.7424 2.8672-37.27360001-14.33599999-86.016-22.9376-140.49279999-22.9376-43.008 0-80.2816 5.7344-114.68800001 14.336-134.7584 45.8752-229.376 131.8912-229.37599999 232.2432 0 134.7584 172.032 243.71200001 381.33759999 243.712 212.1728 2.8672 381.3376-106.0864 381.3376-243.712zM904.35626669 446.05440001l25.8048 2.86719998h197.83679999c5.7344-14.33599999 8.6016-28.672 14.336-40.14079999 2.8672-11.46880001 8.6016-25.8048 11.4688-37.27360001l8.60160001-43.00799999c2.8672-14.33599999 5.7344-25.8048 5.73439999-28.672l2.8672-17.2032v-2.8672c0-2.8672 2.8672-2.8672 8.6016 0 0 0 5.7344 2.8672 14.336 5.7344s17.2032 8.6016 28.672 11.4688c8.6016 5.7344 14.33599999 8.6016 17.20320001 11.4688v5.7344s-5.7344 2.8672-14.33600001 5.73439999c-5.7344 11.46880001-11.46880001 22.9376-17.20319999 31.53920001-5.7344 11.46880001-25.8048 43.008-60.21120001 97.48479999h43.00800001c8.6016-11.46880001 14.33599999-20.0704 20.07039999-25.8048 5.7344-5.7344 8.6016-8.6016 11.4688-8.60159999 2.8672 0 5.7344 2.8672 11.46880001 5.73440001 11.46880001 8.6016 20.0704 17.2032 22.93759999 22.93759999 5.7344 5.7344 5.7344 11.46880001 5.7344 11.4688s-2.8672 2.8672-5.7344 2.8672h-344.064l-8.60159999-11.46879999z m97.4848 120.42239999c-17.2032 11.46880001-43.008 25.8048-71.68 37.27359999l-14.33600001 5.73440001H910.09066668c0-2.8672 0-2.8672 2.8672-5.73440001l14.336-8.60159999c2.8672-2.8672 8.6016-5.7344 14.336-11.4688s14.33599999-14.33599999 25.8048-22.9376c11.46880001-11.46880001 20.0704-22.9376 25.8048-34.40640001 8.6016-11.46880001 11.46880001-20.0704 14.33600001-25.8048l5.73439999-11.46879999c0-2.8672 2.8672-2.8672 2.8672-5.7344h2.8672c8.6016 5.7344 20.0704 11.46880001 34.40640001 17.20319999 11.46880001 8.6016 20.0704 11.46880001 17.20319999 14.33600001 0 2.8672 0 2.8672-2.8672 5.7344h-11.4688c-17.2032 17.2032-37.27360001 31.5392-54.47679999 45.8752z m111.8208-71.68c11.46880001 2.8672 22.9376 5.7344 31.53919999 5.73439999 11.46880001 2.8672 22.9376 8.6016 40.1408 14.33600001 17.2032 5.7344 28.672 14.33599999 37.2736 25.8048 8.6016 11.46880001 14.33599999 20.0704 14.336 28.672 0 8.6016 0 17.2032-5.7344 22.9376-5.7344 5.7344-11.46880001 8.6016-20.0704 8.60160001-8.6016 0-14.33599999-2.8672-17.2032-8.60160001-2.8672-5.7344-8.6016-11.46880001-14.336-22.9376s-11.46880001-20.0704-20.0704-31.5392c-8.6016-8.6016-14.33599999-17.2032-20.07039999-20.0704-5.7344-5.7344-11.46880001-11.46880001-20.07040001-14.336-8.6016-5.7344-11.46880001-5.7344-14.33599999-8.6016-2.8672 0-2.8672-2.8672-2.86720001-2.8672v-2.8672s2.8672-2.8672 5.7344 0l5.73440001 5.7344z m-63.07840001-206.4384c22.9376 20.0704 37.27360001 34.4064 45.8752 45.8752 8.6016 11.46880001 14.33599999 25.8048 14.33600001 37.27359999 2.8672 14.33599999 0 22.9376-2.86720001 31.53920001-2.8672 5.7344-5.7344 8.6016-11.4688 14.336-5.7344 2.8672-11.46880001 5.7344-20.0704 2.86720001-8.6016 0-14.33599999-5.7344-17.20319999-11.46880001-2.8672-5.7344-2.8672-14.33599999-2.86720001-17.2032 0 0 0-5.7344 2.86720001-11.4688 0-5.7344 2.8672-11.46880001 2.8672-20.0704V339.968c-2.8672-14.33599999-5.7344-25.8048-8.6016-31.5392l-8.60160001-17.20319999c-2.8672-2.8672-2.8672-5.7344-5.7344-8.60160001v-2.8672-2.8672h2.8672l8.6016 11.4688z m-88.8832 14.336c5.7344 2.8672 11.46880001 8.6016 20.07040001 14.33600001 8.6016 5.7344 17.2032 17.2032 28.672 28.67199998 11.46880001 14.33599999 17.2032 28.672 17.2032 43.00800001 0 17.2032-2.8672 25.8048-8.60160001 31.53920001-5.7344 5.7344-14.33599999 8.6016-22.9376 8.60159999-8.6016 0-14.33599999-2.8672-17.2032-8.60159999-2.8672-5.7344-5.7344-11.46880001-5.7344-14.33600001 0-5.7344 0-11.46880001 2.86720001-20.0704v-28.672c0-8.6016-2.8672-17.2032-5.73440001-22.9376-2.8672-5.7344-5.7344-14.33599999-11.46879999-20.0704-5.7344-5.7344-8.6016-11.46880001-8.6016-11.4688l-2.86720001-2.8672v-2.8672h2.86720001l11.46879999 5.7344zM1337.30346669 592.2816l25.8048 2.8672h83.1488v-263.7824l-2.86720001-51.6096c0-2.8672 5.7344-2.8672 8.6016-2.8672 20.0704 2.8672 31.5392 5.7344 40.14080001 8.6016 8.6016 2.8672 11.46880001 5.7344 8.6016 8.60159999 0 2.8672-5.7344 5.7344-14.33600001 11.46880001V598.016h37.27360001V282.624c0-2.8672 5.7344-2.8672 8.60159999-2.8672 20.0704 2.8672 31.5392 5.7344 37.27360001 5.7344 5.7344 2.8672 8.6016 2.8672 8.6016 5.73440001s2.8672 2.8672 0 5.73439999c0 2.8672-5.7344 5.7344-11.46880001 11.4688V512c2.8672-8.6016 5.7344-14.33599999 8.60160001-17.2032 2.8672-5.7344 5.7344-14.33599999 8.60159999-25.8048 5.7344-11.46880001 8.6016-22.9376 11.46880001-34.4064 2.8672-8.6016 5.7344-20.0704 8.6016-31.5392 2.8672-11.46880001 5.7344-20.0704 5.73439999-22.9376l2.8672-14.336 2.8672-11.4688c2.8672-2.8672 5.7344-2.8672 8.6016 0l20.0704 8.6016 17.2032 8.60159999c5.7344 2.8672 8.6016 5.7344 8.6016 8.60160001v2.8672c-2.8672 2.8672-5.7344 2.8672-14.33599999 5.7344-17.2032 31.5392-34.4064 60.2112-45.87520001 80.2816-11.46880001 20.0704-20.0704 34.4064-28.672 43.008l-11.46879999 28.672v51.6096h40.14079999c8.6016-11.46880001 14.33599999-17.2032 20.07040001-22.9376 2.8672-5.7344 5.7344-8.6016 8.60159999-8.6016 2.8672 0 5.7344 2.8672 11.4688 5.7344l11.4688 11.46879999 11.46880001 11.46880001c5.7344 5.7344 8.6016 8.6016 5.7344 8.6016 0 2.8672-2.8672 2.8672-5.7344 2.86720001H1348.77226668l-11.46879999-8.60160001z m34.4064-220.77440001c14.33599999 17.2032 25.8048 31.5392 34.40639999 43.00800001 8.6016 14.33599999 14.33599999 25.8048 20.0704 40.1408 5.7344 14.33599999 8.6016 25.8048 8.6016 37.2736s-2.8672 20.0704-8.6016 25.8048c-5.7344 5.7344-11.46880001 8.6016-22.9376 8.60159999-8.6016 0-14.33599999-2.8672-17.2032-8.60159999-2.8672-5.7344-5.7344-11.46880001-2.8672-20.07039999l2.8672-20.07040001v-34.4064c0-8.6016-2.8672-17.2032-5.7344-25.8048-2.8672-8.6016-2.8672-14.33599999-5.7344-20.07040001-2.8672-5.7344-5.7344-11.46880001-5.73439999-14.33599999-2.8672-2.8672-2.8672-5.7344-5.7344-8.6016 0-2.8672-2.8672-2.8672-2.86720001-5.73439999v-2.86720001s2.8672 0 5.7344 2.86720001l5.73440001 2.86719998zM1962.35306669 440.32h34.40639999c0 14.33599999 2.8672 22.9376 2.8672 22.9376 0 2.8672 0 8.6016 2.8672 20.0704 2.8672 11.46880001 2.8672 17.2032 2.8672 20.0704 0 2.8672 2.8672 11.46880001 5.7344 22.93759999-14.33599999 5.7344-31.5392 14.33599999-48.74239999 20.07040001v-106.0864z m-37.27360001-151.9616h-2.8672V563.6096c0 2.8672-2.8672 2.8672-2.8672 5.7344H1913.61066669v2.8672l17.2032 37.2736c0 2.8672 2.8672 5.7344 2.86719999 5.7344h2.86720001s2.8672 0 2.8672-2.8672l11.46879999-11.46879999c5.7344-5.7344 8.6016-11.46880001 11.46880001-14.33600001l14.33599999-17.2032c2.8672-2.8672 14.33599999-17.2032 31.53920001-34.4064l5.7344 14.33600001c2.8672 5.7344 5.7344 14.33599999 14.33599999 28.67199998 5.7344 14.33599999 14.33599999 22.9376 22.9376 31.53920001 8.6016 8.6016 14.33599999 11.46880001 14.33600001 11.4688s2.8672-2.8672 2.8672-5.7344c2.8672-2.8672 2.8672-5.7344 5.73439999-11.46880001 2.8672-2.8672 5.7344-8.6016 11.46880001-11.46879999 5.7344-2.8672 8.6016-5.7344 11.46879999-5.7344l11.4688-2.8672c2.8672 0 2.8672 0 2.86720001-2.8672 0 0 0-2.8672-2.86720001-2.86720001l-5.7344-2.86719998c-2.8672 0-8.6016-2.8672-20.0704-11.46880001-11.46880001-5.7344-22.9376-14.33599999-31.5392-25.8048-8.6016-8.6016-17.2032-20.0704-25.8048-34.4064l17.20320001-5.73439999 28.67199999-14.33600001c2.8672 0 8.6016-2.8672 14.33600001-5.7344l11.46879999-2.86720001c11.46880001-2.8672 11.46880001-5.7344-5.73439999-14.33599999-14.33599999-8.6016-25.8048-11.46880001-31.5392-14.33599999H2056.97066668l-2.8672 2.86719998 2.8672 14.33600001c-8.6016 11.46880001-17.2032 22.9376-28.672 34.40640001l-5.7344-11.46880001c0-2.8672-2.8672-8.6016-5.73439999-14.33599999-2.8672-8.6016-5.7344-14.33599999-5.73440001-17.20320001 0-2.8672-2.8672-8.6016-2.86719999-14.336h37.27359999v2.8672c0 5.7344 2.8672 8.6016 11.4688 8.6016 8.6016 0 14.33599999 0 20.0704-2.86720001 5.7344-2.8672 8.6016-2.8672 8.60160001-5.73439999 0 0 2.8672-2.8672 2.86719999-5.7344L2085.64266669 397.31199999v-80.28159998c5.7344-2.8672 11.46880001-5.7344 11.46879999-8.60160001 0-2.8672-5.7344-8.6016-20.0704-14.33600001-14.33599999-5.7344-20.0704-8.6016-22.9376-8.60159999-2.8672 0-2.8672 2.8672-5.7344 5.73440001l-8.60159999 8.60159999H1970.95466668l-45.8752-11.4688z m37.27360001 86.016h77.4144v57.344h-77.4144v-57.344z m0-63.0784h77.4144v57.34400001h-77.4144v-57.34400001z m-103.2192-20.07039999c2.8672 0 2.8672-2.8672 2.8672-5.73440001s-2.8672-2.8672-5.73440001-5.7344c-5.7344-2.8672-11.46880001-5.7344-22.93759999-8.6016-11.46880001-2.8672-17.2032-5.7344-17.20320001-5.73439999h-5.73439999-2.8672v5.73439999l-2.86720001 17.2032c0 5.7344-2.8672 14.33599999-5.7344 25.8048s-5.7344 22.9376-8.6016 31.53919999l-8.60159999 25.8048c-8.6016 14.33599999-11.46880001 20.0704-11.46880001 25.8048l-5.7344 11.46880001v5.7344h2.8672l5.7344-5.7344 5.7344-5.7344 8.6016 8.6016h31.5392v51.6096h-28.672l-22.9376-8.6016 11.4688 11.4688h43.008v86.01599999c0 2.8672 0 5.7344-2.8672 5.73440001 0 2.8672-2.8672 2.8672-2.8672 5.7344-2.8672 0-2.8672 2.8672-2.8672 2.8672s0 2.8672 2.8672 2.8672l20.07040001 40.1408c0 2.8672 2.8672 2.8672 2.86719999 2.8672l2.8672-2.8672 17.20320001-20.0704c2.8672-5.7344 20.0704-25.8048 51.6096-60.2112l11.46879999-14.336c0-2.8672 2.8672-2.8672 0-2.8672h-5.7344l-17.2032 8.6016c-8.6016 5.7344-22.9376 11.46880001-40.14079999 20.0704v-77.4144h57.34399999s2.8672 0 2.8672-2.8672-5.7344-8.6016-14.33599999-17.2032l-11.46880001-8.6016c-2.8672-2.8672-2.8672-2.8672-5.73439999-2.8672 0 0-2.8672 0-2.8672 2.8672 0 0-8.6016 8.6016-20.07040001 22.9376h-5.73439999v-43.008l5.73439999-5.7344s0-2.8672 2.8672-5.7344h34.4064s2.8672 0 2.86720001-2.8672-8.6016-11.46880001-25.8048-25.8048c-2.8672-2.8672-2.8672-2.8672-5.73440001-2.86720001l-8.6016 8.60160001-14.336 14.33600001h-48.74239999l-20.0704 2.86719998c11.46880001-14.33599999 25.8048-28.672 37.27359999-48.74239999H1913.61066669s2.8672 0 2.86719999-2.86720001-5.7344-5.7344-14.336-14.33599999l-11.4688-8.6016c-2.8672-2.8672-2.8672-2.8672-5.73439999-2.86720001l-22.9376 22.93760002h-40.14080001c5.7344-11.46880001 14.33599999-25.8048 22.9376-43.00800001l14.33600001-8.60159999zM2303.54986668 328.4992l-31.53919999 20.0704c-20.0704 11.46880001-37.27360001 20.0704-54.47680001 28.672l-14.336 5.7344h-5.73439999s0-2.8672 2.86719999-5.7344l8.6016-8.60159999 11.46880001-11.46880001c8.6016-8.6016 17.2032-17.2032 25.8048-28.672 11.46880001-11.46880001 20.0704-22.9376 28.672-37.27359999l5.73439999-11.46880001 2.8672-5.7344h2.8672c2.8672 0 5.7344 2.8672 8.6016 5.7344l17.2032 11.46880001 11.46880001 11.46879999c5.7344 5.7344 8.6016 8.6016 8.60159999 11.4688 0 2.8672-2.8672 5.7344-5.73439999 5.73439999h-8.6016c-2.8672 2.8672-11.46880001 5.7344-14.33600001 8.60160001z m0 83.1488c8.6016 5.7344 11.46880001 8.6016 14.33600001 8.60160001 0 2.8672-2.8672 5.7344-5.73440001 8.60159999v129.024l2.8672 37.2736c0 2.8672-2.8672 5.7344-2.8672 5.73440001-2.8672 2.8672-5.7344 2.8672-11.46879999 5.73439999s-11.46880001 2.8672-20.07040001 2.8672h-8.60159999c-2.8672 0-2.8672-2.8672-2.86720001-5.73440001l2.86720001-43.00799999v-117.5552c-22.9376 17.2032-40.14079999 28.672-51.6096 37.2736l-8.60160001 5.7344c-2.8672 2.8672-5.7344 2.8672-5.7344 0v-5.7344l8.60160001-8.60159999c5.7344-8.6016 11.46880001-14.33599999 17.20319999-20.07040001 5.7344-5.7344 14.33599999-17.2032 25.8048-34.4064s20.0704-31.5392 28.672-45.87520001l5.73440001-11.46879999c2.8672-5.7344 5.7344-8.6016 5.7344-8.6016h2.8672c2.8672 0 11.46880001 5.7344 25.8048 14.336s20.0704 17.2032 20.07039999 20.0704c0 2.8672-5.7344 5.7344-14.336 5.7344-14.33599999 5.7344-20.0704 11.46880001-28.672 20.0704z m172.032-2.8672c8.6016-11.46880001 14.33599999-20.0704 17.2032-25.8048 2.8672-5.7344 5.7344-8.6016 8.6016-8.6016 2.8672 0 5.7344 2.8672 14.336 8.6016 14.33599999 11.46880001 22.9376 20.0704 25.8048 22.9376 2.8672 2.8672 5.7344 5.7344 2.8672 8.6016 0 2.8672-2.8672 2.8672-5.7344 2.8672H2487.05066668c-2.8672 2.8672-2.8672 5.7344-5.73439999 8.6016v151.96159999c0 8.6016 0 14.33599999-2.8672 17.20320001-2.8672 2.8672-5.7344 5.7344-11.46880001 8.60159999-5.7344 2.8672-11.46880001 5.7344-20.07039999 5.73440001-8.6016 2.8672-14.33599999 2.8672-20.0704 2.8672-2.8672 0-5.7344 0-5.7344-2.8672v-8.60159999c0-2.8672 0-5.7344-2.86720001-8.60160001 0-2.8672-2.8672-5.7344-5.7344-8.6016-2.8672-2.8672-8.6016-5.7344-14.336-8.60159999l-11.4688-5.73440001c-2.8672 0-5.7344-2.8672-2.8672-5.7344 0-2.8672 2.8672-2.8672 5.7344-2.8672h8.6016l22.93760001 2.8672h11.46879999c2.8672 0 2.8672-2.8672 5.7344-5.7344V411.648H2335.08906668l-8.60159999-11.4688 25.8048 2.8672h123.28959999v5.7344z m-22.93759999-97.4848c8.6016-11.46880001 14.33599999-20.0704 17.20319999-22.9376 2.8672-5.7344 5.7344-5.7344 8.60160001-8.6016 2.8672 0 5.7344 0 8.60159999 5.7344 2.8672 2.8672 8.6016 5.7344 14.336 11.4688s11.46880001 8.6016 14.336 11.4688c2.8672 2.8672 2.8672 5.7344 2.8672 5.7344s-2.8672 2.8672-5.7344 2.86720001h-157.696l-8.6016-11.46880001 25.8048 2.8672h80.28160001v2.8672zM907.22346669 738.5088c8.6016 0 11.46880001-2.8672 11.46879999-11.4688v-48.74239999c0-8.6016-2.8672-8.6016-11.46879999-11.46880001v-2.8672h34.40639999v2.8672c-8.6016 0-11.46880001 0-11.46879999 11.46880001v48.74239999c0 8.6016 2.8672 8.6016 11.46879999 11.4688v2.8672l-34.40639999-2.8672zM1030.51306668 669.696c-5.7344 0-11.46880001 0-11.4688 14.336v57.344h-2.8672L967.43466668 681.16479999v43.00800001c0 11.46880001 2.8672 14.33599999 11.4688 14.336v2.8672h-25.8048v-2.8672c8.6016 0 11.46880001-2.8672 11.4688-14.336v-48.7424c-5.7344-5.7344-5.7344-5.7344-11.4688-5.7344v-2.8672h20.0704l43.008 54.4768V684.032c0-11.46880001-2.8672-14.33599999-11.4688-14.336v-2.8672l25.8048 2.8672zM1062.05226669 675.4304c0-2.8672 0-5.7344 5.73439999-5.7344 14.33599999 0 20.0704 2.8672 25.8048 8.60160001 8.6016 5.7344 11.46880001 17.2032 11.46880001 25.8048 0 31.5392-28.672 31.5392-34.40640001 31.53919999-5.7344 0-5.7344 0-5.7344-5.73439999v-54.47680001h-2.86719999z m-22.93760001 65.9456h31.5392c34.4064 0 43.008-22.9376 43.00800001-37.27359999 0-25.8048-17.2032-37.27360001-45.87520001-37.27360001h-31.53919999v2.8672c8.6016 0 8.6016 2.8672 8.60159999 11.46879999v48.74240002c5.7344 5.7344 2.8672 8.6016-5.7344 11.46879999zM1205.41226668 669.696c-8.6016 0-11.46880001 2.8672-11.4688 14.336v28.672c0 8.6016 0 28.672-28.67199999 28.672s-28.672-22.9376-28.672-28.672v-34.40639999c0-8.6016-2.8672-8.6016-11.46880001-11.46880001v-2.8672h31.53920001v2.8672c-8.6016 0-11.46880001 2.8672-11.46880001 11.46880001V712.704c0 5.7344 0 22.9376 20.07040001 22.9376 8.6016 0 14.33599999-2.8672 17.2032-8.6016 2.8672-2.8672 2.8672-5.7344 2.86719999-14.336v-28.672c0-11.46880001-2.8672-14.33599999-11.4688-14.336v-2.8672l31.5392 2.8672zM1265.62346669 689.7664c-5.7344-8.6016-11.46880001-20.0704-22.9376-20.0704-5.7344 0-11.46880001 2.8672-11.46880001 11.46879999 0 17.2032 37.27360001 20.0704 37.27360001 43.00800001 0 8.6016-8.6016 20.0704-22.93760001 20.0704-8.6016 0-14.33599999-2.8672-17.2032-2.8672-2.8672 0-2.8672 2.8672-2.8672 2.8672h-2.8672l-2.8672-22.9376h2.8672c2.8672 5.7344 8.6016 20.0704 22.9376 20.0704 8.6016 0 14.33599999-5.7344 14.33600001-11.46879999s-2.8672-11.46880001-17.2032-20.07040001c-11.46880001-5.7344-17.2032-11.46880001-17.20320001-22.9376s11.46880001-20.0704 20.0704-20.0704c5.7344 0 11.46880001 2.8672 14.33600001 2.8672 2.8672 0 2.8672-2.8672 2.86719999-2.8672h2.86720001v22.9376zM1331.56906668 741.376h-31.5392v-2.8672c11.46880001 0 11.46880001-2.8672 11.46880001-11.4688v-57.344h-5.73440001c-11.46880001 0-14.33599999 2.8672-17.2032 14.336H1282.82666668v-20.0704h63.07840001v20.0704h-2.8672c-2.8672-11.46880001-5.7344-14.33599999-17.20320001-14.336h-5.73439999v57.344c2.8672 8.6016 2.8672 11.46880001 11.46879999 14.336zM1431.92106668 741.376h-17.20319999l-25.8048-34.40640001h-5.73440001v22.93760002c0 8.6016 0 8.6016 11.46880001 11.46879999h-31.5392v-2.8672c8.6016 0 8.6016-2.8672 8.6016-11.4688v-48.74239999c0-8.6016-2.8672-8.6016-8.6016-11.46880001v-2.8672h31.5392c8.6016 0 28.672 2.8672 28.672 20.0704 0 14.33599999-14.33599999 17.2032-20.07040001 20.07040001l22.9376 28.67199998c-2.8672 2.8672 0 5.7344 5.7344 8.60160001z m-51.6096-40.1408c8.6016 0 25.8048 0 25.8048-17.2032 0-14.33599999-14.33599999-14.33599999-20.0704-14.336-5.7344 0-5.7344 0-5.7344 2.8672v28.672zM1440.52266669 738.5088c8.6016 0 11.46880001-2.8672 11.46879999-11.4688v-48.74239999c0-8.6016-2.8672-8.6016-11.46879999-11.46880001v-2.8672h34.4064v2.8672c-8.6016 0-11.46880001 0-11.46880001 11.46880001v48.74239999c0 8.6016 2.8672 8.6016 11.46880001 11.4688v2.8672l-34.4064-2.8672zM1506.46826668 712.704l11.46880001-31.53920001 14.33599999 31.53920001h-25.8048z m54.4768 25.8048c-5.7344 0-5.7344-2.8672-11.46879999-8.60159999l-28.67200001-63.07840001h-2.86719999l-22.93760001 54.4768c-2.8672 5.7344-5.7344 14.33599999-8.6016 17.2032-2.8672 2.8672-2.8672 2.8672-5.7344 2.8672h22.9376v-2.8672c-2.8672 0-8.6016 0-8.6016-5.73440001v-2.86719998l5.73440001-14.33600001h28.67199999l5.7344 11.4688c0 2.8672 2.8672 5.7344 2.8672 5.73439999 0 2.8672-2.8672 2.8672-8.6016 2.86720001v5.7344l31.5392-2.8672zM1603.95306669 669.696c-8.6016 0-11.46880001 0-11.46880001 11.46879999v51.6096c0 5.7344 2.8672 5.7344 11.46880001 5.73440001 17.2032 0 22.9376 0 31.53919999-14.336h2.8672l-5.7344 17.2032h-60.2112v-2.8672c8.6016 0 8.6016-2.8672 8.6016-11.4688v-48.74239999c0-8.6016-2.8672-8.6016-8.6016-11.46880001v-2.8672l31.53920001 5.7344zM1704.30506669 704.10240001c11.46880001 0 14.33599999 0 17.20319999 2.86719998 5.7344 2.8672 11.46880001 5.7344 11.46880001 14.33600001 0 14.33599999-14.33599999 17.2032-20.07040001 17.2032-5.7344 0-8.6016 0-8.60159999-5.73440001v-28.67199998z m-22.9376-34.40640001c8.6016 0 11.46880001 2.8672 11.46879999 11.46879999v48.74240002c0 8.6016 0 8.6016-11.46879999 11.46879999h37.27359999c25.8048 0 25.8048-14.33599999 25.8048-20.0704 0-11.46880001-8.6016-17.2032-20.07039999-20.0704 5.7344 0 14.33599999-2.8672 14.33599999-17.2032 0-17.2032-20.0704-20.0704-28.672-20.0704l-28.67199999 5.7344z m22.9376 2.8672c0-2.8672 0-2.8672 2.8672-2.8672h5.73439999c8.6016 0 20.0704 2.8672 20.07040001 14.336 0 14.33599999-14.33599999 14.33599999-17.20320001 14.336h-11.46879999v-25.8048zM1836.19626669 741.376h-28.672v-2.8672c2.8672 0 8.6016 0 8.60159999-2.8672s-2.8672-5.7344-2.8672-5.73439999l-5.73439999-11.46880001h-28.67200001l-5.7344 14.33599999v2.86720001c0 5.7344 5.7344 5.7344 8.60160001 5.7344h-22.9376v-2.8672c2.8672 0 2.8672 0 5.73439999-2.8672s5.7344-11.46880001 8.6016-17.2032l22.9376-54.4768h2.8672l28.67200001 63.0784c2.8672 8.6016 2.8672 11.46880001 8.6016 14.336z m-28.672-28.672l-14.33600001-31.53920001-11.46879999 31.53920001h25.8048zM1925.07946668 669.696c-5.7344 0-11.46880001 0-11.46879999 14.336v57.344h-2.8672l-48.7424-60.21120001v43.00800001c0 11.46880001 2.8672 14.33599999 11.46879999 14.336v2.8672h-25.8048v-2.8672c8.6016 0 11.46880001-2.8672 11.46880001-14.336v-48.7424c-5.7344-5.7344-5.7344-5.7344-11.46880001-5.7344v-2.8672h20.0704l43.00800001 54.4768V684.032c0-11.46880001-2.8672-14.33599999-11.46880001-14.336v-2.8672l25.8048 2.8672zM1979.55626668 666.8288h28.67200001v2.8672c-5.7344 0-8.6016 0-17.2032 8.60160001l-20.07040001 20.07039999 25.8048 28.672c8.6016 8.6016 11.46880001 11.46880001 17.20320001 11.4688v2.8672h-34.40640001v-2.8672c5.7344 0 8.6016 0 8.60160001-2.8672s-11.46880001-14.33599999-14.33600001-20.0704l-11.46879999-11.46879999-2.86720001 2.86719998v20.07040001c0 8.6016 0 8.6016 11.4688 11.4688v2.8672h-31.53919999v-2.8672c8.6016 0 11.46880001-2.8672 11.46879999-11.4688v-48.74239999c0-8.6016-2.8672-8.6016-11.46879999-11.46880001v-2.8672H1970.95466668v2.8672c-8.6016 0-11.46880001 2.8672-11.4688 11.46880001v22.93759999c25.8048-22.9376 28.672-25.8048 28.67200001-28.672-2.8672-2.8672-2.8672-2.8672-8.60160001-5.7344zM2120.04906669 689.7664c-2.8672-11.46880001-11.46880001-20.0704-25.8048-20.0704-5.7344 0-11.46880001 2.8672-17.20320001 5.7344-5.7344 2.8672-8.6016 11.46880001-8.60159999 28.67200001 0 22.9376 14.33599999 34.4064 28.67199999 34.40639999s22.9376-8.6016 25.8048-11.4688l2.8672 2.86720001s-8.6016 14.33599999-31.53919999 14.33599999c-17.2032 0-37.27360001-11.46880001-37.27360001-37.27360001s20.0704-37.27360001 37.27360001-37.27359999c8.6016 0 17.2032 2.8672 20.07039999 2.8672 0 0 2.8672 0 5.73440001-2.8672h2.86719999l-2.86719999 20.0704zM2177.39306668 738.5088c-11.46880001 0-22.9376-8.6016-22.9376-34.40639999 0-25.8048 11.46880001-34.4064 22.9376-34.40640001s22.9376 8.6016 22.9376 34.40640001c0 22.9376-11.46880001 34.4064-22.9376 34.40639999z m0 2.8672c20.0704 0 37.27360001-14.33599999 37.27360001-37.27359999 0-25.8048-17.2032-40.14079999-37.27360001-40.14080001-17.2032 0-37.27360001 14.33599999-37.2736 40.14080001 0 22.9376 17.2032 37.27360001 37.2736 37.27359999zM2237.60426668 741.376c2.8672 0 5.7344-2.8672 5.7344-5.7344s-2.8672-5.7344-5.7344-5.73439999-5.7344 2.8672-5.7344 5.73439999c0 5.7344 2.8672 5.7344 5.7344 5.7344zM2266.27626669 755.71200001c2.8672 0 11.46880001-8.6016 11.46879999-17.20320001s-5.7344-11.46880001-8.6016-11.4688c-2.8672 0-5.7344 2.8672-5.7344 5.73439999 0 5.7344 2.8672 5.7344 5.7344 5.73440001h2.86720001s2.8672 0 2.8672 2.8672 0 8.6016-8.6016 14.33600001zM2326.48746669 669.696c-8.6016 0-11.46880001 0-11.46880001 11.46879999v51.6096c0 5.7344 2.8672 5.7344 11.46880001 5.73440001 17.2032 0 22.9376 0 31.53919999-14.336h2.8672l-5.7344 17.2032h-60.2112v-2.8672c8.6016 0 8.6016-2.8672 8.6016-11.4688v-48.74239999c0-8.6016-2.8672-8.6016-8.6016-11.46880001v-2.8672l31.53920001 5.7344zM2409.63626668 741.376h-31.53919999v-2.8672c11.46880001 0 11.46880001-2.8672 11.46879999-11.4688v-57.344h-5.7344c-11.46880001 0-14.33599999 2.8672-17.2032 14.336h-2.8672v-20.0704h63.07840001v20.0704h-2.86720001c-2.8672-11.46880001-5.7344-14.33599999-17.2032-14.336H2401.03466669v57.344c-2.8672 8.6016-2.8672 11.46880001 8.60159999 14.336zM2455.51146669 675.4304c0-2.8672 0-5.7344 5.73439999-5.7344 14.33599999 0 20.0704 2.8672 25.8048 8.60160001 8.6016 5.7344 11.46880001 17.2032 11.46880001 25.8048 0 31.5392-28.672 31.5392-34.40640001 31.53919999-5.7344 0-5.7344 0-5.7344-5.73439999v-54.47680001h-2.86719999z m-20.07040001 65.9456h31.5392c34.4064 0 43.008-22.9376 43.008-37.27359999 0-25.8048-17.2032-37.27360001-45.8752-37.27360001h-31.5392v2.8672c8.6016 0 8.6016 2.8672 8.6016 11.46879999v48.74240002c2.8672 5.7344 2.8672 8.6016-5.7344 11.46879999zM2532.92586669 741.376c2.8672 0 5.7344-2.8672 5.73439999-5.7344s-2.8672-5.7344-5.73439999-5.73439999-5.7344 2.8672-5.73440001 5.73439999c0 5.7344 5.7344 5.7344 5.73440001 5.7344z" fill="#004186" p-id="18935"></path></svg>