<?xml version="1.0" standalone="no"?><!DOCTYPE svg PUBLIC "-//W3C//DTD SVG 1.1//EN" "http://www.w3.org/Graphics/SVG/1.1/DTD/svg11.dtd"><svg t="1547620226335" class="icon" style="" viewBox="0 0 1024 1024" version="1.1" xmlns="http://www.w3.org/2000/svg" p-id="2960" xmlns:xlink="http://www.w3.org/1999/xlink" width="200" height="200"><defs><style type="text/css"></style></defs><path d="M1005.82501028 504.01886228c0-127.76103856-173.13411885-231.32729205-386.73951568-231.32729205-170.87174924 0-315.97762143 66.42568582-366.88093751 158.42871642v-0.06284411a56.43355339 56.43355339 0 0 0-7.41554531 27.52549686c0 23.00075764 14.45402754 43.36208409 37.07772505 56.74777091l196.0720324 113.11848024c10.11781911 5.53023729 22.24663444 8.79810353 35.19241557 8.79810498 13.13431194 0 25.26312725-3.26786769 35.38094638-8.73526091l185.95421325-107.46255619c12.56871953-7.2270145 20.54985724-18.60170514 20.54985726-31.23326879 0-12.25450203-7.54123202-23.25213254-19.48151653-30.54198965l-69.06511557-40.03137377-153.33838479 88.48378947-115.88359813-66.99127823c44.8074864-40.34559129 128.20094428-67.49402654 223.84890264-67.49402654 142.90634668 0 258.7271022 60.70691773 258.72710222 135.61648956-3.0793369 115.82075551-173.07127474 205.5614165-379.57534525 200.21970999-206.62975723-5.46739321-371.65705164-103.94331509-368.57771472-219.82691323h-0.12568672C133.05309125 336.35213813 333.52417614 214.30986621 579.24265164 216.6350799c21.99525954 0.2513749 43.36208409 1.38255969 64.35184703 3.51924112-50.46341042-18.60170514-113.36985511-29.66217977-181.93222237-29.66217975-54.67393211 0-105.9543098 7.10132634-150.007673 19.35582982C133.68152775 258.74029102 9.2511995 372.04730203 9.2511995 504.01886228c0 176.71620403 223.03193683 319.99961231 498.34974801 319.99961235 275.19212446 0 498.28690538-143.28340829 498.28690538-319.99961235h-0.12568671z" fill="#004287" p-id="2961"></path></svg>