<?xml version="1.0" standalone="no"?><!DOCTYPE svg PUBLIC "-//W3C//DTD SVG 1.1//EN" "http://www.w3.org/Graphics/SVG/1.1/DTD/svg11.dtd"><svg t="1547620230491" class="icon" style="" viewBox="0 0 1024 1024" version="1.1" xmlns="http://www.w3.org/2000/svg" p-id="3090" xmlns:xlink="http://www.w3.org/1999/xlink" width="200" height="200"><defs><style type="text/css"></style></defs><path d="M596.65032938 46.14039228l-33.93554408 139.19857477h-165.21582523v88.29525718h201.09952139l41.85383768-135.30227057h354.4379047L1014.7488005 46.14039228h-418.09847112zM343.76768199 185.33896705L278.03327674 469.89478742H174.52986732v88.29525866h89.55213019l-13.95127923 49.0180081H174.52986732v92.19156138h59.70141963l-59.70141963 278.52283625h222.96909275v-92.19156139H250.13071828l11.94028451-49.01800808h135.42795728v-94.13971348H284.00341826l9.99213241-39.21440648h103.5034094v-96.1507082H309.89498201l11.94028451-49.0180081h75.66369355v-88.29525866h-57.81611161l12.00312712-51.02900281h45.81298449V326.61137915h-27.90255844l13.95127923-52.97715492h13.95127921V185.33896705h-53.73127812z m332.44264515 2.0109947l-41.7909936 139.2614174h-236.92037347v92.19156137h282.73335794l37.8318468-143.15772009h246.91250438l19.92142226-88.29525868h-308.68776431zM612.54976068 469.89478742l-59.70142109 272.67838144h-155.34937952v94.13971348h193.11838368l65.73440524-280.53383096h250.87165268l17.91042604-86.28426396H612.54976068z m-215.05080061 0v88.29525866h85.59298338l-9.92928834 49.0180081h-75.66369504v96.1507082h109.53639503l49.7721313-233.46397496h-159.30852633z m-338.47562926 0L9.2511995 699.27392886h165.27866782v-92.19156137H86.92588925l11.94028304-49.0180081H174.52986732v-88.29525869 508.02766293-508.02766293H59.02333081z m629.19012345 137.31326676l-63.72341053 278.52283624h-226.99108366v92.19156139h268.84492134l63.72341053-274.62653352h147.30539919l17.91042604-96.1507082h-207.06966291z" fill="#128B3E" p-id="3091"></path></svg>