<?xml version="1.0" standalone="no"?><!DOCTYPE svg PUBLIC "-//W3C//DTD SVG 1.1//EN" "http://www.w3.org/Graphics/SVG/1.1/DTD/svg11.dtd"><svg t="1547622586369" class="icon" style="" viewBox="0 0 2560 1024" version="1.1" xmlns="http://www.w3.org/2000/svg" p-id="18802" xmlns:xlink="http://www.w3.org/1999/xlink" width="500" height="200"><defs><style type="text/css"></style></defs><path d="M516.88320002 858.93120001l48.74239999-209.30560001h108.9536l14.336-71.68000001h-154.8288L485.34400001 790.1184h-280.9856l8.60160001-37.2736h246.57919999l48.7424-212.1728h189.23520001l14.33599999-65.94560001h-235.1104L430.86720001 684.032H227.29600001l8.6016-31.53919999H399.32800001l37.2736-177.76640002h-163.4304l8.6016-37.27359999h246.5792l28.672-108.9536H743.39200001l14.33600001-65.9456h-232.2432L493.94560001 368.64000001h-197.8368l11.4688-40.14080001h160.5632l31.53920001-103.2192h266.64959999l14.33600001-71.68h-315.392l-25.8048 106.0864h-163.43040001L227.29600001 471.85920001H63.86560001L26.59200002 646.7584h169.16479999l-43.008 212.17280001h364.13440001zM83.93600002 575.07840001l8.60159999-34.40640001h123.28960001l-11.46880001 37.27359999H83.93600002v-2.86719998z m169.16479999 0l8.6016-37.27360001h123.2896l-8.6016 37.27360001h-123.2896z" fill="#108C3E" p-id="18803"></path><path d="M2463.71200001 555.008l31.5392 22.93759999 22.9376 14.33600001 22.9376 14.336V566.4768h-2.86719999l-5.73440001-2.8672-28.67199999-17.2032-5.73440001-2.8672-2.8672-2.8672-2.8672-2.8672 2.8672-2.8672 14.33600001-25.8048 8.60159999-22.9376 2.8672-11.46880001 2.8672-11.46879999v-126.1568h22.9376v-34.4064h-108.9536l2.8672-5.7344 2.8672-5.73439999 2.8672-5.73440001 2.8672-11.4688v-22.9376H2406.36800002l-5.7344 22.9376-2.86720001 11.4688-2.8672-2.8672-2.8672 2.8672-2.8672 2.8672v40.1408h91.7504V446.05440001l-2.86719999 22.93759999-11.46880001 14.336-2.8672 8.6016v2.8672l-2.86719999-2.8672-5.73440001-5.7344V483.328l-2.86719999-5.7344-5.73440001-8.6016-2.8672-5.7344v-120.42239999h-45.8752v117.55519999l2.86720001 8.6016 2.86719999 8.6016 2.86720001 8.6016 2.8672 8.6016 5.73439999 8.6016 8.6016 11.4688 5.7344 5.7344 5.73440001 2.86720001 2.86719999 2.86719998-51.6096 37.27360001-2.86719999 8.6016v31.53919999l8.60159999-2.86719998 8.60160001-2.86720001 8.6016-2.8672 14.33599999-8.6016 8.60160001-5.7344 17.20319999-14.336 5.7344-5.7344 2.86720001-2.8672 5.73439999-2.8672zM1090.32320002 598.016v-91.7504h80.2816v14.336H1230.81600001V311.296h-137.62559999v-68.81280001h-54.4768V311.296h-137.62560001v209.3056h54.47680001v-14.336h83.1488V598.016h51.6096z m295.32159999-2.8672v-14.336h215.04000001v14.336h54.47679999V256.8192H1336.90240001v338.3296h48.7424z m639.3856 0v-286.72h31.5392v80.2816l-22.9376 17.2032v20.0704l22.9376 20.07040001v71.67999999l-2.8672 2.8672-2.8672 2.86720001-2.86719999 2.86719998-2.8672 2.86720001-2.86720001 2.8672-2.86719999 2.8672h-11.46880001v37.2736h20.07040001l5.73439999-2.8672 11.46880001-5.7344 11.46879999-5.7344 8.6016-5.73440001 5.73440001-5.73439999 2.86719999-2.8672V420.24960001h-20.07039999 5.73439999l2.8672-2.86720001 2.8672-2.8672 2.8672-2.8672 2.86720001-2.8672 2.86719999-2.8672 2.86720001-2.8672v-129.024H1976.28800001v326.86080001h48.7424v-5.73440001z m-68.8128-5.7344V288.3584h-71.67999999v-57.344h-43.008v57.344h-71.68000001v295.3216h48.7424V569.344h91.75040001v17.2032h45.87519999v2.8672z m421.4784-11.46880001v-43.00799999h-40.1408v-94.6176H2377.69600001v-40.1408h-40.1408v-94.6176H2377.69600001v-34.4064h-160.5632v34.4064h71.68v226.5088h-20.0704v-177.7664h-48.74239999v220.77440001H2377.69600001v2.86719998z m-992.0512-34.40639999v-243.712h215.04000001v243.712h-215.04000001z m432.9472-8.6016v-88.88319999h22.93760001v88.88319999h-22.93760001z m65.94560001 0v-88.88319999h28.67199999v88.88319999h-28.67199999z m-301.056-14.336V483.328h-68.81280001v-60.21120001h68.81280001v-34.40639999h-68.81280001v-37.2736h68.81280001v-34.40639999h-174.89920001v34.40639999h57.344v37.2736h-57.344v34.40639999h57.344V483.328h-57.344v40.14080001h174.89920001v-2.86720001z m-5.73440001-48.74239999v-34.40640001h-43.008v34.40640001h43.008z m-616.44799999-11.46880001v-103.2192h80.2816v103.2192h-80.2816z m129.024 0v-103.2192h80.2816v103.2192h-80.2816z m728.26879999-54.4768v-74.5472h22.93760001v74.5472h-22.93760001z m71.68000001 0v-74.5472h22.93759999v74.5472H1890.27200002z" fill="#1E1916" p-id="18804"></path><path d="M1084.58880002 701.2352l-17.2032 11.4688c-8.6016-11.46880001-20.0704-20.0704-31.53920001-25.8048-11.46880001-5.7344-25.8048-8.6016-40.1408-8.60159999-17.2032 0-31.5392 2.8672-45.8752 11.46879999-14.33599999 8.6016-25.8048 17.2032-31.5392 31.5392-8.6016 14.33599999-11.46880001 28.672-11.4688 45.8752 0 25.8048 8.6016 45.8752 25.8048 63.0784 17.2032 17.2032 40.14079999 25.8048 65.9456 25.8048 28.672 0 54.4768-11.46880001 71.68-34.4064l17.2032 11.46880001c-11.46880001 14.33599999-22.9376 22.9376-37.2736 31.53919999-14.33599999 8.6016-31.5392 11.46880001-51.6096 11.4688-37.27360001 0-65.94559999-11.46880001-86.01599999-37.2736-17.2032-20.0704-25.8048-45.8752-25.8048-74.5472 0-31.5392 11.46880001-54.4768 31.53919999-77.4144 20.0704-20.0704 48.7424-31.5392 80.2816-31.53920001 20.0704 0 37.27360001 2.8672 51.6096 11.46880001 11.46880001 8.6016 22.9376 20.0704 34.40640001 34.4064zM1124.72960001 661.0944h20.07040001v86.016h106.08639999v-86.016h20.07040001v206.4384h-20.07040001V770.048H1144.80000002v100.352h-20.07040001v-209.3056zM1319.69920001 661.0944h20.0704v206.4384h-20.0704v-206.4384zM1388.51200001 867.5328v-206.4384h5.73440001l137.6256 157.696v-157.696h20.07039999v206.4384H1546.20800001L1408.58240001 712.704v157.696h-20.0704zM1683.83360002 661.0944l97.4848 206.4384h-22.93760001L1726.84160001 798.72h-88.8832L1603.55200001 867.5328h-22.93759999l97.4848-206.4384h5.7344z m-2.86720001 45.87519999l-34.4064 74.54720002H1718.24000001l-37.2736-74.54720002zM1893.13920002 661.0944h40.14079999c22.9376 0 40.14079999 0 48.7424 2.8672 11.46880001 2.8672 20.0704 8.6016 28.672 17.20319999 8.6016 8.6016 11.46880001 20.0704 11.46880001 34.40640001s-2.8672 25.8048-11.46880001 34.4064c-8.6016 8.6016-17.2032 14.33599999-31.5392 17.2032-8.6016 2.8672-25.8048 2.8672-51.6096 2.8672h-14.336v97.4848h-20.07039999v-206.4384z m20.07039999 20.07039999v68.81280001H1947.61600001c14.33599999 0 25.8048 0 31.5392-2.8672 5.7344-2.8672 11.46880001-5.7344 14.33600001-11.4688 2.8672-5.7344 5.7344-11.46880001 5.73439999-20.0704 0-5.7344-2.8672-14.33599999-5.73439999-20.0704-2.8672-5.7344-8.6016-8.6016-14.33600001-11.4688-5.7344-2.8672-17.2032-2.8672-31.5392-2.86720001h-34.4064zM2162.65600001 658.2272c31.5392 0 57.344 11.46880001 77.4144 31.5392 20.0704 20.0704 31.5392 45.8752 31.53920001 77.4144s-11.46880001 57.344-31.53920001 77.4144c-20.0704 20.0704-45.8752 31.5392-77.4144 31.5392s-57.344-11.46880001-77.4144-31.5392c-20.0704-20.0704-31.5392-45.8752-31.5392-77.4144 0-20.0704 5.7344-37.27360001 14.336-54.4768 8.6016-17.2032 22.9376-31.5392 40.1408-40.1408 17.2032-11.46880001 34.4064-14.33599999 54.4768-14.336z m0 20.07040001c-14.33599999 0-28.672 2.8672-43.008 11.46879999-14.33599999 8.6016-25.8048 20.0704-31.5392 31.5392-8.6016 14.33599999-11.46880001 28.672-11.4688 45.8752 0 25.8048 8.6016 45.8752 25.8048 63.0784 17.2032 17.2032 37.27360001 25.8048 60.2112 25.8048 17.2032 0 31.5392-2.8672 45.8752-11.4688 14.33599999-8.6016 22.9376-17.2032 31.5392-31.5392 8.6016-14.33599999 11.46880001-28.672 11.46880001-45.8752 0-17.2032-2.8672-31.5392-11.46880001-45.8752-8.6016-14.33599999-17.2032-22.9376-31.5392-31.5392s-31.5392-11.46880001-45.8752-11.46879999zM2291.68000001 830.2592l17.2032-11.4688c11.46880001 22.9376 25.8048 34.4064 43.008 34.4064 5.7344 0 14.33599999-2.8672 20.0704-5.7344 5.7344-2.8672 11.46880001-8.6016 14.336-14.33599999 2.8672-5.7344 5.7344-11.46880001 5.7344-17.20320001 0-5.7344-2.8672-14.33599999-5.7344-20.0704-5.7344-8.6016-17.2032-20.0704-34.4064-34.4064s-28.672-22.9376-31.5392-28.67200001c-8.6016-8.6016-11.46880001-20.0704-11.4688-31.53919999 0-8.6016 2.8672-17.2032 5.7344-25.8048 2.8672-8.6016 11.46880001-14.33599999 17.20320001-17.2032 8.6016-2.8672 17.2032-5.7344 25.8048-5.73439999 8.6016 0 20.0704 2.8672 28.67199999 8.60159999 8.6016 5.7344 17.2032 14.33599999 25.8048 25.8048l-17.2032 11.4688c-8.6016-11.46880001-14.33599999-17.2032-20.07039999-20.07039999-5.7344-2.8672-11.46880001-5.7344-17.2032-5.73440001-8.6016 0-14.33599999 2.8672-20.07040001 8.60159999-5.7344 5.7344-8.6016 11.46880001-8.60159999 20.07040001 0 5.7344 0 8.6016 2.8672 14.336 2.8672 2.8672 5.7344 8.6016 11.46879999 14.33600001 2.8672 2.8672 11.46880001 8.6016 25.8048 20.07039999 17.2032 14.33599999 31.5392 25.8048 37.27360001 34.40639999 5.7344 11.46880001 8.6016 20.0704 8.60159999 31.53920001 0 14.33599999-5.7344 28.672-17.2032 40.1408-11.46880001 11.46880001-25.8048 17.2032-40.14079999 17.2032-11.46880001 0-22.9376-2.8672-34.4064-11.46880001-14.33599999-5.7344-22.9376-14.33599999-31.53920001-31.53919999zM2435.04000002 681.16479999v-20.07039999h114.68799999v20.07039999h-45.87519999v186.36800001h-20.0704v-186.36800001H2435.04000002z" fill="#040000" p-id="18805"></path></svg>