<?xml version="1.0" standalone="no"?><!DOCTYPE svg PUBLIC "-//W3C//DTD SVG 1.1//EN" "http://www.w3.org/Graphics/SVG/1.1/DTD/svg11.dtd"><svg t="1547622593548" class="icon" style="" viewBox="0 0 2560 1024" version="1.1" xmlns="http://www.w3.org/2000/svg" p-id="19064" xmlns:xlink="http://www.w3.org/1999/xlink" width="500" height="200"><defs><style type="text/css"></style></defs><path d="M818.6736 792.9856c-8.6016 8.6016-20.0704 17.2032-37.27359999 17.20319999-31.5392 0-48.7424-17.2032-48.7424-40.14079999 0-22.9376 20.0704-40.14079999 48.7424-40.14079999 11.46880001 0 22.9376 5.7344 25.8048 5.73439999 2.8672 0 5.7344-2.8672 5.7344-5.73439999h2.86719999v25.8048h-2.86719999c-5.7344-8.6016-17.2032-22.9376-31.5392-22.93760002-20.0704 0-25.8048 17.2032-25.8048 34.40640001 0 5.7344 0 17.2032 5.7344 25.8048 5.7344 8.6016 17.2032 8.6016 20.0704 8.6016 11.46880001 0 20.0704-2.8672 31.5392-14.336l5.73439999 5.7344zM927.6272 807.32160001H881.75200001v-2.86720001c8.6016 0 11.46880001 0 11.46879999-8.6016V770.048h-34.40639999v25.8048c0 5.7344 5.7344 8.6016 11.46879999 8.6016v2.86720001H824.408v-2.86720001c8.6016 0 11.46880001 0 11.46880001-8.6016V741.376c0-8.6016-5.7344-8.6016-11.46880001-8.60160001v-2.86719998h45.8752v2.86719998c-5.7344 0-11.46880001 0-11.46879999 8.60160001v22.9376h34.40639999V741.376c0-8.6016-5.7344-8.6016-11.46879999-8.60160001v-2.86719998h45.87519999v2.86719998c-5.7344 0-11.46880001 0-11.46879999 8.60160001v54.4768c0 5.7344 5.7344 5.7344 11.46879999 8.6016v2.86720001zM982.10400001 807.32160001h-48.7424v-2.86720001c8.6016 0 11.46880001 0 11.46879999-8.6016V741.376c0-8.6016-5.7344-8.6016-11.46879999-8.60160001v-2.86719998h48.7424v2.86719998c-5.7344 0-14.33599999 0-14.336 8.60160001v54.4768c0 5.7344 5.7344 8.6016 14.336 8.6016v2.86720001zM987.83840001 804.4544c8.6016 0 11.46880001-2.8672 11.46879999-8.6016V741.376c-8.6016-8.6016-8.6016-8.6016-11.46879999-8.60160001v-2.86719998h28.672l48.7424 48.74239999v-34.4064c0-5.7344-2.8672-11.46880001-11.4688-11.46880001v-2.86719998h28.67199999v2.86719998c-8.6016 0-11.46880001 2.8672-11.46879999 8.60160001v65.94560001h-2.8672l-60.2112-60.21120001v45.8752c0 8.6016 2.8672 11.46880001 14.33599999 11.4688v2.86720001h-31.53919999v-2.86720001zM1108.2608 781.51680001l14.33600001-25.8048 14.336 25.8048h-28.67200001z m68.8128 22.93759999c-5.7344 0-8.6016-2.8672-14.33599999-14.336l-31.5392-57.34400001h-2.86720001l-31.53919999 60.21120001c-2.8672 8.6016-5.7344 11.46880001-14.33600001 14.33600001v2.86719998h28.67200001v-2.86719998c-5.7344 0-11.46880001 0-11.46880001-5.73440001 0-2.8672 2.8672-5.7344 5.73440001-14.336h31.5392c2.8672 2.8672 5.7344 11.46880001 5.7344 14.336 0 2.8672-2.8672 2.8672-11.4688 2.8672v2.86720001h45.87519999v-2.86720001zM1343.37120001 807.32160001h-45.8752v-2.86720001c8.6016 0 11.46880001 0 11.46879999-8.6016v-57.344l-34.40639999 65.9456h-2.8672L1237.2848 741.376v51.6096c0 8.6016 2.8672 11.46880001 14.33600001 11.4688v2.86720001h-31.5392v-2.86720001c11.46880001 0 11.46880001-2.8672 11.46879999-8.6016V741.376c0-5.7344-2.8672-8.6016-11.46879999-8.60160001v-2.86719998H1254.488l28.672 51.6096 28.67200001-51.6096h34.4064v2.86719998c-8.6016 0-11.46880001 0-11.46880001 11.46880001v48.7424c0 8.6016 2.8672 8.6016 11.46880001 11.4688v2.86720001zM1349.10560001 732.77439999h80.2816v22.93760002H1426.52000001c-2.8672-17.2032-14.33599999-17.2032-31.5392-17.20320001-8.6016 0-11.46880001 0-11.46880001 5.7344v25.8048c14.33599999 0 20.0704-2.8672 22.93760001-17.2032h2.86719999v37.2736h-2.86719999c-2.8672-17.2032-8.6016-20.0704-22.93760001-20.0704v25.8048c0 5.7344 2.8672 5.7344 11.46880001 5.7344 14.33599999 0 28.672-2.8672 37.2736-20.07039999h2.86719999l-5.73439999 22.93759999h-80.2816v-2.8672c8.6016 0 11.46880001 0 11.46879999-8.6016V741.376c0-5.7344-5.7344-5.7344-11.46879999-8.60160001zM1478.12960001 738.5088c0-2.8672 0-5.7344 8.60159999-5.73440001 11.46880001 0 17.2032 5.7344 17.20320001 17.20320001 0 14.33599999-5.7344 17.2032-25.8048 17.2032v-28.672z m60.21119999 65.9456c-2.8672 0-2.8672 0-5.73439999-2.8672l-28.672-31.5392c8.6016-2.8672 22.9376-5.7344 22.9376-20.0704 0-20.0704-28.672-20.0704-40.14080001-20.07039999h-43.008v2.86719998c8.6016 0 11.46880001 0 11.46880001 11.46880001v48.7424c0 8.6016-2.8672 8.6016-11.46880001 11.4688v2.86720001h45.8752v-2.86720001c-8.6016 0-11.46880001 0-11.46879999-11.4688V770.048h2.8672l28.672 34.4064h28.67199999zM1632.95840001 792.9856c-11.46880001 8.6016-20.0704 17.2032-37.2736 17.20319999-31.5392 0-48.7424-17.2032-48.74240001-40.14079999 0-22.9376 20.0704-40.14079999 48.74240001-40.14079999 11.46880001 0 22.9376 5.7344 25.8048 5.73439999 2.8672 0 5.7344-2.8672 5.7344-5.73439999h2.8672v25.8048H1627.22400001c-5.7344-8.6016-17.2032-22.9376-31.5392-22.93760002-20.0704 0-25.8048 17.2032-25.8048 34.40640001 0 5.7344 0 17.2032 5.7344 25.8048 5.7344 8.6016 17.2032 8.6016 20.0704 8.6016 11.46880001 0 20.0704-2.8672 31.5392-14.336l5.7344 5.7344zM1744.7792 807.32160001h-45.87519999v-2.86720001c8.6016 0 11.46880001 0 11.4688-8.6016V770.048h-34.40640001v25.8048c0 5.7344 5.7344 8.6016 11.46880001 8.6016v2.86720001h-45.87520001v-2.86720001c8.6016 0 11.46880001 0 11.46880001-8.6016V741.376c0-8.6016-5.7344-8.6016-11.46880001-8.60160001v-2.86719998h45.87520001v2.86719998c-5.7344 0-11.46880001 0-11.46880001 8.60160001v22.9376h34.40640001V741.376c0-8.6016-5.7344-8.6016-11.4688-8.60160001v-2.86719998h45.87519999v2.86719998c-5.7344 0-11.46880001 0-11.46879999 8.60160001v54.4768c0 5.7344 5.7344 5.7344 11.46879999 8.6016v2.86720001zM1773.4512 781.51680001l14.33600001-25.8048 14.336 25.8048h-28.67200001z m68.81280001 22.93759999c-5.7344 0-8.6016-2.8672-14.336-14.336l-31.53920001-57.34400001h-2.86719999l-31.5392 60.21120001c-2.8672 8.6016-5.7344 11.46880001-14.33600001 14.33600001v2.86719998h28.67200001v-2.86719998c-5.7344 0-11.46880001 0-11.4688-5.73440001 0-2.8672 2.8672-5.7344 5.73439999-14.336h31.53920001c2.8672 2.8672 5.7344 11.46880001 5.7344 14.336 0 2.8672-2.8672 2.8672-11.46880001 2.8672v2.86720001h45.87520001v-2.86720001zM1847.9984 804.4544c8.6016 0 11.46880001-2.8672 11.46880001-8.6016V741.376c-8.6016-8.6016-8.6016-8.6016-11.46880001-8.60160001v-2.86719998h28.672l48.7424 48.74239999v-34.4064c0-5.7344-2.8672-11.46880001-14.33599999-11.46880001v-2.86719998h28.672v2.86719998c-11.46880001 0-11.46880001 2.8672-11.46880001 8.60160001v65.94560001h-2.8672l-60.21119999-60.21120001v45.8752c0 8.6016 2.8672 11.46880001 14.336 11.4688v2.86720001h-31.53920001v-2.86720001zM2017.16320001 807.32160001h-48.7424v-2.86720001c11.46880001 0 14.33599999 0 14.336-11.4688v-57.344c-8.6016 0-22.9376 0-25.8048 20.07040001h-2.86720001v-22.93760002h83.1488v22.93760002h-2.86719999c-2.8672-17.2032-17.2032-17.2032-25.8048-20.07040001v57.344c0 8.6016 2.8672 8.6016 14.336 11.4688v2.86720001zM2103.17920001 752.8448c-2.8672-8.6016-11.46880001-20.0704-25.8048-20.07040001-5.7344 0-14.33599999 2.8672-14.33600001 11.46880001 0 5.7344 2.8672 8.6016 14.33600001 14.33599999l20.0704 8.60160001c5.7344 2.8672 14.33599999 8.6016 14.336 20.0704 0 8.6016-8.6016 22.9376-34.4064 22.93759999-14.33599999 0-20.0704-2.8672-22.93760001-2.86719998-2.8672 0-2.8672 2.8672-2.86719999 2.86719998h-2.8672v-28.67199998h2.8672c2.8672 11.46880001 11.46880001 22.9376 28.67199999 22.93759999s17.2032-11.46880001 17.20320001-11.4688c0-8.6016-5.7344-11.46880001-14.33600001-14.336l-8.60159999-2.8672c-22.9376-8.6016-22.9376-20.0704-22.9376-22.9376 0-5.7344 2.8672-22.9376 31.53919999-22.93759999 11.46880001 0 17.2032 2.8672 22.9376 2.86719998 2.8672 0 2.8672-2.8672 5.73440001-2.86719998h2.86719999v22.93759999h-11.46879999zM2186.328 767.1808h2.86720001c8.6016 0 20.0704 2.8672 20.07039999 17.20319999 0 5.7344-2.8672 17.2032-17.2032 17.20320001-5.7344 0-8.6016-2.8672-8.6016-5.7344v-28.672z m0-25.8048c0-2.8672 0-5.7344 8.60160001-5.7344 11.46880001 0 14.33599999 5.7344 14.33599999 14.336 0 11.46880001-2.8672 17.2032-20.07039999 17.2032V741.376z m-34.40639999 65.94560001h45.8752c28.672 0 40.14079999-11.46880001 40.14079999-20.07040001 0-11.46880001-14.33599999-17.2032-25.8048-20.0704 5.7344 0 20.0704-2.8672 20.07040001-17.2032 0-17.2032-28.672-17.2032-37.2736-17.20320001h-43.008v2.86720001c5.7344 0 11.46880001 0 11.4688 8.6016V798.72c0 5.7344-5.7344 8.6016-11.4688 8.60160001zM2263.7424 781.51680001l14.33600001-25.8048 14.336 25.8048h-28.67200001z m68.81280001 22.93759999c-5.7344 0-8.6016-2.8672-14.336-14.336l-31.53920001-57.34400001h-2.86719999l-31.5392 60.21120001c-2.8672 8.6016-5.7344 11.46880001-14.33600001 14.33600001v2.86719998h28.67200001v-2.86719998c-5.7344 0-11.46880001 0-11.4688-5.73440001 0-2.8672 2.8672-5.7344 5.73439999-14.336h31.53920001c2.8672 2.8672 5.7344 11.46880001 5.7344 14.336 0 2.8672-2.8672 2.8672-11.46880001 2.8672v2.86720001h45.87520001v-2.86720001zM2341.1568 804.4544c8.6016 0 11.46880001-2.8672 11.46880001-8.6016V741.376c-8.6016-8.6016-8.6016-8.6016-11.46880001-8.60160001v-2.86719998h28.67200001l48.74239999 48.74239999v-34.4064c0-5.7344-2.8672-11.46880001-11.46879999-11.46880001v-2.86719998h28.672v2.86719998c-8.6016 0-11.46880001 2.8672-11.46880001 8.60160001v65.94560001h-2.86719999l-60.2112-60.21120001v45.8752c0 8.6016 2.8672 11.46880001 14.336 11.4688v2.86720001H2344.02400001v-2.86720001zM2544.728 807.32160001h-45.87519999v-2.86720001c8.6016 0 11.46880001 0 11.4688-2.8672s0-2.8672-2.8672-5.7344l-25.8048-25.8048-2.8672 2.8672v22.9376c0 5.7344 5.7344 5.7344 11.4688 8.6016v2.86720001h-45.87520001v-2.86720001c8.6016 0 11.46880001 0 11.46880001-8.6016V741.376c0-8.6016-5.7344-8.6016-11.46880001-8.60160001v-2.86719998h45.87520001v2.86719998c-8.6016 0-11.46880001 0-11.4688 11.46880001v22.9376l28.672-22.9376c2.8672-2.8672 5.7344-2.8672 5.7344-5.7344s-2.8672-2.8672-11.46880001-2.8672v-2.86720001h40.14080001v2.86720001c-14.33599999 0-20.0704 5.7344-43.008 25.8048l43.008 43.008c2.8672 2.8672 2.8672 2.8672 5.73439999 2.86720001z" fill="#231815" p-id="19065"></path><path d="M858.81440001 251.0848c0 25.8048-2.8672 60.2112 2.8672 83.1488h11.4688v2.8672h2.86719999v-2.8672h11.46880001c2.8672-5.7344 5.7344-11.46880001 5.73439999-22.9376h-2.86719999v-8.6016h-2.8672v-8.60160001h-2.8672v-8.60159999H881.75200001c0-2.8672 2.8672-8.6016 2.8672-11.4688 20.0704 2.8672 37.27360001 5.7344 57.344 8.6016h25.8048c5.7344 2.8672 17.2032 8.6016 28.67199999 5.7344v-2.8672h11.46880001V282.624h11.4688v-2.8672h8.6016v-2.8672h57.344c2.8672 8.6016 5.7344 5.7344 5.7344 17.20319999-5.7344 5.7344-2.8672 11.46880001-5.7344 20.07040001H1082.456v8.6016h-2.86719999v8.6016h-2.86720001v8.6016h-2.8672v8.6016h-2.86719999v8.6016h-2.8672c0 5.7344-2.8672 8.6016-2.8672 14.33599999h-2.8672c0 8.6016-2.8672 14.33599999-2.8672 22.93760002h-2.86720001v8.60159999H1053.78400001v5.7344h-2.86720001c0 2.8672-2.8672 5.7344-2.8672 11.46880001h-2.86719999v8.60159999c-2.8672 0-2.8672 2.8672-5.7344 2.8672-5.7344 5.7344-11.46880001 11.46880001-14.33600001 20.0704-5.7344 0-8.6016 2.8672-14.33599999 2.8672 0 8.6016 0 11.46880001 2.8672 17.20320001 8.6016 0 14.33599999 2.8672 22.9376 2.86719998v-2.86719998c8.6016 0 17.2032-2.8672 28.672-2.86720001 0 8.6016-2.8672 14.33599999-2.8672 22.9376h-2.8672v31.53920001h-2.86720001c-2.8672 8.6016 2.8672 22.9376 2.86720001 28.67199998v37.27360001h2.8672v14.33599999h2.8672c0 11.46880001-2.8672 22.9376-2.8672 31.53920001-8.6016 2.8672-14.33599999 2.8672-25.8048 0v-2.8672c-14.33599999 0-28.672 2.8672-43.008 2.8672v2.8672c-5.7344 0-17.2032-2.8672-20.07040001-5.7344H904.68960001v2.8672h-8.60160001v2.8672c-5.7344 0-2.8672 0-5.73439999-2.8672-14.33599999-11.46880001-2.8672-28.672-8.6016-48.7424-5.7344-25.8048 0-63.07840001 0-88.88319999-8.6016-5.7344-8.6016-14.33599999-20.0704-17.20320001v-2.8672H853.08000001c0 2.8672-2.8672 5.7344-2.86720001 11.4688h-2.86719999v60.21120001h2.86719999v8.60159999h2.86720001v34.4064h-2.86720001c0 8.6016 2.8672 14.33599999 2.86720001 22.9376h-2.86720001c0 5.7344-2.8672 11.46880001-2.86719999 14.33599999-14.33599999 5.7344-43.008 2.8672-63.0784 2.86720001v-2.86720001h-5.7344V626.68800001c-5.7344-2.8672-8.6016-8.6016-14.33600001-11.46880001v-5.7344h2.8672v-5.73440001c5.7344-2.8672 8.6016-8.6016 14.33600001-11.46879999v-2.8672h5.7344v-2.8672h11.46879999v-2.8672h2.86720001v-45.8752l-8.60160001-25.8048h-11.46879999c-2.8672 5.7344-8.6016 11.46880001-14.33600001 14.33599999-2.8672 0-8.6016 2.8672-11.46879999 2.86720001 0 2.8672-2.8672 2.8672-2.8672 5.7344h-5.73440001v2.8672c-2.8672 2.8672-5.7344 2.8672-11.46879999 5.7344-5.7344-28.672-22.9376-43.008-25.8048-77.4144 14.33599999 0 22.9376-2.8672 34.4064-8.6016h25.8048V454.656h5.7344c5.7344-2.8672 8.6016-8.6016 17.20319999-8.60159999 2.8672-5.7344 2.8672-5.7344 5.7344-8.60160001h2.86720001v-25.8048c-8.6016-5.7344-5.7344-11.46880001-20.0704-11.4688-5.7344 8.6016-20.0704 5.7344-28.672 2.8672l-2.8672-2.8672v-14.336h-2.86720001v-8.6016h-2.86719999v-5.73440001h-2.86720001v-5.73439999c-2.8672-8.6016-5.7344-14.33599999-8.60159999-28.672 22.9376 0 43.008-2.8672 63.0784-2.8672 2.8672-2.8672 5.7344-11.46880001 8.6016-11.4688-5.7344-28.672-11.46880001-54.4768-11.46880001-80.28160001 2.8672-2.8672 5.7344-2.8672 11.46880001-2.86719998 17.2032 5.7344 40.14079999 11.46880001 54.4768 11.46879999z m570.5728 20.0704h-5.7344c-2.8672 5.7344-2.8672 8.6016-8.6016 11.4688h-2.86720001v5.7344h-2.8672v11.4688c5.7344 2.8672 17.2032 2.8672 28.672 2.8672 5.7344 5.7344 14.33599999 0 22.9376 0 17.2032 0 37.27360001-2.8672 54.4768-2.8672v-2.8672h5.7344v-2.86720001h8.60160001v-2.86719998c8.6016 0 17.2032 2.8672 28.672 2.86719998 0 2.8672 2.8672 5.7344 2.8672 8.60160001 5.7344 5.7344 2.8672 31.5392 0 40.14080001-2.8672 0-2.8672 2.8672-5.7344 2.86719998v11.46880001l-2.8672 5.7344c-2.8672 2.8672-5.7344 2.8672-11.46880001 2.8672-5.7344-5.7344-17.2032-5.7344-25.8048-2.8672-2.8672 0 0 2.8672-2.8672 2.8672-14.33599999 0-28.672-2.8672-45.87519999-2.8672-2.8672 8.6016-8.6016 14.33599999-8.6016 28.672 5.7344 2.8672 8.6016 2.8672 17.2032 2.86720001 8.6016-8.6016 31.5392 0 37.27359999 2.86719998 2.8672 5.7344 2.8672 14.33599999 2.8672 25.8048h2.86720001v11.46880001h2.86719999c5.7344 17.2032-11.46880001 31.5392-5.7344 48.7424 2.8672 11.46880001 0 34.4064 2.86720001 48.7424h2.86719999c0 2.8672-2.8672 0-2.86719999 2.8672 0 5.7344 2.8672 5.7344 2.86719999 5.7344v37.27359999h2.86720001v20.07040001c-2.8672 11.46880001-5.7344 22.9376-8.60160001 37.2736-14.33599999 0-37.27360001 0-48.74239999-2.8672h-14.336v2.8672c-8.6016 0-14.33599999-2.8672-22.9376-2.8672v-2.86720001h-5.7344V626.68800001c-5.7344 0-8.6016-2.8672-14.33600001-2.86720001v-2.8672c-2.8672-2.8672 0 0-2.86719999-5.7344 5.7344-2.8672 8.6016-8.6016 8.6016-17.2032-20.0704-8.6016-40.14079999-8.6016-68.8128-8.6016l-5.73440001-11.46880001c2.8672-5.7344 0-14.33599999 0-25.8048 0-14.33599999 0-34.4064-2.86719999-48.74239999-5.7344 0-8.6016-2.8672-17.2032-2.86720001 0 25.8048 2.8672 54.4768 2.8672 80.28160001 0 14.33599999 2.8672 28.672-8.60160001 34.4064v2.8672h-8.6016v2.8672c0 5.7344-2.8672 5.7344-8.60159999 5.73440001-2.8672-5.7344-14.33599999-5.7344-22.9376-8.60160001 0-31.5392-2.8672-63.07840001-2.8672-91.75040001 0-14.33599999 2.8672-28.672 2.8672-43.00799999h-2.8672v-22.9376c0-17.2032-5.7344-54.4768 2.8672-65.94559999 5.7344-5.7344 22.9376-2.8672 31.53919999-2.86720001 5.7344 5.7344 20.0704 2.8672 28.672 0 0-8.6016-5.7344-22.9376-8.60159999-25.8048h-8.6016v2.86720001h-14.336v2.86719998h-28.672v2.86720001c-8.6016 0-20.0704 2.8672-28.672 2.8672-2.8672-5.7344-2.8672-5.7344-5.7344-8.60159999h-2.86720001v-14.33600001h-2.86719999c0-2.8672-2.8672-8.6016-2.86720001-11.46879999-2.8672-2.8672-5.7344-2.8672-8.60159999-2.86720001v-8.6016h-2.8672c0-11.46880001 2.8672-20.0704 2.8672-31.5392 2.8672 0 2.8672-2.8672 11.4688-2.8672 5.7344 11.46880001 11.46880001 2.8672 25.8048 8.6016v2.8672h43.008c20.0704 5.7344 43.008 0 68.8128 0 2.8672-5.7344 2.8672-2.8672 5.7344-8.6016-8.6016-5.7344-14.33599999-14.33599999-22.9376-20.0704v-14.33599999h-2.8672c0-5.7344-2.8672-11.46880001-2.8672-17.20320001 2.8672 0 5.7344-2.8672 8.60159999-2.8672v-2.86720001c2.8672 0 2.8672 2.8672 5.73440001 2.86720001 8.6016-2.8672 14.33599999 2.8672 25.8048 0v-2.86720001h8.6016v-2.86719998c2.8672 0 0 2.8672 2.8672 2.86719998h2.8672v-2.86719998h2.8672v2.86719998h14.336v2.86720001h5.7344v2.8672c5.7344 2.8672 8.6016 2.8672 14.336 5.7344-5.7344 5.7344-8.6016 8.6016-11.4688 17.2032z m372.736-28.67200001c2.8672 0 8.6016 2.8672 11.4688 2.86720001 2.8672 2.8672 2.8672 5.7344 5.7344 8.6016h2.86719999c0 2.8672 2.8672 5.7344 2.8672 8.6016 2.8672 2.8672 5.7344 5.7344 11.46880001 8.6016 0 2.8672 2.8672 5.7344 2.8672 8.6016 2.8672 2.8672 5.7344 2.8672 11.46879999 5.7344v5.73440001h2.86720001c5.7344 17.2032-11.46880001 31.5392 14.336 31.53919999 2.8672 2.8672 0 0 5.73439999 2.8672 0-2.8672 8.6016-8.6016 8.6016-8.60159999v-37.27360001h11.46880001v5.7344c8.6016 0 11.46880001 2.8672 17.2032 8.60159999 0 2.8672 2.8672 2.8672 2.8672 5.73440001h14.33599999v2.8672c2.8672 0 5.7344-2.8672 11.46880001-2.8672 0 0 0 2.8672 5.7344 2.8672 0 0 0-2.8672 5.73439999-2.8672 0 0 0 2.8672 5.73440001 2.8672v-2.8672h2.86719999v2.8672h28.67200001v-2.8672h5.7344v-2.8672h8.60159999c5.7344-2.8672 5.7344-5.7344 17.20320001-8.6016v5.73439999h5.7344v8.60160001h5.73439999c0 14.33599999 2.8672 25.8048 2.86720001 40.14080001h-2.86720001v5.73439999H2028.632v11.4688h-2.86719999v14.336h-2.8672v14.336h-2.8672v63.0784h-2.8672c0 8.6016-2.8672 14.33599999-2.8672 22.93759999 5.7344 0 8.6016-2.8672 14.33599999-2.86719998 2.8672-8.6016 2.8672-14.33599999 14.33600001-14.33600001 2.8672 5.7344 2.8672 2.8672 8.6016 5.7344v40.1408s2.8672 0 2.86719999 5.7344h-2.86719999v2.8672h-5.7344c-2.8672 2.8672-2.8672 5.7344-5.7344 8.6016-5.7344 2.8672-43.008 0-45.8752 0 0 2.8672-2.8672 5.7344-2.8672 11.4688 5.7344 2.8672 11.46880001 8.6016 17.2032 8.6016 8.6016 2.8672 17.2032 2.8672 25.8048 5.7344v2.86720001h5.7344v2.86719998c8.6016 2.8672 20.0704 2.8672 28.672 5.73440001-2.8672 8.6016-5.7344 14.33599999-8.6016 22.9376v8.6016l-8.6016 8.6016v5.73439999c-8.6016 8.6016-17.2032 17.2032-28.672 25.8048-14.33599999-2.8672-20.0704-14.33599999-31.5392-17.20319999v-5.7344c-5.7344-2.8672-5.7344-8.6016-8.6016-11.4688-2.8672 0-2.8672-2.8672-5.73440001-2.8672-5.7344-8.6016 0-14.33599999-14.33599999-14.33600001-5.7344 11.46880001-8.6016 8.6016-17.2032 17.20320001v2.8672c-2.8672 0-2.8672 2.8672-5.7344 2.86720001v5.73439999c-2.8672 2.8672-8.6016 5.7344-11.46880001 11.4688 0 2.8672-2.8672 2.8672-2.8672 5.7344h-8.60159999v2.86720001h-5.7344v2.86719998h-8.60160001v2.86720001h-8.60159999v2.8672h-5.7344v2.8672h-11.46880001v2.8672h-5.73439999v2.8672H1856.6c-2.8672-11.46880001-5.7344-22.9376-8.6016-31.5392-2.8672-2.8672-8.6016-5.7344-11.46879999-8.60160001-8.6016 2.8672-11.46880001 5.7344-17.2032 11.46880001v2.8672c-2.8672 0-8.6016 2.8672-11.4688 2.8672v2.8672h-5.7344c0 2.8672-2.8672 2.8672-2.86720001 5.73439999h-5.73439999v2.86720001h-5.7344c0 2.8672-2.8672 2.8672-2.8672 5.7344h-5.73440001v2.8672c-5.7344-2.8672-2.8672 0-5.7344-2.8672s-5.7344-5.7344-11.46879999-8.60160001v-5.73439999c-5.7344-5.7344-8.6016-5.7344-11.4688-14.336-5.7344-2.8672-5.7344 0-8.6016-8.60159999h-2.8672v-8.60160001h-2.8672v-5.7344h-2.8672c0-5.7344-2.8672-11.46880001-2.8672-14.336 17.2032 5.7344 48.7424-2.8672 54.4768-11.4688h2.8672c0-2.8672 2.8672-8.6016 2.8672-11.46879999h-2.8672c-2.8672-8.6016-2.8672-8.6016-11.4688-8.60160001-5.7344 8.6016-11.46880001 17.2032-25.8048 17.2032-2.8672-17.2032-2.8672-31.5392-5.73440001-48.7424h40.14080001c2.8672-5.7344 2.8672-11.46880001 2.8672-20.0704-8.6016 0-20.0704 2.8672-28.672 2.8672-2.8672-5.7344-5.7344-11.46880001-11.46880001-14.336l-2.8672 2.8672c-8.6016 5.7344-8.6016 17.2032-11.46879999 25.8048h-2.8672v5.7344c-2.8672 2.8672-5.7344 2.8672-8.60160001 5.7344v8.60159999c-5.7344 0-8.6016 0-11.46879999-2.86719998v-2.86720001c-2.8672 0-5.7344-2.8672-8.60160001-2.8672 0-2.8672-2.8672-5.7344-2.86719999-8.6016h-11.4688l-5.7344-2.8672v-25.8048c11.46880001-2.8672 31.5392-8.6016 40.14079999-14.336 0-2.8672 2.8672-5.7344 2.86720001-8.6016 2.8672 0 2.8672-2.8672 5.7344-2.8672 0-2.8672 2.8672-5.7344 2.8672-8.60159999l5.7344-5.73440001v-5.7344c2.8672 0 2.8672-2.8672 5.73439999-2.8672 2.8672-5.7344 2.8672-8.6016 5.73440001-14.336h2.86719999v-5.7344h2.86720001v-5.7344h2.8672v-5.7344h2.8672v-5.73439999h2.8672v-5.73440001h2.8672v-5.7344h2.86719999v-5.7344h2.8672c5.7344-22.9376 8.6016-45.8752 14.33600001-68.8128 8.6016-25.8048 14.33599999-40.14079999 14.336-65.94560001z m533.2992 129.024c-8.6016 0-11.46880001 0-17.2032 2.86720001-2.8672 5.7344-2.8672 11.46880001-2.86720001 20.07040001 11.46880001 5.7344 20.0704 8.6016 22.9376 20.07039999h5.73440001c2.8672 8.6016 2.8672 5.7344 11.4688 8.60159999v-2.86719998h2.8672v-17.20320001h2.8672v-2.8672h11.46879999c5.7344 5.7344 28.672 0 40.14080001 0 34.4064-2.8672 65.94559999-2.8672 100.352-5.73439999 5.7344 0 8.6016-2.8672 14.33599999-2.86720001v-2.8672h5.73440001c2.8672 0 0-5.7344 8.6016-5.7344v2.8672h5.73439999v11.46879999H2544.728c0 2.8672 2.8672 5.7344 2.8672 8.60160001v31.5392H2544.728c0 5.7344 2.8672 8.6016 2.8672 14.336h-17.20319999v2.8672c-8.6016 2.8672-20.0704 0-25.8048-2.8672-8.6016 0-20.0704 2.8672-28.67200001 2.8672-2.8672 5.7344-5.7344 8.6016-5.7344 20.07039999 8.6016 8.6016-2.8672 22.9376 0 34.40640001 2.8672 11.46880001 0 34.4064 2.86720001 48.7424 5.7344 20.0704 2.8672 51.6096 2.86719999 74.5472-31.5392 5.7344-60.2112 0-88.88319999-2.86720001-5.7344-8.6016-11.46880001-8.6016-14.33600001-17.20319999h-2.86719999v-11.46879999c2.8672-2.8672 0 0 2.86719999-5.73440001 8.6016 2.8672 14.33599999 2.8672 22.93760001 5.73440001 5.7344-5.7344 8.6016-11.46880001 14.336-17.20320001h2.8672v-25.8048c2.8672-2.8672 8.6016-22.9376 5.73439999-31.53920001-2.8672-14.33599999 0-45.8752-2.8672-65.94559999-5.7344-2.8672-14.33599999-2.8672-22.9376-2.8672-5.7344 5.7344-34.4064 0-43.00799999 0 0-5.7344 2.8672-8.6016 2.8672-14.336-2.8672-2.8672-8.6016-2.8672-14.33600001-2.8672v5.73440001h-5.73439999c-2.8672 5.7344-5.7344 5.7344-8.6016 11.46879999h-2.86720001c-5.7344 11.46880001 5.7344 28.672 5.73440001 37.2736h-2.8672c0 5.7344 2.8672 11.46880001 2.8672 14.336h-2.8672c0 20.0704-2.8672 37.27360001-2.86720001 57.344v40.1408h-2.86719999c-2.8672 5.7344-2.8672 11.46880001-5.73440001 14.336-5.7344 2.8672-8.6016 2.8672-11.46879999 8.60159999v2.86720001h-22.9376c-5.7344-5.7344-5.7344-2.8672-11.4688-5.73439999v-2.86720001h-5.73440001c0-2.8672-2.8672-2.8672-2.86719999-5.7344-5.7344 0-11.46880001-2.8672-17.2032-2.8672v-2.8672c-2.8672-2.8672 0 0-2.86720001-5.7344h5.7344c5.7344-11.46880001 14.33599999-8.6016 14.33600001-28.67200001h2.86719999V569.344h2.8672v-22.9376c0-20.0704 2.8672-40.14079999 0-51.6096-5.7344-2.8672-2.8672-2.8672-8.60159999-5.7344-2.8672 5.7344-2.8672 2.8672-8.6016 5.7344 0 2.8672-2.8672 2.8672-2.86720001 5.73439999h-2.86719999v5.73440001c-2.8672 0-2.8672 2.8672-5.73440001 2.8672-5.7344 5.7344-5.7344 8.6016-17.2032 11.4688-5.7344-5.7344-5.7344-2.8672-14.33599999-5.7344V512h-5.7344v-2.8672c-2.8672 0-5.7344-2.8672-8.6016-2.8672-2.8672-8.6016-5.7344-8.6016-8.6016-20.0704 2.8672 0 5.7344-5.7344 5.73439999-5.7344 8.6016-2.8672 14.33599999-5.7344 22.9376-8.60159999v-2.86720001h8.6016c2.8672-2.8672 2.8672-5.7344 5.73440001-8.6016 17.2032-11.46880001 43.008-25.8048 45.87519999-54.4768-5.7344-5.7344-2.8672-8.6016-14.33599999-8.60160001-5.7344 11.46880001-17.2032 20.0704-31.5392 20.07040001-2.8672-2.8672-5.7344-2.8672-8.6016-5.7344-5.7344-11.46880001-8.6016-22.9376-11.4688-40.14080001 5.7344-2.8672 11.46880001-8.6016 14.33599999-8.60159999h8.60160001c2.8672-2.8672 2.8672-5.7344 5.7344-8.6016h11.46879999v-2.8672h5.73440001c11.46880001-8.6016 20.0704-17.2032 28.672-28.672v-5.73439999c2.8672-2.8672 5.7344-2.8672 8.60159999-5.73440001v-5.7344h2.8672c0-2.8672 2.8672-5.7344 2.86720001-11.46880001h2.86719999c0-5.7344 2.8672-8.6016 2.86720001-14.33599999 2.8672 0 2.8672-2.8672 5.7344-2.8672v-5.7344c2.8672 0 2.8672-2.8672 5.7344-2.86720001v-5.73439999c2.8672 0 2.8672-2.8672 5.73439999-2.8672 5.7344-5.7344-2.8672-5.7344 8.60160001-8.6016v-2.8672c2.8672 0 8.6016-2.8672 11.4688-2.8672 2.8672 5.7344 8.6016 5.7344 11.46879999 14.336h2.86720001v8.60159999h2.8672l-8.6016 25.8048v2.86720001h2.86719999c0 14.33599999 2.8672 28.672 2.86720001 45.87520001h-2.86720001c-8.6016 17.2032-8.6016 22.9376-11.46879999 28.67199998z m177.7664-2.86719998c-20.0704 0-37.27360001-2.8672-57.344-2.86720001v2.86720001h-48.7424v2.86719998c-2.8672 0-5.7344-2.8672-8.60160001-2.86719998v2.86719998c-14.33599999 2.8672-28.672 0-40.14079999 2.86720001v-17.2032c-5.7344-5.7344 0-22.9376-2.8672-31.5392-2.8672-5.7344-5.7344-11.46880001-5.7344-20.0704 17.2032 0 31.5392 2.8672 48.74239999 2.8672 5.7344 0 17.2032-5.7344 25.8048-2.8672v2.8672h14.33600001v2.8672c2.8672 0 8.6016-2.8672 11.46879999-2.8672 0 0 0 2.8672 5.73440001 2.8672v-2.8672c5.7344 0 14.33599999-2.8672 20.07039999-2.8672 11.46880001-5.7344 20.0704-14.33599999 37.27360001-17.2032 5.7344 8.6016 8.6016 0 8.60159999 17.2032-2.8672 2.8672-5.7344 22.9376-5.73439999 28.672h2.86719999v20.0704c-2.8672 0-2.8672 2.8672-5.73439999 2.8672 2.8672 2.8672 2.8672 8.6016 0 11.46880001z m-670.9248 0c2.8672-8.6016 5.7344-8.6016 8.60159999-22.93760002-2.8672 0-5.7344-2.8672-8.60159999-2.86719998-2.8672-2.8672-2.8672-5.7344-5.7344-8.60160001H1827.92800001c-5.7344 8.6016-8.6016 8.6016-11.4688 25.8048 2.8672 0 5.7344 2.8672 8.60159999 2.8672v2.8672c8.6016 0 11.46880001 0 17.20320001 2.86720001z m-946.17600001-25.8048c-5.7344 14.33599999-11.46880001 43.008-22.93759999 51.6096v2.86719998c-11.46880001 5.7344-11.46880001-8.6016-17.2032 8.60160001H853.08000001v2.8672h2.8672c2.8672 2.8672 5.7344 5.7344 8.6016 11.46880001h5.73439999l5.7344 5.73439999v5.7344h2.86720001c0 2.8672 2.8672 2.8672 2.8672 5.7344h8.6016c0-2.8672 5.7344-5.7344 5.73439999-5.7344v-8.60160001h2.86720001c0-5.7344 2.8672-8.6016 2.86719999-14.33599999 2.8672 0 2.8672-2.8672 5.73440001-2.8672v-5.7344c2.8672 0 2.8672-2.8672 5.7344-2.86720001v-5.73439999c2.8672 0 2.8672-2.8672 5.73439999-2.8672v-5.7344c2.8672-8.6016 8.6016-11.46880001 11.46880001-22.9376-2.8672-2.8672-5.7344-8.6016-8.60160001-11.4688-14.33599999-2.8672-20.0704-5.7344-25.8048-5.73439999z m108.9536 2.86719998c-2.8672 2.8672-17.2032 2.8672-25.8048 2.86720001 0 2.8672-2.8672 5.7344-2.86719999 8.6016-5.7344 5.7344-2.8672 22.9376-5.73440001 28.672H967.76800001v5.7344c-2.8672 0-2.8672 2.8672-5.7344 2.86720001-5.7344 5.7344-5.7344 11.46880001-8.60160001 22.93759999 2.8672 2.8672 8.6016 14.33599999 17.2032 8.6016v-2.86720001h5.73440001c2.8672-2.8672 2.8672-5.7344 5.7344-8.60159999h2.8672v-5.7344c2.8672-2.8672 5.7344-2.8672 8.6016-5.7344 2.8672-5.7344 2.8672-11.46880001 5.73439999-17.2032 5.7344-11.46880001 17.2032-20.0704 17.20320001-37.2736-5.7344-2.8672-5.7344-2.8672-11.46880001-2.86720001z m957.64480001 2.86720001c0 2.8672 0 2.8672 0 0-2.8672 2.8672-8.6016 2.8672-11.46880001 2.8672-5.7344 0-20.0704 2.8672-22.9376 8.6016-2.8672 2.8672-2.8672 5.7344-5.73439999 11.46879999 5.7344 2.8672 14.33599999 2.8672 25.8048 2.86720001v2.8672h11.46879999c5.7344-8.6016 14.33599999-8.6016 14.33600001-22.9376-2.8672-2.8672-2.8672-2.8672-11.4688-5.7344z m-570.57280001 11.4688c-2.8672 2.8672-5.7344 2.8672-8.6016 2.8672-5.7344 8.6016-8.6016 5.7344-11.46879999 20.0704 8.6016 8.6016 8.6016 17.2032 28.672 17.2032 2.8672-2.8672 8.6016-5.7344 8.60159999-8.6016v-11.4688h2.8672c0-5.7344 2.8672-11.46880001 2.86720001-17.2032-8.6016 0-14.33599999-2.8672-22.93760001-2.8672z m467.35360001 43.008c-11.46880001-2.8672-14.33599999-2.8672-25.8048 0-2.8672 2.8672-2.8672 5.7344-2.86720001 11.4688 2.8672 0 5.7344 5.7344 5.73440001 5.73440001 11.46880001 5.7344 20.0704-2.8672 28.672 8.60159999 11.46880001 11.46880001 2.8672 31.5392 0 43.00800001v28.67199998h2.8672c0 8.6016-2.8672 17.2032-2.8672 28.67200001v25.8048h-2.8672v5.7344c-2.8672 2.8672-5.7344 2.8672-8.6016 5.7344-2.8672 5.7344 2.8672 14.33599999 2.86719999 17.2032 5.7344 2.8672 8.6016 2.8672 14.33600001 2.8672 0-2.8672 5.7344-5.7344 5.73439999-5.7344 2.8672-8.6016 2.8672-17.2032 5.7344-25.8048h2.86720001v-5.73439999h2.8672c0-8.6016-2.8672-17.2032-2.8672-25.8048h2.8672c2.8672-14.33599999 0-37.27360001-2.8672-48.74240002v-45.87519999h-2.86720001c0-17.2032-2.8672-37.27360001-2.86719999-54.4768-5.7344 0-5.7344 0-8.6016 2.8672-5.7344 5.7344-8.6016 11.46880001-11.4688 25.8048z m-65.9456-2.8672c-2.8672 5.7344-5.7344 8.6016-8.6016 14.336h11.46879999c2.8672-2.8672 2.8672-5.7344 2.8672-11.4688-2.8672-2.8672-2.8672-2.8672-5.73439999-2.8672z m177.7664 34.4064c0-5.7344 2.8672-8.6016 2.8672-14.33599999-8.6016-5.7344-8.6016-8.6016-20.07040001-8.60160001-5.7344 5.7344-11.46880001 5.7344-22.93759999 5.7344-2.8672 5.7344-5.7344 5.7344-8.6016 14.336 2.8672 2.8672 5.7344 5.7344 8.6016 11.4688 5.7344 0 5.7344-2.8672 5.7344-2.8672h22.93759999v-2.8672c2.8672 0 5.7344-2.8672 11.46880001-2.8672z m-989.184 31.5392V454.656l-5.7344-5.73440001c-2.8672 0-5.7344-2.8672-8.6016-2.86719998-8.6016-5.7344-14.33599999-14.33599999-17.2032-22.93760002h-5.73440001c-8.6016 14.33599999-17.2032 20.0704-20.07039999 40.14080001l2.86719999 2.8672c17.2032 5.7344 34.4064 5.7344 54.47680001 0z m453.01759999 0c8.6016 2.8672 8.6016 5.7344 20.07040001 8.60159999 5.7344-8.6016 11.46880001-11.46880001 11.4688-28.67199998-2.8672-2.8672-8.6016-2.8672-14.336-2.86720001v-2.8672c-2.8672-2.8672-14.33599999 2.8672-17.20320001 2.8672-2.8672 5.7344-2.8672 8.6016-2.86719999 17.2032 2.8672 5.7344 0 2.8672 2.86719999 5.7344z m-111.82079999-17.20320001c-2.8672 11.46880001-5.7344 20.0704-5.7344 31.53920001 2.8672 2.8672 8.6016 2.8672 14.33599999 2.8672v-2.8672h5.73440001v-2.8672h5.7344v-2.86720001c8.6016-5.7344 8.6016-5.7344 8.6016-22.93759999-5.7344-5.7344-2.8672-8.6016-14.336-11.4688v2.8672c-8.6016 5.7344-11.46880001 5.7344-14.336 5.73439999z m60.21119999 48.74240002h28.672c2.8672-2.8672 2.8672-2.8672 2.86720001-11.46880001-8.6016-8.6016-2.8672-28.672-8.6016-40.14079999-14.33599999-2.8672-25.8048-5.7344-25.8048 14.33599999 0 2.8672 5.7344 17.2032 5.73439999 22.9376h-2.8672c0 5.7344 2.8672 8.6016 0 14.33600001z m467.3536-11.46880001v-5.7344c2.8672 0 2.8672-2.8672 5.7344-2.8672v-8.6016c-5.7344-2.8672-8.6016-2.8672-17.20319999-2.8672-2.8672 5.7344-5.7344 8.6016-8.60160001 17.2032 2.8672 0 5.7344 2.8672 8.60160001 2.8672v2.8672c2.8672 0 5.7344 0 11.46879999-2.8672z m149.09440001-8.6016c-2.8672 0-8.6016-2.8672-11.4688-2.86720001v-2.86719998c-5.7344-2.8672-43.008 5.7344-45.8752 8.60159999h-2.8672v8.6016h2.8672c0 2.8672 2.8672 5.7344 2.8672 11.46879999 2.8672 0 2.8672 2.8672 5.73439999 2.86720001 0 2.8672 2.8672 5.7344 2.8672 8.6016h8.60160001c8.6016-17.2032 34.4064-20.0704 37.2736-34.4064z m-556.23680001 114.688h5.73440001v2.8672h2.8672v-2.8672h8.60159999v-2.8672c5.7344-5.7344 2.8672-17.2032 2.8672-28.672 0-17.2032 8.6016-57.344 0-65.9456v-2.8672H1455.19200001c-2.8672 2.8672-5.7344 8.6016-8.6016 11.4688-2.8672 31.5392-2.8672 60.2112-2.86720001 88.8832z m475.95520001-40.14080001h5.73439999v2.86720001c2.8672 0 8.6016-2.8672 11.46880001-5.73439999 2.8672-8.6016 8.6016-11.46880001 11.4688-22.93760002-8.6016-5.7344-11.46880001-17.2032-17.2032-28.67199998-14.33599999 2.8672-11.46880001 14.33599999-11.4688 28.67199998-5.7344 8.6016 0 20.0704 0 25.8048z m-86.016-31.53919999c-2.8672 5.7344-5.7344 2.8672-5.7344 14.336 8.6016 5.7344 8.6016 8.6016 22.93759999 8.6016 2.8672 0 0 2.8672 5.7344 2.8672v-2.8672c8.6016-2.8672 5.7344-2.8672 8.60160001-8.6016-2.8672-2.8672-5.7344-2.8672-8.60160001-5.7344 0-2.8672-2.8672-5.7344-2.86719999-8.6016h-20.0704z m-891.6992 54.47680001h22.9376v-2.86720001c5.7344 0 2.8672 2.8672 5.73439999 2.86720001h2.8672v-2.86720001c11.46880001 0 22.9376 2.8672 31.5392 2.86720001 2.8672-5.7344 2.8672-11.46880001 2.86720001-20.07040001 0-2.8672 2.8672-14.33599999 2.8672-25.8048-2.8672 0-5.7344-2.8672-8.6016-2.86720001-5.7344-5.7344-45.8752-2.8672-57.34400001-2.86719998-5.7344 8.6016-5.7344 5.7344-5.73439999 20.07039999-5.7344 5.7344 0 22.9376 2.8672 31.53920001z m435.8144-11.46880001l25.8048 8.6016c5.7344-8.6016 11.46880001-11.46880001 14.33599999-20.07040001h-2.86719999v-20.07039999c-11.46880001-2.8672-20.0704 0-34.4064 0-2.8672 5.7344-2.8672 20.0704-2.8672 31.5392z" fill="#231815" p-id="19066"></path><path d="M488.9456 457.5232h126.15680001c0-5.7344-2.8672-8.6016-2.86720001-14.336h-129.024l5.7344 14.336z" fill="#E50012" p-id="19067"></path><path d="M557.7584 635.2896l-63.07839999 88.8832H142.01440001L78.93600001 632.4224l157.696-387.072 83.1488 206.4384 88.8832-206.4384L480.344 425.984h131.8912c-37.27360001-123.2896-151.9616-215.04-286.72-215.04C156.35040001 213.81120001 21.59200001 345.70239999 21.59200001 512s134.7584 298.18879999 298.1888 298.18879999c129.024 0 240.8448-83.1488 280.9856-197.83679999h-51.6096l8.60159999 22.9376z" fill="#E50012" p-id="19068"></path><path d="M293.97600001 629.55519999l-86.016-203.57119999-83.1488 206.4384 332.59519999 2.8672-83.14879999-209.3056zM497.54720001 486.1952h120.42239999c0-5.7344 0-8.6016-2.86719999-14.33599999h-123.2896l5.7344 14.33599999zM520.48480001 543.5392h97.48479999v-14.336h-103.2192l5.73440001 14.336zM617.9696 500.53119999h-114.68799999l5.73439999 14.33600001h108.9536V512v-11.46880001zM543.42240001 598.016h63.0784c0-5.7344 2.8672-8.6016 2.86719999-14.336H537.68800001l5.7344 14.336zM531.9536 569.344h80.2816c0-5.7344 2.8672-8.6016 2.86720001-14.336h-88.8832l5.73439999 14.336z" fill="#E50012" p-id="19069"></path></svg>