<?xml version="1.0" standalone="no"?><!DOCTYPE svg PUBLIC "-//W3C//DTD SVG 1.1//EN" "http://www.w3.org/Graphics/SVG/1.1/DTD/svg11.dtd"><svg t="1547620233875" class="icon" style="" viewBox="0 0 1024 1024" version="1.1" xmlns="http://www.w3.org/2000/svg" p-id="3220" xmlns:xlink="http://www.w3.org/1999/xlink" width="200" height="200"><defs><style type="text/css"></style></defs><path d="M326.61137915 367.71109362l-143.59762581 351.2957252h570.87126355L610.5387645 366.20284722l-142.08937939 348.15354567-141.77516188-346.64529927z m558.99382311 267.21098821h113.9982916a510.10150172 510.10150172 0 0 1-7.10132779 25.45165806h-96.71630061l-10.1806632-25.45165806z m-19.16729757-47.8239792h142.7178159c-1.25687152 8.54673012-2.76511791 16.96777203-4.46189512 25.38881397h-128.07525754l-10.18066324-25.38881397z m-19.23014162-47.82398067h166.78691423c-0.43990567 8.48388603-1.1311848 16.96777203-1.94815063 25.38881544h-154.5952563l-10.2435073-25.38881544z m-19.16729759-47.88682329h186.26843081c0.3142175 6.84995291 0.43990567 13.69990433 0.43990421 20.61270133v4.83895671H838.15828464l-10.18066321-25.45165804z m-19.16729899-47.76113511h201.28805219c1.1311848 8.35819932 2.07383881 16.84208533 2.76511791 25.38881395h-193.87250688l-10.18066322-25.45165804z m-19.16729754-47.88682329h211.53155803c2.01099472 8.42104193 3.770616 16.90492794 5.34170649 25.45165804H799.82368807l-10.18066322-25.45165804zM9.2511995 512a502.7488005 502.7488005 0 0 1 986.14177266-138.69582499h-214.67373754l-125.24729553-312.33269358-140.51829038 349.41041716-143.3462509-346.26823618-265.63989772 654.83031231 108.4052102 152.64710569h599.9050068l103.75478282-155.72644111-13.25999863-33.11857827h80.25127686A502.7488005 502.7488005 0 0 1 9.2511995 512z" fill="#C7162E" p-id="3221"></path></svg>