<?xml version="1.0" standalone="no"?><!DOCTYPE svg PUBLIC "-//W3C//DTD SVG 1.1//EN" "http://www.w3.org/Graphics/SVG/1.1/DTD/svg11.dtd"><svg t="1547620236902" class="icon" style="" viewBox="0 0 1024 1024" version="1.1" xmlns="http://www.w3.org/2000/svg" p-id="3350" xmlns:xlink="http://www.w3.org/1999/xlink" width="200" height="200"><defs><style type="text/css"></style></defs><path d="M572.20416942 9.2511995l-85.71867156 90.87184576-76.54350495-72.52151552L326.23431754 115.45688272v2.07383879l219.44985164 209.26918843 84.71317347-88.79800699-71.45317336-67.43118242 16.33933553-17.34483364 120.47118145 114.37535173V127.64854213L572.20416942 9.2511995z m-246.97534849 107.21118133l1.00549661 1.00549808v-2.07383881l-1.0683407 1.06834073z m370.52586534 151.07601517l172.50568234 163.33051575-17.34483362 17.34483363L778.45686501 378.77156825l-82.70217874 87.79250885v2.07383881l218.44435503 208.20084771 84.71317198-88.79800698-73.52701215-70.38483262 85.78151417-89.86634769-315.47487166-300.1410342V267.538396z m-470.57287774-44.93317458l101.05250901 96.9676755V150.14655001l-16.33933553-16.33933557-84.71317348 88.79800698z m101.05250901 96.9676755l118.39734264 112.30151293 84.71317346-88.79800699-203.1105161-192.92985285v169.42634691z m-202.16786061 9.17516512l202.16786061 191.92435476v-168.42084881L208.84247298 238.94455696l-84.77601605 89.86634917zM23.07679054 433.88540455l76.60634904 71.45317334-86.78701226 90.87184578 313.40103431 299.13553759v-140.89535197l-169.48918954-162.32501914 15.33383893-16.33933553 71.45317333 67.36833835 82.70217728-87.79250888v-2.01099472L107.789964 346.09289568l-84.77601607 87.79250887z m303.22037109 86.78701225l18.35033172 17.34483365 83.70767539-89.86634768-102.05800711-95.89933478v168.42084881z m367.44652992-53.1028416l2.07383882 1.06834071v-2.07383881l-2.07383882 1.0054981zM593.69668065 572.70691773l102.12084972 97.03051809v-169.48918954l-17.34483366-16.33933554-84.77601606 88.79800699z m102.12084972 97.03051809l117.39184452 113.30701104 84.71317347-88.86084961-202.10501799-193.93535097v169.48918954z m-369.52036874-114.37535173l2.01099473-1.00549811-2.01099473-1.00549661v2.01099472z m166.34701002 123.55051833l203.17335872 192.92985139v-169.48918951l-118.39734265-112.23866885-84.77601607 88.79800697z m-101.052509 106.20568323l73.52701214 68.3738379-16.33933701 17.34483366-122.54502024-116.38634792v140.83250788L451.85867469 1014.7488005l86.72416816-90.87184576 73.52701216 70.44767669 83.70767536-87.79251034v-2.01099471l-219.51269575-208.26369033-84.71317197 88.79800699z m304.16302362 86.72416816l17.40767774 16.33933703 83.70767536-88.79800697-101.052509-97.03051957v169.48918951z m0 34.68966728l1.06834219-1.00549662-1.00549809-1.00549809v2.01099471z" fill="#F6CA00" p-id="3351"></path></svg>