<?xml version="1.0" standalone="no"?><!DOCTYPE svg PUBLIC "-//W3C//DTD SVG 1.1//EN" "http://www.w3.org/Graphics/SVG/1.1/DTD/svg11.dtd"><svg t="1547622604555" class="icon" style="" viewBox="0 0 2560 1024" version="1.1" xmlns="http://www.w3.org/2000/svg" p-id="19198" xmlns:xlink="http://www.w3.org/1999/xlink" width="500" height="200"><defs><style type="text/css"></style></defs><path d="M692.51680001 446.05440001l-243.712-243.71200001c-17.2032-17.2032-17.2032-43.008 0-60.2112 17.2032-17.2032 43.008-17.2032 60.21119999 0l243.71200001 243.712c17.2032 17.2032 17.2032 43.008 0 60.21120001-14.33599999 17.2032-43.008 17.2032-60.2112 0zM425.86720001 345.70239999l-137.6256-137.62559999c-17.2032-17.2032-17.2032-43.008 0-60.2112 17.2032-17.2032 43.008-17.2032 60.2112 0l137.6256 137.6256c17.2032 17.2032 17.2032 43.008 0 60.21119999-17.2032 17.2032-43.008 17.2032-60.2112 0zM342.71840001 428.8512l-137.62560001-137.62559999c-17.2032-17.2032-17.2032-43.008 0-60.21120001 17.2032-17.2032 43.008-17.2032 60.21120001 0l137.62559999 137.62560001c17.2032 17.2032 17.2032 43.008 0 60.21119999-17.2032 14.33599999-43.008 14.33599999-60.21119999 0zM259.56960001 509.1328l-137.62560001-137.62560001c-17.2032-17.2032-17.2032-43.008 0-60.21119999 17.2032-17.2032 43.008-17.2032 60.21120001 0l137.6256 137.62559999c17.2032 17.2032 17.2032 43.008 0 60.21120001-14.33599999 17.2032-43.008 17.2032-60.2112 0zM176.42080001 592.2816L38.79520001 454.656c-17.2032-17.2032-17.2032-43.008 0-60.21119999 17.2032-17.2032 43.008-17.2032 60.2112 0l137.6256 137.62559999c17.2032 17.2032 17.2032 43.008 0 60.2112-14.33599999 17.2032-43.008 17.2032-60.2112 0zM692.51680001 609.4848l-137.6256-137.62559999c-17.2032-17.2032-17.2032-43.008 0-60.21120001 17.2032-17.2032 43.008-17.2032 60.2112 0l137.6256 137.62560001c17.2032 17.2032 17.2032 43.008 0 60.21119999-17.2032 17.2032-45.8752 17.2032-60.2112 0zM609.368 692.6336l-137.62559999-137.6256c-17.2032-17.2032-17.2032-43.008 0-60.2112 17.2032-17.2032 43.008-17.2032 60.21119999 0l137.6256 137.6256c17.2032 17.2032 17.2032 43.008 0 60.2112-17.2032 17.2032-43.008 17.2032-60.2112 0zM526.21920001 775.7824l-137.6256-137.6256c-17.2032-17.2032-17.2032-43.008 0-60.21120001 17.2032-17.2032 43.008-17.2032 60.2112 0l137.62559999 137.62560001c17.2032 17.2032 17.2032 43.008 0 60.2112-17.2032 17.2032-43.008 17.2032-60.21119999 0zM443.07040001 858.93120001l-137.6256-137.62560001c-17.2032-17.2032-17.2032-43.008 0-60.2112 17.2032-17.2032 43.008-17.2032 60.2112 0l137.6256 137.6256c17.2032 17.2032 17.2032 43.008 0 60.21120001-17.2032 17.2032-43.008 17.2032-60.2112 0zM279.64000001 861.79839999l-243.712-243.71199999c-17.2032-17.2032-17.2032-43.008 0-60.2112 17.2032-17.2032 43.008-17.2032 60.21119999 0l243.71200001 243.712c17.2032 17.2032 17.2032 43.008 0 60.21119999-17.2032 17.2032-43.008 17.2032-60.2112 0z" fill="#E60012" p-id="19199"></path><path d="M896.088 374.3744v2.8672H939.09600001v-5.73440001c-11.46880001-25.8048-22.9376-51.6096-34.4064-74.54719999l-2.86720001-2.86720001h-40.14079999l2.8672 8.60160001c14.33599999 22.9376 22.9376 45.8752 31.53919999 71.68z" fill="#040000" p-id="19200"></path><path d="M1093.92480001 265.42080001c0-5.7344 2.8672-11.46880001 11.4688-11.46880001 25.8048-5.7344 54.4768-8.6016 83.1488-14.33599999h5.7344l-5.7344-34.40640001-5.7344 2.8672c-25.8048 5.7344-57.344 11.46880001-91.7504 17.2032-25.8048 5.7344-31.5392 25.8048-31.5392 37.2736v2.86720001h-37.27360001V199.4752h-40.14079999v63.0784H939.09600001v14.336c-8.6016-25.8048-20.0704-51.6096-31.5392-71.68l-2.8672-2.8672h-40.1408l2.86719999 8.6016c8.6016 17.2032 17.2032 43.008 28.672 77.4144v2.86720001h80.28160001V368.64000001c-11.46880001 5.7344-22.9376 8.6016-34.4064 14.33599999h-43.008v5.7344c-8.6016 40.14079999-22.9376 86.016-37.2736 134.75840001l-2.8672 8.60159999h43.00799999v-2.8672c11.46880001-40.14079999 22.9376-83.1488 34.40640001-120.4224l5.7344 17.2032 5.73439999-2.86720001c8.6016-2.8672 17.2032-8.6016 28.67200001-11.46879999v80.2816c0 2.8672 0 5.7344-8.6016 5.73440001h-34.4064l11.46879999 34.40639999h31.53920001c25.8048 0 40.14079999-14.33599999 40.1408-37.2736V397.31199999c11.46880001-5.7344 22.9376-11.46880001 37.2736-17.20319999v5.7344c0 45.8752-8.6016 88.88320001-25.8048 134.7584l-2.86720001 5.73439999 40.14080001 11.46880001 2.8672-5.7344c17.2032-48.7424 25.8048-97.4848 25.8048-149.0944v-34.4064h37.2736v186.368h40.1408v-186.368h28.672v-31.53919999h-103.2192l-2.8672-51.6096z m-37.27360001 71.67999999l-17.20319999 8.60159999c-8.6016 2.8672-14.33599999 5.7344-20.0704 8.60160001v-60.21120001h37.27359999v51.6096-8.60159999zM1483.86400001 199.4752V196.608h-43.008l2.86719999 8.6016c0 2.8672 2.8672 8.6016 5.73440001 14.336 0 2.8672 2.8672 2.8672 2.8672 5.7344h-143.36000001v34.4064h71.68000001c5.7344 8.6016 11.46880001 20.0704 17.2032 28.672h-34.4064c-34.4064 0-40.14079999 22.9376-40.1408 34.4064v212.1728h40.1408v-200.704c0-5.7344 2.8672-8.6016 11.4688-11.4688h203.5712c8.6016 0 11.46880001 2.8672 11.46879999 8.6016v160.5632s0 2.8672-8.60159999 2.8672h-48.7424l8.60159999 34.4064h51.6096c31.5392 0 37.27360001-20.0704 37.27360001-31.53919999v-169.16480001c0-17.2032-8.6016-40.14079999-43.008-40.1408h-31.5392c5.7344-8.6016 8.6016-14.33599999 11.46879999-20.07040001 2.8672-5.7344 2.8672-8.6016 5.7344-11.46879999h71.68V222.4128h-140.49279999c-14.33599999-8.6016-17.2032-17.2032-20.0704-22.9376z m34.4064 57.344c-5.7344 8.6016-11.46880001 20.0704-17.2032 28.672h-65.94560001c-5.7344-11.46880001-11.46880001-20.0704-17.2032-28.672h100.35200001z" fill="#040000" p-id="19201"></path><path d="M1549.80960001 463.2576v-51.6096c0-11.46880001-5.7344-20.0704-14.336-25.8048h31.53919999l-5.73439999-8.6016c-11.46880001-14.33599999-20.0704-31.5392-31.5392-54.4768l-2.8672-2.86720001h-40.14080001l2.8672 8.60160001c5.7344 14.33599999 17.2032 31.5392 28.67200001 54.4768h-97.4848c11.46880001-17.2032 22.9376-34.4064 31.5392-54.4768l2.8672-8.60160001h-40.1408l-2.86720001 2.86720001c-8.6016 17.2032-17.2032 34.4064-31.53919999 54.4768l-5.7344 8.6016h28.672c-8.6016 5.7344-11.46880001 14.33599999-14.336 25.8048v51.6096c0 17.2032 11.46880001 25.8048 28.67199999 28.672h100.35200001c20.0704 0 31.5392-11.46880001 31.5392-28.672zM1426.52000001 420.24960001c0-5.7344 2.8672-8.6016 8.60159999-8.60160001h65.94560001c5.7344 0 5.7344 2.8672 8.6016 5.7344v31.53919999c0 5.7344-2.8672 5.7344-5.7344 5.73440001h-65.94560001c-5.7344 0-8.6016-2.8672-8.60159999-5.73440001v-28.67199998zM1825.0608 339.968h43.00800001v-34.4064H1770.584l17.20320001-34.4064h86.01599999v-31.53919999h-71.67999999c0-2.8672 2.8672-5.7344 2.86719999-8.60160001l14.33600001-34.4064h-40.14080001v2.8672c-11.46880001 37.27360001-25.8048 68.8128-43.00799999 94.61759999l-2.8672 5.73440001 17.2032 8.6016v28.672h40.1408v45.8752H1741.91200001v31.5392h48.7424v77.4144c0 22.9376 11.46880001 34.4064 34.40639999 34.40639999h43.00800001l8.60159999-34.40639999h-40.14079999c-8.6016 0-8.6016-2.8672-8.6016-5.7344v-71.68h51.6096v-31.5392H1827.92800001V339.968zM2011.4288 446.05440001h17.2032l2.8672-2.86720001c14.33599999-20.0704 28.672-40.14079999 40.14080001-60.2112l5.7344-8.6016h-40.14080001l-8.6016 2.8672c-11.46880001 20.0704-22.9376 37.27360001-31.53919999 48.7424-8.6016-14.33599999-20.0704-31.5392-28.672-48.7424l-2.8672-2.8672h-37.27360001l2.86720001 8.6016c25.8048 60.2112 63.07840001 111.8208 111.8208 151.9616l2.8672 2.8672 28.672-22.9376-2.8672-2.8672c-22.9376-20.0704-43.008-40.14079999-60.21120001-65.94559999z" fill="#040000" p-id="19202"></path><path d="M1919.67840001 489.0624v-117.55520001h111.82079999c25.8048 0 37.27360001-14.33599999 37.27360001-40.14079999v-88.88320001c-2.8672-22.9376-14.33599999-37.27360001-37.27360001-40.14079999h-111.82079999c-25.8048 0-40.14079999 17.2032-40.1408 43.008v246.5792c2.8672 20.0704 14.33599999 31.5392 37.2736 34.40639999h57.344l11.46879999-34.40639999h-54.47679999c-11.46880001 5.7344-11.46880001 0-11.4688-2.8672z m0-215.04v-22.9376c0-5.7344 2.8672-11.46880001 11.4688-11.46879999h86.016c8.6016 0 11.46880001 5.7344 11.46879999 8.60159999v25.8048h-108.95359999z m108.95359999 31.5392v22.9376c0 8.6016-2.8672 11.46880001-11.46879999 11.4688h-97.4848v-34.4064H2028.632zM2209.2656 311.296c25.8048-31.5392 48.7424-65.94559999 68.81280001-106.0864l2.8672-8.6016h-40.1408l-2.86720001 2.8672c-17.2032 34.4064-37.27360001 63.07840001-60.21119999 88.8832l-5.7344 5.73439999 31.5392 20.07040001 5.73439999-2.8672zM2301.01600001 208.0768h200.70399999v34.40639999h-200.70399999zM2283.81280001 308.4288v34.40640001h134.75839999v143.35999999c0 2.8672 0 5.7344-2.8672 5.7344-2.8672 2.8672-5.7344 2.8672-8.60159999 0h-60.21120001l11.46880001 34.40639999H2424.3056c20.0704-2.8672 28.672-11.46880001 31.53920001-31.53919999V339.968h57.344v-34.4064h-229.376zM2240.80480001 294.09279999c-17.2032 34.4064-40.14079999 68.8128-65.9456 97.48480001l-5.7344 5.73439999 31.5392 20.07040001 2.8672-2.8672s2.8672-2.8672 2.8672-5.7344c2.8672-2.8672 5.7344-8.6016 8.6016-11.46880001v131.89120001H2258.00800001v-169.1648h-14.33600001c11.46880001-20.0704 22.9376-40.14079999 34.40640001-63.0784l2.8672-8.6016h-40.1408v5.73439999z" fill="#040000" p-id="19203"></path><path d="M1070.98720001 704.10240001c-17.2032-22.9376-45.8752-43.008-88.8832-43.00800001-60.2112 0-91.75039999 40.14079999-91.7504 86.016v25.8048c0 45.8752 31.5392 83.1488 94.6176 83.1488 40.14079999 0 68.8128-20.0704 86.016-45.87520001l31.53919999 22.93760002c-22.9376 31.5392-65.94559999 60.2112-123.2896 60.21119999-88.88320001 0-137.6256-57.344-137.6256-123.2896v-25.8048c0-65.94559999 54.4768-126.1568 140.49280001-126.1568 54.4768 0 100.352 28.672 120.42239999 60.21120001l-31.53919999 25.8048zM1202.8784 847.4624h172.03200001v40.14079999h-243.712v-14.33599999l174.89919999-203.5712H1139.80000001v-40.14080001h237.9776v14.33600001l-174.89920001 203.5712zM1558.41120001 887.60319999h-137.6256v-258.048h137.6256c60.2112 0 91.75039999 25.8048 91.75039999 65.94560001v5.7344c0 28.672-17.2032 51.6096-48.74239999 57.34399999 37.27360001 5.7344 54.4768 31.5392 54.4768 54.47680001v5.7344c-2.8672 40.14079999-37.27360001 68.8128-97.4848 68.81279999z m45.8752-186.36799999c0-17.2032-11.46880001-34.4064-43.008-34.4064h-94.6176V741.376h88.8832c31.5392 0 45.8752-14.33599999 45.8752-34.40640001v-5.73439999z m0 108.95359999c0-20.0704-14.33599999-34.4064-45.8752-34.40639999h-91.7504v74.5472h94.6176c31.5392 0 43.008-14.33599999 43.008-34.4064v-5.73440001zM1908.2096 887.60319999l-28.67199999-63.07839999h-129.024l-28.67200001 63.07839999h-48.74239999l120.4224-258.048h40.1408l123.2896 258.048h-48.74240001z m-94.61759999-206.4384l-48.7424 106.08640001h97.4848l-48.7424-106.08640001zM2197.79680001 887.60319999l-143.36000001-163.43039999-17.2032-22.9376v186.36799999h-45.87519999v-258.048h43.008l140.4928 163.43040001 20.0704 22.9376v-186.36800001h45.8752v258.048h-43.008zM2487.38400001 887.60319999l-106.0864-111.82079999-37.2736 34.40639999v80.28160001h-45.8752v-258.048H2344.02400001v129.024l140.4928-129.024H2544.728l-131.89119999 117.5552c25.8048 25.8048 134.7584 140.49280001 134.75839999 140.4928H2487.38400001z" fill="" p-id="19204"></path></svg>