<?xml version="1.0" standalone="no"?><!DOCTYPE svg PUBLIC "-//W3C//DTD SVG 1.1//EN" "http://www.w3.org/Graphics/SVG/1.1/DTD/svg11.dtd"><svg t="1547622574735" class="icon" style="" viewBox="0 0 2560 1024" version="1.1" xmlns="http://www.w3.org/2000/svg" p-id="18408" xmlns:xlink="http://www.w3.org/1999/xlink" width="500" height="200"><defs><style type="text/css"></style></defs><path d="M733.15028809 496.21896203c-3.15620759-126.24830383-82.06139749-211.46590891-82.06139748-211.4659089-123.09209622-142.0293418-277.74626841-129.40451141-277.74626841-129.40451142-164.12279497-6.31241519-268.27764562 119.93588863-265.12143802 123.09209623-69.43656711 85.21760508-78.90518989 160.96658738-78.90518989 160.96658737-28.40586836 129.40451141 34.71828355 239.87177727 34.71828355 239.87177726 47.34311394 85.21760508 97.84243546 126.24830383 179.90383295 164.12279497s205.15349371 31.56207596 284.05868359-6.31241519c75.7489823-41.03069875 123.09209622-82.06139749 167.27900256-164.12279497s37.87449114-176.74762535 37.87449115-176.74762535z m-394.52594944 290.37109878s-129.40451141-6.31241519-201.99728611-132.56071901c0 0-63.1241519-88.37381267-34.71828355-198.84107852 25.24966077-110.46726585 85.21760508-154.65417219 97.84243546-164.12279497 12.62483038-12.62483038 88.37381267-59.96794431 142.0293418-56.81173672v132.56071902h-56.81173672s-75.7489823 3.15620759-78.90518989 88.37381267v119.93588862s3.15620759 75.7489823 78.90518989 82.06139749h53.65552912v129.40451142z m-41.03069875-205.1534937s-12.62483038 3.15620759-15.78103796-12.62483039v-116.77968103s0-12.62483038 9.46862278-12.62483038h164.12279497s12.62483038-3.15620759 15.78103798 12.62483038v113.62347343s3.15620759 18.93724557-9.4686228 15.78103799h-164.12279497z m315.62075956 85.21760508c-53.65552912 78.90518989-151.49796459 116.77968104-198.84107851 119.93588862v-129.40451142h63.1241519s66.28035951-12.62483038 69.4365671-82.06139749v-138.8731342s-9.46862278-69.43656711-85.21760508-72.59277468h-47.34311392v-129.40451143s82.06139749 6.31241519 148.34175698 69.43656711c66.28035951 59.96794431 85.21760508 123.09209622 91.53002027 154.65417218s12.62483038 126.24830383-41.03069874 208.30970131z" fill="#B81C22" p-id="18409"></path><path d="M1572.70150851 537.24966077h-9.46862279c-9.46862278 12.62483038-31.56207596 34.71828355-47.34311393 41.03069874-25.24966077-18.93724557-56.81173672-31.56207596-88.37381268-44.18690633h-53.65552912c-9.46862278-3.15620759-31.56207596-6.31241519-41.03069875-9.4686228v15.78103798c6.31241519 3.15620759 9.46862278 18.93724557 9.46862279 28.40586836-69.43656711-3.15620759-50.49932153-255.65281524-18.93724557-293.52730639 3.15620759 3.15620759 3.15620759 0 6.31241519 6.3124152 3.15620759 9.46862278-3.15620759 31.56207596-9.46862279 41.03069874-6.31241519 18.93724557-6.31241519 142.0293418 0 154.65417218h3.1562076c0-3.15620759 3.15620759-6.31241519 3.15620759-9.46862278h3.1562076c0 15.78103797 3.15620759 44.18690633 12.62483038 47.34311392 6.31241519-6.31241519 22.09345318 0 31.56207596-6.31241518 15.78103797-9.46862278 75.7489823-66.28035951 78.90518988-85.21760508 0 0-3.15620759 0-3.15620759-3.1562076-9.46862278 6.31241519-66.28035951 53.65552912-82.06139749 44.18690633 3.15620759-41.03069875 31.56207596-56.81173672 44.18690634-85.21760507h-3.15620759c-6.31241519 6.31241519-6.31241519 9.46862278-18.93724557 9.46862279 0-31.56207596 15.78103797-31.56207596 18.93724557-56.81173672-3.15620759-6.31241519 3.15620759-9.46862278-6.31241519-12.62483039 0-3.15620759-3.15620759-3.15620759-3.1562076-6.31241519-6.31241519 3.15620759-12.62483038 9.46862278-22.09345318 9.46862279v-12.62483039l15.78103799-15.78103797c0-12.62483038-6.31241519-37.87449114-15.78103799-47.34311393 0 0-3.15620759 0-3.15620758 3.15620759 0 12.62483038 0 25.24966077-6.3124152 31.56207596-3.15620759 0-3.15620759 0-6.31241519 3.1562076 0 0-3.15620759 0-3.15620759-3.1562076-6.31241519-9.46862278-9.46862278-12.62483038-9.46862279-28.40586836 15.78103797-9.46862278 22.09345318-34.71828355 37.87449115-44.18690634s37.87449114-18.93724557 53.65552913-25.24966076c164.12279497-63.1241519 148.34175698 243.02798485 132.56071901 353.4952507z m773.2708609-356.65145831c3.15620759 12.62483038 12.62483038 18.93724557 15.78103797 31.56207597 15.78103797 34.71828355 0 69.43656711-9.46862278 94.68622786-41.03069875 6.31241519-63.1241519 28.40586836-88.37381267 47.34311394 0 0 0 3.15620759 3.15620759 3.15620758 12.62483038 6.31241519 59.96794431 15.78103797 53.65552913 28.40586836 0 3.15620759 0 9.46862278 3.1562076 12.62483039-18.93724557 12.62483038-50.49932153 44.18690633-59.96794432 63.12415191 31.56207596 12.62483038 63.1241519 75.7489823 31.56207595 107.31105825v3.15620759s-3.15620759 0-3.15620759-3.15620759c-12.62483038-15.78103797-31.56207596-15.78103797-34.71828356-41.03069875 6.31241519-3.15620759 9.46862278-41.03069875 9.46862279-47.34311393-47.34311394 3.15620759-44.18690633 53.65552912-72.59277469 31.56207596-3.15620759-3.15620759-9.46862278-3.15620759-12.62483039-6.31241519-3.15620759-6.31241519-3.15620759-12.62483038-9.46862279-22.09345317 6.31241519-9.46862278 6.31241519-15.78103797 12.62483038-25.24966076 18.93724557-25.24966077 47.34311394-47.34311394 66.28035951-72.59277471 0-3.15620759 0-3.15620759-3.15620759-6.31241518-18.93724557 0-47.34311394-9.46862278-53.65552912-22.09345318 0-6.31241519 0-12.62483038 3.1562076-18.93724556 31.56207596-18.93724557 78.90518989-85.21760508 100.99864305-116.77968104 12.62483038-15.78103797 15.78103797-34.71828355 31.56207595-44.18690634 0 3.15620759 9.46862278 3.15620759 15.78103798 3.15620759z m-1208.82750909 192.52866334c6.31241519 0 9.46862278 0 15.78103798 3.15620759v3.1562076c-3.15620759 12.62483038-9.46862278 15.78103797-9.46862279 31.56207596-9.46862278 0-15.78103797 6.31241519-22.09345318 12.62483038-12.62483038 12.62483038-22.09345318 94.68622786-31.56207593 116.77968103-12.62483038 25.24966077 6.31241519 53.65552912-6.31241521 66.2803595-12.62483038 3.15620759-15.78103797 9.46862278-28.40586835 12.6248304 0-3.15620759 0-6.31241519-3.1562076-9.4686228-18.93724557-22.09345318-3.15620759-66.28035951-18.93724557-82.06139749 0 0-3.15620759 0-3.1562076 3.1562076 0 28.40586836-3.15620759 59.96794431 6.31241518 75.74898229 3.15620759 9.46862278 12.62483038 9.46862278 15.78103799 25.24966077h-9.46862278c-25.24966077-50.49932153-18.93724557-113.62347344-34.71828356-173.59141775h-3.15620758c-3.15620759 0-6.31241519 0-9.4686228 3.15620759 0 15.78103797-3.15620759 18.93724557-15.78103798 18.93724557-12.62483038-6.31241519-28.40586836-9.46862278-41.03069874-18.93724557-28.40586836-22.09345318-50.49932153-85.21760508-44.18690634-126.24830382h9.46862279l37.87449114 37.87449115c3.15620759 0 6.31241519 0 9.46862279-3.1562076 22.09345318-15.78103797 41.03069875-31.56207596 63.12415192-47.34311393 0-50.49932153 0-91.53002027 15.78103797-126.24830382h15.78103799c28.40586836 18.93724557 50.49932153 44.18690633 59.96794431 78.90518988 28.40586836 0 53.65552912-18.93724557 88.37381267-9.46862279 6.31241519 44.18690633-50.49932153 72.59277469-56.81173672 107.31105826z m306.15213677 151.49796458c28.40586836 0 78.90518989 12.62483038 91.53002027 9.4686228 66.28035951-37.87449114 25.24966077-299.83972157-22.09345317-328.24558995-44.18690633-25.24966077-123.09209622 18.93724557-132.56071901 41.03069875 12.62483038 6.31241519 18.93724557 22.09345318 22.09345317 34.71828355 18.93724557 0 22.09345318-9.46862278 41.03069874-12.62483038 3.15620759 3.15620759 3.15620759 6.31241519 6.31241519 9.46862279 0 22.09345318-15.78103797 34.71828355-25.24966077 50.49932152 15.78103797 9.46862278 41.03069875 37.87449114 41.03069875 69.4365671-9.46862278 3.15620759-12.62483038 6.31241519-6.31241519 15.78103798 18.93724557-15.78103797 34.71828355-47.34311394 47.34311392-69.43656711 0 0 3.15620759 0 3.1562076 3.1562076l6.3124152 6.3124152c-3.15620759 31.56207596-31.56207596 53.65552912-50.49932153 72.59277469v12.62483039c9.46862278 6.31241519 15.78103797 12.62483038 31.56207595 15.78103797 9.46862278-15.78103797 12.62483038-31.56207596 22.09345317-53.65552913h3.1562076c0 34.71828355-9.46862278 50.49932153-18.93724558 72.59277471 9.46862278 0 15.78103797 0 25.24966077 3.15620759v18.93724558c-12.62483038 9.46862278-6.31241519 22.09345318-34.71828355 22.09345316-3.15620759-6.31241519-37.87449114 0-50.49932153 6.31241519 0-6.31241519 0-3.15620759 0 0z m261.96523042-50.49932152c-9.46862278 0-12.62483038 0-18.93724556-6.31241519v-34.71828356c28.40586836-3.15620759 31.56207596-47.34311394 44.18690633-69.43656709 25.24966077-53.65552912 47.34311394-123.09209622 85.21760508-164.12279497h9.46862278c9.46862278 12.62483038 25.24966077 18.93724557 28.40586837 37.87449114-18.93724557 9.46862278-50.49932153 18.93724557-59.96794432 37.87449114-25.24966077 41.03069875-88.37381267 151.49796459-88.37381268 198.84107853z m198.84107853-31.56207597c0-41.03069875 18.93724557-50.49932153 28.40586835-78.90518987h-9.46862278c-3.15620759 6.31241519-9.46862278 6.31241519-15.78103798 12.62483037-12.62483038 25.24966077-15.78103797 50.49932153-15.78103798 75.7489823h6.3124152c12.62483038-18.93724557 59.96794431 3.15620759 82.06139749-6.3124152 28.40586836-9.46862278 34.71828355-34.71828355 69.43656709-34.71828354v3.15620759l-6.31241519 6.31241519c-3.15620759 9.46862278-9.46862278 12.62483038-18.93724557 12.62483038-3.15620759 15.78103797-18.93724557 34.71828355-28.40586837 47.34311393 18.93724557 18.93724557 82.06139749 28.40586836 110.46726584 44.18690634l-6.31241519 6.31241519v3.15620761c-28.40586836 0-59.96794431 18.93724557-88.37381267 6.31241518-12.62483038-6.31241519-18.93724557-18.93724557-44.18690634-18.93724558-12.62483038 22.09345318-44.18690633 56.81173672-75.74898229 56.81173673-12.62483038-9.46862278-22.09345318-12.62483038-34.71828354-22.09345318 0-12.62483038 0-25.24966077-3.1562076-37.87449114h-9.46862279c-12.62483038 41.03069875-66.28035951 47.34311394-97.84243547 66.2803595-3.15620759-9.46862278-3.15620759-18.93724557-6.31241518-28.40586836 9.46862278-6.31241519 18.93724557-15.78103797 25.24966075-25.24966076 0-3.15620759 0-3.15620759-3.15620759-6.31241519-9.46862278 0-12.62483038 0-15.78103798-6.31241519 18.93724557 0 22.09345318-6.31241519 18.93724557-22.09345316 0 0 0-3.15620759-3.15620759-3.1562076 0 0-3.15620759 0-3.15620759 3.1562076-9.46862278 12.62483038-28.40586836 47.34311394-47.34311394 50.49932152-3.15620759-9.46862278-9.46862278-9.46862278-12.62483037-22.09345317 0 0 0-3.15620759 3.15620759-3.1562076 22.09345318-3.15620759 34.71828355-25.24966077 53.65552912-37.87449114 0 0 0-3.15620759-3.15620759-3.1562076h-9.46862278c-3.15620759-34.71828355-9.46862278-44.18690633 15.78103797-66.2803595 0-15.78103797-6.31241519-22.09345318-12.62483039-31.56207595 12.62483038-9.46862278 25.24966077-15.78103797 37.87449116-25.24966078 6.31241519 6.31241519 12.62483038 15.78103797 22.09345316 22.09345318v6.31241518c-6.31241519 9.46862278-18.93724557 12.62483038-25.24966076 22.09345318 0 6.31241519 0 15.78103797 3.1562076 22.09345316h6.31241518c3.15620759-6.31241519 3.15620759-9.46862278 15.78103798-9.46862278 0-6.31241519 0-6.31241519 3.15620761-9.46862278h3.15620759c3.15620759 9.46862278 3.15620759 18.93724557 6.31241519 28.40586836-6.31241519 3.15620759-12.62483038 9.46862278-15.78103799 15.78103797h34.71828356c3.15620759 6.31241519 6.31241519 6.31241519 6.31241519 18.93724558-12.62483038 9.46862278-56.81173672 56.81173672-63.12415191 69.4365671h3.1562076l3.15620759 3.15620759c31.56207596-9.46862278 56.81173672-41.03069875 75.7489823-63.12415191 0-41.03069875 3.15620759-78.90518989 15.78103797-110.46726584 6.31241519-15.78103797 0-28.40586836 3.15620759-41.03069874 6.31241519-18.93724557 18.93724557-37.87449114 25.24966077-59.96794433 9.46862278 0 9.46862278 3.15620759 18.93724557 3.1562076l6.31241519-6.31241518v-9.46862279h9.4686228c9.46862278-15.78103797 37.87449114-18.93724557 41.03069874-37.87449115 6.31241519 0 12.62483038 0 18.93724556-3.15620759 3.15620759 15.78103797-34.71828355 148.34175698-47.34311392 164.12279497-9.46862278 3.15620759-15.78103797 6.31241519-25.24966077 9.46862278-3.15620759 6.31241519-3.15620759 12.62483038-6.31241519 18.93724558l3.15620759 3.15620759c9.46862278-6.31241519 18.93724557-9.46862278 28.40586837-12.62483039 0-9.46862278-3.15620759-15.78103797 3.15620759-18.93724556 3.15620759 6.31241519 6.31241519 12.62483038 12.62483038 18.93724556 0 6.31241519 0 9.46862278-3.1562076 15.78103799-25.24966077 0-37.87449114 22.09345318-63.1241519 25.24966075z m37.87449115-176.74762535c-3.15620759 25.24966077-31.56207596 44.18690633-22.09345317 75.7489823h9.46862278c12.62483038-12.62483038 28.40586836-25.24966077 41.03069874-37.87449114 3.15620759-22.09345318 9.46862278-41.03069875 12.62483039-63.12415191l-3.15620759-3.1562076-6.31241521 6.31241519c-9.46862278 6.31241519-18.93724557 22.09345318-31.56207594 22.09345316z m-486.05596973-3.15620759c28.40586836 0 31.56207596 12.62483038 53.65552913 15.78103799 0 28.40586836-9.46862278 41.03069875-37.87449114 37.87449113-9.46862278-15.78103797-15.78103797-28.40586836-15.78103799-53.65552912z m394.52594944 9.46862278l9.4686228 28.40586836c-18.93724557 0-25.24966077 12.62483038-41.03069874 15.78103798l-3.1562076-3.15620759c0-6.31241519 3.15620759-41.03069875 9.46862278-44.18690633 3.15620759-3.15620759 6.31241519-3.15620759 12.62483039-3.15620761 6.31241519 6.31241519 6.31241519 6.31241519 12.62483037 6.31241519z m656.49117988 6.31241521c3.15620759 0 6.31241519 0 9.46862279 3.15620759 0 0 0 3.15620759-3.1562076 3.1562076-9.46862278 6.31241519-12.62483038 15.78103797-15.78103797 25.24966075-50.49932153 0-85.21760508 18.93724557-113.62347344 44.18690635h-6.31241519l-6.3124152-6.3124152c0-12.62483038-3.15620759-12.62483038-6.31241519-22.09345316 6.31241519-3.15620759 6.31241519-9.46862278 12.62483039-15.78103799 22.09345318 18.93724557 59.96794431-12.62483038 78.90518988-22.09345316 18.93724557-6.31241519 34.71828355-3.15620759 50.49932153-9.46862278z m-1363.48168127 0c-22.09345318 22.09345318-50.49932153 22.09345318-34.71828355 78.90518987h9.46862279c6.31241519-15.78103797 37.87449114-56.81173672 47.34311393-72.59277468l-9.46862279-9.4686228c-3.15620759 3.15620759-6.31241519 3.15620759-12.62483038 3.15620761z m271.43385322 22.09345315v9.46862279h9.46862278v-9.46862279h-9.46862278z m1035.23609133 107.31105826c0 12.62483038-6.31241519 50.49932153-3.1562076 59.96794432 12.62483038 25.24966077 15.78103797 75.7489823 15.78103799 113.62347344-15.78103797 9.46862278-22.09345318 22.09345318-47.34311394 22.09345316-6.31241519-12.62483038-9.46862278-31.56207596-22.09345317-37.87449115-18.93724557-12.62483038-50.49932153-18.93724557-59.96794431-44.18690634h12.62483038c9.46862278 18.93724557 44.18690633 25.24966077 69.4365671 25.24966077 6.31241519-34.71828355 12.62483038-104.15485065 3.1562076-142.02934181 0 0-3.15620759 0-3.1562076 3.15620761-6.31241519 6.31241519-66.28035951 41.03069875-78.90518989 41.03069875 0 0-3.15620759 0-3.15620759-3.15620761v-18.93724557c63.1241519-28.40586836 126.24830383-72.59277469 208.3097013-75.7489823 3.15620759 6.31241519 3.15620759 6.31241519 6.3124152 15.78103799-25.24966077 12.62483038-94.68622786 22.09345318-110.46726585 37.87449113v3.15620761l6.31241519 6.31241519c0-6.31241519 3.15620759-6.31241519 6.31241519-6.31241519z m-1429.76204077-47.34311394c-15.78103797 0-41.03069875 15.78103797-41.03069875 37.87449115 6.31241519 9.46862278 12.62483038 22.09345318 22.09345317 31.56207595 9.46862278-3.15620759 15.78103797-12.62483038 22.09345317-18.93724556-3.15620759-15.78103797-3.15620759-31.56207596-3.15620759-50.49932154z m432.40044058 34.71828355v-9.46862279c-6.31241519-3.15620759-9.46862278-6.31241519-15.78103797-9.46862278v15.78103798c6.31241519 0 6.31241519 3.15620759 15.78103797 3.15620759z m-59.96794431 34.71828355c18.93724557 0 34.71828355-12.62483038 44.18690634-22.09345316v-9.46862279c-6.31241519-3.15620759-6.31241519-9.46862278-12.62483039-15.78103797-12.62483038 12.62483038-31.56207596 31.56207596-31.56207595 47.34311392z m381.90111906 0s0 3.15620759 0 0c0 3.15620759 3.15620759 3.15620759 6.31241519 6.31241519v-3.15620759c-3.15620759 0-3.15620759 0-6.31241519-3.1562076z m-3.15620759 6.31241519s-3.15620759 0 0 0c0 3.15620759 0 3.15620759 3.15620759 6.31241519 0 0 3.15620759 0 3.1562076-3.15620758-3.15620759-3.15620759-6.31241519-3.15620759-6.31241519-3.15620761z m-318.77696716 3.15620761c-12.62483038 28.40586836-50.49932153 37.87449114-63.1241519 66.2803595h22.09345316c18.93724557-12.62483038 66.28035951-22.09345318 85.21760508-28.40586836v-6.3124152s0-3.15620759-3.15620759-3.15620758c-22.09345318 0-22.09345318-22.09345318-41.03069875-28.40586836z m536.55529125 18.93724557c-3.15620759 6.31241519-9.46862278 6.31241519-15.78103799 12.62483037 3.15620759 6.31241519 3.15620759 6.31241519 12.62483039 9.46862279h3.1562076c3.15620759-6.31241519 9.46862278-12.62483038 12.62483037-22.09345316h-12.62483037z m-164.12279498 6.31241518h-12.62483037c-12.62483038 6.31241519-18.93724557 9.46862278-18.93724558 31.56207597l3.15620759 3.15620759c9.46862278-6.31241519 25.24966077-18.93724557 28.40586836-34.71828356z m135.71692661 53.65552913c0-9.46862278 0-9.46862278 6.31241519-12.62483038-15.78103797-12.62483038-47.34311394-28.40586836-72.59277468-31.56207595l-3.15620761 3.15620759c-3.15620759 37.87449114-9.46862278 47.34311394 12.62483039 72.59277469 12.62483038-9.46862278 37.87449114-28.40586836 56.81173671-31.56207595z m-890.05054193 3.15620759c-3.15620759 0-6.31241519 0-12.62483039 3.1562076 0 22.09345318-3.15620759 41.03069875-3.15620759 63.12415192 6.31241519 3.15620759 3.15620759 3.15620759 9.46862278 6.31241519 3.15620759 0 6.31241519 0 9.46862279-3.1562076-3.15620759-18.93724557-3.15620759-44.18690633-3.15620759-69.43656711z m710.14670899 18.93724558c-3.15620759 0-3.15620759 3.15620759-6.31241519 3.1562076 0 0 0 3.15620759 3.1562076 3.15620759 6.31241519 0 6.31241519 0 9.46862278-3.15620759-3.15620759-3.15620759-3.15620759-3.15620759-6.31241519-3.1562076zM995.11551852 764.49660764h6.31241519c9.46862278 0 15.78103797-3.15620759 18.93724558-6.31241518s6.31241519-12.62483038 6.31241518-22.09345318c0-12.62483038-3.15620759-18.93724557-6.31241518-22.09345316s-9.46862278-6.31241519-18.93724558-6.31241519h-6.31241519v56.81173671z m0 69.43656711H1004.58414132c9.46862278 0 15.78103797-3.15620759 22.09345315-6.3124152 3.15620759-3.15620759 6.31241519-12.62483038 6.3124152-25.24966076s-3.15620759-22.09345318-6.3124152-28.40586836c-3.15620759-6.31241519-12.62483038-6.31241519-22.09345315-6.31241519h-6.31241521v66.28035951h-3.15620759z m-50.49932153 3.1562076v-3.1562076h12.62483039v-126.24830382h-12.62483039v-3.1562076h85.21760508c6.31241519 0 9.46862278 3.15620759 12.62483039 3.1562076 6.31241519 3.15620759 9.46862278 6.31241519 12.62483038 9.46862278 3.15620759 3.15620759 3.15620759 9.46862278 3.15620759 12.62483038 0 9.46862278-3.15620759 15.78103797-9.46862278 22.09345318s-18.93724557 9.46862278-31.56207596 12.62483037c15.78103797 0 28.40586836 6.31241519 37.87449115 12.62483038s12.62483038 15.78103797 12.62483038 25.24966077c0 6.31241519-3.15620759 12.62483038-6.31241519 18.93724557-3.15620759 6.31241519-9.46862278 9.46862278-18.93724557 12.62483039-3.15620759 0-6.31241519 3.15620759-12.62483039 3.1562076h-85.21760508z m160.96658738-47.34311394h31.56207595l-15.78103799-44.18690635-15.78103796 44.18690635z m-25.24966077 47.34311394v-3.1562076h6.31241519s3.15620759-3.15620759 3.15620761-6.3124152l41.03069874-123.09209622h12.62483037l44.18690634 129.40451142h6.31241519v3.1562076h-53.65552912v-3.1562076h9.46862278l-15.78103797-37.87449115h-31.56207596l-9.46862279 25.24966076v6.31241519c0 3.15620759 0 3.15620759 3.1562076 6.3124152h6.31241519v3.1562076h-22.09345317z m126.24830381-129.40451142h-3.15620758v-3.1562076h44.18690633l66.28035951 94.68622786v-75.74898228c0-6.31241519 0-9.46862278-3.1562076-12.62483039 0-3.15620759-3.15620759-3.15620759-9.46862278-3.15620759h-3.15620759v-3.1562076h31.56207595v3.1562076h-3.1562076-3.15620759c-3.15620759 0-6.31241519 0-9.46862279 3.15620759 0 3.15620759-3.15620759 6.31241519-3.1562076 12.62483039v113.62347344h-22.09345316l-72.5927747-104.15485066v88.37381267c0 6.31241519 0 9.46862278 3.1562076 12.62483039 0 3.15620759 3.15620759 3.15620759 9.46862278 3.1562076h6.31241519v3.15620758h-31.56207595v-3.15620758h3.15620758c3.15620759 0 6.31241519 0 9.4686228-3.1562076 0-3.15620759 3.15620759-6.31241519 3.1562076-12.62483039v-91.53002027l-12.6248304-22.09345316z m142.02934181 129.40451142l12.62483038-3.1562076v-126.24830382h-12.62483038v-3.1562076h63.12415191v3.1562076h-12.62483038v59.96794431l47.34311393-44.18690633 3.1562076-3.15620761v-3.15620759c0-3.15620759 0-3.15620759-3.1562076-3.15620759H1436.9845819v-3.1562076h41.03069874v3.1562076c-6.31241519 0-9.46862278 0-15.78103799 3.15620759-3.15620759 3.15620759-9.46862278 6.31241519-15.78103797 9.46862278l-25.24966077 22.09345318 53.65552914 88.37381268h9.46862278v3.15620758h-63.12415192v-3.15620758h9.4686228l-34.71828356-63.12415192-3.15620759 3.15620759v63.12415191h12.62483038v3.15620761H1348.61076922v-6.31241519z m233.55936207-66.28035952c0 25.24966077 3.15620759 44.18690633 6.31241519 53.65552912s9.46862278 12.62483038 18.93724558 12.6248304 15.78103797-3.15620759 18.93724556-12.6248304 6.31241519-25.24966077 6.31241519-53.65552912c0-25.24966077-3.15620759-44.18690633-6.31241519-53.65552912s-9.46862278-12.62483038-18.93724556-12.62483038-15.78103797 3.15620759-18.93724558 12.62483038-6.31241519 28.40586836-6.31241519 53.65552912z m-37.87449114 0c0-9.46862278 0-18.93724557 3.15620758-28.40586836s9.46862278-15.78103797 15.78103799-22.09345317 12.62483038-12.62483038 22.09345317-15.78103797c6.31241519-3.15620759 15.78103797-6.31241519 25.24966076-6.3124152s15.78103797 3.15620759 25.24966076 6.3124152c6.31241519 3.15620759 15.78103797 9.46862278 22.09345318 15.78103797s12.62483038 15.78103797 15.78103797 22.09345317c3.15620759 9.46862278 6.31241519 15.78103797 6.31241519 28.40586836 0 9.46862278-3.15620759 18.93724557-6.31241519 28.40586836-3.15620759 9.46862278-9.46862278 15.78103797-15.78103797 22.09345317s-12.62483038 12.62483038-22.09345318 15.78103799c-6.31241519 3.15620759-15.78103797 6.31241519-25.24966076 6.31241519s-15.78103797-3.15620759-25.24966076-6.31241519c-6.31241519-3.15620759-15.78103797-9.46862278-22.09345317-15.78103799s-12.62483038-15.78103797-15.78103799-22.09345317c-3.15620759-9.46862278-3.15620759-18.93724557-3.15620758-28.40586836z m151.49796458 66.28035952l12.62483038-3.1562076v-126.24830382h-12.62483038v-3.1562076h107.31105824v34.71828354h-3.15620758c-3.15620759-12.62483038-6.31241519-18.93724557-12.62483039-25.24966075-6.31241519-3.15620759-15.78103797-6.31241519-28.40586836-6.31241519h-12.62483039v59.96794431h12.62483039c9.46862278 0 15.78103797-3.15620759 18.93724558-6.31241519s6.31241519-9.46862278 6.31241519-18.93724558h3.15620759v50.49932154h-3.15620759c0-9.46862278-3.15620759-15.78103797-6.31241519-18.93724558-3.15620759-3.15620759-12.62483038-6.31241519-22.09345318-6.31241519H1746.29292625v63.1241519h12.62483039v3.15620761h-63.12415191v3.1562076z m284.05868361-41.03069875l3.15620759 41.03069875h-3.15620759c0-3.15620759 0-3.15620759-3.15620761-6.31241521l-3.1562076-3.15620759-12.62483038 6.3124152c-9.46862278 3.15620759-15.78103797 6.31241519-25.24966077 6.31241518s-18.93724557 0-25.24966076-3.15620758c-9.46862278-3.15620759-15.78103797-6.31241519-22.09345317-12.6248304s-12.62483038-12.62483038-15.78103797-22.09345316c-3.15620759-9.46862278-6.31241519-15.78103797-6.31241519-25.24966077s3.15620759-22.09345318 6.31241519-31.56207596 9.46862278-18.93724557 18.93724557-25.24966076c6.31241519-6.31241519 12.62483038-9.46862278 18.93724557-12.62483037 6.31241519-3.15620759 15.78103797-3.15620759 22.09345317-3.1562076 9.46862278 0 15.78103797 3.15620759 25.24966077 6.31241519s12.62483038 6.31241519 12.62483038 6.31241519c3.15620759 0 3.15620759 0 3.15620759-3.15620759 0 0 0-3.15620759 3.1562076-3.1562076h3.15620761v41.03069875h-3.15620761c-3.15620759-12.62483038-9.46862278-25.24966077-15.78103798-31.56207597s-15.78103797-9.46862278-25.24966077-9.46862278c-3.15620759 0-9.46862278 0-12.62483037 3.1562076-3.15620759 3.15620759-6.31241519 3.15620759-9.46862278 6.31241518s-6.31241519 9.46862278-6.3124152 15.78103798-3.15620759 18.93724557-3.15620759 34.71828355v34.71828355c0 6.31241519 3.15620759 12.62483038 3.15620759 15.78103798 3.15620759 6.31241519 6.31241519 9.46862278 9.46862278 12.62483039s9.46862278 3.15620759 15.78103798 3.1562076c12.62483038 0 22.09345318-3.15620759 28.40586836-9.4686228 12.62483038-9.46862278 18.93724557-18.93724557 18.93724559-31.56207595z m28.40586835 41.03069875l12.62483037-3.1562076v-126.24830382h-12.62483037v-3.1562076h63.12415191v3.1562076h-12.62483039v59.96794431h37.87449115v-59.96794431h-12.62483037v-3.1562076h63.1241519v3.1562076h-12.62483038v126.24830382h12.62483038v3.1562076h-63.1241519v-3.1562076h12.62483037v-63.12415192h-37.87449115v63.12415192h12.62483039v3.1562076h-63.12415191z m154.65417218 0l12.62483038-3.1562076v-126.24830382h-12.62483038v-3.1562076h63.12415191v3.1562076h-12.62483038v126.24830382h12.62483038v3.1562076h-63.12415191z m85.21760508-129.40451142h-3.1562076v-3.1562076h44.18690635l66.28035949 94.68622786v-75.74898228c0-6.31241519 0-9.46862278-3.15620759-12.62483039 0-3.15620759-3.15620759-3.15620759-9.46862279-3.15620759h-3.15620759v-3.1562076h31.56207595v3.1562076h-3.15620758-3.15620761c-3.15620759 0-6.31241519 0-9.46862279 3.15620759 0 3.15620759-3.15620759 6.31241519-3.15620759 12.62483039v113.62347344h-22.09345317l-72.5927747-104.15485066v88.37381267c0 6.31241519 0 9.46862278 3.1562076 12.62483039 0 3.15620759 3.15620759 3.15620759 9.46862278 3.1562076h6.31241519v3.15620758h-31.56207595v-3.15620758h3.1562076c3.15620759 0 6.31241519 0 9.46862278-3.1562076 0-3.15620759 3.15620759-6.31241519 3.1562076-12.62483039v-91.53002027l-12.62483038-22.09345316z m157.81037978 82.06139748h31.56207595l-15.78103798-44.18690635-15.78103797 44.18690635z m-25.24966077 47.34311394v-3.1562076h6.31241519s3.15620759-3.15620759 3.15620759-6.3124152l41.03069875-123.09209622h12.62483038l44.18690634 129.40451142h6.3124152v3.1562076h-53.65552914v-3.1562076h9.46862279l-15.78103797-37.87449115h-31.56207596l-9.46862279 25.24966076v6.31241519c0 3.15620759 0 3.15620759 3.1562076 6.3124152h6.31241519v3.1562076h-22.09345317z" fill="#231815" p-id="18410"></path></svg>