<?xml version="1.0" standalone="no"?><!DOCTYPE svg PUBLIC "-//W3C//DTD SVG 1.1//EN" "http://www.w3.org/Graphics/SVG/1.1/DTD/svg11.dtd"><svg t="1547622493848" class="icon" style="" viewBox="0 0 1820 1024" version="1.1" xmlns="http://www.w3.org/2000/svg" p-id="15913" xmlns:xlink="http://www.w3.org/1999/xlink" width="355.46875" height="200"><defs><style type="text/css"></style></defs><path d="M140.84402083 320.22725486h164.70687898c23.0204353 0 37.27576686 18.78236343 31.88185702 41.80279771L260.76218718 691.15485054c-5.39390984 23.0204353-28.41434413 41.70647873-51.43477943 41.70647771h-164.70687898c-23.0204353 0-37.27576686-18.78236343-31.88185702-41.70647771l76.67056965-329.12479797c5.39390984-23.0204353 28.31802514-41.80279873 51.43477943-41.80279771z" fill="#CF0A2C" p-id="15914"></path><path d="M291.77716623 320.22725486h189.36475022c23.0204353 0 12.61789562 18.78236343 7.22398578 41.80279771L411.69533257 691.15485054c-5.39390984 23.0204353-3.66015289 41.70647873-26.68058819 41.70647771H195.64999416c-23.0204353 0-37.27576686-18.78236343-31.88185803-41.70647771l76.67057067-329.12479797c5.39390984-23.0204353 28.31802514-41.80279873 51.33845943-41.80279771z" fill="#002856" p-id="15915"></path><path d="M473.62897169 320.22725486h164.61055796c23.0204353 0 37.27576686 18.78236343 31.88185804 41.80279771L593.54713702 691.15485054c-5.39390984 23.0204353-28.41434413 41.70647873-51.43477943 41.70647771H377.50179861c-23.0204353 0-37.37208686-18.78236343-31.88185702-41.70647771l76.67056965-329.12479797c5.29758984-23.0204353 28.31802514-41.80279873 51.33846045-41.80279771z" fill="#007078" p-id="15916"></path><path d="M446.08150451 629.8954494h15.50749054l4.52703086-14.92957054h-15.50748953l-4.52703187 14.92957054z m12.42525664-41.22487873l-5.29758985 17.62652546s5.87550883-2.9859139 9.05406172-3.94911289c3.1785539-0.77055898 7.99454476-1.34847695 7.99454476-1.34847695l3.75647289-12.32893562H458.50676115z m7.80190476-25.42843124l-5.20126984 16.95228749s5.77918883-2.60063492 8.95774171-3.46751289c3.1785539-0.86687797 7.99454476-1.15583797 7.99454476-1.15583797l3.75647289-12.32893663h-15.50748952z m34.28985295 0l-20.0345214 66.46067098h5.39390984l-4.14175187 13.67741257h-5.39390984l-1.25215695 4.23807188h-19.07132343l1.34847797-4.23807188h-38.81688483l3.94911289-12.7142146h3.94911187l20.32348039-67.42386895 4.04543187-13.58109257h19.45660241l-2.02271594 6.83870577s5.20126984-3.75647289 10.11357969-5.00862984c4.91231086-1.25215797 33.13401498-1.73375695 33.134016-1.73375695l-4.14175188 13.58109359h-6.83870679v-0.09632z" fill="#FFFFFF" p-id="15917"></path><path d="M509.17098159 549.75736584h20.80507937l0.19264 7.80190476c-0.09632 1.34847695 0.96319797 1.92639594 3.37119288 1.92639696h4.23807188l-3.85279188 12.8105346h-11.26941866c-9.7283007 0.67423898-13.38845359-3.46751289-13.19581359-8.18718375l-0.28896-14.35165257zM511.96425651 610.438848h-19.8418814l3.37119289-11.36573765h22.63515632l3.27487391-10.40253968h-22.34619632l3.85279187-12.81053562h62.22259911l-3.94911289 12.81053562H540.37860064l-3.27487391 10.40253968h20.90139937l-3.46751289 11.36573765h-22.63515632l-4.04543187 4.81598984h9.15038273l2.21535492 14.35165257c0.28895898 1.44479695 0.28895898 2.31167594 0.77055898 2.98591391 0.48159898 0.48159898 3.1785539 0.77055898 4.81599086 0.77055898h2.79327391l-4.23807188 13.96637257h-7.03134577c-1.15583797 0-2.69695492-0.09632-4.91231086-0.19264-2.11903594-0.19264-3.66015289-1.44479695-5.10494984-2.11903593-1.25215797-0.67423898-3.2748739-2.21535594-3.66015289-4.91230984l-2.21535492-14.35165258-10.3062207 14.15901258c-3.2748739 4.43071086-7.70558476 7.80190476-15.12221054 7.80190476h-14.44797156l3.75647289-12.42525562h5.49022883c1.54111695 0 2.9859139-0.57791898 4.04543289-1.15583797 1.05951797-0.48159898 2.02271594-0.96319797 3.0822339-2.50431492l15.02589054-21.19035835zM294.85940013 579.23122895h52.4942974l-3.85279188 12.52157562h-20.99771936l-3.27487391 10.69149867h21.47931835l-3.94911187 12.9068546h-21.47931835l-5.20126984 17.33756648c-0.67423898 1.92639594 5.10494984 2.21535594 7.12766578 2.21535593l10.69149968-1.44479796-4.33439187 14.25533257h-24.17627226c-1.92639594 0-3.3711939-0.28895898-5.49022984-0.77055797-2.02271594-0.48159898-2.8895939-1.44479695-3.85279289-2.79327492-0.86687797-1.44479695-2.21535594-2.60063492-1.25215695-5.58654883l6.93502679-23.0204353h-11.94365663l3.94911187-13.0994946h12.03997664l3.1785539-10.69149867h-11.94365663l3.85279187-12.52157562zM330.20877105 556.78871263h21.57563835L347.73897753 569.79188724h-29.37754311l-3.17855391 2.79327492c-1.34847695 1.34847695-1.83007594 0.77055898-3.66015289 1.73375594-1.63743695 0.86687797-5.20126984 2.50431492-9.7283007 2.50431492h-9.43934171l3.85279289-12.61789461h2.8895939c2.40799492 0 4.04543187-0.19264 4.81599086-0.77055898 0.96319797-0.57791898 2.02271594-1.92639594 3.17855391-4.04543187l5.39390882-9.8246207h21.38299835l-3.66015289 7.22398577z" fill="#FFFFFF" p-id="15918"></path><path d="M371.5299708 578.26803098s5.87550883-5.39390984 15.8927685-7.12766679c2.31167594-0.48159898 16.56700749-0.28895898 16.5670075-0.28895898l2.21535593-7.22398578h-30.34074108l-4.33439085 14.64061155z m28.41434412 5.49022883H369.89253384l-1.83007695 6.06814781h26.00634921c3.0822339-0.38527898 3.66015289 0.09632 3.94911289-0.09631899l1.92639593-5.97182882z m-39.00952381-34.00089397h18.30076445l-2.69695492 9.24670273s5.77918883-4.62335086 9.8246207-6.26078781c4.04543187-1.54111695 13.1958146-2.8895939 13.1958146-2.88959492l29.6665021-0.09632-10.1135807 33.71193499c-1.73375695 5.77918883-3.66015289 9.53566171-4.91230984 11.17309765-1.15583797 1.73375695-2.40799492 3.1785539-5.00863086 4.62335085-2.50431492 1.34847695-4.81599086 2.11903594-6.93502578 2.31167594-1.92639594 0.19264-5.00862984 0.19264-9.15038273 0.28895898h-28.60698413L356.40776026 628.54697244c-0.77055898 2.60063492-1.15583797 3.85279289-0.57791899 4.62335086 0.38527898 0.67423898 1.34847695 1.34847695 2.79327492 1.34847695l12.61789461-1.15583695-4.33439086 14.64061156h-14.15901257c-4.43071086 0-7.80190476-0.09632-10.0172607-0.28896-2.21535594-0.19264-4.43071086 0-5.97182781-1.15583797-1.34847695-1.15583797-3.3711939-2.69695492-3.2748739-4.23807187 0.19264-1.44479695 0.77055898-3.85279289 1.63743695-7.12766578l25.8137092-85.4356734z" fill="#FFFFFF" p-id="15919"></path><path d="M414.39228648 604.08174019l-1.73375594 8.09086375c-0.77055898 2.50431492-1.34847695 4.43071086-3.2748739 6.06814882-2.02271594 1.73375695-4.33439187 3.46751289-9.8246207 3.46751289l-10.1135807 0.38527898-0.09631898 9.15038274c-0.09632 2.60063492 0.57791898 2.31167594 0.96319797 2.7932739 0.48159898 0.48159898 0.86687797 0.67423898 1.34847695 0.86687898l3.1785539-0.19264 9.7283007-0.57791898-3.94911187 13.38845359h-11.17309867c-7.80190476 0-13.58109359-0.19264-15.50748952-1.73375594-1.83007594-1.15583797-2.11903594-2.69695492-2.11903594-5.20126984l0.67423899-35.63833092h17.81916546l-0.19264 7.22398578h4.33439187c1.44479695 0 2.40799492-0.19264 3.0822339-0.57791797 0.48159898-0.38527898 0.96319797-0.96319797 1.25215696-1.83007695l1.73375695-5.68286883h13.87005257zM160.30062324 425.40848863c-0.67423898 2.8895939-12.03997663 55.5765313-12.13629663 55.67285131-2.50431492 10.69149867-4.23807187 18.30076444-10.30621969 23.2130753-3.46751289 2.8895939-7.51294578 4.23807187-12.13629663 4.23807187-7.51294578 0-11.84733663-3.75647289-12.6178946-10.78781968l-0.09632-2.40799492 2.31167492-14.35165156s12.03997663-48.06358654 14.15901257-54.42069435c0.09632-0.38527898 0.09632-0.57791898 0.19264-0.67423797-23.30939429 0.19264-27.54746616 0-27.74010616-0.38528-0.09632 0.48159898-0.77055898 3.46751289-0.77055797 3.46751391L88.92764242 483.10405689l-1.05951797 4.62335086-2.02271594 15.02589054c0 4.43071086 0.86687797 8.09086375 2.60063492 11.17309765 5.58654883 9.7283007 21.47931835 11.26941765 30.53338007 11.26941866 11.65469765 0 22.44251632-2.50431492 29.85914209-6.93502679 12.8105346-7.51294578 16.18172851-19.36028241 19.07132241-29.8591421l1.34847797-5.39390882s12.32893562-49.89366248 14.54429156-56.44341029c0-0.38527898 0.09632-0.57791898 0.19263898-0.67423797-17.14492648 0-22.15355632-0.19264-23.69467327-0.4816zM228.59137016 524.42525562c-8.28350375-0.09632-11.17309867-0.09632-20.90139936 0.38527898l-0.38527899-0.67423797c0.86687797-3.66015289 1.73375695-7.32030578 2.60063492-11.07677866l1.15583696-5.00862984c1.73375695-7.80190476 3.56383289-16.95228648 3.75647288-19.7455614 0.19264-1.63743695 0.77055898-5.87550883-4.04543187-5.87550883-2.02271594 0-4.14175187 0.96319797-6.26078781 1.92639594-1.15583797 4.14175187-3.56383289 15.89276851-4.62335085 21.19035835-2.40799492 11.26941765-2.60063492 12.52157562-3.66015289 18.10812546l-0.67423899 0.77055797c-8.57246375-0.09632-11.46205765-0.09632-21.28667835 0.38527898l-0.48159898-0.77055797c1.63743695-6.64606679 3.2748739-13.48477359 4.81599086-20.13084038 4.14175187-18.10812444 5.10494984-25.04315124 6.26078781-34.28985396l0.77055796-0.57791797c9.53566171-1.34847695 11.84733663-1.63743695 22.24987632-3.75647289l0.86687899 0.96319797-1.54111696 5.77918882c1.73375695-1.05951797 3.46751289-2.11903594 5.20126984-2.9859139 4.91231086-2.40799492 10.30621968-3.0822339 13.29213359-3.08223391 4.52703086 0 9.53566171 1.25215797 11.55837765 6.5497468 2.02271594 4.71967086 0.67423898 10.40253968-1.92639593 21.86459733l-1.34847797 5.77918883c-2.60063492 12.61789562-3.0822339 14.92957054-4.52703086 23.59835326l-0.86687797 0.67423899zM262.30330413 524.42525562c-5.00862984 0-8.18718375-0.09632-11.36573765 0-3.0822339 0-6.16446781 0.19264-10.78781968 0.38527898l-0.28895899-0.38527898-0.28895898-0.38527899c1.25215797-4.81599086 1.92639594-6.45342781 2.60063492-8.18718374 0.57791898-1.73375695 1.25215797-3.3711939 2.31167492-8.28350375 1.44479695-6.35710781 2.31167594-10.78781867 2.9859139-14.64061155 0.67423898-3.75647289 1.05951797-6.93502679 1.54111696-10.69149969l0.38528-0.28895898 0.38527898-0.38527898c4.91231086-0.67423898 8.09086375-1.15583797 11.36573765-1.63743696 3.2748739-0.48159898 6.54974679-1.05951797 11.65469765-2.11903593l0.19263899 0.48159898 0.19264 0.48159899c-0.96319797 3.94911187-1.92639594 7.80190476-2.88959492 11.84733663-0.96319797 3.94911187-1.92639594 7.89822476-2.79327391 11.84733664-1.83007594 8.37982375-2.60063492 11.46205765-3.0822339 13.67741358-0.38527898 2.11903594-0.57791898 3.2748739-1.25215797 7.60926476l-0.48159899 0.38528-0.38527898 0.28895899zM314.99024153 495.04771352c-0.48159898 2.11903594-2.31167594 10.1135807-4.81599086 13.48477359-1.73375695 2.50431492-3.85279289 3.94911187-6.16446781 3.94911187-0.67423898 0-4.71967086 0-4.81599086-6.06814781 0-2.9859139 0.57791898-6.06814781 1.34847696-9.43934171 2.21535594-9.6319807 4.81599086-17.72284546 11.36573765-17.72284546 5.00862984 0.09632 5.39390984 6.06814781 3.08223492 15.79644952z m21.67195733 0.86687797c2.8895939-12.71421562 0.67423898-18.68604343-2.21535594-22.34619632-4.33439187-5.49022883-11.94365663-7.32030578-19.84188139-7.32030577-4.71967086 0-16.08540851 0.48159898-24.94683124 8.66878273-6.35710781 5.87550883-9.24670171 13.87005257-11.07677765 21.47931835-1.83007594 7.80190476-3.85279289 21.86459733 9.05406171 27.06586717 4.04543187 1.73375695 9.7283007 2.11903594 13.38845359 2.11903594 9.43934171 0 19.16764241-2.60063492 26.39162921-10.30621969 5.77918883-6.16446781 8.37982375-15.50748952 9.24670171-19.36028241zM539.12644369 525.29213359c-10.0172607-0.09632-12.8105346-0.09632-22.05723734 0.28896l-0.57791898-0.77055899c2.50431492-9.53566171 5.00862984-18.97500343 7.22398578-28.60698412 2.8895939-12.42525562 3.56383289-17.72284546 4.52703187-25.04315023l0.77055797-0.57791898c9.9209407-1.44479695 12.71421562-1.83007594 23.0204353-3.75647289l0.28895898 0.86687797c-1.92639594 7.80190476-3.75647289 15.60380952-5.58654882 23.50203428-3.85279289 16.47068749-5.20126984 24.75419124-6.6460668 33.32665499l-0.96319796 0.77055797z" fill="#FFFFFF" p-id="15920"></path><path d="M524.10055213 496.10723149c-0.48159898 2.02271594-2.40799492 10.1135807-4.91230984 13.48477359-1.73375695 2.40799492-5.77918883 3.85279289-8.09086476 3.85279187-0.67423898 0-4.71967086 0-4.81598984-5.97182781 0-2.9859139 0.57791898-6.06814781 1.34847695-9.43934171 2.21535594-9.43934171 4.71967086-17.53020546 11.36573765-17.53020546 5.10494984 0.09632 7.32030578 5.87550883 5.10494984 15.60380952z m19.74556241 0.96319797c2.8895939-12.71421562-8.76510273-1.15583797-10.69149968-5.29758984-2.8895939-6.54974679-1.05951797-19.7455614-12.61789562-24.17627327-4.43071086-1.73375695-14.83325054 0.48159898-23.69467327 8.66878375-6.26078781 5.87550883-9.24670171 13.77373359-10.98045867 21.38299834-1.83007594 7.70558476-3.85279289 21.67195733 8.95774274 26.77690718 4.04543187 1.73375695 7.80190476 2.21535594 11.46205765 2.02271594 12.9068546-0.67423898 22.7314753-20.22716038 30.05178108-27.93274515 5.68286883-6.16446781 6.74238679 2.31167594 7.51294577-1.44479695zM393.20192813 524.42525562c-8.28350375-0.09632-11.17309867-0.09632-20.90139936 0.38527898l-0.38527899-0.67423797c0.86687797-3.66015289 1.73375695-7.32030578 2.60063492-11.07677866l1.15583797-5.00862984c1.83007594-7.80190476 3.56383289-16.95228648 3.75647289-19.7455614 0.19264-1.63743695 0.77055898-5.87550883-4.04543289-5.87550883-2.02271594 0-4.14175187 0.96319797-6.26078781 1.92639594-1.15583797 4.14175187-3.56383289 15.89276851-4.71966984 21.19035835-2.31167594 11.26941765-2.50431492 12.52157562-3.56383391 18.10812546l-0.67423796 0.77055797c-8.57246375-0.09632-11.46205765-0.09632-21.28667835 0.38527898l-0.48159899-0.77055797c1.63743695-6.64606679 3.2748739-13.48477359 4.81598984-20.13084038 4.14175187-18.10812444 5.10494984-25.04315124 6.26078781-34.28985396l0.77055899-0.57791797c9.53566171-1.34847695 11.94365663-1.63743695 22.24987632-3.75647289l0.86687796 0.96319797-1.54111695 5.77918882c1.73375695-1.05951797 3.46751289-2.11903594 5.20126984-2.9859139 4.81599086-2.40799492 10.30621968-3.0822339 13.29213461-3.08223391 4.52703086 0 9.53566171 1.25215797 11.65469663 6.5497468 1.92639594 4.71967086 0.67423898 10.40253968-2.02271594 21.86459733l-1.34847695 5.77918883c-2.69695492 12.61789562-3.0822339 14.92957054-4.52703187 23.59835326l-0.86687797 0.67423899zM464.96018794 425.31216965l-6.83870679 0.09631898c-17.91548546 0.19264-25.13947124 0.09632-28.02906515-0.19263898-0.28895898 1.34847695-0.77055898 3.66015289-0.77055796 3.66015289l-6.35710781 29.76282209s-15.31485054 63.18579708-16.08540851 66.17170997c15.60380952-0.19264 22.05723733-0.19264 24.75419124 0.09632 0.67423898-2.9859139 4.23807187-20.61243937 4.33439187-20.61243936 0 0 3.0822339-13.0031746 3.2748739-13.38845359 0 0 0.96319797-1.34847695 1.92639594-1.83007695h1.44479695c13.48477359 0 28.70330413 0 40.64696076-8.76510273 8.09086375-5.97182883 13.67741359-14.92957054 16.18172851-25.71739022 0.67423898-2.69695492 1.15583797-5.87550883 1.15583797-8.95774172 0-4.14175187-0.86687797-8.18718375-3.2748739-11.46205765-6.26078781-8.66878273-18.30076444-8.76510273-32.36345702-8.86142273z m8.95774273 30.91865905c-1.44479695 6.54974679-5.68286883 12.13629663-11.26941765 14.83325155-4.52703086 2.31167594-10.1135807 2.50431492-15.79644952 2.50431492h-3.66015289l0.28895898-1.44479695s6.83870679-29.6665021 6.83870679-29.57018209l0.19264-1.54111797 0.19264-1.15583695 2.69695391 0.28895898s14.06269257 1.25215797 14.44797257 1.25215797c5.39390984 2.02271594 7.70558476 7.60926476 6.06814781 14.83325054zM620.99828318 466.82600838l-0.77055797-0.86687797c-10.20989968 2.02271594-12.03997663 2.40799492-21.47931835 3.66015188l-0.67423898 0.67423898c0 0.09632-0.09632 0.28895898-0.09632 0.48159898v-0.19263898c-7.03134578 16.18172851-6.74238679 12.71421562-12.52157461 25.33211022 0-0.57791898-0.09632-0.96319797-0.09632-1.54111695l-1.44479797-27.54746616-0.86687796-0.86687797c-10.69149867 2.02271594-10.98045867 2.40799492-20.90139937 3.66015188l-0.77055797 0.67423898c-0.09632 0.38527898-0.09632 0.67423898-0.19264 1.05951797l0.09632 0.19264c1.25215797 6.35710781 0.96319797 4.91231086 2.21535594 14.83325054 0.57791898 4.91231086 1.34847695 9.8246207 1.92639594 14.64061155 0.96319797 8.09086375 1.54111695 12.03997663 2.69695492 24.36891226-6.64606679 11.07677867-8.28350375 15.21853054-14.64061156 24.85051124l0.38527899 0.86687898c9.6319807-0.38527898 11.84733663-0.38527898 19.07132342-0.38527898l1.54111696-1.73375696c5.29758984-11.55837765 46.52246959-82.16079949 46.52246857-82.16079949zM271.35736584 473.66471517c5.49022883-3.85279289 6.16446781-9.05406273 1.54111696-11.84733765-4.71967086-2.79327492-12.8105346-1.92639594-18.39708343 1.92639696-5.58654883 3.75647289-6.16446781 9.05406273-1.54111695 11.84733663 4.71967086 2.69695492 12.9068546 1.83007594 18.39708342-1.92639594z" fill="#FFFFFF" p-id="15921"></path><path d="M573.70525562 550.04632584l-8.09086374 13.77373257c-2.50431492 4.71967086-7.22398578 8.18718375-14.73693156 8.28350375l-12.8105346-0.19263899 3.75647187-12.42525561h2.50431594c1.25215797 0 2.21535594-0.09632 2.9859139-0.48159899 0.57791898-0.19264 1.05951797-0.67423898 1.63743695-1.44479797l4.71967086-7.51294476h20.03452038z" fill="#FFFFFF" p-id="15922"></path><path d="M983.73869511 504.96865422l18.49340343-79.65648457h-95.45293308l7.60926477-32.65241702h-32.941376l-7.60926477 32.748736h-29.37754209c-17.91548546 0.28895898-36.69784787 14.73693156-36.69784889 14.73693156l3.3711939-14.73693156h-32.748736L754.20858311 529.91548546h95.3566141l-14.25533257 61.45203911h32.941376l14.25533155-61.45203911h71.85457981c11.75101663 0 19.7455614-8.57246375 19.7455614-8.57246375 7.89822476-7.51294578 9.6319807-16.37436851 9.63198171-16.37436749z m-128.87590806 2.02271594h-62.60787809l13.67741358-58.75508521h62.60787708l-13.67741257 58.75508521z m96.89773003-5.20126984s-1.83007594 4.91231086-7.03134578 5.20126984h-56.82868926l13.58109358-58.75508521h62.70419708l-12.42525562 53.55381537zM1226.84989969 566.42069333l40.45432177-173.85725968H1108.6654913c-18.01180444 0.48159898-36.69784787 14.83325054-36.69784888 14.83325054l3.46751288-14.73693156h-32.84505498l-46.1371906 198.70777194h201.30840685c10.88413867 0.09632 18.58972343-7.51294578 18.58972445-7.51294476 8.47614375-7.51294578 10.49885968-17.43388546 10.49885867-17.43388648z m-31.78553804-4.14175187s-1.34847695 5.87550883-7.41662476 6.26078781h-153.24482133l35.63833092-152.95586133h159.12032914l-34.09721397 146.69507352z" fill="#4C4948" p-id="15923"></path><path d="M1083.33338007 433.01775441h124.3488772l-5.39390882 22.8277953h-45.84823061l-5.77918882 24.65787226h45.8482306l-5.29758984 22.8277953h-45.8482306l-5.77918883 24.75419124h16.85596749s-0.09632-8.86142273-1.63743695-16.56700749h23.69467327s0.77055898 7.89822476 0.57791899 16.56700749h6.35710781l-5.29758985 22.9241153h-124.3488772l5.29758984-22.8277953h45.6555906l5.77918883-24.94683124h-45.75191061l5.29758985-22.7314753h45.7519106l5.68286882-24.65787226h-45.7519106l5.58654883-22.8277953zM1292.82897169 423.09681371h10.20989968s14.92957054-1.15583797 24.17627225-30.53338006h34.48249295s-4.23807187 10.40253968-7.41662577 15.21852952h43.0549567l-5.29758985 22.92411531h-54.99861231s-14.64061156 15.79644952-34.38617296 15.79644952h-15.21853054l5.39390985-23.40571429zM1386.93342781 452.08907683l-5.29758984 22.9241153H1342.72263416l-7.41662578 32.07449701h38.91320381l-5.29758984 22.9241153h-39.00952381l-7.22398577 31.20761905c-1.34847695 7.41662578 5.29758984 7.32030578 5.29758984 7.32030578h32.07449701l-5.29758984 22.8277953h-49.79734248c-8.18718375-0.28895898-11.84733663-3.1785539-11.84733663-3.17855289-8.86142273-5.68286883-5.20126984-17.43388546-5.20126984-17.43388647l9.43934171-40.64696077h-23.40571428l5.29758984-22.9241153h23.40571428l7.41662477-32.07449701h-23.40571429l5.29758984-22.9241153h94.97133511zM1518.98788978 472.12359822l18.49340343-79.56016457h-59.04404419c-17.04860648 0.09632-36.69784787 14.83325054-36.69784889 14.83325054l3.46751391-14.83325054h-32.845056l-41.22487975 177.13213359c-2.8895939 10.98045867 2.02271594 15.89276851 2.02271594 15.89276952 5.10494984 6.16446781 16.08540851 5.68286883 16.0854085 5.68286883h38.04632584l5.29758985-22.82779632H1411.10970007c-7.03134578-0.48159898-5.20126984-7.32030578-5.20126984-7.32030476l14.73693155-63.28211708h68.29074591c9.8246207 0 15.79644952-5.10494984 15.79644952-5.10494984 11.55837765-7.60926476 14.25533257-20.61243937 14.25533257-20.61243937z m-79.07856559-56.44341028h59.42932318l-4.23807086 18.20444444h-27.45114717C1449.92658388 434.94415035 1432.30005842 448.42892394 1432.30005842 448.42892394l7.60926577-32.748736z m45.55927061 59.23668419h-59.33300419l4.23807187-18.20444445h59.42932419l-4.33439187 18.20444445z" fill="#4C4948" p-id="15924"></path><path d="M1436.1528513 506.99137016h32.748736l0.28895899 15.89276851h11.84733765s4.33439187 0 5.29758883-3.56383289l2.88959492-12.23261664h25.13947123l-4.04543288 17.24124648s-1.54111695 7.99454476-7.41662477 11.75101765c0 0-5.29758984 4.52703086-18.01180546 4.52703086h-15.31484952l0.38527898 23.1167553s0.28895898 4.71967086 6.06814781 4.71966984h23.88731327l-5.29758882 22.82779632h-36.40888889s-15.70012952 0.77055898-19.07132343-6.9350268c0 0-1.83007594-3.46751289-1.92639594-10.78781866l-1.05951797-66.55698997zM1686.77700165 415.58386794l5.39390985-22.92411531h-41.70647873c-18.01180444 1.34847695-35.7346499 14.73693156-35.73464991 14.73693156l3.37119289-14.73693156h-32.748736l-38.52792483 165.95903594h-11.84733663l-5.29758984 22.8277953h75.99633168l-2.31167594 9.9209407h32.74873702l2.31167492-9.8246207h9.53566171l5.29758985-22.8277953h-9.63198172l33.23033499-143.13124063h9.92094069z m-75.70737168 142.93860165h-31.49657905l7.51294578-32.45977702h31.49657803l-7.51294476 32.45977702z m12.8105346-54.99861334s-14.64061156 0.19264-34.86777193 14.54429156l10.98045866-47.10038756h31.49657804l-7.60926477 32.556096z m12.90685461-55.3838913s-14.64061156 0.19264-34.86777194 14.54429156l10.88413867-47.10038857h31.49657905l-7.51294578 32.55609701zM1677.62661994 470.87144025l5.29758984-22.6351553h115.00585448l-5.29758883 22.6351553h-41.12855974l-5.00863086 21.76827734h41.12855974l-5.29758984 22.63515631h-44.49975263l-7.0313468 11.65469664h19.74556242l5.68286882 32.55609702s1.54111695 8.28350375 5.68286883 8.76510273h8.09086374l-5.29758984 22.9241153H1747.26584381s-12.8105346-0.09632-17.72284546-7.60926578c0 0-2.9859139-4.04543187-4.14175187-12.7142146l-4.71967086-27.25850718-16.66332749 27.54746616s-4.81599086 9.15038171-10.78781867 13.77373359c0 0-6.83870679 6.45342781-19.55292241 6.26078781h-23.79099327l5.29758984-22.8277953h12.13629664s4.81599086 0.28895898 9.6319807-6.7423868l28.41434412-46.52246959H1667.32040026l5.29758882-22.6351553h41.22487975l5.00862984-21.76827835-41.22487873 0.19264zM1810.83691988 392.56343365h-35.73465092s-2.69695492 8.18718375-6.16446781 13.09949359c0 0-4.52703086 7.12766578-16.85596648 7.32030578l-5.39390984 22.9241153h19.7455614s14.73693156 0.77055898 27.45114615-12.81053461c0.09632 0.19264 11.55837765-11.07677867 16.9522875-30.53338006zM1695.92738438 392.56343365h35.73464991s-1.15583797 8.18718375 0 13.09949359c0 0 1.25215797 7.12766578 13.48477359 7.32030578l-5.39390984 22.9241153h-19.7455614s-15.12221054 0.77055898-21.47931734-12.81053461c-0.09632 0.19264-6.26078781-11.07677867-2.60063492-30.53338006z" fill="#4C4948" p-id="15925"></path><path d="M803.42800661 726.69686044c-8.47614375 4.04543187-19.7455614 7.80190476-39.97272178 7.80190477-31.68921803 0-51.04950044-22.7314753-43.53655467-55.38389131 7.60926476-32.652416 37.56472686-55.5765313 69.25394489-55.5765313 22.24987632 0 31.30393905 5.10494984 35.34937092 7.80190477l-10.0172607 15.41116952c-3.1785539-1.63743695-10.40253968-6.06814781-26.96954717-6.06814781-17.14492648 0-38.52792483 15.50748952-43.82551467 38.43160482-5.10494984 22.15355632 8.86142273 38.23896483 26.00634921 38.23896483 15.70012952 0 24.27259225-3.66015289 30.34074108-5.87550883l3.37119289 15.21853054zM860.64197486 732.47604927l10.59517968-45.4629506c1.63743695-7.03134578-0.48159898-10.88413867-8.66878273-10.88413969-6.26078781 0-12.23261562 3.85279289-15.41117054 5.58654985l-11.75101663 50.76054044h-21.09403835l25.71738921-110.96042362 21.67195733-2.21535492-11.55837664 49.60470248c3.3711939-1.92639594 13.96637257-8.47614375 26.29530819-8.47614273 13.77373359 0 19.9382014 8.47614375 16.95228648 21.67195733L881.63969423 732.57236927h-20.99771937zM938.3720635 636.54151721c-1.25215797 5.58654883-7.60926476 10.69149867-13.38845359 10.69149866-5.58654883 0-9.53566171-5.10494984-8.28350375-10.69149866 1.34847695-5.58654883 7.70558476-10.88413867 13.29213359-10.88413969 5.77918883 0 9.7283007 5.20126984 8.37982375 10.88413969z m-6.26078781 25.42843022l-16.3743675 70.50610184H894.83550883l16.37436749-70.50610184h20.90139937zM977.2852673 732.47604927l10.49885969-45.4629506c1.63743695-7.03134578-0.67423898-10.88413867-8.66878273-10.88413969-6.74238679 0-12.23261562 3.85279289-15.41117054 5.58654985l-11.75101664 50.76054044h-20.99771936l16.37436851-70.50610184h19.84188139l-0.77055898 6.83870679c3.3711939-1.92639594 13.87005257-8.47614375 26.68058819-8.47614374 13.77373359 0 19.9382014 8.47614375 16.95228647 21.67195733l-11.75101663 50.47158146h-20.99771937zM1030.83908267 734.01716622c-14.06269257 0-21.19035835-8.66878273-18.49340343-20.32348038 3.0822339-13.0994946 16.27804851-23.40571429 34.48249194-24.17627225l15.02589155-0.48159899 0.86687797-3.5638339c1.44479695-6.26078781 0.28895898-11.55837765-10.59517968-11.55837664-9.6319807 0-16.66332749 2.69695492-20.99771835 4.33439086l-2.02271594-10.69149867c5.29758984-2.21535594 17.24124648-7.22398578 32.459776-7.22398577 16.85596749 0 26.10266921 8.18718375 22.92411531 21.96091733l-9.05406274 39.10584279c-0.96319797 3.85279289-0.67423898 8.95774273-0.19263898 11.07677867h-21.96091733c-0.38527898-1.92639594-0.38527898-4.62335086 0-6.26078781-4.23807187 2.69695492-11.84733663 7.80190476-22.44251632 7.80190476z m28.51066413-34.38617295l-10.20989969 0.77055898c-6.45342781 0.57791898-15.31485054 2.9859139-17.14492647 11.07677765-1.83007594 7.70558476 5.00862984 8.66878273 8.86142273 8.66878375 5.58654883 0 11.55837765-3.85279289 15.12221054-5.77918882l3.37119289-14.73693156zM1213.17248711 695.5855614c-5.10494984 21.96091733-25.23579022 38.91320381-54.22805434 38.91320381-29.08858311 0-41.41751873-16.18172851-36.11992991-38.91320381l16.18172851-70.02450286h22.73147632l-15.60380953 67.23122794c-3.66015289 15.89276851 1.15583797 24.85051124 17.81916445 24.85051225 16.47068749 0 26.29530819-12.8105346 29.08858311-24.85051225L1208.83809524 625.65737752h20.61243937l-16.2780475 69.92818388zM1266.1483835 732.47604927l10.49885968-45.4629506c1.63743695-7.03134578-0.67423898-10.88413867-8.66878375-10.88413969-6.74238679 0-12.23261562 3.85279289-15.41116952 5.58654985l-11.75101664 50.76054044h-20.99771936l16.37436749-70.50610184h19.8418814l-0.77055797 6.83870679c3.3711939-1.92639594 13.77373359-8.47614375 26.58426819-8.47614374 13.77373359 0 19.9382014 8.47614375 16.95228648 21.67195733l-11.75101664 50.47158146h-20.90139936zM1345.22694908 636.54151721c-1.25215797 5.58654883-7.60926476 10.69149867-13.38845358 10.69149866-5.58654883 0-9.53566171-5.10494984-8.18718477-10.69149866 1.25215797-5.58654883 7.60926476-10.88413867 13.29213461-10.88413969s9.6319807 5.20126984 8.28350374 10.88413969z m-6.16446781 25.42843022l-16.3743685 70.50610184h-20.99771937l16.37436851-70.50610184h20.99771936zM1422.47543772 697.22299835c-5.20126984 22.53883632-27.45114616 36.79416787-48.93046451 36.79416787-21.47931835 0-37.08312787-14.25533257-31.78553803-36.79416787 5.20126984-22.53883632 27.45114616-36.79416787 48.93046451-36.79416787 21.38299835-0.09632 36.98680787 14.15901257 31.78553803 36.79416787z m-58.46612521 0c-2.79327492 12.03997663 0.09632 22.9241153 12.8105346 22.9241153 10.59517968 0 20.32348038-10.88413867 23.11675531-22.9241153 2.79327492-12.13629663-1.92639594-22.9241153-12.42525664-22.9241153-12.71421562 0-20.70875937 10.69149867-23.50203327 22.9241153zM1471.50222223 732.47604927l10.49885968-45.4629506c1.63743695-7.03134578-0.67423898-10.88413867-8.66878375-10.88413969-6.74238679 0-12.23261562 3.85279289-15.41116952 5.58654985l-11.75101664 50.76054044h-20.99771936l16.37436851-70.50610184h19.84188038l-0.77055797 6.83870679c3.3711939-1.92639594 13.77373359-8.47614375 26.68058819-8.47614374 13.77373359 0 19.9382014 8.47614375 16.95228648 21.67195733l-11.65469766 50.47158146h-21.09403834zM1543.35680204 661.96994743l-0.38527899 5.77918882c3.56383289-2.11903594 11.17309867-7.41662578 23.50203327-7.41662577 19.16764241 0 29.7628221 13.0031746 24.65787225 35.44569092-5.58654883 23.88731327-25.04315124 38.23896483-42.66967669 38.23896482-12.61789562 0-17.72284546-2.9859139-19.8418814-4.14175187l-9.15038171 39.39480279h-20.99771937l24.94683124-107.30026971h19.9382014z m2.8895939 58.4661252c8.18718375 0 18.10812444-6.74238679 22.15355733-24.36891225 3.94911187-16.95228648-3.3711939-21.28667835-11.55837765-21.28667835-7.32030578 0-13.87005257 3.85279289-16.85596749 5.58654883l-8.57246273 36.79416889c2.50431492 1.34847695 6.26078781 3.2748739 14.83325054 3.27487288zM1611.64754896 734.01716622c-14.06269257 0-21.19035835-8.66878273-18.49340445-20.32348038 3.0822339-13.0994946 16.27804851-23.40571429 34.48249295-24.17627225l15.02589054-0.48159899 0.77055797-3.5638339c1.44479695-6.26078781 0.28895898-11.55837765-10.59517867-11.55837664-9.6319807 0-16.66332749 2.69695492-20.99771936 4.33439086l-2.02271594-10.69149867c5.29758984-2.21535594 17.14492648-7.22398578 32.45977702-7.22398577 16.85596749 0 26.10266921 8.18718375 22.9241153 21.96091733l-9.05406273 39.10584279c-0.86687797 3.85279289-0.67423898 8.95774273-0.19264 11.07677867h-21.96091632c-0.38527898-1.92639594-0.38527898-4.62335086 0-6.26078781-4.14175187 2.69695492-11.75101663 7.80190476-22.34619631 7.80190476z m28.51066412-34.38617295l-10.30621968 0.77055898c-6.35710781 0.57791898-15.31485054 2.9859139-17.14492648 11.07677765-1.73375695 7.70558476 5.00862984 8.66878273 8.86142172 8.66878375 5.58654883 0 11.55837765-3.85279289 15.12221054-5.77918882l3.4675139-14.73693156z" fill="#4C4948" p-id="15926"></path><path d="M1691.68931251 750.39153473c-7.12766578 11.55837765-15.12221054 20.51612038-28.31802514 20.51611937-12.8105346 0-16.75964749-3.0822339-20.03452038-5.00862985l7.99454374-12.52157562c3.2748739 1.25215797 6.45342781 2.69695492 11.55837765 2.69695493 7.99454476 0 11.36573765-6.06814781 17.72284546-14.92957156l4.81599086-7.51294476-12.81053562-71.75825981h21.57563835l6.9350268 47.58198654 28.31802412-47.58198654h18.10812445l-55.86549029 88.5179073z" fill="#4C4948" p-id="15927"></path></svg>