<?xml version="1.0" standalone="no"?><!DOCTYPE svg PUBLIC "-//W3C//DTD SVG 1.1//EN" "http://www.w3.org/Graphics/SVG/1.1/DTD/svg11.dtd"><svg t="1547622577759" class="icon" style="" viewBox="0 0 2560 1024" version="1.1" xmlns="http://www.w3.org/2000/svg" p-id="18539" xmlns:xlink="http://www.w3.org/1999/xlink" width="500" height="200"><defs><style type="text/css"></style></defs><path d="M193.29066668 265.42080001c48.7424 17.2032 94.6176 65.94559999 94.61760001 120.42239999v424.34559999c11.46880001 0 22.9376 2.8672 34.40639999 2.86720001 11.46880001 0 22.9376 0 34.40640001-2.86720001V385.8432c0-54.4768 45.8752-103.2192 91.75039999-120.42239999 5.7344-2.8672 8.6016-5.7344 8.6016-11.46880001s-2.8672-11.46880001-8.6016-14.33599999c-37.27360001-17.2032-80.2816-28.672-126.1568-28.67200001-45.8752 0-88.88320001 11.46880001-126.1568 28.67200001-5.7344 2.8672-8.6016 5.7344-8.6016 14.33599999-2.8672 5.7344 0 8.6016 5.7344 11.46880001z" fill="#D7000F" p-id="18540"></path><path d="M242.03306668 801.5872V411.648c0-43.008-22.9376-77.4144-57.34399999-91.75040001v458.75200001c17.2032 11.46880001 37.27360001 17.2032 57.34399999 22.9376zM457.07306668 778.6496v-458.75200001c-34.4064 14.33599999-57.344 51.6096-57.344 91.75040001v389.9392c20.0704-5.7344 40.14079999-11.46880001 57.344-22.9376zM84.33706668 457.5232c2.8672 0 5.7344 2.8672 5.7344 5.7344 5.7344 17.2032 20.0704 31.5392 37.2736 31.5392 5.7344 0 11.46880001-2.8672 14.336-5.7344v-215.04C67.13386668 328.4992 21.25866669 414.5152 21.25866669 512c0 97.4848 45.8752 183.5008 117.55519999 237.9776v-215.04c-2.8672-2.8672-8.6016-5.7344-14.33599999-5.7344-17.2032 0-31.5392 14.33599999-37.27360001 31.5392 0 2.8672-2.8672 5.7344-5.73439999 5.7344s-2.8672-2.8672-5.73440001-2.8672c-11.46880001-14.33599999-17.2032-31.5392-17.2032-51.6096s5.7344-37.27360001 17.2032-51.6096c2.8672 0 5.7344-2.8672 8.6016-2.8672zM600.43306668 529.2032c-17.2032 0-31.5392 14.33599999-37.27359999 31.5392 0 2.8672-2.8672 5.7344-5.73440001 5.7344s-2.8672-2.8672-5.7344-2.8672c-8.6016-14.33599999-14.33599999-31.5392-14.33599999-51.6096s5.7344-37.27360001 17.20319999-51.6096c0 0 2.8672-2.8672 5.7344-2.8672s5.7344 2.8672 5.7344 5.7344c5.7344 17.2032 20.0704 31.5392 37.2736 31.5392 8.6016 0 17.2032-5.7344 20.07040001-14.336-8.6016-83.1488-51.6096-154.8288-114.68800001-203.5712v473.088c60.2112-45.8752 100.352-114.68800001 111.82080001-192.1024v-11.4688c-5.7344-11.46880001-11.46880001-17.2032-20.07040001-17.2032z" fill="#D7000F" p-id="18541"></path><path d="M1288.56106668 810.18879999v-5.73439999c-5.7344 0-8.6016-2.8672-8.6016-2.8672-2.8672 0-2.8672-2.8672-2.8672-5.7344v-2.8672-2.8672l5.7344-14.336h43.008l5.7344 14.336v5.7344c0 2.8672 0 2.8672-2.8672 5.7344-2.8672 0-5.7344 2.8672-8.60159999 2.8672v5.73439999H1368.84266669v-5.73439999c-2.8672 0-5.7344 0-8.60160001-2.8672-2.8672-2.8672-5.7344-5.7344-5.7344-8.6016l-37.27359999-83.1488H1311.49866669l-40.14080001 86.016c-2.8672 2.8672-2.8672 8.6016-5.73439999 8.6016-2.8672 2.8672-5.7344 2.8672-8.60160001 2.86720001v5.73439999h31.5392v-2.86720001z m736.8704 0c11.46880001 0 20.0704-2.8672 25.8048-8.60159999 5.7344-5.7344 11.46880001-11.46880001 11.4688-20.07039999 0-5.7344-2.8672-14.33599999-8.6016-17.20320001-5.7344-5.7344-11.46880001-8.6016-20.07039999-8.60159999 8.6016-2.8672 14.33599999-5.7344 17.20319999-8.60160001 5.7344-5.7344 5.7344-8.6016 5.7344-14.33600001 0-8.6016-2.8672-14.33599999-8.6016-17.20319999-5.7344-2.8672-14.33599999-5.7344-25.8048-5.7344h-48.7424v2.8672c5.7344 0 8.6016 0 8.60160001 2.8672 2.8672 2.8672 2.8672 5.7344 2.86719999 8.6016v68.8128c0 2.8672 0 5.7344-2.86719999 8.6016-2.8672 2.8672-5.7344 2.8672-8.60160001 2.8672v5.73439999h51.6096z m-22.9376-94.61759999h14.33600001c8.6016 0 14.33599999 2.8672 17.2032 5.7344 2.8672 2.8672 5.7344 8.6016 5.7344 14.336s-2.8672 11.46880001-5.7344 14.336c-5.7344 2.8672-11.46880001 5.7344-20.0704 5.73440001H1999.62666668v-40.14080001h2.8672z m106.0864 94.61759999v-5.73439999c-5.7344 0-8.6016-2.8672-8.6016-2.8672-2.8672 0-2.8672-2.8672-2.8672-5.7344v-2.8672-2.8672l5.7344-14.336h43.00800001l5.73439999 14.336v5.7344c0 2.8672 0 2.8672-2.8672 5.7344-2.8672 0-5.7344 2.8672-8.6016 2.8672v5.73439999h45.8752v-5.73439999c-2.8672 0-5.7344 0-8.6016-2.8672-2.8672-2.8672-5.7344-5.7344-5.73439999-8.6016l-37.27360001-83.1488h-5.7344l-40.1408 86.016c-2.8672 2.8672-2.8672 8.6016-5.7344 8.6016-2.8672 2.8672-5.7344 2.8672-8.6016 2.86720001v5.73439999h34.4064v-2.86720001zM987.50506668 342.83520001v5.73439999c0 2.8672 0 11.46880001-2.86719999 22.93759999-5.7344 22.9376-8.6016 31.5392-14.33600001 34.40640001-2.8672 0-20.0704 5.7344-71.67999999 11.4688 0-14.33599999 0-60.2112 2.86719999-71.68000001 60.2112-5.7344 80.2816-5.7344 86.016-2.86719998z m-126.1568 8.60159999v68.81280001c-11.46880001 0-57.344 5.7344-68.8128 5.73439999 0-11.46880001-5.7344-57.344-5.7344-65.9456 8.6016 0 60.2112-8.6016 74.5472-8.6016zM1371.70986669 540.672c45.8752-8.6016 60.2112-8.6016 65.94559999-8.6016-2.8672 17.2032-2.8672 31.5392-8.6016 43.00800001-14.33599999 2.8672-34.4064 5.7344-63.0784 8.60159999 0-8.6016-5.7344-34.4064-5.7344-43.008h11.46880001z m521.83039999-189.2352c2.8672-2.8672 2.8672-2.8672 5.7344-2.8672-2.8672 11.46880001-2.8672 22.9376-5.7344 37.2736h-17.2032c-5.7344 0-14.33599999 2.8672-25.8048 8.60160001v-28.67200001c14.33599999-5.7344 40.14079999-11.46880001 43.008-14.336z m8.6016-60.21119999v5.73439999c0 5.7344 0 11.46880001-2.8672 22.93759999 0 2.8672 0 8.6016-2.8672 14.33600001-5.7344-5.7344-8.6016-8.6016-20.0704-8.6016 0 0-22.9376 8.6016-31.5392 11.4688V311.296c40.14079999-17.2032 54.4768-20.0704 57.344-20.07039999zM1712.90666668 228.1472h-8.60159999c-2.8672 2.8672-2.8672 14.33599999-2.86720001 25.8048 0 14.33599999-2.8672 22.9376-5.7344 34.4064-17.2032 57.344-45.8752 106.0864-83.1488 151.9616-8.6016 8.6016-20.0704 20.0704-8.60159999 20.0704 5.7344 0 17.2032-5.7344 25.8048-8.6016 11.46880001-5.7344 25.8048-17.2032 45.87519999-37.2736 2.8672 2.8672 5.7344 5.7344 11.4688 5.73440001h14.336c2.8672 2.8672 2.8672 8.6016 2.86720001 14.33599999v20.0704c-17.2032 5.7344-34.4064 8.6016-57.344 14.336-8.6016 2.8672-17.2032 2.8672-17.2032 8.6016 0 2.8672 2.8672 8.6016 8.60159999 14.336 5.7344 5.7344 14.33599999 11.46880001 20.0704 8.60159999 5.7344 0 20.0704-5.7344 25.8048-5.73439999 5.7344-2.8672 14.33599999-2.8672 20.07040001-5.7344v34.40640001c-2.8672 17.2032-8.6016 25.8048-14.33600001 28.67199998-5.7344 2.8672-8.6016 5.7344-11.46879999 8.60160001v5.7344c0 5.7344 5.7344 22.9376 11.46879999 34.40640001 2.8672 5.7344 5.7344 5.7344 5.7344 5.73439999 8.6016 2.8672 14.33599999-2.8672 22.9376-11.4688l17.2032-17.20320001c8.6016-8.6016 22.9376-20.0704 37.2736-34.40639999s22.9376-20.0704 25.8048-25.8048c5.7344-5.7344 8.6016-8.6016 8.60160001-11.4688 0-2.8672-11.46880001 0-63.07840001 22.9376v-51.6096c2.8672 0 5.7344-2.8672 5.73440001-2.86720001 20.0704-5.7344 40.14079999-11.46880001 43.00799999-14.33599999 2.8672 0 11.46880001 0 11.4688-5.7344 0-2.8672-2.8672-11.46880001-11.4688-17.2032-8.6016-5.7344-17.2032-8.6016-22.9376-5.7344l-5.7344 2.8672c-2.8672 0 0 0-11.4688 5.7344 0 0-5.7344 2.8672-8.6016 2.8672v-5.7344c0-2.8672 2.8672-8.6016 2.8672-11.4688 2.8672-8.6016-5.7344-11.46880001-5.7344-11.4688 14.33599999-2.8672 37.27360001-11.46880001 37.2736-11.4688 5.7344-2.8672 14.33599999-5.7344 14.336-8.60159999 2.8672-2.8672-2.8672-8.6016-8.60159999-14.33600001-5.7344-5.7344-14.33599999-11.46880001-28.672-5.7344-8.6016 2.8672-22.9376 5.7344-22.9376 5.7344-20.0704 5.7344-31.5392 11.46880001-43.00800001 14.33600001 8.6016-11.46880001 14.33599999-22.9376 22.9376-37.27360001 11.46880001 2.8672 22.9376 0 71.68000001-11.46880001 5.7344-2.8672 14.33599999-2.8672 17.2032-8.60159999 0-2.8672 0-8.6016-5.73440001-14.336s-14.33599999-11.46880001-20.07039999-8.6016c-14.33599999 2.8672-22.9376 5.7344-40.14080001 11.4688h-2.86719999c2.8672-2.8672 2.8672-5.7344 5.73439999-11.4688 11.46880001-25.8048 17.2032-34.4064 20.07040001-37.2736 2.8672-5.7344 8.6016-8.6016 8.60159999-11.46879999 0-2.8672-5.7344-11.46880001-14.336-17.20320001-20.0704-14.33599999-34.4064-20.0704-40.1408-20.0704z m192.10240001 20.0704c-2.8672 0-5.7344 2.8672-8.60160001 8.6016l-2.8672 2.8672s-11.46880001 5.7344-57.34399999 22.9376c-17.2032-5.7344-28.672-5.7344-34.4064-2.8672-5.7344 2.8672 0 17.2032 2.86719999 22.9376 2.8672 8.6016 8.6016 17.2032 8.6016 45.8752l2.8672 174.89920001c-2.8672 25.8048-2.8672 28.672-11.4688 40.14079999-8.6016 11.46880001-8.6016 11.46880001-8.6016 20.0704 2.8672 11.46880001 11.46880001 31.5392 17.2032 34.4064 8.6016 2.8672 17.2032-5.7344 22.93760001-14.33600001 5.7344-5.7344 20.0704-20.0704 34.40639999-37.27359999 25.8048-28.672 37.27360001-40.14079999 34.40640001-43.00799999 0-2.8672-11.46880001-2.8672-60.21120001 17.20319999v-94.61759999c14.33599999 14.33599999 25.8048 25.8048 34.40640001 37.27359999 17.2032 20.0704 37.27360001 40.14079999 57.344 60.2112 22.9376 22.9376 43.008 22.9376 97.4848 0 11.46880001-5.7344 22.9376-11.46880001 22.93759999-17.20320001-2.8672-2.8672-11.46880001-5.7344-25.8048-8.60159999-43.008-8.6016-80.2816-25.8048-114.688-48.7424 14.33599999-11.46880001 25.8048-20.0704 31.5392-28.672l14.33600001-14.336c5.7344-5.7344 11.46880001-2.8672 11.46879999-8.6016 0-5.7344-8.6016-17.2032-14.336-22.93759999-11.46880001-8.6016-25.8048-8.6016-28.67199999-5.73440001-5.7344 2.8672-2.8672 2.8672-2.86720001 5.73440001v11.46879999c0 2.8672-2.8672 20.0704-28.672 48.7424-5.7344-5.7344-20.0704-17.2032-31.5392-25.8048-5.7344-2.8672-8.6016-5.7344-11.4688-11.4688 5.7344 0 11.46880001-2.8672 11.4688-2.8672 11.46880001-2.8672 17.2032-2.8672 20.07040001-5.7344 2.8672 2.8672 5.7344 2.8672 8.60159999 5.7344 5.7344 2.8672 11.46880001-2.8672 14.33600001-5.7344 2.8672-2.8672 8.6016-14.33599999 11.46879999-22.9376 2.8672-14.33599999 8.6016-31.5392 11.4688-54.4768 2.8672-8.6016 2.8672-14.33599999 2.86720001-17.2032 2.8672-5.7344 5.7344-11.46880001 11.46879999-20.07040001 2.8672-8.6016 8.6016-11.46880001 8.60160001-17.20319999l-2.86720001-2.8672c-11.46880001-11.46880001-25.8048-20.0704-51.6096-22.9376l2.86720001-2.8672z m539.03359999 123.28959999c-11.46880001 2.8672-80.2816 20.0704-163.4304 34.40640001-8.6016 2.8672-20.0704 2.8672-20.0704 5.7344-2.8672 5.7344 2.8672 11.46880001 5.73440001 14.336 5.7344 2.8672 14.33599999 8.6016 28.67199999 11.4688h2.86720001c5.7344 0 11.46880001-2.8672 20.0704-2.8672 5.7344-2.8672 20.0704-5.7344 60.2112-11.46880001 5.7344 17.2032 8.6016 45.8752 8.60159999 88.88320001v11.46880001c0 40.14079999-2.8672 51.6096-2.8672 57.34399999-2.8672 0-8.6016 0-17.2032-2.86720001-20.0704-5.7344-43.008-17.2032-40.14079999-8.60159999 0 5.7344 14.33599999 17.2032 25.8048 31.53920001 8.6016 11.46880001 14.33599999 17.2032 20.07039999 28.67199998 5.7344 11.46880001 8.6016 22.9376 20.0704 17.20320001 8.6016-2.8672 22.9376-11.46880001 31.5392-25.8048 5.7344-8.6016 8.6016-17.2032 11.4688-25.8048 0-14.33599999-5.7344-37.27360001-5.73439999-54.4768-2.8672-22.9376-2.8672-40.14079999-2.8672-48.7424v-22.9376c0-8.6016 0-11.46880001 2.8672-20.07040001 2.8672-2.8672 2.8672-5.7344 2.86719999-11.46879999v-5.7344c-2.8672-5.7344-5.7344-11.46880001-11.46879999-14.336 20.0704-2.8672 43.008-2.8672 63.07839999-2.8672h34.4064c5.7344 0 22.9376 0 28.672-5.7344 5.7344-8.6016-2.8672-22.9376-17.20319999-31.5392-11.46880001-8.6016-28.672-11.46880001-48.7424-8.60159999-5.7344-5.7344-28.672 0-37.27360001 2.86719998z m-203.57119999-34.40639999c5.7344-2.8672 8.6016 0 11.46879999 0 5.7344 2.8672 20.0704 14.33599999 28.672 34.40639999 0 0 2.8672 2.8672 0 5.73440001 0 2.8672-2.8672 5.7344-8.60159999 8.6016l-20.07040001 20.0704c-8.6016 8.6016-17.2032 17.2032-20.0704 22.9376 8.6016 11.46880001 14.33599999 20.0704 14.33600001 31.5392 0 2.8672 0 11.46880001-2.86720001 17.2032v103.2192c0 22.9376-5.7344 45.8752-11.4688 48.74239999-5.7344 2.8672-11.46880001-2.8672-14.336-8.60159999-2.8672-5.7344-11.46880001-14.33599999-14.336-22.9376-2.8672-5.7344-5.7344-14.33599999-5.73439999-17.2032 0-2.8672 0-5.7344 2.86719999-8.6016 0 0 2.8672-5.7344 2.8672-11.4688 8.6016-25.8048 5.7344-51.6096 5.7344-80.2816V454.656c-25.8048 25.8048-48.7424 40.14079999-65.94559999 48.7424-20.0704 8.6016-40.14079999 11.46880001-43.00800001 11.4688-5.7344-2.8672 2.8672-8.6016 20.07040001-22.9376 31.5392-22.9376 57.344-51.6096 83.14879999-83.1488 25.8048-34.4064 28.672-54.4768 28.672-54.4768 0-8.6016 2.8672-14.33599999 8.60160001-17.2032z m177.76639999-60.2112c-5.7344 0-11.46880001 2.8672-22.93759999 8.6016-11.46880001 5.7344-28.672 11.46880001-57.34400001 17.2032-11.46880001 2.8672-22.9376 2.8672-22.9376 8.6016 0 5.7344 2.8672 8.6016 8.60160001 14.336 5.7344 2.8672 20.0704 11.46880001 45.8752 5.7344 20.0704-2.8672 88.88320001-20.0704 97.48479999-25.8048l5.73440001-5.7344c0-5.7344-11.46880001-14.33599999-14.33600001-17.2032-14.33599999-11.46880001-34.4064-8.6016-40.1408-5.7344z m-169.16479999-45.8752c8.6016 2.8672 25.8048 11.46880001 40.14079999 31.5392 0 0 2.8672 2.8672 0 5.73439999 0 2.8672-2.8672 5.7344-14.33599999 14.33600001s-20.0704 17.2032-28.672 25.8048c-34.4064 31.5392-57.344 48.7424-68.81280001 54.4768-17.2032 8.6016-31.5392 8.6016-34.40639999 5.73440001-2.8672-2.8672 11.46880001-17.2032 22.93759999-25.8048 8.6016-8.6016 37.27360001-37.27360001 60.2112-65.94560001 11.46880001-17.2032 11.46880001-20.0704 11.4688-25.8048 0-8.6016 0-17.2032 2.86720001-17.2032 2.8672-2.8672 5.7344-2.8672 8.6016-2.8672z m-820.01920001 266.64960001s-43.008 14.33599999-83.14879999 17.20319999c0 0-2.8672 0-8.6016-2.8672-17.2032-2.8672-25.8048-2.8672-28.67200001 0-5.7344 5.7344-2.8672 8.6016 0 11.46880001l2.86720001 8.60159999c0 2.8672 5.7344 11.46880001 17.20319999 68.81280001 2.8672 14.33599999 8.6016 22.9376 14.33600001 28.67199998l2.8672 2.86720001c2.8672 0 5.7344 0 8.60159999-2.86720001 2.8672-2.8672 2.8672-5.7344 8.60160001-14.33599999 34.4064-2.8672 60.2112-5.7344 74.54719999-5.7344 31.5392-2.8672 37.27360001-2.8672 37.27360001-8.60159999 0-2.8672-2.8672-11.46880001-8.6016-20.07040001 14.33599999-20.0704 11.46880001-20.0704 17.20319999-25.8048 5.7344-5.7344 14.33599999-11.46880001 14.33600001-20.0704 0-5.7344-17.2032-25.8048-51.6096-37.27359999h-2.86720001c0-5.7344-2.8672-5.7344-14.336 0z m-2.8672-60.21120001c-2.8672 0-5.7344 0-51.6096 11.46879999-25.8048 5.7344-31.5392 5.7344-31.53919999 5.73440001-14.33599999 2.8672-22.9376 0-22.9376 8.6016v5.7344l8.60159999 8.6016c8.6016 5.7344 14.33599999 5.7344 28.672 5.7344 40.14079999-2.8672 68.8128-8.6016 88.88320001-11.46879999h5.73439999c8.6016-2.8672 14.33599999 0 14.33600001-8.60160001 0-5.7344-5.7344-11.46880001-8.60160001-17.20319999-5.7344-5.7344-14.33599999-11.46880001-31.5392-8.60160001z m11.4688-60.2112c-8.6016 0-25.8048 2.8672-48.74239999 8.6016-22.9376 5.7344-43.008 8.6016-54.47680001 8.60160001-5.7344 0-14.33599999 2.8672-17.20319999 5.73439999-2.8672 2.8672 0 8.6016 5.73439999 14.336 0 0 11.46880001 11.46880001 34.4064 8.60159999 0 0 34.4064-2.8672 80.2816-11.46879999l17.2032-2.8672c8.6016-2.8672 20.0704 0 22.9376-5.7344 2.8672-2.8672 0-11.46880001-8.6016-17.2032-5.7344-2.8672-17.2032-8.6016-31.5392-8.6016z m22.9376-63.0784c-14.33599999 2.8672-94.6176 17.2032-177.7664 25.8048-8.6016 0-17.2032 2.8672-17.20319999 2.86720001-2.8672 2.8672-8.6016 5.7344 0 11.46879999 0 0 20.0704 17.2032 34.40639999 20.0704h2.8672c11.46880001 0 17.2032-2.8672 25.8048-5.73439999 8.6016-2.8672 25.8048-5.7344 25.8048-5.73440001 51.6096-11.46880001 74.5472-17.2032 151.9616-14.336 0 0 17.2032 2.8672 22.9376 2.8672 5.7344 0 17.2032 0 20.07040001-5.73440001 2.8672-5.7344-2.8672-14.33599999-8.60160001-20.07039999-5.7344-5.7344-28.672-20.0704-51.6096-17.2032-14.33599999 0-14.33599999 0-28.672 5.7344z m-229.376-68.8128c0-8.6016 8.6016-5.7344 8.60160001-5.73439999 25.8048 5.7344 43.008 17.2032 48.74239999 40.14079999v2.8672c0 2.8672 0 2.8672-8.6016 14.336-5.7344 8.6016-14.33599999 20.0704-20.07039999 28.672-5.7344 5.7344-11.46880001 17.2032-20.0704 31.5392 11.46880001 11.46880001 17.2032 22.9376 17.20319999 31.5392v11.4688c0 2.8672-2.8672 34.4064-2.8672 174.89920001-2.8672 22.9376-5.7344 31.5392-11.46879999 40.14079999 0 0-5.7344 11.46880001-11.46880001 8.6016-5.7344-2.8672-22.9376-22.9376-25.8048-48.74239999V569.344c5.7344-25.8048 11.46880001-51.6096 11.46880001-77.4144 0-8.6016 0-17.2032 2.86719999-25.8048v-8.6016-22.9376c0-14.33599999-2.8672-28.672-2.86719999-40.14079999-25.8048 31.5392-45.8752 48.7424-63.07840001 60.21119999-22.9376 14.33599999-40.14079999 17.2032-43.00799999 17.20320001-2.8672-2.8672 2.8672-5.7344 5.73439999-11.46880001 5.7344-5.7344 8.6016-5.7344 20.07040001-20.0704 22.9376-28.672 48.7424-65.94559999 65.94559999-91.7504 17.2032-28.672 28.672-68.8128 31.53920001-74.5472v-11.4688c0-11.46880001-2.8672-14.33599999-2.86720001-17.2032z m126.1568 0c8.6016-2.8672 17.2032-5.7344 34.4064-2.86720001 14.33599999 2.8672 22.9376 5.7344 31.53920001 8.60160001 8.6016 8.6016 14.33599999 17.2032 14.33599999 28.672 0 20.0704-8.6016 25.8048-14.33599999 25.8048h-5.73440001c-25.8048-14.33599999-43.008-28.672-63.0784-51.6096-2.8672-2.8672-5.7344-8.6016 2.8672-8.6016zM861.34826668 210.944c-17.2032 0-17.2032 2.8672-17.2032 5.73439999s2.8672 8.6016 5.7344 17.20320001c2.8672 5.7344 5.7344 11.46880001 8.6016 48.7424v37.27359999c-11.46880001 0-83.1488 8.6016-86.016 8.60160001-31.5392-11.46880001-51.6096-8.6016-54.47679999 0 0 2.8672 0 8.6016 2.86719999 14.33600001 0 0 17.2032 31.5392 25.8048 88.88319999 5.7344 31.5392 14.33599999 40.14079999 14.336 43.00799999 2.8672 2.8672 5.7344 5.7344 14.33600001 2.86720001 2.8672-2.8672 8.6016-8.6016 14.33599999-22.9376 8.6016 0 54.4768-5.7344 65.94560001-5.73440001-2.8672 126.1568 5.7344 174.8992 8.60159999 183.50080001 2.8672 11.46880001 5.7344 20.0704 11.4688 14.336 5.7344-5.7344 11.46880001-14.33599999 17.2032-54.4768 2.8672-17.2032 2.8672-37.27360001 5.73440001-68.81279999v-43.00800001-37.2736c40.14079999-2.8672 74.5472-2.8672 88.88319999-2.8672 17.2032 0 34.4064 2.8672 37.2736 0 5.7344-2.8672 2.8672-11.46880001 0-17.20320001-2.8672-2.8672-5.7344-8.6016-8.6016-17.20319999 22.9376-37.27360001 34.4064-45.8752 37.27360001-51.6096l5.7344-5.7344c5.7344-5.7344 8.6016-8.6016 8.60159999-11.4688 0-2.8672-2.8672-8.6016-2.8672-8.6016-11.46880001-14.33599999-28.672-25.8048-57.34399999-37.27359999h-2.86720001c-2.8672 0-11.46880001 2.8672-11.4688 2.86719998-2.8672 2.8672-25.8048 5.7344-91.7504 14.33600001 2.8672-51.6096 5.7344-57.344 8.6016-60.2112 0 0 0-2.8672 2.8672-5.73440001s2.8672-5.7344 2.8672-5.73439999c0-2.8672 0-5.7344-2.8672-5.7344-17.2032-14.33599999-37.27360001-17.2032-51.6096-20.0704z m1488.07680001 550.5024l37.27359999-34.4064 5.7344-5.7344 2.86720001-2.8672c0-2.8672 0-2.8672-2.86720001-2.8672s-5.7344-2.8672-8.6016-2.8672v-5.73440001h43.00800001v5.73440001c-2.8672 0-5.7344 2.8672-8.60160001 2.8672-2.8672 2.8672-5.7344 2.8672-8.6016 5.7344l-28.672 25.8048 28.672 43.008c2.8672 5.7344 8.6016 8.6016 8.6016 11.4688 2.8672 2.8672 5.7344 2.8672 11.46880001 2.8672v5.73439999h-45.87520001v-5.73439999h8.6016c2.8672 0 2.8672-2.8672 2.86720001-2.8672V798.72s-2.8672-2.8672-2.86720001-5.7344l-22.93759999-31.5392-17.2032 14.336v20.0704c0 2.8672 0 5.7344 2.86719999 8.6016 2.8672 2.8672 5.7344 2.8672 8.6016 2.86720001v5.73439999h-40.14079999v-5.73439999c5.7344 0 8.6016 0 8.60159999-2.86720001 2.8672-2.8672 2.8672-5.7344 2.8672-8.6016v-68.8128c0-2.8672 0-5.7344-2.8672-8.6016-2.8672-5.7344-5.7344-5.7344-11.4688-5.7344v-5.73440001h40.1408v5.73440001c-5.7344 0-8.6016 0-8.60159999 2.8672-2.8672 2.8672-2.8672 5.7344-2.8672 8.6016v37.2736z m-131.89120001 31.5392c0 2.8672 0 8.6016 2.86720001 8.6016 2.8672 2.8672 5.7344 2.8672 8.60159999 2.8672v5.73439999h-34.40639999v-5.73439999c2.8672 0 8.6016 0 8.60159999-2.8672 2.8672-2.8672 2.8672-5.7344 2.8672-8.6016v-74.5472c0-2.8672-2.8672-2.8672-5.7344-2.8672 0-2.8672-2.8672-2.8672-5.73439999-2.8672v-5.73440001h28.672l60.21119999 74.54720002v-57.34400001c0-2.8672 0-8.6016-2.8672-8.6016-2.8672-2.8672-5.7344-2.8672-11.4688-2.8672v-5.73440001h34.4064v5.73440001c-5.7344 0-8.6016 0-8.6016 2.8672-2.8672 2.8672-2.8672 5.7344-2.86719999 8.6016v86.01599999H2286.34666668l-68.8128-86.01599999v68.8128z m-91.7504-65.9456l17.20320001 40.1408h-34.40640001l17.2032-40.1408z m-106.0864 34.4064c8.6016 0 14.33599999 2.8672 17.2032 5.7344 5.7344 2.8672 5.7344 8.6016 5.73440001 14.33600001s-2.8672 11.46880001-8.6016 14.33599999c-5.7344 2.8672-11.46880001 5.7344-22.93760001 5.7344-5.7344 0-8.6016 0-11.4688-2.8672-2.8672 0-2.8672-5.7344-2.8672-8.6016v-31.53920001h22.9376v2.86720001z m-137.6256 22.93759999l5.73440001 2.86720001c-5.7344 8.6016-11.46880001 14.33599999-17.20320001 20.07040001-5.7344 2.8672-14.33599999 5.7344-25.8048 5.73439999-5.7344 0-14.33599999 0-20.0704-2.86720001-5.7344-2.8672-11.46880001-5.7344-14.33599999-8.60159999-5.7344-5.7344-11.46880001-11.46880001-14.33600001-17.20320001-2.8672-5.7344-5.7344-14.33599999-5.7344-22.93759999 0-5.7344 0-14.33599999 2.8672-20.0704l8.60160001-17.2032c5.7344-5.7344 11.46880001-11.46880001 17.20319999-14.336 5.7344-2.8672 14.33599999-5.7344 22.9376-5.73439999 5.7344 0 11.46880001 0 17.20320001 2.86719998 5.7344 2.8672 8.6016 2.8672 8.60159999 2.86720001h2.8672l2.8672-2.86720001h11.46880001v31.53920001h-5.7344c-2.8672-8.6016-5.7344-14.33599999-11.46880001-20.0704-5.7344-5.7344-11.46880001-5.7344-20.0704-5.7344-11.46880001 0-20.0704 2.8672-25.8048 11.4688-5.7344 8.6016-8.6016 20.0704-8.6016 34.40639999s2.8672 22.9376 11.4688 31.53920001c5.7344 8.6016 17.2032 11.46880001 28.67200001 11.4688 5.7344 0 11.46880001-2.8672 17.20319999-5.7344 2.8672 0 8.6016-5.7344 11.4688-11.46880001z m-120.4224 8.60160001c0 2.8672 0 5.7344 2.8672 8.6016 2.8672 2.8672 5.7344 2.8672 11.46880001 2.8672v5.73439999h-43.008v-5.73439999c5.7344 0 8.6016 0 11.46879999-2.8672 2.8672-2.8672 2.8672-5.7344 2.8672-8.6016v-68.8128c0-2.8672 0-5.7344-2.8672-8.6016-2.8672-2.8672-5.7344-2.8672-11.46879999-2.8672v-5.73440001h43.008v5.73440001c-5.7344 0-8.6016 0-11.46880001 2.8672-2.8672 2.8672-2.8672 5.7344-2.8672 8.6016v68.8128z m-43.008-86.01600001l2.8672 25.8048H1712.90666668c0-5.7344-2.8672-11.46880001-5.73439999-14.33599999-2.8672-2.8672-8.6016-2.8672-17.20320001-2.8672h-11.46879999v77.4144c0 2.8672 0 5.7344 2.8672 8.6016 2.8672 2.8672 5.7344 2.8672 11.46879999 2.8672v5.73439999h-43.008v-5.73439999c5.7344 0 8.6016 0 11.4688-2.8672 2.8672-2.8672 2.8672-5.7344 2.8672-8.6016v-77.4144H1655.56266669c-8.6016 0-11.46880001 0-14.33600001 2.8672-2.8672 2.8672-5.7344 8.6016-5.7344 14.33599999H1626.89066669v-25.8048h91.75039999z m-117.55519999 86.01600001c0 2.8672 0 5.7344 2.8672 8.6016 2.8672 2.8672 5.7344 2.8672 11.46879999 2.8672v5.73439999H1569.54666669v-5.73439999c5.7344 0 8.6016 0 11.46879999-2.8672 2.8672-2.8672 2.8672-5.7344 2.8672-8.6016v-68.8128c0-2.8672 0-5.7344-2.8672-8.6016-2.8672-2.8672-5.7344-2.8672-11.46879999-2.8672v-5.73440001h43.00799999v5.73440001c-5.7344 0-8.6016 0-11.46879999 2.8672-2.8672 2.8672-2.8672 5.7344-2.86720001 8.6016v68.8128h2.86720001z m-51.6096-8.60160001l5.73439999 2.86720001c-5.7344 8.6016-11.46880001 14.33599999-17.2032 20.07040001-5.7344 2.8672-14.33599999 5.7344-25.8048 5.73439999-5.7344 0-14.33599999 0-20.07039999-2.86720001-5.7344-2.8672-11.46880001-5.7344-14.33600001-8.60159999-5.7344-5.7344-11.46880001-11.46880001-14.336-17.20320001-2.8672-5.7344-5.7344-14.33599999-5.7344-22.93759999 0-5.7344 0-14.33599999 2.8672-20.0704l8.6016-17.2032c5.7344-5.7344 11.46880001-11.46880001 17.2032-14.336 5.7344-2.8672 14.33599999-5.7344 22.9376-5.73439999 5.7344 0 11.46880001 0 17.20320001 2.86719998 5.7344 2.8672 8.6016 2.8672 8.60159999 2.86720001h2.8672l2.8672-2.86720001h5.7344v31.53920001H1540.87466668c-2.8672-8.6016-5.7344-14.33599999-11.4688-20.0704 0-5.7344-8.6016-5.7344-14.336-5.7344-11.46880001 0-20.0704 2.8672-25.8048 11.4688-5.7344 8.6016-11.46880001 20.0704-11.4688 34.40639999s2.8672 22.9376 11.4688 31.53920001c5.7344 8.6016 17.2032 11.46880001 28.67200001 11.4688 5.7344 0 11.46880001-2.8672 17.20319999-5.7344 2.8672 0 8.6016-5.7344 14.33600001-11.46880001z m-240.84480001-57.34399999l17.2032 40.1408h-34.40639999l17.20319999-40.1408z m-149.0944 65.9456c0 2.8672 0 8.6016 2.86720001 8.6016 2.8672 2.8672 5.7344 2.8672 8.60159999 2.8672v5.73439999h-34.40639999v-5.73439999c2.8672 0 8.6016 0 8.60159999-2.8672 2.8672-2.8672 2.8672-5.7344 2.8672-8.6016v-74.5472c0-2.8672-2.8672-2.8672-5.7344-2.8672 0-2.8672-2.8672-2.8672-5.73439999-2.8672v-5.73440001h28.672l60.21119999 74.54720002v-57.34400001c0-2.8672 0-8.6016-2.8672-8.6016-2.8672-2.8672-5.7344-2.8672-11.4688-2.8672v-5.73440001h34.4064v5.73440001c-5.7344 0-8.6016 0-8.6016 2.8672-2.8672 2.8672-2.8672 5.7344-2.86719999 8.6016v86.01599999h-5.73440001l-68.8128-86.01599999v68.8128z m-54.47679999 0c0 2.8672 0 5.7344 2.86719999 8.6016 2.8672 2.8672 5.7344 2.8672 11.4688 2.8672v5.73439999h-43.008v-5.73439999c5.7344 0 8.6016 0 11.46880001-2.8672 2.8672-2.8672 2.8672-5.7344 2.86719999-8.6016v-68.8128c0-2.8672 0-5.7344-2.86719999-8.6016-2.8672-2.8672-5.7344-2.8672-11.46880001-2.8672v-5.73440001h43.008v5.73440001c-5.7344 0-8.6016 0-11.4688 2.8672-2.8672 2.8672-2.8672 5.7344-2.86719999 8.6016v68.8128z m-74.54720001-40.1408v-28.672c0-2.8672 0-5.7344-2.86719999-8.6016 0-2.8672-5.7344-2.8672-8.60160001-2.8672v-5.73440001h43.00800001v5.73440001c-5.7344 0-8.6016 0-8.6016 2.8672-2.8672 2.8672-2.8672 5.7344-2.86720001 8.6016v68.8128c0 2.8672 0 5.7344 2.86720001 8.6016 2.8672 2.8672 5.7344 2.8672 8.6016 2.8672v5.73439999h-43.00800001v-5.73439999c5.7344 0 8.6016 0 11.4688-2.8672 2.8672-2.8672 2.8672-5.7344 2.86720001-8.6016v-31.5392h-51.6096v31.5392c0 2.8672 0 5.7344 2.8672 8.6016 2.8672 2.8672 5.7344 2.8672 11.46879999 2.8672v5.73439999h-43.008v-5.73439999c5.7344 0 8.6016 0 8.6016-2.8672 2.8672-2.8672 2.8672-5.7344 2.8672-8.6016v-68.8128c0-2.8672 0-5.7344-2.8672-8.6016-2.8672-2.8672-5.7344-2.8672-8.6016-2.8672v-5.73440001H996.10666668v5.73440001c-5.7344 0-8.6016 0-11.46879999 2.8672-2.8672 2.8672-2.8672 5.7344-2.8672 8.6016v28.672h48.74239999z m-100.35199999 31.53919999l5.73439999 2.86720001c-5.7344 8.6016-11.46880001 14.33599999-17.2032 20.07040001-5.7344 2.8672-14.33599999 5.7344-25.8048 5.73439999-5.7344 0-14.33599999 0-20.07039999-2.86720001-5.7344-2.8672-11.46880001-5.7344-14.33600001-8.60159999-5.7344-5.7344-11.46880001-11.46880001-14.336-17.20320001-2.8672-5.7344-5.7344-14.33599999-5.7344-22.93759999 0-5.7344 0-14.33599999 2.8672-20.0704l8.6016-17.2032c5.7344-5.7344 11.46880001-11.46880001 17.2032-14.336 5.7344-2.8672 14.33599999-5.7344 22.9376-5.73439999 5.7344 0 11.46880001 0 17.20320001 2.86719998 5.7344 2.8672 8.6016 2.8672 8.60159999 2.86720001h2.8672l2.8672-2.86720001h5.7344v31.53920001h-5.7344c-2.8672-8.6016-5.7344-14.33599999-11.4688-20.0704 0-5.7344-8.6016-5.7344-14.336-5.7344-11.46880001 0-20.0704 2.8672-25.8048 11.4688-5.7344 8.6016-8.6016 20.0704-8.6016 34.40639999s2.8672 22.9376 11.46880001 31.53920001c5.7344 8.6016 17.2032 11.46880001 28.67199999 11.4688 5.7344 0 11.46880001-2.8672 17.2032-5.7344l11.46880001-11.46880001z" fill="#004898" p-id="18542"></path></svg>