<?xml version="1.0" standalone="no"?><!DOCTYPE svg PUBLIC "-//W3C//DTD SVG 1.1//EN" "http://www.w3.org/Graphics/SVG/1.1/DTD/svg11.dtd"><svg t="1547620240401" class="icon" style="" viewBox="0 0 1024 1024" version="1.1" xmlns="http://www.w3.org/2000/svg" p-id="3480" xmlns:xlink="http://www.w3.org/1999/xlink" width="200" height="200"><defs><style type="text/css"></style></defs><path d="M571.88995042 892.83221675v-133.66833746c0-17.47052033-8.54673012-45.24739209 13.76274843-46.62995177 27.27412196-1.75962129 55.0509937 3.39355441 81.88521145-3.95914682 56.49639601-15.52236973 81.44530576-66.23715503 81.44530577-120.97392975V457.32606789c0-33.55848246 3.26786769-67.24265164-15.14530811-97.281893-29.22227406-47.38407499-76.29213006-54.9881496-127.06975946-54.98814961-6.78710881 0-27.39981014 3.39355441-32.49014029-0.87981139-5.84445481-5.21601831-2.38805631-20.04710893-2.38805779-26.77137362v-153.96681983c186.45696158 29.78786646 326.22112873 199.27705599 326.22112874 387.05373316 0 187.90236389-140.64397709 352.74112751-326.22112874 382.40330725z m-174.64236375-289.70899608c-18.47601845 0-11.06047312-42.73364759-11.06047461-54.35971461V447.45962218c0-8.79810353-3.20502362-23.12644435 1.885308-30.66767636 8.16966849-11.81459632 50.9661602-4.90180081 64.35184703-4.90180083h126.50416704c12.88293852 0 56.55924012-7.54123202 59.95279452 8.86094762 4.27336431 19.85857813 0.18853081 45.24739209 0.18853081 65.60871853v87.79250889c0 15.08246403 2.5137445 28.90805655-16.33933556 28.90805655h-225.48283723z m-274.68937614-92.69431117c0-187.7138331 139.70132307-357.32871081 326.22112725-386.99088906v134.29677395c0 12.19165794 4.39905249 32.80435926-0.94265399 43.9905191-4.33620841 8.60957271-45.87582859 3.26786769-55.42805532 3.26786769-53.66843402 0-105.45156149 31.73601856-118.46018526 86.59848147-5.65592402 24.00625573-2.2623696 51.84597011-2.26236959 76.48066086 0 44.36758218-1.44540231 89.04938187 0 133.47980667 0 39.08871978 21.30398045 76.04075664 54.92530553 95.83649067 24.00625573 14.07696593 49.52075641 15.08246403 76.41781823 15.08246404 12.63156362 0 41.03687039-6.2843605 45.7501404 8.04398033 3.58208519 10.93478642 0 31.42179956 0 43.04786656v129.20644087c-185.57715166-29.53649156-326.22112873-194.43809927-326.22112725-382.34046315zM510.30322279 9.2511995c-260.86378363 0-483.77003376 208.89212682-500.1093693 469.44169294-16.27649293 260.54956612 177.97307556 496.46444147 437.32861278 528.95458174 259.04131971 32.42729765 506.8336355-146.86549349 555.28605119-403.7701303 23.62919413-125.37298226-0.18853081-260.80094101-68.75089951-368.70340293-66.61421661-104.69743831-172.94558803-179.48132197-292.9140197-209.83478079A533.60500916 533.60500916 0 0 0 510.36606689 9.2511995z" fill="#9A1F24" p-id="3481"></path></svg>