<?xml version="1.0" standalone="no"?><!DOCTYPE svg PUBLIC "-//W3C//DTD SVG 1.1//EN" "http://www.w3.org/Graphics/SVG/1.1/DTD/svg11.dtd"><svg t="1547620244188" class="icon" style="" viewBox="0 0 1024 1024" version="1.1" xmlns="http://www.w3.org/2000/svg" p-id="3610" xmlns:xlink="http://www.w3.org/1999/xlink" width="200" height="200"><defs><style type="text/css"></style></defs><path d="M485.73137465 12.70759653l-27.96540107 3.26786769-13.1343134 1.63393312-14.76824507 1.57109049-26.33146942 4.9018008-26.26862387 6.53573392-13.1343134 4.8389582-13.19715603 3.26786623-24.63469076 9.74075899-24.57184814 9.80360161-4.96464343 3.20502362-4.90180081 4.90180082-1.63393458 3.26786621-1.6967772 3.26786769-1.63393311 6.47289132v9.74075752l1.63393311 3.2678677 3.33071178 3.26786622 3.26786624 3.2678677 3.26786769 1.6339331 9.86644571 4.8389582 11.50037881 6.53573393 14.76824506 8.16966851 8.23251259 4.83895672 9.86644423 6.4728913 8.16966853 6.53573392 9.92928833 8.10682442 8.16966849 9.80360161 9.86644571 9.74075753 6.59857801 9.74075899 6.59857802 8.16966705 6.53573393 9.740759 4.90180081 9.74075754 8.1696685 17.91042603 6.59857801 16.21364883 5.02748753 14.64255833 3.26786769 14.64255981 1.6339331 11.37469063v728.67154346l18.03611276 1.57109049 19.73289142 3.26786769H551.46578137l18.03611275-1.63393457 18.03611274-3.20502361V282.62086004l1.69677719-9.74075901 3.2678677-13.00862521 4.90180083-16.33933555 4.96464488-17.84758196 9.86644423-19.48151651 11.43753622-19.48151654 6.59857802-9.80360162 8.23251112-9.74075752 9.86644571-9.74075752 9.80360161-11.43753622 9.92928834-8.16966703 8.16966851-6.4728913 16.46502224-11.31184802 14.76824653-8.1696685 13.19715602-6.53573392 9.80360162-4.83895673 3.33071033-1.63393459 3.26786768-3.26786622 1.63393312-3.2678677 1.63393457-3.26786768 1.63393313-4.83895674v-4.90180081l-1.63393313-3.26786769v-3.20502362l-3.26786769-4.90180081-4.96464489-4.83895672-4.90180081-3.33071029-24.63469076-11.31184804-24.69753486-9.80360161-26.26862534-8.16966852-26.26862387-6.4728913-27.96540253-4.90180082-26.26862535-3.20502359-14.76824505-1.63393312-14.83109062-1.6339331h-55.80511691z m297.37591629 922.16698871l23.00075764-14.64255834 23.00075766-17.91042603 21.36682452-16.27649293 19.67004586-19.48151654 19.73289142-19.48151504 8.23251112-11.43753621 9.86644571-9.74075753 16.40217964-22.81222682 14.76824506-22.74938279 14.83109061-22.74938421 13.13431192-24.38331587 11.50037883-26.01725044 9.80360161-26.08009455 9.86644571-25.95440637 3.33071033-14.70540243 3.2678677-12.94578262 6.59857799-27.65118354 3.26786623-29.28511815v-3.26786623l-3.26786623-3.2678677-3.2678677-4.9018008-5.02748751-4.83895672-6.47289131-3.2678677-6.59857803-4.90180082-6.59857798-1.57109048-6.59857802-1.63393313h-8.1696685l-8.23251113 1.63393313-6.53573391 1.57109048-6.59857804 3.2678677-6.598578 3.26786622-4.90180081 3.26786771-4.96464489 4.90180081-4.90180082 3.2050236-6.59857801 9.80360164-6.53573394 8.16966848-4.9018008 11.31184803-3.33071178 4.90180081-3.26786622 1.63393312-1.6339346 1.63393311h-4.96464342l-3.2678677-1.63393311-3.33071031-1.63393312-6.53573539-8.1696685-8.16966704-9.74075755-3.33071179-4.9018008-1.63393312-6.47289129-4.90180081-11.37469213-4.9646449-11.43753473-3.26786622-11.31184801-1.63393458-9.80360162v-9.74075754l1.63393458-16.33933702v-6.47288981l1.63393312-8.10682442 4.9018008-11.37469212 3.33071033-11.37469212 9.86644569-16.33933554 6.53573394-9.74075752 3.26786769-6.47289131 4.9646449-3.20502361 3.26786622-1.63393312h6.59857801l3.2678677 1.63393312 1.63393312 3.20502361 1.69677719 1.63393312 4.9018008 9.740759 3.26786771 8.16966704 6.59857801 8.10682441 3.26786771 3.2678677 4.96464343 4.83895672 8.1696685 6.5357354 6.59857801 3.26786622 6.59857802 3.2678677 6.53573392 1.63393312 6.53573538 1.57109049 8.23251112 1.63393311h6.59857804l6.53573391-1.63393311 4.96464488-1.57109049 4.90180083-1.63393312 3.2678677-3.2678677 6.59857803-4.90180082 4.9018008-6.47288983 3.33071031-4.90180081 1.63393311-4.90180081-1.63393311-14.5797157-1.63393312-14.64255837-6.59857799-27.65118503-6.59857803-27.65118356-9.86644571-26.08009454-9.80360161-25.95440635-11.50037883-26.01725045-13.19715605-24.44615997-14.76824648-22.74938421-14.76824506-22.74938276-8.16966851-11.43753474-9.86644572-11.31184802-16.46502224-21.17829373-19.73289142-19.48151653-19.67004586-17.91042605-21.36682452-17.91042603-23.00075766-16.33933552-23.00075764-16.21364885V934.93742931zM219.58872863 107.0358408l-26.33146797 17.91042604-23.00075765 21.11544964-21.36682452 21.17829373-21.36682455 22.74938275-19.67004587 24.38331733-18.09895682 26.01725046-16.40217961 26.01725045-6.59857803 14.64255835-8.16966851 13.00862522-11.56322291 29.28511815-6.53573393 14.64255832-4.96464489 14.64255834-9.80360162 30.91905128-6.59857803 30.91905125-3.26786622 16.21364884-1.69677719 16.27649292-3.2678677 16.27649292v16.27649147L9.2511995 495.78635116V512l1.63393311 32.55298438 3.2678677 32.49014175 4.96464341 32.55298437 3.2678677 16.27649292 3.33071033 14.57971572 4.9018008 16.33933555 4.90180082 14.57971573 4.96464489 14.64255834 6.53573393 14.64255832 11.56322291 29.28511815 8.16966851 13.00862522 6.59857803 14.64255835 16.33933552 26.01725045 9.92928833 13.00862523 8.16966851 13.00862523 9.86644572 11.37469209 9.86644422 13.00862524 21.36682455 22.74938275 9.86644569 11.37469212 11.50037883 9.80360161 11.50037881 11.37469212 11.50037884 9.80360162 13.19715602 9.74075752 13.13431195 8.10682442 24.63469075 17.91042604v-367.63506073l-4.96464343-6.41004721-8.16966852-8.16966852-4.9646449-3.26786622-6.5357339-3.2678677-6.59857802-1.57109048-6.59857801-1.63393313h-8.16966851l-6.59857802 1.63393313-8.23251113 1.57109048-6.53573392 3.2678677-4.90180081 3.26786622-5.02748899 3.26786771-4.9018008 4.90180081-4.90180081 3.2050236-8.16966703 9.80360164-4.96464492 8.16966848-4.96464488 11.31184803-4.90180082 4.90180081-1.63393311 1.63393312-1.63393311 1.63393311h-4.9646449l-3.26786771-1.63393311-3.26786622-1.63393312-8.23251258-8.1696685-6.53573394-9.74075755-3.33071031-4.9018008-3.2678677-6.47289129-4.90180082-11.37469213-3.33071031-11.43753473-3.26786769-11.31184801-1.63393313-9.80360162v-9.74075754l1.63393313-16.33933702v-6.47288981l1.63393311-8.10682442 3.26786769-11.37469212 4.96464491-11.37469212 8.16966703-16.33933554 6.59857803-9.74075752 4.9018008-6.47289131 4.9646449-3.20502361 3.2678677-1.63393312h6.59857801l1.63393311 1.63393312 3.26786769 3.20502361 1.63393312 1.63393312 5.02748752 9.740759 3.20502361 8.16966704 6.5357354 8.10682441 3.33071031 3.2678677 3.26786768 4.83895672 9.86644425 6.5357354 6.59857801 3.26786622 4.90180081 3.2678677 8.1696685 1.63393312 6.59857801 1.57109049 6.59857803 1.63393311h9.8664457l4.90180081-1.63393311 4.96464344-1.57109049 3.2678677-1.63393312 6.53573391-3.2678677 4.9646449-4.90180082 4.90180081-4.9018008 1.6967772-4.83895672 1.63393312-4.90180082V89.12541476l-24.63469075 17.91042604z m515.8831139 34.12407487l-6.59857802 3.26786769-8.1696685 3.26786621-8.29535522 4.90180084-16.40217963 11.31184801-8.16966851 8.1696685-9.92928833 8.16966853-8.1696685 9.74075751-8.23251114 9.74075754-6.598578 11.3746921-8.1696685 13.00862523-4.96464343 13.00862523-4.90180081 14.64255833-4.90180082 16.27649292-1.69677719 17.91042605v712.33220789l27.90255844-6.53573538 29.59933567-9.74075755 27.96540107-11.3746921 26.26862535-13.00862524V137.95489206l-6.53573393 3.20502361zM286.89422436 957.62396798l13.19715601 6.53573541 13.13431194 6.47288983 13.07146932 4.90180081 13.19715603 6.47289129 27.90255846 8.16966851 29.53649157 8.16966707V277.71905923l-3.20502362-17.84758341-4.96464343-14.64255835-4.96464492-14.64255834-4.90180079-13.00862521-8.16966849-11.37469212-6.59857802-9.74075752-8.16966703-9.80360165-8.23251261-9.74075899-8.23251112-8.16966702-8.16966851-6.4728913-8.29535521-4.83895672-8.16966705-6.53573541-16.46502371-8.16966702-11.50037882-4.8389582V957.56112538z" fill="#E50113" p-id="3611"></path></svg>