<?xml version="1.0" standalone="no"?><!DOCTYPE svg PUBLIC "-//W3C//DTD SVG 1.1//EN" "http://www.w3.org/Graphics/SVG/1.1/DTD/svg11.dtd"><svg t="1547620013775" class="icon" style="" viewBox="0 0 1024 1024" version="1.1" xmlns="http://www.w3.org/2000/svg" p-id="3120" xmlns:xlink="http://www.w3.org/1999/xlink" width="200" height="200"><defs><style type="text/css"></style></defs><path d="M511.74950734 3.24939472c-279.04883027 0-507.37289562 228.32406534-507.37289562 507.37289562S232.70067706 1017.99518595 511.74950734 1017.99518595s507.37289562-228.32406534 507.37289561-507.37289561-228.32406534-507.37289562-507.37289561-507.37289562z" fill="#D81E06" p-id="3121"></path><path d="M467.7880444 227.44033107c1.00197066-3.63214365 4.00788267-7.26428732 9.01773599-10.520692 2.12918767-1.62820233 5.38559233-2.50492665 10.01970666-3.00591198 4.50886799-0.50098533 9.51872131-0.50098533 14.52857463 0 5.13509966 0.50098533 10.14495299 1.37770966 15.15480631 2.75541932 4.88460698 1.37770966 9.01773598 3.50689733 12.27414065 6.13707034 8.76724333 7.01379465 23.42106431 15.78103798 43.96146294 26.55222263 2.50492665 1.25246333 4.00788267 2.63017299 4.75936066 4.38362165 0.751478 1.75344867 0.87672434 3.381651 0.12524633 4.75936067-0.50098533 1.62820233-1.75344867 2.75541933-3.50689733 3.88263633-1.75344867 1.00197066-3.63214365 1.62820233-6.13707031 1.62820232-11.27216999 0.87672434-22.54433996 0.87672434-33.69126363-0.12524634-11.27216999-1.00197066-21.41712298-2.75541933-30.56010528-5.13509965-9.14298233-2.25443399-16.65776232-4.88460698-22.79483265-7.890519-6.13707032-3.00591199-9.64396765-6.26231666-10.89643098-9.64396764-2.50492665-5.51083865-3.25640465-10.14495299-2.25443399-13.77709665zM278.03984966 779.40092129c-3.50689733 4.00788267-7.26428732 7.51477999-11.27216997 10.39544564-4.00788267 3.00591199-8.39150433 5.63608499-13.40135766 7.890519-8.76724333 4.25837533-16.03153064 6.01182399-21.41712296 5.38559232-5.38559233-0.751478-9.51872131-3.50689733-12.52463332-8.64199698-1.878695-3.13115834-2.50492665-5.63608499-1.75344868-7.26428733 0.751478-1.75344867 2.25443399-3.00591199 4.50886801-3.88263632 11.39741632-3.50689733 20.91613764-8.14101166 28.80665662-13.52660398 7.76527266-5.38559233 14.77906732-12.14889432 20.91613764-20.4151523 4.88460698-6.63805565 8.39150433-15.78103798 10.52069199-27.1784543 2.25443399-11.39741632 2.75541933-24.79877397 1.75344865-40.20407294-0.375739-6.13707032-0.12524634-10.89643098 0.87672434-14.52857466 0.87672434-3.50689733 2.25443399-6.01182399 3.88263634-7.01379465 3.00591199-1.878695 6.01182399-2.12918767 9.1429823-0.50098534 3.13115834 1.62820233 5.38559233 5.13509966 7.01379467 10.39544565 1.00197066 3.88263632 1.62820233 9.14298233 1.62820233 15.78103799s-0.375739 13.90234298-1.00197066 21.41712296c-0.751478 7.51477999-1.878695 14.90431364-3.381651 21.91810831-1.37770966 7.01379465-3.13115834 12.77512598-5.13509966 17.15874764-3.13115834 7.01379465-6.38756299 13.02561865-9.51872132 18.28596464-2.88066566 5.88657765-6.26231666 10.52069198-9.64396766 14.52857465zM341.53974058 800.81804425c-1.00197066 1.75344867-2.75541933 2.50492665-5.26034599 2.254434-2.50492665-0.12524634-7.01379465-1.75344867-13.65185032-4.75936066-4.25837533-1.878695-7.89051899-3.63214365-10.89643098-5.38559233-3.00591199-1.75344867-5.63608499-3.381651-7.76527266-4.88460698-2.12918767-1.62820233-3.88263632-3.13115834-5.636085-4.884607-1.62820233-1.75344867-3.13115834-3.50689733-4.50886799-5.63608499-2.75541933-3.88263632-4.25837533-6.63805565-4.25837533-8.76724331-0.12524634-1.878695 0.87672434-4.25837533 3.005912-6.88854834 2.25443399-3.00591199 4.50886799-4.50886799 7.01379466-4.88460699 2.25443399-0.375739 5.13509966 0.751478 8.26625798 3.005912 6.01182399 4.25837533 11.27216999 8.64199699 16.03153065 13.02561865 4.75936066 4.38362166 9.89446032 9.89446032 15.28005264 16.53251597 2.25443399 3.00591199 3.63214365 5.13509966 3.88263634 6.63805567 0.25049266 1.50295599-0.25049266 3.13115834-1.502956 4.63411431z" fill="#FFFFFF" p-id="3122"></path><path d="M517.51083865 767.62776597c-3.88263632 9.64396765-8.76724333 16.53251597-15.1548063 20.54039863-7.38953366 4.88460698-14.90431364 6.63805565-22.66958631 5.636085-7.76527266-1.00197066-15.28005264-5.63608499-22.79483262-13.52660398-3.00591199-3.00591199-5.63608499-5.38559233-7.890519-7.51477998-2.25443399-2.12918767-4.50886799-4.25837533-7.01379466-6.387563-1.878695-1.37770966-3.50689733-1.37770966-4.75936065 0a137.77096646 137.77096646 0 0 1-20.03941331 20.03941331c-7.51477999 6.01182399-17.15874763 12.14889432-29.30764196 18.03547197-7.51477999 3.88263632-13.52660398 5.38559233-17.53448663 5.13509966-4.00788267-0.375739-7.76527266-2.50492665-10.896431-6.38756299-5.38559233-6.01182399-5.38559233-15.40529899 0-28.43091762 1.75344867-4.00788267 3.00591199-10.77118466 3.88263634-20.03941331 0.87672434-9.26822864 1.878695-21.9181083 3.005912-37.82439262 0.12524634-3.381651-0.87672434-4.88460698-3.50689734-4.38362166-2.50492665 0.375739-4.88460698 0.751478-7.13904099 0.87672434-2.25443399 0.12524634-3.88263632 0.375739-4.75936066 0.87672432-5.13509966 1.878695-8.76724333 2.75541933-11.02167731 2.50492668-1.25246333 0-1.878695 0.751478-2.25443401 2.25443399-0.375739 3.50689733-0.751478 7.89051899-0.87672432 13.15086498-0.12524634 5.13509966-0.375739 9.26822864-0.50098533 12.52463331-0.12524634 2.50492665-0.50098533 4.50886799-0.87672434 6.13707032-0.375739 1.62820233-1.00197066 3.00591199-2.12918766 3.88263634-0.87672434 1.00197066-2.25443399 1.878695-3.88263633 2.25443399-1.75344867 0.50098533-4.00788267 1.00197066-7.01379465 1.37770967-4.50886799 0.87672434-7.51477999 0.751478-8.76724333-0.37573901-1.25246333-1.00197066-1.75344867-3.50689733-1.25246334-7.51477998 0.375739-6.51280933 0.87672434-13.52660398 1.25246334-21.29187663 0.375739-7.51477999 0.87672434-15.28005264 1.25246333-23.17057164 0.375739-7.89051899 0.87672434-15.78103798 1.00197067-23.67155697 0.375739-7.89051899 0.50098533-15.40529899 0.87672434-22.79483263 0.12524634-3.50689733-0.375739-6.01182399-1.75344868-7.26428732-1.37770966-1.25246333-4.38362166-2.12918767-9.01773599-2.63017299-5.260346-0.87672434-10.01970665-1.25246333-14.0275893-1.25246334-4.00788267 0-8.76724333 0.375739-14.02758932 1.25246334-0.751478 0-1.37770966 0.50098533-2.50492665 1.37770965-1.00197066 0.87672434-1.37770966 1.62820233-1.37770968 2.12918766-0.12524634 9.14298233-0.375739 18.03547198-0.751478 26.92796164-0.12524634 8.76724333-0.375739 17.03350132-0.50098531 24.54828128-0.12524634 7.51477999-0.375739 14.27808198-0.50098535 20.03941332-0.12524634 5.76133133-0.375739 10.14495299-0.751478 13.15086498-0.375739 6.38756299-1.75344867 10.52069198-4.00788266 12.52463332-2.25443399 1.878695-6.51280933 3.50689733-12.27414066 4.50886798-2.75541933 0.375739-4.50886799 0-5.63608499-1.25246333-1.00197066-1.25246333-1.878695-4.25837533-2.50492666-8.76724331-0.375739-2.50492665-0.50098533-7.89051899-0.37573899-16.15677699 0.12524634-8.26625798 0.87672434-19.16268897 1.87869499-32.56404662 0.12524634-3.381651 0.375739-7.38953366 0.375739-11.89840163 0-4.50886799-0.12524634-9.01773598-0.375739-13.40135766-0.12524634-4.38362166-0.50098533-8.26625798-0.87672433-11.77315532-0.375739-3.50689733-0.751478-6.01182399-1.00197066-7.38953366-1.25246333-5.63608499-1.37770966-10.52069198-0.751478-14.52857464 0.87672434-4.00788267 2.50492665-7.01379465 4.75936065-8.76724333 3.88263632-3.13115834 7.89051899-4.50886799 12.52463331-4.00788264 4.50886799 0.375739 7.76527266 2.25443399 9.64396766 5.38559231 0.12524634 0.375739 0.87672434 0.87672434 1.75344866 1.62820233 0.87672434 0.751478 1.62820233 0.87672434 2.12918767 0.87672435 12.27414065-1.25246333 23.17057163-1.00197066 32.81453929 0.75147799 2.75541933 0.375739 5.260346 0.50098533 7.38953366 0.37573899 2.25443399-0.12524634 4.38362166-0.87672434 6.88854832-1.87869499 5.13509966-2.12918767 10.14495299-1.25246333 15.15480632 2.75541933 1.878695 1.75344867 3.00591199 4.38362166 3.50689732 8.26625799 0.375739 3.88263632 0.12524634 7.51477999-0.87672433 11.39741631-1.75344867 6.63805565-2.75541933 13.40135764-3.381651 19.66367431-0.50098533 6.51280933-0.50098533 14.27808198-0.12524633 23.54631063 0 1.878695 0.751478 2.25443399 1.878695 0.87672433 6.01182399-4.38362166 12.77512598-5.38559233 20.91613764-3.13115832 2.25443399 0.375739 3.88263632 0.375739 4.75936064 0 0.87672434-0.375739 1.25246333-1.75344867 1.25246335-3.88263633-0.12524634-8.14101166-0.50098533-16.03153064-0.87672434-23.92204963-0.375739-7.89051899-1.25246333-15.28005264-2.25443399-21.91810831-1.25246333-8.76724333-0.87672434-15.65579164 0.87672432-20.4151523 1.878695-4.75936066 5.13509966-7.26428732 9.51872134-7.38953365 8.26625798-0.12524634 14.02758931 2.50492665 17.4092403 8.14101165 3.381651 5.63608499 4.38362166 13.52660398 3.13115833 23.54631063-0.12524634 1.00197066-0.375739 2.25443399-0.50098533 3.88263633-0.12524634 1.37770966-0.375739 2.75541933-0.50098533 4.00788267-0.12524634 2.12918767 0.751478 2.75541933 2.50492666 2.25443399 18.28596464-7.51477999 32.31355396-15.65579164 41.95752161-24.04729597 5.38559233-4.88460698 10.01970665-7.26428732 13.65185031-7.26428731 3.63214365 0 7.89051899 2.75541933 12.77512597 8.64199697 6.13707032 6.63805565 4.38362166 13.52660398-5.38559233 20.54039864-2.12918767 1.37770966-5.38559233 3.00591199-10.01970665 4.75936066-4.50886799 1.75344867-9.64396765 3.381651-15.40529897 4.88460698-5.76133133 1.62820233-11.89840165 3.00591199-18.66170364 4.38362168-6.63805565 1.37770966-13.15086498 2.50492665-19.53842796 3.381651-1.37770966 0.12524634-2.50492665 1.00197066-3.005912 2.50492665-0.50098533 1.37770966-0.87672434 4.50886799-1.00197067 9.51872133-0.12524634 3.50689733 0 5.76133133 0.75147799 6.88854832 0.751478 1.00197066 1.75344867 1.37770966 3.50689733 1.37770967 2.75541933 0 6.63805565 0 11.89840166 0.12524633 5.13509966 0.12524634 10.89643098 0.12524634 17.15874765 0.12524633 6.38756299 0 12.77512598 0.12524634 19.66367428 0.375739 6.88854833 0.12524634 13.15086498 0.375739 19.03744265 0.375739 5.76133133 0 10.77118466 0 14.90431364 0.12524634 4.00788267 0.12524634 6.63805565 0.12524634 7.76527266 0.12524632 4.25837533 0.375739 6.88854833 1.25246333 7.89051898 2.254434 1.00197066 1.00197066 1.37770966 3.13115834 1.25246335 6.38756298 0 2.50492665-0.751478 4.38362166-2.12918767 5.38559234-1.37770966 1.00197066-4.00788267 1.75344867-8.14101166 2.25443399-1.878695 0.12524634-4.00788267 0.375739-6.38756298 0.50098534-2.25443399 0.12524634-5.13509966 0.12524634-8.266258 0.12524632s-7.01379465 0-11.39741631-0.12524632-9.89446032-0.12524634-16.15677698-0.50098534c-8.76724333-0.375739-17.53448664-0.751478-26.05123729-0.87672433-8.39150433-0.12524634-16.2820233 0-23.67155697 0.12524634-1.00197066 0-1.878695 0.375739-2.254434 0.87672434-0.50098533 0.751478-0.87672434 1.878695-0.87672434 3.88263631 0 5.260346 0 10.52069198-0.12524632 15.78103798-0.12524634 5.260346-0.12524634 10.14495299-0.12524634 14.77906732 0 4.50886799 0 8.39150433 0.12524634 11.89840164 0.12524634 3.381651 0.12524634 5.76133133 0.50098532 7.26428733 0.375739 2.75541933 1.62820233 4.50886799 3.63214367 5.63608499 1.878695 1.00197066 4.75936066 0.87672434 8.14101167-0.75147799 4.50886799-1.75344867 9.01773598-3.88263632 13.15086496-6.38756301 4.00788267-2.50492665 8.14101166-5.260346 12.14889433-8.26625798 1.37770966-1.25246333 1.75344867-2.50492665 0.751478-3.50689732-3.00591199-3.13115834-6.01182399-6.13707032-9.14298232-9.14298233-3.00591199-2.75541933-6.38756299-5.13509966-10.14495299-7.26428732-3.88263632-2.12918767-6.88854833-3.50689733-9.14298232-4.38362165-1.75344867-0.375739-3.00591199-1.25246333-3.63214366-2.50492667-0.751478-1.25246333-0.87672434-2.50492665-0.37573901-3.88263634 0.50098533-1.25246333 1.75344867-2.25443399 3.50689733-3.13115831s4.25837533-1.00197066 7.38953366-0.75147801c1.75344867 0.12524634 6.13707032 1.878695 13.40135765 5.13509966 7.26428732 3.13115834 17.03350132 7.76527266 29.68338096 13.52660398 3.50689733 1.75344867 8.14101166 3.50689733 13.52660398 5.38559233 5.38559233 1.878695 10.89643098 3.63214365 16.65776231 5.38559233 5.76133133 1.75344867 11.39741632 3.13115834 17.03350131 4.50886799s10.39544565 2.25443399 14.40332831 3.005912c3.13115834 0.375739 5.260346 1.25246333 6.13707032 2.50492666 1.37770966 1.62820233 1.12721701 3.75739-0.12524634 6.51280932zM498.22290335 456.89161342c-18.66170364-0.50098533-34.06700262-0.50098533-46.59163594 0-10.39544565 0.50098533-21.04138397 1.37770966-31.93781495 2.25443399s-21.41712298 2.12918767-31.43682962 3.50689732c-10.01970665 1.37770966-19.53842797 3.00591199-28.30567128 4.75936066-8.76724333 1.75344867-16.15677697 3.88263632-21.9181083 6.011824-10.89643098 4.00788267-18.78694998 4.88460698-23.54631065 3.005912-4.75936066-1.878695-7.51477999-7.26428732-8.39150431-15.78103799 0-0.50098533 0.12524634-1.37770966 0.50098533-2.50492666 0.375739-1.00197066 1.62820233-2.63017299 3.88263632-4.75936066 2.25443399-2.12918767 5.76133133-5.13509966 10.77118466-8.64199698 4.88460698-3.63214365 11.64790898-8.39150433 20.0394133-14.27808199 6.13707032-4.50886799 14.02758931-5.63608499 23.67155697-3.13115833 6.63805565 1.75344867 11.89840165 3.00591199 16.03153065 3.50689734 3.88263632 0.50098533 9.51872131 0.50098533 16.53251596 0.12524633 14.27808198-0.50098533 28.80665662-1.00197066 43.58572395-1.62820233 14.77906732-0.50098533 29.68338096-0.751478 44.9634336-0.75147799 3.63214365 0 5.63608499-1.878695 6.01182399-6.01182399 0.50098533-5.76133133 1.25246333-12.27414065 1.62820233-19.66367433 0.375739-7.38953366 0.751478-14.02758931 0.751478-20.0394133 0-3.63214365-1.75344867-5.38559233-5.13509967-5.38559232-7.01379465 0-14.27808198 0.375739-21.41712297 0.87672433-7.38953366 0.50098533-14.27808198 1.37770966-20.7908913 2.254434-6.51280933 0.87672434-12.27414065 1.878695-17.40924031 3.00591201-5.13509966 1.00197066-8.64199699 2.12918767-10.77118464 3.00591199-7.38953366 3.381651-13.40135764 4.00788267-18.28596466 1.75344865-4.88460698-2.12918767-7.26428732-6.63805565-6.8885483-13.65185032 0.375739-4.00788267 1.62820233-7.51477999 3.88263633-10.89643097 2.25443399-3.381651 5.260346-6.38756299 9.01773597-8.64199699 6.63805565-4.25837533 11.89840165-6.88854833 16.03153065-7.51477999 4.00788267-0.751478 8.64199699-0.12524634 13.65185031 1.62820233 2.50492665 0.87672434 6.38756299 1.62820233 11.64790898 1.75344866 5.260346 0.375739 10.39544565 0.12524634 15.28005265-0.50098532 2.75541933-0.375739 6.38756299-0.50098533 10.77118465-0.751478 4.38362166-0.12524634 9.51872131-0.12524634 15.28005264-0.12524634 4.25837533 0 6.38756299-1.75344867 6.38756301-5.13509966 0.375739-4.88460698 0.50098533-10.14495299 0.50098532-16.15677697 0-6.01182399-0.12524634-11.02167733-0.50098532-15.28005265 0-2.50492665-0.50098533-4.00788267-1.62820234-5.13509966-1.00197066-0.87672434-2.75541933-1.62820233-5.26034599-1.75344867-3.381651-0.375739-6.88854833-0.50098533-10.14495299-0.50098532-3.50689733 0-7.01379465-0.12524634-10.77118466-0.50098534-4.88460698-0.375739-10.52069198-0.12524634-17.15874763 0.12524633-6.51280933 0.50098533-13.02561865 1.00197066-19.16268897 1.75344867-6.38756299 0.751478-11.89840165 1.62820233-17.15874765 2.50492666-5.13509966 0.87672434-8.76724333 1.75344867-10.89643098 2.75541932-18.78694998 7.89051899-30.05911996 8.14101166-33.44077095 0.50098534-2.50492665-5.76133133-2.75541933-11.64790898-0.87672434-17.53448663 1.878695-6.01182399 6.38756299-10.52069198 13.15086498-13.90234299 4.25837533-2.12918767 7.89051899-3.88263632 10.89643099-5.13509966 3.00591199-1.25246333 5.76133133-1.878695 8.26625799-2.254434 2.50492665-0.375739 4.88460698-0.12524634 7.38953365 0.12524633 2.50492665 0.50098533 5.260346 1.00197066 8.64199699 2.12918767 8.26625798 2.50492665 17.53448664 3.00591199 27.9299323 1.75344866 2.12918767-0.375739 7.01379465-0.50098533 14.90431363-0.50098533s17.15874763 0 28.43091764 0.12524634 23.67155697 0.375739 37.44865361 0.751478c13.65185032 0.375739 27.80468596 0.751478 41.95752161 1.25246332l42.70899962 1.62820233c14.27808198 0.50098533 27.1784543 1.25246333 38.9516096 1.75344867 7.51477999 0.50098533 12.64987964 1.878695 15.15480631 4.00788267 2.50492665 2.12918767 3.381651 5.13509966 2.75541932 9.14298231-0.375739 3.63214365-4.00788267 6.38756299-10.89643097 7.76527266-6.63805565 1.62820233-19.28793531 2.63017299-37.94963895 3.50689732-18.66170364 0.751478-40.4545656 0.87672434-65.37858592 0.12524634-4.50886799 0-6.88854833 1.37770966-6.8885483 4.00788265-0.375739 5.13509966-0.50098533 10.77118466-0.50098535 16.53251598v15.40529899c0 3.63214365 2.25443399 5.38559233 6.88854833 5.38559232 6.63805565 0 13.90234298 0 21.41712296 0.12524632 7.51477999 0.12524634 15.15480631 0.375739 22.2938473 0.75147802 7.38953366 0.375739 14.27808198 0.50098533 21.04138397 0.751478 6.63805565 0.12524634 12.77512598 0.375739 18.28596465 0.751478 5.76133133 0.375739 9.64396765 1.25246333 11.64790898 2.75541931 1.878695 1.62820233 3.13115834 4.25837533 3.50689734 8.26625799 0.375739 4.25837533-1.37770966 7.76527266-5.26034601 10.14495298-3.88263632 2.63017299-9.26822864 4.25837533-16.6577623 4.75936067-3.381651 0.375739-7.89051899 0.50098533-13.52660398 0.75147801-5.63608499 0.12524634-11.89840165 0.12524634-19.03744265 0.12524632h-46.0906506c-3.63214365 0-5.38559233 1.37770966-5.38559232 4.00788267 0 5.76133133 0 12.27414065-0.12524634 19.6636743-0.12524634 7.38953366-0.50098533 14.02758931-1.25246333 20.03941331-0.50098533 3.63214365 1.25246333 5.38559233 5.38559234 5.38559233 21.04138397 0.375739 41.33128995 0.751478 60.74447157 1.25246332 19.53842797 0.50098533 35.69520496 1.25246333 48.47033094 2.50492667 4.25837533 0.375739 9.89446032 0.50098533 16.65776231 0.87672433 6.88854833 0.375739 14.27808198 0.50098533 21.91810829 0.50098532h23.04532531c7.51477999 0 14.27808198-0.12524634 20.0394133-0.50098532 2.50492665 0 3.88263632 0.751478 4.00788265 2.12918767 0.375739 1.37770966-0.375739 3.88263632-1.75344865 7.51477998-3.63214365 7.89051899-7.76527266 14.27808198-12.14889432 19.16268897-4.38362166 4.88460698-10.52069198 9.89446032-18.41121097 15.15480632-3.381651 2.12918767-7.38953366 3.88263632-11.89840165 5.13509965-4.50886799 1.25246333-9.89446032 1.75344867-16.03153065 1.37770967-6.13707032-0.375739-13.15086498-1.25246333-21.41712297-3.00591199-8.26625798-1.75344867-17.78497932-4.25837533-28.30567129-7.51477999-3.00591199-0.87672434-7.38953366-1.878695-13.15086497-3.00591199-5.76133133-1.00197066-12.27414065-2.25443399-19.66367433-3.50689734-7.38953366-1.25246333-15.15480631-2.25443399-23.42106429-3.38165098-8.26625798-1.00197066-16.15677697-1.878695-23.67155696-2.50492668-18.91219631-1.00197066-37.4486536-2.00394133-56.11035726-2.50492665zM742.82899202 646.01357647c0 1.878695-1.25246333 3.50689733-3.88263634 4.25837534-5.38559233 1.878695-11.89840165 2.75541933-19.66367431 2.75541932-7.51477999 0-14.90431364-0.50098533-22.2938473-1.62820233-7.26428732-1.00197066-13.90234298-2.63017299-19.66367431-4.50886799-6.01182399-1.878695-10.01970665-4.25837533-12.27414064-6.51280934-6.51280933-6.51280933-6.38756299-13.02561865 0.751478-19.6636743 3.00591199-2.75541933 5.76133133-4.25837533 8.64199699-4.50886799 2.75541933-0.375739 6.01182399 0.375739 9.51872131 2.12918767 13.52660398 6.13707032 24.54828131 11.02167733 33.19027829 14.7790673 8.64199699 3.63214365 15.40529899 6.38756299 20.16465964 8.14101167 3.50689733 1.25246333 5.51083865 2.88066566 5.51083867 4.75936065zM796.68491527 658.91394879c-2.25443399-1.62820233-5.63608499-2.50492665-9.89446031-2.254434-4.25837533 0-7.76527266 0.87672434-10.14495299 2.63017301-2.25443399 1.37770966-4.75936066 2.25443399-7.26428733 2.63017299-2.50492665 0.375739-6.13707032 0.12524634-10.77118465-0.50098533-2.25443399-0.12524634-6.01182399-0.50098533-10.89643099-0.87672433-5.13509966-0.375739-10.52069198-0.751478-16.53251598-1.00197067-6.13707032-0.375739-12.14889432-0.50098533-18.03547197-0.751478-6.01182399-0.12524634-11.27216999-0.12524634-15.65579164-0.12524634-9.64396765 0.12524634-19.16268897 0.50098533-28.3056713 0.87672434-9.14298233 0.50098533-19.53842797 1.25246333-31.06109063 2.25443399-2.12918767 0.12524634-3.63214365 0.12524634-4.50886799 0-0.87672434-0.12524634-2.25443399-1.00197066-4.25837532-2.75541933-3.13115834-2.50492665-6.63805565-3.88263632-10.52069199-4.00788266-4.00788267-0.12524634-7.26428732 1.00197066-10.01970665 3.88263633-1.878695 2.12918767-3.381651 3.88263632-4.38362166 5.636085-1.00197066 1.75344867-1.75344867 3.50689733-2.12918766 5.38559233-0.375739 1.878695-0.375739 4.00788267 0 6.51280931s1.00197066 5.260346 2.12918766 8.39150433c2.25443399 8.26625798 3.00591199 18.28596464 1.878695 30.18436629-1.00197066 11.77315532-4.38362166 24.79877397-9.89446033 38.70111694-4.00788267 9.89446032-11.64790898 16.65776232-22.79483262 20.41515231-11.27216999 3.63214365-24.42303497 4.38362166-39.82833395 2.12918766-2.75541933-0.375739-4.75936066-0.12524634-5.636085 0.751478-0.87672434 0.87672434-1.00197066 2.63017299-0.37573899 5.13509965 1.62820233 6.51280933 4.75936066 12.14889432 9.26822865 17.03350132 4.50886799 4.88460698 10.52069198 8.14101166 17.91022565 9.89446032 7.26428732 1.62820233 14.02758931 1.878695 20.79089129 0.87672433 6.51280933-1.25246333 12.64987964-3.00591199 18.03547198-5.636085 5.38559233-2.63017299 10.39544565-6.01182399 14.77906732-9.89446031 4.38362166-3.88263632 7.76527266-8.14101166 10.01970665-12.52463333 2.63017299-4.88460698 4.75936066-9.26822864 6.51280931-13.40135764 1.75344867-3.88263632 3.381651-7.89051899 4.508868-11.89840164 1.25246333-4.00788267 2.25443399-8.26625798 3.005912-12.64987965 0.751478-4.38362166 1.37770966-9.51872131 1.75344866-15.40529898 0.12524634-2.75541933 0.50098533-4.50886799 1.25246334-5.260346 0.50098533-0.87672434 2.12918767-1.00197066 4.38362165-0.87672432 5.13509966 0.375739 11.89840165 0.50098533 20.54039865 0.75147799 8.76724333 0.12524634 17.91022564 0.375739 27.55419328 0.37573901 9.64396765 0 19.28793531 0 28.93190297-0.12524634 9.64396765-0.12524634 18.03547198-0.50098533 25.42500563-0.87672432 3.381651-0.12524634 6.38756299-0.375739 9.14298232-0.12524634 2.75541933 0.12524634 5.38559233 0.375739 8.26625798 0.75147799 2.75541933 0.375739 5.63608499 0.87672434 8.39150432 1.75344865s6.13707032 1.878695 9.64396766 3.13115834c1.62820233 0.751478 3.63214365 1.00197066 6.01182399 0.87672433 2.25443399 0 4.50886799-0.50098533 6.88854831-1.25246333 2.25443399-0.751478 4.25837533-1.75344867 6.13707035-3.13115832 1.878695-1.37770966 3.13115834-3.13115834 3.88263631-5.260346 0.87672434-2.25443399 1.62820233-4.75936066 2.12918768-7.26428732 0.50098533-2.50492665 0.87672434-5.38559233 0.87672432-8.76724332 0-0.751478 0.12524634-2.25443399 0.375739-4.25837533 0.375739-1.878695 0.50098533-4.25837533 0.751478-6.51280932 0.375739-2.50492665 0.50098533-4.75936066 0.87672433-7.01379466 0.375739-2.25443399 0.751478-4.25837533 0.87672434-5.63608499 1.50295599-8.14101166-1.75344867-14.90431364-10.01970665-20.91613764z m-24.92402031 39.82833395c-1.62820233 1.878695-4.25837533 3.00591199-8.14101165 3.00591199h-34.81848061c-10.14495299 0-20.03941331 0.12524634-29.30764197 0.375739-9.26822864 0.375739-18.41121097 0.50098533-27.55419329 0.751478-9.14298233 0.375739-18.78694998 0.50098533-29.18239563 0.75147799-3.00591199 0.12524634-4.75936066 0-5.26034599-0.37573899-0.751478-0.375739-0.87672434-1.75344867-0.87672432-4.00788266 0-1.37770966 0-2.75541933 0.12524632-4.25837533 0.12524634-1.25246333 0.12524634-2.63017299 0.12524634-3.88263633 0-3.13115834 0.375739-5.13509966 0.751478-6.01182398 0.50098533-0.87672434 1.62820233-1.37770966 3.50689733-1.62820233 2.50492665-0.375739 5.63608499-0.751478 9.14298232-0.87672434 11.77315532-1.00197066 26.0512373-1.878695 42.7089996-2.254434 16.65776232-0.375739 37.94963895-0.375739 63.62513725 0.375739 7.01379465 0.12524634 11.64790898 0.87672434 13.52660398 1.75344866 1.878695 1.00197066 3.00591199 3.00591199 3.38165099 5.38559233 0.375739 5.260346-0.12524634 9.01773598-1.75344867 10.89643099z" fill="#FFFFFF" p-id="3123"></path></svg>